<?xml version="1.0" encoding="utf-8"?>
<!-- Generator: Adobe Illustrator 17.0.0, SVG Export Plug-In . SVG Version: 6.00 Build 0)  -->
<!DOCTYPE svg PUBLIC "-//W3C//DTD SVG 1.1//EN" "http://www.w3.org/Graphics/SVG/1.1/DTD/svg11.dtd">
<svg version="1.1" id="Layer_1" xmlns="http://www.w3.org/2000/svg" xmlns:xlink="http://www.w3.org/1999/xlink" x="0px" y="0px"
	 width="21.839px" height="151.469px" viewBox="295.473 321.135 21.839 151.469"
	 enable-background="new 295.473 321.135 21.839 151.469" xml:space="preserve">
<g>
	<path fill="#C5A661" d="M301.437,463.708c0,0,3.485-2.71-2.989-1.522c-2.734,0.502-4.991-4.641-0.099-4.92l1.832,0.071
		c0,0,2.187,0.111,2.339-2.898s1.35-103.962,1.35-103.962s-0.591-3.708-4.281-3.262c0,0-4.059,0.135-3.966-2.675
		c0,0,0.034-2.675,3.966-2.452c0,0,2.9,0.892,2.93-1.56s0-12.483,0-12.483l2.946-6.91l2.187,6.91v12.26c0,0-0.729,1.338,1.701,1.56
		c2.43,0.223,5.347,0.334,5.59,1.895s0.486,3.232-4.132,3.455c-3.213,0.155-2.664,1.448-3.151,3.454l0.963,101.54
		c0,0-0.546,4.235,2.309,4.458h3.524c0,0,2.856,0.307,2.856,2.341c0,1.56-1.489,2.759-3.19,2.759s-4.247-1.111-2.574,1.94
		c0.66,1.203-0.082-0.11-0.082-0.11L301.437,463.708"/>
	<ellipse fill="#C5A661" cx="306.548" cy="466.92" rx="6.198" ry="5.684"/>
	<path fill="#E2D1AE" d="M305.25,471.443c0,0-5.018-1.763-3.542-5.897s1.635,0,1.635,0S301.724,469.213,305.25,471.443z"/>
	<ellipse fill="#F1E8D6" cx="306.548" cy="466.92" rx="1.809" ry="1.659"/>
	<polygon fill="#E2D1AE" points="305.404,323.223 303.463,327.85 303.463,341.392 304.433,328.268 	"/>
	<path fill="#E2D1AE" d="M307.45,456.388c0,0-2.532-0.722-3.249,0.058l1.203-106.141L307.45,456.388z"/>
	<path fill="#E2D1AE" d="M298.718,346.17c0,0-3.852-0.456-1.324-2.921c0,0,1.191-0.113,0.232,0.913
		C296.667,345.188,298.718,346.17,298.718,346.17z"/>
	<path fill="#E2D1AE" d="M311.888,346.17c0,0,4.333-0.456,1.49-2.921c0,0-1.34-0.113-0.261,0.913S311.888,346.17,311.888,346.17z"/>
	<path fill="#E2D1AE" d="M298.621,461.195c0,0-3.852-0.456-1.324-2.921c0,0,1.191-0.113,0.232,0.913
		C296.571,460.213,298.621,461.195,298.621,461.195z"/>
	<path fill="#E2D1AE" d="M314.217,460.691c0,0,3.852-0.456,1.324-2.921c0,0-1.191-0.113-0.232,0.913
		C316.267,459.709,314.217,460.691,314.217,460.691z"/>
</g>
<polyline fill="#E2D1AE" points="304.99,324.209 306.938,327.688 305.404,323.223 "/>
</svg>
