<?xml version="1.0" encoding="utf-8"?>
<!-- Generator: Adobe Illustrator 17.0.0, SVG Export Plug-In . SVG Version: 6.00 Build 0)  -->
<!DOCTYPE svg PUBLIC "-//W3C//DTD SVG 1.1//EN" "http://www.w3.org/Graphics/SVG/1.1/DTD/svg11.dtd">
<svg version="1.1" id="Layer_1" xmlns="http://www.w3.org/2000/svg" xmlns:xlink="http://www.w3.org/1999/xlink" x="0px" y="0px"
	 width="231.776px" height="313.302px" viewBox="68.34 145.198 231.776 313.302"
	 enable-background="new 68.34 145.198 231.776 313.302" xml:space="preserve">
<g id="Layer_1_1_">
</g>
<g id="Layer_2_1_">
	<rect x="68.34" y="145.5" fill="#45002F" width="231.776" height="313"/>
	<polyline fill="none" stroke="#69274F" stroke-width="2" stroke-miterlimit="10" points="289.451,458.5 289.451,155.833 
		78.453,155.833 78.453,458.5 	"/>
</g>
<g id="Layer_3_1_">
	<path fill="#8E3A6C" d="M91.074,204c0,0,33-0.354,48.473-32.5h89.239c0,0,10.333,29.667,48.595,32.5v254.5H91.074V204z"/>
</g>
<g id="Layer_5_1_">
	<line fill="none" stroke="#6C2A52" stroke-miterlimit="10" x1="126.74" y1="220.619" x2="70.62" y2="145.5"/>
	<line fill="none" stroke="#6C2A52" stroke-miterlimit="10" x1="238.87" y1="223.25" x2="297.861" y2="145.5"/>
	<polyline fill="none" stroke="#69274F" stroke-width="2" stroke-miterlimit="10" points="267.552,458.167 267.552,186.167 
		101.063,186.167 101.063,458.167 	"/>
</g>
<g id="Layer_4_1_">
	<path fill="#6C2A52" d="M244.453,458.5V229.74c0-7.312-5.373-13.24-12-13.24h-97.029c-6.627,0-12,5.928-12,13.24V458.5"/>
	<path fill="#885573" d="M135.787,458.5c0-115.243,21.49-208.667,48-208.667s48,93.423,48,208.667"/>
</g>
<g id="Layer_6_1_">
	<path fill="#6C2A52" d="M185.55,458.5V162.625c0-9.458-0.13-17.125-0.289-17.125h-2.34c-0.16,0-0.289,7.667-0.289,17.125V458.5"/>
	<path fill="#6C2A52" d="M267.008,419.077l-157.071,0.177c-5.021,0.006-9.091,0.14-9.091,0.3l0.003,2.34
		c0,0.16,4.07,0.285,9.091,0.279l157.071-0.177"/>
	<line fill="none" stroke="#69274F" stroke-miterlimit="10" x1="100.847" y1="403" x2="117.57" y2="420.625"/>
	<line fill="none" stroke="#69274F" stroke-miterlimit="10" x1="267.011" y1="403" x2="250.288" y2="420.625"/>
	<line fill="none" stroke="#69274F" stroke-miterlimit="10" x1="100.468" y1="438.251" x2="117.191" y2="420.625"/>
	<line fill="none" stroke="#69274F" stroke-miterlimit="10" x1="266.633" y1="438.251" x2="249.91" y2="420.625"/>
	<line fill="none" stroke="#69274F" stroke-miterlimit="10" x1="78.453" y1="195.08" x2="127.879" y2="221.684"/>
	<line fill="none" stroke="#69274F" stroke-miterlimit="10" x1="240.736" y1="221.684" x2="290.001" y2="195.167"/>
	<line fill="none" stroke="#69274F" stroke-miterlimit="10" x1="116.649" y1="155.833" x2="127.879" y2="221.684"/>
	<line fill="none" stroke="#69274F" stroke-miterlimit="10" x1="240.736" y1="221.684" x2="251.966" y2="155.833"/>
</g>
</svg>
