<?xml version="1.0" encoding="utf-8"?>
<!-- Generator: Adobe Illustrator 17.0.0, SVG Export Plug-In . SVG Version: 6.00 Build 0)  -->
<!DOCTYPE svg PUBLIC "-//W3C//DTD SVG 1.1//EN" "http://www.w3.org/Graphics/SVG/1.1/DTD/svg11.dtd">
<svg version="1.1" id="Layer_2_1_" xmlns="http://www.w3.org/2000/svg" xmlns:xlink="http://www.w3.org/1999/xlink" x="0px" y="0px"
	 width="250.396px" height="251.434px" viewBox="184.38 136.896 250.396 251.434"
	 enable-background="new 184.38 136.896 250.396 251.434" xml:space="preserve">
<line fill="none" stroke="#4F709E" stroke-width="40" stroke-miterlimit="10" x1="299.885" y1="260.902" x2="226.113" y2="242.018"/>
<line fill="none" stroke="#4F709E" stroke-width="40" stroke-miterlimit="10" x1="308.388" y1="254.574" x2="291.502" y2="179.673"/>
<line fill="none" stroke="#4F709E" stroke-width="40" stroke-miterlimit="10" x1="374.834" y1="205.94" x2="320.82" y2="257.036"/>
<line fill="none" stroke="#4F709E" stroke-width="40" stroke-miterlimit="10" x1="394.211" y1="293.368" x2="327.248" y2="275.431"/>
<line fill="none" stroke="#4F709E" stroke-width="40" stroke-miterlimit="10" x1="329.278" y1="349.091" x2="314.823" y2="286.306"/>
<line fill="none" stroke="#4F709E" stroke-width="40" stroke-miterlimit="10" x1="247.428" y1="324.372" x2="297.723" y2="276.413"/>
<line fill="none" stroke="#4F709E" stroke-width="40" stroke-miterlimit="10" x1="303.702" y1="257.036" x2="283.473" y2="231.488"/>
<line fill="none" stroke="#4F709E" stroke-width="40" stroke-miterlimit="10" x1="314.823" y1="257.036" x2="324.191" y2="219.164"/>
<line fill="none" stroke="#4F709E" stroke-width="40" stroke-miterlimit="10" x1="324.191" y1="264.81" x2="366.599" y2="260.902"/>
<line fill="none" stroke="#4F709E" stroke-width="40" stroke-miterlimit="10" x1="319.507" y1="278.631" x2="345.395" y2="306.402"/>
<line fill="none" stroke="#4F709E" stroke-width="40" stroke-miterlimit="10" x1="306.962" y1="278.631" x2="291.502" y2="312.573"/>
<line fill="none" stroke="#4F709E" stroke-width="40" stroke-miterlimit="10" x1="301.316" y1="269.304" x2="258.086" y2="270.172"/>
<line fill="none" stroke="#4F709E" stroke-width="40" stroke-miterlimit="10" x1="262.999" y1="189.7" x2="244.037" y2="161.33"/>
<line fill="none" stroke="#4F709E" stroke-width="40" stroke-miterlimit="10" x1="308.388" y1="172.502" x2="308.388" y2="136.896"/>
<line fill="none" stroke="#4F709E" stroke-width="40" stroke-miterlimit="10" x1="361.111" y1="189.7" x2="385.739" y2="164.426"/>
<line fill="none" stroke="#4F709E" stroke-width="40" stroke-miterlimit="10" x1="394.211" y1="226.032" x2="419.571" y2="211.015"/>
<line fill="none" stroke="#4F709E" stroke-width="40" stroke-miterlimit="10" x1="399.853" y1="263.374" x2="433.935" y2="261.939"/>
<line fill="none" stroke="#4F709E" stroke-width="40" stroke-miterlimit="10" x1="387.939" y1="312.573" x2="419.368" y2="327.495"/>
<line fill="none" stroke="#4F709E" stroke-width="40" stroke-miterlimit="10" x1="352.959" y1="345.341" x2="374.834" y2="372.181"/>
<line fill="none" stroke="#4F709E" stroke-width="40" stroke-miterlimit="10" x1="303.702" y1="355.356" x2="303.68" y2="388.317"/>
<line fill="none" stroke="#4F709E" stroke-width="40" stroke-miterlimit="10" x1="260.023" y1="338.531" x2="240.287" y2="361.477"/>
<line fill="none" stroke="#4F709E" stroke-width="40" stroke-miterlimit="10" x1="229.504" y1="306.402" x2="197.041" y2="324.372"/>
<line fill="none" stroke="#4F709E" stroke-width="40" stroke-miterlimit="10" x1="219.076" y1="260.902" x2="185.421" y2="262.656"/>
<line fill="none" stroke="#4F709E" stroke-width="40" stroke-miterlimit="10" x1="231.479" y1="219.164" x2="191.787" y2="203.748"/>
<line fill="none" stroke="#294F7A" stroke-width="18" stroke-miterlimit="10" x1="308.388" y1="254.574" x2="291.502" y2="179.673"/>
<line fill="none" stroke="#294F7A" stroke-width="18" stroke-miterlimit="10" x1="320.82" y1="257.036" x2="371.169" y2="207.223"/>
<line fill="none" stroke="#294F7A" stroke-width="18" stroke-miterlimit="10" x1="391.789" y1="290.946" x2="320.479" y2="273.804"/>
<line fill="none" stroke="#294F7A" stroke-width="18" stroke-miterlimit="10" x1="226.113" y1="242.018" x2="302.663" y2="263.355"/>
<line fill="none" stroke="#294F7A" stroke-width="18" stroke-miterlimit="10" x1="247.428" y1="324.372" x2="302.207" y2="273.804"/>
<line fill="none" stroke="#294F7A" stroke-width="18" stroke-miterlimit="10" x1="328.389" y1="345.341" x2="313.329" y2="279.804"/>
<line fill="none" stroke="#143A61" stroke-width="18" stroke-miterlimit="10" x1="306.962" y1="260.902" x2="284.924" y2="234.773"/>
<line fill="none" stroke="#143A61" stroke-width="18" stroke-miterlimit="10" x1="314.823" y1="260.902" x2="324.191" y2="226.032"/>
<line fill="none" stroke="#143A61" stroke-width="18" stroke-miterlimit="10" x1="321.949" y1="264.81" x2="356.134" y2="261.939"/>
<line fill="none" stroke="#143A61" stroke-width="18" stroke-miterlimit="10" x1="317.477" y1="276.413" x2="340.772" y2="301.865"/>
<line fill="none" stroke="#143A61" stroke-width="18" stroke-miterlimit="10" x1="306.962" y1="276.413" x2="293.867" y2="306.402"/>
<line fill="none" stroke="#143A61" stroke-width="18" stroke-miterlimit="10" x1="301.316" y1="269.304" x2="265.63" y2="271.041"/>
<rect x="299.885" y="144.163" fill="#2D527F" width="17.006" height="28.339"/>
<rect x="295.12" y="354.891" fill="#2D527F" width="17.12" height="28.339"/>
<rect x="191.787" y="254.574" fill="#2D527F" width="28.339" height="14.73"/>
<rect x="399.853" y="255.67" fill="#2D527F" width="28.339" height="15.371"/>
<rect x="396.66" y="205.005" transform="matrix(0.5 0.866 -0.866 0.5 391.6796 -240.0695)" fill="#2D527F" width="14.179" height="28.338"/>
<polygon fill="#2D527F" points="233.459,228.489 241.112,217.26 204.694,200.03 197.041,211.259 "/>
<polygon fill="#2D527F" points="413.101,331.075 419.368,320.973 386.604,303.465 380.338,313.568 "/>
<rect x="209.275" y="300.516" transform="matrix(0.5 0.866 -0.866 0.5 380.4672 -29.6268)" fill="#2D527F" width="13.233" height="28.338"/>
<rect x="244.523" y="334.946" transform="matrix(0.7431 0.6691 -0.6691 0.7431 298.3701 -79.0433)" fill="#2D527F" width="15.237" height="28.337"/>
<polygon fill="#2D527F" points="359.861,338.531 348.839,349.406 366.259,372.181 377.28,361.305 "/>
<polygon fill="#2D527F" points="255.783,192.713 265.63,185.244 250.134,161.33 240.287,168.799 "/>
<rect x="364.191" y="165.513" transform="matrix(-0.7525 -0.6586 0.6586 -0.7525 532.1029 559.3322)" fill="#2D527F" width="13.921" height="28.339"/>
<g>
	<g>
		<path fill="#4F709E" d="M309.67,168.142c-53.388,0-96.667,43.279-96.667,96.667s43.279,96.667,96.667,96.667
			s96.667-43.279,96.667-96.667S363.058,168.142,309.67,168.142z M309.67,347.47c-45.652,0-82.661-37.008-82.661-82.661
			s37.008-82.661,82.661-82.661c45.652,0,82.661,37.008,82.661,82.661S355.322,347.47,309.67,347.47z"/>
	</g>
</g>
<g>
	<g>
		<path fill="#4F709E" d="M313.018,229.134c-21.337,0-38.634,17.297-38.634,38.634s17.297,38.634,38.634,38.634
			s38.634-17.297,38.634-38.634S334.355,229.134,313.018,229.134z M313.018,300.804c-18.245,0-33.036-14.791-33.036-33.036
			s14.791-33.036,33.036-33.036s33.036,14.791,33.036,33.036S331.264,300.804,313.018,300.804z"/>
	</g>
</g>
<circle fill="#4F709E" cx="312.199" cy="267.353" r="17.079"/>
<circle fill="#2D527F" cx="312.199" cy="267.353" r="6.451"/>
<g>
	<g>
		<path fill="#2D527F" d="M312.775,234.773c-18.166,0-32.893,14.727-32.893,32.893s14.727,32.893,32.893,32.893
			c18.166,0,32.893-14.727,32.893-32.893C345.667,249.499,330.941,234.773,312.775,234.773z M312.775,295.792
			c-15.534,0-28.127-12.593-28.127-28.127s12.593-28.127,28.127-28.127s28.127,12.593,28.127,28.127
			S328.309,295.792,312.775,295.792z"/>
	</g>
</g>
</svg>
