<?xml version="1.0" encoding="utf-8"?>
<!-- Generator: Adobe Illustrator 17.0.0, SVG Export Plug-In . SVG Version: 6.00 Build 0)  -->
<!DOCTYPE svg PUBLIC "-//W3C//DTD SVG 1.1//EN" "http://www.w3.org/Graphics/SVG/1.1/DTD/svg11.dtd">
<svg version="1.1" id="Layer_1" xmlns="http://www.w3.org/2000/svg" xmlns:xlink="http://www.w3.org/1999/xlink" x="0px" y="0px"
	 width="470.667px" height="331.228px" viewBox="69.72 4.792 470.667 331.228" enable-background="new 69.72 4.792 470.667 331.228"
	 xml:space="preserve">
<rect x="69.72" y="267.355" fill="#350E27" width="470.666" height="68.665"/>
<g id="Layer_9">
	<path fill="#45002F" d="M69.721,267.355c0-138.901,105.362-251.502,235.333-251.502s235.333,112.601,235.333,251.502"/>
	<path fill="#51203E" d="M73.975,263.171c0-134.388,103.142-243.331,230.373-243.331S534.72,128.783,534.72,263.171"/>
</g>
<g id="Layer_10">
	<path fill="#6C2A52" d="M105.684,212.195c0-99.968,93.836-181.008,201.935-181.008s187.73,77.024,197.73,179.857"/>
</g>
<g id="Layer_4">
	<path fill="#6C2A52" d="M132.386,220.99c0-91.495,76.653-165.666,171.209-165.666s171.209,74.171,171.209,165.666"/>
	<path fill="#45002F" d="M135.721,218.498c0-88.905,74.918-160.978,167.333-160.978s167.333,72.072,167.333,160.978"/>
</g>
<g id="Layer_2">
	<path fill="#6C2A52" d="M247.265,209.187h-88.679c0,0-15.272,0.75-14.533-12.75s23.155-7.75,19.953-8.5l96.807,18.25
		c0,0,14.78,3.008-0.985,3.008L247.265,209.187z"/>
	<path fill="#6C2A52" d="M247.833,198.826l-85.455-16.984c0,0-14.863-2.189-11.52-15.289s23.824-3.167,20.884-4.516l89.731,36.441
		c0,0,13.656,5.78-1.536,2.761L247.833,198.826z"/>
	<path fill="#6C2A52" d="M251.841,188.898l-79.113-32.1c0,0-13.907-4.833-8.172-17.075s23.571,1.2,20.996-0.654l79.503,51.953
		c0,0,12.055,8.137-2.01,2.43L251.841,188.898z"/>
	<path fill="#6C2A52" d="M258.182,179.746l-70.518-45.707c0,0-12.576-7.207-4.23-18.795c8.345-11.588,22.867,5.063,20.751,2.748
		l66.495,66.077c0,0,10.025,10.284-2.512,2.159L258.182,179.746z"/>
	<path fill="#6C2A52" d="M265.465,171.377l-59.398-56.028c0,0-10.794-9.051-0.144-19.35c10.65-10.299,21.339,8.449,19.758,5.828
		l51.115,75.717c0,0,7.637,11.736-2.922,1.776L265.465,171.377z"/>
	<path fill="#6C2A52" d="M274.246,164.911l-46.509-66.125c0,0-8.663-10.929,3.478-18.645c12.141-7.716,18.891,12.52,17.865,9.673
		l34.884,83.362c0,0,5.133,12.863-3.135,1.107L274.246,164.911z"/>
	<path fill="#6C2A52" d="M282.374,161.478L252.84,85.923c0,0-5.83-12.722,7.799-17.323c13.629-4.602,15.394,16.725,15.071,13.706
		l14.149,89.553c0,0,1.941,13.758-3.31,0.326L282.374,161.478z"/>
	<path fill="#6C2A52" d="M292.176,158.85l-15.311-79.867c0,0-3.47-13.595,11.662-15.806s12.612,19.203,12.892,16.159l-3.57,91.076
		c0,0-0.791,13.952-3.513-0.247L292.176,158.85z"/>
	<path fill="#6C2A52" d="M302.949,157.94l0.082-81.456c0,0-0.86-14.029,14.873-13.335s9.011,21.278,9.888,18.338l-21.36,88.902
		c0,0-3.519,13.573-3.504-0.909L302.949,157.94z"/>
	<path fill="#6C2A52" d="M315.336,159.124l15.892-79.769c0,0,1.906-13.904,16.729-10.259c14.823,3.644,4.436,22.539,5.841,19.824
		l-37.566,83.054c0,0-5.98,12.631-3.155-1.55L315.336,159.124z"/>
	<path fill="#6C2A52" d="M324.127,162.402l34.828-75.111c0,0,5.23-13.292,18.774-6.251s-1.152,23.295,0.874,20.939l-56.723,73.324
		c0,0-8.887,11.089-2.695-2.264L324.127,162.402z"/>
	<path fill="#6C2A52" d="M332.125,167.3l50.539-68.034c0,0,8.057-12.198,19.281-2.98s-6.511,22.73-4.04,20.754l-70.914,62.577
		c0,0-11.017,9.412-2.033-2.683L332.125,167.3z"/>
	<path fill="#6C2A52" d="M341.193,174.927l61.521-59.228c0,0,10.048-10.769,19.394-0.035c9.347,10.735-10.404,21.344-7.634,19.774
		l-80.489,50.813c0,0-12.45,7.59-1.513-2.94L341.193,174.927z"/>
	<path fill="#6C2A52" d="M347.612,182.67l74.21-46.674c0,0,12.334-8.748,19.749,4.413s-14.765,19.52-11.639,18.544l-91.872,33.686
		c0,0-14.158,4.934-0.965-3.364L347.612,182.67z"/>
	<path fill="#6C2A52" d="M353.652,193.318l82.606-32.32c0,0,13.936-6.309,18.478,7.328s-18.567,16.113-15.293,15.689l-97.249,17.212
		c0,0-14.933,2.409-0.247-3.337L353.652,193.318z"/>
	<path fill="#6C2A52" d="M356.409,202.483l86.861-16.291c0,0,14.812-3.589,16.735,10.654c1.922,14.244-21.161,12.353-17.878,12.548
		l-98.4-1.288c0,0-15.066-0.428,0.376-3.324L356.409,202.483z"/>
</g>
<g id="Layer_11">
	<circle fill="#6C2A52" cx="301.496" cy="210.445" r="32.564"/>
	<path fill="#6C2A52" d="M331.109,220.059c-4.36,0.093-5.669,4.692-4.07,7.62c-0.194-0.016-0.395-0.023-0.602-0.018
		c-3.5,0.075-5.033,3.056-4.675,5.743c-0.631-0.286-1.367-0.446-2.213-0.428c-3.262,0.07-4.816,2.663-4.723,5.191
		c-0.812-0.746-1.932-1.214-3.36-1.183c-2.589,0.055-4.102,1.702-4.57,3.642c-0.729-1.525-2.205-2.664-4.41-2.617
		c-2.044,0.044-3.416,1.079-4.134,2.467c-0.55-1.919-2.132-3.5-4.722-3.445c-1.436,0.031-2.54,0.553-3.32,1.341
		c0.142-2.64-1.523-5.405-4.934-5.332c-1.338,0.029-2.385,0.486-3.153,1.185c1.026-2.964-0.553-6.941-4.637-6.853
		c-0.631,0.013-1.196,0.124-1.7,0.308c2.358-2.863,1.029-8.462-3.806-8.359c-6.447,0.138-6.233,10.136,0.214,9.998
		c0.631-0.013,1.196-0.124,1.7-0.308c-2.358,2.863-1.03,8.462,3.806,8.359c1.338-0.029,2.385-0.486,3.153-1.185
		c-1.026,2.964,0.553,6.941,4.637,6.853c1.436-0.031,2.54-0.553,3.32-1.341c-0.142,2.64,1.523,5.405,4.934,5.332
		c2.044-0.044,3.416-1.079,4.134-2.467c0.55,1.919,2.132,3.5,4.722,3.445c2.589-0.055,4.102-1.702,4.57-3.642
		c0.729,1.525,2.205,2.664,4.41,2.617c3.262-0.07,4.816-2.663,4.723-5.19c0.812,0.746,1.932,1.214,3.36,1.183
		c3.5-0.075,5.033-3.056,4.675-5.743c0.631,0.286,1.367,0.446,2.213,0.428c4.36-0.093,5.669-4.692,4.07-7.62
		c0.194,0.016,0.395,0.023,0.602,0.018C337.771,229.919,337.556,219.921,331.109,220.059z"/>
</g>
<g id="Layer_3">
	<ellipse fill="#8E3A6C" cx="301.496" cy="210.492" rx="31.106" ry="30.107"/>
	<circle fill="#6C2A52" cx="301.496" cy="210.492" r="23.754"/>
	<circle fill="#8E3A6C" cx="301.053" cy="210.492" r="17.636"/>
	<circle fill="#6C2A52" cx="301.053" cy="210.445" r="8.75"/>
	<circle fill="#A35F89" cx="301.053" cy="210.445" r="8.141"/>
</g>
<g id="Layer_5">
	<path fill="#A35F89" d="M301.163,223.066l-0.599,17.32c0,0-0.012,3.634-8.809,2.537c-9.063-1.13-5.139-4.706-5.673-4.098
		l13.123-18.477c0,0,2.155-2.816,2.048,0.264L301.163,223.066z"/>
	<path fill="#6C2A52" d="M299.255,222.679l-4.899,13.931c0,0-0.952,2.947-6.557,0.259c-5.774-2.768-2.218-4.868-2.734-4.484
		l13.585-12.311c0,0,2.174-1.844,1.303,0.632L299.255,222.679z"/>
	<path fill="#A35F89" d="M297.616,221.598l-6.993,8.968c0,0-1.4,1.931-6.17-2.448c-4.914-4.511-1.228-4.723-1.776-4.63l14.826-4.182
		c0,0,2.351-0.57,1.107,1.024L297.616,221.598z"/>
	<path fill="#A35F89" d="M301.502,223.066l0.599,17.32c0,0,0.012,3.634,8.809,2.537c9.063-1.13,5.139-4.706,5.673-4.098
		l-13.123-18.477c0,0-2.155-2.816-2.048,0.264L301.502,223.066z"/>
	<path fill="#6C2A52" d="M302.492,223.543l4.047,20.079c0,0,0.935,4.191-6.012,4.636c-7.157,0.458-5.251-5.397-5.497-4.593
		l5.273-22.873c0,0,0.9-3.664,1.62-0.094L302.492,223.543z"/>
	<path fill="#6C2A52" d="M305.221,220.867l12.064,8.516c0,0,2.575,1.72-1.571,6.422c-4.271,4.844-5.307,0.831-5.08,1.435
		l-8.091-16.492c0,0-1.174-2.605,0.971-1.091L305.221,220.867z"/>
	<path fill="#A35F89" d="M304.84,221.132l8.717,8.306c0,0,1.785,1.801,4.66-3.253c2.962-5.206-0.312-4.973,0.193-4.945
		l-14.141-2.463c0,0-2.215-0.296-0.665,1.181L304.84,221.132z"/>
	<path fill="#A35F89" d="M299.489,220.103c0,0-9.362,14.385-11.464,14.405C288.025,234.508,291.427,231.791,299.489,220.103z"/>
	<path fill="#A35F89" d="M289.219,234.475c0,0,1.75,1.213,8.5-10.935C297.719,223.539,291.728,233.627,289.219,234.475"/>
	<path fill="#A35F89" d="M303.362,220.564c0,0,10.718,13.405,12.812,13.22C316.174,233.784,312.525,231.411,303.362,220.564z"/>
	<path fill="#A35F89" d="M314.982,233.867c0,0-1.624,1.377-9.524-10.056C305.458,223.811,312.405,233.267,314.982,233.867"/>
	<path fill="#A35F89" d="M306.806,226.965c0,0,4.956,7.285,6.635,7.694C313.441,234.659,312.23,236.067,306.806,226.965z"/>
	<path fill="#A35F89" d="M300.654,222.251c0,0-2.474,20.167-4.891,22.917C295.763,245.168,298.711,245.668,300.654,222.251z"/>
	<path fill="#A35F89" d="M301.15,222.251c0,0,2.474,20.167,4.891,22.917C306.042,245.168,303.092,245.668,301.15,222.251z"/>
	<path fill="#A35F89" d="M300.686,229.824c0,0-2.205,17.683-3.429,17.373C297.258,247.196,299.406,240.056,300.686,229.824z"/>
	<path fill="#A35F89" d="M303.825,246.759c0,0-1.795-7.237-2.57-17.52C301.256,229.239,302.588,247.009,303.825,246.759"/>
	<path fill="#A35F89" d="M300.957,229.236l-0.358,17.414C300.599,246.65,301.213,251.05,300.957,229.236z"/>
	<path fill="#6C2A52" d="M286.023,225.045c0,0,1.562,1.066,9.662-4.542C295.685,220.503,288.582,225.079,286.023,225.045"/>
	<path fill="#6C2A52" d="M295.28,221.309c0,0-4.896,3.838-6.56,3.911C288.719,225.22,289.923,226.182,295.28,221.309z"/>
	<path fill="#6C2A52" d="M295.92,221.643c0,0-4.428,4.369-6.073,4.632C289.848,226.275,291.154,227.093,295.92,221.643z"/>
	<path fill="#6C2A52" d="M316.387,223.395c0,0-1.415,1.254-10.156-3.292C306.23,220.103,313.853,223.75,316.387,223.395"/>
	<path fill="#6C2A52" d="M306.734,220.852c0,0,5.339,3.192,6.999,3.056C313.733,223.908,312.659,225.013,306.734,220.852z"/>
	<path fill="#6C2A52" d="M306.14,221.264c0,0,4.942,3.778,6.607,3.832C312.747,225.096,311.555,226.072,306.14,221.264z"/>
	<path fill="#6C2A52" d="M297.832,223.723c0,0-7.752,15.313-9.839,15.56C287.992,239.283,291.081,236.214,297.832,223.723z"/>
	<path fill="#6C2A52" d="M290.025,239.931c0,0,1.871,1.016,7.268-11.79C297.293,228.141,292.427,238.817,290.025,239.931"/>
	<path fill="#6C2A52" d="M297.094,231.433c0,0-3.123,8.239-4.66,9.028C292.433,240.461,293.939,241.548,297.094,231.433z"/>
	<path fill="#6C2A52" d="M304.525,223.723c0,0,7.752,15.313,9.839,15.56C314.363,239.283,311.275,236.214,304.525,223.723z"/>
	<path fill="#6C2A52" d="M312.331,239.931c0,0-1.871,1.016-7.268-11.79C305.062,228.141,309.928,238.817,312.331,239.931"/>
	<path fill="#6C2A52" d="M305.263,231.433c0,0,3.123,8.239,4.66,9.028C309.922,240.461,308.418,241.548,305.263,231.433z"/>
	<path fill="#A35F89" d="M296.685,226.809c0,0-4.223,7.733-5.854,8.304C290.831,235.113,292.173,236.396,296.685,226.809z"/>
</g>
<g id="Layer_6">
	<path fill="#6C2A52" d="M263.169,255.72l-119.023,0.916c0,0-2.039-8.502-7.023-6.371c-4.984,2.13-0.012-1.593-0.012-1.593
		l0.215-15.421c0,0,7.679,1.564,8.277-7.367l119.01,0.89c0,0-0.325,6.904,5.2,7.212l0.129,16.78
		C269.943,250.764,263.457,249.717,263.169,255.72z"/>
	<path fill="#A35F89" d="M260.732,252.955l-113.15,0.87c0,0-1.93-7.046-6.67-5.275s-0.01-1.321-0.01-1.321l0.219-12.784
		c0,0,7.299,1.289,7.875-6.115l113.136,0.626c0,0-0.316,5.723,4.936,5.974l0.107,13.91
		C267.176,248.841,261.01,247.979,260.732,252.955z"/>
	<path fill="#6C2A52" d="M259.202,249.754l-109.305,0.841c0,0-1.853-5.266-6.435-3.934s-0.008-0.988-0.008-0.988l0.233-9.561
		c0,0,7.048,0.952,7.618-4.587l109.29,0.278c0,0-0.315,4.281,4.759,4.459l0.08,10.403
		C265.433,246.666,259.48,246.032,259.202,249.754z"/>
	<path fill="#A35F89" d="M260.763,242.198c0-0.156-0.126-0.282-0.282-0.282H146.378c-0.156,0-0.282,0.126-0.282,0.282l0,0
		c0,0.156,0.126,0.282,0.282,0.282H260.48C260.635,242.48,260.763,242.354,260.763,242.198L260.763,242.198z"/>
	<path fill="#A35F89" d="M261.18,238.512c0-0.156-0.126-0.282-0.282-0.282H146.794c-0.156,0-0.282,0.126-0.282,0.282l0,0
		c0,0.156,0.126,0.282,0.282,0.282h114.102C261.052,238.795,261.18,238.668,261.18,238.512L261.18,238.512z"/>
	<path fill="#A35F89" d="M253.72,234.738c0-0.126-0.108-0.227-0.241-0.227h-97.392c-0.133,0-0.241,0.102-0.241,0.227l0,0
		c0,0.126,0.108,0.227,0.241,0.227h97.392C253.612,234.965,253.72,234.863,253.72,234.738L253.72,234.738z"/>
	<path fill="#A35F89" d="M251.926,245.762c0-0.126-0.108-0.227-0.241-0.227h-97.392c-0.133,0-0.241,0.102-0.241,0.227l0,0
		c0,0.126,0.108,0.227,0.241,0.227h97.392C251.819,245.989,251.926,245.887,251.926,245.762L251.926,245.762z"/>
	<path fill="#6C2A52" d="M340.301,255.527l119.023,0.916c0,0,2.039-8.502,7.023-6.371c4.984,2.13,0.012-1.593,0.012-1.593
		l-0.215-15.421c0,0-7.679,1.564-8.277-7.367l-119.01,0.89c0,0,0.325,6.904-5.2,7.212l-0.129,16.78
		C333.529,250.572,340.013,249.525,340.301,255.527z"/>
	<path fill="#A35F89" d="M342.738,252.763l113.15,0.87c0,0,1.931-7.046,6.67-5.275s0.01-1.321,0.01-1.321l-0.219-12.784
		c0,0-7.299,1.289-7.875-6.115l-113.136,0.626c0,0,0.316,5.723-4.936,5.974l-0.107,13.91
		C336.295,248.649,342.461,247.787,342.738,252.763z"/>
	<path fill="#6C2A52" d="M344.268,249.562l109.305,0.841c0,0,1.853-5.266,6.435-3.934s0.008-0.988,0.008-0.988l-0.233-9.561
		c0,0-7.048,0.952-7.618-4.587l-109.29,0.278c0,0,0.315,4.281-4.759,4.459l-0.08,10.403
		C338.038,246.474,343.991,245.84,344.268,249.562z"/>
	<path fill="#A35F89" d="M342.708,242.005c0-0.156,0.126-0.282,0.282-0.282h114.102c0.156,0,0.282,0.126,0.282,0.282l0,0
		c0,0.156-0.126,0.282-0.282,0.282H342.991C342.834,242.288,342.708,242.161,342.708,242.005L342.708,242.005z"/>
	<path fill="#A35F89" d="M342.292,238.32c0-0.156,0.126-0.282,0.282-0.282h114.102c0.156,0,0.282,0.126,0.282,0.282l0,0
		c0,0.156-0.126,0.282-0.282,0.282H342.574C342.418,238.602,342.292,238.476,342.292,238.32L342.292,238.32z"/>
	<path fill="#A35F89" d="M349.75,234.545c0-0.126,0.108-0.227,0.241-0.227h97.392c0.133,0,0.241,0.102,0.241,0.227l0,0
		c0,0.126-0.108,0.227-0.241,0.227h-97.392C349.858,234.773,349.75,234.671,349.75,234.545L349.75,234.545z"/>
	<path fill="#A35F89" d="M351.544,245.57c0-0.126,0.108-0.227,0.241-0.227h97.392c0.133,0,0.241,0.102,0.241,0.227l0,0
		c0,0.126-0.108,0.227-0.241,0.227h-97.392C351.652,245.797,351.544,245.695,351.544,245.57L351.544,245.57z"/>
	<path fill="#6C2A52" d="M130.553,245.416c0,7.329-5.373,13.271-12,13.271h-16.5c-6.627,0-12-5.942-12-13.271v-13.647
		c0-7.329,5.373-13.271,12-13.271h16.5c6.627,0,12,5.942,12,13.271V245.416z"/>
	<path fill="#6C2A52" d="M516.344,244.486c0,7.329-5.373,13.271-12,13.271h-16.5c-6.627,0-12-5.942-12-13.271v-13.647
		c0-7.329,5.373-13.271,12-13.271h16.5c6.627,0,12,5.942,12,13.271V244.486z"/>
</g>
<g id="Layer_8">
	<path fill="#A35F89" d="M119.554,222.446l-17.25,0.368c0,0,1.75,8.689-6.75,6.935v15.419c0,0,6,0.768,5.75,8.018h16.75
		c0,0-1.75-5.986,5.5-6.174l1.25-17.263C124.804,229.75,118.554,230.851,119.554,222.446z"/>
	<path fill="#6C2A52" d="M118.523,223.913l-15.431,0.329c0,0,1.565,7.772-6.038,6.204v13.793c0,0,5.367,0.687,5.144,7.173h14.983
		c0,0-1.565-5.355,4.92-5.523l1.118-15.443C123.218,230.446,117.627,231.431,118.523,223.913z"/>
	<path fill="#A35F89" d="M486.678,222.63l17.25,0.368c0,0-1.75,8.689,6.75,6.935v15.419c0,0-6,0.768-5.75,8.018h-16.75
		c0,0,1.75-5.986-5.5-6.174l-1.25-17.263C481.428,229.933,487.678,231.035,486.678,222.63z"/>
	<path fill="#6C2A52" d="M487.71,224.096l15.431,0.329c0,0-1.565,7.772,6.038,6.204v13.793c0,0-5.367,0.687-5.144,7.173h-14.983
		c0,0,1.565-5.355-4.92-5.523l-1.118-15.443C483.013,230.63,488.604,231.615,487.71,224.096z"/>
	<path fill="#8E3A6C" d="M115.895,227.892l-10.965,0.234c0,0,1.112,5.523-4.291,4.409v9.801c0,0,3.814,0.488,3.655,5.097h10.647
		c0,0-1.112-3.805,3.496-3.924l0.795-10.974C119.232,232.534,115.259,233.234,115.895,227.892z"/>
	<path fill="#8E3A6C" d="M490.094,228.075l10.965,0.234c0,0-1.112,5.523,4.291,4.409v9.801c0,0-3.814,0.488-3.655,5.097h-10.647
		c0,0,1.112-3.805-3.496-3.924l-0.795-10.974C486.756,232.718,490.729,233.418,490.094,228.075z"/>
	<circle fill="#6C2A52" cx="496.053" cy="237.817" r="4.25"/>
	<path fill="#A35F89" d="M495.28,241.261c0,0-3.441-1.318-2.429-4.409c1.012-3.091,1.121,0,1.121,0S492.862,239.594,495.28,241.261z
		"/>
	<circle fill="#6C2A52" cx="109.934" cy="238.231" r="4.25"/>
	<path fill="#A35F89" d="M109.161,241.675c0,0-3.441-1.318-2.429-4.409s1.121,0,1.121,0S106.745,240.008,109.161,241.675z"/>
	<path fill="#6C2A52" d="M534.719,310.829c0,11.336-5.26,20.525-11.747,20.525H85.723c-6.487,0-11.747-9.191-11.747-20.525v-21.948
		c0-11.336,5.26-20.525,11.747-20.525h437.252c6.487,0,11.747,9.191,11.747,20.525L534.719,310.829L534.719,310.829z"/>
</g>
<path fill="#885573" d="M530.552,301.437c0,13.577-5.76,24.583-12.864,24.583h-299.26c-7.105,0-12.864-11.006-12.864-24.583v-4.167
	c0-13.577,5.76-24.583,12.864-24.583h299.261c7.105,0,12.864,11.006,12.864,24.583L530.552,301.437L530.552,301.437z"/>
<g id="Layer_2_1_">
	<circle fill="#294F7A" cx="301.019" cy="36.792" r="31"/>
	<circle fill="#294F7A" cx="431.047" cy="86.359" r="31"/>
	<circle fill="#294F7A" cx="169.928" cy="90.828" r="31"/>
</g>
<g id="Layer_12">
	<g>
		<g>
			
				<rect x="278.589" y="18.139" transform="matrix(0.9998 -0.0175 0.0175 0.9998 -0.6823 5.2673)" fill="none" width="44.047" height="46.952"/>
			
				<text transform="matrix(0.9998 -0.0175 0.0175 0.9998 287.2746 57.593)" fill="#DBD7E7" font-family="'Modern-Regular'" font-size="59.978">2</text>
		</g>
		<g>
			
				<rect x="85.192" y="287.213" transform="matrix(1 -0.0015 0.0015 1 -0.4497 0.1459)" fill="none" width="23.721" height="25.284"/>
			
				<text transform="matrix(1 -0.0015 0.0015 1 85.202 308.3505)" fill="#DBD7E7" font-family="'Modern-Regular'" font-size="25.5464">L E V E L</text>
		</g>
	</g>
	<g>
		<g>
			
				<rect x="405.877" y="63.868" transform="matrix(0.6561 0.7547 -0.7547 0.6561 213.0944 -292.8974)" fill="none" width="44.077" height="46.982"/>
			
				<text transform="matrix(0.6561 0.7547 -0.7547 0.6561 407.1188 87.3795)" fill="#DBD7E7" font-family="'Modern-Regular'" font-size="60">3</text>
		</g>
	</g>
	<g>
		<g>
			
				<rect x="147.878" y="69.337" transform="matrix(0.7547 -0.6561 0.6561 0.7547 -19.2199 134.2521)" fill="none" width="44.077" height="46.982"/>
			
				<text transform="matrix(0.7547 -0.6561 0.6561 0.7547 169.9283 113.6187)" fill="#DBD7E7" font-family="'Modern-Regular'" font-size="60">1</text>
		</g>
	</g>
	<path fill="#45002F" d="M155.823,135.865c-0.363,0.544-1.287,0.566-2.065,0.048l-16.89-11.249
		c-0.777-0.518-1.114-1.379-0.752-1.924l0,0c0.363-0.544,1.287-0.566,2.065-0.048l16.89,11.249
		C155.848,134.46,156.186,135.321,155.823,135.865L155.823,135.865z"/>
	<path fill="#45002F" d="M448.996,132.016c0.393,0.523,1.317,0.493,2.064-0.068l16.229-12.183c0.747-0.561,1.034-1.44,0.642-1.963
		l0,0c-0.393-0.523-1.317-0.493-2.064,0.068l-16.229,12.183C448.892,130.614,448.603,131.493,448.996,132.016L448.996,132.016z"/>
	<path fill="#45002F" d="M243.529,65.425c-0.608,0.241-1.36-0.217-1.68-1.023l-6.947-17.516c-0.32-0.806-0.086-1.655,0.522-1.897
		l0,0c0.608-0.241,1.36,0.217,1.68,1.023l6.947,17.516C244.371,64.335,244.137,65.184,243.529,65.425L243.529,65.425z"/>
	<path fill="#45002F" d="M373.088,67.278c0.608,0.241,1.36-0.217,1.68-1.023l6.947-17.516c0.32-0.806,0.086-1.655-0.522-1.897l0,0
		c-0.608-0.241-1.36,0.217-1.68,1.023l-6.947,17.516C372.246,66.188,372.48,67.037,373.088,67.278L373.088,67.278z"/>
</g>
</svg>
