<?xml version="1.0" encoding="utf-8"?>
<!-- Generator: Adobe Illustrator 17.0.0, SVG Export Plug-In . SVG Version: 6.00 Build 0)  -->
<!DOCTYPE svg PUBLIC "-//W3C//DTD SVG 1.1//EN" "http://www.w3.org/Graphics/SVG/1.1/DTD/svg11.dtd">
<svg version="1.1" xmlns="http://www.w3.org/2000/svg" xmlns:xlink="http://www.w3.org/1999/xlink" x="0px" y="0px"
	 width="369.372px" height="152.875px" viewBox="121.463 320.666 369.372 152.875"
	 enable-background="new 121.463 320.666 369.372 152.875" xml:space="preserve">
<g id="Layer_2">
	<path fill="none" stroke="#213551" stroke-width="6" stroke-miterlimit="10" d="M195.186,403.938
		c2.359,0.228,4.937-0.847,7.262-1.251c4.322-0.751,8.628-1.184,12.999-1.498c12.714-0.913,25.79-0.451,38.399,1.424
		c4.319,0.642,8.631,1.553,12.964,2.081c7.443,0.908,15.139-1.709,22.625-2.057c13.384-0.622,28.486-1.645,41.299,2.939
		c4.656,1.666,8.646,4.7,13.579,4.058c14.315-1.863,27.873-3.511,42.223-0.948c4.768,0.852,9.194-0.941,14.034-1.682
		c6.547-1.002,13.541-1.113,20.172-0.734c3.365,0.192,5.714,0.189,9.119-0.758c2.404-0.669,5.253-1.462,7.659-0.575"/>
	<g>
		<path fill="#213551" d="M209.241,399.279c0,0,0.168-0.614,0.462-1.688c0.216-0.646,0.467-1.506,0.803-2.324
			c0.335-0.804,0.715-1.703,1.196-2.619c0.454-0.939,1.013-1.888,1.604-2.88c0.596-0.989,1.258-1.987,1.952-3.004
			c0.704-1.005,1.442-2.024,2.207-3.036c0.767-1.009,1.553-2.018,2.344-3.014c1.581-1.992,3.174-3.939,4.6-5.793
			c0.705-0.944,1.386-1.857,2.031-2.722c0.627-0.874,1.292-1.697,1.891-2.447c0.572-0.768,1.217-1.392,1.738-1.966
			c0.269-0.282,0.506-0.556,0.749-0.788c0.257-0.219,0.494-0.42,0.707-0.601c0.844-0.716,1.327-1.125,1.327-1.125
			s-0.391,0.495-1.076,1.36c-0.169,0.214-0.356,0.45-0.559,0.708c-0.189,0.269-0.366,0.583-0.569,0.904
			c-0.391,0.655-0.874,1.349-1.276,2.199c-0.427,0.831-0.89,1.712-1.342,2.711c-0.468,0.986-0.961,2.025-1.471,3.101
			c-1.058,2.151-2.247,4.393-3.389,6.627c-0.572,1.116-1.129,2.232-1.661,3.329c-0.529,1.098-1.023,2.18-1.481,3.225
			c-0.442,1.048-0.854,2.058-1.196,3.016c-0.335,0.957-0.65,1.859-0.857,2.686c-0.243,0.827-0.387,1.575-0.519,2.23
			c-0.12,0.644-0.136,1.096-0.207,1.511c-0.076,1.094-0.119,1.719-0.119,1.719L209.241,399.279z"/>
	</g>
	<g>
		<path fill="#213551" d="M227.188,399.818c0,0,0.078-0.5,0.215-1.375c0.039-0.36,0.225-1.17,0.409-1.942
			c0.172-0.842,0.467-1.581,0.775-2.407c0.278-0.845,0.741-1.648,1.146-2.539c0.477-0.84,0.952-1.738,1.532-2.585
			c0.286-0.423,0.578-0.854,0.872-1.29c0.315-0.414,0.633-0.832,0.954-1.254c0.627-0.85,1.353-1.629,2.037-2.431
			c0.726-0.766,1.428-1.543,2.177-2.247c0.724-0.726,1.477-1.395,2.199-2.04c1.461-1.275,2.868-2.392,4.111-3.292
			c0.623-0.449,1.186-0.863,1.709-1.201c0.519-0.342,0.958-0.652,1.342-0.879c0.754-0.466,1.185-0.732,1.185-0.732
			s-0.352,0.363-0.968,0.997c-0.312,0.31-0.663,0.719-1.075,1.17c-0.416,0.447-0.857,0.982-1.339,1.556
			c-0.963,1.151-2.023,2.542-3.079,4.067c-0.519,0.77-1.056,1.559-1.549,2.391c-0.521,0.812-0.976,1.679-1.451,2.522
			c-0.426,0.87-0.893,1.713-1.244,2.582c-0.183,0.428-0.364,0.853-0.543,1.273c-0.152,0.424-0.302,0.843-0.45,1.254
			c-0.302,0.817-0.486,1.622-0.695,2.363c-0.122,0.751-0.334,1.448-0.36,2.082c-0.065,0.634-0.141,1.227-0.092,1.607
			c0.021,0.44-0.018,0.679,0.047,1.202c0.082,0.881,0.129,1.385,0.129,1.385L227.188,399.818z"/>
	</g>
	<g>
		<path fill="#213551" d="M248.194,402.023c0,0,0.024-0.13,0.069-0.372c0.023-0.121,0.05-0.271,0.083-0.447
			c0.039-0.194,0.049-0.314,0.155-0.739c0.176-0.709,0.43-1.702,0.781-2.373c0.32-0.787,0.776-1.538,1.265-2.358
			c0.523-0.767,1.095-1.577,1.748-2.342c0.648-0.773,1.35-1.542,2.103-2.28c0.746-0.75,1.537-1.477,2.356-2.182
			c0.813-0.713,1.656-1.4,2.505-2.065c0.846-0.671,1.705-1.312,2.549-1.934c0.859-0.621,1.704-1.233,2.522-1.825
			c0.826-0.543,1.624-1.067,2.38-1.564c0.761-0.493,1.463-0.976,2.142-1.393c2.802-1.527,4.67-2.545,4.67-2.545
			s-1.547,1.401-3.867,3.503c-0.552,0.554-1.127,1.196-1.748,1.853c-0.618,0.662-1.27,1.359-1.944,2.081
			c-0.626,0.735-1.274,1.495-1.932,2.267c-0.659,0.786-1.32,1.584-1.952,2.395c-0.638,0.807-1.255,1.621-1.825,2.433
			c-0.58,0.807-1.117,1.614-1.591,2.4c-0.487,0.781-0.903,1.548-1.256,2.267c-0.364,0.721-0.618,1.397-0.85,2.006
			c-0.169,0.605-0.346,1.148-0.387,1.588c-0.123,0.519-0.013,0.637-0.047,0.818c-0.017,0.019,0.006,0.313,0.013,0.472
			c0.01,0.179,0.018,0.331,0.025,0.454c0.013,0.247,0.021,0.378,0.021,0.378L248.194,402.023z"/>
	</g>
	<g>
		<path fill="#213551" d="M268.63,402.773c0,0,0.38-0.595,1.044-1.638c0.347-0.528,0.676-1.124,1.332-1.949
			c0.604-0.785,1.281-1.698,2.033-2.607c0.765-0.827,1.594-1.722,2.47-2.669c0.923-0.873,1.896-1.794,2.902-2.747
			c1.051-0.89,2.131-1.808,3.243-2.713c1.155-0.855,2.283-1.765,3.482-2.584c1.208-0.809,2.372-1.656,3.611-2.374
			c0.622-0.378,1.24-0.754,1.85-1.125c0.605-0.314,1.202-0.624,1.789-0.929c0.587-0.305,1.165-0.605,1.731-0.899
			c0.592-0.27,1.172-0.533,1.736-0.79c1.129-0.507,2.186-0.997,3.165-1.394c3.901-1.652,6.501-2.753,6.501-2.753
			s-2.365,1.542-5.913,3.856c-0.899,0.566-1.822,1.216-2.805,1.886c-0.489,0.336-0.991,0.682-1.504,1.035
			c-0.505,0.389-1.02,0.786-1.544,1.189c-0.524,0.404-1.057,0.814-1.597,1.23c-0.485,0.431-0.975,0.867-1.47,1.307
			c-1.032,0.871-1.991,1.874-2.978,2.824c-0.979,0.961-1.88,2.004-2.803,2.978c-0.86,1.027-1.706,2.039-2.524,3.017
			c-0.749,1.015-1.472,1.997-2.158,2.927c-0.612,0.957-1.191,1.862-1.725,2.698c-0.454,0.82-0.807,1.547-1.156,2.185
			c-0.346,0.572-0.625,1.349-0.861,1.904c-0.47,1.142-0.738,1.795-0.738,1.795L268.63,402.773z"/>
	</g>
	<g>
		<path fill="#213551" d="M295.551,399.923c0,0,0.454-0.409,1.248-1.124c0.397-0.357,0.879-0.792,1.433-1.289
			c0.277-0.249,0.571-0.514,0.881-0.793c0.329-0.28,0.712-0.577,1.09-0.883c0.764-0.608,1.591-1.267,2.466-1.964
			c0.867-0.711,1.81-1.307,2.767-2.003c0.961-0.676,1.941-1.388,2.976-2.034c1.024-0.661,2.064-1.333,3.104-2.004
			c2.1-1.284,4.19-2.575,6.157-3.742c1.958-1.182,3.786-2.286,5.352-3.231c1.57-0.942,2.834-1.784,3.743-2.349
			c0.902-0.573,1.418-0.901,1.418-0.901s-0.438,0.425-1.204,1.17c-0.772,0.736-1.851,1.83-3.198,3.073
			c-1.344,1.248-2.912,2.704-4.593,4.263c-1.692,1.547-3.455,3.218-5.222,4.877c-0.858,0.846-1.715,1.692-2.559,2.525
			c-0.857,0.819-1.632,1.676-2.395,2.489c-0.743,0.82-1.536,1.588-2.146,2.354c-0.627,0.753-1.22,1.466-1.767,2.123
			c-0.272,0.331-0.533,0.626-0.78,0.944c-0.247,0.337-0.481,0.656-0.701,0.956c-0.44,0.6-0.824,1.123-1.14,1.554
			c-0.632,0.862-0.993,1.354-0.993,1.354L295.551,399.923z"/>
	</g>
	<g>
		<path fill="#213551" d="M318.883,401.348c0,0,0.375-0.437,1.031-1.2c0.166-0.192,0.349-0.405,0.549-0.636
			c0.246-0.258,0.513-0.536,0.798-0.834c0.57-0.594,1.216-1.27,1.896-1.851c1.36-1.264,2.993-2.561,4.714-3.904
			c1.712-1.339,3.547-2.699,5.242-4.127l0.645-0.534l0.081-0.067l0.01-0.008l0.063-0.063l0.021-0.017l0.042-0.034l0.169-0.134
			l0.337-0.268c0.449-0.357,0.896-0.712,1.339-1.065c0.887-0.705,1.76-1.399,2.605-2.071c0.847-0.67,1.666-1.317,2.443-1.931
			c0.812-0.582,1.58-1.132,2.289-1.64c2.819-2.016,4.698-3.359,4.698-3.359s-1.533,1.705-3.833,4.262
			c-0.571,0.635-1.189,1.324-1.843,2.052c-0.624,0.766-1.282,1.573-1.963,2.408c-0.679,0.838-1.381,1.703-2.094,2.582
			c-0.357,0.44-0.716,0.883-1.077,1.328l-0.271,0.334l-0.136,0.167l-0.034,0.042l-0.017,0.021c-0.014,0.015,0.094-0.096,0.044-0.044
			l-0.008,0.011l-0.068,0.088l-0.545,0.702c-1.451,1.896-2.975,3.648-4.337,5.3c-1.357,1.643-2.581,3.157-3.485,4.474
			c-0.502,0.665-0.824,1.229-1.128,1.722c-0.153,0.245-0.296,0.474-0.428,0.686c-0.143,0.265-0.274,0.508-0.393,0.728
			c-0.476,0.887-0.747,1.394-0.747,1.394L318.883,401.348z"/>
	</g>
	<g>
		<path fill="#213551" d="M339.915,409.233c0,0,0.042-0.147,0.122-0.423c0.04-0.138,0.089-0.308,0.147-0.508
			c0.029-0.1,0.06-0.208,0.093-0.322c0.036-0.121,0.055-0.211,0.134-0.422c0.133-0.372,0.285-0.781,0.46-1.22
			c0.089-0.217,0.182-0.443,0.278-0.678c0.1-0.217,0.21-0.394,0.32-0.602c0.225-0.402,0.458-0.835,0.72-1.27
			c0.282-0.406,0.579-0.833,0.889-1.279c0.645-0.848,1.362-1.731,2.174-2.554c0.396-0.43,0.814-0.845,1.255-1.244
			c0.434-0.411,0.877-0.826,1.344-1.212c1.843-1.594,3.878-3.09,5.914-4.507c2.032-1.419,4.078-2.756,5.87-4.081
			c0.887-0.678,1.743-1.38,2.546-2.039c0.812-0.673,1.602-1.3,2.331-1.873c0.753-0.555,1.425-1.074,2.075-1.476
			c0.619-0.433,1.217-0.734,1.695-0.987c0.464-0.276,0.903-0.363,1.161-0.481c0.269-0.099,0.412-0.151,0.412-0.151
			s-0.131,0.081-0.375,0.233c-0.234,0.171-0.619,0.328-1.015,0.69c-0.409,0.34-0.906,0.732-1.414,1.271
			c-0.531,0.501-1.076,1.138-1.678,1.809c-0.586,0.697-1.216,1.451-1.873,2.272c-0.671,0.83-1.37,1.696-2.143,2.589
			c-1.579,1.763-3.323,3.497-4.985,5.258c-1.664,1.756-3.253,3.531-4.562,5.247c-0.34,0.423-0.639,0.852-0.929,1.27
			c-0.302,0.413-0.572,0.824-0.811,1.228c-0.517,0.796-0.901,1.567-1.232,2.261c-0.146,0.347-0.286,0.679-0.419,0.994
			c-0.094,0.31-0.183,0.604-0.267,0.88c-0.037,0.132-0.093,0.275-0.113,0.384c-0.01,0.096-0.02,0.188-0.03,0.277
			c-0.023,0.173-0.051,0.326-0.081,0.461c-0.018,0.039-0.025,0.202-0.034,0.314c-0.009,0.119-0.018,0.231-0.026,0.334
			c-0.016,0.208-0.029,0.384-0.04,0.527c-0.022,0.286-0.034,0.439-0.034,0.439L339.915,409.233z"/>
	</g>
	<g>
		<path fill="#213551" d="M365.302,406.316c0,0,0.051-0.141,0.147-0.406c0.048-0.132,0.107-0.295,0.177-0.487
			c0.036-0.099,0.076-0.205,0.117-0.319c0.068-0.162,0.141-0.334,0.218-0.515c0.157-0.361,0.336-0.757,0.538-1.179
			c0.2-0.371,0.413-0.703,0.645-1.092c0.225-0.392,0.489-0.758,0.768-1.142c0.277-0.387,0.566-0.795,0.89-1.173
			c1.264-1.579,2.83-3.183,4.549-4.763c1.718-1.581,3.592-3.142,5.442-4.671c0.911-0.762,1.823-1.524,2.72-2.273
			c0.891-0.775,1.768-1.539,2.617-2.277c0.833-0.742,1.705-1.436,2.538-2.082c0.825-0.653,1.599-1.262,2.331-1.79
			c1.451-1.079,2.662-1.962,3.516-2.575c0.851-0.616,1.337-0.968,1.337-0.968s-0.403,0.445-1.107,1.224
			c-0.708,0.776-1.712,1.893-2.898,3.237c-0.605,0.665-1.223,1.407-1.869,2.185c-0.653,0.769-1.329,1.586-2.003,2.501
			c-0.678,0.899-1.378,1.828-2.089,2.771c-0.737,0.939-1.487,1.893-2.236,2.846c-1.494,1.879-2.956,3.737-4.211,5.504
			c-1.257,1.763-2.301,3.436-3.004,4.85c-0.195,0.353-0.333,0.689-0.469,1.006c-0.141,0.317-0.274,0.615-0.351,0.886
			c-0.085,0.267-0.19,0.538-0.245,0.741c-0.021,0.167-0.047,0.311-0.076,0.438c-0.016,0.063-0.031,0.122-0.045,0.177
			c-0.016,0.112-0.031,0.216-0.046,0.313c-0.028,0.202-0.053,0.374-0.072,0.513c-0.039,0.279-0.06,0.427-0.06,0.427L365.302,406.316
			z"/>
	</g>
	<g>
		<path fill="#213551" d="M381.71,406.096c0,0,0.049-0.124,0.141-0.356c0.062-0.154,0.295-0.762,0.562-1.347
			c0.253-0.518,0.571-1.112,0.949-1.748c0.382-0.628,0.821-1.312,1.32-2.019c1.982-2.837,4.876-6.176,8.057-9.208
			c3.175-3.027,6.664-5.729,9.599-7.238c0.73-0.38,1.424-0.68,2.048-0.913c0.63-0.225,1.193-0.371,1.658-0.468
			c0.474-0.072,0.837-0.124,1.092-0.115c0.25-0.006,0.383-0.01,0.383-0.01s-0.129,0.034-0.37,0.098
			c-0.242,0.048-0.582,0.184-1.003,0.355c-0.415,0.195-0.902,0.455-1.43,0.8c-0.525,0.353-1.094,0.78-1.681,1.29
			c-2.359,2.027-4.981,5.292-7.226,8.765c-2.249,3.471-4.144,7.157-5.211,9.894c-0.271,0.683-0.482,1.301-0.655,1.839
			c-0.164,0.536-0.275,0.982-0.348,1.331c-0.04,0.301-0.071,0.538-0.092,0.7c-0.035,0.247-0.054,0.379-0.054,0.379L381.71,406.096z"
			/>
	</g>
	<g>
		<path fill="#213551" d="M403.186,405.291c0,0,0.076-0.432,0.209-1.187c0.064-0.335,0.149-0.704,0.26-1.092
			c0.114-0.386,0.241-0.59,0.381-0.918c0.136-0.315,0.297-0.611,0.479-0.885c0.18-0.28,0.362-0.604,0.574-0.858
			c0.411-0.561,0.876-1.08,1.369-1.596c0.498-0.495,1.025-0.982,1.574-1.445c1.097-0.924,2.274-1.779,3.42-2.599
			c0.559-0.403,1.117-0.806,1.667-1.203c0.547-0.416,1.002-0.74,1.452-1.177c0.423-0.397,0.868-0.888,1.284-1.326
			c0.419-0.445,0.828-0.871,1.228-1.246c0.786-0.76,1.563-1.303,2.151-1.558c0.296-0.125,0.533-0.202,0.702-0.222
			c0.163-0.027,0.25-0.041,0.25-0.041s-0.076,0.044-0.219,0.125c-0.143,0.072-0.331,0.223-0.543,0.424
			c-0.424,0.413-0.9,1.1-1.339,2.02c-0.225,0.455-0.446,0.964-0.678,1.515c-0.238,0.557-0.463,1.13-0.787,1.795
			c-0.295,0.628-0.734,1.31-1.11,1.898c-0.393,0.589-0.792,1.187-1.191,1.786c-0.787,1.165-1.536,2.305-2.126,3.358
			c-0.295,0.526-0.542,1.028-0.751,1.491c-0.189,0.461-0.344,0.881-0.428,1.236c-0.067,0.186-0.058,0.332-0.086,0.478
			c-0.032,0.149-0.035,0.272-0.014,0.364c0.02,0.076-0.013,0.238,0.038,0.212c0.049-0.028,0.076-0.066,0.088-0.102
			c0.008-0.005,0.004-0.065,0.012-0.024c0.012,0.067,0.024,0.131,0.035,0.189c0.022,0.118,0.04,0.218,0.055,0.299
			c0.03,0.162,0.046,0.249,0.046,0.249L403.186,405.291z"/>
	</g>
	<g>
		<path fill="#213551" d="M215.193,403.089c0,0-0.064,0.423-0.176,1.163c-0.012,0.053-0.024,0.108-0.037,0.167
			c-0.001,0.088-0.003,0.18-0.004,0.275c-0.008,0.192-0.016,0.404,0.01,0.643c0.017,0.469,0.107,1.033,0.261,1.669
			c0.29,1.273,0.946,2.842,1.845,4.509c0.916,1.664,2.076,3.427,3.349,5.149c2.539,3.454,5.432,6.792,7.484,9.387
			c2.085,2.58,3.253,4.452,3.253,4.452s-1.554-1.552-4.137-3.568c-2.562-2.047-6.106-4.617-9.526-7.544
			c-1.711-1.46-3.379-3.034-4.863-4.683c-1.471-1.663-2.769-3.408-3.67-5.187c-0.454-0.882-0.826-1.753-1.08-2.585
			c-0.143-0.405-0.242-0.809-0.327-1.187c-0.043-0.189-0.085-0.37-0.125-0.543c-0.029-0.205-0.056-0.4-0.082-0.586
			c-0.039-0.362-0.074-0.686-0.105-0.968c-0.014-0.186-0.026-0.344-0.036-0.473c-0.02-0.257-0.03-0.393-0.03-0.393L215.193,403.089z
			"/>
	</g>
	<g>
		<path fill="#213551" d="M234.588,399.5c0,0,0.248,0.519,0.683,1.426c0.217,0.454,0.481,1.005,0.784,1.637
			c0.151,0.316,0.312,0.652,0.482,1.007c0.176,0.322,0.361,0.66,0.554,1.014c0.389,0.708,0.811,1.476,1.257,2.288
			c0.43,0.816,1.014,1.695,1.549,2.598c1.08,1.812,2.34,3.741,3.567,5.673c1.237,1.957,2.499,3.878,3.613,5.76
			c0.555,0.938,1.126,1.811,1.601,2.695c0.478,0.876,0.931,1.704,1.348,2.468c0.207,0.381,0.405,0.746,0.593,1.093
			c0.167,0.36,0.325,0.702,0.474,1.024c0.295,0.639,0.553,1.197,0.765,1.656c0.421,0.913,0.661,1.434,0.661,1.434
			s-0.348-0.459-0.958-1.261c-0.303-0.399-0.671-0.882-1.094-1.438c-0.21-0.276-0.434-0.57-0.669-0.879
			c-0.257-0.295-0.527-0.606-0.808-0.93c-0.562-0.644-1.17-1.341-1.814-2.078c-0.635-0.738-1.382-1.468-2.11-2.247
			c-1.452-1.554-3.102-3.16-4.712-4.782c-1.631-1.637-3.274-3.243-4.786-4.847c-0.757-0.808-1.502-1.522-2.189-2.324
			c-0.692-0.79-1.346-1.537-1.95-2.227c-0.301-0.348-0.589-0.681-0.863-0.998c-0.242-0.31-0.472-0.603-0.689-0.879
			c-0.432-0.552-0.809-1.033-1.119-1.429c-0.621-0.792-0.975-1.245-0.975-1.245L234.588,399.5z"/>
	</g>
	<g>
		<path fill="#213551" d="M254.177,399.73c0,0,0.053,0.132,0.151,0.38c0.049,0.124,0.11,0.277,0.182,0.456
			c0.069,0.173,0.164,0.422,0.219,0.521c0.138,0.275,0.233,0.599,0.559,1.115c0.263,0.491,0.651,1.04,1.085,1.647
			c0.886,1.211,2.13,2.606,3.586,4.092c1.452,1.49,3.109,3.074,4.73,4.773c0.811,0.846,1.606,1.738,2.353,2.659l0.544,0.707
			l0.289,0.382l0.229,0.344c0.305,0.457,0.606,0.908,0.902,1.352c1.17,1.79,2.32,3.401,3.206,4.885
			c1.785,2.925,2.975,4.876,2.975,4.876s-1.575-1.631-3.937-4.077c-1.159-1.225-2.652-2.567-4.178-4.05
			c-0.386-0.368-0.778-0.743-1.174-1.122l-0.298-0.285l-0.271-0.224l-0.601-0.499c-0.829-0.654-1.707-1.286-2.627-1.896
			c-1.833-1.224-3.768-2.393-5.6-3.587c-1.833-1.19-3.566-2.416-5.013-3.671c-0.719-0.636-1.383-1.237-1.938-1.856
			c-0.552-0.55-1.08-1.257-1.49-1.805c-0.232-0.306-0.327-0.457-0.441-0.622c-0.109-0.16-0.202-0.296-0.277-0.406
			c-0.15-0.22-0.231-0.338-0.231-0.338L254.177,399.73z"/>
	</g>
	<g>
		<path fill="#213551" d="M272.667,399.384c0,0,0.141,0.034,0.407,0.097c0.133,0.032,0.296,0.071,0.488,0.117
			c0.123,0.021,0.563,0.15,0.992,0.297c0.427,0.145,0.911,0.324,1.386,0.533c0.345,0.198,0.719,0.413,1.118,0.642
			c0.414,0.225,0.767,0.496,1.151,0.776c0.38,0.282,0.8,0.57,1.159,0.901c0.372,0.326,0.772,0.658,1.155,1.014
			c0.367,0.362,0.747,0.736,1.138,1.12c0.743,0.785,1.51,1.612,2.236,2.501c0.746,0.877,1.459,1.811,2.163,2.769
			c0.707,0.955,1.384,1.948,2.043,2.949c1.308,2.009,2.512,4.07,3.485,6.118c0.505,1.038,0.863,2.02,1.247,2.942
			c0.376,0.927,0.731,1.803,1.059,2.611c0.677,1.596,1.272,2.912,1.678,3.848c0.411,0.934,0.646,1.467,0.646,1.467
			s-0.342-0.468-0.939-1.288c-0.594-0.823-1.467-1.996-2.481-3.426c-0.492-0.719-1.026-1.497-1.59-2.321
			c-0.571-0.819-1.145-1.717-1.784-2.521c-1.281-1.655-2.82-3.329-4.425-4.908c-0.807-0.787-1.624-1.558-2.453-2.282
			c-0.826-0.725-1.649-1.423-2.469-2.045c-0.808-0.642-1.617-1.198-2.374-1.714c-0.382-0.24-0.754-0.473-1.113-0.699
			c-0.36-0.21-0.709-0.385-1.038-0.567c-0.331-0.196-0.643-0.306-0.935-0.438c-0.293-0.127-0.571-0.262-0.808-0.312
			c-0.237-0.073-0.459-0.141-0.664-0.204c-0.102,0.014-0.154,0.029-0.208,0.018c-0.053-0.006-0.038-0.038-0.312-0.034
			c-0.197-0.004-0.365-0.007-0.501-0.01c-0.272-0.005-0.417-0.008-0.417-0.008L272.667,399.384z"/>
	</g>
	<g>
		<path fill="#213551" d="M299.717,398.546c0,0,0.359,0.414,0.987,1.138c0.32,0.38,0.683,0.762,1.146,1.346
			c0.456,0.582,0.971,1.239,1.532,1.955c0.553,0.713,1.04,1.462,1.613,2.264c0.574,0.796,1.102,1.648,1.683,2.521
			c1.142,1.748,2.3,3.609,3.47,5.442c1.167,1.835,2.362,3.622,3.537,5.263c1.223,1.651,2.364,3.192,3.342,4.513
			c0.472,0.681,0.904,1.306,1.287,1.859c0.394,0.54,0.674,1.066,0.928,1.473c0.494,0.822,0.776,1.292,0.776,1.292
			s-0.381-0.393-1.048-1.081c-0.339-0.337-0.715-0.769-1.22-1.206c-0.49-0.445-1.044-0.947-1.647-1.494
			c-1.252-1.064-2.713-2.306-4.278-3.637c-1.572-1.38-3.202-2.907-4.778-4.453c-1.579-1.543-3.129-3.093-4.589-4.489
			c-0.733-0.689-1.427-1.386-2.109-1.978c-0.675-0.593-1.316-1.207-1.894-1.672c-0.57-0.461-1.093-0.883-1.557-1.257
			c-0.457-0.372-0.988-0.728-1.358-1.005c-0.776-0.563-1.219-0.884-1.219-0.884L299.717,398.546z"/>
	</g>
	<g>
		<path fill="#213551" d="M329.504,403.255c0,0-0.013,0.543-0.037,1.494c0.022,0.356-0.01,0.73,0.037,1.293
			c0.048,0.568,0.11,1.218,0.238,1.944c0.113,0.724,0.279,1.521,0.491,2.372c0.204,0.851,0.465,1.757,0.754,2.699
			c0.583,1.885,1.323,3.912,2.093,5.96c0.768,2.049,1.563,4.123,2.225,6.116c0.082,0.249,0.163,0.496,0.244,0.741
			c0.102,0.292,0.149,0.497,0.224,0.746c0.138,0.476,0.272,0.941,0.403,1.394c0.262,0.906,0.51,1.762,0.739,2.553
			c0.227,0.792,0.374,1.552,0.535,2.204c0.152,0.655,0.285,1.226,0.394,1.696c0.216,0.935,0.34,1.469,0.34,1.469
			s-0.242-0.493-0.665-1.356c-0.21-0.429-0.466-0.949-0.759-1.547c-0.302-0.593-0.6-1.268-0.999-1.987
			c-0.402-0.719-0.837-1.497-1.298-2.32c-0.23-0.412-0.467-0.835-0.709-1.267c-0.118-0.203-0.25-0.463-0.359-0.627
			c-0.129-0.212-0.258-0.425-0.389-0.641c-1.051-1.72-2.266-3.519-3.486-5.352c-1.22-1.832-2.444-3.702-3.526-5.553
			c-0.539-0.927-1.051-1.841-1.504-2.745c-0.46-0.897-0.87-1.779-1.215-2.624c-0.358-0.837-0.638-1.647-0.876-2.377
			c-0.243-0.734-0.408-1.514-0.557-2.096c-0.196-0.95-0.308-1.492-0.308-1.492L329.504,403.255z"/>
	</g>
	<g>
		<path fill="#213551" d="M343.682,404.277c0,0,0.465,0.207,1.278,0.57c0.218,0.102,0.397,0.166,0.706,0.325
			c0.299,0.154,0.622,0.321,0.968,0.5c0.339,0.181,0.7,0.374,1.081,0.577c0.33,0.215,0.677,0.442,1.04,0.678
			c0.734,0.455,1.463,1.013,2.218,1.61c0.778,0.57,1.485,1.282,2.264,1.953c0.715,0.736,1.494,1.445,2.18,2.257
			c0.349,0.397,0.7,0.797,1.053,1.198l0.995,1.252c0.662,0.831,1.261,1.708,1.85,2.559c0.564,0.873,1.123,1.719,1.599,2.58
			c0.506,0.838,0.926,1.691,1.336,2.483c0.393,0.804,0.736,1.575,1.041,2.287c0.274,0.731,0.561,1.374,0.744,1.979
			c0.187,0.602,0.375,1.11,0.481,1.548c0.215,0.867,0.338,1.362,0.338,1.362s-0.239-0.448-0.656-1.231
			c-0.204-0.39-0.511-0.837-0.828-1.358c-0.313-0.523-0.745-1.072-1.168-1.685c-0.456-0.597-0.956-1.235-1.506-1.887
			c-0.568-0.642-1.146-1.325-1.808-1.979c-0.631-0.677-1.34-1.322-2.043-1.98c-0.729-0.635-1.458-1.284-2.232-1.873l-1.151-0.881
			c-0.395-0.271-0.788-0.541-1.179-0.81c-0.764-0.552-1.584-0.981-2.33-1.448c-0.79-0.388-1.512-0.834-2.245-1.121
			c-0.72-0.321-1.394-0.613-2.031-0.808c-0.312-0.108-0.612-0.211-0.896-0.309c-0.258-0.059-0.503-0.115-0.733-0.168
			c-0.224-0.055-0.433-0.107-0.627-0.155c-0.182-0.05-0.484-0.09-0.685-0.129c-0.877-0.153-1.378-0.241-1.378-0.241L343.682,404.277
			z"/>
	</g>
	<g>
		<path fill="#213551" d="M373.786,407.209c0,0,0.007,0.121,0.02,0.349c0.007,0.114,0.015,0.254,0.025,0.419
			c0.005,0.111,0.009,0.116,0.011,0.132c0.002,0.019,0.001,0.041-0.001,0.065c-0.063,0.019,0.049,0.432,0.144,0.824
			c0.075,0.217,0.155,0.447,0.24,0.69c0.096,0.249,0.223,0.52,0.341,0.802c0.519,1.137,1.308,2.514,2.261,3.978
			c0.951,1.468,2.067,3.024,3.209,4.605c0.573,0.806,1.146,1.613,1.709,2.407c0.537,0.794,1.065,1.575,1.577,2.331
			c1.014,1.5,1.988,2.858,2.878,3.989c0.459,0.546,0.873,1.066,1.271,1.491c0.405,0.416,0.745,0.807,1.057,1.088
			c0.632,0.566,0.992,0.89,0.992,0.89s-0.435-0.223-1.196-0.613c-0.384-0.198-0.812-0.49-1.331-0.802
			c-0.51-0.321-1.053-0.725-1.662-1.155c-1.182-0.892-2.52-1.999-3.904-3.21c-0.687-0.6-1.396-1.221-2.117-1.851
			c-0.724-0.604-1.459-1.217-2.194-1.831c-3.011-2.463-6.077-5.053-8.203-7.628c-0.263-0.333-0.519-0.642-0.756-0.962
			c-0.232-0.336-0.452-0.655-0.659-0.954c-0.395-0.676-0.729-1.19-1.02-1.987c-0.067-0.178-0.13-0.346-0.19-0.504
			c-0.046-0.134-0.09-0.259-0.13-0.376c-0.051-0.157-0.095-0.291-0.131-0.4c-0.071-0.217-0.109-0.333-0.109-0.333L373.786,407.209z"
			/>
	</g>
	<g>
		<path fill="#213551" d="M393.471,408.648c0,0,0.009,0.153,0.025,0.441c0.016,0.236,0.039,0.866,0.079,0.965
			c0.023,0.122,0.003,0.218,0.039,0.414c0.061,0.229,0.127,0.477,0.197,0.742c0.181,0.545,0.408,1.186,0.76,1.899
			c0.677,1.428,1.73,3.126,3.021,4.915c1.286,1.794,2.814,3.673,4.363,5.607c0.764,0.956,1.578,1.988,2.278,2.972
			c0.71,0.976,1.408,1.937,2.085,2.867c0.677,0.919,1.337,1.803,1.982,2.621c0.633,0.835,1.278,1.57,1.858,2.276
			c0.615,0.662,1.153,1.313,1.685,1.822c0.533,0.509,0.976,0.992,1.387,1.329c0.82,0.691,1.288,1.086,1.288,1.086
			s-0.542-0.293-1.489-0.807c-0.482-0.253-1.012-0.635-1.656-1.038c-0.645-0.404-1.307-0.935-2.071-1.48
			c-0.722-0.582-1.536-1.198-2.337-1.898c-0.819-0.689-1.659-1.434-2.523-2.211c-0.853-0.776-1.735-1.579-2.631-2.394
			c-0.889-0.824-1.766-1.557-2.714-2.345c-3.768-3.09-7.686-6.354-10.233-9.717c-0.645-0.825-1.191-1.681-1.654-2.477
			c-0.217-0.422-0.421-0.817-0.609-1.182c-0.187-0.408-0.348-0.888-0.485-1.276c-0.139-0.401-0.264-0.797-0.297-0.946
			c-0.054-0.202-0.1-0.373-0.137-0.512c-0.074-0.278-0.114-0.427-0.114-0.427L393.471,408.648z"/>
	</g>
	<g>
		<path fill="#213551" d="M410.631,404.757c0,0,0.201,0.348,0.552,0.956c0.166,0.281,0.368,0.623,0.599,1.015
			c0.215,0.371,0.486,0.808,0.808,1.298c1.24,1.944,3.119,4.548,4.948,7.263c0.905,1.368,1.801,2.745,2.561,4.099
			c0.386,0.669,0.73,1.339,1.051,1.967c0.299,0.649,0.604,1.236,0.822,1.819c0.235,0.57,0.442,1.091,0.585,1.571
			c0.153,0.474,0.296,0.877,0.368,1.228c0.165,0.685,0.26,1.076,0.26,1.076s-0.209-0.341-0.575-0.939
			c-0.169-0.301-0.429-0.639-0.71-1.029c-0.27-0.395-0.618-0.813-0.998-1.261c-0.361-0.458-0.821-0.911-1.271-1.401
			c-0.477-0.475-0.974-0.973-1.518-1.463c-1.071-0.992-2.291-1.981-3.519-2.96c-2.478-1.944-5.069-3.844-7.009-5.441
			c-0.481-0.386-0.933-0.766-1.343-1.133c-0.392-0.347-0.733-0.649-1.014-0.898c-0.522-0.471-0.82-0.74-0.82-0.74L410.631,404.757z"
			/>
	</g>
</g>
<g id="Layer_6">
	<g>
		<path fill="#213551" d="M194.167,394.935c-3.873-8.16-9.789-15.014-13.465-23.251c-1.179,0.551-1.809,0.869-1.809,0.869
			s-21.081,16.314-28.256,18.396c-7.175,2.083-23.225,16.894-23.225,16.894l8.61,10.852c0,0-20.703-11.5-7.274,3.032
			c13.429,14.532,20.705,16.314,20.705,16.314c12.698,3.853,21.718,2.196,21.718,2.196l14.563,0.673
			c0.187-0.105,0.362-0.212,0.539-0.319c-1.079-0.044-1.971-0.371-2.67-0.89c-2.346-0.728-3.425-3.066-3.23-5.275
			c-0.219-2.599,1.322-5.376,4.623-5.481c0.547-0.21,1.157-0.343,1.856-0.343c2.634,0,4.191,1.669,4.673,3.643
			c0.047,0.057,0.102,0.108,0.146,0.168c0.081-0.08,0.152-0.172,0.237-0.247c0.061-0.45,0.173-0.864,0.332-1.24
			C194.655,419.544,199.453,406.073,194.167,394.935z"/>
		<path fill="#213551" d="M437.331,387.133c0,0-5.197-6.82-16.579-4.774c0.407,0.027,0.815,0.075,1.223,0.132
			c0.466-0.14,0.979-0.221,1.544-0.221c4.114,0,5.599,4.068,4.464,7.015c0.069-0.002,0.132-0.015,0.203-0.015
			c4.669,0,5.955,5.241,3.863,8.134c1.802,1.59,2.119,4.52,0.942,6.576c0.678,1.819,0.368,4.047-0.946,5.484
			c1.923,2.652,1.003,7.279-2.764,8.032c0.35,2.558-1.011,5.39-4.118,5.736l8.196,3.816l5.975-5.437l3.674-7.449l1.67-9.366
			L437.331,387.133z"/>
	</g>
	<path fill="#4F709E" d="M175.111,427.05c0,0-0.333-4.667-4-4s0-1.333,0-1.333s-3.667-38.667-12-30c0,0,18.196-13.333,31.432,6
		c0,0,2.568,7.186,1.568,9.426C192.111,407.143,183.778,419.717,175.111,427.05z"/>
	<g>
		<path fill="#4F709E" d="M487.945,353.031c-0.704-0.435-1.573-0.697-2.612-0.697c-0.51,0-0.976,0.069-1.405,0.184
			c-3.362-0.261-8.817,2.843-8.817,2.843l-56.055,26.98c0.966-0.036,1.938,0.018,2.908,0.153c0.469-0.142,0.986-0.224,1.555-0.224
			c4.113,0,5.598,4.067,4.464,7.013c0.069-0.003,0.132-0.013,0.202-0.013c4.672,0,5.957,5.248,3.858,8.14
			c1.806,1.592,2.124,4.524,0.94,6.581c0.666,1.812,0.354,4.02-0.953,5.454c1.939,2.645,1.029,7.285-2.734,8.049
			c0.348,2.567-1.035,5.412-4.163,5.742l28.312,13.272c14.466,7.702,22.695,11.004,27.146,11.872
			c0.517,0.181,1.096,0.285,1.743,0.285c0.242,0,0.472-0.018,0.696-0.045c0.833-0.035,1.396-0.236,1.75-0.556
			c3.576-1.998,3.139-8.368-1.318-9.287c-0.608-0.278-1.313-0.445-2.127-0.445c-0.341,0-0.659,0.034-0.964,0.086
			c-0.051-0.077-0.103-0.155-0.155-0.232c2.519-2.782,1.339-8.521-3.547-8.521c-0.688,0-1.298,0.119-1.839,0.323
			c-0.016-0.025-0.034-0.053-0.051-0.078c2.209-2.868,0.953-8.245-3.777-8.245c-0.468,0-0.898,0.058-1.297,0.156
			c-0.056-0.092-0.117-0.192-0.173-0.283c2.542-2.775,1.368-8.54-3.53-8.54c-0.47,0-0.902,0.059-1.304,0.157
			c-0.026-0.048-0.055-0.1-0.08-0.147c1.902-2.819,0.735-7.666-3.502-7.988c-0.003-0.032-0.004-0.05-0.004-0.05
			c0-0.092,0.008-0.183,0.01-0.275c1.928-0.698,2.94-2.517,3.037-4.398c4.199-0.356,5.353-5.173,3.45-7.979
			c3.796-0.175,5.214-3.912,4.267-6.764c0.35,0.072,0.725,0.111,1.125,0.111c4.437,0,5.806-4.724,4.137-7.676
			c0.066,0.002,0.129,0.01,0.197,0.01c3.56,0,5.145-3.045,4.774-5.775c3.743-0.757,4.666-5.349,2.772-8.002
			c0.349,0.072,0.722,0.11,1.121,0.11c3.579,0,5.166-3.077,4.771-5.816C491.097,356.329,490.153,353.924,487.945,353.031z"/>
	</g>
	<path fill="#4F709E" d="M140.444,406.716c0,0,13.34,11.566,17.667-2.093C158.111,404.623,159.111,426.143,140.444,406.716z"/>
	<path fill="#4F709E" d="M137.61,401.361l-2.755,4.097C134.854,405.458,137.913,407.871,137.61,401.361z"/>
	<path fill="#4F709E" d="M136.243,423.748c0,0,0.618-8.159-4.257-14.017s-18.625-5.733,0,8.767L136.243,423.748z"/>
	<path fill="#4F709E" d="M136.243,423.748c0,0-8.132-5.5-11.257-9.5C124.986,414.248,111.874,415.373,136.243,423.748z"/>
	<path fill="#4F709E" d="M161.736,433.748c0,0,8.625-1.625,10.625-8.25c0,0,2.625,3.125,1.75,4.75
		C174.111,430.248,170.111,434.623,161.736,433.748z"/>
	<path fill="#4F709E" d="M191.342,413.123c0,0-10.481,13.5-13.856,13.5v3.058C177.486,429.681,189.448,424.873,191.342,413.123z"/>
	<path fill="#4F709E" d="M180.374,434.421c-0.133-1.598,0.397-3.262,1.593-4.331c-4.126,1.786-3.673,8.928,1.365,9.519
		C181.172,438.789,180.184,436.545,180.374,434.421z"/>
	<path fill="#4F709E" d="M187.916,384.209c-0.659-1.022-1.317-2.044-1.968-3.07C186.197,382.366,186.853,383.493,187.916,384.209z"
		/>
	<path fill="#213551" d="M188.333,385.667c0.173,0,0.339-0.011,0.503-0.025c-1.595-2.494-3.222-4.964-4.736-7.504
		C182.565,381.099,183.973,385.667,188.333,385.667z"/>
	<path fill="#213551" d="M183.61,439.707c-2.363-0.728-3.441-3.09-3.233-5.311c-0.103-1.306,0.232-2.654,1.017-3.684
		c-5.828,0.614-5.632,9.955,0.606,9.955c0.898,0,1.655-0.21,2.3-0.546C184.053,440.001,183.822,439.864,183.61,439.707z"/>
	<circle fill="#7D9DC3" cx="149.5" cy="404.833" r="4.833"/>
	<circle fill="#265C9C" cx="149.295" cy="405.705" r="3.705"/>
	<circle fill="#132E4E" cx="149.417" cy="405.917" r="1.583"/>
	<circle fill="#A8BED7" cx="150.208" cy="405.125" r="0.792"/>
	<path fill="#1C4575" d="M172.5,421.402c0,0-0.209-25.951-4.487-29.069S167,391.666,167,391.666s7.329,1.667,7.29,29L172.5,421.402z
		"/>
	<path fill="#1C4575" d="M174.29,422.667c0,0,3.462,0.805,1.437,2.832c0,0,14.816-15.215,14.816-21.498
		C190.543,404,177.643,425.269,174.29,422.667z"/>
	<path fill="#1C4575" d="M172.434,418.328c0,0,5.576,0.887,5.838,4.441l-2.545,2.729c0,0-1.838-4.411-3.227-4.096L172.434,418.328z"
		/>
	<path fill="none" stroke="#ACBFD8" stroke-width="0.25" stroke-miterlimit="10" d="M164.583,433.417c0,0,7.367-3.5,7.85-5.833
		l0.65,2.098C173.083,429.681,167.333,433.583,164.583,433.417z"/>
	<path fill="none" stroke="#ACBFD8" stroke-width="0.25" stroke-miterlimit="10" d="M178.271,427.05v1.45
		c0,0,11.988-7.324,11.567-13.495C189.838,415.005,186.074,424.184,178.271,427.05z"/>
	<path fill="#ACBFD8" d="M126.5,418.583c0,0-3.582-1.137-3.985-2.333C122.111,415.054,126.75,418.083,126.5,418.583z"/>
	<path fill="none" stroke="#A8BED7" stroke-width="0.25" stroke-miterlimit="10" d="M174.752,418.998c0,0,1.911-25.564-0.462-30.082
		C174.29,388.917,179.753,401.337,174.752,418.998z"/>
	<path fill="none" stroke="#A8BED7" stroke-width="0.25" stroke-miterlimit="10" d="M175.353,418.998c0,0,8.147-15.704,5.147-24.65
		S179.594,415.756,175.353,418.998z"/>
	<path fill="none" stroke="#A8BED7" stroke-width="0.25" stroke-miterlimit="10" d="M176.861,419.417c0,0,12.889-25.198,3.806-29
		C180.667,390.417,194.971,391.566,176.861,419.417z"/>
	<path fill="none" stroke="#A8BED7" stroke-width="0.25" stroke-miterlimit="10" d="M176.861,420.214
		c0,0,12.559-16.862,12.053-23.214C188.913,397,190.727,405.826,176.861,420.214z"/>
	<path fill="#244676" d="M161.913,434.013c0,0,7.971-0.037,11.865-4.572l0.498,2.321
		C174.275,431.763,168.734,436.029,161.913,434.013z"/>
	<path fill="#244676" d="M176.588,427.939c0,0,10.82-2.351,14.725-13.856c0,0-2.519,11.375-13.653,15.91L176.588,427.939z"/>
	<path fill="#244676" d="M156.707,411.25c0,0-1.747,3.437-4.747,3.692c0,0,5.222,0.222,5.986-5.156
		C158.711,404.407,156.707,411.25,156.707,411.25z"/>
</g>
</svg>
