<?xml version="1.0" encoding="utf-8"?>
<!-- Generator: Adobe Illustrator 17.0.0, SVG Export Plug-In . SVG Version: 6.00 Build 0)  -->
<!DOCTYPE svg PUBLIC "-//W3C//DTD SVG 1.1//EN" "http://www.w3.org/Graphics/SVG/1.1/DTD/svg11.dtd">
<svg version="1.1" xmlns="http://www.w3.org/2000/svg" xmlns:xlink="http://www.w3.org/1999/xlink" x="0px" y="0px"
	 width="113.013px" height="343.672px" viewBox="0 0 113.013 343.672" enable-background="new 0 0 113.013 343.672"
	 xml:space="preserve">
<g id="Layer_2_2_">
	<path opacity="0.2" fill="#FFFFFF" d="M89.007,256.914c0,0-65.615-0.682-70.058,0.62s0,0,0,0l-3.692,9.049l-4.5,9.954l-3.786,11.2
		l-3.589,7.999l-2.375,8.692v3.032l-0.643,3.753l0.105,2.872l0.61,4.068l1.928,4.865l1.223,3.557l4.152,2.862l2.625,2.323
		l10.236,4.325v1l4.639,1.875l3.062,0.75l5.938,1.312l5.173,1l4.402,0.438l2.488,0.156l3.344,0.219h3.594l10.625-0.375l4.562-0.406
		l8.938-1.344l7.188-1.906l9.812-3.5l5.125-2.594l5.781-4.625l3.094-3.5l2.25-4.594l1.031-4.469l-0.469-5.188l-0.656-4.031l-1-3
		l-1.969-5.938l-1.281-3.406l-3.5-8.844l-2.812-6.375l-3.875-8.375l-3.781-7.812l-3.406-5.26l-0.344-0.33L89.007,256.914z"/>
</g>
<g id="Layer_1">
	<g id="Layer_2_1_">
	</g>
	<g id="Layer_1_2_">
		<g id="Layer_2">
			<g>
				<path fill="#D1C9C1" d="M67.814,213.765c1.109,0.814,2.443,1.114,3.682,1.635c1.644,0.69,2.867,1.902,3.506,3.576
					c0.301,0.788,0.688,1.379,1.427,1.804c1.021,0.587,1.454,1.402,0.948,2.626c-0.469,1.136-0.145,2.068,0.946,2.773
					c1.418,0.917,1.392,2.021,0.012,3.046c-1.377,1.023-1.395,2.611-0.043,3.752c1.266,1.068,1.275,1.985-0.153,2.698
					c-1.009,0.504-1.227,1.284-1.254,2.21c-0.017,0.574-0.11,1.071-0.504,1.493c-2.107-0.758-4.335-0.831-6.515-0.891
					c-4.628-0.129-9.263-0.037-13.895-0.025c-0.368,0.001-0.736,0.088-1.103,0.135c-0.446-0.015-0.893-0.03-1.339-0.045
					c-0.018-0.137-0.037-0.274-0.055-0.411c1.198-0.073,1.507-1.454,2.561-1.74c0.833,0.16,1.148-0.833,1.996-0.815
					c3.719,0.081,7.44-0.092,11.16,0.202c1.522,0.12,3.061,0.02,4.592,0.02c-1.795-0.112-3.537-0.648-5.32-0.683
					c-2.834-0.056-5.67,0.031-8.505,0c-1.41-0.016-2.831,0.208-4.232-0.125c0.206-0.496,0.666-0.293,1.024-0.379
					c0.462-0.112,0.184-0.288,0.026-0.447c-2.347-1.763-4.589-0.835-6.824,0.268c-0.147,0.064-0.293,0.181-0.441,0.186
					c-3.83,0.113-7.644,0.366-11.437,0.968c-0.801,0.127-0.984,0.419-0.965,1.086c-0.25,0.304-0.649,0.242-0.963,0.391
					c0.047,0.712,0.586,0.631,1.013,0.555c3.141-0.56,6.313-0.792,9.488-1.031c0.599-0.045,1.346,0.025,1.81-0.586
					c1.507-0.182,3.015-0.369,4.508,0.098c-1.14,0.103-2.312-0.035-3.695,0.466c0.91,0.156,1.544,0.265,2.178,0.374
					c0.23,0.717,0.639,0.91,1.277,0.437c0.576-0.015,0.357,0.498,0.51,0.765c-0.436-0.077-0.837-0.081-0.985,0.46
					c-0.13,0.011-0.259,0.023-0.389,0.034c-0.112-0.051-0.227-0.154-0.336-0.147c-4.455,0.288-8.928,0.404-13.325,1.267
					c-1.594,0.313-3.299,0.323-4.934,1.536c3.918-0.422,7.546-0.771,11.162-1.218c2.362-0.292,4.754-0.042,7.101-0.486
					c1.054-0.083,2.108-0.165,3.163-0.248c0.083,0.011,0.166,0.03,0.249,0.031c4.726,0.022,9.452-0.014,14.176,0.087
					c2.46,0.053,4.916,0.313,7.382,0.188c0.821-0.139,1.467,0.215,2.028,0.754c0.8,0.77,0.811,1.549-0.093,2.213
					c-1.471,1.08-1.605,2.636-0.367,3.953c0.622,0.661,0.961,1.48,0.788,2.411c-0.219,1.179,0.666,2.474-0.38,3.572
					c-0.068,0.072-0.024,0.396,0.059,0.444c1.578,0.905,0.851,2.869,1.864,4.023c-1.103-0.322-2.206-0.644-3.309-0.966
					c0.743-0.006,1.76-0.201,1.761-0.849c0.002-0.958-0.767-1.616-1.912-1.655c-1.706-0.059-3.408-0.219-5.111-0.336
					c-0.005-0.149-0.01-0.298-0.015-0.447c1.49,0.118,2.98,0.235,4.524,0.358c-1.528-0.975-3.208-0.663-4.795-0.767
					c-1.972-0.13-3.968-0.38-5.941,0.084c-2.447,0.011-4.895,0.022-7.342,0.034c-0.032-0.02-0.063-0.041-0.095-0.061
					c0.034,0.019,0.067,0.037,0.101,0.056c0.015,0.058,0.024,0.118,0.026,0.178c-0.64,0.604-1.417,0.334-2.151,0.338
					c-0.402-0.559-0.991-0.504-1.571-0.479c-0.301-0.504-0.81-0.285-1.234-0.347c-0.889-0.131-0.398-0.427-0.093-0.707
					c0.27-0.069,0.652,0.293,0.793-0.277c0.262-1.064,0.874-2.065,0.531-3.227c0.277-0.648-0.256-1.258-0.085-1.904
					c0.21-0.795-0.33-1.443-0.851-1.621c-0.759-0.26-0.635-0.695-0.631-1.201c0.417-0.08,0.834-0.159,1.251-0.239
					c0.238,0.703,0.853,0.465,1.28,0.415c3.033-0.355,6.076-0.205,9.114-0.229c2.476-0.02,4.958,0.093,7.749-0.438
					c-3.25-0.053-6.148-0.382-9.067-0.305c-1.624,0.043-3.252-0.045-4.878-0.074c0.003-0.211,0.006-0.422,0.009-0.633
					c0.213-0.141,0.625,0.059,0.692-0.573c-1.113,0.343-2.197,0.504-3.161-0.233c-0.934-0.099-1.746-0.828-2.757-0.536
					c-0.411-0.444-0.642-0.271-0.777,0.228c-1.28,0.312-2.56,0.623-3.84,0.935c-0.078,0.031-0.154,0.086-0.233,0.09
					c-3.735,0.178-7.456,0.498-11.156,1.044c-0.914,0.135-1.718,0.492-2.453,1.061c0.398,0.148,0.771,0.231,1.122,0.176
					c3.209-0.503,6.442-0.661,9.681-0.83c0.767-0.04,1.679,0.099,2.404-0.434c0.954,0.46,1.962,0.426,2.889,0.057
					c0.497-0.198,0.879-0.349,1.349-0.067c-0.143,0.04-0.252,0.105-0.196,0.283c-0.866,0.498-0.565,1.148-0.367,1.904
					c0.243,0.928,0.88,2.017-0.468,2.74c-0.337,0.181-0.226,0.607-0.152,0.925c0.133,0.566,0.332,1.117,0.466,1.683
					c0.193,0.815,0.089,1.511-0.891,1.716c-0.322,0.068-0.66,0.073-0.991,0.087c-2.75,0.112-5.502,0.202-8.251,0.34
					c-0.775,0.039-1.572,0.079-2.283,0.477c-0.295,0.183-0.624,0.178-0.957,0.205c-2.096,0.169-4.157,0.569-6.215,0.982
					c-0.384,0.077-0.93,0.067-0.566,0.736c0.085,0.701,1.636,0.337,1.088,1.498c0.165,0.014,0.331,0.041,0.496,0.041
					c2.273,0.004,4.513,0.773,6.813,0.27c0.453-0.099,0.914,0.065,1.178,0.528c-0.431,0.372-0.949,0.191-1.425,0.198
					c-1.957,0.028-3.915,0.024-5.873,0.031c-0.246,0.002-0.492,0.004-0.738,0.006c-1.169-0.466-2.337-0.619-3.536-0.076
					c-0.258,0.117-0.573,0.08-0.763-0.217c0.333-0.178,0.593-0.427,0.757-0.771c0.861-0.354,0.861-0.354,0.501-0.731
					c0.01-0.167,0.021-0.334,0.031-0.501c0.032-0.04,0.064-0.08,0.096-0.12c-0.039,0.032-0.077,0.065-0.116,0.097
					c-0.218-0.083-0.628-0.252-0.218-0.429c0.897-0.387,0.75-1.09,0.752-1.787c0.006-2.755,0.006-5.51-0.267-8.257
					c-0.081-0.812,0.218-1.444,0.845-1.98c1.294-1.107,1.206-2.688-0.173-3.785c-1.184-0.942-1.326-1.633-0.334-2.792
					c1.625-1.899,1.453-2.536-0.192-4.602c-0.591-0.743-0.656-1.464,0.143-2.178c1.934-1.727,2.109-2.956-0.007-4.778
					c-0.792-0.683-0.68-1.823,0.208-2.648c0.819-0.76,2.152-0.797,2.822-1.499c0.589-0.617,0.538-1.839,1.263-2.633
					c1.435-1.573,3.308-2.348,5.214-3.093c0.068-0.081,0.136-0.162,0.205-0.243c0,0,0.052-0.061,0.052-0.06
					c0.326,0.649,0.916,0.642,1.506,0.579c1.846-0.197,3.69-0.41,5.792-0.645c-0.782-0.08-1.312-0.134-1.842-0.188
					c0.118-0.035,0.235-0.099,0.354-0.102c6.937-0.209,13.874-0.51,20.805,0.174C67.11,214.054,67.623,214.436,67.814,213.765z
					 M51.983,226.844c-1.42,0.03-2.882-0.216-4.176,0.638c-2.197,0.202-4.392,0.425-6.591,0.596c-0.901,0.07-1.732,0.244-2.43,0.877
					c6.117,0.041,12.078-1.568,18.411-1.363c-0.458-0.318-0.83-0.197-0.961-0.536c-0.209-0.521-0.741-0.505-1.136-0.564
					C54.044,226.335,52.995,226.487,51.983,226.844z M55.734,219.809c-0.612-0.075-1.22-0.165-1.749-0.519
					c0.021-0.215,0.07-0.463,0.341-0.407c2.189,0.45,4.397-0.003,6.59,0.153c0.241-0.18,0.483-0.165,0.723,0.001
					c0.395-0.129,0.999,0.602,1.207-0.294c0.13,0.002,0.259,0.004,0.389,0.005c0.736,0.835,1.749,0.942,2.364,0.248
					c1.571-0.109,3.111,0.503,4.709,0.206c-0.183-0.297-0.478-0.336-0.762-0.367c-4.385-0.474-8.757-1.181-13.186-0.965
					c-1.514,0.074-2.43-0.68-3.159-1.825c-0.772-1.213-1.755-1.864-3.279-1.375c0.664,0.73,1.26,1.624,0.906,2.532
					c-0.33,0.847-1.389,0.527-2.154,0.612c-3.666,0.409-7.366,0.554-10.976,1.447c4.738-0.836,9.564-0.148,14.305-0.911
					c0.084,0.26,0.169,0.519,0.253,0.779l0.053,0.109l-0.096,0.075l0.019-0.024c-0.334,0.173-0.667,0.345-1.001,0.518
					c-0.527,0.058-1.073,0.048-1.576,0.191c-0.568,0.161-1.368-0.354-1.693,0.546c-3.897,0.041-7.655,0.947-11.43,1.758
					c0.874,0.526,1.587-0.178,2.385-0.229c3.863-0.249,7.695-0.787,11.536-1.241c0.791-0.093,1.49,0.01,2,0.692
					c-1.315,0.165-2.615,0.378-3.927,1.135c1.657,0.246,3.135-0.082,4.573,0.304c-0.091,1.213-1.038,1.307-1.906,1.352
					c-1.329,0.068-2.65,0.124-3.98,0.262c-3.448,0.356-6.898,0.678-10.307,1.316c-0.994,0.186-2.091,0.215-2.996,1.096
					c0.866,0.13,1.56,0.065,2.266-0.062c2.384-0.429,4.794-0.653,7.205-0.866c2.237-0.198,4.471-0.428,6.705-0.643
					c1.952-0.084,3.916,0.028,5.847-0.38c0.64,0.43,1.309,0.046,1.951,0.026c4.94-0.156,9.868,0.212,14.802,0.264
					c0.669,0.007,1.364,0.123,2.015-0.262c-1.621-0.336-3.243-0.646-4.871-0.681c-4.807-0.105-9.617-0.161-14.425,0.04
					c-0.302-0.038-0.604-0.077-0.907-0.115c-0.036-0.19-0.072-0.381-0.107-0.571c0.677-0.178,0.846-0.985,1.515-1.211
					c0.23-0.078,0.721-0.17,0.54-0.662c-0.132-0.357-0.443-0.485-0.792-0.479c-0.943,0.019-1.885,0.06-2.828,0.092
					c-0.107-0.282-0.213-0.564-0.348-0.921c2.044,0.069,4.02-0.139,5.947,0.427c0.313,0.092,0.576-0.045,0.831-0.183
					c0.464-0.252,0.955-0.273,1.461-0.216c0.231,0.026,0.47,0.265,0.688,0.015c0.06-0.068,0.068-0.262,0.015-0.336
					c-0.21-0.291-0.508-0.148-0.795-0.137c-1.473,0.057-2.946,0.085-4.419,0.124c0.098-0.113,0.295-0.31,0.28-0.327
					C56.281,219.676,55.999,219.781,55.734,219.809z M51.434,229.696c0.123,0.544,0.478,0.472,0.861,0.324
					c0.222,0.052,0.444,0.104,0.666,0.155c-0.301,1.429-1.691,1.392-2.542,1.409c-3.342,0.067-6.647,0.461-9.947,0.865
					c-1.698,0.208-3.477,0.081-5.087,0.861c-0.254,0.123-0.69,0.18-0.61,0.508c0.111,0.456,0.534,0.202,0.839,0.168
					c2.728-0.298,5.453-0.646,8.186-0.883c2.736-0.237,5.481-0.364,8.222-0.539c1.091-0.06,2.181-0.12,3.272-0.18
					c0.834-0.009,1.669-0.003,2.503-0.029c5.729-0.186,11.446,0.228,17.17,0.331c0.341,0.006,0.901,0.214,0.98-0.208
					c0.095-0.508-0.491-0.57-0.881-0.672c-1.669-0.436-3.397-0.313-5.083-0.36c-4.848-0.133-9.701-0.05-14.552-0.047
					c-0.281,0-0.594-0.088-0.811,0.196c-0.121-0.038-0.242-0.077-0.363-0.115c0.004-0.26,0.007-0.52,0.011-0.78
					c0.623-0.572,1.246-1.145,1.914-1.758c-2.142-0.21-6.774,0.181-7.106,0.582C49.861,229.582,50.648,229.639,51.434,229.696z
					 M60.738,228.205c0.073,0.05,0.136,0.128,0.199,0.13c5.248,0.107,10.473,0.562,15.701,0.994c0.19,0.016,0.469-0.023,0.569-0.147
					c0.186-0.232-0.017-0.49-0.177-0.663c-0.333-0.36-0.784-0.419-1.261-0.428c-0.873-0.016-1.74-0.068-2.614-0.179
					C69.01,227.384,64.872,227.581,60.738,228.205z M56.746,249.579c0.398,0.225-0.713,1.112,0.314,1.021
					c1.137-0.101,1.496-0.915,1.108-2.065c-0.099-0.293-0.408-0.473-0.066-0.837c0.175-0.186-0.016-0.484-0.272-0.598
					c-0.34-0.151-0.563,0.018-0.69,0.328C56.866,248.093,56.775,248.795,56.746,249.579z M54.902,228.335
					c-0.617-0.016-1.197-0.171-1.787-0.234c-0.581-0.062-1.091,0.196-1.607,0.415C52.652,228.569,53.787,228.706,54.902,228.335z
					 M75.184,226.344c0.823,0.519,1.507,0.612,2.387,0.357C76.8,226.076,76.06,226.428,75.184,226.344z M35.477,222.628
					c0.071,0.03,0.156,0.098,0.208,0.078c0.05-0.019,0.065-0.129,0.096-0.199c-0.07-0.03-0.156-0.098-0.207-0.079
					C35.523,222.448,35.507,222.557,35.477,222.628z M47.684,222.47l0.003-0.061l0.116,0.039L47.684,222.47z"/>
				<path fill="#F3F0E9" d="M85.065,256.055c1.473,0.244,2.947,0.489,4.421,0.733c1.727,1.39,2.775,2.959,3.61,4.571
					c3.204,6.186,6.225,12.402,8.913,18.666c2.947,6.869,6.164,13.707,8.262,20.686c0.569,1.894,1.261,3.789,1.505,5.7
					c0.368,2.882,1.302,5.73,1.233,8.641c-0.122,5.111-2.719,9.756-7.386,14.088c-4.877,4.527-11.599,7.905-19.851,10.289
					c-5.485,1.585-11.356,2.587-17.438,3.171c-5.46,0.524-10.975,0.757-16.481,0.545c-6.827-0.263-13.597-0.84-20.056-2.224
					c-9.568-2.05-17.5-5.346-23.513-10.075c-0.376-0.295-0.906-0.586-0.75-1.022c0.235-0.069,0.221-0.134-0.012-0.194l0.011,0.009
					c-0.003-0.279,0.008-0.562-0.682-0.58l0.013,0.007c-0.111-0.064-0.222-0.128-0.334-0.192c-0.01-0.055-0.011-0.11-0.003-0.166
					c-0.224-0.455-6.058-14.67-6.058-12.241c0.65,0.006,2.063,12.202,6.391,11.44c1.752-0.308,2.852,2.348,4.522,3.403
					c1.589,1.004,3.081,1.968,5.542,2.566c3.241,0.787,5.617,2.541,8.977,3.375c0.065,0.016,0.065,0.116,0.095,0.176
					c-1.038,0.348-1.885-0.339-3.171-0.213c2.228,0.954,4.46,1.554,6.85,1.981c1.133,0.891,3.017,0.994,4.614,1.36
					c5.257,1.204,10.791,1.776,16.413,2.01c1.592,0.066,3.37,0.156,4.801-0.512c3.199-0.009,6.398-0.009,9.597-0.035
					c0.533-0.004,1.28,0.19,1.495-0.328c1.065-0.057,2.17-0.056,3.209-0.819c-1.277,0-2.231,0-3.185,0
					c0.148-0.466,0.801-0.34,1.327-0.368c1.567-0.084,3.156,0.272,4.645,0.135c6.263-0.579,11.957-2.013,17.195-4.03
					c1.424-0.548,2.647-1.293,4.154-1.737c4.379-1.29,6.879-3.518,9.288-5.789c1.403-1.323,2.715-2.682,4.021-4.04
					c1.211-1.259,1.896-2.591,2.678-3.918c0.643-1.091,0.539-2.245,0.754-3.374c0.519-2.724,0.78-5.416,0.381-8.173
					c-0.372-2.57-0.908-5.119-2.045-7.586c-1.499-3.253-1.913-6.615-3.633-9.854c-1.207-2.274-1.689-4.686-2.813-7
					c-0.9-1.852-1.64-3.73-2.486-5.591c-0.979-2.153-2.082-4.29-2.968-6.455c-0.572-1.397-1.205-2.792-1.825-4.176
					c-0.562-1.256-1.511-2.488-2.172-3.748c-1.261-2.406-1.879-4.913-3.877-7.204c-0.746-0.855-1.678-1.162-3.148-0.948
					c-0.893,0.13-4.81-0.013-5.698,0.008c-0.102-0.499,4.033-0.515,4.053-0.978C84.657,256.049,84.861,256.052,85.065,256.055z"/>
				<path fill="#F3F0E9" d="M20.27,256.765c0.254,0.226,0.674,0.253,1.019,0.165c1.601-0.412,3.162-0.296,4.723,0.058
					c0.084,0.531-1.466,0.094-1.151,0.532c0.311,0.431,1.292,0.142,1.968,0.204c3.661,0.332,11.914-0.75,15.591-0.7
					c0.599,0.008-3.128,0.83-3.116,1.303c0.014,0.554-0.897,0.323-1.421,0.343c-3.796,0.146-7.571-0.202-11.363-0.18
					c-1.519,0.009-3.003-0.091-4.397-0.441c-0.697-0.175-1.1-0.092-1.531,0.265c-1.116,0.924-1.993,1.898-2.315,3.014
					c-0.843,2.923-1.663,5.855-3.092,8.704c-1.399,2.79-2.853,5.566-3.895,8.411c-1.06,2.897-2.783,5.692-3.566,8.646
					c-1.188,4.485-3.497,8.856-4.741,13.347c-0.673,2.432-1.382,4.872-1.428,7.324c-0.049,2.663-0.544,5.316-0.413,7.98
					c0.015,0.299,0.174,0.673-0.673,0.729c-0.504-1.75-0.357-3.492-0.105-5.255c0.175-1.228,0.507-2.5-0.228-3.727
					c-0.55-3.215,0.67-6.326,1.724-9.445c1.538-4.552,3.015-9.111,4.714-13.643c1.156-3.083,2.454-6.152,3.745-9.219
					c1.172-2.785,2.137-5.61,3.285-8.403c1.301-3.165,2.542-6.353,5.345-9.243C19.263,257.208,19.411,256.787,20.27,256.765z"/>
				<path fill="#201915" d="M67.814,213.765c-0.192,0.671-0.704,0.289-1.033,0.256c-6.931-0.683-13.868-0.382-20.805-0.174
					c-0.119,0.004-0.236,0.067-0.354,0.102c-1.233,0.023-2.463,0.228-3.699,0.05c1.459-1.265,3.252-1.982,4.887-2.959
					c0.487-0.291,1.365-0.525,1.241-1.018c-0.16-0.64-1.018-0.276-1.54-0.239c-1.024,0.073-1.701-0.044-1.342-1.313
					c2.438-0.729,4.942-1.11,7.466-1.33c1.192-0.104,2.401-0.018,3.596-0.15c-0.66-0.516-1.321-0.538-1.975-0.175
					c-0.051,0.028-0.06,0.281-0.013,0.311c0.526,0.336,1.12,0.153,1.688,0.191c2.374,0.162,4.733,0.432,7.051,0.988
					c0.016,0.307-0.106,0.678,0.363,0.772c0.112,0.219,0.224,0.438,0.336,0.657c-1.431,0-2.861,0-4.373,0
					c1.405,1.537,3.66,1.212,5.03,2.584c-0.22,0.246-0.491-0.204-0.753,0.294c1.341,0.314,2.539,0.986,3.942,0.929
					C67.622,213.616,67.718,213.691,67.814,213.765z M61.665,212.045c-0.066,0.027-0.132,0.054-0.198,0.081
					c0.062,0.032,0.124,0.087,0.187,0.089c0.065,0.002,0.131-0.047,0.197-0.073C61.79,212.109,61.73,212.077,61.665,212.045z
					 M62.453,212.37c0.075,0.042,0.141,0.105,0.21,0.108c0.068,0.003,0.138-0.055,0.208-0.087c-0.066-0.037-0.131-0.101-0.199-0.105
					C62.603,212.282,62.531,212.337,62.453,212.37z"/>
				<path fill="#908671" d="M76.501,239.653c-2.466,0.125-4.922-0.135-7.382-0.188c-4.724-0.101-9.451-0.065-14.176-0.087
					c-0.083,0-0.166-0.02-0.249-0.031c0.059-0.25,0.117-0.501,0.176-0.751c0.368-0.047,0.735-0.135,1.103-0.135
					c4.632-0.012,9.266-0.104,13.895,0.025c2.18,0.061,4.407,0.133,6.515,0.891C76.421,239.469,76.461,239.561,76.501,239.653z"/>
				<path fill="#908671" d="M45.169,208.471c-0.359,1.269,0.318,1.386,1.342,1.313c0.522-0.037,1.38-0.401,1.54,0.239
					c0.124,0.494-0.754,0.727-1.241,1.018c-1.634,0.977-3.427,1.693-4.886,2.959c-0.447-0.026-0.89,0.558-1.341,0.01
					c0.385-0.439,0.725-0.932,1.165-1.308C43.152,211.5,44.494,210.259,45.169,208.471z"/>
				<path fill="#908671" d="M67.527,213.542c-1.404,0.057-2.601-0.615-3.942-0.929c0.262-0.497,0.533-0.048,0.753-0.294
					c-1.37-1.372-3.624-1.047-5.03-2.584c1.512,0,2.943,0,4.373,0C64.747,211.223,66.392,212.124,67.527,213.542z"/>
				<path fill="#F3F0E9" d="M40.582,214.01c0.451,0.548,0.894-0.036,1.341-0.01c1.235,0.179,2.466-0.026,3.699-0.05
					c0.53,0.054,1.06,0.108,1.842,0.188c-2.102,0.235-3.946,0.448-5.792,0.645c-0.59,0.063-1.18,0.07-1.506-0.579
					C40.305,214.139,40.443,214.074,40.582,214.01z"/>
				<path fill="#F3F0E9" d="M29.843,255.493c0.36,0.377,0.36,0.377-0.501,0.731C29.354,255.873,29.346,255.51,29.843,255.493z"/>
				<path fill="#908671" d="M63.345,209.079c-0.469-0.094-0.347-0.465-0.363-0.772C63.489,208.383,63.472,208.705,63.345,209.079z"
					/>
				<path fill="#F3F0E9" d="M40.114,214.264c-0.068,0.081-0.136,0.162-0.205,0.243C39.978,214.426,40.046,214.345,40.114,214.264z"
					/>
				<path fill="#908671" d="M59.948,266.586c-0.021-1.571,0.272-3.165-0.356-4.69c0.214,1.549,1.934,9.466,0.401,9.424
					c-0.069,0.527-0.414-3.996-0.755-4.592c-0.252-0.44-0.293-0.95-0.205-1.455c0.311-1.784-0.256-3.579-0.025-5.33
					c0.194-1.472-0.648-2.359-1.264-3.423c-0.034-0.199-0.003-0.506-0.116-0.575c-0.317-0.193-0.245,0.168-0.331,0.313
					c-0.226,0.381-0.638,0.599-0.895,0.219c-0.466-0.687-1.202-0.497-1.791-0.659c-0.522-0.143-0.916-0.285-1.199-0.743
					c-0.529-0.858-0.866-0.467-1.151,0.192c-0.016,0.161-0.032,0.322-0.048,0.483l0.011-0.029c-0.526,1.127-0.398,2.336-0.464,3.525
					c-0.097,1.745-0.292,3.486-0.057,5.236c0.083,0.619,0.097,1.249-0.143,1.852c-0.145,0.363-0.237,0.957-0.014,1.067
					c1.114,0.551,0.017,0.839-0.108,1.209c-0.104,0.307-0.377,2.162-0.684,1.972c-0.424-0.263,0.01-2.126,0.055-2.345
					c0.161-0.778,0.3-1.59,0.251-2.377c-0.178-2.813-0.185-5.614,0.31-8.396c0.066-0.371-0.179-0.631-0.152-0.961
					c0.15-0.612,0.3-1.223,0.482-1.97c-0.751,0.124-1.314,0.232-1.456,0.988c-0.092,0.245-0.184,0.49-0.277,0.735
					c-0.805-0.207-1.573-0.192-2.374,0.126c-0.507,0.202-1.135,0.311-1.658,0.206c-0.651-0.13-1.012,0.092-1.348,0.553
					c-0.722-0.039-1.444-0.079-2.166-0.118c-0.331-0.538-0.662-0.893-0.995-0.002c-0.169,0.01-0.338,0.021-0.506,0.031
					c-0.264-0.463-0.725-0.626-1.178-0.528c-2.3,0.502-4.54-0.266-6.813-0.27c-0.165,0-0.331-0.027-0.496-0.041
					c0.548-1.161-1.003-0.797-1.088-1.498c2.274-0.277,4.532-0.656,6.833-0.751c3.833-0.158,7.66-0.442,11.49-0.672
					c0.588-0.029,1.223,0.943,1.765-0.082c0.043-0.207,0.042-0.399-0.183-0.51c-0.393-0.387-0.854-0.254-1.308-0.173
					c-1.752-0.132-3.499-0.018-5.247,0.097c-0.187-0.179-0.361-0.182-0.518,0.038c-1.698,0.044-3.395,0.088-5.093,0.132
					c0.71-0.398,1.507-0.439,2.283-0.477c2.749-0.138,5.5-0.228,8.251-0.34c0.331-0.014,0.669-0.019,0.991-0.087
					c0.979-0.205,1.084-0.901,0.891-1.716c-0.134-0.566-0.333-1.117-0.466-1.683c-0.074-0.317-0.185-0.744,0.152-0.925
					c1.348-0.724,0.711-1.812,0.468-2.74c-0.198-0.756-0.499-1.405,0.367-1.904c0.379-0.068,0.703,0.043,0.979,0.305
					c-0.005,0.507-0.129,0.941,0.631,1.201c0.52,0.178,1.061,0.826,0.851,1.621c-0.171,0.647,0.363,1.257,0.085,1.905
					c-0.354-0.079-0.556-0.664-0.953-0.423c-0.375,0.228-0.437,0.771-0.319,1.132c0.311,0.956,0.057,1.867-0.051,2.795
					c-0.305,0.279-0.795,0.576,0.093,0.707c0.424,0.063,0.933-0.157,1.234,0.347c-0.728,0.179-1.453,0.312-2.194,0.046
					c-0.301-0.108-0.486,0.094-0.552,0.347c-0.047,0.183,0.122,0.317,0.303,0.306c1.337-0.086,2.691,0.128,4.014-0.219
					c0.734-0.004,1.511,0.266,2.151-0.338c1.266,0.166,2.53,0.441,3.8,0.475c3.244,0.088,6.492,0.068,9.738,0.091
					c1.704,0.117,3.406,0.277,5.111,0.336c1.145,0.039,1.914,0.697,1.912,1.655c-0.001,0.648-1.018,0.842-1.761,0.849
					c-0.153-0.004-0.306-0.008-0.458-0.012c-0.989-0.403-1.793,0.392-2.696,0.426c-3.23,0.121-6.463,0.18-9.695,0.245
					c-1.318,0.027-2.636-0.745-3.955-0.002c-0.54,0.346-0.589,0.826-0.442,1.407c0.757,2.993,0.485,6.057,0.6,9.095 M58.63,255.784
					c0.045,0.234,0.182,0.379,0.398,0.397c0.368,0.03,0.619-0.178,0.731-0.504c0.015-0.044-0.291-0.276-0.458-0.289
					C59.02,255.368,58.76,255.5,58.63,255.784z"/>
				<path fill="#908671" d="M61.64,219.037c-0.241-0.167-0.482-0.182-0.723-0.001c-0.052-0.523-0.447-0.511-0.826-0.537
					c-2.693-0.179-5.389-0.218-8.087-0.148c-4.741,0.764-9.567,0.076-14.305,0.911c3.611-0.892,7.31-1.038,10.976-1.447
					c0.766-0.085,1.824,0.235,2.154-0.612c0.354-0.909-0.242-1.803-0.906-2.532c1.523-0.489,2.507,0.162,3.279,1.375
					c0.728,1.145,1.645,1.899,3.159,1.825c4.43-0.217,8.801,0.491,13.186,0.965c0.284,0.031,0.579,0.069,0.762,0.367
					c-1.597,0.297-3.138-0.316-4.709-0.206c-0.768-0.271-1.57-0.226-2.364-0.248c-0.13-0.002-0.259-0.004-0.389-0.005
					C62.42,218.743,61.936,218.504,61.64,219.037z M53.252,217.758c-0.263-0.25-0.552-0.323-0.915,0
					C52.708,217.758,52.98,217.758,53.252,217.758z"/>
				<path fill="#908671" d="M55.727,234.999c1.401,0.332,2.822,0.109,4.232,0.125c2.835,0.032,5.671-0.055,8.505,0
					c1.783,0.035,3.525,0.571,5.32,0.683c-1.531,0-3.071,0.1-4.592-0.02c-3.719-0.294-7.441-0.121-11.16-0.202
					c-0.848-0.018-1.164,0.975-1.996,0.815c-0.963-0.723-2.063-0.021-3.069-0.294c-1.493-0.467-3.001-0.28-4.508-0.098
					c-2.494,0.199-4.986,0.408-7.481,0.592c-1.614,0.119-3.188,0.649-4.83,0.47c0.314-0.148,0.712-0.087,0.963-0.391
					c5.232-1.109,10.58-1.019,15.869-1.535c0.739,0.423,1.458,0.556,2.119-0.145C55.309,234.999,55.518,234.999,55.727,234.999z"/>
				<path fill="#908671" d="M54.619,231.596c0.217-0.284,0.53-0.196,0.811-0.196c4.851-0.003,9.705-0.086,14.552,0.047
					c1.686,0.046,3.414-0.077,5.083,0.36c0.39,0.102,0.976,0.164,0.881,0.672c-0.078,0.422-0.639,0.214-0.98,0.208
					c-5.723-0.103-11.44-0.517-17.17-0.331c-0.834,0.027-1.669,0.02-2.503,0.029C55.199,232.011,54.431,232.212,54.619,231.596z"/>
				<path fill="#908671" d="M52.022,232.565c-2.741,0.175-5.487,0.302-8.222,0.539c-2.734,0.237-5.458,0.585-8.186,0.883
					c-0.304,0.033-0.728,0.287-0.839-0.168c-0.08-0.328,0.356-0.385,0.61-0.508c1.609-0.78,3.389-0.653,5.087-0.861
					c3.3-0.405,6.606-0.798,9.947-0.865c0.851-0.017,2.24,0.02,2.542-1.409c0.643-0.34,0.767,0.607,1.306,0.525
					c-0.004,0.26-0.007,0.52-0.011,0.78C53.419,231.653,52.452,231.555,52.022,232.565z"/>
				<path fill="#908671" d="M50.09,225.417c-2.235,0.216-4.47,0.446-6.707,0.644c-2.411,0.213-4.821,0.437-7.205,0.866
					c-0.707,0.127-1.4,0.192-2.266,0.062c0.905-0.881,2.002-0.91,2.996-1.096c3.408-0.638,6.859-0.959,10.307-1.316
					c1.33-0.138,2.651-0.194,3.98-0.262c0.869-0.044,1.815-0.138,1.906-1.351c0.28-0.012,0.712-0.005,0.655,0.306
					c-0.135,0.738,0.424,0.329,0.639,0.467c0.036,0.19,0.072,0.381,0.107,0.571C52.941,224.314,51.552,225.01,50.09,225.417z"/>
				<path fill="#908671" d="M51.531,239.595c-2.347,0.444-4.739,0.193-7.101,0.486c-3.616,0.448-7.244,0.796-11.162,1.218
					c1.635-1.213,3.34-1.223,4.934-1.536c4.397-0.864,8.87-0.979,13.325-1.267c0.108-0.007,0.224,0.095,0.335,0.146
					C51.752,238.959,51.641,239.277,51.531,239.595z"/>
				<path fill="#F3F0E9" d="M47.978,242.648c-0.725,0.533-1.637,0.394-2.404,0.434c-3.239,0.169-6.472,0.327-9.681,0.83
					c-0.351,0.055-0.724-0.027-1.122-0.176c0.735-0.569,1.539-0.926,2.453-1.061c3.7-0.546,7.421-0.866,11.156-1.044
					c0.079-0.004,0.155-0.059,0.233-0.09c1.987-0.057,3.973-0.114,5.96-0.172c0.515-0.015,1.063,0.072,1.414-0.455
					c0.963,0.736,2.048,0.575,3.161,0.233c-0.067,0.632-0.479,0.432-0.692,0.573c-3.789,0.178-7.579,0.356-11.368,0.534
					c-1.95,0.265-3.958-0.035-5.873,0.583c2.117,0.154,4.209-0.185,6.313-0.254C47.678,242.606,47.828,242.627,47.978,242.648z"/>
				<path fill="#F3F0E9" d="M39.083,252.793c1.698-0.044,3.395-0.088,5.093-0.131c0.2,0.355,0.369,0.295,0.518-0.038
					c1.747-0.115,3.495-0.229,5.247-0.097c0.052,0.306-0.133,0.528-0.273,0.766c-3.83,0.231-7.657,0.514-11.49,0.672
					c-2.301,0.095-4.558,0.474-6.833,0.751c-0.363-0.669,0.182-0.659,0.566-0.736c2.058-0.413,4.119-0.813,6.215-0.982
					C38.459,252.971,38.788,252.976,39.083,252.793z"/>
				<path fill="#908671" d="M55.41,224.423c4.808-0.201,9.617-0.144,14.425-0.04c1.628,0.035,3.25,0.345,4.871,0.681
					c-0.652,0.385-1.347,0.269-2.015,0.262c-4.934-0.052-9.862-0.419-14.802-0.264c-0.642,0.02-1.311,0.404-1.951-0.026
					C55.694,224.89,55.339,224.839,55.41,224.423z"/>
				<path fill="#908671" d="M60.738,228.205c4.134-0.625,8.271-0.821,12.416-0.293c0.874,0.111,1.741,0.163,2.614,0.179
					c0.476,0.009,0.928,0.068,1.261,0.428c0.16,0.173,0.363,0.431,0.177,0.663c-0.1,0.124-0.379,0.163-0.569,0.147
					c-5.227-0.432-10.453-0.887-15.701-0.994C60.874,228.334,60.812,228.255,60.738,228.205z"/>
				<path fill="#F3F0E9" d="M55.727,234.999c-0.209,0-0.418,0-0.628-0.001c-0.717-0.108-1.444-0.356-2.119,0.146
					c-5.289,0.517-10.637,0.426-15.869,1.535c-0.02-0.667,0.163-0.959,0.964-1.086c3.793-0.602,7.607-0.854,11.437-0.968
					c0.149-0.004,0.294-0.121,0.441-0.186c2.275-0.089,4.549-0.179,6.824-0.268c0.158,0.16,0.436,0.336-0.026,0.447
					C56.393,234.706,55.933,234.503,55.727,234.999z"/>
				<path fill="#F3F0E9" d="M52.457,221.525c-0.511-0.682-1.21-0.786-2-0.692c-3.841,0.453-7.673,0.992-11.536,1.241
					c-0.798,0.051-1.511,0.755-2.385,0.229c3.774-0.811,7.533-1.717,11.43-1.758c1.085-0.038,2.178,0.044,3.244-0.244
					c1.086-0.05,2.172-0.099,3.258-0.149c0.57,0.244,1.16,0.114,1.744,0.097c1.473-0.038,2.947-0.067,4.42-0.124
					c0.287-0.011,0.585-0.154,0.795,0.137c0.054,0.074,0.045,0.268-0.015,0.336c-0.219,0.249-0.457,0.011-0.688-0.015
					c-0.507-0.057-0.998-0.036-1.461,0.216c-0.255,0.139-0.518,0.275-0.831,0.183c-1.927-0.566-3.903-0.358-5.947-0.427
					c0.135,0.357,0.242,0.639,0.348,0.921C52.706,221.493,52.581,221.509,52.457,221.525z"/>
				<path fill="#F3F0E9" d="M58.447,242.355c1.626,0.029,3.254,0.116,4.878,0.074c2.919-0.076,5.817,0.252,9.067,0.305
					c-2.791,0.531-5.273,0.418-7.749,0.438c-3.039,0.024-6.081-0.126-9.114,0.229c-0.427,0.05-1.042,0.288-1.28-0.415
					c0.402-0.037,0.803-0.074,1.205-0.11C56.419,242.514,57.402,242.254,58.447,242.355z"/>
				<path fill="#F3F0E9" d="M56.236,227.055c0.131,0.34,0.503,0.219,0.961,0.536c-6.334-0.205-12.295,1.404-18.411,1.363
					c0.698-0.633,1.529-0.807,2.43-0.877c2.199-0.171,4.394-0.394,6.59-0.595c1.404-0.074,2.809-0.148,4.213-0.223
					c0.819-0.04,1.639-0.079,2.458-0.119c0.038,0.07,0.1,0.099,0.184,0.088c0.209,0.087,0.409,0.109,0.58-0.08
					C55.573,227.118,55.905,227.086,56.236,227.055z"/>
				<path fill="#201915" d="M52.457,221.525c0.125-0.016,0.249-0.032,0.374-0.048c0.943-0.032,1.885-0.073,2.828-0.092
					c0.349-0.007,0.661,0.121,0.792,0.479c0.181,0.492-0.31,0.585-0.54,0.662c-0.669,0.227-0.838,1.033-1.515,1.211
					c-0.215-0.138-0.774,0.271-0.639-0.467c0.057-0.311-0.375-0.318-0.655-0.306c-1.438-0.386-2.915-0.058-4.573-0.304
					C49.842,221.903,51.141,221.69,52.457,221.525z"/>
				<path fill="#F3F0E9" d="M71.828,253.218c-3.246-0.023-6.493-0.003-9.738-0.091c-1.27-0.034-2.533-0.31-3.8-0.475
					c-0.003-0.06-0.012-0.12-0.026-0.178l-0.005,0.005c2.447-0.011,4.895-0.022,7.342-0.033c2.07,0.109,4.141,0.217,6.212,0.326
					C71.818,252.92,71.823,253.069,71.828,253.218z"/>
				<path fill="#908671" d="M58.447,242.355c-1.046-0.101-2.029,0.159-2.994,0.521c-1.052-0.448-2.169-0.028-3.239-0.238
					c-0.469-0.282-0.852-0.13-1.349,0.067c-0.927,0.369-1.935,0.403-2.889-0.057c-0.15-0.022-0.3-0.043-0.45-0.063
					c-0.147-0.109-0.293-0.22-0.439-0.33c3.789-0.178,7.579-0.356,11.368-0.534C58.453,241.933,58.45,242.144,58.447,242.355z"/>
				<path fill="#201915" d="M52.967,236.106c1.006,0.273,2.106-0.429,3.069,0.294c-1.053,0.286-1.363,1.667-2.561,1.74
					c-0.08,0.003-0.159,0.006-0.239,0.008c-0.152-0.267,0.066-0.781-0.509-0.765c-0.385-0.263-0.748-0.592-1.277-0.437
					c-0.634-0.109-1.267-0.218-2.178-0.374C50.655,236.071,51.826,236.209,52.967,236.106z"/>
				<path fill="#201915" d="M54.267,230.701c-0.539,0.081-0.663-0.866-1.306-0.525c-0.222-0.052-0.444-0.103-0.666-0.155
					c-0.163-0.436-0.456-0.528-0.861-0.325c-0.787-0.057-1.573-0.114-2.36-0.171c0.332-0.401,4.964-0.792,7.106-0.582
					C55.513,229.556,54.89,230.129,54.267,230.701z"/>
				<path fill="#201915" d="M56.777,234.172c-2.275,0.089-4.549,0.179-6.824,0.268C52.188,233.337,54.43,232.409,56.777,234.172z"/>
				<path fill="#F3F0E9" d="M52.004,218.351c2.698-0.07,5.393-0.031,8.087,0.148c0.379,0.025,0.774,0.014,0.826,0.537
					c-2.194-0.156-4.401,0.297-6.59-0.153c-0.271-0.056-0.32,0.191-0.341,0.407c-0.576-0.053-1.152-0.106-1.728-0.16
					C52.173,218.87,52.088,218.611,52.004,218.351z"/>
				<path fill="#F3F0E9" d="M36.148,237.071c1.642,0.179,3.216-0.351,4.83-0.47c2.495-0.184,4.987-0.393,7.481-0.592
					c-0.464,0.611-1.211,0.541-1.81,0.586c-3.175,0.239-6.348,0.471-9.488,1.031C36.734,237.701,36.194,237.783,36.148,237.071z"/>
				<path fill="#201915" d="M55.987,240.916c-0.351,0.527-0.899,0.44-1.414,0.455c-1.987,0.057-3.973,0.114-5.96,0.172
					c1.28-0.312,2.56-0.623,3.84-0.935c0.283,0.007,0.612,0.168,0.777-0.228C54.241,240.088,55.053,240.817,55.987,240.916z"/>
				<path fill="#908671" d="M71.813,252.771c-2.071-0.109-4.141-0.217-6.212-0.326c1.973-0.464,3.969-0.214,5.941-0.084
					c1.587,0.105,3.267-0.208,4.795,0.767C74.792,253.007,73.302,252.889,71.813,252.771z"/>
				<path fill="#908671" d="M56.746,249.579c0.03-0.784,0.121-1.486,0.393-2.151c0.127-0.31,0.351-0.479,0.69-0.328
					c0.256,0.114,0.447,0.412,0.272,0.598c-0.342,0.363-0.033,0.544,0.066,0.837c0.388,1.15,0.029,1.964-1.108,2.065
					C56.032,250.691,57.143,249.804,56.746,249.579z M57.51,248.766c-0.236,0.002-0.245,0.186-0.251,0.333
					c-0.008,0.195-0.016,0.453,0.206,0.513c0.274,0.073,0.325-0.164,0.312-0.374C57.767,249.045,57.755,248.83,57.51,248.766z"/>
				<path fill="#201915" d="M55.41,224.423c-0.071,0.416,0.284,0.467,0.527,0.615c-1.931,0.408-3.895,0.296-5.847,0.38
					c1.462-0.407,2.851-1.103,4.413-1.11C54.805,224.346,55.107,224.385,55.41,224.423z"/>
				<path fill="#201915" d="M53.241,251.457c0.108-0.928,0.363-1.839,0.051-2.795c-0.117-0.361-0.055-0.904,0.319-1.132
					c0.397-0.241,0.599,0.343,0.953,0.423c0.343,1.163-0.269,2.163-0.531,3.227C53.893,251.75,53.511,251.388,53.241,251.457z"/>
				<path fill="#201915" d="M52.257,219.13c0.576,0.053,1.152,0.106,1.728,0.16c0.529,0.354,1.137,0.445,1.749,0.519
					c-0.325,0.475-0.885,0.079-1.267,0.343c-1.086,0.05-2.172,0.099-3.258,0.149c0.008-0.164,0.016-0.329,0.025-0.493
					c0.334-0.173,0.667-0.345,1.001-0.518c0.063,0.073,0.127,0.145,0.19,0.218c0.02-0.06,0.04-0.12,0.061-0.181
					c-0.09-0.004-0.179-0.009-0.269-0.013l0.096-0.075L52.257,219.13z"/>
				<path fill="#201915" d="M51.531,239.595c0.111-0.318,0.221-0.636,0.332-0.953c0.13-0.011,0.259-0.022,0.389-0.034
					c0.437,0.24,0.859,0.117,1.279-0.056c0.446,0.015,0.893,0.03,1.339,0.045c-0.059,0.251-0.117,0.501-0.176,0.751
					C53.639,239.43,52.585,239.512,51.531,239.595z"/>
				<path fill="#F3F0E9" d="M56.139,252.99c-1.323,0.347-2.676,0.133-4.014,0.219c-0.181,0.012-0.35-0.123-0.303-0.306
					c0.065-0.253,0.251-0.455,0.552-0.347c0.741,0.267,1.466,0.134,2.194-0.046C55.149,252.485,55.738,252.431,56.139,252.99z"/>
				<path fill="#201915" d="M56.236,227.055c-0.331,0.031-0.663,0.063-0.994,0.094c-0.172-0.019-0.345-0.038-0.518-0.057
					c-0.082,0.016-0.165,0.032-0.247,0.048c-0.819,0.04-1.639,0.079-2.458,0.119c-0.012-0.139-0.025-0.277-0.037-0.416
					c1.012-0.357,2.062-0.509,3.118-0.352C55.496,226.55,56.027,226.534,56.236,227.055z"/>
				<path fill="#201915" d="M52.022,232.565c0.43-1.009,1.397-0.912,2.234-1.084c0.121,0.038,0.242,0.077,0.363,0.115
					c-0.188,0.616,0.58,0.414,0.675,0.789C54.203,232.445,53.113,232.505,52.022,232.565z"/>
				<path fill="#908671" d="M51.983,226.844c0.012,0.139,0.025,0.277,0.037,0.416c-1.405,0.074-2.809,0.149-4.213,0.223
					C49.101,226.628,50.563,226.873,51.983,226.844z"/>
				<path fill="#908671" d="M51.233,219.808c-0.008,0.164-0.016,0.329-0.025,0.493c-1.066,0.288-2.16,0.206-3.244,0.244
					c0.325-0.9,1.125-0.385,1.693-0.546C50.16,219.856,50.706,219.866,51.233,219.808z"/>
				<path fill="#908671" d="M54.902,228.335c-1.116,0.372-2.251,0.234-3.394,0.181c0.516-0.219,1.027-0.477,1.607-0.415
					C53.706,228.163,54.286,228.318,54.902,228.335z"/>
				<path fill="#F3F0E9" d="M63.236,218.748c0.794,0.022,1.595-0.023,2.364,0.248C64.985,219.69,63.972,219.584,63.236,218.748z"/>
				<path fill="#201915" d="M52.215,242.638c1.07,0.21,2.186-0.21,3.239,0.238c-0.402,0.037-0.803,0.074-1.205,0.11
					c-0.417,0.08-0.834,0.159-1.251,0.239c-0.277-0.262-0.6-0.372-0.979-0.305C51.963,242.743,52.072,242.678,52.215,242.638z"/>
				<path fill="#908671" d="M75.184,226.344c0.877,0.084,1.616-0.268,2.387,0.357C76.691,226.956,76.007,226.863,75.184,226.344z"/>
				<path fill="#908671" d="M51.45,236.946c0.528-0.155,0.892,0.174,1.277,0.437C52.089,237.857,51.68,237.663,51.45,236.946z"/>
				<path fill="#908671" d="M54.467,220.152c0.382-0.264,0.943,0.132,1.267-0.343c0.265-0.028,0.547-0.132,0.757,0.114
					c0.014,0.017-0.182,0.214-0.28,0.327C55.627,220.265,55.036,220.395,54.467,220.152z"/>
				<path fill="#908671" d="M53.53,238.551c-0.42,0.173-0.842,0.296-1.279,0.056c0.148-0.54,0.549-0.536,0.985-0.459
					c0.08-0.003,0.159-0.006,0.239-0.008C53.493,238.277,53.512,238.414,53.53,238.551z"/>
				<path fill="#908671" d="M53.231,240.38c-0.165,0.396-0.494,0.235-0.777,0.228C52.588,240.108,52.819,239.935,53.231,240.38z"/>
				<path fill="#F3F0E9" d="M61.64,219.037c0.296-0.532,0.78-0.294,1.207-0.293C62.639,219.639,62.035,218.908,61.64,219.037z"/>
				<path fill="#908671" d="M51.434,229.696c0.405-0.204,0.697-0.111,0.861,0.325C51.912,230.168,51.557,230.24,51.434,229.696z"/>
				<path fill="#F3F0E9" d="M35.477,222.627c0.031-0.07,0.046-0.179,0.097-0.199s0.136,0.049,0.207,0.079
					c-0.031,0.07-0.046,0.18-0.096,0.199C35.633,222.725,35.547,222.657,35.477,222.627z"/>
				<polygon fill="#201915" points="47.684,222.47 47.803,222.448 47.688,222.409 				"/>
				<path fill="#F3F0E9" d="M29.853,254.969c0.039-0.032,0.077-0.065,0.116-0.097c-0.032,0.04-0.064,0.08-0.096,0.12
					C29.874,254.992,29.853,254.969,29.853,254.969z"/>
				<path fill="#F3F0E9" d="M58.264,252.474c-0.034-0.019-0.067-0.037-0.101-0.056c0.032,0.02,0.063,0.041,0.095,0.061
					C58.259,252.479,58.264,252.474,58.264,252.474z"/>
				<path fill="#D1C9C1" d="M60.285,256.714c1.32-0.743,2.637,0.029,3.955,0.002c3.232-0.065,6.465-0.124,9.695-0.245
					c0.903-0.034,1.707-0.829,2.696-0.426c-0.015,0.611-0.831,0.81-0.754,1.467c-4.193,0.096-8.374,0.538-12.573,0.481
					c0.158-0.788,0.799-0.467,1.221-0.469c2.272-0.013,4.54-0.034,6.789-0.458c-1.99,0.032-3.975-0.194-5.972,0.097
					C63.64,257.411,61.951,257.09,60.285,256.714z"/>
				<path fill="#908671" d="M61.667,212.045c0.063,0.032,0.124,0.065,0.185,0.097c-0.066,0.027-0.132,0.076-0.197,0.073
					c-0.063-0.002-0.125-0.057-0.187-0.089C61.533,212.099,61.599,212.072,61.667,212.045z"/>
				<path fill="#908671" d="M62.453,212.37c0.079-0.033,0.15-0.088,0.218-0.084s0.133,0.068,0.199,0.105
					c-0.069,0.031-0.14,0.09-0.208,0.087C62.594,212.475,62.528,212.412,62.453,212.37z"/>
				<path fill="#FDD236" d="M66.979,283.68c0.046,0.246,0.093,0.491,0.139,0.736c-0.085,0.361-0.253,0.726-0.242,1.084
					c0.094,2.983-0.425,5.932-0.461,8.904c-0.028,2.28-0.495,4.544-0.226,6.832c-0.232,4.677-0.35,9.363-0.736,14.026
					c-0.264,3.183,0.562,6.587-1.589,9.47c-0.11,0.148-0.072,0.406-0.103,0.613c-0.135,0.003-0.27,0.006-0.405,0.009
					c-0.72-1.199-1.445-2.396-1.839-3.755c-0.011-1.092-0.022-2.183-0.033-3.275c0.61-6.368,0.795-12.76,1.068-19.147
					c0.168-3.924,0.322-7.85,0.505-11.773c0.092-1.977-0.109-5.55,1.826-6.655c0.234-0.134,1.213-0.27,1.404-0.502
					c0.436,0.157-0.047,2.118,0.059,2.4C66.197,283.211,66.302,283.621,66.979,283.68z"/>
				<path fill="#FDD236" d="M40.907,324.441c-0.786-1.496-0.918-3.107-0.828-4.755c0.308-5.68,0.166-11.367,0.261-17.05
					c0.078-4.68,0.14-9.36,0.197-14.041c0.02-1.61,0.173-3.166,1.29-4.463c0.135-0.157,0.088-0.472,0.125-0.713
					c0.512-0.551,0.932,0,1.389,0.114c0.037,0.371-0.034,0.801,0.129,1.105c0.789,1.471,0.748,3.055,0.726,4.639
					c-0.146,10.686-0.297,21.372-0.447,32.058c-0.02,1.421-0.37,2.726-1.348,3.809C41.678,325.387,41.568,324.328,40.907,324.441z"
					/>
				<path fill="#FDD236" d="M69.788,291.653c-0.037,3.341-0.074,6.682-0.111,10.023c-0.639,2.429-0.388,4.876-0.148,7.323
					c-0.042,4.006-0.084,8.011-0.124,12.017c-0.414,0.72-0.998,1.398-1.19,2.173c-0.152,0.614-1.117,0.427-0.9,1.178
					c-0.624-0.057-0.615-0.597-0.751-1.009c-0.471-1.424-0.298-2.898-0.293-4.354c0.023-5.93,0.428-11.855,0.228-17.788
					c0.224-0.179,0.229-0.432,0.225-0.684c-0.078-5.385,0.651-10.728,0.844-16.099c0.05-0.068,0.086-0.142,0.107-0.224
					c0.042-0.097,0.085-0.193,0.128-0.289c0.041-0.357,0.082-0.714,0.123-1.07c0.443-0.451,0.65,0.108,0.96,0.225
					c0.477,0.881,0.519,1.892,0.84,2.818C69.514,287.815,69.424,289.736,69.788,291.653z"/>
				<path fill="#FDD236" d="M59.766,318.857c1.026-0.193,0.996-0.987,0.973-1.752c-0.133-4.453-0.887-8.799-2.253-13.041
					c-0.139-0.433-0.285-0.889-0.29-1.336c-0.066-5.887-0.114-11.775-0.145-17.663c-0.003-0.593-0.11-1.329,0.816-1.43
					c-0.06,0.37-0.214,0.787,0.058,1.092c1.922,2.157,1.628,4.856,1.703,7.399c0.215,7.312,0.285,14.628,0.415,21.942
					c0.004,0.25,0.034,0.5,0.051,0.75c-0.041,0.081-0.038,0.161,0.008,0.24c0.003,1.088,0.007,2.176,0.01,3.264
					c-0.144,1.008-0.139,2.019-0.069,3.032c0.077,1.446-0.057,4.868-1.14,6.019c-1.727-0.079-1.607-2.079-1.59-3.858
					c0.002-0.208-0.006-0.416-0.009-0.623c0.518,0.029,0.758-0.264,1.037-0.683C60.056,321.138,59.666,319.976,59.766,318.857z"/>
				<path fill="#908671" d="M59.019,281.009c-0.311-0.184-0.776,0.036-1.072-0.502c0.886,0.07,1.125-1.099,2.065-0.898
					c0.426-0.674,0.841-0.605,1.249,0.018c1.238,0.107,2.474,0.275,3.626-0.429c0.482-0.295,0.873-0.022,1.17,0.367
					c0.293,0.383,0.244,0.684-0.267,0.82c-0.018-0.234,0.236-0.648-0.255-0.603c-0.627,0.057-1.307,0.045-1.956,0.632
					c0.86-0.026,1.546,0.202,2.23-0.05c-0.341,0.792-2.021,1.168-2.702,0.528c-0.436-0.41-0.513-0.773-1.064,0.009
					c-0.356,0.506-1.404,0.018-2.135,0.137c-0.194-0.204-0.402-0.194-0.621-0.042C59.199,281.001,59.109,281.005,59.019,281.009z
					 M61.736,280.238c-0.215-0.146-0.419-0.202-0.641,0.022C61.314,280.393,61.518,280.462,61.736,280.238z"/>
				<path fill="#D1C9C1" d="M40.907,324.441c0.661-0.112,0.771,0.946,1.494,0.703c0.009,0.961,0.018,1.923,0.027,2.885
					c0,0.205-0.001,0.41-0.001,0.614c-0.087,0.636,0.131,1.231,0.238,1.843c0.146,0.841,0.044,1.388-1.093,1.255
					c-0.497-0.058-0.61-0.098-0.666-0.565c-0.112-0.928,0.558-1.917-0.309-2.856c-0.117-0.127,0.281-1.414,0.31-2.187l0.019-0.019
					c0.292,0.073,0.562,0.375,0.987,0.042C41.364,325.688,40.643,325.318,40.907,324.441z"/>
				<path fill="#908671" d="M63.082,270.834c-0.758-0.223-1.38,0.342-2.113,0.384c-0.354,0.02-0.259,0.663-0.237,1.052l0.006,0.034
					c-0.166,0.028-0.166,0.141-0.138,0.269c-0.07,0.408-0.14,0.815-0.21,1.222c-0.144,0.143-0.109,0.248,0.069,0.322
					c0.025,0.081,0.05,0.162,0.074,0.243c-0.262,0.262-0.516,0.1-0.77-0.016c0.013-0.158,0.026-0.316,0.039-0.475
					c0.209-0.182,0.227-0.378,0.04-0.587c0.004-0.078-0.025-0.14-0.089-0.185c-0.071-0.269,0.297-0.952-0.502-0.531
					c-0.241,0.013-0.482,0.026-0.723,0.039c-0.089,0.054-0.177,0.108-0.266,0.162c-0.143,0.051-0.366,0.214-0.421,0.025
					c-0.205-0.706,0.518-1.641,1.23-1.649c0.799-0.008,0.799-0.008,0.909-0.795c1.04,0.211,0.597-1.455,1.613-1.274
					c0.021,0.164-0.124,0.519,0.22,0.373c0.319-0.136,0.56-0.457,0.872-0.728C63.062,269.431,62.978,270.151,63.082,270.834z"/>
				<path fill="#D1C9C1" d="M59.762,274.344c0.254,0.116,0.508,0.279,0.77,0.016c0.869,0.451,0.691,1.231,0.606,1.971
					c-0.074,0.645-0.49,1.352,0.379,1.795c-0.068,0.502,0.272,0.842,0.489,1.231c-0.27,0.031-0.575-0.037-0.745,0.27
					c-0.408-0.623-0.823-0.692-1.249-0.018C59.269,277.886,59.914,276.096,59.762,274.344z"/>
				<path fill="#D1C9C1" d="M63.536,328.407c0.883-1.242,2.325-0.617,3.455-1.035c0.277-0.017,0.553-0.035,0.86-0.054
					c-0.166-0.391-0.802-0.507-0.486-1.043c0.271-0.46,0.721-0.228,1.102-0.263c0.211,0.432-0.026,0.939,0.368,1.384
					c0.53,0.6-0.389,0.621-0.528,0.978c-0.172,0.086-0.185,0.184-0.023,0.296c-0.004,0.075,0.001,0.15,0.014,0.225
					c-0.005,0.08-0.005,0.16,0.001,0.241c-0.002,0.158-0.005,0.316-0.007,0.475c-0.416,0.114-0.833,0.228-1.25,0.342
					c0.074-1.99-1.111-1.928-2.515-1.569C64.215,328.463,63.867,328.403,63.536,328.407z"/>
				<path fill="#908671" d="M43.665,280.136c1.798,0.17,3.583-0.055,5.372-0.173c0.269,0.051,0.538,0.101,0.808,0.152
					c0.079-0.001,0.156,0.004,0.234,0.018c-0.007,0.19,0.188,0.566-0.006,0.539c-0.78-0.108-1.358,0.58-2.115,0.455
					c-0.23-0.209-0.48-0.184-0.737-0.062l0.014-0.051c-1.251-0.771-2.527-0.402-3.802-0.082c-0.082-0.182-0.133-0.388-0.252-0.54
					c-0.162-0.206-0.354-0.434-0.066-0.603C43.397,279.621,43.391,280.149,43.665,280.136z"/>
				<path fill="#908671" d="M42.428,328.643c0-0.205,0.001-0.41,0.001-0.614c0.248,0.031,0.497,0.063,0.745,0.094
					c0.435,0.084,0.864,0.087,1.282-0.084c0.67,0.035,1.354,0.247,1.989-0.16c0.947,0.197,1.802-0.416,2.739-0.313
					c0.279,0.103,0.558,0.206,0.836,0.309c0.063,0.427-0.407,0.476-0.542,0.762c-0.426-0.028-0.86-0.012-1.275-0.094
					c-0.511-0.102-0.77,0.04-0.777,0.573c-0.151,0.065-0.396,0.225-0.438,0.182C45.627,327.932,43.973,328.666,42.428,328.643z"/>
				<path fill="#D1C9C1" d="M50.021,327.875c-0.279-0.103-0.558-0.206-0.837-0.309c0.062-0.192,0.101-0.539,0.189-0.551
					c0.737-0.108,1.351-0.312,1.767-1.034c0.142-0.246,0.54-0.042,0.565,0.34c0.022,0.333,0.038,0.659,0.267,0.928
					c0.198,0.235,0.395,0.47,0.671,0.797c-0.362,0.054-0.956-0.407-0.917,0.347c0.237,0.525,1.195-0.168,1.217,0.719
					c-0.661,0.011-1.321,0.022-1.981,0.034C51.373,328.185,51.061,327.76,50.021,327.875z"/>
				<path fill="#D1C9C1" d="M58.762,329.142c-0.589-0.72,0.199-0.749,0.511-1.017c1.106-0.058,2.199,0.018,3.275,0.291
					c-0.088,0.072-0.176,0.145-0.263,0.217c-0.531,0.536-1.175,0.005-1.783,0.191c-0.65,0.198-0.875,0.373-0.551,1.007
					c0.131,0.257,0.26,0.537,0.289,0.817c0.032,0.309,0.429,0.837-0.214,0.879c-0.381,0.025-0.963-0.021-1.013-0.68
					C58.969,330.274,59.141,329.667,58.762,329.142z"/>
				<path fill="#908671" d="M68.888,283.074c-0.31-0.117-0.518-0.676-0.96-0.225c-0.051-0.804,0.317-1.855-1.103-1.854
					c-0.067,0-0.185-0.174-0.191-0.273c-0.012-0.191,0.126-0.263,0.317-0.272c0.45-0.021,0.899-0.059,1.349-0.091
					c0.096-0.001,0.193-0.002,0.289-0.003c0.542,0.007,0.977,0.25,1.644,0.666C68.806,281.279,69.18,282.344,68.888,283.074z"/>
				<path fill="#F3F0E9" d="M43.34,283.534c-0.457-0.115-0.877-0.666-1.389-0.115c-0.594-0.833-0.197-1.68-0.036-2.524
					c0.577-0.056,1.123-0.016,1.518,0.491C43.402,282.102,43.371,282.818,43.34,283.534z"/>
				<path fill="#D1C9C1" d="M67.316,324.367c-0.217-0.752,0.748-0.565,0.9-1.178c0.192-0.775,0.776-1.453,1.19-2.173
					c0.413,1.141-0.286,2.109-0.539,3.133c-0.128,0.518-0.312,1.029-0.401,1.562c-0.213-0.107-0.601-0.011-0.467-0.492
					c0.158-0.57-0.187-0.797-0.696-0.86L67.316,324.367z"/>
				<path fill="#908671" d="M49.382,278.623c0.289-1.128,0.566-2.26,0.872-3.384c0.19-0.697-0.436-0.867-0.893-1.301
					c1.12,0.037,1.252-0.559,1.103-1.347c0.321,0.542,0.424,1.149,0.512,1.759c-0.174-0.007-0.379,0.026-0.354,0.228
					c0.191,1.55-0.215,4.455-0.667,5.906C49.684,280.457,49.511,278.847,49.382,278.623z"/>
				<path fill="#D1C9C1" d="M68.587,280.356c-0.096,0.001-0.193,0.002-0.289,0.003c-0.846-0.636-0.396-1.622-0.611-2.428
					c-0.12-0.447,0.476-0.274,0.77-0.303c0.441-0.043,0.846-0.022,0.869,0.59C69.358,279.031,69.228,279.78,68.587,280.356z"/>
				<path fill="#D1C9C1" d="M43.433,281.386c-0.395-0.507-0.941-0.548-1.518-0.491c-0.277-0.342-0.75-0.684,0.003-1.023
					c0.082,0.065,0.164,0.13,0.246,0.194c0.028-0.043,0.055-0.085,0.083-0.128c-0.109-0.023-0.218-0.046-0.327-0.069
					c0.085-0.509-0.24-1.252,0.746-1.234c1.076,0.02,0.95,0.812,0.999,1.5c-0.274,0.013-0.268-0.515-0.552-0.348
					c-0.288,0.169-0.096,0.397,0.066,0.603c0.12,0.152,0.171,0.358,0.252,0.54C43.432,281.083,43.433,281.235,43.433,281.386z"/>
				<path fill="#D1C9C1" d="M47.427,329.117c0.007-0.534,0.266-0.675,0.777-0.573c0.415,0.083,0.849,0.066,1.275,0.094
					c0.211,0.02,0.444,0.057,0.46,0.312c0.054,0.91,0.477,0.285,0.771,0.195c-0.054,0.279-0.112,0.557-0.161,0.836
					c-0.098,0.561-0.452,0.784-0.969,0.626c-0.628-0.193-0.062-0.596-0.099-0.899c-0.019-0.152,0.039-0.314,0.081-0.592
					C48.814,329.117,48.121,329.117,47.427,329.117z"/>
				<path fill="#D1C9C1" d="M49.955,279.033c0.452-1.45,0.858-2.906,0.667-4.456c-0.025-0.202,0.18-0.235,0.354-0.228l-0.01-0.009
					c0.17,0.754,0.28,1.481,0.076,2.278c-0.21,0.817-0.202,1.689-0.289,2.538c0.064,0.826-0.526,1.289-0.798,1.328
					C49.933,280.339,49.977,279.178,49.955,279.033z"/>
				<path fill="#FDD236" d="M67.302,324.359c0.509,0.063,0.854,0.29,0.696,0.86c-0.134,0.481,0.254,0.386,0.467,0.492
					c0,0.101,0.001,0.201,0.002,0.301c-0.381,0.034-0.831-0.198-1.102,0.262c-0.316,0.536,0.32,0.652,0.486,1.043
					c-0.307,0.019-0.583,0.037-0.86,0.054C67.095,326.368,67.198,325.363,67.302,324.359z"/>
				<path fill="#F3F0E9" d="M50.71,329.145c-0.295,0.089-0.717,0.715-0.771-0.195c-0.015-0.255-0.248-0.292-0.46-0.312
					c0.135-0.287,0.605-0.335,0.542-0.762c1.04-0.115,1.352,0.31,0.942,1.27C50.878,329.145,50.794,329.145,50.71,329.145z"/>
				<path fill="#908671" d="M47.984,269.829c0.139,0.079,0.322,0.126,0.408,0.244c0.234,0.322,0.677,0.682,0.49,1.05
					c-0.206,0.405-0.717,0.111-1.097,0.088C47.851,270.75,47.918,270.29,47.984,269.829z"/>
				<path fill="#201915" d="M50.022,279.468c0.272-0.038,0.796,0.513,0.732-0.312c0.21-0.173,0.405-0.03,0.604,0.027l0.034,0.07
					c0.032,0.129,0.063,0.258,0.095,0.386c-0.083,0.098-0.166,0.196-0.249,0.294c-0.483-0.081-0.976-0.246-1.392,0.182
					c-0.269-0.051-0.538-0.101-0.807-0.152C49.365,279.798,49.693,279.633,50.022,279.468z"/>
				<path fill="#F3F0E9" d="M67.042,329.952c0.417-0.114,0.833-0.228,1.25-0.342C68.092,330.516,67.704,330.734,67.042,329.952z"/>
				<path fill="#F3F0E9" d="M59.91,281.038c-0.213,0.076-0.423,0.107-0.621-0.042"/>
				<path fill="#D1C9C1" d="M40.907,326.132c-0.033-0.042-0.067-0.083-0.1-0.125c0.04,0.035,0.079,0.07,0.119,0.105
					C40.926,326.113,40.907,326.132,40.907,326.132z"/>
				<path fill="#D1C9C1" d="M47.691,267.015c0.087,0.099,0.174,0.197,0.261,0.296C47.865,267.212,47.778,267.114,47.691,267.015z"/>
				<path fill="#D1C9C1" d="M67.804,283.92c-0.043,0.096-0.086,0.193-0.128,0.289C67.719,284.113,67.762,284.016,67.804,283.92z"/>
				<path fill="#F3F0E9" d="M68.299,329.135c-0.006-0.08-0.006-0.16-0.001-0.241C68.486,328.974,68.487,329.054,68.299,329.135z"/>
				<path fill="#F3F0E9" d="M68.284,328.67c-0.162-0.112-0.149-0.21,0.023-0.296C68.299,328.473,68.291,328.572,68.284,328.67z"/>
				<path fill="#F3F0E9" d="M61.102,315.057c-0.046-0.078-0.049-0.158-0.008-0.24c0.026,0.055,0.06,0.109,0.075,0.167
					C61.174,315.002,61.126,315.033,61.102,315.057z"/>
				<path fill="#FDD236" d="M55.061,292.475c-0.271,0.039-0.829-0.777-0.759,0.287c0.059,0.893,0.014,1.793,0.015,2.69
					c-0.023,0.371-0.047,0.742-0.07,1.112c-0.05,0.279-0.087,0.561-0.153,0.838c-0.359,1.521,0.743,2.692,0.968,4.073
					c-0.008,3.597-0.064,7.196-0.008,10.792c0.049,3.162-0.251,6.341,0.398,9.482c0.116,0.563,0.087,1.169-0.288,1.682
					c-0.348,0-0.647-0.101-0.844-0.411c0.214-0.366,0.121-0.747,0.055-1.126c-0.006-0.188-0.012-0.375-0.017-0.563
					c0.043-0.074,0.035-0.143-0.023-0.206c0.001-0.445,0.001-0.891,0.002-1.336c0.112-0.247,0.121-0.488-0.049-0.716
					c0-5.81,0-11.619,0-17.429c-0.613,2.882-0.496,5.801-0.69,8.699c-0.028,0.722-0.056,1.444-0.084,2.166
					c-0.206,2.405-0.33,4.798-0.155,7.225c0.096,1.33-0.149,2.777-0.902,3.995c-0.638,1.031-0.601,3.233-1.317,2.252
					c-0.559-0.766-1.434-3.84-1.441-4.792c-0.027-3.808,0.34-7.597,0.481-11.396c0.234-6.307,0.341-12.62,0.609-18.926
					c0.092-2.161-0.014-4.354,0.552-6.48c0.051-0.06,0.096-0.126,0.134-0.196c0.431-0.431,0.862-0.862,1.293-1.293
					c0.239-0.304,0.13-0.676,0.197-1.013l0.008-0.016c0.493-0.113,0.641,0.337,0.925,0.566c0.118,0.245,0.236,0.489,0.354,0.734
					c0.137,0.335,0.273,0.669,0.409,1.004c0.043,0.244,0.086,0.488,0.13,0.732c-0.025,0.086-0.013,0.166,0.037,0.24
					c0.015,0.513,0.03,1.025,0.045,1.538c-0.035,0.747-0.302,1.513,0.192,2.214c0.004,0.767,0.007,1.535,0.011,2.302
					c0.003,0.159,0.006,0.317,0.009,0.476C55.078,291.94,55.07,292.208,55.061,292.475z"/>
				<path fill="#D1C9C1" d="M54.247,296.565c0.023-0.371,0.047-0.742,0.07-1.113c0.808,0.418,0.646,1.287,0.858,1.955
					c1.333,4.204,2.796,8.375,3.648,12.715c0.51,2.597,0.94,5.211,0.786,7.881c-0.016,0.28,0.102,0.568,0.157,0.853
					c-0.101,1.119,0.29,2.281-0.424,3.351c-0.279,0.419-0.519,0.712-1.037,0.683c-0.257-0.329,0.459-0.485,0.147-0.824
					c0.485-1.036,0.256-2.157,0.382-3.236c0.061-0.191,0.191-0.389,0.173-0.573c-0.216-2.198-0.453-4.393-0.693-6.661
					c-0.488,0.395-0.277,0.843-0.305,1.23c-0.13,1.796,0.406,3.541,0.428,5.326c-0.459,1.028-0.061,2.114-0.215,3.163
					c-0.487,0.509-0.011,1.223-0.455,1.934c0-3.989-0.022-7.805,0.01-11.62c0.015-1.755-0.15-3.465-0.792-5.111
					c-0.192-1.845-0.932-3.532-1.506-5.267C55.125,299.675,54.307,298.22,54.247,296.565z"/>
				<path fill="#D1C9C1" d="M52.256,255.266c0.284-0.659,0.621-1.051,1.151-0.192c0.283,0.458,0.677,0.6,1.199,0.743
					c0.59,0.161,1.326-0.028,1.791,0.659c0.258,0.38,0.669,0.161,0.895-0.219c0.086-0.145,0.014-0.506,0.331-0.313
					c0.113,0.069,0.082,0.376,0.116,0.575c-0.412,0.535-0.372,1.971-1.673,0.664c-0.315-0.317-1.379-0.038-2.099-0.146
					c-0.323-0.049-0.67-0.764-1.03,0.065c-0.132,0.304-0.617,0.2-0.682-0.268c-0.051-0.365-0.027-0.741-0.036-1.112
					c0,0-0.011,0.029-0.011,0.028C52.401,255.605,52.483,255.451,52.256,255.266z"/>
				<path fill="#D1C9C1" d="M50.976,274.349c-0.088-0.61-0.19-1.217-0.512-1.759l-0.001-0.005c-0.034-0.267,0.087-0.587-0.255-0.75
					v0.002c0.005-0.168,0.01-0.335,0.016-0.503c0.195-0.044,0.528-0.089,0.39-0.334c-0.736-1.31,0.282-1.527,1.317-2.009
					c-0.602,1.282-1.214,2.483,0.556,3.068c-0.373,0.108-0.861,0.141-0.472,0.736c-0.581,0.385-0.082,1.108-0.486,1.549
					c-0.188-0.001-0.375-0.003-0.563-0.004L50.976,274.349z"/>
				<path fill="#D1C9C1" d="M55.506,280.392c-0.015,0.825-1.355,1.037-0.773,2.157c-0.63-0.313,0.114-0.884-0.508-1.056
					c-0.443,0.17-0.174,0.637-0.324,0.94c-0.284-0.229-0.433-0.678-0.925-0.565c-0.003-0.569-0.006-1.138-0.009-1.707
					c0.071-0.031,0.145-0.045,0.223-0.043c0.24,0.002,0.48,0.004,0.72,0.006C54.441,280.213,54.974,280.303,55.506,280.392z"/>
				<path fill="#D1C9C1" d="M44.587,257.141c0.336-0.461,0.697-0.683,1.348-0.553c0.523,0.105,1.151-0.005,1.658-0.206
					c0.801-0.319,1.57-0.334,2.374-0.126c0.021,0.29,0.038,0.765-0.288,0.698C47.956,256.599,46.304,257.777,44.587,257.141z"/>
				<path fill="#D1C9C1" d="M57.575,300.718c0-4.326,0-8.653,0-12.979c0.031,0,0.062-0.001,0.093-0.001c0,4.326,0,8.653,0,12.979
					C57.637,300.717,57.606,300.718,57.575,300.718z"/>
				<path fill="#D1C9C1" d="M53.545,272.314c0.344-0.008,0.662,0.067,0.896,0.339c0.334,0.389,0.92,0.654,0.719,1.322
					c-0.068,0.225-0.147,0.572-0.437,0.52c-0.582-0.104-1.092-0.37-1.236-1.034C53.506,273.079,53.526,272.697,53.545,272.314z"/>
				<path fill="#908671" d="M50.966,274.34c0.188,0.001,0.375,0.003,0.563,0.004c-0.057,1.613-0.114,3.225-0.171,4.838
					c-0.199-0.057-0.395,1.129-0.604,1.302c0.087-0.848,0.079-3.05,0.289-3.867C51.247,275.821,51.136,275.094,50.966,274.34z"/>
				<path fill="#908671" d="M55.506,280.392c-0.532-0.089-1.065-0.179-1.598-0.268c0.232-0.501,0.673-0.534,1.145-0.531
					c1.092,0.008,4.308,0.02,5.405,0.163c-0.734,0.628-3.774,0.243-4.544,0.565C55.778,280.344,55.642,280.368,55.506,280.392z"/>
				<path fill="#D1C9C1" d="M59.828,266.56c-0.582-1.529-0.027-3.118-0.241-4.667c0.628,1.525,0.335,3.12,0.356,4.69L59.828,266.56z
					"/>
				<path fill="#D1C9C1" d="M50.244,255.521c0.142-0.756,0.705-0.864,1.451-0.988c-0.183,0.747-0.333,1.358-0.482,1.97
					C50.364,256.693,50.567,255.848,50.244,255.521z"/>
				<path fill="#908671" d="M53.545,272.314c-0.02,0.382-0.039,0.764-0.059,1.147c-0.524-0.147-0.882-0.662-1.472-0.666
					c-0.389-0.596,0.099-0.629,0.472-0.736C52.853,272.087,53.24,272.033,53.545,272.314z"/>
				<path fill="#908671" d="M53.188,280.118c-0.077-0.002-0.152,0.012-0.223,0.043c-0.493-0.174-1.683,0.005-2.176-0.169
					c-0.032-0.129,0.634-0.611,0.602-0.739C52.101,279.311,53.217,278.526,53.188,280.118z"/>
				<path fill="#D1C9C1" d="M41.426,257.021c0.333-0.892,0.664-0.537,0.995,0.002C42.088,257.371,41.757,257.378,41.426,257.021z"/>
				<path fill="#908671" d="M50.224,271.334c-0.005,0.168-0.01,0.335-0.016,0.503c-0.595-0.149-0.638-0.653-0.81-1.193
					C49.925,270.684,49.909,271.206,50.224,271.334z"/>
				<path fill="#D1C9C1" d="M58.261,272.767c0.089-0.054,0.177-0.108,0.266-0.162c0.084,0.228,0.246,0.376,0.473,0.455l0.042,0.061
					c-0.134,0.199-0.29,0.443-0.547,0.364C58.143,273.376,58.297,273.023,58.261,272.767z"/>
				<path fill="#D1C9C1" d="M59.25,272.566c0.799-0.42,0.432,0.263,0.502,0.531c-0.237,0.008-0.474,0.015-0.71,0.023
					c0,0-0.042-0.061-0.042-0.06C58.962,272.835,59.56,272.929,59.25,272.566z"/>
				<path fill="#908671" d="M50.208,271.836c0.342,0.163,0.221,0.482,0.255,0.75C50.202,272.395,50.155,272.132,50.208,271.836z"/>
				<path fill="#D1C9C1" d="M59.841,273.282c0.188,0.209,0.169,0.405-0.04,0.587C59.814,273.674,59.827,273.478,59.841,273.282z"/>
				<path fill="#D1C9C1" d="M49.668,253.292c0.14-0.238,0.325-0.46,0.273-0.766c0.454-0.081,0.916-0.214,1.308,0.173
					c-0.41,0.339-0.229,0.466,0.183,0.51C50.891,254.235,50.256,253.263,49.668,253.292z"/>
				<path fill="#D1C9C1" d="M58.63,255.784c0.13-0.284,0.389-0.416,0.671-0.396c0.167,0.012,0.473,0.244,0.458,0.289
					c-0.112,0.326-0.363,0.534-0.731,0.504C58.812,256.163,58.675,256.018,58.63,255.784z"/>
				<path fill="#F3F0E9" d="M51.432,253.209c-0.412-0.044-0.593-0.171-0.183-0.51C51.474,252.81,51.475,253.002,51.432,253.209z"/>
				<path fill="#D1C9C1" d="M44.694,252.623c-0.149,0.334-0.318,0.394-0.518,0.038C44.333,252.441,44.507,252.444,44.694,252.623z"
					/>
				<path fill="#F3F0E9" d="M52.256,255.266c0.227,0.185,0.145,0.339-0.048,0.483C52.224,255.587,52.24,255.427,52.256,255.266z"/>
				<path fill="#D1C9C1" d="M53.252,217.758c-0.272,0-0.544,0-0.915,0C52.7,217.435,52.989,217.509,53.252,217.758z"/>
				<path fill="#D1C9C1" d="M52.98,235.144c0.675-0.502,1.401-0.254,2.119-0.146C54.438,235.7,53.719,235.568,52.98,235.144z"/>
				<path fill="#D1C9C1" d="M47.088,242.256c0.146,0.11,0.292,0.22,0.439,0.33c-2.104,0.068-4.196,0.407-6.312,0.253
					C43.13,242.22,45.138,242.521,47.088,242.256z"/>
				<path fill="#D1C9C1" d="M54.724,227.092c0.173,0.019,0.345,0.038,0.518,0.057c-0.171,0.188-0.371,0.167-0.58,0.08
					C54.697,227.19,54.718,227.145,54.724,227.092z"/>
				<path fill="#908671" d="M54.724,227.092c-0.006,0.052-0.027,0.098-0.063,0.137c-0.085,0.011-0.146-0.019-0.184-0.088
					C54.56,227.124,54.642,227.108,54.724,227.092z"/>
				<path fill="#D1C9C1" d="M57.51,248.766c0.245,0.065,0.257,0.279,0.268,0.472c0.012,0.209-0.039,0.447-0.312,0.374
					c-0.223-0.06-0.214-0.317-0.206-0.513C57.265,248.951,57.274,248.768,57.51,248.766z"/>
				<path fill="#D1C9C1" d="M52.215,219.314c0.09,0.004,0.179,0.009,0.269,0.013c-0.02,0.06-0.04,0.12-0.061,0.181
					c-0.063-0.073-0.127-0.145-0.19-0.218L52.215,219.314z"/>
				<path fill="#D1C9C1" d="M63.043,326.366c0.05-0.354-0.093-0.768,0.313-1.012c0.135-0.003,0.27-0.006,0.405-0.008
					C63.713,325.821,63.628,326.27,63.043,326.366z"/>
				<path fill="#908671" d="M53.23,327.379c0.164-0.009,0.328-0.019,0.492-0.028c0.518,0.023,1.051,0.164,1.526-0.178
					c0.142,0.016,0.284,0.031,0.426,0.047c0.112,0.04,0.224,0.08,0.336,0.12c1.155-0.161,2.459,0.454,3.43-0.661
					c0.043,0.308-0.039,0.737,0.463,0.694c1.046-0.091,2.128,0.28,3.142-0.236c0.145,0.02,0.29,0.04,0.434,0.06
					c-0.251,0.452,0.092,1.358-0.931,1.219c-1.076-0.273-2.17-0.349-3.275-0.291c-0.987,0.01-2.01-0.279-2.924,0.36
					c-0.092,0.064-0.275,0.127-0.34,0.082c-1.394-0.976-2.868,0.144-4.282-0.174c-0.039-0.754,0.555-0.293,0.917-0.347
					c-0.275-0.327-0.473-0.562-0.671-0.797c0.331,0.049,0.662,0.099,0.993,0.148C53.068,327.598,53.156,327.602,53.23,327.379z"/>
				<path fill="#D1C9C1" d="M63.48,327.196c-0.145-0.02-0.29-0.04-0.434-0.06c-0.006-0.096-0.012-0.192-0.018-0.288
					C63.25,326.871,63.469,326.899,63.48,327.196z"/>
				<path fill="#F3F0E9" d="M59.25,272.566c0.311,0.363-0.287,0.269-0.249,0.494c-0.228-0.079-0.389-0.227-0.474-0.455
					C58.768,272.592,59.009,272.579,59.25,272.566z"/>
				<path fill="#D1C9C1" d="M60.389,273.796c0.023,0.107,0.046,0.215,0.069,0.322C60.28,274.043,60.245,273.939,60.389,273.796z"/>
				<path fill="#F3F0E9" d="M60.738,272.305c-0.046,0.09-0.092,0.179-0.138,0.269C60.571,272.446,60.572,272.332,60.738,272.305z"/>
				<path fill="#D1C9C1" d="M50.62,281.882c-0.426-0.507,0.21-1.343-0.541-1.75c-0.078-0.013-0.156-0.019-0.234-0.018
					c0.416-0.428,0.91-0.264,1.392-0.182c-0.002,0.814-0.004,1.628-0.006,2.442C51.018,282.223,50.993,281.837,50.62,281.882z"/>
				<path fill="#FEFEFE" d="M47.957,281.127c-0.274,0.321-0.525,0.364-0.737-0.061C47.478,280.942,47.727,280.917,47.957,281.127z"
					/>
				<path fill="#D1C9C1" d="M43.174,328.123c0.406-0.353,0.838-0.311,1.282-0.083C44.038,328.21,43.609,328.206,43.174,328.123z"/>
				<path fill="#908671" d="M41.92,279.87c0.109,0.023,0.218,0.046,0.327,0.069c-0.028,0.043-0.055,0.085-0.083,0.128
					c-0.082-0.065-0.164-0.13-0.246-0.194C41.918,279.872,41.92,279.87,41.92,279.87z"/>
				<path fill="#908671" d="M55.165,323.431c0.228,0.628,0.803,0.599,1.313,0.694c-1.573,0.703-2.348,0.198-2.69-1.751
					c0.046,0.015,0.093,0.029,0.14,0.043c0.004,0.069,0.026,0.132,0.066,0.189c0.109,0.138,0.218,0.276,0.327,0.414
					C54.518,323.33,54.817,323.431,55.165,323.431z"/>
				<path fill="#908671" d="M51.231,282.375c0.082,0.605,0.164,1.209,0.246,1.815c-0.039,0.071-0.084,0.136-0.134,0.197
					c-0.697-0.703-0.352-1.707-0.723-2.504C50.993,281.837,51.018,282.223,51.231,282.375z"/>
				<path fill="#D1C9C1" d="M53.6,310.343c0.157,0.73,0.251,1.457-0.084,2.167C53.544,311.786,53.572,311.064,53.6,310.343z"/>
				<path fill="#D1C9C1" d="M54.254,283.167c0.657,0.123,0.44,0.602,0.41,1.004C54.527,283.836,54.39,283.501,54.254,283.167z"/>
				<path fill="#D1C9C1" d="M54.321,323.019c-0.109-0.138-0.218-0.276-0.327-0.414c0.328-0.13,0.188-0.512,0.383-0.713
					C54.443,322.273,54.536,322.653,54.321,323.019z"/>
				<path fill="#D1C9C1" d="M52.77,282.897c-0.028-0.356-0.136-0.728,0.197-1.013C52.9,282.221,53.009,282.593,52.77,282.897z"/>
				<path fill="#D1C9C1" d="M54.338,319.788c-0.016-0.239-0.033-0.478-0.049-0.717C54.459,319.3,54.451,319.541,54.338,319.788z"/>
				<path fill="#F3F0E9" d="M55.077,291.197c0.186,0.155,0.188,0.314,0.009,0.476C55.083,291.514,55.08,291.356,55.077,291.197z"/>
				<path fill="#F3F0E9" d="M54.793,284.903c0.034,0.053,0.074,0.103,0.097,0.161c0.006,0.016-0.039,0.052-0.06,0.079
					C54.78,285.068,54.768,284.989,54.793,284.903z"/>
				<path fill="#D1C9C1" d="M54.359,321.33c-0.073-0.062-0.08-0.131-0.023-0.206C54.394,321.187,54.402,321.256,54.359,321.33z"/>
				<path fill="#FDD236" d="M58.437,318.154c0.132,0.226,0.264,0.451,0.397,0.677c-0.125,1.079,0.103,2.2-0.382,3.236
					c-0.289-0.185-0.107-0.514-0.23-0.75C58.375,320.268,57.978,319.182,58.437,318.154z"/>
				<path fill="#FDD236" d="M47.286,280.484c0.222,0.244,0.411,0.452,0.672,0.643c1.498,1.096,1.65,6.663,1.607,8.445
					c-0.109,4.47-0.174,8.941-0.262,13.412c-0.107,5.514-0.211,11.027-0.336,16.54c-0.024,1.085-0.092,2.173-0.218,3.25
					c-0.186,1.588-0.707,4.851-2.304,5.6c-0.007-0.18-0.412-0.203-0.592-0.277c-1.207-1.448-0.814-5.14-0.672-6.85
					c0.226-2.709,0.25-5.421,0.306-8.134c0.14-6.761,0.289-13.522,0.423-20.283c0.017-0.834,0.033-1.678-0.064-2.503
					C45.601,288.241,46.082,282.281,47.286,280.484z"/>
				<path fill="#D1C9C1" d="M55.249,327.173c-0.476,0.341-1.008,0.2-1.526,0.178C54.155,326.639,54.611,326.121,55.249,327.173z"/>
				<path fill="#D1C9C1" d="M53.928,322.416c-0.047-0.014-0.094-0.028-0.14-0.043c-0.426-0.308-0.271-0.682-0.2-1.133
					C54.11,321.598,53.962,322.021,53.928,322.416z"/>
				<path fill="#D1C9C1" d="M56.011,327.34c-0.112-0.04-0.224-0.08-0.336-0.12C55.786,327.26,55.899,327.3,56.011,327.34z"/>
				<path fill="#D1C9C1" d="M53.23,327.379c-0.074,0.223-0.163,0.218-0.264,0.017C53.054,327.391,53.142,327.385,53.23,327.379z"/>
			</g>
			<path fill="#B98F35" d="M42.401,325.143c0,0-2.563-33.169-0.766-38.463C41.636,286.681,39.278,325.282,42.401,325.143z"/>
			<polygon fill="#B98F35" points="46.445,324.124 46.562,289.076 47.088,323.399 			"/>
			<path fill="#B98F35" d="M52.914,284.048c0,0-1.055,1.661-1.042,13.146l-0.285,21.316L52.914,284.048z"/>
			<path fill="#E2E8F1" d="M27.064,331.018c0,0-34.963-1.181-12.651-47.201l7.394-23.368
				C21.807,260.449-5.272,331.801,27.064,331.018z"/>
			<path fill="#E2E8F1" d="M94.783,278.232l-4.518,1.78c39,39.979,1.719,52.254,7.662,49.453
				C116.163,320.954,107.701,290.535,94.783,278.232z"/>
		</g>
		<g id="Layer_1_1_">
			<g>
				<path fill="#6C2A52" d="M55.06-0.449c-0.119,1.851,0.251,3.758-0.373,5.552c-0.162,0.464,0.006,0.857,0.187,1.264
					c1.93,4.351,1.613,8.751,0.087,13.132c-0.274,0.787-0.496,1.531-0.451,2.396c0.043,0.837,0.209,1.704,0.102,2.506
					c-0.741,5.563,1.672,10.648,1.348,16.136c-0.042,0.707,0.102,1.571-0.153,2.095c-1.415,2.908-0.786,6.058-0.758,9.141
					c0.006,0.646,0.075,1.331-0.056,1.932c-0.691,3.158-0.144,6.247,0.212,9.351c0.007,0.064,0.032,0.13,0.025,0.19
					c-0.633,6.058,0.301,12.198-0.414,18.199c-0.242,2.03,1.096,3.654,0.264,5.535c1.893,2.282,0.985,5.296,1.116,8.002
					c0.073,1.495-0.678,2.908-0.543,4.53c0.089,1.07,0.352,1.811,1.019,2.393c5.074,4.431,5.289,13.265,0.314,17.801
					c-1.378,1.256-1.33,5.493-0.351,7.243c0.911,1.63,1.913,2.192,3.355,2.349c1.28,0.138,2.025,1.294,2.108,3.16
					c0.148,3.349,0.416,6.689,0.579,10.037c0.064,1.308,0.458,2.051,1.467,2.181c0.774,0.1,1.542,0.301,2.316,0.37
					c1.555,0.138,2.363,1.214,2.562,3.253c0.399,4.097,0.851,8.185,1.256,12.28c0.152,1.535,0.238,3.082,0.348,4.624
					c0.086,1.203,0.435,2.171,1.127,3.031c3.193,3.969-12.794,20.737-9.923,25.18c5.17,8.001,28.974,3.48,32.076,13.228
					c1.024,3.218,1.998,6.455,2.851,9.755c0.24,0.929,0.751,1.473,1.224,2.113c1.965,2.658,1.798,5.736-0.437,7.925
					c-2.912,2.851-6.359,3.854-9.795,4.737c-12.158,3.122-24.462,3.423-36.79,3.168c-1.396-0.029-2.791-0.073-4.185-0.132
					c-8.286-0.354-16.538-1.27-24.737-2.992c-3.903-0.82-7.74-2.013-11.365-4.196c-1.043-0.629-1.941-1.445-2.518-2.819
					c-0.62-1.479-0.643-3.099,0.267-4.119c1.932-2.169,2.438-5.21,3.216-8.094c2.719-10.078,30.789-9.816,35.929-18.071
					c3.577-5.744-16.728-20.534-12.337-25.193c1.092-1.159,1.577-2.532,1.735-4.44c0.468-5.646,1.145-11.262,1.75-16.888
					c0.174-1.615,1.035-2.12,2.119-2.487c1.115-0.378,2.517,0.33,3.321-0.973c0.723-1.173,0.321-2.877,0.458-4.337
					c0.209-2.238,0.188-4.515,0.414-6.749c0.288-2.845,0.892-3.702,3.007-3.695c1.764,0.005,2.316-1.826,2.94-3.17
					c0.708-1.526-0.262-4.608-1.444-5.494c-4.07-3.051-5.093-8.148-4.183-12.411c0.557-2.607,1.611-4.756,3.44-5.983
					c1.226-0.823,1.655-1.905,1.547-3.675c-0.153-2.508-0.157-5.032-0.227-7.549c-0.125-4.469,0.403-8.911,0.509-13.369
					c0.1-4.209,0.398-8.342-0.15-12.533c-0.128-0.975-0.033-2.144,0.265-3.047c0.993-3.018,0.832-6.144,0.764-9.291
					c-0.04-1.869-0.077-3.747,0.28-5.592c0.149-0.771,0.044-1.537-0.216-2.265c-1.054-2.947-1.195-6.121-0.463-9.084
					c0.805-3.257,0.694-6.486,0.681-9.764c-0.011-2.753,0.01-5.421-0.867-8.123c-0.973-2.997-0.952-6.302,0.024-9.449
					c0.459-1.479,0.013-2.933-0.095-4.391c-0.109-1.474-0.296-2.939-0.449-4.407C51.942-0.449,53.501-0.449,55.06-0.449z
					 M52.067,114.806c0.058-3.511-1.296-6.505-1.211-9.856c0.031-1.219-0.654-0.732-1.135-0.378
					c-3.085,2.272-3.425,8.388-0.667,11.749c0.698,0.851,1.426,1.301,2.37,0.797C52.377,116.609,51.927,115.474,52.067,114.806z
					 M58.492,110.93c-0.105-2.668-0.936-4.762-2.586-6.223c-0.804-0.712-2.18,0.17-2.125,1.405c0.136,3.02,0.357,6.033,0.573,9.045
					c0.056,0.783,0.234,1.539,0.931,1.774c0.599,0.202,1.015-0.204,1.423-0.707C57.881,114.778,58.392,112.957,58.492,110.93z
					 M53.756,18.047c1.181-2.875,1.421-5.829,0.745-8.88c-0.084-0.378-0.031-1.042-0.553-0.9c-0.368,0.101-0.55,0.558-0.533,1.037
					C53.516,12.219,53.64,15.133,53.756,18.047z M54.098,33.848c-0.544,2.869,0.373,5.169-0.079,7.847
					c-0.185-2.367-0.34-4.353-0.495-6.34c-0.184,2.518-0.189,5.022-0.18,7.526c0.002,0.444-0.009,1.022,0.389,1.137
					c0.558,0.161,0.552-0.562,0.672-1.003C55.201,40.103,54.966,37.238,54.098,33.848z"/>
			</g>
			<path fill="#51203E" d="M48.282,231.382c0,0-32.249-0.469-37.499-7.969c0,0,3.459-0.531,3.979-8.25
				c0.521-7.719,10.271-7.75,10.271-7.75s13.957-3.591,18.801-4.5c4.125-0.774-9.051,7.235-16.301,9.25s-7,7-7.25,9.5
				S27.781,227.101,48.282,231.382z"/>
			<path fill="#A77F97" d="M90.753,217.758c0,0-37.976,12.281-66.171,1.213c0,0,9.967,14.999,67.059,2.121
				C91.642,221.091,96.453,219.331,90.753,217.758z"/>
			<path fill="#A77F97" d="M53.525,192.163c0,0-0.71,19.5-21.18,20.5c0,0,31.924,3.75,43.361-2.25
				C75.705,210.413,56.294,212.413,53.525,192.163z"/>
			<path fill="#51203E" d="M47.59,142.394c0,0-3.598,5.816-7.25,5.507c0,0,0.717,20.292-3.819,19.782l4.536,0.511
				c0,0,2.167-16.081,4.857-17.647C45.914,150.547,45.792,147.029,47.59,142.394z"/>
			<path fill="#A77F97" d="M70.01,169.106c0,0-27.724,3.443-32.476,0C37.534,169.106,50.987,171.299,70.01,169.106z"/>
			<path fill="#A77F97" d="M49.967,144.645c0,0,3.661,0.775,11.041-0.248l-0.079,1.108
				C60.929,145.505,55.203,147.236,49.967,144.645z"/>
			<path fill="#A77F97" d="M52.225,145.326c0,0,2.645,25.444-3.163,25.223l7.108-0.204c0,0-3.393-2.689-1.904-25.019L52.225,145.326
				L52.225,145.326z"/>
			<path fill="#A77F97" d="M46.835,130.691c0,0,5-2,13.875,0C60.71,130.691,52.835,131.941,46.835,130.691z"/>
			<path fill="#A77F97" d="M57.545,131.001c0,0,1.764-0.14,1.251,13.662c0,0,2.663-12.046,0.513-13.802L57.545,131.001z"/>
			<path fill="#A77F97" d="M53.772,119.163c0,0,9.035-2.833,3.773-14.5C57.545,104.663,64.595,115.163,53.772,119.163z"/>
			<path fill="#A77F97" d="M53.015,98.663c0,0,3.994-4.695,0.908-11C50.838,81.358,56.849,95.234,53.015,98.663z"/>
			<path fill="#A77F97" d="M53.745,87.284c0,0,0.827-5.354-0.248-10.521c-1.075-5.167,0.552-12.833,0.552-12.833
				s0.041-7.833-0.459-9.833c0,0,0.081,7.833-0.459,9.167c-0.541,1.333-1.449,13.167-0.541,13.333
				c0.908,0.167,0.537,10.688,0.537,10.688"/>
			<path fill="#51203E" d="M45.718,142.473c-0.072-0.11-1.372-6.368,1.116-9.685c1.698-2.264,5.986,0.811,7.215,0.125
				s0.949,4.127-4.199,1.575C44.704,131.936,48.2,146.251,45.718,142.473z"/>
			<path fill="#51203E" d="M58.492,195.708c0,0,4.603-16.397,11.836-22.75c0,0-1.19-7.822-9.412,6.834
				C60.916,179.792,57.516,188.911,58.492,195.708z"/>
			<path fill="#51203E" d="M50.827,193.707c0,0-4.362-10.572-9.687-14.238c0,0,0.177-5.31,6.816,3.815
				C47.955,183.284,50.941,189.097,50.827,193.707z"/>
			<path fill="#A77F97" d="M43.815,167.262c0,0,3.026,0.822,9.247,0.315l-0.118,0.923C52.944,168.501,48.072,169.677,43.815,167.262
				z"/>
			<path fill="#A77F97" d="M45.958,168.83c0,0,2.332,0.581,7.093,0.092l-0.076,0.709C52.975,169.632,49.26,170.612,45.958,168.83z"
				/>
			<path fill="#A77F97" d="M72.936,207.81c0,0-3.026,0.822-9.247,0.315l0.118,0.923C63.806,209.048,68.678,210.225,72.936,207.81z"
				/>
			<path fill="#A77F97" d="M70.792,209.378c0,0-2.332,0.581-7.093,0.092l0.076,0.709C63.775,210.18,67.49,211.16,70.792,209.378z"/>
			<path fill="#A77F97" d="M66.792,205.172c0,0-3.026,0.822-9.247,0.315l0.118,0.923C57.663,206.41,62.535,207.586,66.792,205.172z"
				/>
			<path fill="#A77F97" d="M64.649,206.74c0,0-2.332,0.581-7.093,0.092l0.076,0.709C57.632,207.541,61.347,208.522,64.649,206.74z"
				/>
			<path fill="#A77F97" d="M64.771,203.852c0,0-3.026,0.822-9.247,0.315l0.118,0.923C55.642,205.091,60.514,206.267,64.771,203.852z
				"/>
			<path fill="#A77F97" d="M62.628,205.42c0,0-2.332,0.581-7.093,0.092l0.076,0.709C55.611,206.222,59.326,207.202,62.628,205.42z"
				/>
			<path fill="#A77F97" d="M62.939,201.672c0,0-3.026,0.822-9.247,0.315l0.118,0.923C53.81,202.911,58.682,204.087,62.939,201.672z"
				/>
			<path fill="#A77F97" d="M60.796,203.24c0,0-2.332,0.581-7.093,0.092l0.076,0.709C53.779,204.042,57.494,205.022,60.796,203.24z"
				/>
			<path fill="#A77F97" d="M61.874,199.796c0,0-3.026,0.822-9.247,0.315l0.118,0.923C52.744,201.035,57.616,202.211,61.874,199.796z
				"/>
			<path fill="#A77F97" d="M59.73,201.364c0,0-2.332,0.581-7.093,0.092l0.076,0.709C52.713,202.166,56.428,203.146,59.73,201.364z"
				/>
			<path fill="#A77F97" d="M61.874,165.386c0,0-3.026,0.822-9.247,0.315l0.118,0.923C52.744,166.625,57.616,167.801,61.874,165.386z
				"/>
			<path fill="#A77F97" d="M59.73,166.954c0,0-2.332,0.581-7.093,0.092l0.076,0.709C52.713,167.756,56.428,168.736,59.73,166.954z"
				/>
			<path fill="#A77F97" d="M59.73,163.645c0,0-2.332,0.581-7.093,0.092l0.076,0.709C52.713,164.447,56.428,165.427,59.73,163.645z"
				/>
			<path fill="#A77F97" d="M49.922,162.993c0,0,1.016,0.253,3.09,0.04l-0.033,0.309C52.979,163.342,51.36,163.769,49.922,162.993z"
				/>
			<path fill="#A77F97" d="M49.987,162.527c0,0,1.016,0.253,3.09,0.04l-0.033,0.309C53.043,162.876,51.425,163.303,49.987,162.527z"
				/>
			<path fill="#A77F97" d="M50.233,161.792c0,0,1.001,0.39,3.119-0.234l-0.065,0.605C53.287,162.163,51.608,163.159,50.233,161.792z
				"/>
			<path fill="#A77F97" d="M50.345,160.877c0,0,1.001,0.39,3.119-0.234l-0.065,0.606C53.4,161.248,51.721,162.244,50.345,160.877z"
				/>
			<path fill="#A77F97" d="M55.89,137.527c0,0,1.016,0.253,3.09,0.04l-0.033,0.309C58.946,137.876,57.328,138.303,55.89,137.527z"/>
			<path fill="#A77F97" d="M55.954,137.061c0,0,1.016,0.253,3.09,0.04l-0.033,0.309C59.011,137.41,57.393,137.837,55.954,137.061z"
				/>
			<path fill="#A77F97" d="M50.233,146.551c0,0,1.001,0.39,3.119-0.234l-0.065,0.606C53.287,146.922,51.608,147.918,50.233,146.551z
				"/>
			<path fill="#A77F97" d="M81.4,217.758c0,0,3.026,0.822,9.247,0.315l-0.118,0.923C90.529,218.996,85.657,220.173,81.4,217.758z"/>
		</g>
	</g>
</g>
</svg>
