<?xml version="1.0" encoding="utf-8"?>
<!-- Generator: Adobe Illustrator 17.0.0, SVG Export Plug-In . SVG Version: 6.00 Build 0)  -->
<!DOCTYPE svg PUBLIC "-//W3C//DTD SVG 1.1//EN" "http://www.w3.org/Graphics/SVG/1.1/DTD/svg11.dtd">
<svg version="1.1" xmlns="http://www.w3.org/2000/svg" xmlns:xlink="http://www.w3.org/1999/xlink" x="0px" y="0px"
	 width="113.013px" height="343.672px" viewBox="275.216 0.388 113.013 343.672"
	 enable-background="new 275.216 0.388 113.013 343.672" xml:space="preserve">
<g id="Layer_2_1_">
</g>
<g id="Layer_1">
	<g id="Layer_2">
		<g>
			<path fill="#D1C9C1" d="M343.031,214.602c1.109,0.814,2.443,1.114,3.682,1.635c1.644,0.69,2.867,1.902,3.506,3.576
				c0.301,0.788,0.688,1.379,1.427,1.804c1.021,0.587,1.454,1.402,0.948,2.626c-0.469,1.136-0.145,2.068,0.946,2.773
				c1.418,0.917,1.392,2.021,0.012,3.046c-1.377,1.023-1.395,2.611-0.043,3.752c1.266,1.068,1.275,1.985-0.153,2.698
				c-1.009,0.504-1.227,1.284-1.254,2.21c-0.017,0.574-0.11,1.071-0.504,1.493c-2.107-0.758-4.335-0.831-6.515-0.891
				c-4.628-0.129-9.263-0.037-13.895-0.025c-0.368,0.001-0.736,0.088-1.103,0.135c-0.446-0.015-0.893-0.03-1.339-0.045
				c-0.018-0.137-0.037-0.274-0.055-0.411c1.198-0.073,1.507-1.454,2.561-1.74c0.833,0.16,1.148-0.833,1.996-0.815
				c3.719,0.081,7.44-0.092,11.16,0.202c1.522,0.12,3.061,0.02,4.592,0.02c-1.795-0.112-3.537-0.648-5.32-0.683
				c-2.834-0.056-5.67,0.031-8.505,0c-1.41-0.016-2.831,0.208-4.232-0.125c0.206-0.496,0.666-0.293,1.024-0.379
				c0.462-0.112,0.184-0.288,0.026-0.447c-2.347-1.763-4.589-0.835-6.824,0.268c-0.147,0.064-0.293,0.181-0.441,0.186
				c-3.83,0.113-7.644,0.366-11.437,0.968c-0.801,0.127-0.984,0.419-0.965,1.086c-0.25,0.304-0.649,0.242-0.963,0.391
				c0.047,0.712,0.586,0.631,1.013,0.555c3.141-0.56,6.313-0.792,9.488-1.031c0.599-0.045,1.346,0.025,1.81-0.586
				c1.507-0.182,3.015-0.369,4.508,0.098c-1.14,0.103-2.312-0.035-3.695,0.466c0.91,0.156,1.544,0.265,2.178,0.374
				c0.23,0.717,0.639,0.91,1.277,0.437c0.576-0.015,0.357,0.498,0.51,0.765c-0.436-0.077-0.837-0.081-0.985,0.46
				c-0.13,0.011-0.259,0.023-0.389,0.034c-0.112-0.051-0.227-0.154-0.336-0.147c-4.455,0.288-8.928,0.404-13.325,1.267
				c-1.594,0.313-3.299,0.323-4.934,1.536c3.918-0.422,7.546-0.771,11.162-1.218c2.362-0.292,4.754-0.042,7.101-0.486
				c1.054-0.083,2.108-0.165,3.163-0.248c0.083,0.011,0.166,0.03,0.249,0.031c4.726,0.022,9.452-0.014,14.176,0.087
				c2.46,0.053,4.916,0.313,7.382,0.188c0.821-0.139,1.467,0.215,2.028,0.754c0.8,0.77,0.811,1.549-0.093,2.213
				c-1.471,1.08-1.605,2.636-0.367,3.953c0.622,0.661,0.961,1.48,0.788,2.411c-0.219,1.179,0.666,2.474-0.38,3.572
				c-0.068,0.072-0.024,0.396,0.059,0.444c1.578,0.905,0.851,2.869,1.864,4.023c-1.103-0.322-2.206-0.644-3.309-0.966
				c0.743-0.006,1.76-0.201,1.761-0.849c0.002-0.958-0.767-1.616-1.912-1.655c-1.706-0.059-3.408-0.219-5.111-0.336
				c-0.005-0.149-0.01-0.298-0.015-0.447c1.49,0.118,2.98,0.235,4.524,0.358c-1.528-0.975-3.208-0.663-4.795-0.767
				c-1.972-0.13-3.968-0.38-5.941,0.084c-2.447,0.011-4.895,0.022-7.342,0.034c-0.032-0.02-0.063-0.041-0.095-0.061
				c0.034,0.019,0.067,0.037,0.101,0.056c0.015,0.058,0.024,0.118,0.026,0.178c-0.64,0.604-1.417,0.334-2.151,0.338
				c-0.402-0.559-0.991-0.504-1.571-0.479c-0.301-0.504-0.81-0.285-1.234-0.347c-0.889-0.131-0.398-0.427-0.093-0.707
				c0.27-0.069,0.652,0.293,0.793-0.277c0.262-1.064,0.874-2.065,0.531-3.227c0.277-0.648-0.256-1.258-0.085-1.904
				c0.21-0.795-0.33-1.443-0.851-1.621c-0.759-0.26-0.635-0.695-0.631-1.201c0.417-0.08,0.834-0.159,1.251-0.239
				c0.238,0.703,0.853,0.465,1.28,0.415c3.033-0.355,6.076-0.205,9.114-0.229c2.476-0.02,4.958,0.093,7.749-0.438
				c-3.25-0.053-6.148-0.382-9.067-0.305c-1.624,0.043-3.252-0.045-4.878-0.074c0.003-0.211,0.006-0.422,0.009-0.633
				c0.213-0.141,0.625,0.059,0.692-0.573c-1.113,0.343-2.197,0.504-3.161-0.233c-0.934-0.099-1.746-0.828-2.757-0.536
				c-0.411-0.444-0.642-0.271-0.777,0.228c-1.28,0.312-2.56,0.623-3.84,0.935c-0.078,0.031-0.154,0.086-0.233,0.09
				c-3.735,0.178-7.456,0.498-11.156,1.044c-0.914,0.135-1.718,0.492-2.453,1.061c0.398,0.148,0.771,0.231,1.122,0.176
				c3.209-0.503,6.442-0.661,9.681-0.83c0.767-0.04,1.679,0.099,2.404-0.434c0.954,0.46,1.962,0.426,2.889,0.057
				c0.497-0.198,0.879-0.349,1.349-0.067c-0.143,0.04-0.252,0.105-0.196,0.283c-0.866,0.498-0.565,1.148-0.367,1.904
				c0.243,0.928,0.88,2.017-0.468,2.74c-0.337,0.181-0.226,0.607-0.152,0.925c0.133,0.566,0.332,1.117,0.466,1.683
				c0.193,0.815,0.089,1.511-0.891,1.716c-0.322,0.068-0.66,0.073-0.991,0.087c-2.75,0.112-5.502,0.202-8.251,0.34
				c-0.775,0.039-1.572,0.079-2.283,0.477c-0.295,0.183-0.624,0.178-0.957,0.205c-2.096,0.169-4.157,0.569-6.215,0.982
				c-0.384,0.077-0.93,0.067-0.566,0.736c0.085,0.701,1.636,0.337,1.088,1.498c0.165,0.014,0.331,0.041,0.496,0.041
				c2.273,0.004,4.513,0.773,6.813,0.27c0.453-0.099,0.914,0.065,1.178,0.528c-0.431,0.372-0.949,0.191-1.425,0.198
				c-1.957,0.028-3.915,0.024-5.873,0.031c-0.246,0.002-0.492,0.004-0.738,0.006c-1.169-0.466-2.337-0.619-3.536-0.076
				c-0.258,0.117-0.573,0.08-0.763-0.217c0.333-0.178,0.593-0.427,0.757-0.771c0.861-0.354,0.861-0.354,0.501-0.731
				c0.01-0.167,0.021-0.334,0.031-0.501c0.032-0.04,0.064-0.08,0.096-0.12c-0.039,0.032-0.077,0.065-0.116,0.097
				c-0.218-0.083-0.628-0.252-0.218-0.429c0.897-0.387,0.75-1.09,0.752-1.787c0.006-2.755,0.006-5.51-0.267-8.257
				c-0.081-0.812,0.218-1.444,0.845-1.98c1.294-1.107,1.206-2.688-0.173-3.785c-1.184-0.942-1.326-1.633-0.334-2.792
				c1.625-1.899,1.453-2.536-0.192-4.602c-0.591-0.743-0.656-1.464,0.143-2.178c1.934-1.727,2.109-2.956-0.007-4.778
				c-0.792-0.683-0.68-1.823,0.208-2.648c0.819-0.76,2.152-0.797,2.822-1.499c0.589-0.617,0.538-1.839,1.263-2.633
				c1.435-1.573,3.308-2.348,5.214-3.093c0.068-0.081,0.136-0.162,0.205-0.243c0,0,0.052-0.061,0.052-0.06
				c0.326,0.649,0.916,0.642,1.506,0.579c1.846-0.197,3.69-0.41,5.792-0.645c-0.782-0.08-1.312-0.134-1.842-0.188
				c0.118-0.035,0.235-0.099,0.354-0.102c6.937-0.209,13.874-0.51,20.805,0.174C342.327,214.891,342.84,215.273,343.031,214.602z
				 M327.2,227.681c-1.42,0.03-2.882-0.216-4.176,0.638c-2.197,0.202-4.392,0.425-6.591,0.596c-0.901,0.07-1.732,0.244-2.43,0.877
				c6.117,0.041,12.078-1.568,18.411-1.363c-0.458-0.318-0.83-0.197-0.961-0.536c-0.209-0.521-0.741-0.505-1.136-0.564
				C329.261,227.172,328.212,227.324,327.2,227.681z M330.951,220.646c-0.612-0.075-1.22-0.165-1.749-0.519
				c0.021-0.215,0.07-0.463,0.341-0.407c2.189,0.45,4.397-0.003,6.59,0.153c0.241-0.18,0.483-0.165,0.723,0.001
				c0.395-0.129,0.999,0.602,1.207-0.294c0.13,0.002,0.259,0.004,0.389,0.005c0.736,0.835,1.749,0.942,2.364,0.248
				c1.571-0.109,3.111,0.503,4.709,0.206c-0.183-0.297-0.478-0.336-0.762-0.367c-4.385-0.474-8.757-1.181-13.186-0.965
				c-1.514,0.074-2.43-0.68-3.159-1.825c-0.772-1.213-1.755-1.864-3.279-1.375c0.664,0.73,1.26,1.624,0.906,2.532
				c-0.33,0.847-1.389,0.527-2.154,0.612c-3.666,0.409-7.366,0.554-10.976,1.447c4.738-0.836,9.564-0.148,14.305-0.911
				c0.084,0.26,0.169,0.519,0.253,0.779l0.053,0.109l-0.096,0.075l0.019-0.024c-0.334,0.173-0.667,0.345-1.001,0.518
				c-0.527,0.058-1.073,0.048-1.576,0.191c-0.568,0.161-1.368-0.354-1.693,0.546c-3.897,0.041-7.655,0.947-11.43,1.758
				c0.874,0.526,1.587-0.178,2.385-0.229c3.863-0.249,7.695-0.787,11.536-1.241c0.791-0.093,1.49,0.01,2,0.692
				c-1.315,0.165-2.615,0.378-3.927,1.135c1.657,0.246,3.135-0.082,4.573,0.304c-0.091,1.213-1.038,1.307-1.906,1.352
				c-1.329,0.068-2.65,0.124-3.98,0.262c-3.448,0.356-6.898,0.678-10.307,1.316c-0.994,0.186-2.091,0.215-2.996,1.096
				c0.866,0.13,1.56,0.065,2.266-0.062c2.384-0.429,4.794-0.653,7.205-0.866c2.237-0.198,4.471-0.428,6.705-0.643
				c1.952-0.084,3.916,0.028,5.847-0.38c0.64,0.43,1.309,0.046,1.951,0.026c4.94-0.156,9.868,0.212,14.802,0.264
				c0.669,0.007,1.364,0.123,2.015-0.262c-1.621-0.336-3.243-0.646-4.871-0.681c-4.807-0.105-9.617-0.161-14.425,0.04
				c-0.302-0.038-0.604-0.077-0.907-0.115c-0.036-0.19-0.072-0.381-0.107-0.571c0.677-0.178,0.846-0.985,1.515-1.211
				c0.23-0.078,0.721-0.17,0.54-0.662c-0.132-0.357-0.443-0.485-0.792-0.479c-0.943,0.019-1.885,0.06-2.828,0.092
				c-0.107-0.282-0.213-0.564-0.348-0.921c2.044,0.069,4.02-0.139,5.947,0.427c0.313,0.092,0.576-0.045,0.831-0.183
				c0.464-0.252,0.955-0.273,1.461-0.216c0.231,0.026,0.47,0.265,0.688,0.015c0.06-0.068,0.068-0.262,0.015-0.336
				c-0.21-0.291-0.508-0.148-0.795-0.137c-1.473,0.057-2.946,0.085-4.419,0.124c0.098-0.113,0.295-0.31,0.28-0.327
				C331.498,220.513,331.216,220.618,330.951,220.646z M326.651,230.533c0.123,0.544,0.478,0.472,0.861,0.324
				c0.222,0.052,0.444,0.104,0.666,0.155c-0.301,1.429-1.691,1.392-2.542,1.409c-3.342,0.067-6.647,0.461-9.947,0.865
				c-1.698,0.208-3.477,0.081-5.087,0.861c-0.254,0.123-0.69,0.18-0.61,0.508c0.111,0.456,0.534,0.202,0.839,0.168
				c2.728-0.298,5.453-0.646,8.186-0.883c2.736-0.237,5.481-0.364,8.222-0.539c1.091-0.06,2.181-0.12,3.272-0.18
				c0.834-0.009,1.669-0.003,2.503-0.029c5.729-0.186,11.446,0.228,17.17,0.331c0.341,0.006,0.901,0.214,0.98-0.208
				c0.095-0.508-0.491-0.57-0.881-0.672c-1.669-0.436-3.397-0.313-5.083-0.36c-4.848-0.133-9.701-0.05-14.552-0.047
				c-0.281,0-0.594-0.088-0.811,0.196c-0.121-0.038-0.242-0.077-0.363-0.115c0.004-0.26,0.007-0.52,0.011-0.78
				c0.623-0.572,1.246-1.145,1.914-1.758c-2.142-0.21-6.774,0.181-7.106,0.582C325.078,230.419,325.865,230.476,326.651,230.533z
				 M335.955,229.042c0.073,0.05,0.136,0.128,0.199,0.13c5.248,0.107,10.473,0.562,15.701,0.994c0.19,0.016,0.469-0.023,0.569-0.147
				c0.186-0.232-0.017-0.49-0.177-0.663c-0.333-0.36-0.784-0.419-1.261-0.428c-0.873-0.016-1.74-0.068-2.614-0.179
				C344.227,228.221,340.089,228.418,335.955,229.042z M331.963,250.416c0.398,0.225-0.713,1.112,0.314,1.021
				c1.137-0.101,1.496-0.915,1.108-2.065c-0.099-0.293-0.408-0.473-0.066-0.837c0.175-0.186-0.016-0.484-0.272-0.598
				c-0.34-0.151-0.563,0.018-0.69,0.328C332.083,248.93,331.992,249.632,331.963,250.416z M330.119,229.172
				c-0.617-0.016-1.197-0.171-1.787-0.234c-0.581-0.062-1.091,0.196-1.607,0.415C327.869,229.406,329.004,229.543,330.119,229.172z
				 M350.401,227.181c0.823,0.519,1.507,0.612,2.387,0.357C352.017,226.913,351.277,227.265,350.401,227.181z M310.694,223.465
				c0.071,0.03,0.156,0.098,0.208,0.078c0.05-0.019,0.065-0.129,0.096-0.199c-0.07-0.03-0.156-0.098-0.207-0.079
				C310.74,223.285,310.724,223.394,310.694,223.465z M322.901,223.307l0.003-0.061l0.116,0.039L322.901,223.307z"/>
			<path fill="#F3F0E9" d="M360.282,256.892c1.473,0.244,2.947,0.489,4.421,0.733c1.727,1.39,2.775,2.959,3.61,4.571
				c3.204,6.186,6.225,12.402,8.913,18.666c2.947,6.869,6.164,13.707,8.262,20.686c0.569,1.894,1.261,3.789,1.505,5.7
				c0.368,2.882,1.302,5.73,1.233,8.641c-0.122,5.111-2.719,9.756-7.386,14.088c-4.877,4.527-11.599,7.905-19.851,10.289
				c-5.485,1.585-11.356,2.587-17.438,3.171c-5.46,0.524-10.975,0.757-16.481,0.545c-6.827-0.263-13.597-0.84-20.056-2.224
				c-9.568-2.05-17.5-5.346-23.513-10.075c-0.376-0.295-0.906-0.586-0.75-1.022c0.235-0.069,0.221-0.134-0.012-0.194l0.011,0.009
				c-0.003-0.279,0.008-0.562-0.682-0.58l0.013,0.007c-0.111-0.064-0.222-0.128-0.334-0.192c-0.01-0.055-0.011-0.11-0.003-0.166
				c-0.224-0.455-6.058-14.67-6.058-12.241c0.65,0.006,2.063,12.202,6.391,11.44c1.752-0.308,2.852,2.348,4.522,3.403
				c1.589,1.004,3.081,1.968,5.542,2.566c3.241,0.787,5.617,2.541,8.977,3.375c0.065,0.016,0.065,0.116,0.095,0.176
				c-1.038,0.348-1.885-0.339-3.171-0.213c2.228,0.954,4.46,1.554,6.85,1.981c1.133,0.891,3.017,0.994,4.614,1.36
				c5.257,1.204,10.791,1.776,16.413,2.01c1.592,0.066,3.37,0.156,4.801-0.512c3.199-0.009,6.398-0.009,9.597-0.035
				c0.533-0.004,1.28,0.19,1.495-0.328c1.065-0.057,2.17-0.056,3.209-0.819c-1.277,0-2.231,0-3.185,0
				c0.148-0.466,0.801-0.34,1.327-0.368c1.567-0.084,3.156,0.272,4.645,0.135c6.263-0.579,11.957-2.013,17.195-4.03
				c1.424-0.548,2.647-1.293,4.154-1.737c4.379-1.29,6.879-3.518,9.288-5.789c1.403-1.323,2.715-2.682,4.021-4.04
				c1.211-1.259,1.896-2.591,2.678-3.918c0.643-1.091,0.539-2.245,0.754-3.374c0.519-2.724,0.78-5.416,0.381-8.173
				c-0.372-2.57-0.908-5.119-2.045-7.586c-1.499-3.253-1.913-6.615-3.633-9.854c-1.207-2.274-1.689-4.686-2.813-7
				c-0.9-1.852-1.64-3.73-2.486-5.591c-0.979-2.153-2.082-4.29-2.968-6.455c-0.572-1.397-1.205-2.792-1.825-4.176
				c-0.562-1.256-1.511-2.488-2.172-3.748c-1.261-2.406-1.879-4.913-3.877-7.204c-0.746-0.855-1.678-1.162-3.148-0.948
				c-0.893,0.13-4.81-0.013-5.698,0.008c-0.102-0.499,4.033-0.515,4.053-0.978C359.874,256.886,360.078,256.889,360.282,256.892z"/>
			<path fill="#F3F0E9" d="M295.487,257.602c0.254,0.226,0.674,0.253,1.019,0.165c1.601-0.412,3.162-0.296,4.723,0.058
				c0.084,0.531-1.466,0.094-1.151,0.532c0.311,0.431,1.292,0.142,1.968,0.204c3.661,0.332,11.914-0.75,15.591-0.7
				c0.599,0.008-3.128,0.83-3.116,1.303c0.014,0.554-0.897,0.323-1.421,0.343c-3.796,0.146-7.571-0.202-11.363-0.18
				c-1.519,0.009-3.003-0.091-4.397-0.441c-0.697-0.175-1.1-0.092-1.531,0.265c-1.116,0.924-1.993,1.898-2.315,3.014
				c-0.843,2.923-1.663,5.855-3.092,8.704c-1.399,2.79-2.853,5.566-3.895,8.411c-1.06,2.897-2.783,5.692-3.566,8.646
				c-1.188,4.485-3.497,8.856-4.741,13.347c-0.673,2.432-1.382,4.872-1.428,7.324c-0.049,2.663-0.544,5.316-0.413,7.98
				c0.015,0.299,0.174,0.673-0.673,0.729c-0.504-1.75-0.357-3.492-0.105-5.255c0.175-1.228,0.507-2.5-0.228-3.727
				c-0.55-3.215,0.67-6.326,1.724-9.445c1.538-4.552,3.015-9.111,4.714-13.643c1.156-3.083,2.454-6.152,3.745-9.219
				c1.172-2.785,2.137-5.61,3.285-8.403c1.301-3.165,2.542-6.353,5.345-9.243C294.48,258.045,294.628,257.624,295.487,257.602z"/>
			<path fill="#201915" d="M343.031,214.602c-0.192,0.671-0.704,0.289-1.033,0.256c-6.931-0.683-13.868-0.382-20.805-0.174
				c-0.119,0.004-0.236,0.067-0.354,0.102c-1.233,0.023-2.463,0.228-3.699,0.05c1.459-1.265,3.252-1.982,4.887-2.959
				c0.487-0.291,1.365-0.525,1.241-1.018c-0.16-0.64-1.018-0.276-1.54-0.239c-1.024,0.073-1.701-0.044-1.342-1.313
				c2.438-0.729,4.942-1.11,7.466-1.33c1.192-0.104,2.401-0.018,3.596-0.15c-0.66-0.516-1.321-0.538-1.975-0.175
				c-0.051,0.028-0.06,0.281-0.013,0.311c0.526,0.336,1.12,0.153,1.688,0.191c2.374,0.162,4.733,0.432,7.051,0.988
				c0.016,0.307-0.106,0.678,0.363,0.772c0.112,0.219,0.224,0.438,0.336,0.657c-1.431,0-2.861,0-4.373,0
				c1.405,1.537,3.66,1.212,5.03,2.584c-0.22,0.246-0.491-0.204-0.753,0.294c1.341,0.314,2.539,0.986,3.942,0.929
				C342.839,214.453,342.935,214.528,343.031,214.602z M336.882,212.882c-0.066,0.027-0.132,0.054-0.198,0.081
				c0.062,0.032,0.124,0.087,0.187,0.089c0.065,0.002,0.131-0.047,0.197-0.073C337.007,212.946,336.947,212.914,336.882,212.882z
				 M337.67,213.207c0.075,0.042,0.141,0.105,0.21,0.108c0.068,0.003,0.138-0.055,0.208-0.087c-0.066-0.037-0.131-0.101-0.199-0.105
				C337.82,213.119,337.748,213.174,337.67,213.207z"/>
			<path fill="#908671" d="M351.718,240.49c-2.466,0.125-4.922-0.135-7.382-0.188c-4.724-0.101-9.451-0.065-14.176-0.087
				c-0.083,0-0.166-0.02-0.249-0.031c0.059-0.25,0.117-0.501,0.176-0.751c0.368-0.047,0.735-0.135,1.103-0.135
				c4.632-0.012,9.266-0.104,13.895,0.025c2.18,0.061,4.407,0.133,6.515,0.891C351.638,240.306,351.678,240.398,351.718,240.49z"/>
			<path fill="#908671" d="M320.386,209.308c-0.359,1.269,0.318,1.386,1.342,1.313c0.522-0.037,1.38-0.401,1.54,0.239
				c0.124,0.494-0.754,0.727-1.241,1.018c-1.634,0.977-3.427,1.693-4.886,2.959c-0.447-0.026-0.89,0.558-1.341,0.01
				c0.385-0.439,0.725-0.932,1.165-1.308C318.369,212.337,319.711,211.096,320.386,209.308z"/>
			<path fill="#908671" d="M342.744,214.379c-1.404,0.057-2.601-0.615-3.942-0.929c0.262-0.497,0.533-0.048,0.753-0.294
				c-1.37-1.372-3.624-1.047-5.03-2.584c1.512,0,2.943,0,4.373,0C339.964,212.06,341.609,212.961,342.744,214.379z"/>
			<path fill="#F3F0E9" d="M315.799,214.847c0.451,0.548,0.894-0.036,1.341-0.01c1.235,0.179,2.466-0.026,3.699-0.05
				c0.53,0.054,1.06,0.108,1.842,0.188c-2.102,0.235-3.946,0.448-5.792,0.645c-0.59,0.063-1.18,0.07-1.506-0.579
				C315.522,214.976,315.66,214.911,315.799,214.847z"/>
			<path fill="#F3F0E9" d="M305.06,256.33c0.36,0.377,0.36,0.377-0.501,0.731C304.571,256.71,304.563,256.347,305.06,256.33z"/>
			<path fill="#908671" d="M338.562,209.916c-0.469-0.094-0.347-0.465-0.363-0.772C338.706,209.22,338.689,209.542,338.562,209.916z
				"/>
			<path fill="#F3F0E9" d="M315.331,215.101c-0.068,0.081-0.136,0.162-0.205,0.243C315.195,215.263,315.263,215.182,315.331,215.101
				z"/>
			<path fill="#908671" d="M335.165,267.423c-0.021-1.571,0.272-3.165-0.356-4.69c0.214,1.549,1.934,9.466,0.401,9.424
				c-0.069,0.527-0.414-3.996-0.755-4.592c-0.252-0.44-0.293-0.95-0.205-1.455c0.311-1.784-0.256-3.579-0.025-5.33
				c0.194-1.472-0.648-2.359-1.264-3.423c-0.034-0.199-0.003-0.506-0.116-0.575c-0.317-0.193-0.245,0.168-0.331,0.313
				c-0.226,0.381-0.638,0.599-0.895,0.219c-0.466-0.687-1.202-0.497-1.791-0.659c-0.522-0.143-0.916-0.285-1.199-0.743
				c-0.529-0.858-0.866-0.467-1.151,0.192c-0.016,0.161-0.032,0.322-0.048,0.483l0.011-0.029c-0.526,1.127-0.398,2.336-0.464,3.525
				c-0.097,1.745-0.292,3.486-0.057,5.236c0.083,0.619,0.097,1.249-0.143,1.852c-0.145,0.363-0.237,0.957-0.014,1.067
				c1.114,0.551,0.017,0.839-0.108,1.209c-0.104,0.307-0.377,2.162-0.684,1.972c-0.424-0.263,0.01-2.126,0.055-2.345
				c0.161-0.778,0.3-1.59,0.251-2.377c-0.178-2.813-0.185-5.614,0.31-8.396c0.066-0.371-0.179-0.631-0.152-0.961
				c0.15-0.612,0.3-1.223,0.482-1.97c-0.751,0.124-1.314,0.232-1.456,0.988c-0.092,0.245-0.184,0.49-0.277,0.735
				c-0.805-0.207-1.573-0.192-2.374,0.126c-0.507,0.202-1.135,0.311-1.658,0.206c-0.651-0.13-1.012,0.092-1.348,0.553
				c-0.722-0.039-1.444-0.079-2.166-0.118c-0.331-0.538-0.662-0.893-0.995-0.002c-0.169,0.01-0.338,0.021-0.506,0.031
				c-0.264-0.463-0.725-0.626-1.178-0.528c-2.3,0.502-4.54-0.266-6.813-0.27c-0.165,0-0.331-0.027-0.496-0.041
				c0.548-1.161-1.003-0.797-1.088-1.498c2.274-0.277,4.532-0.656,6.833-0.751c3.833-0.158,7.66-0.442,11.49-0.672
				c0.588-0.029,1.223,0.943,1.765-0.082c0.043-0.207,0.042-0.399-0.183-0.51c-0.393-0.387-0.854-0.254-1.308-0.173
				c-1.752-0.132-3.499-0.018-5.247,0.097c-0.187-0.179-0.361-0.182-0.518,0.038c-1.698,0.044-3.395,0.088-5.093,0.132
				c0.71-0.398,1.507-0.439,2.283-0.477c2.749-0.138,5.5-0.228,8.251-0.34c0.331-0.014,0.669-0.019,0.991-0.087
				c0.979-0.205,1.084-0.901,0.891-1.716c-0.134-0.566-0.333-1.117-0.466-1.683c-0.074-0.317-0.185-0.744,0.152-0.925
				c1.348-0.724,0.711-1.812,0.468-2.74c-0.198-0.756-0.499-1.405,0.367-1.904c0.379-0.068,0.703,0.043,0.979,0.305
				c-0.005,0.507-0.129,0.941,0.631,1.201c0.52,0.178,1.061,0.826,0.851,1.621c-0.171,0.647,0.363,1.257,0.085,1.905
				c-0.354-0.079-0.556-0.664-0.953-0.423c-0.375,0.228-0.437,0.771-0.319,1.132c0.311,0.956,0.057,1.867-0.051,2.795
				c-0.305,0.279-0.795,0.576,0.093,0.707c0.424,0.063,0.933-0.157,1.234,0.347c-0.728,0.179-1.453,0.312-2.194,0.046
				c-0.301-0.108-0.486,0.094-0.552,0.347c-0.047,0.183,0.122,0.317,0.303,0.306c1.337-0.086,2.691,0.128,4.014-0.219
				c0.734-0.004,1.511,0.266,2.151-0.338c1.266,0.166,2.53,0.441,3.8,0.475c3.244,0.088,6.492,0.068,9.738,0.091
				c1.704,0.117,3.406,0.277,5.111,0.336c1.145,0.039,1.914,0.697,1.912,1.655c-0.001,0.648-1.018,0.842-1.761,0.849
				c-0.153-0.004-0.306-0.008-0.458-0.012c-0.989-0.403-1.793,0.392-2.696,0.426c-3.23,0.121-6.463,0.18-9.695,0.245
				c-1.318,0.027-2.636-0.745-3.955-0.002c-0.54,0.346-0.589,0.826-0.442,1.407c0.757,2.993,0.485,6.057,0.6,9.095 M333.847,256.621
				c0.045,0.234,0.182,0.379,0.398,0.397c0.368,0.03,0.619-0.178,0.731-0.504c0.015-0.044-0.291-0.276-0.458-0.289
				C334.237,256.205,333.977,256.337,333.847,256.621z"/>
			<path fill="#908671" d="M336.857,219.874c-0.241-0.167-0.482-0.182-0.723-0.001c-0.052-0.523-0.447-0.511-0.826-0.537
				c-2.693-0.179-5.389-0.218-8.087-0.148c-4.741,0.764-9.567,0.076-14.305,0.911c3.611-0.892,7.31-1.038,10.976-1.447
				c0.766-0.085,1.824,0.235,2.154-0.612c0.354-0.909-0.242-1.803-0.906-2.532c1.523-0.489,2.507,0.162,3.279,1.375
				c0.728,1.145,1.645,1.899,3.159,1.825c4.43-0.217,8.801,0.491,13.186,0.965c0.284,0.031,0.579,0.069,0.762,0.367
				c-1.597,0.297-3.138-0.316-4.709-0.206c-0.768-0.271-1.57-0.226-2.364-0.248c-0.13-0.002-0.259-0.004-0.389-0.005
				C337.637,219.58,337.153,219.341,336.857,219.874z M328.469,218.595c-0.263-0.25-0.552-0.323-0.915,0
				C327.925,218.595,328.197,218.595,328.469,218.595z"/>
			<path fill="#908671" d="M330.944,235.836c1.401,0.332,2.822,0.109,4.232,0.125c2.835,0.032,5.671-0.055,8.505,0
				c1.783,0.035,3.525,0.571,5.32,0.683c-1.531,0-3.071,0.1-4.592-0.02c-3.719-0.294-7.441-0.121-11.16-0.202
				c-0.848-0.018-1.164,0.975-1.996,0.815c-0.963-0.723-2.063-0.021-3.069-0.294c-1.493-0.467-3.001-0.28-4.508-0.098
				c-2.494,0.199-4.986,0.408-7.481,0.592c-1.614,0.119-3.188,0.649-4.83,0.47c0.314-0.148,0.712-0.087,0.963-0.391
				c5.232-1.109,10.58-1.019,15.869-1.535c0.739,0.423,1.458,0.556,2.119-0.145C330.526,235.836,330.735,235.836,330.944,235.836z"
				/>
			<path fill="#908671" d="M329.836,232.433c0.217-0.284,0.53-0.196,0.811-0.196c4.851-0.003,9.705-0.086,14.552,0.047
				c1.686,0.046,3.414-0.077,5.083,0.36c0.39,0.102,0.976,0.164,0.881,0.672c-0.078,0.422-0.639,0.214-0.98,0.208
				c-5.723-0.103-11.44-0.517-17.17-0.331c-0.834,0.027-1.669,0.02-2.503,0.029C330.416,232.848,329.648,233.049,329.836,232.433z"
				/>
			<path fill="#908671" d="M327.239,233.402c-2.741,0.175-5.487,0.302-8.222,0.539c-2.734,0.237-5.458,0.585-8.186,0.883
				c-0.304,0.033-0.728,0.287-0.839-0.168c-0.08-0.328,0.356-0.385,0.61-0.508c1.609-0.78,3.389-0.653,5.087-0.861
				c3.3-0.405,6.606-0.798,9.947-0.865c0.851-0.017,2.24,0.02,2.542-1.409c0.643-0.34,0.767,0.607,1.306,0.525
				c-0.004,0.26-0.007,0.52-0.011,0.78C328.636,232.49,327.669,232.392,327.239,233.402z"/>
			<path fill="#908671" d="M325.307,226.254c-2.235,0.216-4.47,0.446-6.707,0.644c-2.411,0.213-4.821,0.437-7.205,0.866
				c-0.707,0.127-1.4,0.192-2.266,0.062c0.905-0.881,2.002-0.91,2.996-1.096c3.408-0.638,6.859-0.959,10.307-1.316
				c1.33-0.138,2.651-0.194,3.98-0.262c0.869-0.044,1.815-0.138,1.906-1.351c0.28-0.012,0.712-0.005,0.655,0.306
				c-0.135,0.738,0.424,0.329,0.639,0.467c0.036,0.19,0.072,0.381,0.107,0.571C328.158,225.151,326.769,225.847,325.307,226.254z"/>
			<path fill="#908671" d="M326.748,240.432c-2.347,0.444-4.739,0.193-7.101,0.486c-3.616,0.448-7.244,0.796-11.162,1.218
				c1.635-1.213,3.34-1.223,4.934-1.536c4.397-0.864,8.87-0.979,13.325-1.267c0.108-0.007,0.224,0.095,0.335,0.146
				C326.969,239.796,326.858,240.114,326.748,240.432z"/>
			<path fill="#F3F0E9" d="M323.195,243.485c-0.725,0.533-1.637,0.394-2.404,0.434c-3.239,0.169-6.472,0.327-9.681,0.83
				c-0.351,0.055-0.724-0.027-1.122-0.176c0.735-0.569,1.539-0.926,2.453-1.061c3.7-0.546,7.421-0.866,11.156-1.044
				c0.079-0.004,0.155-0.059,0.233-0.09c1.987-0.057,3.973-0.114,5.96-0.172c0.515-0.015,1.063,0.072,1.414-0.455
				c0.963,0.736,2.048,0.575,3.161,0.233c-0.067,0.632-0.479,0.432-0.692,0.573c-3.789,0.178-7.579,0.356-11.368,0.534
				c-1.95,0.265-3.958-0.035-5.873,0.583c2.117,0.154,4.209-0.185,6.313-0.254C322.895,243.443,323.045,243.464,323.195,243.485z"/>
			<path fill="#F3F0E9" d="M314.3,253.63c1.698-0.044,3.395-0.088,5.093-0.131c0.2,0.355,0.369,0.295,0.518-0.038
				c1.747-0.115,3.495-0.229,5.247-0.097c0.052,0.306-0.133,0.528-0.273,0.766c-3.83,0.231-7.657,0.514-11.49,0.672
				c-2.301,0.095-4.558,0.474-6.833,0.751c-0.363-0.669,0.182-0.659,0.566-0.736c2.058-0.413,4.119-0.813,6.215-0.982
				C313.676,253.808,314.005,253.813,314.3,253.63z"/>
			<path fill="#908671" d="M330.627,225.26c4.808-0.201,9.617-0.144,14.425-0.04c1.628,0.035,3.25,0.345,4.871,0.681
				c-0.652,0.385-1.347,0.269-2.015,0.262c-4.934-0.052-9.862-0.419-14.802-0.264c-0.642,0.02-1.311,0.404-1.951-0.026
				C330.911,225.727,330.556,225.676,330.627,225.26z"/>
			<path fill="#908671" d="M335.955,229.042c4.134-0.625,8.271-0.821,12.416-0.293c0.874,0.111,1.741,0.163,2.614,0.179
				c0.476,0.009,0.928,0.068,1.261,0.428c0.16,0.173,0.363,0.431,0.177,0.663c-0.1,0.124-0.379,0.163-0.569,0.147
				c-5.227-0.432-10.453-0.887-15.701-0.994C336.091,229.171,336.029,229.092,335.955,229.042z"/>
			<path fill="#F3F0E9" d="M330.944,235.836c-0.209,0-0.418,0-0.628-0.001c-0.717-0.108-1.444-0.356-2.119,0.146
				c-5.289,0.517-10.637,0.426-15.869,1.535c-0.02-0.667,0.163-0.959,0.964-1.086c3.793-0.602,7.607-0.854,11.437-0.968
				c0.149-0.004,0.294-0.121,0.441-0.186c2.275-0.089,4.549-0.179,6.824-0.268c0.158,0.16,0.436,0.336-0.026,0.447
				C331.61,235.543,331.15,235.34,330.944,235.836z"/>
			<path fill="#F3F0E9" d="M327.674,222.362c-0.511-0.682-1.21-0.786-2-0.692c-3.841,0.453-7.673,0.992-11.536,1.241
				c-0.798,0.051-1.511,0.755-2.385,0.229c3.774-0.811,7.533-1.717,11.43-1.758c1.085-0.038,2.178,0.044,3.244-0.244
				c1.086-0.05,2.172-0.099,3.258-0.149c0.57,0.244,1.16,0.114,1.744,0.097c1.473-0.038,2.947-0.067,4.42-0.124
				c0.287-0.011,0.585-0.154,0.795,0.137c0.054,0.074,0.045,0.268-0.015,0.336c-0.219,0.249-0.457,0.011-0.688-0.015
				c-0.507-0.057-0.998-0.036-1.461,0.216c-0.255,0.139-0.518,0.275-0.831,0.183c-1.927-0.566-3.903-0.358-5.947-0.427
				c0.135,0.357,0.242,0.639,0.348,0.921C327.923,222.33,327.798,222.346,327.674,222.362z"/>
			<path fill="#F3F0E9" d="M333.664,243.192c1.626,0.029,3.254,0.116,4.878,0.074c2.919-0.076,5.817,0.252,9.067,0.305
				c-2.791,0.531-5.273,0.418-7.749,0.438c-3.039,0.024-6.081-0.126-9.114,0.229c-0.427,0.05-1.042,0.288-1.28-0.415
				c0.402-0.037,0.803-0.074,1.205-0.11C331.636,243.351,332.619,243.091,333.664,243.192z"/>
			<path fill="#F3F0E9" d="M331.453,227.892c0.131,0.34,0.503,0.219,0.961,0.536c-6.334-0.205-12.295,1.404-18.411,1.363
				c0.698-0.633,1.529-0.807,2.43-0.877c2.199-0.171,4.394-0.394,6.59-0.595c1.404-0.074,2.809-0.148,4.213-0.223
				c0.819-0.04,1.639-0.079,2.458-0.119c0.038,0.07,0.1,0.099,0.184,0.088c0.209,0.087,0.409,0.109,0.58-0.08
				C330.79,227.955,331.122,227.923,331.453,227.892z"/>
			<path fill="#201915" d="M327.674,222.362c0.125-0.016,0.249-0.032,0.374-0.048c0.943-0.032,1.885-0.073,2.828-0.092
				c0.349-0.007,0.661,0.121,0.792,0.479c0.181,0.492-0.31,0.585-0.54,0.662c-0.669,0.227-0.838,1.033-1.515,1.211
				c-0.215-0.138-0.774,0.271-0.639-0.467c0.057-0.311-0.375-0.318-0.655-0.306c-1.438-0.386-2.915-0.058-4.573-0.304
				C325.059,222.74,326.358,222.527,327.674,222.362z"/>
			<path fill="#F3F0E9" d="M347.045,254.055c-3.246-0.023-6.493-0.003-9.738-0.091c-1.27-0.034-2.533-0.31-3.8-0.475
				c-0.003-0.06-0.012-0.12-0.026-0.178l-0.005,0.005c2.447-0.011,4.895-0.022,7.342-0.033c2.07,0.109,4.141,0.217,6.212,0.326
				C347.035,253.757,347.04,253.906,347.045,254.055z"/>
			<path fill="#908671" d="M333.664,243.192c-1.046-0.101-2.029,0.159-2.994,0.521c-1.052-0.448-2.169-0.028-3.239-0.238
				c-0.469-0.282-0.852-0.13-1.349,0.067c-0.927,0.369-1.935,0.403-2.889-0.057c-0.15-0.022-0.3-0.043-0.45-0.063
				c-0.147-0.109-0.293-0.22-0.439-0.33c3.789-0.178,7.579-0.356,11.368-0.534C333.67,242.77,333.667,242.981,333.664,243.192z"/>
			<path fill="#201915" d="M328.184,236.943c1.006,0.273,2.106-0.429,3.069,0.294c-1.053,0.286-1.363,1.667-2.561,1.74
				c-0.08,0.003-0.159,0.006-0.239,0.008c-0.152-0.267,0.066-0.781-0.509-0.765c-0.385-0.263-0.748-0.592-1.277-0.437
				c-0.634-0.109-1.267-0.218-2.178-0.374C325.872,236.908,327.043,237.046,328.184,236.943z"/>
			<path fill="#201915" d="M329.484,231.538c-0.539,0.081-0.663-0.866-1.306-0.525c-0.222-0.052-0.444-0.103-0.666-0.155
				c-0.163-0.436-0.456-0.528-0.861-0.325c-0.787-0.057-1.573-0.114-2.36-0.171c0.332-0.401,4.964-0.792,7.106-0.582
				C330.73,230.393,330.107,230.966,329.484,231.538z"/>
			<path fill="#201915" d="M331.994,235.009c-2.275,0.089-4.549,0.179-6.824,0.268C327.405,234.174,329.647,233.246,331.994,235.009
				z"/>
			<path fill="#F3F0E9" d="M327.221,219.188c2.698-0.07,5.393-0.031,8.087,0.148c0.379,0.025,0.774,0.014,0.826,0.537
				c-2.194-0.156-4.401,0.297-6.59-0.153c-0.271-0.056-0.32,0.191-0.341,0.407c-0.576-0.053-1.152-0.106-1.728-0.16
				C327.39,219.707,327.305,219.448,327.221,219.188z"/>
			<path fill="#F3F0E9" d="M311.365,237.908c1.642,0.179,3.216-0.351,4.83-0.47c2.495-0.184,4.987-0.393,7.481-0.592
				c-0.464,0.611-1.211,0.541-1.81,0.586c-3.175,0.239-6.348,0.471-9.488,1.031C311.951,238.538,311.411,238.62,311.365,237.908z"/>
			<path fill="#201915" d="M331.204,241.753c-0.351,0.527-0.899,0.44-1.414,0.455c-1.987,0.057-3.973,0.114-5.96,0.172
				c1.28-0.312,2.56-0.623,3.84-0.935c0.283,0.007,0.612,0.168,0.777-0.228C329.458,240.925,330.27,241.654,331.204,241.753z"/>
			<path fill="#908671" d="M347.03,253.608c-2.071-0.109-4.141-0.217-6.212-0.326c1.973-0.464,3.969-0.214,5.941-0.084
				c1.587,0.105,3.267-0.208,4.795,0.767C350.009,253.844,348.519,253.726,347.03,253.608z"/>
			<path fill="#908671" d="M331.963,250.416c0.03-0.784,0.121-1.486,0.393-2.151c0.127-0.31,0.351-0.479,0.69-0.328
				c0.256,0.114,0.447,0.412,0.272,0.598c-0.342,0.363-0.033,0.544,0.066,0.837c0.388,1.15,0.029,1.964-1.108,2.065
				C331.249,251.528,332.36,250.641,331.963,250.416z M332.727,249.603c-0.236,0.002-0.245,0.186-0.251,0.333
				c-0.008,0.195-0.016,0.453,0.206,0.513c0.274,0.073,0.325-0.164,0.312-0.374C332.984,249.882,332.972,249.667,332.727,249.603z"
				/>
			<path fill="#201915" d="M330.627,225.26c-0.071,0.416,0.284,0.467,0.527,0.615c-1.931,0.408-3.895,0.296-5.847,0.38
				c1.462-0.407,2.851-1.103,4.413-1.11C330.022,225.183,330.324,225.222,330.627,225.26z"/>
			<path fill="#201915" d="M328.458,252.294c0.108-0.928,0.363-1.839,0.051-2.795c-0.117-0.361-0.055-0.904,0.319-1.132
				c0.397-0.241,0.599,0.343,0.953,0.423c0.343,1.163-0.269,2.163-0.531,3.227C329.11,252.587,328.728,252.225,328.458,252.294z"/>
			<path fill="#201915" d="M327.474,219.967c0.576,0.053,1.152,0.106,1.728,0.16c0.529,0.354,1.137,0.445,1.749,0.519
				c-0.325,0.475-0.885,0.079-1.267,0.343c-1.086,0.05-2.172,0.099-3.258,0.149c0.008-0.164,0.016-0.329,0.025-0.493
				c0.334-0.173,0.667-0.345,1.001-0.518c0.063,0.073,0.127,0.145,0.19,0.218c0.02-0.06,0.04-0.12,0.061-0.181
				c-0.09-0.004-0.179-0.009-0.269-0.013l0.096-0.075L327.474,219.967z"/>
			<path fill="#201915" d="M326.748,240.432c0.111-0.318,0.221-0.636,0.332-0.953c0.13-0.011,0.259-0.022,0.389-0.034
				c0.437,0.24,0.859,0.117,1.279-0.056c0.446,0.015,0.893,0.03,1.339,0.045c-0.059,0.251-0.117,0.501-0.176,0.751
				C328.856,240.267,327.802,240.349,326.748,240.432z"/>
			<path fill="#F3F0E9" d="M331.356,253.827c-1.323,0.347-2.676,0.133-4.014,0.219c-0.181,0.012-0.35-0.123-0.303-0.306
				c0.065-0.253,0.251-0.455,0.552-0.347c0.741,0.267,1.466,0.134,2.194-0.046C330.366,253.322,330.955,253.268,331.356,253.827z"/>
			<path fill="#201915" d="M331.453,227.892c-0.331,0.031-0.663,0.063-0.994,0.094c-0.172-0.019-0.345-0.038-0.518-0.057
				c-0.082,0.016-0.165,0.032-0.247,0.048c-0.819,0.04-1.639,0.079-2.458,0.119c-0.012-0.139-0.025-0.277-0.037-0.416
				c1.012-0.357,2.062-0.509,3.118-0.352C330.713,227.387,331.244,227.371,331.453,227.892z"/>
			<path fill="#201915" d="M327.239,233.402c0.43-1.009,1.397-0.912,2.234-1.084c0.121,0.038,0.242,0.077,0.363,0.115
				c-0.188,0.616,0.58,0.414,0.675,0.789C329.42,233.282,328.33,233.342,327.239,233.402z"/>
			<path fill="#908671" d="M327.2,227.681c0.012,0.139,0.025,0.277,0.037,0.416c-1.405,0.074-2.809,0.149-4.213,0.223
				C324.318,227.465,325.78,227.71,327.2,227.681z"/>
			<path fill="#908671" d="M326.45,220.645c-0.008,0.164-0.016,0.329-0.025,0.493c-1.066,0.288-2.16,0.206-3.244,0.244
				c0.325-0.9,1.125-0.385,1.693-0.546C325.377,220.693,325.923,220.703,326.45,220.645z"/>
			<path fill="#908671" d="M330.119,229.172c-1.116,0.372-2.251,0.234-3.394,0.181c0.516-0.219,1.027-0.477,1.607-0.415
				C328.923,229,329.503,229.155,330.119,229.172z"/>
			<path fill="#F3F0E9" d="M338.453,219.585c0.794,0.022,1.595-0.023,2.364,0.248C340.202,220.527,339.189,220.421,338.453,219.585z
				"/>
			<path fill="#201915" d="M327.432,243.475c1.07,0.21,2.186-0.21,3.239,0.238c-0.402,0.037-0.803,0.074-1.205,0.11
				c-0.417,0.08-0.834,0.159-1.251,0.239c-0.277-0.262-0.6-0.372-0.979-0.305C327.18,243.58,327.289,243.515,327.432,243.475z"/>
			<path fill="#908671" d="M350.401,227.181c0.877,0.084,1.616-0.268,2.387,0.357C351.908,227.793,351.224,227.7,350.401,227.181z"
				/>
			<path fill="#908671" d="M326.667,237.783c0.528-0.155,0.892,0.174,1.277,0.437C327.306,238.694,326.897,238.5,326.667,237.783z"
				/>
			<path fill="#908671" d="M329.684,220.989c0.382-0.264,0.943,0.132,1.267-0.343c0.265-0.028,0.547-0.132,0.757,0.114
				c0.014,0.017-0.182,0.214-0.28,0.327C330.844,221.102,330.253,221.232,329.684,220.989z"/>
			<path fill="#908671" d="M328.747,239.388c-0.42,0.173-0.842,0.296-1.279,0.056c0.148-0.54,0.549-0.536,0.985-0.459
				c0.08-0.003,0.159-0.006,0.239-0.008C328.71,239.114,328.729,239.251,328.747,239.388z"/>
			<path fill="#908671" d="M328.448,241.217c-0.165,0.396-0.494,0.235-0.777,0.228C327.805,240.945,328.036,240.772,328.448,241.217
				z"/>
			<path fill="#F3F0E9" d="M336.857,219.874c0.296-0.532,0.78-0.294,1.207-0.293C337.856,220.476,337.252,219.745,336.857,219.874z"
				/>
			<path fill="#908671" d="M326.651,230.533c0.405-0.204,0.697-0.111,0.861,0.325C327.129,231.005,326.774,231.077,326.651,230.533z
				"/>
			<path fill="#F3F0E9" d="M310.694,223.464c0.031-0.07,0.046-0.179,0.097-0.199s0.136,0.049,0.207,0.079
				c-0.031,0.07-0.046,0.18-0.096,0.199C310.85,223.562,310.764,223.494,310.694,223.464z"/>
			<polygon fill="#201915" points="322.901,223.307 323.02,223.285 322.905,223.246 			"/>
			<path fill="#F3F0E9" d="M305.07,255.806c0.039-0.032,0.077-0.065,0.116-0.097c-0.032,0.04-0.064,0.08-0.096,0.12
				C305.091,255.829,305.07,255.806,305.07,255.806z"/>
			<path fill="#F3F0E9" d="M333.481,253.311c-0.034-0.019-0.067-0.037-0.101-0.056c0.032,0.02,0.063,0.041,0.095,0.061
				C333.476,253.316,333.481,253.311,333.481,253.311z"/>
			<path fill="#D1C9C1" d="M335.502,257.551c1.32-0.743,2.637,0.029,3.955,0.002c3.232-0.065,6.465-0.124,9.695-0.245
				c0.903-0.034,1.707-0.829,2.696-0.426c-0.015,0.611-0.831,0.81-0.754,1.467c-4.193,0.096-8.374,0.538-12.573,0.481
				c0.158-0.788,0.799-0.467,1.221-0.469c2.272-0.013,4.54-0.034,6.789-0.458c-1.99,0.032-3.975-0.194-5.972,0.097
				C338.857,258.248,337.168,257.927,335.502,257.551z"/>
			<path fill="#908671" d="M336.884,212.882c0.063,0.032,0.124,0.065,0.185,0.097c-0.066,0.027-0.132,0.076-0.197,0.073
				c-0.063-0.002-0.125-0.057-0.187-0.089C336.75,212.936,336.816,212.909,336.884,212.882z"/>
			<path fill="#908671" d="M337.67,213.207c0.079-0.033,0.15-0.088,0.218-0.084s0.133,0.068,0.199,0.105
				c-0.069,0.031-0.14,0.09-0.208,0.087C337.811,213.312,337.745,213.249,337.67,213.207z"/>
			<path fill="#FDD236" d="M342.196,284.517c0.046,0.246,0.093,0.491,0.139,0.736c-0.085,0.361-0.253,0.726-0.242,1.084
				c0.094,2.983-0.425,5.932-0.461,8.904c-0.028,2.28-0.495,4.544-0.226,6.832c-0.232,4.677-0.35,9.363-0.736,14.026
				c-0.264,3.183,0.562,6.587-1.589,9.47c-0.11,0.148-0.072,0.406-0.103,0.613c-0.135,0.003-0.27,0.006-0.405,0.009
				c-0.72-1.199-1.445-2.396-1.839-3.755c-0.011-1.092-0.022-2.183-0.033-3.275c0.61-6.368,0.795-12.76,1.068-19.147
				c0.168-3.924,0.322-7.85,0.505-11.773c0.092-1.977-0.109-5.55,1.826-6.655c0.234-0.134,1.213-0.27,1.404-0.502
				c0.436,0.157-0.047,2.118,0.059,2.4C341.414,284.048,341.519,284.458,342.196,284.517z"/>
			<path fill="#FDD236" d="M316.124,325.278c-0.786-1.496-0.918-3.107-0.828-4.755c0.308-5.68,0.166-11.367,0.261-17.05
				c0.078-4.68,0.14-9.36,0.197-14.041c0.02-1.61,0.173-3.166,1.29-4.463c0.135-0.157,0.088-0.472,0.125-0.713
				c0.512-0.551,0.932,0,1.389,0.114c0.037,0.371-0.034,0.801,0.129,1.105c0.789,1.471,0.748,3.055,0.726,4.639
				c-0.146,10.686-0.297,21.372-0.447,32.058c-0.02,1.421-0.37,2.726-1.348,3.809C316.895,326.224,316.785,325.165,316.124,325.278z
				"/>
			<path fill="#FDD236" d="M345.005,292.49c-0.037,3.341-0.074,6.682-0.111,10.023c-0.639,2.429-0.388,4.876-0.148,7.323
				c-0.042,4.006-0.084,8.011-0.124,12.017c-0.414,0.72-0.998,1.398-1.19,2.173c-0.152,0.614-1.117,0.427-0.9,1.178
				c-0.624-0.057-0.615-0.597-0.751-1.009c-0.471-1.424-0.298-2.898-0.293-4.354c0.023-5.93,0.428-11.855,0.228-17.788
				c0.224-0.179,0.229-0.432,0.225-0.684c-0.078-5.385,0.651-10.728,0.844-16.099c0.05-0.068,0.086-0.142,0.107-0.224
				c0.042-0.097,0.085-0.193,0.128-0.289c0.041-0.357,0.082-0.714,0.123-1.07c0.443-0.451,0.65,0.108,0.96,0.225
				c0.477,0.881,0.519,1.892,0.84,2.818C344.731,288.652,344.641,290.573,345.005,292.49z"/>
			<path fill="#FDD236" d="M334.983,319.694c1.026-0.193,0.996-0.987,0.973-1.752c-0.133-4.453-0.887-8.799-2.253-13.041
				c-0.139-0.433-0.285-0.889-0.29-1.336c-0.066-5.887-0.114-11.775-0.145-17.663c-0.003-0.593-0.11-1.329,0.816-1.43
				c-0.06,0.37-0.214,0.787,0.058,1.092c1.922,2.157,1.628,4.856,1.703,7.399c0.215,7.312,0.285,14.628,0.415,21.942
				c0.004,0.25,0.034,0.5,0.051,0.75c-0.041,0.081-0.038,0.161,0.008,0.24c0.003,1.088,0.007,2.176,0.01,3.264
				c-0.144,1.008-0.139,2.019-0.069,3.032c0.077,1.446-0.057,4.868-1.14,6.019c-1.727-0.079-1.607-2.079-1.59-3.858
				c0.002-0.208-0.006-0.416-0.009-0.623c0.518,0.029,0.758-0.264,1.037-0.683C335.273,321.975,334.883,320.813,334.983,319.694z"/>
			<path fill="#908671" d="M334.236,281.846c-0.311-0.184-0.776,0.036-1.072-0.502c0.886,0.07,1.125-1.099,2.065-0.898
				c0.426-0.674,0.841-0.605,1.249,0.018c1.238,0.107,2.474,0.275,3.626-0.429c0.482-0.295,0.873-0.022,1.17,0.367
				c0.293,0.383,0.244,0.684-0.267,0.82c-0.018-0.234,0.236-0.648-0.255-0.603c-0.627,0.057-1.307,0.045-1.956,0.632
				c0.86-0.026,1.546,0.202,2.23-0.05c-0.341,0.792-2.021,1.168-2.702,0.528c-0.436-0.41-0.513-0.773-1.064,0.009
				c-0.356,0.506-1.404,0.018-2.135,0.137c-0.194-0.204-0.402-0.194-0.621-0.042C334.416,281.838,334.326,281.842,334.236,281.846z
				 M336.953,281.075c-0.215-0.146-0.419-0.202-0.641,0.022C336.531,281.23,336.735,281.299,336.953,281.075z"/>
			<path fill="#D1C9C1" d="M316.124,325.278c0.661-0.112,0.771,0.946,1.494,0.703c0.009,0.961,0.018,1.923,0.027,2.885
				c0,0.205-0.001,0.41-0.001,0.614c-0.087,0.636,0.131,1.231,0.238,1.843c0.146,0.841,0.044,1.388-1.093,1.255
				c-0.497-0.058-0.61-0.098-0.666-0.565c-0.112-0.928,0.558-1.917-0.309-2.856c-0.117-0.127,0.281-1.414,0.31-2.187l0.019-0.019
				c0.292,0.073,0.562,0.375,0.987,0.042C316.581,326.525,315.86,326.155,316.124,325.278z"/>
			<path fill="#908671" d="M338.299,271.671c-0.758-0.223-1.38,0.342-2.113,0.384c-0.354,0.02-0.259,0.663-0.237,1.052l0.006,0.034
				c-0.166,0.028-0.166,0.141-0.138,0.269c-0.07,0.408-0.14,0.815-0.21,1.222c-0.144,0.143-0.109,0.248,0.069,0.322
				c0.025,0.081,0.05,0.162,0.074,0.243c-0.262,0.262-0.516,0.1-0.77-0.016c0.013-0.158,0.026-0.316,0.039-0.475
				c0.209-0.182,0.227-0.378,0.04-0.587c0.004-0.078-0.025-0.14-0.089-0.185c-0.071-0.269,0.297-0.952-0.502-0.531
				c-0.241,0.013-0.482,0.026-0.723,0.039c-0.089,0.054-0.177,0.108-0.266,0.162c-0.143,0.051-0.366,0.214-0.421,0.025
				c-0.205-0.706,0.518-1.641,1.23-1.649c0.799-0.008,0.799-0.008,0.909-0.795c1.04,0.211,0.597-1.455,1.613-1.274
				c0.021,0.164-0.124,0.519,0.22,0.373c0.319-0.136,0.56-0.457,0.872-0.728C338.279,270.268,338.195,270.988,338.299,271.671z"/>
			<path fill="#D1C9C1" d="M334.979,275.181c0.254,0.116,0.508,0.279,0.77,0.016c0.869,0.451,0.691,1.231,0.606,1.971
				c-0.074,0.645-0.49,1.352,0.379,1.795c-0.068,0.502,0.272,0.842,0.489,1.231c-0.27,0.031-0.575-0.037-0.745,0.27
				c-0.408-0.623-0.823-0.692-1.249-0.018C334.486,278.723,335.131,276.933,334.979,275.181z"/>
			<path fill="#D1C9C1" d="M338.753,329.244c0.883-1.242,2.325-0.617,3.455-1.035c0.277-0.017,0.553-0.035,0.86-0.054
				c-0.166-0.391-0.802-0.507-0.486-1.043c0.271-0.46,0.721-0.228,1.102-0.263c0.211,0.432-0.026,0.939,0.368,1.384
				c0.53,0.6-0.389,0.621-0.528,0.978c-0.172,0.086-0.185,0.184-0.023,0.296c-0.004,0.075,0.001,0.15,0.014,0.225
				c-0.005,0.08-0.005,0.16,0.001,0.241c-0.002,0.158-0.005,0.316-0.007,0.475c-0.416,0.114-0.833,0.228-1.25,0.342
				c0.074-1.99-1.111-1.928-2.515-1.569C339.432,329.3,339.084,329.24,338.753,329.244z"/>
			<path fill="#908671" d="M318.882,280.973c1.798,0.17,3.583-0.055,5.372-0.173c0.269,0.051,0.538,0.101,0.808,0.152
				c0.079-0.001,0.156,0.004,0.234,0.018c-0.007,0.19,0.188,0.566-0.006,0.539c-0.78-0.108-1.358,0.58-2.115,0.455
				c-0.23-0.209-0.48-0.184-0.737-0.062l0.014-0.051c-1.251-0.771-2.527-0.402-3.802-0.082c-0.082-0.182-0.133-0.388-0.252-0.54
				c-0.162-0.206-0.354-0.434-0.066-0.603C318.614,280.458,318.608,280.986,318.882,280.973z"/>
			<path fill="#908671" d="M317.645,329.48c0-0.205,0.001-0.41,0.001-0.614c0.248,0.031,0.497,0.063,0.745,0.094
				c0.435,0.084,0.864,0.087,1.282-0.084c0.67,0.035,1.354,0.247,1.989-0.16c0.947,0.197,1.802-0.416,2.739-0.313
				c0.279,0.103,0.558,0.206,0.836,0.309c0.063,0.427-0.407,0.476-0.542,0.762c-0.426-0.028-0.86-0.012-1.275-0.094
				c-0.511-0.102-0.77,0.04-0.777,0.573c-0.151,0.065-0.396,0.225-0.438,0.182C320.844,328.769,319.19,329.503,317.645,329.48z"/>
			<path fill="#D1C9C1" d="M325.238,328.712c-0.279-0.103-0.558-0.206-0.837-0.309c0.062-0.192,0.101-0.539,0.189-0.551
				c0.737-0.108,1.351-0.312,1.767-1.034c0.142-0.246,0.54-0.042,0.565,0.34c0.022,0.333,0.038,0.659,0.267,0.928
				c0.198,0.235,0.395,0.47,0.671,0.797c-0.362,0.054-0.956-0.407-0.917,0.347c0.237,0.525,1.195-0.168,1.217,0.719
				c-0.661,0.011-1.321,0.022-1.981,0.034C326.59,329.022,326.278,328.597,325.238,328.712z"/>
			<path fill="#D1C9C1" d="M333.979,329.979c-0.589-0.72,0.199-0.749,0.511-1.017c1.106-0.058,2.199,0.018,3.275,0.291
				c-0.088,0.072-0.176,0.145-0.263,0.217c-0.531,0.536-1.175,0.005-1.783,0.191c-0.65,0.198-0.875,0.373-0.551,1.007
				c0.131,0.257,0.26,0.537,0.289,0.817c0.032,0.309,0.429,0.837-0.214,0.879c-0.381,0.025-0.963-0.021-1.013-0.68
				C334.186,331.111,334.358,330.504,333.979,329.979z"/>
			<path fill="#908671" d="M344.105,283.911c-0.31-0.117-0.518-0.676-0.96-0.225c-0.051-0.804,0.317-1.855-1.103-1.854
				c-0.067,0-0.185-0.174-0.191-0.273c-0.012-0.191,0.126-0.263,0.317-0.272c0.45-0.021,0.899-0.059,1.349-0.091
				c0.096-0.001,0.193-0.002,0.289-0.003c0.542,0.007,0.977,0.25,1.644,0.666C344.023,282.116,344.397,283.181,344.105,283.911z"/>
			<path fill="#F3F0E9" d="M318.557,284.371c-0.457-0.115-0.877-0.666-1.389-0.115c-0.594-0.833-0.197-1.68-0.036-2.524
				c0.577-0.056,1.123-0.016,1.518,0.491C318.619,282.939,318.588,283.655,318.557,284.371z"/>
			<path fill="#D1C9C1" d="M342.533,325.204c-0.217-0.752,0.748-0.565,0.9-1.178c0.192-0.775,0.776-1.453,1.19-2.173
				c0.413,1.141-0.286,2.109-0.539,3.133c-0.128,0.518-0.312,1.029-0.401,1.562c-0.213-0.107-0.601-0.011-0.467-0.492
				c0.158-0.57-0.187-0.797-0.696-0.86L342.533,325.204z"/>
			<path fill="#908671" d="M324.599,279.46c0.289-1.128,0.566-2.26,0.872-3.384c0.19-0.697-0.436-0.867-0.893-1.301
				c1.12,0.037,1.252-0.559,1.103-1.347c0.321,0.542,0.424,1.149,0.512,1.759c-0.174-0.007-0.379,0.026-0.354,0.228
				c0.191,1.55-0.215,4.455-0.667,5.906C324.901,281.294,324.728,279.684,324.599,279.46z"/>
			<path fill="#D1C9C1" d="M343.804,281.193c-0.096,0.001-0.193,0.002-0.289,0.003c-0.846-0.636-0.396-1.622-0.611-2.428
				c-0.12-0.447,0.476-0.274,0.77-0.303c0.441-0.043,0.846-0.022,0.869,0.59C344.575,279.868,344.445,280.617,343.804,281.193z"/>
			<path fill="#D1C9C1" d="M318.65,282.223c-0.395-0.507-0.941-0.548-1.518-0.491c-0.277-0.342-0.75-0.684,0.003-1.023
				c0.082,0.065,0.164,0.13,0.246,0.194c0.028-0.043,0.055-0.085,0.083-0.128c-0.109-0.023-0.218-0.046-0.327-0.069
				c0.085-0.509-0.24-1.252,0.746-1.234c1.076,0.02,0.95,0.812,0.999,1.5c-0.274,0.013-0.268-0.515-0.552-0.348
				c-0.288,0.169-0.096,0.397,0.066,0.603c0.12,0.152,0.171,0.358,0.252,0.54C318.649,281.92,318.65,282.072,318.65,282.223z"/>
			<path fill="#D1C9C1" d="M322.644,329.954c0.007-0.534,0.266-0.675,0.777-0.573c0.415,0.083,0.849,0.066,1.275,0.094
				c0.211,0.02,0.444,0.057,0.46,0.312c0.054,0.91,0.477,0.285,0.771,0.195c-0.054,0.279-0.112,0.557-0.161,0.836
				c-0.098,0.561-0.452,0.784-0.969,0.626c-0.628-0.193-0.062-0.596-0.099-0.899c-0.019-0.152,0.039-0.314,0.081-0.592
				C324.031,329.954,323.338,329.954,322.644,329.954z"/>
			<path fill="#D1C9C1" d="M325.172,279.87c0.452-1.45,0.858-2.906,0.667-4.456c-0.025-0.202,0.18-0.235,0.354-0.228l-0.01-0.009
				c0.17,0.754,0.28,1.481,0.076,2.278c-0.21,0.817-0.202,1.689-0.289,2.538c0.064,0.826-0.526,1.289-0.798,1.328
				C325.15,281.176,325.194,280.015,325.172,279.87z"/>
			<path fill="#FDD236" d="M342.519,325.196c0.509,0.063,0.854,0.29,0.696,0.86c-0.134,0.481,0.254,0.386,0.467,0.492
				c0,0.101,0.001,0.201,0.002,0.301c-0.381,0.034-0.831-0.198-1.102,0.262c-0.316,0.536,0.32,0.652,0.486,1.043
				c-0.307,0.019-0.583,0.037-0.86,0.054C342.312,327.205,342.415,326.2,342.519,325.196z"/>
			<path fill="#F3F0E9" d="M325.927,329.982c-0.295,0.089-0.717,0.715-0.771-0.195c-0.015-0.255-0.248-0.292-0.46-0.312
				c0.135-0.287,0.605-0.335,0.542-0.762c1.04-0.115,1.352,0.31,0.942,1.27C326.095,329.982,326.011,329.982,325.927,329.982z"/>
			<path fill="#908671" d="M323.201,270.666c0.139,0.079,0.322,0.126,0.408,0.244c0.234,0.322,0.677,0.682,0.49,1.05
				c-0.206,0.405-0.717,0.111-1.097,0.088C323.068,271.587,323.135,271.127,323.201,270.666z"/>
			<path fill="#201915" d="M325.239,280.305c0.272-0.038,0.796,0.513,0.732-0.312c0.21-0.173,0.405-0.03,0.604,0.027l0.034,0.07
				c0.032,0.129,0.063,0.258,0.095,0.386c-0.083,0.098-0.166,0.196-0.249,0.294c-0.483-0.081-0.976-0.246-1.392,0.182
				c-0.269-0.051-0.538-0.101-0.807-0.152C324.582,280.635,324.91,280.47,325.239,280.305z"/>
			<path fill="#F3F0E9" d="M342.259,330.789c0.417-0.114,0.833-0.228,1.25-0.342C343.309,331.353,342.921,331.571,342.259,330.789z"
				/>
			<path fill="#F3F0E9" d="M335.127,281.875c-0.213,0.076-0.423,0.107-0.621-0.042"/>
			<path fill="#D1C9C1" d="M316.124,326.969c-0.033-0.042-0.067-0.083-0.1-0.125c0.04,0.035,0.079,0.07,0.119,0.105
				C316.143,326.95,316.124,326.969,316.124,326.969z"/>
			<path fill="#D1C9C1" d="M322.908,267.852c0.087,0.099,0.174,0.197,0.261,0.296C323.082,268.049,322.995,267.951,322.908,267.852z
				"/>
			<path fill="#D1C9C1" d="M343.021,284.757c-0.043,0.096-0.086,0.193-0.128,0.289C342.936,284.95,342.979,284.853,343.021,284.757z
				"/>
			<path fill="#F3F0E9" d="M343.516,329.972c-0.006-0.08-0.006-0.16-0.001-0.241C343.703,329.811,343.704,329.891,343.516,329.972z"
				/>
			<path fill="#F3F0E9" d="M343.501,329.507c-0.162-0.112-0.149-0.21,0.023-0.296C343.516,329.31,343.508,329.409,343.501,329.507z"
				/>
			<path fill="#F3F0E9" d="M336.319,315.894c-0.046-0.078-0.049-0.158-0.008-0.24c0.026,0.055,0.06,0.109,0.075,0.167
				C336.391,315.839,336.343,315.87,336.319,315.894z"/>
			<path fill="#FDD236" d="M330.278,293.312c-0.271,0.039-0.829-0.777-0.759,0.287c0.059,0.893,0.014,1.793,0.015,2.69
				c-0.023,0.371-0.047,0.742-0.07,1.112c-0.05,0.279-0.087,0.561-0.153,0.838c-0.359,1.521,0.743,2.692,0.968,4.073
				c-0.008,3.597-0.064,7.196-0.008,10.792c0.049,3.162-0.251,6.341,0.398,9.482c0.116,0.563,0.087,1.169-0.288,1.682
				c-0.348,0-0.647-0.101-0.844-0.411c0.214-0.366,0.121-0.747,0.055-1.126c-0.006-0.188-0.012-0.375-0.017-0.563
				c0.043-0.074,0.035-0.143-0.023-0.206c0.001-0.445,0.001-0.891,0.002-1.336c0.112-0.247,0.121-0.488-0.049-0.716
				c0-5.81,0-11.619,0-17.429c-0.613,2.882-0.496,5.801-0.69,8.699c-0.028,0.722-0.056,1.444-0.084,2.166
				c-0.206,2.405-0.33,4.798-0.155,7.225c0.096,1.33-0.149,2.777-0.902,3.995c-0.638,1.031-0.601,3.233-1.317,2.252
				c-0.559-0.766-1.434-3.84-1.441-4.792c-0.027-3.808,0.34-7.597,0.481-11.396c0.234-6.307,0.341-12.62,0.609-18.926
				c0.092-2.161-0.014-4.354,0.552-6.48c0.051-0.06,0.096-0.126,0.134-0.196c0.431-0.431,0.862-0.862,1.293-1.293
				c0.239-0.304,0.13-0.676,0.197-1.013l0.008-0.016c0.493-0.113,0.641,0.337,0.925,0.566c0.118,0.245,0.236,0.489,0.354,0.734
				c0.137,0.335,0.273,0.669,0.409,1.004c0.043,0.244,0.086,0.488,0.13,0.732c-0.025,0.086-0.013,0.166,0.037,0.24
				c0.015,0.513,0.03,1.025,0.045,1.538c-0.035,0.747-0.302,1.513,0.192,2.214c0.004,0.767,0.007,1.535,0.011,2.302
				c0.003,0.159,0.006,0.317,0.009,0.476C330.295,292.777,330.287,293.045,330.278,293.312z"/>
			<path fill="#D1C9C1" d="M329.464,297.402c0.023-0.371,0.047-0.742,0.07-1.113c0.808,0.418,0.646,1.287,0.858,1.955
				c1.333,4.204,2.796,8.375,3.648,12.715c0.51,2.597,0.94,5.211,0.786,7.881c-0.016,0.28,0.102,0.568,0.157,0.853
				c-0.101,1.119,0.29,2.281-0.424,3.351c-0.279,0.419-0.519,0.712-1.037,0.683c-0.257-0.329,0.459-0.485,0.147-0.824
				c0.485-1.036,0.256-2.157,0.382-3.236c0.061-0.191,0.191-0.389,0.173-0.573c-0.216-2.198-0.453-4.393-0.693-6.661
				c-0.488,0.395-0.277,0.843-0.305,1.23c-0.13,1.796,0.406,3.541,0.428,5.326c-0.459,1.028-0.061,2.114-0.215,3.163
				c-0.487,0.509-0.011,1.223-0.455,1.934c0-3.989-0.022-7.805,0.01-11.62c0.015-1.755-0.15-3.465-0.792-5.111
				c-0.192-1.845-0.932-3.532-1.506-5.267C330.342,300.512,329.524,299.057,329.464,297.402z"/>
			<path fill="#D1C9C1" d="M327.473,256.103c0.284-0.659,0.621-1.051,1.151-0.192c0.283,0.458,0.677,0.6,1.199,0.743
				c0.59,0.161,1.326-0.028,1.791,0.659c0.258,0.38,0.669,0.161,0.895-0.219c0.086-0.145,0.014-0.506,0.331-0.313
				c0.113,0.069,0.082,0.376,0.116,0.575c-0.412,0.535-0.372,1.971-1.673,0.664c-0.315-0.317-1.379-0.038-2.099-0.146
				c-0.323-0.049-0.67-0.764-1.03,0.065c-0.132,0.304-0.617,0.2-0.682-0.268c-0.051-0.365-0.027-0.741-0.036-1.112
				c0,0-0.011,0.029-0.011,0.028C327.618,256.442,327.7,256.288,327.473,256.103z"/>
			<path fill="#D1C9C1" d="M326.193,275.186c-0.088-0.61-0.19-1.217-0.512-1.759l-0.001-0.005c-0.034-0.267,0.087-0.587-0.255-0.75
				v0.002c0.005-0.168,0.01-0.335,0.016-0.503c0.195-0.044,0.528-0.089,0.39-0.334c-0.736-1.31,0.282-1.527,1.317-2.009
				c-0.602,1.282-1.214,2.483,0.556,3.068c-0.373,0.108-0.861,0.141-0.472,0.736c-0.581,0.385-0.082,1.108-0.486,1.549
				c-0.188-0.001-0.375-0.003-0.563-0.004L326.193,275.186z"/>
			<path fill="#D1C9C1" d="M330.723,281.229c-0.015,0.825-1.355,1.037-0.773,2.157c-0.63-0.313,0.114-0.884-0.508-1.056
				c-0.443,0.17-0.174,0.637-0.324,0.94c-0.284-0.229-0.433-0.678-0.925-0.565c-0.003-0.569-0.006-1.138-0.009-1.707
				c0.071-0.031,0.145-0.045,0.223-0.043c0.24,0.002,0.48,0.004,0.72,0.006C329.658,281.05,330.191,281.14,330.723,281.229z"/>
			<path fill="#D1C9C1" d="M319.804,257.978c0.336-0.461,0.697-0.683,1.348-0.553c0.523,0.105,1.151-0.005,1.658-0.206
				c0.801-0.319,1.57-0.334,2.374-0.126c0.021,0.29,0.038,0.765-0.288,0.698C323.173,257.436,321.521,258.614,319.804,257.978z"/>
			<path fill="#D1C9C1" d="M332.792,301.555c0-4.326,0-8.653,0-12.979c0.031,0,0.062-0.001,0.093-0.001c0,4.326,0,8.653,0,12.979
				C332.854,301.554,332.823,301.555,332.792,301.555z"/>
			<path fill="#D1C9C1" d="M328.762,273.151c0.344-0.008,0.662,0.067,0.896,0.339c0.334,0.389,0.92,0.654,0.719,1.322
				c-0.068,0.225-0.147,0.572-0.437,0.52c-0.582-0.104-1.092-0.37-1.236-1.034C328.723,273.916,328.743,273.534,328.762,273.151z"/>
			<path fill="#908671" d="M326.183,275.177c0.188,0.001,0.375,0.003,0.563,0.004c-0.057,1.613-0.114,3.225-0.171,4.838
				c-0.199-0.057-0.395,1.129-0.604,1.302c0.087-0.848,0.079-3.05,0.289-3.867C326.464,276.658,326.353,275.931,326.183,275.177z"/>
			<path fill="#908671" d="M330.723,281.229c-0.532-0.089-1.065-0.179-1.598-0.268c0.232-0.501,0.673-0.534,1.145-0.531
				c1.092,0.008,4.308,0.02,5.405,0.163c-0.734,0.628-3.774,0.243-4.544,0.565C330.995,281.181,330.859,281.205,330.723,281.229z"/>
			<path fill="#D1C9C1" d="M335.045,267.397c-0.582-1.529-0.027-3.118-0.241-4.667c0.628,1.525,0.335,3.12,0.356,4.69
				L335.045,267.397z"/>
			<path fill="#D1C9C1" d="M325.461,256.358c0.142-0.756,0.705-0.864,1.451-0.988c-0.183,0.747-0.333,1.358-0.482,1.97
				C325.581,257.53,325.784,256.685,325.461,256.358z"/>
			<path fill="#908671" d="M328.762,273.151c-0.02,0.382-0.039,0.764-0.059,1.147c-0.524-0.147-0.882-0.662-1.472-0.666
				c-0.389-0.596,0.099-0.629,0.472-0.736C328.07,272.924,328.457,272.87,328.762,273.151z"/>
			<path fill="#908671" d="M328.405,280.955c-0.077-0.002-0.152,0.012-0.223,0.043c-0.493-0.174-1.683,0.005-2.176-0.169
				c-0.032-0.129,0.634-0.611,0.602-0.739C327.318,280.148,328.434,279.363,328.405,280.955z"/>
			<path fill="#D1C9C1" d="M316.643,257.858c0.333-0.892,0.664-0.537,0.995,0.002C317.305,258.208,316.974,258.215,316.643,257.858z
				"/>
			<path fill="#908671" d="M325.441,272.171c-0.005,0.168-0.01,0.335-0.016,0.503c-0.595-0.149-0.638-0.653-0.81-1.193
				C325.142,271.521,325.126,272.043,325.441,272.171z"/>
			<path fill="#D1C9C1" d="M333.478,273.604c0.089-0.054,0.177-0.108,0.266-0.162c0.084,0.228,0.246,0.376,0.473,0.455l0.042,0.061
				c-0.134,0.199-0.29,0.443-0.547,0.364C333.36,274.213,333.514,273.86,333.478,273.604z"/>
			<path fill="#D1C9C1" d="M334.467,273.403c0.799-0.42,0.432,0.263,0.502,0.531c-0.237,0.008-0.474,0.015-0.71,0.023
				c0,0-0.042-0.061-0.042-0.06C334.179,273.672,334.777,273.766,334.467,273.403z"/>
			<path fill="#908671" d="M325.425,272.673c0.342,0.163,0.221,0.482,0.255,0.75C325.419,273.232,325.372,272.969,325.425,272.673z"
				/>
			<path fill="#D1C9C1" d="M335.058,274.119c0.188,0.209,0.169,0.405-0.04,0.587C335.031,274.511,335.044,274.315,335.058,274.119z"
				/>
			<path fill="#D1C9C1" d="M324.885,254.129c0.14-0.238,0.325-0.46,0.273-0.766c0.454-0.081,0.916-0.214,1.308,0.173
				c-0.41,0.339-0.229,0.466,0.183,0.51C326.108,255.072,325.473,254.1,324.885,254.129z"/>
			<path fill="#D1C9C1" d="M333.847,256.621c0.13-0.284,0.389-0.416,0.671-0.396c0.167,0.012,0.473,0.244,0.458,0.289
				c-0.112,0.326-0.363,0.534-0.731,0.504C334.029,257,333.892,256.855,333.847,256.621z"/>
			<path fill="#F3F0E9" d="M326.649,254.046c-0.412-0.044-0.593-0.171-0.183-0.51C326.691,253.647,326.692,253.839,326.649,254.046z
				"/>
			<path fill="#D1C9C1" d="M319.911,253.46c-0.149,0.334-0.318,0.394-0.518,0.038C319.55,253.278,319.724,253.281,319.911,253.46z"
				/>
			<path fill="#F3F0E9" d="M327.473,256.103c0.227,0.185,0.145,0.339-0.048,0.483C327.441,256.424,327.457,256.264,327.473,256.103z
				"/>
			<path fill="#D1C9C1" d="M328.469,218.595c-0.272,0-0.544,0-0.915,0C327.917,218.272,328.206,218.346,328.469,218.595z"/>
			<path fill="#D1C9C1" d="M328.197,235.981c0.675-0.502,1.401-0.254,2.119-0.146C329.655,236.537,328.936,236.405,328.197,235.981z
				"/>
			<path fill="#D1C9C1" d="M322.305,243.093c0.146,0.11,0.292,0.22,0.439,0.33c-2.104,0.068-4.196,0.407-6.312,0.253
				C318.347,243.057,320.355,243.358,322.305,243.093z"/>
			<path fill="#D1C9C1" d="M329.941,227.929c0.173,0.019,0.345,0.038,0.518,0.057c-0.171,0.188-0.371,0.167-0.58,0.08
				C329.914,228.027,329.935,227.982,329.941,227.929z"/>
			<path fill="#908671" d="M329.941,227.929c-0.006,0.052-0.027,0.098-0.063,0.137c-0.085,0.011-0.146-0.019-0.184-0.088
				C329.777,227.961,329.859,227.945,329.941,227.929z"/>
			<path fill="#D1C9C1" d="M332.727,249.603c0.245,0.065,0.257,0.279,0.268,0.472c0.012,0.209-0.039,0.447-0.312,0.374
				c-0.223-0.06-0.214-0.317-0.206-0.513C332.482,249.788,332.491,249.605,332.727,249.603z"/>
			<path fill="#D1C9C1" d="M327.432,220.151c0.09,0.004,0.179,0.009,0.269,0.013c-0.02,0.06-0.04,0.12-0.061,0.181
				c-0.063-0.073-0.127-0.145-0.19-0.218L327.432,220.151z"/>
			<path fill="#D1C9C1" d="M338.26,327.203c0.05-0.354-0.093-0.768,0.313-1.012c0.135-0.003,0.27-0.006,0.405-0.008
				C338.93,326.658,338.845,327.107,338.26,327.203z"/>
			<path fill="#908671" d="M328.447,328.216c0.164-0.009,0.328-0.019,0.492-0.028c0.518,0.023,1.051,0.164,1.526-0.178
				c0.142,0.016,0.284,0.031,0.426,0.047c0.112,0.04,0.224,0.08,0.336,0.12c1.155-0.161,2.459,0.454,3.43-0.661
				c0.043,0.308-0.039,0.737,0.463,0.694c1.046-0.091,2.128,0.28,3.142-0.236c0.145,0.02,0.29,0.04,0.434,0.06
				c-0.251,0.452,0.092,1.358-0.931,1.219c-1.076-0.273-2.17-0.349-3.275-0.291c-0.987,0.01-2.01-0.279-2.924,0.36
				c-0.092,0.064-0.275,0.127-0.34,0.082c-1.394-0.976-2.868,0.144-4.282-0.174c-0.039-0.754,0.555-0.293,0.917-0.347
				c-0.275-0.327-0.473-0.562-0.671-0.797c0.331,0.049,0.662,0.099,0.993,0.148C328.285,328.435,328.373,328.439,328.447,328.216z"
				/>
			<path fill="#D1C9C1" d="M338.697,328.033c-0.145-0.02-0.29-0.04-0.434-0.06c-0.006-0.096-0.012-0.192-0.018-0.288
				C338.467,327.708,338.686,327.736,338.697,328.033z"/>
			<path fill="#F3F0E9" d="M334.467,273.403c0.311,0.363-0.287,0.269-0.249,0.494c-0.228-0.079-0.389-0.227-0.474-0.455
				C333.985,273.429,334.226,273.416,334.467,273.403z"/>
			<path fill="#D1C9C1" d="M335.606,274.633c0.023,0.107,0.046,0.215,0.069,0.322C335.497,274.88,335.462,274.776,335.606,274.633z"
				/>
			<path fill="#F3F0E9" d="M335.955,273.142c-0.046,0.09-0.092,0.179-0.138,0.269C335.788,273.283,335.789,273.169,335.955,273.142z
				"/>
			<path fill="#D1C9C1" d="M325.837,282.719c-0.426-0.507,0.21-1.343-0.541-1.75c-0.078-0.013-0.156-0.019-0.234-0.018
				c0.416-0.428,0.91-0.264,1.392-0.182c-0.002,0.814-0.004,1.628-0.006,2.442C326.235,283.06,326.21,282.674,325.837,282.719z"/>
			<path fill="#FEFEFE" d="M323.174,281.964c-0.274,0.321-0.525,0.364-0.737-0.061C322.695,281.779,322.944,281.754,323.174,281.964
				z"/>
			<path fill="#D1C9C1" d="M318.391,328.96c0.406-0.353,0.838-0.311,1.282-0.083C319.255,329.047,318.826,329.043,318.391,328.96z"
				/>
			<path fill="#908671" d="M317.137,280.707c0.109,0.023,0.218,0.046,0.327,0.069c-0.028,0.043-0.055,0.085-0.083,0.128
				c-0.082-0.065-0.164-0.13-0.246-0.194C317.135,280.709,317.137,280.707,317.137,280.707z"/>
			<path fill="#908671" d="M330.382,324.268c0.228,0.628,0.803,0.599,1.313,0.694c-1.573,0.703-2.348,0.198-2.69-1.751
				c0.046,0.015,0.093,0.029,0.14,0.043c0.004,0.069,0.026,0.132,0.066,0.189c0.109,0.138,0.218,0.276,0.327,0.414
				C329.735,324.167,330.034,324.268,330.382,324.268z"/>
			<path fill="#908671" d="M326.448,283.212c0.082,0.605,0.164,1.209,0.246,1.815c-0.039,0.071-0.084,0.136-0.134,0.197
				c-0.697-0.703-0.352-1.707-0.723-2.504C326.21,282.674,326.235,283.06,326.448,283.212z"/>
			<path fill="#D1C9C1" d="M328.817,311.18c0.157,0.73,0.251,1.457-0.084,2.167C328.761,312.623,328.789,311.901,328.817,311.18z"/>
			<path fill="#D1C9C1" d="M329.471,284.004c0.657,0.123,0.44,0.602,0.41,1.004C329.744,284.673,329.607,284.338,329.471,284.004z"
				/>
			<path fill="#D1C9C1" d="M329.538,323.856c-0.109-0.138-0.218-0.276-0.327-0.414c0.328-0.13,0.188-0.512,0.383-0.713
				C329.66,323.11,329.753,323.49,329.538,323.856z"/>
			<path fill="#D1C9C1" d="M327.987,283.734c-0.028-0.356-0.136-0.728,0.197-1.013C328.117,283.058,328.226,283.43,327.987,283.734z
				"/>
			<path fill="#D1C9C1" d="M329.555,320.625c-0.016-0.239-0.033-0.478-0.049-0.717C329.676,320.137,329.668,320.378,329.555,320.625
				z"/>
			<path fill="#F3F0E9" d="M330.294,292.034c0.186,0.155,0.188,0.314,0.009,0.476C330.3,292.351,330.297,292.193,330.294,292.034z"
				/>
			<path fill="#F3F0E9" d="M330.01,285.74c0.034,0.053,0.074,0.103,0.097,0.161c0.006,0.016-0.039,0.052-0.06,0.079
				C329.997,285.905,329.985,285.826,330.01,285.74z"/>
			<path fill="#D1C9C1" d="M329.576,322.167c-0.073-0.062-0.08-0.131-0.023-0.206C329.611,322.024,329.619,322.093,329.576,322.167z
				"/>
			<path fill="#FDD236" d="M333.654,318.991c0.132,0.226,0.264,0.451,0.397,0.677c-0.125,1.079,0.103,2.2-0.382,3.236
				c-0.289-0.185-0.107-0.514-0.23-0.75C333.592,321.105,333.195,320.019,333.654,318.991z"/>
			<path fill="#FDD236" d="M322.503,281.321c0.222,0.244,0.411,0.452,0.672,0.643c1.498,1.096,1.65,6.663,1.607,8.445
				c-0.109,4.47-0.174,8.941-0.262,13.412c-0.107,5.514-0.211,11.027-0.336,16.54c-0.024,1.085-0.092,2.173-0.218,3.25
				c-0.186,1.588-0.707,4.851-2.304,5.6c-0.007-0.18-0.412-0.203-0.592-0.277c-1.207-1.448-0.814-5.14-0.672-6.85
				c0.226-2.709,0.25-5.421,0.306-8.134c0.14-6.761,0.289-13.522,0.423-20.283c0.017-0.834,0.033-1.678-0.064-2.503
				C320.818,289.078,321.299,283.118,322.503,281.321z"/>
			<path fill="#D1C9C1" d="M330.466,328.01c-0.476,0.341-1.008,0.2-1.526,0.178C329.372,327.476,329.828,326.958,330.466,328.01z"/>
			<path fill="#D1C9C1" d="M329.145,323.253c-0.047-0.014-0.094-0.028-0.14-0.043c-0.426-0.308-0.271-0.682-0.2-1.133
				C329.327,322.435,329.179,322.858,329.145,323.253z"/>
			<path fill="#D1C9C1" d="M331.228,328.177c-0.112-0.04-0.224-0.08-0.336-0.12C331.003,328.097,331.116,328.137,331.228,328.177z"
				/>
			<path fill="#D1C9C1" d="M328.447,328.216c-0.074,0.223-0.163,0.218-0.264,0.017C328.271,328.228,328.359,328.222,328.447,328.216
				z"/>
		</g>
		<path fill="#B98F35" d="M317.618,325.98c0,0-2.563-33.169-0.766-38.463C316.853,287.518,314.495,326.119,317.618,325.98z"/>
		<polygon fill="#B98F35" points="321.662,324.961 321.779,289.913 322.305,324.236 		"/>
		<path fill="#B98F35" d="M328.131,284.885c0,0-1.055,1.661-1.042,13.146l-0.285,21.316L328.131,284.885z"/>
		<path fill="#E2E8F1" d="M302.281,331.855c0,0-34.963-1.181-12.651-47.201l7.394-23.368
			C297.024,261.286,269.945,332.638,302.281,331.855z"/>
		<path fill="#E2E8F1" d="M370,279.069l-4.518,1.78c39,39.979,1.719,52.254,7.662,49.453
			C391.38,321.791,382.918,291.372,370,279.069z"/>
	</g>
	<g id="Layer_1_1_">
		<g>
			<path fill="#6C2A52" d="M330.277,0.388c-0.119,1.851,0.251,3.758-0.373,5.552c-0.162,0.464,0.006,0.857,0.187,1.264
				c1.93,4.351,1.613,8.751,0.087,13.132c-0.274,0.787-0.496,1.531-0.451,2.396c0.043,0.837,0.209,1.704,0.102,2.506
				c-0.741,5.563,1.672,10.648,1.348,16.136c-0.042,0.707,0.102,1.571-0.153,2.095c-1.415,2.908-0.786,6.058-0.758,9.141
				c0.006,0.646,0.075,1.331-0.056,1.932c-0.691,3.158-0.144,6.247,0.212,9.351c0.007,0.064,0.032,0.13,0.025,0.19
				c-0.633,6.058,0.301,12.198-0.414,18.199c-0.242,2.03,1.096,3.654,0.264,5.535c1.893,2.282,0.985,5.296,1.116,8.002
				c0.073,1.495-0.678,2.908-0.543,4.53c0.089,1.07,0.352,1.811,1.019,2.393c5.074,4.431,5.289,13.265,0.314,17.801
				c-1.378,1.256-1.33,5.493-0.351,7.243c0.911,1.63,1.913,2.192,3.355,2.349c1.28,0.138,2.025,1.294,2.108,3.16
				c0.148,3.349,0.416,6.689,0.579,10.037c0.064,1.308,0.458,2.051,1.467,2.181c0.774,0.1,1.542,0.301,2.316,0.37
				c1.555,0.138,2.363,1.214,2.562,3.253c0.399,4.097,0.851,8.185,1.256,12.28c0.152,1.535,0.238,3.082,0.348,4.624
				c0.086,1.203,0.435,2.171,1.127,3.031c3.193,3.969-12.794,20.737-9.923,25.18c5.17,8.001,28.974,3.48,32.076,13.228
				c1.024,3.218,1.998,6.455,2.851,9.755c0.24,0.929,0.751,1.473,1.224,2.113c1.965,2.658,1.798,5.736-0.437,7.925
				c-2.912,2.851-6.359,3.854-9.795,4.737c-12.158,3.122-24.462,3.423-36.79,3.168c-1.396-0.029-2.791-0.073-4.185-0.132
				c-8.286-0.354-16.538-1.27-24.737-2.992c-3.903-0.82-7.74-2.013-11.365-4.196c-1.043-0.629-1.941-1.445-2.518-2.819
				c-0.62-1.479-0.643-3.099,0.267-4.119c1.932-2.169,2.438-5.21,3.216-8.094c2.719-10.078,30.789-9.816,35.929-18.071
				c3.577-5.744-16.728-20.534-12.337-25.193c1.092-1.159,1.577-2.532,1.735-4.44c0.468-5.646,1.145-11.262,1.75-16.888
				c0.174-1.615,1.035-2.12,2.119-2.487c1.115-0.378,2.517,0.33,3.321-0.973c0.723-1.173,0.321-2.877,0.458-4.337
				c0.209-2.238,0.188-4.515,0.414-6.749c0.288-2.845,0.892-3.702,3.007-3.695c1.764,0.005,2.316-1.826,2.94-3.17
				c0.708-1.526-0.262-4.608-1.444-5.494c-4.07-3.051-5.093-8.148-4.183-12.411c0.557-2.607,1.611-4.756,3.44-5.983
				c1.226-0.823,1.655-1.905,1.547-3.675c-0.153-2.508-0.157-5.032-0.227-7.549c-0.125-4.469,0.403-8.911,0.509-13.369
				c0.1-4.209,0.398-8.342-0.15-12.533c-0.128-0.975-0.033-2.144,0.265-3.047c0.993-3.018,0.832-6.144,0.764-9.291
				c-0.04-1.869-0.077-3.747,0.28-5.592c0.149-0.771,0.044-1.537-0.216-2.265c-1.054-2.947-1.195-6.121-0.463-9.084
				c0.805-3.257,0.694-6.486,0.681-9.764c-0.011-2.753,0.01-5.421-0.867-8.123c-0.973-2.997-0.952-6.302,0.024-9.449
				c0.459-1.479,0.013-2.933-0.095-4.391c-0.109-1.474-0.296-2.939-0.449-4.407C327.159,0.388,328.718,0.388,330.277,0.388z
				 M327.284,115.643c0.058-3.511-1.296-6.505-1.211-9.856c0.031-1.219-0.654-0.732-1.135-0.378
				c-3.085,2.272-3.425,8.388-0.667,11.749c0.698,0.851,1.426,1.301,2.37,0.797C327.594,117.446,327.144,116.311,327.284,115.643z
				 M333.709,111.767c-0.105-2.668-0.936-4.762-2.586-6.223c-0.804-0.712-2.18,0.17-2.125,1.405c0.136,3.02,0.357,6.033,0.573,9.045
				c0.056,0.783,0.234,1.539,0.931,1.774c0.599,0.202,1.015-0.204,1.423-0.707C333.098,115.615,333.609,113.794,333.709,111.767z
				 M328.973,18.884c1.181-2.875,1.421-5.829,0.745-8.88c-0.084-0.378-0.031-1.042-0.553-0.9c-0.368,0.101-0.55,0.558-0.533,1.037
				C328.733,13.056,328.857,15.97,328.973,18.884z M329.315,34.685c-0.544,2.869,0.373,5.169-0.079,7.847
				c-0.185-2.367-0.34-4.353-0.495-6.34c-0.184,2.518-0.189,5.022-0.18,7.526c0.002,0.444-0.009,1.022,0.389,1.137
				c0.558,0.161,0.552-0.562,0.672-1.003C330.418,40.94,330.183,38.075,329.315,34.685z"/>
		</g>
		<path fill="#51203E" d="M323.499,232.219c0,0-32.249-0.469-37.499-7.969c0,0,3.459-0.531,3.979-8.25
			c0.521-7.719,10.271-7.75,10.271-7.75s13.957-3.591,18.801-4.5c4.125-0.774-9.051,7.235-16.301,9.25s-7,7-7.25,9.5
			S302.998,227.938,323.499,232.219z"/>
		<path fill="#A77F97" d="M365.97,218.595c0,0-37.976,12.281-66.171,1.213c0,0,9.967,14.999,67.059,2.121
			C366.859,221.928,371.67,220.168,365.97,218.595z"/>
		<path fill="#A77F97" d="M328.742,193c0,0-0.71,19.5-21.18,20.5c0,0,31.924,3.75,43.361-2.25
			C350.922,211.25,331.511,213.25,328.742,193z"/>
		<path fill="#51203E" d="M322.807,143.231c0,0-3.598,5.816-7.25,5.507c0,0,0.717,20.292-3.819,19.782l4.536,0.511
			c0,0,2.167-16.081,4.857-17.647C321.131,151.384,321.009,147.866,322.807,143.231z"/>
		<path fill="#A77F97" d="M345.227,169.943c0,0-27.724,3.443-32.476,0C312.751,169.943,326.204,172.136,345.227,169.943z"/>
		<path fill="#A77F97" d="M325.184,145.482c0,0,3.661,0.775,11.041-0.248l-0.079,1.108
			C336.146,146.342,330.42,148.073,325.184,145.482z"/>
		<path fill="#A77F97" d="M327.442,146.163c0,0,2.645,25.444-3.163,25.223l7.108-0.204c0,0-3.393-2.689-1.904-25.019H327.442z"/>
		<path fill="#A77F97" d="M322.052,131.528c0,0,5-2,13.875,0C335.927,131.528,328.052,132.778,322.052,131.528z"/>
		<path fill="#A77F97" d="M332.762,131.838c0,0,1.764-0.14,1.251,13.662c0,0,2.663-12.046,0.513-13.802L332.762,131.838z"/>
		<path fill="#A77F97" d="M328.989,120c0,0,9.035-2.833,3.773-14.5C332.762,105.5,339.812,116,328.989,120z"/>
		<path fill="#A77F97" d="M328.232,99.5c0,0,3.994-4.695,0.908-11C326.055,82.195,332.066,96.071,328.232,99.5z"/>
		<path fill="#A77F97" d="M328.962,88.121c0,0,0.827-5.354-0.248-10.521c-1.075-5.167,0.552-12.833,0.552-12.833
			s0.041-7.833-0.459-9.833c0,0,0.081,7.833-0.459,9.167c-0.541,1.333-1.449,13.167-0.541,13.333
			c0.908,0.167,0.537,10.688,0.537,10.688"/>
		<path fill="#51203E" d="M320.935,143.31c-0.072-0.11-1.372-6.368,1.116-9.685c1.698-2.264,5.986,0.811,7.215,0.125
			s0.949,4.127-4.199,1.575C319.921,132.773,323.417,147.088,320.935,143.31z"/>
		<path fill="#51203E" d="M333.709,196.545c0,0,4.603-16.397,11.836-22.75c0,0-1.19-7.822-9.412,6.834
			C336.133,180.629,332.733,189.748,333.709,196.545z"/>
		<path fill="#51203E" d="M326.044,194.544c0,0-4.362-10.572-9.687-14.238c0,0,0.177-5.31,6.816,3.815
			C323.172,184.121,326.158,189.934,326.044,194.544z"/>
		<path fill="#A77F97" d="M319.032,168.099c0,0,3.026,0.822,9.247,0.315l-0.118,0.923
			C328.161,169.338,323.289,170.514,319.032,168.099z"/>
		<path fill="#A77F97" d="M321.175,169.667c0,0,2.332,0.581,7.093,0.092l-0.076,0.709
			C328.192,170.469,324.477,171.449,321.175,169.667z"/>
		<path fill="#A77F97" d="M348.153,208.647c0,0-3.026,0.822-9.247,0.315l0.118,0.923
			C339.023,209.885,343.895,211.062,348.153,208.647z"/>
		<path fill="#A77F97" d="M346.009,210.215c0,0-2.332,0.581-7.093,0.092l0.076,0.709
			C338.992,211.017,342.707,211.997,346.009,210.215z"/>
		<path fill="#A77F97" d="M342.009,206.009c0,0-3.026,0.822-9.247,0.315l0.118,0.923
			C332.88,207.247,337.752,208.423,342.009,206.009z"/>
		<path fill="#A77F97" d="M339.866,207.577c0,0-2.332,0.581-7.093,0.092l0.076,0.709
			C332.849,208.378,336.564,209.359,339.866,207.577z"/>
		<path fill="#A77F97" d="M339.988,204.689c0,0-3.026,0.822-9.247,0.315l0.118,0.923
			C330.859,205.928,335.731,207.104,339.988,204.689z"/>
		<path fill="#A77F97" d="M337.845,206.257c0,0-2.332,0.581-7.093,0.092l0.076,0.709
			C330.828,207.059,334.543,208.039,337.845,206.257z"/>
		<path fill="#A77F97" d="M338.156,202.509c0,0-3.026,0.822-9.247,0.315l0.118,0.923
			C329.027,203.748,333.899,204.924,338.156,202.509z"/>
		<path fill="#A77F97" d="M336.013,204.077c0,0-2.332,0.581-7.093,0.092l0.076,0.709
			C328.996,204.879,332.711,205.859,336.013,204.077z"/>
		<path fill="#A77F97" d="M337.091,200.633c0,0-3.026,0.822-9.247,0.315l0.118,0.923
			C327.961,201.872,332.833,203.048,337.091,200.633z"/>
		<path fill="#A77F97" d="M334.947,202.201c0,0-2.332,0.581-7.093,0.092l0.076,0.709
			C327.93,203.003,331.645,203.983,334.947,202.201z"/>
		<path fill="#A77F97" d="M337.091,166.223c0,0-3.026,0.822-9.247,0.315l0.118,0.923
			C327.961,167.462,332.833,168.638,337.091,166.223z"/>
		<path fill="#A77F97" d="M334.947,167.791c0,0-2.332,0.581-7.093,0.092l0.076,0.709
			C327.93,168.593,331.645,169.573,334.947,167.791z"/>
		<path fill="#A77F97" d="M334.947,164.482c0,0-2.332,0.581-7.093,0.092l0.076,0.709
			C327.93,165.284,331.645,166.264,334.947,164.482z"/>
		<path fill="#A77F97" d="M325.139,163.83c0,0,1.016,0.253,3.09,0.04l-0.033,0.309C328.196,164.179,326.577,164.606,325.139,163.83z
			"/>
		<path fill="#A77F97" d="M325.204,163.364c0,0,1.016,0.253,3.09,0.04l-0.033,0.309C328.26,163.713,326.642,164.14,325.204,163.364z
			"/>
		<path fill="#A77F97" d="M325.45,162.629c0,0,1.001,0.39,3.119-0.234L328.504,163C328.504,163,326.825,163.996,325.45,162.629z"/>
		<path fill="#A77F97" d="M325.562,161.714c0,0,1.001,0.39,3.119-0.234l-0.065,0.606
			C328.617,162.085,326.938,163.081,325.562,161.714z"/>
		<path fill="#A77F97" d="M331.107,138.364c0,0,1.016,0.253,3.09,0.04l-0.033,0.309C334.163,138.713,332.545,139.14,331.107,138.364
			z"/>
		<path fill="#A77F97" d="M331.171,137.898c0,0,1.016,0.253,3.09,0.04l-0.033,0.309C334.228,138.247,332.61,138.674,331.171,137.898
			z"/>
		<path fill="#A77F97" d="M325.45,147.388c0,0,1.001,0.39,3.119-0.234l-0.065,0.606C328.504,147.759,326.825,148.755,325.45,147.388
			z"/>
		<path fill="#A77F97" d="M356.617,218.595c0,0,3.026,0.822,9.247,0.315l-0.118,0.923
			C365.746,219.833,360.874,221.01,356.617,218.595z"/>
	</g>
</g>
</svg>
