<?xml version="1.0" encoding="utf-8"?>
<!-- Generator: Adobe Illustrator 17.0.0, SVG Export Plug-In . SVG Version: 6.00 Build 0)  -->
<!DOCTYPE svg PUBLIC "-//W3C//DTD SVG 1.1//EN" "http://www.w3.org/Graphics/SVG/1.1/DTD/svg11.dtd">
<svg version="1.1" xmlns="http://www.w3.org/2000/svg" xmlns:xlink="http://www.w3.org/1999/xlink" x="0px" y="0px"
	 width="336.857px" height="478.553px" viewBox="0 0 336.857 478.553" enable-background="new 0 0 336.857 478.553"
	 xml:space="preserve">
<g id="Layer_1">
	<path fill="#E1D1C2" d="M105.444,376.055c3.673,0.015,7.346,0.03,11.02,0.045c-0.034,5.29,13.981-2.338,14.418,2.809
		c0.147,1.726,18.818,2.816,20.643-2.854c6.195,0.998-18.483,13.067-15.801,8.516c1.565-2.656,3.215-4.005,6.426-2.681
		c8.111,3.345,22.405-11.23,31.111-13.327c4.961-1.195,3.952,12.864,9.203,13.482c2.73,0.361,5.69-0.766,8.369,0.94
		c-4.382,3.626-10.953,1.427-14.765,5.97c1.717,2.218,4.928-1.341,5.529,2.357c-2.259,2.797,25.602,3.73,26.995,8.079
		c-0.692,2.065-6.538,18.401-7.23,20.465l-25.92-12.788c-2.653,0.068-5.37-0.209-7.947,0.269c-7.198,1.336-14.46-0.828-21.644,0.638
		c-1.788,0.365-3.108-1.036-4.279-2.199c-3.712-3.686-8.497-1.424-12.712-2.306c-1.108-0.232-1.109,1.326-1.444,2.242
		c-1.496,4.088-3.097,8.133-4.468,12.269c-1.091,3.292-2.158,6.753-3.39,10.07c-1.965,5.293,2.768,6.769,5.929,9.021
		c-0.169,4.021-3.544,3.63-5.327,2.73c-4.378-2.21-6.376,0.741-8.812,3.07c-1.049,1.002-1.956,2.153-2.928,3.236
		c-0.664-0.042-1.328-0.084-1.991-0.126c-0.019-10.959,0.448-21.934-0.994-32.847"/>
	<path fill="#D1C1B1" d="M228.306,373.601c-0.667-0.779-1.514-0.513-2.29-0.37c-0.48,0.088-0.504,0.519-0.033,0.651
		C226.758,374.1,227.591,374.28,228.306,373.601z"/>
	<path fill="#E1D1C2" d="M236.424,128.013c0.343,0.01,0.685,0.02,1.028,0.031c0.014,0.616,0.029,1.232,0.043,1.85
		c-6.972,0.709-14.067-0.662-20.968,1.242c-1.346-0.009-2.692-0.019-4.038-0.028c-7.262-0.747-14.561-1.351-21.636-3.214
		c-3.914-1.031-4.831-0.18-3.771,3.775c1.263,4.713,5.203,8.284,5.015,13.753c-0.074,2.168,3.022,3.912,5.883,3.127
		c1.522-0.418,2.972-2.294,4.527-0.934c1.791,1.567-0.208,3.355-0.422,5.057c-0.103,0.817-0.388,1.612-0.591,2.416
		c-0.011,1.324-0.022,2.649-0.032,3.974c-2.026,0.613-3.593,2.599-6.02,2.012c-3.289-8.926-10.514-15.897-12.652-25.41
		c-0.066-0.293-0.84-0.426-1.284-0.634c-2.01-4.529-2.5-10.198-6.541-13.259c-8.987-6.81-18.229-13.47-28.684-17.867
		c-7.828-3.293-12.155-0.208-12.752,8.208c-0.245,3.463,0.148,7.012-1.907,10.121c-2.974-2.673-0.594-9.501-7.237-9.326
		c0.855-0.809,2.137-1.311,2.022-2.816c1.952-1.818,3.433-3.758,4.272-6.501c1.93-6.305,12.274-9.437,18.623-6.339
		c5.243,2.558,10.756,4.563,16.149,6.812c5.99,3.501,12.463,6.423,18.867,8.491c7.037,2.272,12.219,8.853,20.772,8.02
		c2.43-0.237,5.825,3.2,9.384,4.31c2.969,0.926,6.351,0.078,8.947,2.148c-2.66,0.01-5.32,0.02-7.981,0.029
		c-5.498,0.709-10.975-0.464-15.359-3.23c-4.87-3.073-9.994-1.074-14.824-2.5c-1.421-0.419-3.778,0.14-5.552,2.243
		c11.721,1.492,22.377,5.577,33.748,5.484C221.156,129.725,228.73,127.544,236.424,128.013z"/>
	<path fill="#C0A697" d="M1.169,12.755c-1.958-3.098-1.324-4.564,0.924-6.034c3.454-2.259,7.077-4.304,10.792-6.1
		c2.155-1.042,4.293-0.886,6.205,1.333c2.584,2.999,3.576,6.619,5.111,10.085c3.003,6.781,6.464,13.36,9.731,20.025
		c1.239,2.528,2.556,5.033,2.531,7.963c-1.465-0.128-3.009-0.003-4.379-0.433c-3.809-1.195-3.454,0.746-2.543,3.164
		c0.909,2.413,3.319,4.129,3.269,6.995c-2.749-0.635-5.258-1.831-7.695-3.223c-0.885-0.506-1.96-0.689-2.78,0.052
		c-0.98,0.885-0.316,1.994,0.265,2.639c3.195,3.546,3.615,8.342,5.669,12.417c2.91,5.771,6.926,11.134,7.831,17.808
		c-1.415,0.594-0.163,1.732-0.519,2.542c-0.557-0.314-1.495-0.523-1.615-0.957c-2.004-7.286-6.81-13.256-9.465-20.19 M25.47,36.047
		c4.152-1.913,1.32-4.833,0.358-6.552C21.506,21.77,17.893,13.75,14.793,5.489c-0.722-1.924-1.388-1.318-2.343-0.391
		c-1.33,0.637-2.627,1.357-3.995,1.897c-3.981,1.571-4.846,3.621-1.417,6.814c1.595,1.485,2.171,3.5,2.455,5.784
		C10.548,28.06,17.995,35.557,25.47,36.047z"/>
	<path fill="#C0A697" d="M43.47,53.993c5.795,11.026,11.502,22.09,14.877,34.169c-2.065,0.1-4.557-0.972-6.08,0.631
		c-1.647,1.734,0.919,3.485,0.976,5.334c0.028,0.925-0.355,1.862-0.554,2.795c-1.706-0.328-3.411-0.656-5.115-0.985
		c-0.327-3.701,0.71-7.666-2.113-10.883c0.662,0.003,1.324,0.006,1.985,0.009c1.382,1.296,3.096,1.311,4.607,0.647
		c1.145-0.503,0.476-1.822,0.101-2.631c-1.644-3.554-3.646-6.958-5.077-10.591c-2.693-6.837-7.156-12.905-8.722-20.218
		C40.06,52.845,41.765,53.419,43.47,53.993z"/>
	<path fill="#C0A697" d="M126.407,110.09c0.115,1.505-1.167,2.007-2.021,2.817c-20.303,0.005-40.519,1.787-60.764,2.999
		c0.99-4.694-2.964-7.452-4.508-11.138c-0.998-2.383-0.719-2.94,1.682-2.751c1.872-1.639,3.335,4.271,5.334,0.289
		c0.496,0.41,1.245,0.722,1.452,1.246c3.783,9.601,11.858,9.911,20.276,9.385C100.718,112.132,113.499,110.253,126.407,110.09z"/>
	<path fill="#38162A" d="M33.454,79.368c1.523-1.603,22.828,8.894,24.893,8.794l0.021-0.03c0.328,0.343,0.656,0.685,0.984,1.028
		c0,0-0.011-0.012-0.01-0.012c0.267,0.413,0.534,0.826,0.801,1.24c1.595,2.321,3.457,4.515,3.585,7.533
		c0.115,1.03,0.518,1.883,1.473,2.396c0.309,0.663,0.619,1.325,0.928,1.988c-1.999,3.982-3.462-1.928-5.337-0.288
		c-2.703-1.699-15.903-3.329-18.603-5.027"/>
	<path fill="#38162A" d="M43.47,53.993c-1.705-0.574-3.41-1.148-5.114-1.724c-1.568-0.892-2.991-2.102-4.902-2.243
		c-0.179-0.175-0.393-0.266-0.643-0.274c0.05-2.866-15.45-3.53-16.359-5.943c-0.911-2.418-7.81-12.195-4.001-11
		c1.37,0.43,22.548,7.089,24.013,7.217l0.024,0.03c0.321,0.319,0.642,0.639,0.962,0.958c0,0,0.039,0.056,0.039,0.055
		c0.266,0.411,0.531,0.823,0.797,1.235c1.047,2.25,2.094,4.499,3.141,6.749c0.069,1.092-0.295,2.351,1.131,2.916
		C42.862,52.643,43.166,53.318,43.47,53.993z"/>
	<path fill="#C0A697" d="M42.558,51.968c-1.426-0.565-1.062-1.824-1.131-2.916C42.423,49.784,42.472,50.883,42.558,51.968z"/>
	<path fill="#C0A697" d="M65.202,100.317c-0.955-0.513-1.358-1.366-1.473-2.396C64.92,98.289,65.332,99.136,65.202,100.317z"/>
	<path fill="#C0A697" d="M60.143,90.388c-0.267-0.413-0.533-0.827-0.801-1.24C59.609,89.561,59.876,89.974,60.143,90.388z"/>
	<path fill="#C0A697" d="M59.353,89.16c-0.328-0.343-0.656-0.686-0.984-1.028C58.696,88.474,59.024,88.817,59.353,89.16z"/>
	<path fill="#C0A697" d="M38.286,42.304c-0.266-0.412-0.532-0.823-0.797-1.235C37.755,41.481,38.02,41.892,38.286,42.304z"/>
	<path fill="#C0A697" d="M37.45,41.014c-0.321-0.319-0.642-0.639-0.962-0.958C36.808,40.375,37.129,40.694,37.45,41.014z"/>
	<path fill="#6F2C54" d="M117.564,165.559c0.035,0.421-6.009,46.01-6.32,46.167c-3.496,1.761-4.802,4.864-5.068,8.299
		c-0.103,1.331-0.913,2.582-2.349,2.972c-4.494,1.22-9.486,1.78-9.462,8.699c-0.634-3.843-1.852-8.243-4.171-8.676
		c-6.074-1.132-8.232-7.164-13.393-9.006c-1.882-0.672-2.655-2.233-3.545-3.913c-5.016-9.478-16.521-30.165-22.841-38.907
		 M112.609,171.002c2.384,3.447-0.713,6.147-1.254,9.195 M50.415,171.193c1.643-2.485-1.196-4.041-1.279-6.168
		c1.452-2.547,2.455-4.162,5.95-1.53c4.706,3.544,7.849,1.147,8.482-4.869c0.47-4.461-1.165-6.783-6.497-7.606
		c1.765-0.602,2.222-0.757,2.678-0.914c1.396-0.481,4.014,0.896,3.996-1.586c-0.019-2.692-2.631-2.533-4.631-2.456
		c-5.091,0.196-10.326-0.931-15.099,2.07c-2.159,1.357-2.442-0.499-2.6-2.095c0.926-0.281,1.837-0.74,2.779-0.816
		c14.122-1.15,28.249-2.236,42.373-3.368c6.417-0.515,12.828-1.098,19.241-1.651c5.19-0.116,10.38-0.232,15.57-0.349
		c0.753,0.495,2.795,0.351,2.304,1.044c-3.315,4.675,1.303,6.511,3.033,9.367c-0.141,1.801-0.105,3.637-0.451,5.398
		c-2.766,14.079-4.813,28.272-6.807,42.473c-0.327,0.906-0.805,1.79-0.958,2.726c-1.306,7.976-2.094,16.07-3.933,23.918
		c-2.342,10-4.128,20.051-5.23,30.243c-0.237,0.355-0.473,0.71-0.71,1.065c-1.125,2.281-0.537,4.613-0.207,6.938l0.005,0.02
		c-0.314,0.315-0.629,0.631-0.943,0.946c-0.315,0.032-0.63,0.049-0.947,0.053c-0.868,0.004-1.735,0.007-2.603,0.011
		c-0.264-0.623-0.529-1.245-0.793-1.868c3.914-6.154,3.413-13.358,4.969-20.083c3.187-13.776,3.774-27.905,6.521-41.696
		c1.053-5.283-0.35-10.76,1.544-15.774c2.226-5.893,1.281-11.589,0.556-17.863 M105.464,148.069c-2.331-0.01-4.666,0.044-6.993-0.06
		c-1.013-0.045-2.516,0.352-2.126-1.733c0.668-3.569-1.647-3.002-3.884-2.766c-3.781,0.399-6.932,3.159-10.963,2.72
		c-1.311-0.143-2.461,1.86-1.644,2.246c3.071,1.452,3.916,4.379,5.635,6.768c0.891,1.239,2.577,0.743,3.504-0.388
		c3.284-4.001,7.016-3.496,11.073-1.43c1.902,0.969,3.731,0.82,5.565-0.595c2.368-1.827-0.107-3.204-0.191-4.785
		c5.05,0,10.101,0,15.151,0c0.015-0.594,0.031-1.188,0.046-1.782c-4.284-0.114-8.367-0.402-12.18-2.838
		c-2.217-1.417-5.25-0.388-7.554,1.682C102.447,146.592,105.143,145.464,105.464,148.069z M114.148,152.33
		c-1.113,3.173-0.474,5.339,1.702,7.023c0.195,0.151,1.089-0.135,1.185-0.394C118.064,156.189,116.672,154.337,114.148,152.33z
		 M121.021,156.513c-0.174-0.343-0.286-0.93-0.637-1.179c-0.7-0.495-0.846,0.204-0.815,0.654c0.031,0.457,0.179,1.082,0.502,1.302
		C120.614,157.66,120.948,157.229,121.021,156.513z M124.417,153.511c0.036-0.119,0.135-0.275,0.092-0.347
		c-0.062-0.103-0.227-0.143-0.348-0.21c-0.036,0.122-0.136,0.28-0.092,0.358C124.125,153.413,124.296,153.448,124.417,153.511z
		 M113.553,143.368l-0.349,0.175l0.345,0.179L113.553,143.368z"/>
	<path fill="#E9DBD4" d="M121.379,139.854c-5.19,0.116-10.38,0.232-15.572,0.349c-11.091,0.175-22.088-0.941-33.106-2.037
		c-4.444-0.442-8.961,0.243-12.568-3.295c-1.178-1.156-2.759-0.68-4.272-0.47c-4.091,0.57-9.109-0.817-11.145-2.73
		c-2.523-2.37-7.597-4.706-6.502-10.079c0.172-0.845-0.885-1.295-1.702-1.56c-0.027-0.659-0.055-1.318-0.082-1.977
		c2.135-1.711,4.679-0.724,7.022-1.066c3.074,0.488,5.992-0.632,8.994-0.879c3.726-0.068,7.453-0.137,11.179-0.205
		c20.244-1.211,40.46-2.994,60.764-2.999c6.642-0.176,4.262,6.652,7.235,9.323c-0.149,2.323-0.098,4.68-0.477,6.965
		C129.647,138.204,129.597,138.196,121.379,139.854z"/>
	<path fill="#53213F" d="M50.415,171.193c6.32,8.742,17.825,29.429,22.841,38.907c0.89,1.681,1.662,3.241,3.545,3.913
		c5.161,1.842,7.319,7.875,13.393,9.006c2.319,0.432,3.537,4.833,4.171,8.676c-0.024-6.919,4.968-7.478,9.462-8.699
		c1.436-0.39,2.246-1.641,2.349-2.972c0.266-3.435,0.801-6.608,4.296-8.369c0.311-0.157,0.536-0.853,0.502-1.273
		c-0.761-9.265,1.643-18.515,0.12-27.777c0.088-0.802,0.175-1.605,0.261-2.408c0.541-3.048,3.638-5.748,1.254-9.195l-0.298,0.084
		c-0.054-0.655,0.265-1.351,0.211-2.005l0,0c1.735,0.39,2.554-1.085,4.209-2.309c0.724,6.274,1.669,11.97-0.556,17.863
		c-1.893,5.013-0.491,10.49-1.544,15.774c-2.747,13.791-3.335,27.92-6.521,41.696c-1.556,6.725-1.055,13.93-4.966,20.084
		c-2.342-3.874-4.736-7.719-7.005-11.637c-0.78-1.347-1.371-2.663-3.28-1.868c-0.35-0.243-0.701-0.485-1.052-0.728
		c-0.044-1.213-0.258-2.361-1.23-3.22c-6.392-10.918-12.785-21.836-19.176-32.754"/>
	<path fill="#E1D1C2" d="M36.509,120.033c0.818,0.265,1.875,0.715,1.702,1.56c-1.094,5.372,3.979,7.709,6.502,10.079
		c2.037,1.913,7.055,3.299,11.145,2.73c1.513-0.211,3.094-0.686,4.272,0.47c3.607,3.538,8.124,2.853,12.568,3.295
		c11.017,1.096,22.015,2.211,33.106,2.037c-6.411,0.552-12.822,1.136-19.239,1.651c-14.123,1.133-28.251,2.218-42.373,3.368
		c-0.942,0.077-1.853,0.535-2.778,0.816c-0.638-0.062-1.276-0.123-1.914-0.185C36.998,137.422,37.367,128.656,36.509,120.033z"/>
	<path fill="#38162A" d="M39.503,145.853c0.638,0.062,1.276,0.123,1.914,0.185c0.157,1.597,0.441,3.453,2.599,2.096
		c4.773-3.002,10.009-1.875,15.099-2.07c2-0.077,4.612-0.236,4.631,2.456c0.018,2.482-2.6,1.105-3.996,1.586
		c-0.456,0.157-0.914,0.312-2.678,0.914c5.332,0.823,6.967,3.146,6.497,7.606c-0.633,6.017-3.776,8.414-8.482,4.869
		c-3.495-2.632-4.498-1.018-5.947,1.53c-1.337-1.366-1.942-3.508-4.159-3.953C42.279,156.315,38.802,151.836,39.503,145.853z"/>
	<path fill="#6F2C54" d="M92.858,248.682c1.908-0.795,2.5,0.522,3.28,1.868c2.269,3.918,4.663,7.763,7.005,11.637
		c0.262,0.623,0.527,1.245,0.791,1.868c0.17,0.99,0.339,1.979,0.509,2.969c-1.943-0.016-1.641-2.313-2.984-2.938
		c-1.157-2.635-2.77-4.972-4.658-7.128C96.183,253.867,94.111,251.469,92.858,248.682z"/>
	<path fill="#38162A" d="M44.98,161.073c2.217,0.445,2.822,2.586,4.159,3.953c0.08,2.126,2.918,3.682,1.276,6.168
		C47.917,168.189,46.906,164.385,44.98,161.073z"/>
	<path fill="#A9BAC1" d="M90.386,249.51c0.175,0.2,0.338,0.387,0.501,0.573c-0.206,0.141-0.401,0.306-0.625,0.404
		c-0.055,0.024-0.314-0.215-0.296-0.258C90.062,249.997,90.215,249.788,90.386,249.51z"/>
	<path fill="#DCC9B9" d="M193.197,450.094c-2.773-1.563-28.918,4.036-27.105,2.289c1.411-1.359-1.029-5.17-2.732-6.274
		c-1.438-0.932,0.802-6.932-0.241-5.037c-0.734,1.333-1.81,3.139-3.868,2.286c-6.036-2.502-12.782-0.372-18.856-3.171
		c-2.698-1.243-5.613-2.935-8.941-2.133c-0.153-1.227,0.437-2.779-0.977-3.507c-1.525-0.786-2.334,0.44-3.07,1.543
		c-0.64,0.328-1.281,0.655-1.921,0.983c-3.161-2.252-7.894-3.728-5.929-9.021c1.232-3.317,2.299-6.778,3.39-10.07
		c1.372-4.136,2.972-8.18,4.468-12.269c0.335-0.917,0.336-2.474,1.444-2.242c4.216,0.882,9-1.38,12.712,2.306
		c1.172,1.163,2.492,2.564,4.279,2.199c7.184-1.466,14.445,0.698,21.644-0.638c2.577-0.478,5.294-0.202,7.948-0.27
		c0.155,0.881-0.24,2.002,1.028,2.389c0.099,0.03,0.352-0.13,0.384-0.244c0.349-1.232-0.618-1.638-1.393-2.162
		c0.692-2.065,28.298-4.129,28.99-6.194 M139.405,410.87c-0.063-1.394-0.35-2.701-2.129-2.557c-1.786,0.145-1.772,1.603-1.767,2.912
		c0.005,1.402,0.344,2.711,2.114,2.567C139.397,413.647,139.348,412.181,139.405,410.87z M164.268,435.615
		c1.476-1.351,1.4-3.047,2.746-3.966c1.591-1.086,1.418-2.769-0.035-3.661c-1.621-0.996-1.532,1.154-2.23,1.836
		C163.162,431.375,163.083,433.222,164.268,435.615z M139.461,418.476c4.198-1.464,4.2-3.298,3.255-6.923
		C141.448,414.248,140.741,415.753,139.461,418.476z"/>
	<path fill="#DCC9B9" d="M221.524,374.079c-5.251-0.618-1.038,43.378-65.525,7.142c-8.706,2.096-17.006,1.033-25.117-2.311
		c-3.211-1.324-4.86,0.025-6.426,2.681c-2.682,4.551-5.918,8.482-12.113,7.484c-1.085-0.175-2.492,0.204-2.638-1.521
		c-0.437-5.147-4.543-9.143-4.509-14.433c12.635-0.018,25.269-0.037,37.904-0.052"/>
	<path fill="#D1C1B1" d="M125.485,437.075c0.64-0.328,1.281-0.655,1.922-0.984c-0.411,4.279,1.741,3.279,4.046,1.965
		c3.328-0.803,6.243,0.889,8.941,2.133c6.074,2.799,12.82,0.669,18.856,3.171c2.058,0.853,3.134-0.953,3.868-2.286
		c1.044-1.895,2.174-1.725,3.612-0.793c1.704,1.104,1.561,2.231,0.15,3.589c-1.813,1.746-2.476,3.595,0.296,5.159
		c0,0.001,0.333-0.001,0.333-0.001c-7.66,1.787-15.457,0.984-23.128,0.633c-11.973-0.548-24.141,0.922-35.882-2.74
		c-0.013-0.272-0.04-0.543-0.08-0.812c0.972-1.083,1.879-2.234,2.928-3.236c2.437-2.328,4.434-5.28,8.812-3.07
		C121.941,440.704,125.316,441.095,125.485,437.075z"/>
	<path fill="#C0A697" d="M108.418,446.111c0.04,0.269,0.067,0.54,0.08,0.812c-1.637,1.389-1.134,3.305-1.159,5.041
		c-0.071,5.062-0.04,10.125-0.049,15.188c-0.24-0.043-0.476-0.1-0.709-0.17c-0.051-6.998-0.103-13.997-0.154-20.996
		C107.09,446.026,107.754,446.068,108.418,446.111z"/>
	<path fill="#C0A697" d="M109.363,475.166c-0.16-0.292-0.284-0.598-0.367-0.919c1.622-1.582,3.679-1.22,5.63-1.231
		c5.07-0.029,10.141-0.01,15.212-0.01c-0.008-0.238-0.016-0.476-0.025-0.714c-0.807-0.144-1.613-0.288-2.421-0.43
		c-0.012-0.241,0.016-0.48,0.082-0.714c13.305-0.055,26.61-0.11,39.915-0.165c1.378-0.01,2.757-0.019,4.135-0.029
		c8.987-0.04,18.004,0.93,26.941-0.806c20.112,0.261,40.181-0.82,60.257-1.81c16.913-0.834,33.791-2.516,50.756-2.169
		c2.659,1.909,5.869,0.166,8.941,1.376c-4.74,1.823-9.372,1.867-14.089,1.528c6.395,1.238,12.777,1.097,19.168-0.022
		c0.247,0.702,0.494,1.404,0.741,2.106c-0.231,0.333-0.463,0.667-0.694,1c-1.32,0.115-2.64,0.229-3.96,0.342
		c-1.771-0.218-3.576-0.683-5.116,0.725c-4.627,0.139-9.253,0.278-13.88,0.414"/>
	<path fill="#C0A697" d="M206.42,478.553"/>
	<path fill="#D1C1B1" d="M127.393,471.861c0.807,0.144,1.613,0.288,2.42,0.432c0.008,0.238,0.016,0.476,0.025,0.714
		c-5.071,0-10.141-0.019-15.212,0.01c-1.952,0.011-4.008-0.351-5.63,1.231c-2.846-1.745-2.579-4.523-2.415-7.267
		c0.234,0.07,0.47,0.127,0.71,0.169c0.089,2.085,0.891,3.613,3.139,4.01C116.019,472.95,121.745,471.465,127.393,471.861z"/>
	<path fill="#DCC9B9" d="M300.59,473.639"/>
	<path fill="#DCC9B9" d="M314.47,473.225c1.54-1.408,3.345-0.944,5.116-0.725"/>
	<path fill="#38162A" d="M101.458,264.086c1.344,0.625,1.041,2.922,2.984,2.938c0.005,1.68,0.011,3.36,0.016,5.04
		c-0.064,0.093-0.127,0.186-0.191,0.279c0.06-0.097,0.12-0.193,0.18-0.29c1.892,0.632,3.784,1.264,5.675,1.895
		c-4.675,1.195-7.849,3.464-6.681,9.03c0.198,0.945-0.049,1.983-0.091,2.979c-1.697-1.609-0.039-4.295-1.881-5.857
		C103.028,274.76,101.597,269.424,101.458,264.086z"/>
	<path fill="#53213F" d="M103.351,285.956c0.042-0.995,0.289-2.034,0.091-2.979c-1.169-5.566,2.005-7.834,6.681-9.03
		c0,0,0.276-0.178,0.275-0.177c0.964-0.228,0.632-1.176,0.971-1.752c3.738,0.65,7.105-1.719,10.512-1.73
		c10.645-0.034,21.326-0.819,31.962,0.553c1.943,0.251,4.388,1.215,5.612-1.571c10.649-0.039,21.299-0.078,31.949-0.118
		c2.338,3.017,4.716,2.802,7.125,0.089c1.607,0.004,3.213,0.009,4.82,0.012c1.901,3.568,6.645,3.538,9.172-0.06
		c1.289,0.002,2.577,0.004,3.866,0.004c1.683,2.915,3.844,2.121,6.076,0.783c9.341-2.235,18.777,0.346,28.238-0.569
		c5.765-0.558,11.836,0.771,17.763-0.387c1.646,3.065,3.305,3.057,4.975,0.02c8.314,1.649,16.639,0.738,24.963,0.1
		c0.244,1.2,0.747,2.566,2.006,2.559c3.892-0.023,7.72,1.619,11.665,0.311c3.35-1.11,6.081,0.02,7.118,3.351
		c1.228,3.949-2.537,3.087-4.473,4.196c-8.585,4.918-19.488,1.722-27.655,8.036c-0.669,0.517-1.954,0.489-2.902,0.353
		c-9.534-1.366-18.992,2.559-28.543,0.41c-0.491-0.11-1.258,0.427-1.719,0.854c-4.633,4.282-10.061,2.521-15.096,1.551
		c-2.424-0.467-4.2,0.101-6.126,0.888c-1.211,0.495-2.264,1.612-3.669,1.266c-6.521-1.602-11.463,5.006-17.991,3.441
		c-0.345-0.083-1.189,0.717-1.346,1.242c-0.905,3.013-2.984,2.391-5.219,1.992c-3.897-0.697-8.045-1.95-10.207,3.191
		c-0.533,1.268-1.78,0.931-2.544,0.331c-3.651-2.866-8.05-2.298-12.212-2.868c-2.015-0.276-3.465-0.101-4.241,2.24
		c-0.881,2.657-3.057,3.797-5.866,3.631c-0.007-0.66-0.015-1.318-0.023-1.977c-0.013-1.305-0.682-1.965-1.977-2.011
		c-0.634-0.047-1.267-0.094-1.901-0.141c-0.145-1.419,0.216-2.969-1.639-3.742c-4.208-1.752-9.188,0.371-11.262,4.913
		c0.371,0.34,0.742,0.679,1.113,1.019c-0.735,1.014-1.314,2.243-2.893,2.09c-5.896-3.609-8.893-3.254-13.872,1.827
		c-1.814,1.851-4.157,2.727-6.349,3.899c-1.605,0.859-3.234,1.561-4.277,3.283c-0.674,1.112-0.229,3.502-2.47,3.092
		c-2.055-0.375-0.052-2.75-1.441-3.754c-1.363,0.963-1.461,2.967-3.23,3.603c-3.421,1.229-4.747,3.878-4.786,7.411
		c-0.01,0.91-0.394,2.294-1.042,2.639c-3.375,1.793-2.601,4.364-1.281,6.764c1.441,2.621,0.925,4.669-0.793,6.844
		c-1.621,2.051-4.508,4.463-4.252,6.369c0.645,4.788-1.122,9.257-0.693,13.971c0.336,3.69,0.923,7.555-0.292,11.278
		c-2.69-6.088-1.121-12.45-1.199-18.702c0.93-1.502,0.916-3.004-0.019-4.502c-0.289-4.727-0.578-9.455-0.867-14.182
		c0.919-10.26,0.289-20.523,0.039-30.784C103.819,298.869,103.563,292.413,103.351,285.956z M174.596,297.573
		c0.103-0.235,0.228-0.464,0.29-0.71c0.013-0.049-0.267-0.253-0.317-0.224c-0.212,0.125-0.388,0.31-0.577,0.473
		C174.192,297.266,174.392,297.42,174.596,297.573z"/>
	<path fill="#6F2C54" d="M333.234,370.087c-1.401,1.331-3.15,0.758-4.764,0.833c-10.283,0.48-20.607-0.21-30.863,1.074
		c-16.736,0.709-33.472,1.417-50.208,2.126c-7.455,0.833-14.666-0.907-21.93-2.082c2.406-2.511,5.645-2.52,8.423-1.725
		c10.667,3.054,21.513,1.358,32.273,1.65c2.788,0.076,5.799-0.274,8.227-3.865c-5.558,0.434-10.109-2.265-14.982-0.295
		c-1.076,0.435-2.227-0.017-3.387-0.284c-5.677-1.307-11.401-2.615-17.107-0.09c-1.402,0.62-2.575,0.67-3.305-0.94
		c-0.325-0.716-0.592-2.097-1.462-1.572c-2.958,1.784-6.202,0.721-9.254,1.301c-1.226,0.233-2.329,2.409-3.727,0.109
		c-1.244-2.047,1.817-2.023,1.574-3.625c-4.268-0.896-8.58-0.59-12.871-0.649c-5.909-0.081-11.861,0.628-17.551-1.971
		c-2.011-0.919-4.793-3.428-6.321,0.968c-0.268,0.769-1.116,0.234-1.613-0.259c-2.731-2.711-5.849-0.984-8.274,0.018
		c-3.322,1.372-6.297,1.753-9.505,0.351c-0.839-0.366-1.47-0.439-2.296,0.021c-7.865,4.375-16.466,2.487-24.803,2.868
		c-2.209,0.101-4.1-0.341-6.037-1.707c-2.266-1.598-6.505-3.678-7.631-1.694c-2.194,3.868-5.739,2.937-9.745,4.39
		c3.859,1.167,5.365,3.221,5.145,6.09c-0.224,2.916-3.489,1.199-4.725,2.732c-2.362,0.673-4.826-0.762-7.167,0.345
		c-1.198,0.178-2.326,0.029-3.326-0.711c1.214-3.72,0.627-7.585,0.292-11.275c-0.429-4.714,1.338-9.183,0.693-13.971
		c-0.256-1.905,2.631-4.317,4.252-6.369c1.719-2.175,2.234-4.223,0.793-6.844c-1.319-2.401-2.094-4.971,1.281-6.764
		c0.649-0.345,1.032-1.729,1.042-2.639c0.039-3.534,1.365-6.183,4.786-7.411c1.769-0.636,1.867-2.64,3.23-3.603
		c1.389,1.004-0.614,3.379,1.441,3.754c2.242,0.409,1.797-1.98,2.47-3.092c1.043-1.722,2.672-2.424,4.277-3.283
		c2.192-1.173,4.535-2.048,6.349-3.899c4.98-5.081,7.976-5.436,13.872-1.827c0.029,1.774-1.709,2.45-2.361,3.801
		c-0.327,0.353-0.653,0.707-0.98,1.06c-0.294,0.312-0.587,0.625-0.881,0.937c-0.304,0.003-0.6,0.056-0.886,0.159
		c-2.438-0.294-4.313,0.121-4.233,3.201c0.021,0.813-0.307,2.166-1.063,1.887c-3.667-1.357-2.722,1.374-2.874,3.065
		c-0.123,1.371-0.316,2.749-1.683,3.335c-2.941,1.262-2.416,3.503-1.852,5.813l-0.073,0.145c-2.249,0.751-5.66-0.936-6.367,3.048
		c-0.737,4.15,3.245,7.791,7.212,6.261c1.976-0.762,4-1.513,5.743-0.652c4.606,2.277,9.435,1.541,14.21,1.666
		c2.174,0.057,4.378-0.072,6.162,1.467c2.759,2.38,5.308,1.598,8.197,0c4.665-2.581,8.486-7.729,14.446-6.693
		c5.639,0.981,10.652-4.344,16.297-1.072c0.27,0.157,0.932-0.233,1.348-0.476c3.407-1.991,6.384-1.392,9.667,0.742
		c3.917,2.546,7.214,0.153,10.308-2.342c2.729-2.201,2.833-4.615,1.06-7.439c-1.174-1.871-1.018-3.818,0.225-5.626
		c1.021-1.485,1.1-3.093,0.824-4.781c1.544-2.338,3.115-4.658,4.618-7.022c0.746-1.174,2.477-2.722,0.676-3.763
		c-1.755-1.014-4.562-0.208-5.034,1.707c-1.752,7.116-8.166,11.106-11.038,17.392c-3.345-3.954,1.217-6.33,2.713-10.896
		c-5.399,3.923-10.375,2.575-15.18,2.89c-1.282,0.084-2.218,0.578-2.562,1.9c-1.53,1.148-3.06,2.296-4.604,3.455
		c-2.596-4.252-4.992-5.063-9.157-3.391c-3.061,1.229-4.974,3.781-7.179,6.007c-0.376-0.019-0.751-0.038-1.127-0.057
		c-0.058-5.673-2.123-7.818-6.726-6.988c-7.562,1.364-12.243,10.03-9.185,17.005c-0.355,0.572-0.71,1.144-1.066,1.716
		c-5.983-0.647-11.542-4.082-17.831-2.708c2.144-3.746,6.396-6.163,6.902-10.943c0.381-0.643,0.763-1.286,1.144-1.928
		c2.446-3.066,4.141-6.574,5.907-10.041l-0.035,0.008c0.419-0.327,0.838-0.653,1.258-0.98c1.922-1.264,3.945-2.754,6.299-1.608
		c2.86,1.393,0.956,3.497,0.56,5.479c-0.411,2.055,1.083,2.061,2.465,1.411c2.239-1.052,3.589-2.742,3.344-5.379
		c0.324-0.309,0.649-0.617,0.973-0.926c2.81,0.166,4.987-0.975,5.868-3.631c0.776-2.341,2.226-2.516,4.241-2.24
		c4.162,0.571,8.561,0.002,12.212,2.868c0.764,0.6,2.011,0.936,2.544-0.331c2.162-5.141,6.311-3.887,10.207-3.191
		c2.235,0.4,4.314,1.021,5.219-1.992c0.158-0.525,1.001-1.325,1.346-1.242c6.528,1.564,11.471-5.043,17.991-3.441
		c1.405,0.345,2.458-0.771,3.669-1.266c1.926-0.787,3.702-1.355,6.126-0.888c5.035,0.969,10.462,2.73,15.096-1.551
		c0.462-0.427,1.228-0.964,1.719-0.854c9.551,2.149,19.009-1.776,28.543-0.41c0.947,0.136,2.233,0.164,2.902-0.353
		c8.167-6.313,19.07-3.118,27.655-8.036c1.936-1.109,5.701-0.247,4.473-4.196c-1.036-3.332-3.768-4.462-7.118-3.351
		c-3.946,1.308-7.773-0.334-11.665-0.311c-1.259,0.007-1.762-1.359-2.006-2.559c4.152,0.138,8.151-0.795,12.553-2.48
		c-1.985-0.881-3.969-1.764-5.955-2.642c-1.03-0.455-1.655-1.223-1.319-2.345c0.499-1.663,1.496-0.259,2.27-0.338
		c7.19-0.728,23.691,10.867,30.904,10.592"/>
	<path fill="#53213F" d="M116.516,373.861c1.236-1.533,4.501,0.184,4.725-2.732c0.22-2.869-1.286-4.924-5.145-6.09
		c4.006-1.453,7.55-0.522,9.745-4.39c1.125-1.984,5.365,0.096,7.631,1.694c1.937,1.366,3.828,1.808,6.037,1.707
		c8.337-0.381,16.938,1.507,24.803-2.868c0.827-0.46,1.458-0.387,2.296-0.021c3.208,1.402,6.183,1.021,9.505-0.351
		c2.425-1.002,5.543-2.729,8.274-0.018c0.497,0.493,1.345,1.028,1.613,0.259c1.528-4.396,4.31-1.887,6.321-0.968
		c5.69,2.6,11.642,1.89,17.551,1.971c4.291,0.059,8.603-0.247,12.871,0.649c0.243,1.602-2.818,1.579-1.574,3.625
		c1.398,2.299,2.5,0.123,3.727-0.109c3.052-0.58,6.295,0.483,9.254-1.301c0.87-0.525,1.138,0.857,1.462,1.572
		c0.73,1.609,1.904,1.56,3.305,0.94c5.706-2.525,11.43-1.217,17.107,0.09c1.159,0.267,2.311,0.719,3.387,0.284
		c4.874-1.971,9.424,0.728,14.982,0.295c-2.428,3.591-5.44,3.94-8.227,3.865c-10.76-0.292-21.606,1.404-32.273-1.65
		c-2.778-0.795-6.017-0.786-8.423,1.725c-4.183,0.471-8.482-1.961-12.585,0.5c-2.829-0.894-4.697,1.802-7.526,1.774
		C175.746,374.019,146.13,373.974,116.516,373.861z M125.366,372.381l-0.03,0.334l0.357-0.139L125.366,372.381z M262.365,370.382
		l-0.031,0.337l0.359-0.141L262.365,370.382z"/>
	<path fill="#DCC9B9" d="M184.995,450.094c-0.038-2.979,1.59-69.722,1.581-72.702c-0.295-3.692,65.181-10.794,69.983-3.536
		c0.531,0.802,1.979-1.065,2.971-1.643c16.736-0.709,33.472-1.417,50.205-2.126c7.277,0.046,14.557,0.091,21.837,0.137
		c0.332,2.131,1.438,9.493-0.394,9.502c-0.249,15.609-1.111,52.574-2.594,63.297c-6.115,1.517-33.264,4.082-38.994,3.088"/>
	<path fill="#DCC9B9" d="M257.458,447.519"/>
	<path fill="#38162A" d="M116.516,373.861c29.615,0.113,59.23,0.158,88.843,0.451c2.828,0.028,4.697-2.668,7.526-1.774
		c-1.421,2.472-3.687,3.093-6.357,3.069c-31.425-0.285-62.85-0.537-94.276-0.83c-0.97-0.009-1.936-0.373-2.903-0.571
		C111.69,373.099,114.154,374.534,116.516,373.861z"/>
	<path fill="#DCC9B9" d="M228.306,373.601c-0.715,0.679-1.548,0.499-2.323,0.281c-0.471-0.132-0.446-0.563,0.033-0.651
		C226.793,373.088,227.639,372.822,228.306,373.601z"/>
	<path fill="#38162A" d="M104.804,350.293c0.935,1.498,0.949,3,0.019,4.502C104.817,353.292,104.811,351.793,104.804,350.293z"/>
	<path fill="#E9DBD4" d="M237.495,129.892c-0.014-0.616-0.029-1.232-0.043-1.848c22.065,0.01,44.13,0.131,66.193-0.057
		c4.841-0.041,9.128,0.534,12.632,4.1c0.747,5.639,3.349,11.029,2.2,16.927c-0.71,3.644-2.819,7.062-1.816,10.989
		c-1.565,2.197-2.228,4.309,0.571,6.097c0.014,0.634,0.027,1.268,0.041,1.902c-2.77,0.025-5.542,0.019-8.311,0.085
		c-2.31,0.055-4.673,0.09-5.53,2.927c-1.317-0.004-2.634-0.008-3.951-0.011c-0.038-2.478-1.32-3.278-3.592-2.561
		c-1.456,0.459-2.883,0.559-4.416,0.435c-12.18-0.98-24.362-1.951-36.554-2.76c-2.826-0.188-5.635-0.184-8.376-1.023
		c-4.133-1.266-8.131-1.947-11.399,2.054c-1.065,1.304-2.743,1.152-4.153,0.419c-1.719-0.895-1.455-2.41-0.905-3.91
		c1.687-4.605,4.725-9.521,8.725-10.643c5.794-1.625,6.342-5.504,7.562-9.656c0.89-3.028,0.682-6.358,1.13-9.226
		c0.762-4.882-1.403-4.045-4.066-4.042c-1.677,0.005-3.355,0.01-5.032,0.016C238.093,130.065,237.79,129.995,237.495,129.892z
		 M250.975,130.608c3.473,3.448,9.984,4.561,13.272,2.457c0.64-0.41,1.441-1.141,1.487-1.773c0.071-0.971-0.981-1.206-1.831-1.174
		C259.696,130.28,255.43,129.546,250.975,130.608z"/>
	<path fill="#6F2C54" d="M102.286,269.199c0.59-2.218,82.14-82.625,82.73-84.843c0.39-0.753,0.78-1.506,1.169-2.26
		c1.344-0.69,2.332-1.737,3.066-3.043c3.42,0.136,4.136-2.763,5.467-4.925c1.086-1.764,1.511-4.177,4.341-4.052
		c12.085,0.998,24.18,1.57,36.306,0.912c2.488,0.041,4.976,0.113,7.464,0.117c24.765,0.041,51.696,1.12,76.461,1.153
		c0.06,1.257,17.506,98.415,17.566,99.672"/>
	<path fill="#C0A697" d="M319.291,172.258c-24.765-0.033-49.529-0.062-74.294-0.103c-2.488-0.004-4.976-0.076-7.465-0.117
		c1.588-1.296,3.485-0.845,5.266-0.852c18.894-0.084,37.788-0.128,56.682-0.182c1.317,0.004,2.634,0.008,3.951,0.012
		c3.578,0.031,7.157,0.034,10.734,0.101c2.164,0.041,3.502-0.647,3.107-3.113c-0.014-0.634-0.027-1.268-0.039-1.902
		c0.125-2.062,0.667-4.164-0.572-6.097c-1.003-3.927,1.106-7.345,1.816-10.989c1.149-5.898-1.453-11.288-2.2-16.927
		c2.287,0.093,2.916,1.731,3.46,3.571c1.664,5.619,1.753,10.97,0.358,16.917C318.621,158.853,319.461,165.674,319.291,172.258z"/>
	<path fill="#D1C1B1" d="M215.44,127.061c2.66-0.01,5.321-0.019,7.981-0.029c3.133-0.981,6.353-1.079,9.599-0.964
		c1.497,0.053,2.986,0.041,3.404,1.946c-7.695-0.47-15.268,1.711-22.971,1.044C214.116,128.392,214.778,127.727,215.44,127.061z"/>
	<path fill="#C0A697" d="M121.379,139.854c8.218-1.658,8.268-1.65,9.764-10.658c0.38-2.286,0.329-4.643,0.477-6.965
		c2.057-3.107,1.663-6.657,1.909-10.12c0.597-8.416,4.924-11.501,12.752-8.208c10.455,4.398,19.697,11.058,28.684,17.867
		c4.04,3.062,4.53,8.73,6.54,13.259c-1.104,7.401-0.224,13.933,4.579,20.449c2.264,3.072,6.115,6.7,5.228,11.716
		c-0.62,0.014-1.24,0.028-1.861,0.042c-0.317-0.388-0.634-0.775-0.952-1.163c0.387-0.223,0.774-0.446,1.161-0.669
		c-0.201-0.185-0.402-0.37-0.603-0.555c-0.211,0.395-0.422,0.79-0.633,1.185c-2.649-0.931-5.366-1.704-7.935-2.818
		c-14.085-6.106-28.13-12.303-42.195-18.454c-9.347-4.087-9.352-4.076-11.578,5.501c-1.73-2.855-6.349-4.691-3.034-9.366
		C124.174,140.205,122.131,140.35,121.379,139.854z"/>
	<path fill="#DCC9B9" d="M201.494,155.087c0.202-0.805,0.487-1.599,0.59-2.416c0.214-1.702,2.213-3.49,0.422-5.057
		c-1.555-1.361-3.005,0.516-4.527,0.934c-2.861,0.785-5.957-0.958-5.883-3.127c0.187-5.468-3.752-9.04-5.015-13.753
		c-1.06-3.956-0.143-4.806,3.771-3.775c7.075,1.863,14.374,2.467,21.636,3.214c-0.135,2.334-1.819,5.608,2.996,4.943
		c-0.019,0.667-0.038,1.334-0.057,2c-2.605,1.122-4.551,3.189-4.793,5.831C210.084,149.842,206.217,152.727,201.494,155.087z"/>
	<path fill="#C0A697" d="M215.426,138.05c0.019-0.667,0.038-1.334,0.057-2c0.868-1.527,1.032-3.205,1.043-4.914
		c6.901-1.904,13.996-0.532,20.968-1.242c0.295,0.101,0.598,0.172,0.909,0.21c-0.169,2.957-0.268,5.941-2.944,7.972
		c-1.389-0.01-2.655-0.307-3.295-1.708c-1.509-3.305-3.982-2.024-6.326-1.364c-3.373,0.95-3.211,4.308-4.127,6.683
		c-0.802,2.08,1.298,3.241,3.051,4.416c2.725,1.826,5.129,1.263,7.679-0.035c-1.066,3.982-5.069,5.691-6.979,9.02
		c-3.658-0.644-5.581,3.554-9.827,3.65C219.544,151.427,215.659,144.822,215.426,138.05z"/>
	<path fill="#D1C1B1" d="M215.426,138.05c0.233,6.772,4.118,13.378,0.208,20.689c4.246-0.097,6.169-4.294,9.827-3.651
		c0.408,5.07-4.175,5.745-7.009,7.961c-0.991,0.018-1.982,0.037-2.974,0.055c-2.122-0.361-3.608,3.345-6.048,0.945
		c0.365-1.834,2.862-4.724-1.972-3.982c-2.037-0.106-4.375,1.58-5.997-1.006c0.011-1.325,0.021-2.649,0.032-3.974
		c4.723-2.36,8.59-5.245,9.139-11.206C210.875,141.239,212.821,139.172,215.426,138.05z"/>
	<path fill="#D1C1B1" d="M191.311,167.194c0.888-5.017-2.963-8.644-5.228-11.716c-4.803-6.516-5.683-13.048-4.579-20.449
		c0.445,0.208,1.219,0.341,1.285,0.634c2.138,9.512,9.363,16.484,12.652,25.409c0.647,3.022,1.294,6.044,1.941,9.066
		c-0.343,0.065-0.687,0.129-1.031,0.194c-1.286-0.822-2.571-1.644-3.857-2.466c-0.387-0.235-0.775-0.469-1.162-0.704
		L191.311,167.194z"/>
	<path fill="#DCC9B9" d="M215.44,127.061c-0.662,0.665-1.325,1.331-1.987,1.996c-11.372,0.093-22.027-3.991-33.748-5.484
		c1.774-2.103,4.131-2.662,5.552-2.243c4.83,1.425,9.954-0.573,14.824,2.5C204.465,126.597,209.942,127.77,215.44,127.061z"/>
	<path fill="#DCC9B9" d="M197.382,170.139c-0.647-3.022-1.294-6.044-1.941-9.066c2.427,0.587,3.994-1.399,6.02-2.012
		c1.622,2.586,3.96,0.9,5.997,1.006c-4.256,2.196-5.028,6.49-6.309,10.478C199.893,170.409,198.638,170.274,197.382,170.139z"/>
	<path fill="#D1C1B1" d="M216.526,131.135c-0.012,1.709-0.175,3.387-1.043,4.914c-4.814,0.665-3.13-2.609-2.995-4.943
		C213.834,131.116,215.18,131.126,216.526,131.135z"/>
	<path fill="#DCC9B9" d="M32.811,49.752c0.25,0.008,0.464,0.099,0.643,0.275c2.386,6.489,5.167,12.807,7.919,19.148
		c2.249,5.181,6.529,9.662,6.073,15.888c-0.662-0.003-1.324-0.006-1.985-0.009c-0.671-0.315-1.341-0.63-2.012-0.946
		c-0.342-0.047-0.684-0.094-1.026-0.141c-0.288-0.29-0.577-0.58-0.865-0.87c-0.977-0.713-1.115-3.013-3.175-1.68
		c-0.76-0.658-1.521-1.315-2.281-1.973c-0.905-6.674-4.921-12.037-7.831-17.808c-2.054-4.075-2.475-8.87-5.669-12.417
		c-0.58-0.644-1.245-1.754-0.265-2.639c0.82-0.74,1.894-0.557,2.78-0.052C27.553,47.921,30.062,49.117,32.811,49.752z"/>
	<path fill="#DCC9B9" d="M25.47,36.047c-7.475-0.49-14.922-7.987-15.976-16.455c-0.284-2.283-0.861-4.299-2.455-5.784
		C3.61,10.615,4.475,8.565,8.456,6.994c1.368-0.54,2.665-1.259,3.995-1.897c0.579,4.78,2.43,9.117,4.805,13.229
		c3.193,5.528,3.599,12.37,8.179,17.235C25.52,35.652,25.461,35.881,25.47,36.047z"/>
	<path fill="#D1C1B1" d="M25.47,36.047c-0.009-0.165,0.05-0.394-0.037-0.487c-4.58-4.864-4.986-11.707-8.179-17.235
		c-2.375-4.112-4.225-8.449-4.805-13.229c0.955-0.926,1.621-1.532,2.343,0.392c3.1,8.261,6.713,16.281,11.035,24.006
		C26.79,31.214,29.622,34.133,25.47,36.047z"/>
	<path fill="#DCC9B9" d="M63.622,115.906c-3.726,0.068-7.453,0.137-11.179,0.205c-0.303-3.321-1.51-6.278-2.935-9.31
		c-1.798-3.826-4.654-7.249-5.058-11.686c0.316-0.06,0.635-0.104,0.956-0.131c0.723,0.318,1.445,0.635,2.168,0.953
		c1.704,0.328,3.409,0.657,5.115,0.985c2.701,1.698,5.401,3.396,8.104,5.095c-2.398-0.189-2.678,0.368-1.679,2.751
		C60.657,108.454,64.612,111.212,63.622,115.906z"/>
	<path fill="#D1C1B1" d="M47.446,85.063c0.456-6.226-3.824-10.707-6.073-15.888c-2.752-6.341-5.534-12.659-7.919-19.148
		c1.912,0.14,3.334,1.35,4.902,2.242c1.566,7.315,6.029,13.382,8.722,20.219c1.431,3.633,3.433,7.037,5.077,10.591
		c0.374,0.809,1.044,2.127-0.101,2.631C50.542,86.374,48.828,86.359,47.446,85.063z"/>
	<path fill="#9A1809" d="M160.483,184.504"/>
	<path fill="#38162A" d="M122.464,250.493c-2.16,0.089-4.443-9.715-5.177-12.395c-1.666-6.081,0.292-11.741,1.188-17.504
		c1.161-7.473,1.434-14.938,0.984-22.458c1.994-14.202,4.041-28.395,6.807-42.474c0.346-1.761,0.309-3.596,0.451-5.398
		c2.227-9.578,2.231-9.589,11.578-5.501c14.065,6.151,28.11,12.348,42.195,18.454c2.569,1.114,5.286,1.887,7.935,2.818l0.075,0.038
		c0.317,0.388,0.634,0.775,0.951,1.162c1.484,4.788,1.467,4.855-0.896,4.608c-0.911-0.095-1.823-2.167-2.712-0.174
		c-0.551,1.236,0.646,2.011,1.28,2.94c1.728,2.532,9.23-4.277,12.443,2.449c-1.126-7.499,6.112,3.048-2.163,13.208"/>
	<path fill="#9A1809" d="M125.454,241.282"/>
	<path fill="#6F2C54" d="M153.425,212.2c-2.313-1.409-4.645-3.806-6.853,0.134c-1.765,1.58-0.882,3.767-1.295,5.657
		c-2.647,1.141-4.279,3.114-4.868,5.942c-0.656,0.045-1.312,0.091-1.968,0.136c-1.067-0.654-0.87,0.328-1.056,0.815"/>
	<path fill="#6F2C54" d="M122.447,241.067c1.031-0.332,2.107-1.316,3.006,0.215c1.964,5.058-0.5,7.895-4.892,9.766
		c-0.37,0.35-0.739,0.699-1.108,1.049l0.037-0.036c-0.347,0.348-0.695,0.696-1.042,1.044c0,0,0.055-0.034,0.056-0.034
		c-1.224,0.128-1.993,0.714-2.039,2.027l0.027-0.027c-1.302,0.05-1.984,0.719-2.026,2.028l0.023-0.027
		c-0.856-0.013-1.563,0.27-2.034,1.022l0.039-0.017c-2.31,0.332-2.669,2.155-3.038,3.971c-0.344,0.325-0.689,0.65-1.033,0.975
		c-0.33-2.325-0.919-4.657,0.205-6.938c0.236-0.355,0.474-0.71,0.711-1.065c1.102-10.192,2.887-20.243,5.23-30.243
		c1.838-7.849,2.627-15.942,3.933-23.918c0.153-0.936,0.631-1.819,0.958-2.726c0.45,7.521,0.177,14.987-0.984,22.46
		c-0.896,5.763-2.854,11.424-1.188,17.504c0.734,2.679,2.012,3.062,4.172,2.973l-0.024-0.029c0.171,0.375,0.342,0.751,0.514,1.126
		c0.172-0.374,0.344-0.747,0.515-1.121L122.447,241.067z"/>
	<path fill="#6F2C54" d="M105.442,148.049c0.084,1.581,2.559,2.958,0.191,4.785c-1.834,1.415-3.664,1.563-5.565,0.595
		c-4.057-2.067-7.789-2.572-11.073,1.43c-0.928,1.131-2.613,1.627-3.504,0.388c-1.718-2.389-2.563-5.316-5.635-6.768
		c-0.817-0.386,0.333-2.389,1.644-2.246c4.031,0.439,7.182-2.322,10.963-2.72c2.237-0.236,4.552-0.803,3.884,2.766
		c-0.39,2.085,1.113,1.688,2.126,1.733c2.327,0.103,4.662,0.049,6.993,0.06L105.442,148.049z"/>
	<path fill="#6F2C54" d="M105.464,148.069c-0.32-2.605-3.017-1.477-4.559-2.96c2.303-2.07,5.337-3.098,7.554-1.682
		c3.813,2.436,7.897,2.725,12.18,2.838c-0.015,0.594-0.031,1.188-0.046,1.782c-5.05,0-10.101,0-15.151,0
		C105.442,148.049,105.464,148.069,105.464,148.069z"/>
	<path fill="#6F2C54" d="M110.123,273.948c-1.892-0.632-3.784-1.264-5.675-1.895l0.011,0.011c-0.005-1.68-0.011-3.36-0.016-5.04
		c-0.169-0.99-0.339-1.979-0.509-2.969c0.867-0.004,1.735-0.007,2.602-0.011c-0.006,0.678-0.013,1.355-0.019,2.033
		c0.198,0.566,0.529,0.661,0.993,0.279l0.228-0.144c2.075-0.291,3.728,0.001,3.662,2.66c-0.134,0.716-0.268,1.432-0.402,2.147
		c-0.756,0.796-0.743,1.759-0.599,2.751L110.123,273.948z"/>
	<path fill="#6F2C54" d="M114.148,152.33c2.524,2.007,3.916,3.858,2.887,6.629c-0.096,0.259-0.99,0.545-1.185,0.394
		C113.674,157.669,113.035,155.503,114.148,152.33z"/>
	<path fill="#C0A697" d="M96.506,205.796"/>
	<path fill="#38162A" d="M106.517,266.077c0.006-0.678,0.013-1.355,0.019-2.033c0.316-0.004,0.632-0.022,0.947-0.053
		c0.314-0.315,0.629-0.631,0.944-0.947l-0.005-0.02c0.344-0.325,0.689-0.65,1.033-0.975c0.25-0.047,0.5-0.091,0.751-0.133
		c0.094,0.4,0.187,0.8,0.281,1.199c-0.916,1.032-1.832,2.063-2.747,3.095c0,0-0.228,0.144-0.228,0.143
		C107.18,266.262,106.849,266.17,106.517,266.077z"/>
	<path fill="#6F2C54" d="M121.021,156.513c-0.074,0.717-0.408,1.148-0.951,0.777c-0.323-0.22-0.47-0.846-0.502-1.302
		c-0.031-0.45,0.115-1.149,0.815-0.654C120.735,155.583,120.847,156.17,121.021,156.513z"/>
	<path fill="#C0A697" d="M124.417,153.511c-0.121-0.063-0.292-0.099-0.348-0.198c-0.044-0.078,0.056-0.236,0.092-0.358
		c0.121,0.067,0.286,0.107,0.348,0.21C124.552,153.236,124.453,153.393,124.417,153.511z"/>
	<polygon fill="#CB3938" points="113.553,143.368 113.549,143.722 113.204,143.543 	"/>
	<path fill="#53213F" d="M108.427,263.045c-0.315,0.316-0.629,0.632-0.944,0.947C107.798,263.676,108.112,263.36,108.427,263.045z"
		/>
	<path fill="#CB3938" d="M109.338,255.022c-0.237,0.355-0.475,0.711-0.711,1.065C108.865,255.732,109.102,255.377,109.338,255.022z"
		/>
	<path fill="#D1C1B1" d="M44.45,95.114c0.404,4.437,3.26,7.86,5.058,11.686c1.425,3.032,2.632,5.989,2.935,9.31
		c-3.003,0.247-5.92,1.368-8.994,0.88c6.436-3.009,4.416-7.226,1.954-11.845c-1.681-3.154-2.693-6.664-4.003-10.016
		C42.417,95.124,43.434,95.119,44.45,95.114z"/>
	<path fill="#E1D1C2" d="M139.407,410.874c-0.06,1.306-0.011,2.773-1.785,2.917c-1.769,0.144-2.108-1.165-2.114-2.567
		c-0.005-1.309-0.019-2.767,1.767-2.912C139.055,408.169,139.343,409.477,139.407,410.874z"/>
	<path fill="#D1C1B1" d="M164.268,435.615c-1.185-2.393-1.106-4.24,0.481-5.791c0.698-0.682,0.609-2.832,2.23-1.836
		c1.452,0.892,1.626,2.575,0.035,3.661C165.668,432.568,165.745,434.264,164.268,435.615z"/>
	<path fill="#E1D1C2" d="M131.453,438.055c-2.305,1.315-4.458,2.314-4.046-1.965c0.735-1.102,1.544-2.328,3.069-1.543
		C131.89,435.277,131.3,436.828,131.453,438.055z"/>
	<path fill="#E1D1C2" d="M139.461,418.476c1.28-2.723,1.988-4.228,3.255-6.923C143.661,415.178,143.658,417.012,139.461,418.476z"/>
	<path fill="#D1C1B1" d="M131.452,419.044c1.962-3.045,3.118-1.107,3.793,0.813"/>
	<path fill="#D1C1B1" d="M133.132,428.913c0.199-0.955,0.397-1.909,0.596-2.863c0.746,0.249,1.524,0.536,1.436,1.504
		C135.053,428.772,134.076,428.853,133.132,428.913z"/>
	<path fill="#E1D1C2" d="M175.462,407.052c0.774,0.524,1.742,0.929,1.393,2.162c-0.032,0.114-0.285,0.274-0.384,0.244
		c-1.269-0.386-0.874-1.508-1.028-2.389C175.441,407.07,175.462,407.052,175.462,407.052z"/>
	<path fill="#D1C1B1" d="M170.37,426.053c-0.045,0.675-0.091,1.35-0.136,2.024c-0.58-0.163-1.34-0.353-1.166-1.058
		C169.168,426.615,169.915,426.37,170.37,426.053z"/>
	<path fill="#6F2C54" d="M167.508,449.028c2.651,2.189,5.315-0.695,7.97,0.022l-0.013-0.01c0.031,0.307,0.069,0.613,0.112,0.918
		c-0.351,0.983-0.895,2.059-2.011,1.91c-5.891-0.784-11.312,2.087-17.048,2.135c-14.159,0.118-28.32,0.121-42.478-0.018
		c-3.482-0.034-4.997,1.169-4.55,4.633c0.182,1.412-0.512,2.954,0.673,4.371c2.637-1.489,5.516-0.762,8.314-0.857
		c1.136-0.039,2.531-0.023,2.565,1.629c0.029,1.434-1.091,1.901-2.308,2.169c-2.068,0.455-4.529-0.596-7.362,2.157
		c4.639,0,8.087-0.04,11.533,0.017c1.749,0.029,3.816-0.529,4.592,1.911l-0.026,0.029c-5.202,0.431-10.484-0.861-15.631,0.735
		c-0.47,0.127-0.94,0.254-1.41,0.382c-2.247-0.397-3.05-1.925-3.139-4.01c0.009-5.062-0.022-10.125,0.049-15.187
		c0.024-1.736-0.478-3.652,1.159-5.041c11.742,3.662,23.91,2.192,35.882,2.74C152.052,450.012,159.848,450.816,167.508,449.028z"/>
	<path fill="#6F2C54" d="M127.496,470.015c-0.776-2.44-2.842-1.882-4.592-1.911c-3.446-0.057-6.894-0.017-11.533-0.017
		c2.834-2.752,5.295-1.702,7.362-2.157c1.217-0.268,2.337-0.735,2.308-2.169c-0.034-1.652-1.429-1.668-2.565-1.629
		c-2.799,0.095-5.677-0.632-8.314,0.857c-1.185-1.417-0.491-2.959-0.673-4.371c-0.446-3.465,1.068-4.668,4.55-4.633
		c14.158,0.14,28.32,0.136,42.478,0.018c5.736-0.048,11.157-2.92,17.048-2.135c1.117,0.149,1.66-0.927,2.011-1.91
		c5.285,0.077,10.568,0.154,15.852,0.231c0.457,1.569,1.68,1.839,3.081,1.836c4.754-0.01,9.508-0.01,14.262-0.016
		c1.581-0.002,2.903-0.476,3.628-2.018c0.308-0.109,0.618-0.113,0.929-0.013c1.464,0.144,3.055-0.034,4.369,0.487
		c5.761,2.283,11.371,0.684,16.978-0.471c1.817-0.374,0.077-1.025-0.146-1.538c12.09-0.438,24.217-0.362,36.175-2.623
		c14.292-0.366,28.547-1.285,42.762-2.81c2.385,0.12,4.77,0.241,7.155,0.361c2.009,1.61,5.873-1.156,6.846,2.901
		c-0.033,0.579-0.067,1.158-0.1,1.738c-0.825,0.257-1.419,0.603-1.435,1.668c-0.187,12.698-0.21,12.62-12.255,14.533
		c-1.885,0.299,0.114,0.725,0.288,1.099c-1.496,0.282-2.993,0.565-4.489,0.847c-16.964-0.347-33.842,1.335-50.755,2.169
		c-20.075,0.99-40.145,2.071-60.256,1.81c-2.796-0.035-5.604-0.246-8.387-0.068c-6.181,0.397-12.45-1.048-18.555,0.874
		c-1.378,0.01-2.757,0.019-4.134,0.029c-1.564-1.335-3.457-0.876-5.229-0.885C150.606,470.041,139.051,470.036,127.496,470.015z
		 M180.761,452.093c-0.283,0.519-0.526,0.845-0.615,1.209c-0.022,0.09,0.506,0.476,0.688,0.421c0.351-0.107,0.636-0.432,0.948-0.667
		C181.498,452.788,181.213,452.519,180.761,452.093z"/>
	<path fill="#D1C1B1" d="M328.273,461.237c0.772,4.05-0.358,8.589-4.033,9.92c-6.391,1.119-13.515-0.846-19.909-2.084
		c4.717,0.339,9.349,0.294,14.089-1.528c-3.072-1.21-6.282,0.533-8.941-1.376c1.496-0.282,2.992-0.565,4.486-0.848
		c1.935-0.031,3.886,0.065,5.809-0.121c3.168-0.307,6.682-0.094,7.982-4.099C327.919,461.177,328.092,461.222,328.273,461.237z"/>
	<path fill="#6F2C54" d="M127.496,470.014c11.555,0.022,23.111,0.027,34.666,0.084c1.772,0.009,3.665-0.45,5.229,0.885
		c-13.306,0.055-26.611,0.11-39.916,0.165l-0.14-0.427c0.064-0.222,0.109-0.448,0.135-0.678L127.496,470.014z"/>
	<path fill="#6F2C54" d="M171.524,470.954c6.105-1.922,12.373-0.477,18.555-0.874c2.783-0.179,5.592,0.033,8.387,0.068
		C189.529,471.883,180.512,470.914,171.524,470.954z"/>
	<path fill="#38162A" d="M110.429,471.16c0.47-0.127,0.94-0.254,1.408-0.381c5.165-0.019,10.331-0.038,15.497-0.058l0.14,0.427
		c-0.066,0.234-0.094,0.473-0.082,0.714C121.745,471.465,116.019,472.95,110.429,471.16z"/>
	<path fill="#6F2C54" d="M176.467,215.984c-1.616,0.064-3.233,0.128-4.849,0.192c-1.948-0.54-5.408,0.713-5.514-1.831
		c-0.107-2.568,0.47-6.078,2.95-7.817c2.415-1.693,3.655-4.128,5.426-6.224c1.002-0.393,2.003-0.785,3.004-1.177
		c1.69,1.412,2.282,0.071,2.916-1.163l-0.022,0.011c1.076,0.209,1.833,0.748,1.986,1.914c-0.912,3.408-1.824,6.816-2.736,10.225
		C176.22,210.803,178.175,214.38,176.467,215.984z"/>
	<path fill="#53213F" d="M107.739,266.212c0.916-1.032,1.832-2.063,2.747-3.095c1.15-0.246,2.009-0.754,1.913-2.123l-0.018-0.005
		c0.784,0.243,2.093,0.287,2.272,0.76c2.067,5.457,6.724,4.303,10.848,4.341c9.786,0.089,19.573,0.047,29.36,0.135
		c1.682,0.015,3.836-0.704,4.504,1.89c-1.318,0.037-2.636,0.075-3.955,0.113c-11.977-0.014-23.954-0.028-35.931-0.042
		c-1.011,0.03-2.021,0.06-3.032,0.09c-0.332-0.004-0.664-0.008-0.996-0.012c-1.351,0.202-2.701,0.405-4.052,0.607
		C111.467,266.213,109.814,265.921,107.739,266.212z"/>
	<path fill="#38162A" d="M155.411,268.227c1.319-0.038,2.637-0.075,3.955-0.113c0.03,0.384,0.06,0.768,0.09,1.154
		c-1.224,2.788-3.67,1.823-5.612,1.573c-10.636-1.372-21.317-0.587-31.962-0.553c-3.407,0.011-6.774,2.38-10.512,1.73
		c-0.124-0.333-0.247-0.666-0.371-0.999c0.134-0.715,0.268-1.431,0.402-2.147c1.351-0.203,2.701-0.406,4.052-0.609
		c0.332,0.004,0.664,0.008,0.996,0.013c1.011-0.03,2.021-0.06,3.031-0.09c5.143,1.961,10.493,0.851,15.716,0.796
		C141.928,268.911,148.743,270.167,155.411,268.227z"/>
	<path fill="#6F2C54" d="M140.493,228.11c-1.101,1.958-2.203,3.917-3.304,5.875c-0.491,0.006-0.981,0.013-1.471,0.019
		c0.881-2.912,1.76-5.824,2.641-8.735c0.028-0.4,0.055-0.8,0.083-1.2c0.656-0.045,1.312-0.091,1.968-0.135
		c1.665,0.026,3.329,0.051,4.994,0.077l0.225,0.197c-1.078,0.999-1.054,3.718-3.915,1.768
		C140.324,225.029,140.658,227.192,140.493,228.11z"/>
	<path fill="#53213F" d="M212.522,269.192c-2.527,3.599-7.272,3.629-9.172,0.06C206.407,269.233,209.464,269.212,212.522,269.192z"
		/>
	<path fill="#53213F" d="M198.529,269.24c-2.41,2.713-4.788,2.928-7.125-0.089C193.779,269.182,196.154,269.211,198.529,269.24z"/>
	<path fill="#38162A" d="M222.465,269.979c-2.232,1.338-4.393,2.131-6.076-0.783C218.45,269.175,220.595,268.511,222.465,269.979z"
		/>
	<path fill="#53213F" d="M273.441,269.043c-1.67,3.037-3.328,3.045-4.975-0.02C270.129,267.804,271.784,268.757,273.441,269.043z"/>
	<path fill="#53213F" d="M110.206,261.918c-0.251,0.042-0.501,0.086-0.751,0.133c0.37-1.816,0.729-3.64,3.038-3.971
		c-0.037,0.97-0.075,1.94-0.112,2.91l0.018,0.005C111.515,260.938,110.728,261.112,110.206,261.918z"/>
	<path fill="#53213F" d="M114.466,257.1c0.042-1.309,0.724-1.979,2.026-2.028C116.342,256.274,115.66,256.942,114.466,257.1z"/>
	<path fill="#53213F" d="M116.465,255.099c0.046-1.313,0.815-1.899,2.039-2.027C118.342,254.268,117.673,254.954,116.465,255.099z"
		/>
	<path fill="#53213F" d="M112.454,258.096c0.471-0.753,1.178-1.036,2.034-1.022C114.068,257.928,113.372,258.232,112.454,258.096z"
		/>
	<path fill="#53213F" d="M165.659,207.968c-0.094-0.611-0.188-1.222-0.282-1.832C166.43,206.599,166.336,207.239,165.659,207.968z"
		/>
	<path fill="#9A1809" d="M119.454,252.097c0.369-0.35,0.738-0.699,1.108-1.049C120.193,251.398,119.823,251.747,119.454,252.097z"/>
	<path fill="#9A1809" d="M118.448,253.105c0.348-0.348,0.695-0.696,1.042-1.044C119.143,252.409,118.796,252.757,118.448,253.105z"
		/>
	<path fill="#53213F" d="M104.448,272.053c-0.06,0.097-0.12,0.193-0.18,0.29c0.064-0.093,0.127-0.186,0.191-0.279L104.448,272.053z"
		/>
	<path fill="#38162A" d="M152.58,303.162c2.073-4.542,7.054-6.665,11.262-4.913c1.856,0.773,1.495,2.323,1.639,3.742
		c-3.272,0.199-7.034-2.685-9.667,1.537c0,0-0.135,0.075-0.137,0.071C154.645,303.45,153.612,303.306,152.58,303.162z"/>
	<path fill="#38162A" d="M155.814,303.528c2.633-4.222,6.394-1.338,9.667-1.537c0.634,0.046,1.268,0.093,1.902,0.139
		c0.158,1.161,0.814,1.835,1.976,2.011c0.008,0.659,0.016,1.318,0.023,1.977c-0.326,0.309-0.65,0.618-0.974,0.927
		C165.365,301.74,160.606,302.576,155.814,303.528z"/>
	<path fill="#53213F" d="M174.594,297.573c-0.202-0.153-0.402-0.307-0.602-0.461c0.189-0.163,0.365-0.349,0.577-0.473
		c0.05-0.029,0.33,0.175,0.317,0.224C174.823,297.109,174.699,297.338,174.594,297.573z"/>
	<path fill="#38162A" d="M169.359,304.141c-1.162-0.176-1.817-0.85-1.976-2.011C168.677,302.176,169.346,302.836,169.359,304.141z"
		/>
	<path fill="#53213F" d="M110.998,271.019c0.124,0.333,0.248,0.667,0.371,0.999c-0.339,0.576-0.008,1.524-0.971,1.752
		C110.255,272.778,110.242,271.815,110.998,271.019z"/>
	<path fill="#53213F" d="M152.58,303.162c1.032,0.144,2.064,0.288,3.098,0.437c-0.508,0.721-1.234,0.694-1.984,0.582
		C153.322,303.841,152.951,303.501,152.58,303.162z"/>
	<path fill="#6F2C54" d="M175.373,322.001c0.376,0.019,0.751,0.038,1.127,0.057c-0.623,1.89-1.585,3.744-1.789,5.678
		c-0.295,2.801,1.08,5.68,4.075,4.751c3.371-1.046,7.521-2.013,8.723-6.423c0.663,0.004,1.326,0.008,1.99,0.011
		c0.63,2.506,1.401,5.364,4.75,4.119c2.744-1.021,4.869-0.616,7.459,0.333c1.743,0.638,5.604,0.692,4.505-2.328
		c-0.89-2.448-0.181-3.681,0.68-5.256c1.226-2.244,2.873-4.274,3.41-7.476c-4.537,1.228-8.703-1.774-12.863,0.52
		c0.344-1.322,1.28-1.816,2.562-1.9c4.804-0.316,9.781,1.033,15.18-2.89c-1.496,4.566-6.058,6.942-2.713,10.896
		c-0.062,1.059-0.774,1.607-1.614,2.055c-0.941,0.028-2.198-0.432-2.601,0.725c-0.392,1.126,0.87,1.109,1.556,1.426
		c0.099,1.136-0.095,2.407,0.353,3.383c1.218,2.653,3.536,2.838,5.819,1.699c3.736-1.865-0.047-2.217-0.763-3.161
		c-1.018-1.343-0.327-2.601,0.387-3.635c2.508-3.628,4.423-7.68,7.639-10.805c0.277,1.688,0.198,3.296-0.823,4.781
		c-1.243,1.808-1.399,3.755-0.225,5.626c1.773,2.825,1.669,5.239-1.06,7.439c-3.094,2.495-6.391,4.888-10.308,2.342
		c-3.283-2.134-6.26-2.733-9.667-0.742c-0.416,0.243-1.077,0.633-1.348,0.476c-5.645-3.273-10.658,2.052-16.297,1.072
		c-5.961-1.037-9.781,4.111-14.446,6.693c-2.889,1.598-5.438,2.38-8.197,0c-1.784-1.539-3.988-1.41-6.162-1.467
		c-4.776-0.125-9.604,0.611-14.21-1.666c-1.743-0.861-3.767-0.11-5.743,0.652c-3.968,1.53-7.949-2.111-7.212-6.261
		c0.707-3.984,4.118-2.298,6.367-3.049c-0.806,1.348-3.553,1.57-2.825,3.551c0.531,1.445,2.613,1.745,4.218,1.689
		c8.357-0.29,16.59,0.757,24.84,1.907c4.135,0.576,8.219-0.168,11.933-2.511c-4.608-0.695-9.183,0.289-13.685-0.574
		c0.355-0.572,0.71-1.144,1.066-1.716c4.807,1.295,8.682-0.099,11.631-4.077C172.547,325.982,173.948,323.983,175.373,322.001z"/>
	<path fill="#6F2C54" d="M293.487,314.021c1.374,0.044,2.747,0.088,4.121,0.131c-2.529,2.829-2.346,5.974-1.265,9.336
		c0.456,1.417,0.466,2.996-0.925,4.114c-0.627,0.504-1.399,0.41-1.655-0.248c-0.587-1.51-1.274-2.397-2.868-1.156
		c-0.981,0.763-1.583,1.752-1.171,3.038c0.477,1.489,1.688,1.886,3.116,1.988c4.865,0.346,8.95-3.978,8.255-8.758
		c-0.215-1.475-0.464-2.953-0.543-4.437c-0.055-1.036,0.386-2.081,1.384-2.464c1.388-0.532,1.539,0.676,1.878,1.612
		c0.588,1.619,1.806,1.919,3.179,1.114c1.551-0.909,1.874-2.398,0.88-3.833c-0.635-0.915-1.731-1.51-2.62-2.249
		c3.665-1.188,3.92,2.309,5.491,3.997c-1.418,5.095-5.346,8.863-7.245,13.704c-2.858,4.124-7.015,3.814-11.095,2.947
		c-3.802-0.808-7.39-1.488-11.109,0.484c-1.869,0.99-8.716-3.523-9.017-5.753c-0.291-2.156,2.265-1.474,2.979-2.698
		c0.001,0.001,0.34,0.273,0.34,0.273c-0.37,2.979,0.305,5.466,3.715,5.87c3.725,0.441,6.302-1.312,8.228-4.438
		c-1.771-1.211-2.01,0.026-2.62,0.394c-1.331,0.802-2.706,1.312-4.211,0.522c-0.811-0.426-1.227-1.206-0.928-2.068
		c0.606-1.747,1.882-2.598,3.784-2.617c0.977-0.01,1.946-0.382,2.929-0.455c4.969-0.367,6.897-3.213,6.57-7.943
		C293.206,314.293,293.347,314.157,293.487,314.021z"/>
	<path fill="#6F2C54" d="M245.362,322.019c-0.98,2.072-2.002,4.125-2.917,6.225c-0.34,0.78-1.506,1.74-0.168,2.498
		c1.172,0.663,2.252,0.124,2.884-1.058c1.241-2.321,2.226-4.811,3.713-6.957c1.701-2.454,3.121-5.348,7.22-4.765
		c2.512,0.357,3.514-1.429,2.427-3.926c2.185-0.63,4.278-0.058,6.374,0.481c-0.932,4.004-1.654,8.105-5.02,11
		c-0.056-0.326-0.05-0.68-0.179-0.975c-0.868-1.988,3.566-3.599,0.528-5.538c-1.263-0.806-8.598,4.026-8.725,5.711
		c-0.259,3.428-2.672,5.638-4.42,8.138c-1.211,1.731-3.359,2.814-5.584,1.089c-1.927-1.495-2.755-3.346-1.213-5.594
		C241.814,326.114,242.106,322.87,245.362,322.019z"/>
	<path fill="#6F2C54" d="M259.519,326.099c0.172,1.6-3.108,3.165-0.525,4.54c2.049,1.091,3.027-1.284,4.11-2.703
		c2.485-3.257,3.971-7.352,7.939-9.368c3.147-1.599,2.922,0.257,2.493,2.371c-4.121,2.928-5.642,8.008-9.335,11.288
		c-2.376,2.11-6.376,1.687-8.108-0.838C254.351,328.85,255.745,326.697,259.519,326.099z"/>
	<path fill="#6F2C54" d="M308.171,329.767c2.456-4.999,4.629-10.211,10.326-14.488c-0.302,4.18-2.474,6.019-3.32,8.399
		c-0.467,1.313-2.054,2.548-0.884,4.053c1.067,1.372,2.667,0.923,4.137,0.544c0.634-0.163,1.297-0.216,1.947-0.319
		c-0.588,3.435-1.84,5.25-5.515,2.718C312.895,329.319,310.37,330.376,308.171,329.767z"/>
	<path fill="#6F2C54" d="M275.399,320.807c0.848-1.023,1.919-1.936,2.496-3.095c1.021-2.051,0.478-4.136-2.066-3.544
		c-3.524,0.819-6.886-0.448-10.302,0.045c0.234-1.635,1.337-2.133,2.803-2.091c5.05,0.143,10.156-0.601,15.12,0.932l0.011,0.009
		c0.715,0.368,1.429,0.736,2.144,1.104c-4.173,2.902-7.177,6.869-10.007,10.994c0,0-0.339-0.272-0.34-0.273
		C275.304,323.528,275.351,322.168,275.399,320.807z"/>
	<path fill="#6F2C54" d="M320.365,327.974c-2.321-6.063,5.279-9.838,3.631-15.745c0.313,0.095,0.738,0.092,0.926,0.301
		C327.727,315.648,324.522,326.466,320.365,327.974z"/>
	<path fill="#6F2C54" d="M323.466,312.048c-4.376,0.597-4.91-1.204-3.099-4.748c1.183-2.314,2.872-4.441,3.055-7.189
		c1.196,0.822,2.152,2.154,1.331,3.321C322.821,306.177,323.697,309.158,323.466,312.048z"/>
	<path fill="#6F2C54" d="M249.441,306.099c0.343-0.28,0.686-0.561,1.03-0.841c1.173,0.298,3.057-0.654,3.4,0.938
		c0.348,1.614-0.928,2.966-2.414,3.827C251.413,308.393,250.144,307.391,249.441,306.099z"/>
	<path fill="#6F2C54" d="M283.45,313.055c3.471-0.986,7.011-2.682,10.036,0.966c-0.14,0.136-0.281,0.272-0.422,0.406
		c-1.882-1.181-4.038-1.08-6.124-1.304c-1.16-0.02-2.32-0.04-3.48-0.059C283.461,313.064,283.45,313.055,283.45,313.055z"/>
	<path fill="#D1C1B1" d="M154.484,308.123c0.418-0.327,0.837-0.653,1.256-0.98C155.322,307.47,154.903,307.796,154.484,308.123z"/>
	<path fill="#DCC9B9" d="M147.46,311.132c-0.294,0.312-0.588,0.625-0.881,0.937C146.872,311.757,147.166,311.445,147.46,311.132z"/>
	<path fill="#CB4B55" d="M307.457,330.146c0.179-0.259,0.426-0.383,0.738-0.375C308.176,330.341,307.975,330.553,307.457,330.146z"
		/>
	<polygon fill="#CB3938" points="125.366,372.381 125.692,372.576 125.335,372.715 	"/>
	<path fill="#E1D1C2" d="M257.342,411.938c-0.001-0.002,0.116,0.128,0.116,0.127"/>
	<path fill="#DCC9B9" d="M257.361,394.241c0.236-0.72,0.429-1.974,1.365-1.409c1.156,0.698,0.281,1.644-0.446,2.336
		C257.973,394.86,257.667,394.551,257.361,394.241z"/>
	<path fill="#38162A" d="M328.445,462.548c-1.3,4.005-5.504,2.345-8.672,2.651c-1.923,0.186-3.874,0.09-5.809,0.121
		c-0.172-0.374-2.17-0.799-0.285-1.098c12.046-1.913,12.068-1.835,12.255-14.533c0.016-1.065,1.827-6.411,2.652-6.667
		C329.803,446.623,328.316,458.188,328.445,462.548z"/>
	<path fill="#53213F" d="M320.623,443.383c0.464-0.067,0.927-0.135,1.386-0.202c1.465-0.005,3.009,0.39,4.263-0.786
		c3.769,0.258,1.985,2.227,1.197,3.889C326.496,442.228,322.633,444.993,320.623,443.383z"/>
	<path fill="#38162A" d="M326.272,442.395c-1.255,1.176-2.798,0.781-4.263,0.786c0.472-1.082,1.673-0.678,2.421-1.192
		C325.044,442.124,325.658,442.26,326.272,442.395z"/>
	<path fill="#D1C1B1" d="M326.505,424.078c-1.325-1.395-0.281-1.746,0.897-2.038C327.102,422.719,326.803,423.398,326.505,424.078z"
		/>
	<path fill="#E1D1C2" d="M201.149,170.544c1.281-3.988,2.053-8.282,6.309-10.478c4.834-0.741,2.337,2.149,1.973,3.982
		c-1.529,0.054-3.087,0.142-3.646,1.925c-0.332,1.058,0.113,1.982,1.064,2.537c1.466,0.855,2.905,0.42,4.25-0.33
		c2.067-1.152,3.917-2.525,4.38-5.077c0.991-0.018,1.982-0.037,2.974-0.055c1.236,3.47,3.056,1.376,4.566,0.373
		c2.693-1.788,5.481-4.105,7.284-6.261c2.329-2.783,6.81-4.497,7.26-7.451c1.053-6.909,4.669-12.881,5.872-19.622
		c2.663-0.003,4.828-0.839,4.066,4.042c-0.448,2.868-0.24,6.198-1.13,9.226c-1.22,4.152-1.768,8.031-7.562,9.656
		c-4,1.122-7.037,6.038-8.725,10.643c-0.55,1.5-0.814,3.015,0.905,3.91c1.41,0.733,3.088,0.885,4.153-0.419
		c3.268-4.001,7.266-3.319,11.399-2.054c2.741,0.839,5.55,0.836,8.376,1.023c12.192,0.809,24.374,1.78,36.554,2.76
		c1.533,0.123,2.96,0.024,4.416-0.435c2.272-0.716,3.553,0.083,3.592,2.561c-18.894,0.054-37.788,0.098-56.682,0.182
		c-1.78,0.008-3.678-0.444-5.266,0.852c-12.125,0.658-24.221,0.087-36.305-0.912C201.246,170.926,201.22,170.732,201.149,170.544z"
		/>
	<path fill="#DCC9B9" d="M243.435,130.089c-1.202,6.741-4.818,12.713-5.872,19.622c-0.45,2.953-4.931,4.667-7.26,7.451
		c-1.804,2.156-4.592,4.473-7.284,6.261c-1.511,1.003-3.33,3.097-4.566-0.373c2.834-2.216,7.417-2.891,7.009-7.961
		c1.91-3.328,5.914-5.037,6.98-9.02c2.784-1.993,4.595-4.353,3.018-7.992c2.676-2.032,2.775-5.015,2.944-7.972
		C240.08,130.099,241.757,130.094,243.435,130.089z"/>
	<path fill="#E1D1C2" d="M250.975,130.608c4.455-1.063,8.721-0.329,12.927-0.49c0.85-0.033,1.902,0.203,1.831,1.174
		c-0.046,0.632-0.847,1.364-1.487,1.773C260.959,135.169,254.448,134.057,250.975,130.608z"/>
	<path fill="#E1D1C2" d="M317.272,168.003c0.395,2.467-0.943,3.154-3.107,3.113c-3.577-0.067-7.156-0.071-10.734-0.101
		c0.857-2.837,3.22-2.872,5.53-2.927C311.731,168.022,314.502,168.028,317.272,168.003z"/>
	<path fill="#E1D1C2" d="M316.661,160.003c1.239,1.934,0.697,4.035,0.572,6.097C314.432,164.313,315.096,162.2,316.661,160.003z"/>
	<path fill="#38162A" d="M201.149,170.544c0.071,0.188,0.097,0.382,0.078,0.582c-2.831-0.126-3.256,2.287-4.341,4.052
		c-1.331,2.162-2.048,5.062-5.467,4.925c0.703-1.364,1.407-2.729,2.11-4.093c2.108-1.311,2.261-3.596,2.823-5.677
		c0.344-0.065,0.688-0.13,1.031-0.194C198.638,170.274,199.893,170.409,201.149,170.544z"/>
	<path fill="#6F2C54" d="M190.445,195.101c-2.918,1.218-7.487-0.352-8.082,4.787c-0.153-1.166-0.91-1.705-1.986-1.914
		c1.678-1.972,3.357-3.944,5.035-5.916C185.918,195.011,189.252,193.284,190.445,195.101z"/>
	<path fill="#6F2C54" d="M196.351,170.333c-0.563,2.081-0.715,4.366-2.823,5.677c-2.648,1.876-4.678,1.131-6.406-1.4
		c-0.634-0.928-1.831-1.703-1.28-2.94c0.889-1.994,1.801,0.079,2.712,0.174c2.364,0.247,2.38,0.18,0.896-4.608
		c0.621-0.014,1.241-0.028,1.861-0.042c0,0,0.02-0.03,0.021-0.031c0.388,0.234,0.775,0.469,1.162,0.704
		C193.78,168.689,195.066,169.511,196.351,170.333z"/>
	<path fill="#D1C1B1" d="M188.424,166.035c0.211-0.395,0.422-0.79,0.633-1.185c0.201,0.185,0.402,0.37,0.603,0.555
		c-0.387,0.223-0.774,0.446-1.161,0.669C188.499,166.073,188.424,166.035,188.424,166.035z"/>
	<path fill="#D1C1B1" d="M235.459,138.076c1.577,3.639-0.234,5.999-3.018,7.992c-2.55,1.298-4.954,1.861-7.679,0.035
		c-1.753-1.175-3.853-2.337-3.051-4.416c0.916-2.376,0.754-5.734,4.127-6.683c2.345-0.66,4.818-1.941,6.326,1.364
		C232.803,137.769,234.07,138.066,235.459,138.076z"/>
	<path fill="#DCC9B9" d="M215.479,163.104c-0.462,2.552-2.313,3.925-4.38,5.077c-1.345,0.75-2.783,1.185-4.25,0.33
		c-0.952-0.555-1.396-1.479-1.064-2.537c0.559-1.783,2.117-1.872,3.646-1.925C211.871,166.449,213.357,162.743,215.479,163.104z"/>
	<path fill="#C0A697" d="M192.494,167.867c-0.387-0.235-0.774-0.47-1.162-0.704C191.719,167.398,192.107,167.633,192.494,167.867z"
		/>
	<path fill="#D1C1B1" d="M42.423,83.967c-0.289-0.29-0.578-0.581-0.866-0.871C41.846,83.387,42.134,83.677,42.423,83.967z"/>
	<path fill="#6F2C54" d="M145.277,217.99c0.042,2.007,0.084,4.013,0.126,6.02c-1.665-0.025-3.329-0.05-4.994-0.077
		C140.997,221.105,142.63,219.132,145.277,217.99z"/>
	<path fill="#38162A" d="M138.441,224.069c-0.027,0.4-0.055,0.8-0.083,1.2c-0.325-0.128-0.649-0.256-0.973-0.384
		C137.571,224.396,137.375,223.415,138.441,224.069z"/>
	<path fill="#C52C23" d="M121.459,241.071c0.328-0.445,0.658-0.421,0.989-0.004l0.016-0.019c-0.343-0.002-0.686-0.003-1.029-0.005
		L121.459,241.071z"/>
	<path fill="#38162A" d="M121.435,241.043c0.343,0.002,0.686,0.003,1.029,0.005c-0.172,0.374-0.344,0.747-0.515,1.121
		C121.777,241.793,121.606,241.418,121.435,241.043z"/>
	<path fill="#53213F" d="M106.517,266.077c0.331,0.092,0.662,0.184,0.993,0.278C107.046,266.738,106.716,266.643,106.517,266.077z"
		/>
	<path fill="#53213F" d="M110.206,261.918c0.522-0.805,1.309-0.98,2.194-0.923c0.096,1.369-0.764,1.876-1.913,2.123
		C110.393,262.717,110.299,262.317,110.206,261.918z"/>
	<path fill="#6F2C54" d="M222.176,448.216c4.119,0.079,8.237,0.159,12.356,0.239c0.223,0.514,1.963,1.164,0.146,1.538
		c-5.607,1.155-11.217,2.754-16.978,0.471c-1.314-0.521-4.534-0.401-5.998-0.545c0.083-0.576,1.796-1.094,1.88-1.669
		C216.446,448.239,219.311,448.227,222.176,448.216z"/>
	<path fill="#6F2C54" d="M212.401,449.989c-0.726,1.542-2.047,2.016-3.628,2.018c-4.754,0.005-9.508,0.006-14.262,0.016
		c-1.401,0.003-2.624-0.267-3.081-1.836C198.419,450.026,221.524,444.339,212.401,449.989z"/>
	<path fill="#6F2C54" d="M127.335,470.721c-5.166,0.02-10.332,0.039-15.497,0.058c5.148-1.597,10.431-0.305,15.632-0.736
		C127.443,470.273,127.398,470.499,127.335,470.721z"/>
	<path fill="#6F2C54" d="M179.105,464.637c0.27-2.223,0.54-4.447,0.811-6.67c1.197-0.612,2.393-1.224,3.59-1.837
		c-0.04,1.296-0.153,2.594-0.108,3.888c0.168,4.842,1.172,5.487,6.051,3.976c0.216,0.078,0.44,0.113,0.67,0.107
		c1.595,1.456,3.443,0.87,5.246,0.65c-1.21,1.972-2.255,2.843-5.095,1.835c-2.955-1.049-6.511-0.41-9.804-0.509l-0.042-0.044
		c-0.276-0.276-0.551-0.552-0.827-0.828C179.429,465.018,179.265,464.829,179.105,464.637z"/>
	<path fill="#6F2C54" d="M173.439,456.056c-0.055,1.294-0.109,2.589-0.165,3.884c-0.183,4.208,1.365,6.267,5.833,4.699
		c0.159,0.19,0.323,0.379,0.489,0.563c0.275,0.276,0.552,0.553,0.829,0.83l0.042,0.044c-1.319,3.019-3.654,2.645-6.006,1.653
		c-1.735-0.731-3.346-1.754-5.013-2.647c3.902-3.11,1.732-6.811,1.008-10.37C172.146,453.614,172.428,455.644,173.439,456.056z"/>
	<path fill="#6F2C54" d="M215.206,464.945c0.205-0.618,0.409-1.237,0.615-1.855c1.75,1.243,3.737,0.981,5.696,0.9l0.007,0.007
		C220.642,468.765,220.642,468.765,215.206,464.945z"/>
	<path fill="#53213F" d="M270.233,461.906c0.118-1.12,0.236-2.24,0.407-3.858c1.291,2.827,2.491,3.905,3.231-1.038
		c0.498,2.323,0.747,3.484,0.998,4.643C273.325,461.735,271.779,461.821,270.233,461.906z"/>
	<path fill="#6F2C54" d="M167.521,456.116c-0.119,1.404,1.384,2.492,0.776,3.991c-1.136-0.146-2.393-0.18-2.638-1.652
		C165.428,457.062,166.186,456.328,167.521,456.116z"/>
	<path fill="#6F2C54" d="M180.761,452.093c0.452,0.426,0.736,0.695,1.02,0.963c-0.312,0.235-0.597,0.56-0.948,0.667
		c-0.182,0.056-0.71-0.331-0.688-0.421C180.236,452.938,180.478,452.612,180.761,452.093z"/>
	<path fill="#53213F" d="M268.192,456.113c0.175,1.912,0.35,3.823,0.526,5.734C266.615,460.112,267.267,458.125,268.192,456.113z"/>
	<path fill="#6F2C54" d="M189.766,456.004c-0.438-0.643-0.875-1.285-1.313-1.927c1.004,0.007,2.008,0.013,3.012,0.02
		c-0.456,0.632-0.911,1.264-1.365,1.895C190.101,455.992,189.766,456.004,189.766,456.004z"/>
	<path fill="#6F2C54" d="M168.454,455.036c-0.313,0.358-0.625,0.716-0.938,1.074C167.618,455.568,167.275,454.638,168.454,455.036z"
		/>
	<path fill="#53213F" d="M249.397,463.16c0.558-0.203,1.117-0.407,1.673-0.612C250.955,463.956,250.286,463.859,249.397,463.16z"/>
	<path fill="#8C5676" d="M283.124,211.829c1.357-0.842,2.852-0.803,4.36-0.678C286.803,216.338,284.508,211.157,283.124,211.829z"/>
	<path fill="#38162A" d="M177.483,199.126c0.821-0.766,1.755-1.25,2.916-1.163C179.765,199.197,179.173,200.538,177.483,199.126z"/>
	<path fill="#8C5676" d="M268.413,195.888c-0.173,1.197-0.411,2.573-2.014,2.759c-0.977,0.113-1.395-0.685-1.185-1.617
		c0.271-1.203,0.148-2.813,1.88-2.951C267.986,194.007,268.404,194.861,268.413,195.888z"/>
	<path fill="#6F2C54" d="M155.411,268.227c-6.668,1.94-13.483,0.684-20.216,0.754c-5.222,0.054-10.573,1.165-15.716-0.796
		C131.457,268.199,143.434,268.213,155.411,268.227z"/>
	<path fill="#CB4B55" d="M116.448,268.275c-0.332-0.005-0.664-0.009-0.996-0.013C115.785,268.267,116.116,268.271,116.448,268.275z"
		/>
	<path fill="#6F2C54" d="M187.509,326.064c-1.193-0.097-2.262,0.109-3.209,0.954c-1.67,1.488-3.986,2.076-5.303,0.36
		c-1.47-1.916,0.607-3.622,1.938-5.02c1.599-1.678,4.055-3.999,5.732-2.92c1.676,1.078,3.671,3.671,2.832,6.638
		C188.835,326.072,188.172,326.068,187.509,326.064z"/>
	<path fill="#53213F" d="M210.856,324.146c-0.349,0.716-0.697,1.433-1.045,2.15c-0.685-0.316-1.948-0.299-1.556-1.425
		C208.657,323.714,209.915,324.175,210.856,324.146z"/>
	<path fill="#6F2C54" d="M234.138,304.951c0.118-2.074-1.599-4.424-3.671-4.821c-8.771-1.682-12.821,4.586-17.199,10.893
		c-0.413-0.2-0.867-0.358-1.364-0.459c-0.159-2.859-2.491-5.451-6.095-4.434c-4.784,1.35-9.539,3.306-14.078,5.732
		c0.612-3.545-3.767-7.18-7.617-5.227c-2.5,1.268-5.126,3.181-7.577,5.476c-0.287-0.07-0.584-0.129-0.899-0.159
		c-2.088-0.199-4.184-0.258-6.28-0.213c0.145-0.411,0.253-0.838,0.28-1.287c0.483-7.98-4.584-14.015-12.829-12.321
		c-2.694,0.553-4.334,3.875-3.45,6.413c-1.898,0.65-3.778,1.286-5.55,1.587c-2.533,0.43-3.547,2.308-3.513,4.322
		c-3.841,0.548-7.404,2.077-8.975,5.475c-0.908,1.965-1.147,3.66-0.906,5.137c-1.111,0.515-2.215,1.036-3.3,1.569
		c-2.223,1.092-2.793,3.637-2.165,5.796c-1.932,1.604-3.347,3.979-4.133,7.192c-0.69,2.824,0.881,5.183,3.492,6.151
		c15.451,5.726,30.19,3.473,45.861,0.104c7.89-1.696,15.352-4.448,23.172-6.305c3.219-0.765,6.612-0.946,10.05-0.921
		c0.975,0.397,2.054,0.491,3.075,0.122c0.044-0.016,0.088-0.034,0.132-0.05c4.076,0.143,8.159,0.42,12.038,0.228
		c2.175-0.107,4.291-1.439,4.821-3.671c0.422-1.778,0.649-3.502,0.679-5.329c0.045-2.785-2.31-4.922-5-5
		c-0.349-0.01-0.694-0.009-1.037,0.001c0.933-0.621,1.808-1.198,2.52-1.731C229.521,315.555,233.772,311.388,234.138,304.951z"/>
	<path fill="#6F2C54" d="M286.94,313.123c-0.445,0.348-0.89,0.696-1.336,1.045c-0.715-0.368-1.429-0.736-2.144-1.104
		C284.621,313.084,285.781,313.103,286.94,313.123z"/>
	<path fill="#C0A697" d="M151.411,141.048c1.53-0.334,3.776-3.498,4.074,1.032C153.943,142.461,152.519,142.377,151.411,141.048z"/>
	<path fill="#E1D1C2" d="M78.683,194.127c0.233,0.356,0.465,0.713,0.698,1.069C79.148,194.84,78.916,194.484,78.683,194.127z"/>
	<path fill="#C52C23" d="M180.424,466.032c-0.277-0.277-0.554-0.554-0.829-0.83C179.873,465.479,180.149,465.756,180.424,466.032z"
		/>
</g>
<g id="Layer_2">
	<g id="Layer_2_1_">
		<g>
			<path fill="#EDD6E4" d="M130.535,287.957c0-1.1,0.9-2,2-2h182.493c1.1,0,2,0.9,2,2v171.967c0,1.1-0.9,2-2,2H132.535
				c-1.1,0-2-0.9-2-2V287.957z"/>
			<path fill="none" stroke="#38162A" stroke-width="5" stroke-miterlimit="10" d="M130.535,287.957c0-1.1,0.9-2,2-2h182.493
				c1.1,0,2,0.9,2,2v171.967c0,1.1-0.9,2-2,2H132.535c-1.1,0-2-0.9-2-2V287.957z"/>
		</g>
		<rect x="137.195" y="294.31" fill="#EDD6E4" stroke="#333032" stroke-miterlimit="10" width="174.197" height="31.184"/>
		<rect x="137.195" y="332.177" fill="#EDD6E4" stroke="#333032" stroke-miterlimit="10" width="174.197" height="120.281"/>
		<rect x="136.683" y="357.235" fill="#333032" width="174.197" height="4.455"/>
		<rect x="136.683" y="425.172" fill="#333032" width="174.197" height="6.682"/>
		<line fill="none" stroke="#333032" stroke-miterlimit="10" x1="137.707" y1="422.388" x2="311.904" y2="422.388"/>
		<line fill="none" stroke="#333032" stroke-miterlimit="10" x1="137.707" y1="420.16" x2="311.904" y2="420.16"/>
		<text transform="matrix(1.053 0 0 1 144.538 316.5476)" fill="#333032" font-family="'MyriadPro-Bold'" font-size="21.1606">BRONT   FACTS</text>
		<rect x="136.683" y="320.483" fill="#333032" width="174.197" height="4.455"/>
	</g>
</g>
</svg>
