<?xml version="1.0" encoding="utf-8"?>
<!-- Generator: Adobe Illustrator 17.0.0, SVG Export Plug-In . SVG Version: 6.00 Build 0)  -->
<!DOCTYPE svg PUBLIC "-//W3C//DTD SVG 1.1//EN" "http://www.w3.org/Graphics/SVG/1.1/DTD/svg11.dtd">
<svg version="1.1" id="Layer_1" xmlns="http://www.w3.org/2000/svg" xmlns:xlink="http://www.w3.org/1999/xlink" x="0px" y="0px"
	 width="218.714px" height="324.637px" viewBox="-0.125 -0.005 218.714 324.637"
	 enable-background="new -0.125 -0.005 218.714 324.637" xml:space="preserve">
<g id="Layer_5">
	<g>
		<path fill="#6F2C54" d="M217.356,131.007c0.021-0.557,0.021-0.557,0.021-0.557c-0.024-0.61-1.393-1.102-3.043-1.092l-210.32,1.278
			c-1.65,0.01-2.992,1.368-2.982,3.018l1.142,187.997c0.01,1.65,1.368,2.992,3.018,2.982l210.415-1.279
			c1.65-0.01,2.992-1.368,2.982-3.018l-1.126-185.29c-0.01-1.65-0.064-3.308-0.121-3.683
			C217.342,131.363,217.342,131.363,217.356,131.007z"/>
	</g>
	<path fill="#53213F" d="M213.967,133.95c-1.048-3.325-3.764-4.438-7.079-3.308c-3.904,1.332-7.711-0.287-11.57-0.241
		c-1.249,0.015-1.755-1.348-2.005-2.547c-8.251,0.688-16.501,1.649-24.756,0.05c-1.638,3.047-3.282,3.065-4.934,0.01
		c-5.871,1.194-11.9-0.099-17.613,0.494c-9.377,0.972-18.75-1.552-28,0.739c-2.206,1.351-4.344,2.158-6.031-0.746
		c-1.278,0.008-2.556,0.014-3.834,0.019c-2.484,3.613-7.189,3.672-9.095,0.115c-1.594,0.007-3.186,0.011-4.78,0.017
		c-2.372,2.727-4.729,2.957-7.066-0.046c-10.562,0.104-21.123,0.207-31.683,0.311c-1.197,2.793-3.628,1.844-5.556,1.605
		c-10.556-1.308-21.143-0.459-31.7-0.36c-3.379,0.032-6.703,2.421-10.414,1.793c-0.332,0.578,0.002,1.524-0.952,1.758
		c0.001-0.001-0.272,0.179-0.272,0.179c-2.899,0.767-5.212,1.951-6.242,4.094c0.002,0.479,0.004,0.959,0.018,1.439
		c0.027,0.954-0.173,1.764-0.527,2.437c0.042,0.353,0.099,0.716,0.182,1.1c0.102,0.475,0.092,0.975,0.052,1.483
		c-0.039,0.498-0.107,1.004-0.124,1.497c0.249,6.456,0.542,12.91,0.738,19.366c0.31,10.259,0.998,20.518,0.148,30.784
		c0.316,4.725,0.63,9.451,0.946,14.177c0.936,1.492,0.959,2.994,0.046,4.502c0.115,6.251-1.402,12.623,1.303,18.694
		c1.182-3.73,0.577-7.592,0.221-11.28c-0.454-4.711,1.271-9.191,0.602-13.975c-0.266-1.904,2.583-4.334,4.178-6.395
		c1.691-2.185,2.189-4.236,0.744-6.849c-1.324-2.392-2.107-4.958,1.229-6.772c0.641-0.349,1.012-1.735,1.017-2.645
		c0.018-3.533,1.316-6.19,4.701-7.44c1.75-0.647,1.836-2.651,3.181-3.622c1.384,0.996-0.588,3.383,1.452,3.745
		c2.224,0.396,1.769-1.991,2.431-3.107c1.024-1.728,2.635-2.44,4.222-3.309c2.167-1.185,4.484-2.075,6.272-3.937
		c4.907-5.111,7.877-5.484,13.746-1.911c1.567,0.143,2.133-1.089,2.856-2.107c-0.37-0.338-0.74-0.675-1.11-1.012
		c2.029-4.554,6.955-6.707,11.139-4.981c1.845,0.762,1.496,2.314,1.648,3.732c0.629,0.043,1.257,0.086,1.886,0.13
		c1.284,0.038,1.952,0.694,1.973,1.999c0.012,0.659,0.024,1.317,0.035,1.977c2.787,0.149,4.938-1.004,5.795-3.666
		c0.756-2.346,2.193-2.529,4.192-2.266c4.131,0.545,8.49-0.05,12.128,2.794c0.762,0.595,2,0.925,2.521-0.346
		c2.113-5.154,6.234-3.926,10.102-3.252c2.218,0.386,4.284,0.995,5.164-2.023c0.153-0.526,0.985-1.331,1.327-1.25
		c6.483,1.526,11.344-5.112,17.821-3.549c1.395,0.338,2.433-0.786,3.631-1.288c1.905-0.799,3.663-1.377,6.069-0.925
		c4.999,0.94,10.392,2.668,14.961-1.642c0.454-0.43,1.212-0.971,1.7-0.864c9.485,2.091,18.841-1.891,28.304-0.582
		c0.941,0.13,2.215,0.151,2.876-0.37c8.06-6.363,18.893-3.233,27.377-8.202C211.47,137.052,215.209,137.891,213.967,133.95z
		 M69.458,157.036c-0.205-0.152-0.406-0.305-0.607-0.457c0.188-0.164,0.363-0.35,0.574-0.477c0.05-0.029,0.331,0.173,0.318,0.222
		C69.683,156.571,69.56,156.8,69.458,157.036z"/>
	<path fill="#E9DBD4" d="M123.451,64.626c0.025,4.05-9.912,6.343-13.962,6.368l-0.333,0.002c-4.05,0.025-13.006-0.898-13.03-4.948
		l5.311-58.673c-0.025-4.05,3.238-7.353,7.288-7.377l0.333-0.002c4.05-0.025,7.353,3.238,7.377,7.288L123.451,64.626z"/>
	<path fill="#C0A697" d="M113.56,55.23c0.004,0.588-3.576-0.239-4.335-0.235l0,0c-0.759,0.005-3.663,0.61-3.667,0.022l1.87-48.948
		c-0.004-0.588,0.735-1.068,1.494-1.073l0,0c0.759-0.005,1.503,0.467,1.506,1.055L113.56,55.23z"/>
	<g>
		<path fill="#6F2C54" d="M217.408,129.601c-0.15-1.534-0.481-3.202-0.738-3.707c-0.256-0.504-3.867-4.224-7.961-7.007
			l-92.443-62.85c-4.094-2.783-10.764-2.743-14.824,0.09L8.17,121.215c-4.06,2.833-7.415,6.037-7.457,7.12
			c-0.042,1.084-0.152,3.997-0.129,4.067c0.022,0.07,4.127,0.23,9.077,0.2l198.7-1.207c4.95-0.03,8.995-0.154,8.988-0.276
			c0,0,0,0,0.004-0.112C217.408,129.601,217.408,129.601,217.408,129.601z"/>
	</g>
	<path fill="#53213F" d="M113.968,94.967c-6.383,1.044-11.938,4.358-17.456,7.106c-4.681,2.331-10.964,2.656-15.917,4.658
		c-2.371,0.958-4.927,0.733-7.241,1.47c-3.375,1.075-7.053,3.156-10.515,4.508c-2.738,1.07-4.859,2.19-6.495,4.364
		c-2.078,2.763-4.165,3.569-7.592,4.485c-2.677,0.715-4.864,1.325-7.373,2.411c-3.005,1.301-5.612,1.12-8.781,1.48
		c-3.866,0.438-6.983,1.866-10.685,2.834c-1.365,0.356-2.788,0.199-4.24,0.508c-1.507,0.32-2.674,1.547-4.166,1.793
		c-1.807,0.298-4.005-0.831-5.837-0.233c-1.343,0.438-2.153,1.818-3.663,2.033c5.58-0.028,11.128-0.367,16.692-0.35
		c3.596,0.01,8.058,2.324,11.502,1.679c2.068-0.388,4.332,0.421,6.666-0.29c3.594-1.094,10.641,1.845,13.895-0.029
		c5.397-3.11,26.392,2.295,32.703,2.246c6.094-0.046,14.695-10.98,20.166-13.873c3.355-1.773-9.204-2.697-8.355-6.655
		c-1.425-0.476,15.807,3.859,14.699,2.867c3.492-3.018,10.387-0.006,13.054-3.823c1.823-2.609,1.55-2.551,4.602-3.715
		c2.376-0.905-5.393-4.514-2.933-5.051c1.901-0.415,18.522,4.054,19.706,2.227c-2.506-2.485-30.137-10.826-33.188-12.896"/>
	<path fill="#38162A" d="M0.662,132.657c0.07,0.248,0.12,0.501,0.155,0.758c4.61,1.542,13.5,0.368,17.531,0.478
		c6.559,0.179,11.58,3.938,18.15,3.732c7.646-0.239,15.714-2.076,23.243-3.025c9.232-1.165,17.513-0.46,26.913-0.525
		c12.629-0.086,25.423,0.259,37.989-0.526c3.307-0.206,5.843-1.185,8.804-1.699L0.662,132.658L0.662,132.657z"/>
	<path fill="#38162A" d="M134.221,131.721c-0.264,0.037-0.518,0.084-0.774,0.129l8.404-0.051
		C139.166,131.529,136.475,131.407,134.221,131.721z"/>
	<path fill="#38162A" d="M217.356,131.007c0.013-0.351,0.012-0.701,0.004-1.051c-3.739-1.428-8.858-2.262-14.223-2.866
		c2.507,1.214,4.815,2.757,5.16,4.305l9.065-0.055C217.358,131.229,217.351,131.119,217.356,131.007z"/>
	<path fill="#38162A" d="M181.063,119.93c-3.196-0.935-5.911-1.973-9.221-2.614c-6.727-1.303-12.11-4.506-18.198-7.256
		c-8.277-3.738-34.473-18.765-43.675-15.132c-4.069,1.607,16.131,5.917,18.404,6.109c3.795,2.562-5.524,2.784,0.085,4.542
		c6.702,2.101,13.104,2.396,19.304,5.178c3.204,1.437,6.27,1.915,9.644,3.12c2.684,0.96,4.397,2.552,6.82,3.728
		c2.622,1.272,5.699,1.366,8.523,2.006c3.263,0.739,5.101,4.33,8.364,5.037c5.245,1.137,13.909,1.528,22.025,2.44
		c-1.85-0.896-3.808-1.613-5.167-2.018C192.303,123.382,186.716,121.583,181.063,119.93z"/>
	<path fill="#38162A" d="M141.851,131.799c2.736,0.275,5.463,0.706,7.715,0.994c6.768,0.867,12.678,2.436,19.559,2.55
		c5.069,0.084,10.167-0.062,15.238-0.093c5.845-0.036,14.909,1.553,20.298-0.368c2.978-1.061,3.906-2.276,3.635-3.488
		L141.851,131.799L141.851,131.799z"/>
	<path fill="#53213F" d="M113.451,88.288c-0.52-4.625-0.275-9.758-2.043-14.149c-0.718-1.782-1.666-3.157-2.262-4.944
		c-1.133-3.406,1.848-13.139-1.556-15.692c-1.024,0.946-4.145,6.749-5.431,7.471c-2.646-1.728-4.51,1.14-6.291,2.44
		c-2.808,2.048-6.794,3.277-9.788,5.378c-1.251,0.878-2.467,2.495-3.679,3.153c-1.968,1.069-3.814,3.819-5.988,4.65
		c-4.268,1.633-14.354,5.982-17.391,8.88c-8.421,8.033-18.164,13.097-28.649,19.836c-2.925,1.88-21.678,16.577-29.646,22.966
		c-0.045,1.111-0.101,2.222-0.156,3.332c14.337,1.659,50.301-5.229,64.242-20.202c6.723-7.221,27.344-12.975,38.443-14.296
		c6.254-0.744,4.241-5.484,10.406-6.441C113.644,89.952,113.732,88.979,113.451,88.288z"/>
	<path fill="#53213F" d="M216.51,125.653c-7.89-5.377-29.61-18.966-32.534-20.889c-10.132-6.662-19.525-11.652-27.707-19.62
		c-2.95-2.873-12.66-7.148-16.766-8.749c-2.091-0.815-3.901-3.55-5.799-4.605c-1.168-0.649-2.358-2.257-3.567-3.125
		c-2.896-2.076-6.725-3.277-9.442-5.304c-1.724-1.287-3.553-4.138-6.053-2.393c-1.24-0.712-4.319-6.49-5.313-7.429
		c-3.211,2.576-0.201,12.282-1.228,15.694c-0.539,1.791-1.423,3.172-2.079,4.958c-1.616,4.401-1.297,9.529-1.718,14.155
		c-0.257,0.692-0.157,1.664-0.165,2.382c5.908,0.912,4.063,5.664,10.051,6.363c10.629,1.239,29.984,7.368,38.364,12.267
		c18.635,10.892,52.13,20.591,64.686,18.65c-0.034-0.4-0.071-0.8-0.107-1.2C216.875,126.455,216.668,126.065,216.51,125.653z"/>
	<path fill="#38162A" d="M69.642,108.339c-5.993,1.023-10.547,6.357-15.872,9.107c-4.197,2.167-9.05,3.639-13.389,5.76
		c-7.929,3.877-18.406,3.939-27.213,5.018l-12.536,2.187c-0.013,0.265-0.026,0.529-0.039,0.794
		c7.517,1.781,30.923-5.546,36.621-6.142c6.094-0.637,10.477-2.52,15.904-5.121c3.779-1.81,7.787-5.797,11.902-6.54
		c0.587-1.854,2.01-1.32,3.714-1.743c1.786-0.443,3.296-0.99,5.072-1.728c3.297-1.37,6.7-2.045,10.235-2.725
		c2.745-0.529,4.117-1.761,5.378-3.164C82.26,106.023,74.919,107.438,69.642,108.339z"/>
	<path fill="#38162A" d="M93.998,99.93c-2.212,1.198-3.34,2.739-4.578,4.116c7.086-1.957,13.987-4.465,18.536-7.573
		C104.114,98.107,96.162,98.757,93.998,99.93z"/>
	<path fill="#38162A" d="M110.301,94.926c-0.041-6.823-0.484-13.432-0.789-20.058c-0.249-5.419-1.275-12.417-0.723-17.485
		c4.67,0.608,4.827,37.828,1.179,37.545"/>
</g>
<g id="Layer_2">
	
		<rect x="17.782" y="150.001" transform="matrix(-1 0.0061 -0.0061 -1 218.9537 457.3376)" fill="#EDD6E4" width="182" height="158"/>
	
		<rect x="23.933" y="157.499" transform="matrix(-1 0.0061 -0.0061 -1 218.9055 342.3338)" fill="#EDD6E4" stroke="#333032" stroke-miterlimit="10" width="170" height="28"/>
	
		<rect x="24.382" y="191.498" transform="matrix(-1 0.0061 -0.0061 -1 220.2544 490.327)" fill="#EDD6E4" stroke="#333032" stroke-miterlimit="10" width="170" height="108"/>
	<rect x="23.703" y="214.002" transform="matrix(-1 0.0061 -0.0061 -1 218.7167 431.3388)" fill="#333032" width="170" height="4"/>
	<rect x="24.08" y="275.001" transform="matrix(-1 0.0061 -0.0061 -1 219.8469 555.3331)" fill="#333032" width="170" height="6"/>
	<line fill="none" stroke="#333032" stroke-miterlimit="10" x1="25.048" y1="273.011" x2="195.045" y2="271.978"/>
	<line fill="none" stroke="#333032" stroke-miterlimit="10" x1="25.036" y1="271.011" x2="195.033" y2="269.978"/>
	<text transform="matrix(1.1445 -0.007 0.0061 1 31.1363 177.9389)" fill="#333032" font-family="'MyriadPro-Bold'" font-size="19">BRONTË   FACTS</text>
	<rect x="23.503" y="181.002" transform="matrix(-1 0.0061 -0.0061 -1 218.1151 365.3419)" fill="#333032" width="170" height="4"/>
</g>
</svg>
