<?xml version="1.0" encoding="utf-8"?>
<!-- Generator: Adobe Illustrator 17.0.0, SVG Export Plug-In . SVG Version: 6.00 Build 0)  -->
<!DOCTYPE svg PUBLIC "-//W3C//DTD SVG 1.1//EN" "http://www.w3.org/Graphics/SVG/1.1/DTD/svg11.dtd">
<svg version="1.1" id="Layer_2" xmlns="http://www.w3.org/2000/svg" xmlns:xlink="http://www.w3.org/1999/xlink" x="0px" y="0px"
	 width="336.857px" height="478.553px" viewBox="0 0 336.857 478.553" enable-background="new 0 0 336.857 478.553"
	 xml:space="preserve">
<path fill="#E1D1C2" d="M231.422,413.29c-1.442,10.913-0.975,21.888-0.994,32.847c-0.663,0.042-1.327,0.084-1.991,0.126
	c-0.972-1.083-1.879-2.234-2.928-3.236c-2.436-2.329-4.434-5.28-8.812-3.07c-1.783,0.9-5.158,1.291-5.327-2.73
	c3.161-2.252,7.894-3.728,5.929-9.021c-1.232-3.317-2.299-6.778-3.39-10.07c-1.371-4.136-2.972-8.181-4.468-12.269
	c-0.335-0.916-0.336-2.474-1.444-2.242c-4.215,0.882-9-1.38-12.712,2.306c-1.171,1.163-2.491,2.564-4.279,2.199
	c-7.184-1.466-14.446,0.698-21.644-0.638c-2.577-0.478-5.294-0.201-7.947-0.269l-25.92,12.788c-0.692-2.064-6.538-18.4-7.23-20.465
	c1.393-4.349,29.254-5.282,26.995-8.079c0.601-3.698,3.812-0.139,5.529-2.357c-3.812-4.543-10.383-2.344-14.765-5.97
	c2.679-1.706,5.639-0.579,8.369-0.94c5.251-0.618,4.242-14.677,9.203-13.482c8.706,2.097,23,16.672,31.111,13.327
	c3.211-1.324,4.861,0.025,6.426,2.681c2.682,4.551-21.996-7.518-15.801-8.516c1.825,5.67,20.496,4.58,20.643,2.854
	c0.437-5.147,14.452,2.481,14.418-2.809c3.674-0.015,7.347-0.03,11.02-0.045"/>
<path fill="#D1C1B1" d="M110.874,374.037c0.471-0.132,0.447-0.563-0.033-0.651c-0.776-0.143-1.623-0.409-2.29,0.37
	C109.266,374.435,110.099,374.255,110.874,374.037z"/>
<path fill="#E1D1C2" d="M123.404,129.213c11.371,0.093,22.027-3.992,33.748-5.484c-1.774-2.103-4.131-2.662-5.552-2.243
	c-4.83,1.426-9.954-0.573-14.824,2.5c-4.384,2.766-9.861,3.939-15.359,3.23c-2.661-0.009-5.321-0.019-7.981-0.029
	c2.596-2.07,5.978-1.222,8.947-2.148c3.559-1.11,6.954-4.547,9.384-4.31c8.553,0.833,13.735-5.748,20.772-8.02
	c6.404-2.068,12.877-4.99,18.867-8.491c5.393-2.249,10.906-4.254,16.149-6.812c6.349-3.098,16.693,0.034,18.623,6.339
	c0.839,2.743,2.32,4.683,4.272,6.501c-0.115,1.505,1.167,2.007,2.022,2.816c-6.643-0.175-4.263,6.653-7.237,9.326
	c-2.055-3.109-1.662-6.658-1.907-10.121c-0.597-8.416-4.924-11.501-12.752-8.208c-10.455,4.397-19.697,11.057-28.684,17.867
	c-4.041,3.061-4.531,8.73-6.541,13.259c-0.444,0.208-1.218,0.341-1.284,0.634c-2.138,9.513-9.363,16.484-12.652,25.41
	c-2.427,0.587-3.994-1.399-6.02-2.012c-0.01-1.325-0.021-2.65-0.032-3.974c-0.203-0.804-0.488-1.599-0.591-2.416
	c-0.214-1.702-2.213-3.49-0.422-5.057c1.555-1.36,3.005,0.516,4.527,0.934c2.861,0.785,5.957-0.959,5.883-3.127
	c-0.188-5.469,3.752-9.04,5.015-13.753c1.06-3.955,0.143-4.806-3.771-3.775c-7.075,1.863-14.374,2.467-21.636,3.214
	c-1.346,0.009-2.692,0.019-4.038,0.028c-6.901-1.904-13.996-0.533-20.968-1.242c0.014-0.618,0.029-1.234,0.043-1.85
	c0.343-0.011,0.685-0.021,1.028-0.031C108.127,127.699,115.701,129.88,123.404,129.213z"/>
<path fill="#C0A697" d="M312.356,60.996c-2.655,6.934-7.461,12.904-9.465,20.19c-0.12,0.434-1.058,0.643-1.615,0.957
	c-0.356-0.81,0.896-1.948-0.519-2.542c0.905-6.674,4.921-12.037,7.831-17.808c2.054-4.075,2.474-8.871,5.669-12.417
	c0.581-0.645,1.245-1.754,0.265-2.639c-0.82-0.741-1.895-0.558-2.78-0.052c-2.437,1.392-4.946,2.588-7.695,3.223
	c-0.05-2.866,2.36-4.582,3.269-6.995c0.911-2.418,1.266-4.359-2.543-3.164c-1.37,0.43-2.914,0.305-4.379,0.433
	c-0.025-2.93,1.292-5.435,2.531-7.963c3.267-6.665,6.728-13.244,9.731-20.025c1.535-3.466,2.527-7.086,5.111-10.085
	c1.912-2.219,4.05-2.375,6.205-1.333c3.715,1.796,7.338,3.841,10.792,6.1c2.248,1.47,2.882,2.936,0.924,6.034 M327.364,19.748
	c0.284-2.284,0.86-4.299,2.455-5.784c3.429-3.193,2.564-5.243-1.417-6.814c-1.368-0.54-2.665-1.26-3.995-1.897
	c-0.955-0.927-1.621-1.533-2.343,0.391c-3.1,8.261-6.713,16.281-11.035,24.006c-0.962,1.719-3.794,4.639,0.358,6.552
	C318.862,35.712,326.309,28.215,327.364,19.748z"/>
<path fill="#C0A697" d="M298.502,52.425c-1.566,7.313-6.029,13.381-8.722,20.218c-1.431,3.633-3.433,7.037-5.077,10.591
	c-0.375,0.809-1.044,2.128,0.101,2.631c1.511,0.664,3.225,0.649,4.607-0.647c0.661-0.003,1.323-0.006,1.985-0.009
	c-2.823,3.217-1.786,7.182-2.113,10.883c-1.704,0.329-3.409,0.657-5.115,0.985c-0.199-0.933-0.582-1.87-0.554-2.795
	c0.057-1.849,2.623-3.6,0.976-5.334c-1.523-1.603-4.015-0.531-6.08-0.631c3.375-12.079,9.082-23.143,14.877-34.169
	C295.092,53.574,296.797,53,298.502,52.425z"/>
<path fill="#C0A697" d="M248.999,113.092c8.418,0.526,16.493,0.216,20.276-9.385c0.207-0.524,0.956-0.836,1.452-1.246
	c1.999,3.982,3.462-1.928,5.334-0.289c2.401-0.189,2.68,0.368,1.682,2.751c-1.544,3.686-5.498,6.444-4.508,11.138
	c-20.245-1.212-40.461-2.994-60.764-2.999c-0.854-0.81-2.136-1.312-2.021-2.817C223.358,110.408,236.139,112.287,248.999,113.092z"
	/>
<path fill="#38162A" d="M294.668,97.145c-2.7,1.698-15.9,3.328-18.603,5.027c-1.875-1.64-3.338,4.27-5.337,0.288
	c0.309-0.663,0.619-1.325,0.928-1.988c0.955-0.513,1.358-1.366,1.473-2.396c0.128-3.018,1.99-5.212,3.585-7.533
	c0.267-0.414,0.534-0.827,0.801-1.24c0.001,0-0.01,0.012-0.01,0.012c0.328-0.343,0.656-0.685,0.984-1.028l0.021,0.03
	c2.065,0.1,23.37-10.397,24.893-8.794"/>
<path fill="#38162A" d="M294.299,52.124c1.426-0.565,1.062-1.824,1.131-2.916c1.047-2.25,2.094-4.499,3.141-6.749
	c0.266-0.412,0.531-0.824,0.797-1.235c0,0.001,0.039-0.055,0.039-0.055c0.32-0.319,0.641-0.639,0.962-0.958l0.024-0.03
	c1.465-0.128,22.643-6.787,24.013-7.217c3.809-1.195-3.09,8.582-4.001,11c-0.909,2.413-16.409,3.077-16.359,5.943
	c-0.25,0.008-0.464,0.099-0.643,0.274c-1.911,0.141-3.334,1.351-4.902,2.243c-1.704,0.576-3.409,1.15-5.114,1.724
	C293.691,53.473,293.995,52.798,294.299,52.124z"/>
<path fill="#C0A697" d="M295.43,49.207c-0.069,1.092,0.295,2.351-1.131,2.916C294.385,51.038,294.434,49.939,295.43,49.207z"/>
<path fill="#C0A697" d="M273.128,98.076c-0.115,1.03-0.518,1.883-1.473,2.396C271.525,99.291,271.937,98.444,273.128,98.076z"/>
<path fill="#C0A697" d="M277.515,89.303c-0.268,0.413-0.534,0.827-0.801,1.24C276.981,90.129,277.248,89.716,277.515,89.303z"/>
<path fill="#C0A697" d="M278.488,88.287c-0.328,0.342-0.656,0.685-0.984,1.028C277.833,88.972,278.161,88.629,278.488,88.287z"/>
<path fill="#C0A697" d="M299.368,41.224c-0.265,0.412-0.531,0.823-0.797,1.235C298.837,42.047,299.102,41.636,299.368,41.224z"/>
<path fill="#C0A697" d="M300.369,40.211c-0.32,0.319-0.641,0.639-0.962,0.958C299.728,40.849,300.049,40.53,300.369,40.211z"/>
<path fill="#6F2C54" d="M286.442,171.349c-6.32,8.742-17.825,29.429-22.841,38.907c-0.89,1.68-1.663,3.241-3.545,3.913
	c-5.161,1.842-7.319,7.874-13.393,9.006c-2.319,0.433-3.537,4.833-4.171,8.676c0.024-6.919-4.968-7.479-9.462-8.699
	c-1.436-0.39-2.246-1.641-2.349-2.972c-0.266-3.435-1.572-6.538-5.068-8.299c-0.311-0.157-6.355-45.746-6.32-46.167
	 M225.502,180.352c-0.541-3.048-3.638-5.748-1.254-9.195 M220.129,166.928c-0.725,6.274-1.67,11.97,0.556,17.863
	c1.894,5.014,0.491,10.491,1.544,15.774c2.747,13.791,3.334,27.92,6.521,41.696c1.556,6.725,1.055,13.929,4.969,20.083
	c-0.264,0.623-0.529,1.245-0.793,1.868c-0.868-0.004-1.735-0.007-2.603-0.011c-0.317-0.004-0.632-0.021-0.947-0.053
	c-0.314-0.315-0.629-0.631-0.943-0.946l0.005-0.02c0.33-2.325,0.918-4.657-0.207-6.938c-0.237-0.355-0.473-0.71-0.71-1.065
	c-1.102-10.192-2.888-20.243-5.23-30.243c-1.839-7.848-2.627-15.942-3.933-23.918c-0.153-0.936-0.631-1.82-0.958-2.726
	c-1.994-14.201-4.041-28.394-6.807-42.473c-0.346-1.761-0.31-3.597-0.451-5.398c1.73-2.856,6.348-4.692,3.033-9.367
	c-0.491-0.693,1.551-0.549,2.304-1.044c5.19,0.117,10.38,0.233,15.57,0.349c6.413,0.553,12.824,1.136,19.241,1.651
	c14.124,1.132,28.251,2.218,42.373,3.368c0.942,0.076,1.853,0.535,2.779,0.816c-0.158,1.596-0.441,3.452-2.6,2.095
	c-4.773-3.001-10.008-1.874-15.099-2.07c-2-0.077-4.612-0.236-4.631,2.456c-0.018,2.482,2.6,1.105,3.996,1.586
	c0.456,0.157,0.913,0.312,2.678,0.914c-5.332,0.823-6.967,3.145-6.497,7.606c0.633,6.016,3.776,8.413,8.482,4.869
	c3.495-2.632,4.498-1.017,5.95,1.53c-0.083,2.127-2.922,3.683-1.279,6.168 M235.954,145.263c-2.304-2.07-5.337-3.099-7.554-1.682
	c-3.813,2.436-7.896,2.724-12.18,2.838c0.015,0.594,0.031,1.188,0.046,1.782c5.05,0,10.101,0,15.151,0
	c-0.084,1.581-2.559,2.958-0.191,4.785c1.834,1.415,3.663,1.564,5.565,0.595c4.057-2.066,7.789-2.571,11.073,1.43
	c0.927,1.131,2.613,1.627,3.504,0.388c1.719-2.389,2.564-5.316,5.635-6.768c0.817-0.386-0.333-2.389-1.644-2.246
	c-4.031,0.439-7.182-2.321-10.963-2.72c-2.237-0.236-4.552-0.803-3.884,2.766c0.39,2.085-1.113,1.688-2.126,1.733
	c-2.327,0.104-4.662,0.05-6.993,0.06C231.714,145.619,234.41,146.747,235.954,145.263z M219.822,159.114
	c0.096,0.259,0.99,0.545,1.185,0.394c2.176-1.684,2.815-3.85,1.702-7.023C220.185,154.492,218.793,156.344,219.822,159.114z
	 M216.786,157.445c0.323-0.22,0.471-0.845,0.502-1.302c0.031-0.45-0.115-1.149-0.815-0.654c-0.351,0.249-0.463,0.836-0.637,1.179
	C215.909,157.384,216.243,157.815,216.786,157.445z M212.788,153.467c0.044-0.078-0.056-0.236-0.092-0.358
	c-0.121,0.067-0.286,0.107-0.348,0.21c-0.043,0.072,0.056,0.228,0.092,0.347C212.561,153.603,212.732,153.568,212.788,153.467z
	 M223.308,143.877l0.345-0.179l-0.349-0.175L223.308,143.877z"/>
<path fill="#E9DBD4" d="M205.71,129.349c-0.379-2.285-0.328-4.642-0.477-6.965c2.973-2.671,0.593-9.499,7.235-9.323
	c20.304,0.005,40.52,1.788,60.764,2.999c3.726,0.068,7.453,0.137,11.179,0.205c3.002,0.247,5.92,1.367,8.994,0.879
	c2.343,0.342,4.887-0.645,7.022,1.066c-0.027,0.659-0.055,1.318-0.082,1.977c-0.817,0.265-1.874,0.715-1.702,1.56
	c1.095,5.373-3.979,7.709-6.502,10.079c-2.036,1.913-7.054,3.3-11.145,2.73c-1.513-0.21-3.094-0.686-4.272,0.47
	c-3.607,3.538-8.124,2.853-12.568,3.295c-11.018,1.096-22.015,2.212-33.106,2.037c-5.192-0.117-10.382-0.233-15.572-0.349
	C207.26,138.351,207.21,138.359,205.71,129.349z"/>
<path fill="#53213F" d="M265.456,212.137c-6.391,10.918-12.784,21.836-19.176,32.754c-0.972,0.859-1.186,2.007-1.23,3.22
	c-0.351,0.243-0.702,0.485-1.052,0.728c-1.909-0.795-2.5,0.521-3.28,1.868c-2.269,3.918-4.663,7.763-7.005,11.637
	c-3.911-6.154-3.41-13.359-4.966-20.084c-3.186-13.776-3.774-27.905-6.521-41.696c-1.053-5.284,0.349-10.761-1.544-15.774
	c-2.225-5.893-1.28-11.589-0.556-17.863c1.655,1.224,2.474,2.699,4.209,2.309l0,0c-0.054,0.654,0.265,1.35,0.211,2.005l-0.298-0.084
	c-2.384,3.447,0.713,6.147,1.254,9.195c0.086,0.803,0.173,1.606,0.261,2.408c-1.523,9.262,0.881,18.512,0.12,27.777
	c-0.034,0.42,0.191,1.116,0.502,1.273c3.495,1.761,4.03,4.934,4.296,8.369c0.103,1.331,0.913,2.582,2.349,2.972
	c4.494,1.221,9.486,1.78,9.462,8.699c0.634-3.843,1.852-8.244,4.171-8.676c6.074-1.131,8.232-7.164,13.393-9.006
	c1.883-0.672,2.655-2.232,3.545-3.913c5.016-9.478,16.521-30.165,22.841-38.907"/>
<path fill="#E1D1C2" d="M297.357,146.009c-0.638,0.062-1.276,0.123-1.914,0.185c-0.925-0.281-1.836-0.739-2.778-0.816
	c-14.122-1.15-28.25-2.235-42.373-3.368c-6.417-0.515-12.828-1.099-19.239-1.651c11.091,0.174,22.089-0.941,33.106-2.037
	c4.444-0.442,8.961,0.243,12.568-3.295c1.178-1.156,2.759-0.681,4.272-0.47c4.09,0.569,9.108-0.817,11.145-2.73
	c2.523-2.37,7.596-4.707,6.502-10.079c-0.173-0.845,0.884-1.295,1.702-1.56C299.49,128.811,299.859,137.577,297.357,146.009z"/>
<path fill="#38162A" d="M291.876,161.227c-2.217,0.445-2.822,2.587-4.159,3.953c-1.449-2.548-2.452-4.162-5.947-1.53
	c-4.706,3.545-7.849,1.148-8.482-4.869c-0.47-4.46,1.165-6.783,6.497-7.606c-1.764-0.602-2.222-0.757-2.678-0.914
	c-1.396-0.481-4.014,0.896-3.996-1.586c0.019-2.692,2.631-2.533,4.631-2.456c5.09,0.195,10.326-0.932,15.099,2.07
	c2.158,1.357,2.442-0.499,2.599-2.096c0.638-0.062,1.276-0.123,1.914-0.185C298.055,151.991,294.578,156.47,291.876,161.227z"/>
<path fill="#6F2C54" d="M240.056,257.113c-1.888,2.156-3.501,4.493-4.658,7.128c-1.343,0.625-1.041,2.922-2.984,2.938
	c0.17-0.99,0.339-1.979,0.509-2.969c0.264-0.623,0.529-1.245,0.791-1.868c2.342-3.874,4.736-7.719,7.005-11.637
	c0.78-1.346,1.372-2.663,3.28-1.868C242.746,251.624,240.674,254.022,240.056,257.113z"/>
<path fill="#38162A" d="M286.442,171.349c-1.642-2.486,1.196-4.042,1.276-6.168c1.337-1.367,1.942-3.508,4.159-3.953
	C289.951,164.54,288.94,168.344,286.442,171.349z"/>
<path fill="#A9BAC1" d="M246.891,250.384c0.018,0.043-0.241,0.282-0.296,0.258c-0.224-0.098-0.419-0.263-0.625-0.404
	c0.163-0.186,0.326-0.373,0.501-0.573C246.642,249.943,246.795,250.152,246.891,250.384z"/>
<path fill="#DCC9B9" d="M132.406,401.012c0.692,2.065,28.298,4.129,28.99,6.194c-0.775,0.524-1.742,0.93-1.393,2.162
	c0.032,0.114,0.285,0.274,0.384,0.244c1.268-0.387,0.873-1.508,1.028-2.389c2.654,0.068,5.371-0.208,7.948,0.27
	c7.199,1.336,14.46-0.828,21.644,0.638c1.787,0.365,3.107-1.036,4.279-2.199c3.712-3.686,8.496-1.424,12.712-2.306
	c1.108-0.232,1.109,1.325,1.444,2.242c1.496,4.089,3.096,8.133,4.468,12.269c1.091,3.292,2.158,6.753,3.39,10.07
	c1.965,5.293-2.768,6.769-5.929,9.021c-0.64-0.328-1.281-0.655-1.921-0.983c-0.736-1.103-1.545-2.329-3.07-1.543
	c-1.414,0.728-0.824,2.28-0.977,3.507c-3.328-0.802-6.243,0.89-8.941,2.133c-6.074,2.799-12.82,0.669-18.856,3.171
	c-2.058,0.853-3.134-0.953-3.868-2.286c-1.043-1.895,1.197,4.105-0.241,5.037c-1.703,1.104-4.143,4.915-2.732,6.274
	c1.813,1.747-24.332-3.852-27.105-2.289 M199.234,413.947c1.77,0.144,2.109-1.165,2.114-2.567c0.005-1.309,0.019-2.767-1.767-2.912
	c-1.779-0.144-2.066,1.163-2.129,2.557C197.509,412.336,197.46,413.802,199.234,413.947z M172.108,429.979
	c-0.698-0.682-0.609-2.832-2.23-1.836c-1.453,0.892-1.626,2.575-0.035,3.661c1.346,0.919,1.27,2.615,2.746,3.966
	C173.774,433.377,173.695,431.53,172.108,429.979z M194.141,411.708c-0.945,3.625-0.943,5.459,3.255,6.923
	C196.116,415.908,195.409,414.403,194.141,411.708z"/>
<path fill="#DCC9B9" d="M193.757,373.224c12.635,0.015,25.269,0.034,37.904,0.052c0.034,5.29-4.072,9.286-4.509,14.433
	c-0.146,1.725-1.553,1.346-2.638,1.521c-6.195,0.998-9.431-2.933-12.113-7.484c-1.566-2.656-3.215-4.005-6.426-2.681
	c-8.111,3.344-16.411,4.407-25.117,2.311c-64.487,36.236-60.274-7.76-65.525-7.142"/>
<path fill="#D1C1B1" d="M216.698,439.957c4.378-2.21,6.375,0.742,8.812,3.07c1.049,1.002,1.956,2.153,2.928,3.236
	c-0.04,0.269-0.067,0.54-0.08,0.812c-11.741,3.662-23.909,2.192-35.882,2.74c-7.671,0.351-15.468,1.154-23.128-0.633
	c0,0,0.333,0.002,0.333,0.001c2.772-1.564,2.109-3.413,0.296-5.159c-1.411-1.358-1.554-2.485,0.15-3.589
	c1.438-0.932,2.568-1.102,3.612,0.793c0.734,1.333,1.81,3.139,3.868,2.286c6.036-2.502,12.782-0.372,18.856-3.171
	c2.698-1.244,5.613-2.936,8.941-2.133c2.305,1.314,4.457,2.314,4.046-1.965c0.641,0.329,1.282,0.656,1.922,0.984
	C211.541,441.25,214.916,440.859,216.698,439.957z"/>
<path fill="#C0A697" d="M230.43,446.14c-0.051,6.999-0.103,13.998-0.154,20.996c-0.233,0.07-0.469,0.127-0.709,0.17
	c-0.009-5.063,0.022-10.126-0.049-15.188c-0.025-1.736,0.478-3.652-1.159-5.041c0.013-0.272,0.04-0.543,0.08-0.812
	C229.103,446.223,229.767,446.181,230.43,446.14z"/>
<path fill="#C0A697" d="M36.268,473.793c-4.627-0.136-9.253-0.275-13.88-0.414c-1.54-1.408-3.345-0.943-5.116-0.725
	c-1.32-0.113-2.64-0.227-3.96-0.342c-0.231-0.333-0.463-0.667-0.694-1c0.247-0.702,0.494-1.404,0.741-2.106
	c6.391,1.119,12.773,1.26,19.168,0.022c-4.717,0.339-9.349,0.295-14.089-1.528c3.072-1.21,6.282,0.533,8.941-1.376
	c16.965-0.347,33.843,1.335,50.756,2.169c20.076,0.99,40.145,2.071,60.257,1.81c8.937,1.736,17.954,0.766,26.941,0.806
	c1.378,0.01,2.757,0.019,4.135,0.029c13.305,0.055,26.61,0.11,39.915,0.165c0.066,0.234,0.094,0.473,0.082,0.714
	c-0.808,0.142-1.614,0.286-2.421,0.43c-0.009,0.238-0.017,0.476-0.025,0.714c5.071,0,10.142-0.019,15.212,0.01
	c1.951,0.011,4.008-0.351,5.63,1.231c-0.083,0.321-0.207,0.627-0.367,0.919"/>
<path fill="#C0A697" d="M130.437,478.708"/>
<path fill="#D1C1B1" d="M226.427,471.315c2.248-0.397,3.05-1.925,3.139-4.01c0.24-0.042,0.476-0.099,0.71-0.169
	c0.164,2.744,0.431,5.522-2.415,7.267c-1.622-1.582-3.678-1.22-5.63-1.231c-5.071-0.029-10.141-0.01-15.212-0.01
	c0.009-0.238,0.017-0.476,0.025-0.714c0.807-0.144,1.613-0.288,2.42-0.432C215.112,471.62,220.838,473.105,226.427,471.315z"/>
<path fill="#DCC9B9" d="M36.267,473.794"/>
<path fill="#DCC9B9" d="M17.271,472.655c1.771-0.219,3.576-0.683,5.116,0.725"/>
<path fill="#38162A" d="M235.388,280.255c-1.842,1.562-0.184,4.248-1.881,5.857c-0.042-0.996-0.289-2.034-0.091-2.979
	c1.168-5.566-2.006-7.835-6.681-9.03c1.891-0.631,3.783-1.263,5.675-1.895c0.06,0.097,0.12,0.193,0.18,0.29
	c-0.064-0.093-0.127-0.186-0.191-0.279c0.005-1.68,0.011-3.36,0.016-5.04c1.943-0.016,1.64-2.313,2.984-2.938
	C235.26,269.579,233.829,274.915,235.388,280.255z"/>
<path fill="#53213F" d="M232.881,305.481c-0.25,10.261-0.88,20.524,0.039,30.784c-0.289,4.727-0.578,9.455-0.867,14.182
	c-0.935,1.498-0.949,3-0.019,4.502c-0.078,6.252,1.491,12.614-1.199,18.702c-1.215-3.723-0.628-7.588-0.292-11.278
	c0.429-4.714-1.338-9.183-0.693-13.971c0.256-1.906-2.631-4.318-4.252-6.369c-1.718-2.175-2.234-4.223-0.793-6.844
	c1.32-2.4,2.094-4.971-1.281-6.764c-0.648-0.345-1.032-1.729-1.042-2.639c-0.039-3.533-1.365-6.182-4.786-7.411
	c-1.769-0.636-1.867-2.64-3.23-3.603c-1.389,1.004,0.614,3.379-1.441,3.754c-2.241,0.41-1.796-1.98-2.47-3.092
	c-1.043-1.722-2.672-2.424-4.277-3.283c-2.192-1.172-4.535-2.048-6.349-3.899c-4.979-5.081-7.976-5.436-13.872-1.827
	c-1.579,0.153-2.158-1.076-2.893-2.09c0.371-0.34,0.742-0.679,1.113-1.019c-2.074-4.542-7.054-6.665-11.262-4.913
	c-1.855,0.773-1.494,2.323-1.639,3.742c-0.634,0.047-1.267,0.094-1.901,0.141c-1.295,0.046-1.964,0.706-1.977,2.011
	c-0.008,0.659-0.016,1.317-0.023,1.977c-2.809,0.166-4.985-0.974-5.866-3.631c-0.776-2.341-2.226-2.516-4.241-2.24
	c-4.162,0.57-8.561,0.002-12.212,2.868c-0.764,0.6-2.011,0.937-2.544-0.331c-2.162-5.141-6.31-3.888-10.207-3.191
	c-2.235,0.399-4.314,1.021-5.219-1.992c-0.157-0.525-1.001-1.325-1.346-1.242c-6.528,1.565-11.47-5.043-17.991-3.441
	c-1.405,0.346-2.458-0.771-3.669-1.266c-1.926-0.787-3.702-1.355-6.126-0.888c-5.035,0.97-10.463,2.731-15.096-1.551
	c-0.461-0.427-1.228-0.964-1.719-0.854c-9.551,2.149-19.009-1.776-28.543-0.41c-0.948,0.136-2.233,0.164-2.902-0.353
	c-8.167-6.314-19.07-3.118-27.655-8.036c-1.936-1.109-5.701-0.247-4.473-4.196c1.037-3.331,3.768-4.461,7.118-3.351
	c3.945,1.308,7.773-0.334,11.665-0.311c1.259,0.007,1.762-1.359,2.006-2.559c8.324,0.638,16.649,1.549,24.963-0.1
	c1.67,3.037,3.329,3.045,4.975-0.02c5.927,1.158,11.998-0.171,17.763,0.387c9.461,0.915,18.897-1.666,28.238,0.569
	c2.232,1.338,4.393,2.132,6.076-0.783c1.289,0,2.577-0.002,3.866-0.004c2.527,3.598,7.271,3.628,9.172,0.06
	c1.607-0.003,3.213-0.008,4.82-0.012c2.409,2.713,4.787,2.928,7.125-0.089c10.65,0.04,21.3,0.079,31.949,0.118
	c1.224,2.786,3.669,1.822,5.612,1.571c10.636-1.372,21.317-0.587,31.962-0.553c3.407,0.011,6.774,2.38,10.512,1.73
	c0.339,0.576,0.007,1.524,0.971,1.752c-0.001-0.001,0.275,0.177,0.275,0.177c4.676,1.196,7.85,3.464,6.681,9.03
	c-0.198,0.945,0.049,1.984,0.091,2.979C233.294,292.568,233.038,299.024,232.881,305.481z M162.865,297.267
	c-0.189-0.163-0.365-0.348-0.577-0.473c-0.05-0.029-0.33,0.175-0.317,0.224c0.062,0.246,0.187,0.475,0.29,0.71
	C162.465,297.575,162.665,297.421,162.865,297.267z"/>
<path fill="#6F2C54" d="M0,272.083c7.213,0.275,23.714-11.32,30.904-10.592c0.774,0.079,1.771-1.325,2.27,0.338
	c0.336,1.122-0.289,1.89-1.319,2.345c-1.986,0.878-3.97,1.761-5.955,2.642c4.402,1.685,8.401,2.618,12.553,2.48
	c-0.244,1.2-0.747,2.566-2.006,2.559c-3.892-0.023-7.719,1.619-11.665,0.311c-3.35-1.111-6.082,0.019-7.118,3.351
	c-1.228,3.949,2.537,3.087,4.473,4.196c8.585,4.918,19.488,1.723,27.655,8.036c0.669,0.517,1.955,0.489,2.902,0.353
	c9.534-1.366,18.992,2.559,28.543,0.41c0.491-0.11,1.257,0.427,1.719,0.854c4.634,4.281,10.061,2.52,15.096,1.551
	c2.424-0.467,4.2,0.101,6.126,0.888c1.211,0.495,2.264,1.611,3.669,1.266c6.52-1.602,11.463,5.005,17.991,3.441
	c0.345-0.083,1.188,0.717,1.346,1.242c0.905,3.013,2.984,2.392,5.219,1.992c3.896-0.696,8.045-1.95,10.207,3.191
	c0.533,1.267,1.78,0.931,2.544,0.331c3.651-2.866,8.05-2.297,12.212-2.868c2.015-0.276,3.465-0.101,4.241,2.24
	c0.881,2.656,3.058,3.797,5.868,3.631c0.324,0.309,0.649,0.617,0.973,0.926c-0.245,2.637,1.105,4.327,3.344,5.379
	c1.382,0.65,2.876,0.644,2.465-1.411c-0.396-1.982-2.3-4.086,0.56-5.479c2.354-1.146,4.377,0.344,6.299,1.608
	c0.42,0.327,0.839,0.653,1.258,0.98l-0.035-0.008c1.766,3.467,3.461,6.975,5.907,10.041c0.381,0.642,0.763,1.285,1.144,1.928
	c0.506,4.78,4.758,7.197,6.902,10.943c-6.289-1.374-11.848,2.061-17.831,2.708c-0.356-0.572-0.711-1.144-1.066-1.716
	c3.058-6.975-1.623-15.641-9.185-17.005c-4.603-0.83-6.668,1.315-6.726,6.988c-0.376,0.019-0.751,0.038-1.127,0.057
	c-2.205-2.226-4.118-4.778-7.179-6.007c-4.165-1.672-6.561-0.861-9.157,3.391c-1.544-1.159-3.074-2.307-4.604-3.455
	c-0.344-1.322-1.28-1.816-2.562-1.9c-4.805-0.315-9.781,1.033-15.18-2.89c1.496,4.566,6.058,6.942,2.713,10.896
	c-2.872-6.286-9.286-10.276-11.038-17.392c-0.472-1.915-3.279-2.721-5.034-1.707c-1.801,1.041-0.07,2.589,0.676,3.763
	c1.503,2.364,3.074,4.684,4.618,7.022c-0.276,1.688-0.197,3.296,0.824,4.781c1.243,1.808,1.399,3.755,0.225,5.626
	c-1.773,2.824-1.669,5.238,1.06,7.439c3.094,2.495,6.391,4.888,10.308,2.342c3.283-2.134,6.26-2.733,9.667-0.742
	c0.416,0.243,1.078,0.633,1.348,0.476c5.645-3.272,10.658,2.053,16.297,1.072c5.96-1.036,9.781,4.112,14.446,6.693
	c2.889,1.598,5.438,2.38,8.197,0c1.784-1.539,3.988-1.41,6.162-1.467c4.775-0.125,9.604,0.611,14.21-1.666
	c1.743-0.861,3.767-0.11,5.743,0.652c3.967,1.53,7.949-2.111,7.212-6.261c-0.707-3.984-4.118-2.297-6.367-3.048l-0.073-0.145
	c0.564-2.31,1.089-4.551-1.852-5.813c-1.367-0.586-1.56-1.964-1.683-3.335c-0.152-1.691,0.793-4.422-2.874-3.065
	c-0.756,0.279-1.084-1.074-1.063-1.887c0.08-3.08-1.795-3.495-4.233-3.201c-0.286-0.103-0.582-0.156-0.886-0.159
	c-0.294-0.312-0.587-0.625-0.881-0.937c-0.327-0.353-0.653-0.707-0.98-1.06c-0.652-1.351-2.39-2.027-2.361-3.801
	c5.896-3.609,8.892-3.254,13.872,1.827c1.814,1.851,4.157,2.726,6.349,3.899c1.605,0.859,3.234,1.561,4.277,3.283
	c0.673,1.112,0.228,3.501,2.47,3.092c2.055-0.375,0.052-2.75,1.441-3.754c1.363,0.963,1.461,2.967,3.23,3.603
	c3.421,1.228,4.747,3.877,4.786,7.411c0.01,0.91,0.393,2.294,1.042,2.639c3.375,1.793,2.6,4.363,1.281,6.764
	c-1.441,2.621-0.926,4.669,0.793,6.844c1.621,2.052,4.508,4.464,4.252,6.369c-0.645,4.788,1.122,9.257,0.693,13.971
	c-0.335,3.69-0.922,7.555,0.292,11.275c-1,0.74-2.128,0.889-3.326,0.711c-2.341-1.107-4.805,0.328-7.167-0.345
	c-1.236-1.533-4.501,0.184-4.725-2.732c-0.22-2.869,1.286-4.923,5.145-6.09c-4.006-1.453-7.551-0.522-9.745-4.39
	c-1.126-1.984-5.365,0.096-7.631,1.694c-1.937,1.366-3.828,1.808-6.037,1.707c-8.337-0.381-16.938,1.507-24.803-2.868
	c-0.826-0.46-1.457-0.387-2.296-0.021c-3.208,1.402-6.183,1.021-9.505-0.351c-2.425-1.002-5.543-2.729-8.274-0.018
	c-0.497,0.493-1.345,1.028-1.613,0.259c-1.528-4.396-4.31-1.887-6.321-0.968c-5.69,2.599-11.642,1.89-17.551,1.971
	c-4.291,0.059-8.603-0.247-12.871,0.649c-0.243,1.602,2.818,1.578,1.574,3.625c-1.398,2.3-2.501,0.124-3.727-0.109
	c-3.052-0.58-6.296,0.483-9.254-1.301c-0.87-0.525-1.137,0.856-1.462,1.572c-0.73,1.61-1.903,1.56-3.305,0.94
	c-5.706-2.525-11.43-1.217-17.107,0.09c-1.16,0.267-2.311,0.719-3.387,0.284c-4.873-1.97-9.424,0.729-14.982,0.295
	c2.428,3.591,5.439,3.941,8.227,3.865c10.76-0.292,21.606,1.404,32.273-1.65c2.778-0.795,6.017-0.786,8.423,1.725
	c-7.264,1.175-14.475,2.915-21.93,2.082c-16.736-0.709-33.472-1.417-50.208-2.126c-10.256-1.284-20.58-0.594-30.863-1.074
	c-1.614-0.075-3.363,0.498-4.764-0.833"/>
<path fill="#53213F" d="M131.498,374.468c-2.829,0.028-4.697-2.668-7.526-1.774c-4.103-2.461-8.402-0.029-12.585-0.5
	c-2.406-2.511-5.645-2.52-8.423-1.725c-10.667,3.054-21.513,1.358-32.273,1.65c-2.787,0.075-5.799-0.274-8.227-3.865
	c5.558,0.433,10.108-2.266,14.982-0.295c1.076,0.435,2.228-0.017,3.387-0.284c5.677-1.307,11.401-2.615,17.107-0.09
	c1.401,0.62,2.575,0.669,3.305-0.94c0.324-0.715,0.592-2.097,1.462-1.572c2.959,1.784,6.202,0.721,9.254,1.301
	c1.227,0.232,2.329,2.408,3.727,0.109c1.244-2.046-1.817-2.023-1.574-3.625c4.268-0.896,8.58-0.59,12.871-0.649
	c5.909-0.081,11.861,0.629,17.551-1.971c2.011-0.919,4.793-3.428,6.321,0.968c0.268,0.769,1.116,0.234,1.613-0.259
	c2.731-2.711,5.849-0.984,8.274,0.018c3.322,1.372,6.297,1.753,9.505,0.351c0.838-0.366,1.469-0.439,2.296,0.021
	c7.865,4.375,16.466,2.487,24.803,2.868c2.209,0.101,4.1-0.341,6.037-1.707c2.266-1.598,6.506-3.678,7.631-1.694
	c2.195,3.868,5.739,2.937,9.745,4.39c-3.859,1.166-5.365,3.221-5.145,6.09c0.224,2.916,3.489,1.199,4.725,2.732
	C190.727,374.129,161.111,374.174,131.498,374.468z M211.164,372.731l0.357,0.139l-0.03-0.334L211.164,372.731z M74.164,370.733
	l0.359,0.141l-0.031-0.337L74.164,370.733z"/>
<path fill="#DCC9B9" d="M47.267,446.266c-5.73,0.994-32.879-1.571-38.994-3.088c-1.483-10.723-2.345-47.688-2.594-63.297
	c-1.832-0.009-0.726-7.371-0.394-9.502c7.28-0.046,14.56-0.091,21.837-0.137c16.733,0.709,33.469,1.417,50.205,2.126
	c0.992,0.578,2.44,2.445,2.971,1.643c4.802-7.258,70.278-0.156,69.983,3.536c-0.009,2.98,1.619,69.723,1.581,72.702"/>
<path fill="#DCC9B9" d="M79.399,447.674"/>
<path fill="#38162A" d="M227.508,374.361c-0.967,0.198-1.933,0.562-2.903,0.571c-31.426,0.293-62.851,0.545-94.276,0.83
	c-2.67,0.024-4.936-0.597-6.357-3.069c2.829-0.894,4.698,1.802,7.526,1.774c29.613-0.293,59.228-0.338,88.843-0.451
	C222.703,374.689,225.167,373.254,227.508,374.361z"/>
<path fill="#DCC9B9" d="M110.841,373.386c0.479,0.088,0.504,0.519,0.033,0.651c-0.775,0.218-1.608,0.398-2.323-0.281
	C109.218,372.977,110.064,373.243,110.841,373.386z"/>
<path fill="#38162A" d="M232.034,354.95c-0.93-1.502-0.916-3.004,0.019-4.502C232.046,351.948,232.04,353.447,232.034,354.95z"/>
<path fill="#E9DBD4" d="M98.452,130.261c-1.677-0.006-3.355-0.011-5.032-0.016c-2.663-0.003-4.828-0.84-4.066,4.042
	c0.448,2.868,0.24,6.198,1.13,9.226c1.22,4.152,1.768,8.031,7.562,9.656c4,1.122,7.038,6.038,8.725,10.643
	c0.55,1.5,0.814,3.015-0.905,3.91c-1.41,0.733-3.088,0.885-4.153-0.419c-3.268-4.001-7.266-3.32-11.399-2.054
	c-2.741,0.839-5.55,0.835-8.376,1.023c-12.192,0.809-24.374,1.78-36.554,2.76c-1.533,0.124-2.96,0.024-4.416-0.435
	c-2.272-0.717-3.554,0.083-3.592,2.561c-1.317,0.003-2.634,0.007-3.951,0.011c-0.857-2.837-3.22-2.872-5.53-2.927
	c-2.769-0.066-5.541-0.06-8.311-0.085c0.014-0.634,0.027-1.268,0.041-1.902c2.799-1.788,2.136-3.9,0.571-6.097
	c1.003-3.927-1.106-7.345-1.816-10.989c-1.149-5.898,1.453-11.288,2.2-16.927c3.504-3.566,7.791-4.141,12.632-4.1
	c22.063,0.188,44.128,0.067,66.193,0.057c-0.014,0.616-0.029,1.232-0.043,1.848C99.067,130.15,98.764,130.22,98.452,130.261z
	 M72.954,130.273c-0.85-0.032-1.902,0.203-1.831,1.174c0.046,0.632,0.847,1.363,1.487,1.773c3.288,2.104,9.799,0.991,13.272-2.457
	C81.427,129.701,77.161,130.435,72.954,130.273z"/>
<path fill="#6F2C54" d="M0.001,272.085c0.06-1.257,17.506-98.415,17.566-99.672c24.765-0.033,51.696-1.112,76.461-1.153
	c2.488-0.004,4.976-0.076,7.464-0.117c12.126,0.658,24.221,0.086,36.306-0.912c2.83-0.125,3.255,2.288,4.341,4.052
	c1.331,2.162,2.047,5.061,5.467,4.925c0.734,1.306,1.722,2.353,3.066,3.043c0.389,0.754,0.779,1.507,1.169,2.26
	c0.59,2.218,82.14,82.625,82.73,84.843"/>
<path fill="#C0A697" d="M16.762,152.732c-1.395-5.947-1.306-11.298,0.358-16.917c0.544-1.84,1.173-3.478,3.46-3.571
	c-0.747,5.639-3.349,11.029-2.2,16.927c0.71,3.644,2.819,7.062,1.816,10.989c-1.239,1.933-0.697,4.035-0.572,6.097
	c-0.012,0.634-0.025,1.268-0.039,1.902c-0.395,2.466,0.943,3.154,3.107,3.113c3.577-0.067,7.156-0.07,10.734-0.101
	c1.317-0.004,2.634-0.008,3.951-0.012c18.894,0.054,37.788,0.098,56.682,0.182c1.781,0.007,3.678-0.444,5.266,0.852
	c-2.489,0.041-4.977,0.113-7.465,0.117c-24.765,0.041-49.529,0.07-74.294,0.103C17.396,165.829,18.236,159.008,16.762,152.732z"/>
<path fill="#D1C1B1" d="M123.404,129.213c-7.703,0.667-15.276-1.514-22.971-1.044c0.418-1.905,1.907-1.893,3.404-1.946
	c3.246-0.115,6.466-0.017,9.599,0.964c2.66,0.01,5.321,0.019,7.981,0.029C122.079,127.882,122.741,128.547,123.404,129.213z"/>
<path fill="#C0A697" d="M213.175,141.052c3.315,4.675-1.304,6.511-3.034,9.366c-2.226-9.577-2.231-9.588-11.578-5.501
	c-14.065,6.151-28.11,12.348-42.195,18.454c-2.569,1.114-5.286,1.887-7.935,2.818c-0.211-0.395-0.422-0.79-0.633-1.185
	c-0.201,0.185-0.402,0.37-0.603,0.555c0.387,0.223,0.774,0.446,1.161,0.669c-0.318,0.388-0.635,0.775-0.952,1.163
	c-0.621-0.014-1.241-0.028-1.861-0.042c-0.887-5.016,2.964-8.644,5.228-11.716c4.803-6.516,5.683-13.048,4.579-20.449
	c2.01-4.529,2.5-10.197,6.54-13.259c8.987-6.809,18.229-13.469,28.684-17.867c7.828-3.293,12.155-0.208,12.752,8.208
	c0.246,3.463-0.148,7.013,1.909,10.12c0.148,2.322,0.097,4.679,0.477,6.965c1.496,9.008,1.546,9,9.764,10.658
	C214.726,140.505,212.683,140.36,213.175,141.052z"/>
<path fill="#DCC9B9" d="M126.223,144.036c-0.242-2.642-2.188-4.709-4.793-5.831c-0.019-0.666-0.038-1.333-0.057-2
	c4.815,0.665,3.131-2.609,2.996-4.943c7.262-0.747,14.561-1.351,21.636-3.214c3.914-1.031,4.831-0.181,3.771,3.775
	c-1.263,4.713-5.202,8.285-5.015,13.753c0.074,2.169-3.022,3.912-5.883,3.127c-1.522-0.418-2.972-2.295-4.527-0.934
	c-1.791,1.567,0.208,3.355,0.422,5.057c0.103,0.817,0.388,1.611,0.59,2.416C130.64,152.882,126.773,149.997,126.223,144.036z"/>
<path fill="#C0A697" d="M121.222,158.893c-4.246-0.096-6.169-4.294-9.827-3.65c-1.91-3.329-5.913-5.038-6.979-9.02
	c2.55,1.298,4.954,1.861,7.679,0.035c1.753-1.175,3.853-2.336,3.051-4.416c-0.916-2.375-0.754-5.733-4.127-6.683
	c-2.344-0.66-4.817-1.941-6.326,1.364c-0.64,1.401-1.906,1.698-3.295,1.708c-2.676-2.031-2.775-5.015-2.944-7.972
	c0.311-0.038,0.614-0.109,0.909-0.21c6.972,0.71,14.067-0.662,20.968,1.242c0.011,1.709,0.175,3.387,1.043,4.914
	c0.019,0.666,0.038,1.333,0.057,2C121.198,144.977,117.313,151.582,121.222,158.893z"/>
<path fill="#D1C1B1" d="M126.225,144.036c0.549,5.961,4.416,8.846,9.139,11.206c0.011,1.325,0.021,2.649,0.032,3.974
	c-1.622,2.586-3.96,0.9-5.997,1.006c-4.834-0.742-2.337,2.148-1.972,3.982c-2.44,2.4-3.926-1.306-6.048-0.945
	c-0.992-0.018-1.983-0.037-2.974-0.055c-2.834-2.216-7.417-2.891-7.009-7.961c3.658-0.643,5.581,3.554,9.827,3.651
	c-3.91-7.311-0.025-13.917,0.208-20.689C124.036,139.327,125.982,141.394,126.225,144.036z"/>
<path fill="#D1C1B1" d="M145.525,167.317c-0.387,0.235-0.775,0.469-1.162,0.704c-1.286,0.822-2.571,1.644-3.857,2.466
	c-0.344-0.065-0.688-0.129-1.031-0.194c0.647-3.022,1.294-6.044,1.941-9.066c3.289-8.925,10.514-15.897,12.652-25.409
	c0.066-0.293,0.84-0.426,1.285-0.634c1.104,7.401,0.224,13.933-4.579,20.449c-2.265,3.072-6.116,6.699-5.228,11.716L145.525,167.317
	z"/>
<path fill="#DCC9B9" d="M136.776,123.985c4.87-3.073,9.994-1.075,14.824-2.5c1.421-0.419,3.778,0.14,5.552,2.243
	c-11.721,1.493-22.376,5.577-33.748,5.484c-0.662-0.665-1.325-1.331-1.987-1.996C126.915,127.925,132.392,126.752,136.776,123.985z"
	/>
<path fill="#DCC9B9" d="M135.708,170.7c-1.281-3.988-2.053-8.282-6.309-10.478c2.037-0.106,4.375,1.58,5.997-1.006
	c2.026,0.613,3.593,2.599,6.02,2.012c-0.647,3.022-1.294,6.044-1.941,9.066C138.219,170.429,136.964,170.564,135.708,170.7z"/>
<path fill="#D1C1B1" d="M124.369,131.261c0.135,2.334,1.819,5.608-2.995,4.943c-0.868-1.527-1.031-3.205-1.043-4.914
	C121.677,131.281,123.023,131.271,124.369,131.261z"/>
<path fill="#DCC9B9" d="M311.74,46.683c0.886-0.505,1.96-0.688,2.78,0.052c0.98,0.885,0.315,1.995-0.265,2.639
	c-3.194,3.547-3.615,8.342-5.669,12.417c-2.91,5.771-6.926,11.134-7.831,17.808c-0.76,0.658-1.521,1.315-2.281,1.973
	c-2.06-1.333-2.198,0.967-3.175,1.68c-0.288,0.29-0.577,0.58-0.865,0.87c-0.342,0.047-0.684,0.094-1.026,0.141
	c-0.671,0.316-1.341,0.631-2.012,0.946c-0.661,0.003-1.323,0.006-1.985,0.009c-0.456-6.226,3.824-10.707,6.073-15.888
	c2.752-6.341,5.533-12.659,7.919-19.148c0.179-0.176,0.393-0.267,0.643-0.275C306.795,49.272,309.304,48.076,311.74,46.683z"/>
<path fill="#DCC9B9" d="M311.422,35.716c4.58-4.865,4.986-11.707,8.179-17.235c2.375-4.112,4.226-8.449,4.805-13.229
	c1.33,0.638,2.627,1.357,3.995,1.897c3.981,1.571,4.846,3.621,1.417,6.814c-1.594,1.485-2.171,3.501-2.455,5.784
	c-1.054,8.468-8.501,15.965-15.976,16.455C311.396,36.036,311.337,35.807,311.422,35.716z"/>
<path fill="#D1C1B1" d="M311.03,29.649c4.322-7.725,7.935-15.745,11.035-24.006c0.722-1.924,1.388-1.318,2.343-0.392
	c-0.58,4.78-2.43,9.117-4.805,13.229c-3.193,5.528-3.599,12.371-8.179,17.235c-0.087,0.093-0.028,0.322-0.037,0.487
	C307.235,34.288,310.067,31.369,311.03,29.649z"/>
<path fill="#DCC9B9" d="M277.743,104.923c0.999-2.383,0.719-2.94-1.679-2.751c2.703-1.699,5.403-3.397,8.104-5.095
	c1.706-0.328,3.411-0.657,5.115-0.985c0.723-0.318,1.445-0.635,2.168-0.953c0.321,0.027,0.64,0.071,0.956,0.131
	c-0.404,4.437-3.26,7.86-5.058,11.686c-1.425,3.032-2.632,5.989-2.935,9.31c-3.726-0.068-7.453-0.137-11.179-0.205
	C272.245,111.367,276.2,108.609,277.743,104.923z"/>
<path fill="#D1C1B1" d="M284.803,85.865c-1.145-0.504-0.475-1.822-0.101-2.631c1.644-3.554,3.646-6.958,5.077-10.591
	c2.693-6.837,7.156-12.904,8.722-20.219c1.568-0.892,2.99-2.102,4.902-2.242c-2.385,6.489-5.167,12.807-7.919,19.148
	c-2.249,5.181-6.529,9.662-6.073,15.888C288.029,86.514,286.315,86.529,284.803,85.865z"/>
<path fill="#9A1809" d="M176.374,184.659"/>
<path fill="#38162A" d="M139.454,190.421c-8.275-10.16-1.037-20.707-2.163-13.208c3.213-6.726,10.715,0.083,12.443-2.449
	c0.634-0.929,1.831-1.704,1.28-2.94c-0.889-1.993-1.801,0.079-2.712,0.174c-2.363,0.247-2.38,0.18-0.896-4.608
	c0.317-0.387,0.634-0.774,0.951-1.162l0.075-0.038c2.649-0.931,5.366-1.704,7.935-2.818c14.085-6.106,28.13-12.303,42.195-18.454
	c9.347-4.088,9.351-4.077,11.578,5.501c0.142,1.802,0.105,3.637,0.451,5.398c2.766,14.079,4.813,28.272,6.807,42.474
	c-0.45,7.52-0.177,14.985,0.984,22.458c0.896,5.763,2.854,11.423,1.188,17.504c-0.734,2.68-3.017,12.484-5.177,12.395"/>
<path fill="#9A1809" d="M211.403,241.437"/>
<path fill="#6F2C54" d="M199.472,225.039c-0.186-0.487,0.011-1.469-1.056-0.815c-0.656-0.045-1.312-0.091-1.968-0.136
	c-0.589-2.828-2.221-4.801-4.868-5.942c-0.413-1.89,0.47-4.077-1.295-5.657c-2.208-3.94-4.54-1.543-6.853-0.134"/>
<path fill="#6F2C54" d="M214.391,241.201c0.171,0.374,0.343,0.747,0.515,1.121c0.172-0.375,0.343-0.751,0.514-1.126l-0.024,0.029
	c2.16,0.089,3.438-0.294,4.172-2.973c1.666-6.08-0.292-11.741-1.188-17.504c-1.161-7.473-1.434-14.939-0.984-22.46
	c0.327,0.907,0.805,1.79,0.958,2.726c1.306,7.976,2.095,16.069,3.933,23.918c2.343,10,4.128,20.051,5.23,30.243
	c0.237,0.355,0.475,0.71,0.711,1.065c1.124,2.281,0.535,4.613,0.205,6.938c-0.344-0.325-0.689-0.65-1.033-0.975
	c-0.369-1.816-0.728-3.639-3.038-3.971l0.039,0.017c-0.471-0.752-1.178-1.035-2.034-1.022l0.023,0.027
	c-0.042-1.309-0.724-1.978-2.026-2.028l0.027,0.027c-0.046-1.313-0.815-1.899-2.039-2.027c0.001,0,0.056,0.034,0.056,0.034
	c-0.347-0.348-0.695-0.696-1.042-1.044l0.037,0.036c-0.369-0.35-0.738-0.699-1.108-1.049c-4.392-1.871-6.856-4.708-4.892-9.766
	c0.899-1.531,1.975-0.547,3.006-0.215L214.391,241.201z"/>
<path fill="#6F2C54" d="M231.391,148.227c2.331-0.011,4.666,0.043,6.993-0.06c1.013-0.045,2.516,0.352,2.126-1.733
	c-0.668-3.569,1.647-3.002,3.884-2.766c3.781,0.398,6.932,3.159,10.963,2.72c1.311-0.143,2.461,1.86,1.644,2.246
	c-3.072,1.452-3.917,4.379-5.635,6.768c-0.891,1.239-2.576,0.743-3.504-0.388c-3.284-4.002-7.016-3.497-11.073-1.43
	c-1.901,0.968-3.731,0.82-5.565-0.595c-2.368-1.827,0.107-3.204,0.191-4.785L231.391,148.227z"/>
<path fill="#6F2C54" d="M231.415,148.202c-5.05,0-10.101,0-15.151,0c-0.015-0.594-0.031-1.188-0.046-1.782
	c4.283-0.113,8.367-0.402,12.18-2.838c2.217-1.416,5.251-0.388,7.554,1.682c-1.542,1.483-4.239,0.355-4.559,2.96
	C231.393,148.224,231.415,148.204,231.415,148.202z"/>
<path fill="#6F2C54" d="M226.458,273.925c0.144-0.992,0.157-1.955-0.599-2.751c-0.134-0.715-0.268-1.431-0.402-2.147
	c-0.066-2.659,1.587-2.951,3.662-2.66l0.228,0.144c0.464,0.382,0.795,0.287,0.993-0.279c-0.006-0.678-0.013-1.355-0.019-2.033
	c0.867,0.004,1.735,0.007,2.602,0.011c-0.17,0.99-0.34,1.979-0.509,2.969c-0.005,1.68-0.011,3.36-0.016,5.04l0.011-0.011
	c-1.891,0.631-3.783,1.263-5.675,1.895L226.458,273.925z"/>
<path fill="#6F2C54" d="M221.007,159.508c-0.195,0.151-1.089-0.135-1.185-0.394c-1.029-2.771,0.363-4.622,2.887-6.629
	C223.822,155.658,223.183,157.824,221.007,159.508z"/>
<path fill="#C0A697" d="M240.351,205.951"/>
<path fill="#38162A" d="M229.345,266.508c0,0.001-0.228-0.143-0.228-0.143c-0.915-1.032-1.831-2.063-2.747-3.095
	c0.094-0.399,0.187-0.799,0.281-1.199c0.251,0.042,0.501,0.086,0.751,0.133c0.344,0.325,0.689,0.65,1.033,0.975l-0.005,0.02
	c0.315,0.316,0.63,0.632,0.944,0.947c0.315,0.031,0.631,0.049,0.947,0.053c0.006,0.678,0.013,1.355,0.019,2.033
	C230.008,266.325,229.677,266.417,229.345,266.508z"/>
<path fill="#6F2C54" d="M216.474,155.489c0.7-0.495,0.846,0.204,0.815,0.654c-0.032,0.456-0.179,1.082-0.502,1.302
	c-0.543,0.371-0.877-0.06-0.951-0.777C216.01,156.325,216.122,155.738,216.474,155.489z"/>
<path fill="#C0A697" d="M212.348,153.32c0.062-0.103,0.227-0.143,0.348-0.21c0.036,0.122,0.136,0.28,0.092,0.358
	c-0.056,0.099-0.227,0.135-0.348,0.198C212.404,153.548,212.305,153.391,212.348,153.32z"/>
<polygon fill="#CB3938" points="223.653,143.698 223.308,143.877 223.304,143.523 "/>
<path fill="#53213F" d="M229.374,264.147c-0.315-0.315-0.629-0.631-0.944-0.947C228.745,263.515,229.059,263.831,229.374,264.147z"
	/>
<path fill="#CB3938" d="M228.23,256.242c-0.236-0.354-0.474-0.71-0.711-1.065C227.755,255.532,227.992,255.887,228.23,256.242z"/>
<path fill="#D1C1B1" d="M295.457,95.284c-1.31,3.352-2.322,6.862-4.003,10.016c-2.462,4.619-4.482,8.836,1.954,11.845
	c-3.074,0.488-5.991-0.633-8.994-0.88c0.303-3.321,1.51-6.278,2.935-9.31c1.798-3.826,4.654-7.249,5.058-11.686
	C293.423,95.274,294.44,95.279,295.457,95.284z"/>
<path fill="#E1D1C2" d="M199.582,408.467c1.786,0.145,1.772,1.603,1.767,2.912c-0.006,1.402-0.345,2.711-2.114,2.567
	c-1.774-0.144-1.725-1.611-1.785-2.917C197.514,409.632,197.802,408.324,199.582,408.467z"/>
<path fill="#D1C1B1" d="M169.843,431.804c-1.591-1.086-1.417-2.769,0.035-3.661c1.621-0.996,1.532,1.154,2.23,1.836
	c1.587,1.551,1.666,3.398,0.481,5.791C171.112,434.419,171.189,432.723,169.843,431.804z"/>
<path fill="#E1D1C2" d="M206.381,434.702c1.525-0.785,2.334,0.441,3.069,1.543c0.412,4.279-1.741,3.28-4.046,1.965
	C205.557,436.983,204.967,435.432,206.381,434.702z"/>
<path fill="#E1D1C2" d="M194.141,411.708c1.267,2.695,1.975,4.2,3.255,6.923C193.199,417.167,193.196,415.333,194.141,411.708z"/>
<path fill="#D1C1B1" d="M201.612,420.012c0.675-1.92,1.831-3.858,3.793-0.813"/>
<path fill="#D1C1B1" d="M201.693,427.709c-0.088-0.968,0.69-1.255,1.436-1.504c0.199,0.954,0.397,1.908,0.596,2.863
	C202.781,429.008,201.804,428.927,201.693,427.709z"/>
<path fill="#E1D1C2" d="M161.414,407.224c-0.154,0.881,0.241,2.003-1.028,2.389c-0.099,0.03-0.352-0.13-0.384-0.244
	c-0.349-1.233,0.619-1.638,1.393-2.162C161.395,407.207,161.416,407.225,161.414,407.224z"/>
<path fill="#D1C1B1" d="M167.789,427.174c0.174,0.705-0.586,0.895-1.166,1.058c-0.045-0.674-0.091-1.349-0.136-2.024
	C166.942,426.525,167.689,426.77,167.789,427.174z"/>
<path fill="#6F2C54" d="M192.476,449.818c11.972-0.548,24.14,0.922,35.882-2.74c1.637,1.389,1.135,3.305,1.159,5.041
	c0.071,5.062,0.04,10.125,0.049,15.187c-0.089,2.085-0.892,3.613-3.139,4.01c-0.47-0.128-0.94-0.255-1.41-0.382
	c-5.147-1.596-10.429-0.304-15.631-0.735l-0.026-0.029c0.776-2.44,2.843-1.882,4.592-1.911c3.446-0.057,6.894-0.017,11.533-0.017
	c-2.833-2.753-5.294-1.702-7.362-2.157c-1.217-0.268-2.337-0.735-2.308-2.169c0.034-1.652,1.429-1.668,2.565-1.629
	c2.798,0.095,5.677-0.632,8.314,0.857c1.185-1.417,0.491-2.959,0.673-4.371c0.447-3.464-1.068-4.667-4.55-4.633
	c-14.158,0.139-28.319,0.136-42.478,0.018c-5.736-0.048-11.157-2.919-17.048-2.135c-1.116,0.149-1.66-0.927-2.011-1.91
	c0.043-0.305,0.081-0.611,0.112-0.918l-0.013,0.01c2.655-0.717,5.319,2.167,7.97-0.022
	C177.009,450.971,184.805,450.167,192.476,449.818z"/>
<path fill="#6F2C54" d="M174.697,470.253c-1.772,0.009-3.665-0.45-5.229,0.885c-1.377-0.01-2.756-0.019-4.134-0.029
	c-6.105-1.922-12.374-0.477-18.555-0.874c-2.783-0.178-5.591,0.033-8.387,0.068c-20.111,0.261-40.181-0.82-60.256-1.81
	c-16.913-0.834-33.791-2.516-50.755-2.169c-1.496-0.282-2.993-0.565-4.489-0.847c0.174-0.374,2.173-0.8,0.288-1.099
	c-12.045-1.913-12.068-1.835-12.255-14.533c-0.016-1.065-0.61-1.411-1.435-1.668c-0.033-0.58-0.067-1.159-0.1-1.738
	c0.973-4.057,4.837-1.291,6.846-2.901c2.385-0.12,4.77-0.241,7.155-0.361c14.215,1.525,28.47,2.444,42.762,2.81
	c11.958,2.261,24.085,2.185,36.175,2.623c-0.223,0.513-1.963,1.164-0.146,1.538c5.607,1.155,11.217,2.754,16.978,0.471
	c1.314-0.521,2.905-0.343,4.369-0.487c0.311-0.1,0.621-0.096,0.929,0.013c0.725,1.542,2.047,2.016,3.628,2.018
	c4.754,0.006,9.508,0.006,14.262,0.016c1.401,0.003,2.624-0.267,3.081-1.836c5.284-0.077,10.567-0.154,15.852-0.231
	c0.351,0.983,0.894,2.059,2.011,1.91c5.891-0.785,11.312,2.087,17.048,2.135c14.158,0.118,28.32,0.122,42.478-0.018
	c3.482-0.035,4.996,1.168,4.55,4.633c-0.182,1.412,0.512,2.954-0.673,4.371c-2.637-1.489-5.515-0.762-8.314-0.857
	c-1.136-0.039-2.531-0.023-2.565,1.629c-0.029,1.434,1.091,1.901,2.308,2.169c2.067,0.455,4.528-0.595,7.362,2.157
	c-4.639,0-8.087-0.04-11.533,0.017c-1.75,0.029-3.816-0.529-4.592,1.911C197.806,470.191,186.251,470.196,174.697,470.253z
	 M155.075,453.211c0.312,0.235,0.597,0.56,0.948,0.667c0.182,0.055,0.71-0.331,0.688-0.421c-0.089-0.364-0.332-0.69-0.615-1.209
	C155.644,452.674,155.359,452.943,155.075,453.211z"/>
<path fill="#D1C1B1" d="M9.101,461.256c1.3,4.005,4.814,3.792,7.982,4.099c1.923,0.186,3.874,0.09,5.809,0.121
	c1.494,0.283,2.99,0.566,4.486,0.848c-2.659,1.909-5.869,0.166-8.941,1.376c4.74,1.822,9.372,1.867,14.089,1.528
	c-6.394,1.238-13.518,3.203-19.909,2.084c-3.675-1.331-4.805-5.87-4.033-9.92C8.765,461.377,8.938,461.332,9.101,461.256z"/>
<path fill="#6F2C54" d="M209.387,470.198c0.026,0.23,0.071,0.456,0.135,0.678l-0.14,0.427c-13.305-0.055-26.61-0.11-39.916-0.165
	c1.564-1.335,3.457-0.876,5.229-0.885c11.555-0.057,23.111-0.062,34.666-0.084L209.387,470.198z"/>
<path fill="#6F2C54" d="M138.391,470.303c2.795-0.035,5.604-0.247,8.387-0.068c6.182,0.397,12.45-1.048,18.555,0.874
	C156.345,471.069,147.328,472.038,138.391,470.303z"/>
<path fill="#38162A" d="M209.465,472.017c0.012-0.241-0.016-0.48-0.082-0.714l0.14-0.427c5.166,0.02,10.332,0.039,15.497,0.058
	c0.468,0.127,0.938,0.254,1.408,0.381C220.838,473.105,215.112,471.62,209.465,472.017z"/>
<path fill="#6F2C54" d="M157.229,210.269c-0.912-3.409-1.824-6.817-2.736-10.225c0.153-1.166,0.91-1.705,1.986-1.914l-0.022-0.011
	c0.634,1.234,1.226,2.575,2.916,1.163c1.001,0.392,2.002,0.784,3.004,1.177c1.771,2.096,3.011,4.531,5.426,6.224
	c2.48,1.739,3.057,5.249,2.95,7.817c-0.106,2.544-3.566,1.291-5.514,1.831c-1.616-0.064-3.233-0.128-4.849-0.192
	C158.682,214.535,160.637,210.958,157.229,210.269z"/>
<path fill="#53213F" d="M225.458,269.026c-1.351-0.202-2.701-0.405-4.052-0.607c-0.332,0.004-0.664,0.008-0.996,0.012
	c-1.011-0.03-2.021-0.06-3.032-0.09c-11.977,0.014-23.954,0.028-35.931,0.042c-1.319-0.038-2.637-0.076-3.955-0.113
	c0.668-2.594,2.822-1.875,4.504-1.89c9.787-0.088,19.574-0.046,29.36-0.135c4.124-0.038,8.781,1.116,10.848-4.341
	c0.179-0.473,1.488-0.517,2.272-0.76l-0.018,0.005c-0.096,1.369,0.763,1.877,1.913,2.123c0.915,1.032,1.831,2.063,2.747,3.095
	C227.043,266.076,225.39,266.368,225.458,269.026z"/>
<path fill="#38162A" d="M201.661,269.137c5.223,0.055,10.573,1.165,15.716-0.796c1.01,0.03,2.02,0.06,3.031,0.09
	c0.332-0.005,0.664-0.009,0.996-0.013c1.351,0.203,2.701,0.406,4.052,0.609c0.134,0.716,0.268,1.432,0.402,2.147
	c-0.124,0.333-0.247,0.666-0.371,0.999c-3.738,0.65-7.105-1.719-10.512-1.73c-10.645-0.034-21.326-0.819-31.962,0.553
	c-1.942,0.25-4.388,1.215-5.612-1.573c0.03-0.386,0.06-0.77,0.09-1.154c1.318,0.038,2.636,0.075,3.955,0.113
	C188.114,270.322,194.929,269.066,201.661,269.137z"/>
<path fill="#6F2C54" d="M195.143,226.131c-2.861,1.95-2.837-0.769-3.915-1.768l0.225-0.197c1.665-0.026,3.329-0.051,4.994-0.077
	c0.656,0.044,1.312,0.09,1.968,0.135c0.028,0.4,0.055,0.8,0.083,1.2c0.881,2.911,1.76,5.823,2.641,8.735
	c-0.49-0.006-0.98-0.013-1.471-0.019c-1.101-1.958-2.203-3.917-3.304-5.875C196.199,227.347,196.533,225.184,195.143,226.131z"/>
<path fill="#53213F" d="M133.507,269.407c-1.9,3.569-6.645,3.539-9.172-0.06C127.393,269.367,130.45,269.388,133.507,269.407z"/>
<path fill="#53213F" d="M145.453,269.306c-2.337,3.017-4.715,2.802-7.125,0.089C140.703,269.366,143.078,269.337,145.453,269.306z"
	/>
<path fill="#38162A" d="M120.468,269.351c-1.683,2.914-3.844,2.121-6.076,0.783C116.262,268.666,118.407,269.33,120.468,269.351z"/>
<path fill="#53213F" d="M68.391,269.178c-1.647,3.065-3.305,3.057-4.975,0.02C65.073,268.912,66.728,267.959,68.391,269.178z"/>
<path fill="#53213F" d="M224.458,261.15l0.018-0.005c-0.037-0.97-0.075-1.94-0.112-2.91c2.309,0.331,2.668,2.155,3.038,3.971
	c-0.25-0.047-0.5-0.091-0.751-0.133C226.129,261.267,225.342,261.093,224.458,261.15z"/>
<path fill="#53213F" d="M220.365,255.227c1.302,0.049,1.984,0.719,2.026,2.028C221.197,257.097,220.515,256.429,220.365,255.227z"/>
<path fill="#53213F" d="M218.353,253.227c1.224,0.128,1.993,0.714,2.039,2.027C219.184,255.109,218.515,254.423,218.353,253.227z"/>
<path fill="#53213F" d="M222.369,257.229c0.856-0.014,1.563,0.269,2.034,1.022C223.485,258.387,222.789,258.083,222.369,257.229z"/>
<path fill="#53213F" d="M171.48,206.291c-0.094,0.61-0.188,1.221-0.282,1.832C170.521,207.394,170.427,206.754,171.48,206.291z"/>
<path fill="#9A1809" d="M216.295,251.203c0.37,0.35,0.739,0.699,1.108,1.049C217.034,251.902,216.664,251.553,216.295,251.203z"/>
<path fill="#9A1809" d="M217.367,252.216c0.347,0.348,0.694,0.696,1.042,1.044C218.061,252.912,217.714,252.564,217.367,252.216z"/>
<path fill="#53213F" d="M232.398,272.219c0.064,0.093,0.127,0.186,0.191,0.279c-0.06-0.097-0.12-0.193-0.18-0.29L232.398,272.219z"
	/>
<path fill="#38162A" d="M181.18,303.754c-0.002,0.004-0.137-0.071-0.137-0.071c-2.633-4.222-6.395-1.338-9.667-1.537
	c0.144-1.419-0.217-2.969,1.639-3.742c4.208-1.752,9.189,0.371,11.262,4.913C183.245,303.461,182.212,303.605,181.18,303.754z"/>
<path fill="#38162A" d="M168.449,307.2c-0.324-0.309-0.648-0.618-0.974-0.927c0.007-0.659,0.015-1.318,0.023-1.977
	c1.162-0.176,1.818-0.85,1.976-2.011c0.634-0.046,1.268-0.093,1.902-0.139c3.273,0.199,7.034-2.685,9.667,1.537
	C176.251,302.731,171.492,301.895,168.449,307.2z"/>
<path fill="#53213F" d="M161.971,297.018c-0.013-0.049,0.267-0.253,0.317-0.224c0.212,0.124,0.388,0.31,0.577,0.473
	c-0.2,0.154-0.4,0.308-0.602,0.461C162.158,297.493,162.034,297.264,161.971,297.018z"/>
<path fill="#38162A" d="M169.474,302.285c-0.159,1.161-0.814,1.835-1.976,2.011C167.511,302.991,168.18,302.331,169.474,302.285z"/>
<path fill="#53213F" d="M226.459,273.925c-0.963-0.228-0.632-1.176-0.971-1.752c0.123-0.332,0.247-0.666,0.371-0.999
	C226.615,271.97,226.602,272.933,226.459,273.925z"/>
<path fill="#53213F" d="M183.163,304.336c-0.75,0.112-1.476,0.139-1.984-0.582c1.034-0.149,2.066-0.293,3.098-0.437
	C183.906,303.656,183.535,303.996,183.163,304.336z"/>
<path fill="#6F2C54" d="M165.765,328.1c2.949,3.978,6.824,5.372,11.631,4.077c0.356,0.572,0.711,1.144,1.066,1.716
	c-4.502,0.863-9.077-0.121-13.685,0.574c3.714,2.343,7.798,3.087,11.933,2.511c8.25-1.15,16.483-2.197,24.84-1.907
	c1.605,0.056,3.687-0.244,4.218-1.689c0.728-1.981-2.019-2.203-2.825-3.551c2.249,0.751,5.66-0.935,6.367,3.049
	c0.737,4.15-3.244,7.791-7.212,6.261c-1.976-0.762-4-1.513-5.743-0.652c-4.606,2.277-9.434,1.541-14.21,1.666
	c-2.174,0.057-4.378-0.072-6.162,1.467c-2.759,2.38-5.308,1.598-8.197,0c-4.665-2.582-8.485-7.73-14.446-6.693
	c-5.639,0.98-10.652-4.345-16.297-1.072c-0.271,0.157-0.932-0.233-1.348-0.476c-3.407-1.991-6.384-1.392-9.667,0.742
	c-3.917,2.546-7.214,0.153-10.308-2.342c-2.729-2.2-2.833-4.614-1.06-7.439c1.174-1.871,1.018-3.818-0.225-5.626
	c-1.021-1.485-1.1-3.093-0.823-4.781c3.216,3.125,5.131,7.177,7.639,10.805c0.714,1.034,1.405,2.292,0.387,3.635
	c-0.716,0.944-4.499,1.296-0.763,3.161c2.283,1.139,4.601,0.954,5.819-1.699c0.448-0.976,0.254-2.247,0.353-3.383
	c0.686-0.317,1.948-0.3,1.556-1.426c-0.403-1.157-1.66-0.697-2.601-0.725c-0.84-0.448-1.552-0.996-1.614-2.055
	c3.345-3.954-1.217-6.33-2.713-10.896c5.399,3.923,10.376,2.574,15.18,2.89c1.282,0.084,2.218,0.578,2.562,1.9
	c-4.16-2.294-8.326,0.708-12.863-0.52c0.537,3.202,2.184,5.232,3.41,7.476c0.861,1.575,1.57,2.808,0.68,5.256
	c-1.099,3.02,2.762,2.966,4.505,2.328c2.59-0.949,4.715-1.354,7.459-0.333c3.349,1.245,4.12-1.613,4.75-4.119
	c0.664-0.003,1.327-0.007,1.99-0.011c1.202,4.41,5.352,5.377,8.723,6.423c2.995,0.929,4.37-1.95,4.075-4.751
	c-0.204-1.934-1.166-3.788-1.789-5.678c0.376-0.019,0.751-0.038,1.127-0.057C162.909,324.138,164.31,326.137,165.765,328.1z"/>
<path fill="#6F2C54" d="M43.793,314.583c-0.327,4.73,1.601,7.576,6.57,7.943c0.983,0.073,1.952,0.445,2.929,0.455
	c1.902,0.019,3.178,0.87,3.784,2.617c0.299,0.862-0.117,1.642-0.928,2.068c-1.505,0.79-2.88,0.28-4.211-0.522
	c-0.61-0.368-0.849-1.605-2.62-0.394c1.926,3.126,4.503,4.879,8.228,4.438c3.41-0.404,4.085-2.891,3.715-5.87
	c0,0,0.339-0.272,0.34-0.273c0.714,1.224,3.27,0.542,2.979,2.698c-0.301,2.23-7.148,6.743-9.017,5.753
	c-3.719-1.972-7.307-1.292-11.109-0.484c-4.08,0.867-8.237,1.177-11.095-2.947c-1.899-4.841-5.827-8.609-7.245-13.704
	c1.571-1.688,1.826-5.185,5.491-3.997c-0.889,0.739-1.985,1.334-2.62,2.249c-0.994,1.435-0.671,2.924,0.88,3.833
	c1.373,0.805,2.591,0.505,3.179-1.114c0.339-0.936,0.49-2.144,1.878-1.612c0.998,0.383,1.439,1.428,1.384,2.464
	c-0.079,1.484-0.328,2.962-0.543,4.437c-0.695,4.78,3.39,9.104,8.255,8.758c1.428-0.102,2.639-0.499,3.116-1.988
	c0.412-1.286-0.19-2.275-1.171-3.038c-1.594-1.241-2.281-0.354-2.868,1.156c-0.256,0.658-1.028,0.752-1.655,0.248
	c-1.391-1.118-1.381-2.697-0.925-4.114c1.081-3.362,1.264-6.507-1.265-9.336c1.374-0.043,2.747-0.087,4.121-0.131
	C43.51,314.312,43.651,314.448,43.793,314.583z"/>
<path fill="#6F2C54" d="M96.575,328.502c1.542,2.248,0.714,4.099-1.213,5.594c-2.225,1.725-4.373,0.642-5.584-1.089
	c-1.748-2.5-4.161-4.71-4.42-8.138c-0.127-1.685-7.462-6.517-8.725-5.711c-3.038,1.939,1.396,3.55,0.528,5.538
	c-0.129,0.295-0.123,0.649-0.179,0.975c-3.366-2.895-4.088-6.996-5.02-11c2.096-0.539,4.189-1.111,6.374-0.481
	c-1.087,2.497-0.085,4.283,2.427,3.926c4.099-0.583,5.519,2.311,7.22,4.765c1.487,2.146,2.472,4.636,3.713,6.957
	c0.632,1.182,1.712,1.721,2.884,1.058c1.338-0.758,0.172-1.718-0.168-2.498c-0.915-2.1-1.937-4.153-2.917-6.225
	C94.751,323.025,95.043,326.269,96.575,328.502z"/>
<path fill="#6F2C54" d="M80.764,331.544c-1.732,2.525-5.732,2.948-8.108,0.838c-3.693-3.28-5.214-8.36-9.335-11.288
	c-0.429-2.114-0.654-3.97,2.493-2.371c3.968,2.016,5.454,6.111,7.939,9.368c1.083,1.419,2.061,3.794,4.11,2.703
	c2.583-1.375-0.697-2.94-0.525-4.54C81.112,326.852,82.506,329.005,80.764,331.544z"/>
<path fill="#6F2C54" d="M21.995,330.829c-3.675,2.532-4.927,0.717-5.515-2.718c0.65,0.103,1.313,0.156,1.947,0.319
	c1.47,0.379,3.07,0.828,4.137-0.544c1.17-1.505-0.417-2.74-0.884-4.053c-0.846-2.38-3.018-4.219-3.32-8.399
	c5.697,4.277,7.87,9.489,10.326,14.488C26.487,330.531,23.962,329.474,21.995,330.829z"/>
<path fill="#6F2C54" d="M61.599,325.043c-0.001,0.001-0.34,0.273-0.34,0.273c-2.83-4.125-5.834-8.092-10.007-10.994
	c0.715-0.368,1.429-0.736,2.144-1.104l0.011-0.009c4.964-1.533,10.07-0.789,15.12-0.932c1.466-0.042,2.569,0.456,2.803,2.091
	c-3.416-0.493-6.778,0.774-10.302-0.045c-2.544-0.592-3.087,1.493-2.066,3.544c0.577,1.159,1.648,2.072,2.496,3.095
	C61.506,322.323,61.553,323.683,61.599,325.043z"/>
<path fill="#6F2C54" d="M11.935,312.685c0.188-0.209,0.613-0.206,0.926-0.301c-1.648,5.907,5.952,9.682,3.631,15.745
	C12.335,326.621,9.13,315.803,11.935,312.685z"/>
<path fill="#6F2C54" d="M12.104,303.587c-0.821-1.167,0.135-2.499,1.331-3.321c0.183,2.748,1.872,4.875,3.055,7.189
	c1.811,3.544,1.277,5.345-3.099,4.748C13.16,309.313,14.036,306.332,12.104,303.587z"/>
<path fill="#6F2C54" d="M85.4,310.178c-1.486-0.861-2.762-2.213-2.414-3.827c0.343-1.592,2.227-0.64,3.4-0.938
	c0.344,0.28,0.687,0.561,1.03,0.841C86.713,307.546,85.444,308.548,85.4,310.178z"/>
<path fill="#6F2C54" d="M53.397,313.219c-1.16,0.019-2.32,0.039-3.48,0.059c-2.086,0.224-4.242,0.123-6.124,1.304
	c-0.141-0.134-0.282-0.27-0.422-0.406c3.025-3.648,6.565-1.952,10.036-0.966C53.407,313.21,53.396,313.219,53.397,313.219z"/>
<path fill="#D1C1B1" d="M181.117,307.298c0.419,0.327,0.838,0.653,1.256,0.98C181.954,307.951,181.535,307.625,181.117,307.298z"/>
<path fill="#DCC9B9" d="M190.278,312.224c-0.293-0.312-0.587-0.625-0.881-0.937C189.691,311.6,189.985,311.912,190.278,312.224z"/>
<path fill="#CB4B55" d="M28.662,329.926c0.312-0.008,0.559,0.116,0.738,0.375C28.882,330.708,28.681,330.496,28.662,329.926z"/>
<polygon fill="#CB3938" points="211.522,372.87 211.165,372.731 211.491,372.536 "/>
<path fill="#E1D1C2" d="M79.399,412.22c0,0.001,0.117-0.129,0.116-0.127"/>
<path fill="#DCC9B9" d="M78.577,395.323c-0.727-0.692-1.602-1.638-0.446-2.336c0.936-0.565,1.129,0.689,1.365,1.409
	C79.19,394.706,78.884,395.015,78.577,395.323z"/>
<path fill="#38162A" d="M8.271,443.177c0.825,0.256,2.636,5.602,2.652,6.667c0.187,12.698,0.209,12.62,12.255,14.533
	c1.885,0.299-0.113,0.724-0.285,1.098c-1.935-0.031-3.886,0.065-5.809-0.121c-3.168-0.306-7.372,1.354-8.672-2.651
	C8.541,458.343,7.054,446.778,8.271,443.177z"/>
<path fill="#53213F" d="M9.388,446.439c-0.788-1.662-2.572-3.631,1.197-3.889c1.254,1.176,2.798,0.781,4.263,0.786
	c0.459,0.067,0.922,0.135,1.386,0.202C14.224,445.148,10.361,442.383,9.388,446.439z"/>
<path fill="#38162A" d="M12.427,442.144c0.748,0.514,1.949,0.11,2.421,1.192c-1.465-0.005-3.008,0.39-4.263-0.786
	C11.199,442.415,11.813,442.279,12.427,442.144z"/>
<path fill="#D1C1B1" d="M9.455,422.195c1.178,0.292,2.222,0.643,0.897,2.038C10.054,423.553,9.755,422.874,9.455,422.195z"/>
<path fill="#E1D1C2" d="M135.631,171.277c-12.084,0.999-24.18,1.57-36.305,0.912c-1.588-1.296-3.486-0.844-5.266-0.852
	c-18.894-0.084-37.788-0.128-56.682-0.182c0.039-2.478,1.32-3.277,3.592-2.561c1.456,0.459,2.883,0.558,4.416,0.435
	c12.18-0.98,24.362-1.951,36.554-2.76c2.826-0.187,5.635-0.184,8.376-1.023c4.133-1.265,8.131-1.947,11.399,2.054
	c1.065,1.304,2.743,1.152,4.153,0.419c1.719-0.895,1.455-2.41,0.905-3.91c-1.688-4.605-4.725-9.521-8.725-10.643
	c-5.794-1.625-6.342-5.504-7.562-9.656c-0.89-3.028-0.682-6.358-1.13-9.226c-0.762-4.881,1.403-4.045,4.066-4.042
	c1.203,6.741,4.819,12.713,5.872,19.622c0.45,2.954,4.931,4.668,7.26,7.451c1.803,2.156,4.591,4.473,7.284,6.261
	c1.51,1.003,3.33,3.097,4.566-0.373c0.992,0.018,1.983,0.037,2.974,0.055c0.463,2.552,2.313,3.925,4.38,5.077
	c1.345,0.75,2.784,1.185,4.25,0.33c0.951-0.555,1.396-1.479,1.064-2.537c-0.559-1.783-2.117-1.871-3.646-1.925
	c-0.364-1.833-2.861-4.723,1.973-3.982c4.256,2.196,5.028,6.49,6.309,10.478C135.637,170.887,135.611,171.081,135.631,171.277z"/>
<path fill="#DCC9B9" d="M98.453,130.26c0.169,2.957,0.268,5.94,2.944,7.972c-1.577,3.639,0.234,5.999,3.018,7.992
	c1.066,3.983,5.07,5.692,6.98,9.02c-0.408,5.07,4.175,5.745,7.009,7.961c-1.236,3.47-3.055,1.376-4.566,0.373
	c-2.692-1.788-5.48-4.105-7.284-6.261c-2.329-2.784-6.81-4.498-7.26-7.451c-1.054-6.909-4.67-12.881-5.872-19.622
	C95.1,130.249,96.777,130.254,98.453,130.26z"/>
<path fill="#E1D1C2" d="M72.611,133.22c-0.64-0.409-1.441-1.141-1.487-1.773c-0.071-0.971,0.981-1.207,1.831-1.174
	c4.206,0.161,8.472-0.573,12.927,0.49C82.409,134.212,75.898,135.324,72.611,133.22z"/>
<path fill="#E1D1C2" d="M27.896,168.243c2.31,0.055,4.673,0.09,5.53,2.927c-3.578,0.03-7.157,0.034-10.734,0.101
	c-2.164,0.041-3.502-0.646-3.107-3.113C22.355,168.183,25.126,168.177,27.896,168.243z"/>
<path fill="#E1D1C2" d="M19.624,166.255c-0.125-2.062-0.667-4.163,0.572-6.097C21.761,162.355,22.425,164.468,19.624,166.255z"/>
<path fill="#38162A" d="M139.474,170.294c0.343,0.064,0.687,0.129,1.031,0.194c0.562,2.081,0.715,4.366,2.823,5.677
	c0.703,1.364,1.407,2.729,2.11,4.093c-3.419,0.137-4.136-2.763-5.467-4.925c-1.085-1.765-1.51-4.178-4.341-4.052
	c-0.019-0.2,0.007-0.394,0.078-0.582C136.964,170.564,138.219,170.429,139.474,170.294z"/>
<path fill="#6F2C54" d="M151.445,192.213c1.678,1.972,3.357,3.944,5.035,5.916c-1.076,0.209-1.833,0.748-1.986,1.914
	c-0.595-5.139-5.164-3.569-8.082-4.787C147.605,193.439,150.939,195.166,151.445,192.213z"/>
<path fill="#6F2C54" d="M144.363,168.022c0.387-0.235,0.774-0.47,1.162-0.704c0.001,0.001,0.021,0.031,0.021,0.031
	c0.62,0.014,1.24,0.028,1.861,0.042c-1.484,4.788-1.468,4.855,0.896,4.608c0.911-0.095,1.823-2.168,2.712-0.174
	c0.551,1.237-0.646,2.012-1.28,2.94c-1.728,2.531-3.758,3.276-6.406,1.4c-2.108-1.311-2.26-3.596-2.823-5.677
	C141.791,169.666,143.077,168.844,144.363,168.022z"/>
<path fill="#D1C1B1" d="M148.358,166.229c-0.387-0.223-0.774-0.446-1.161-0.669c0.201-0.185,0.402-0.37,0.603-0.555
	c0.211,0.395,0.422,0.79,0.633,1.185C148.433,166.19,148.358,166.228,148.358,166.229z"/>
<path fill="#D1C1B1" d="M104.693,136.523c1.508-3.305,3.981-2.024,6.326-1.364c3.373,0.949,3.211,4.307,4.127,6.683
	c0.802,2.079-1.298,3.241-3.051,4.416c-2.725,1.826-5.129,1.263-7.679-0.035c-2.784-1.993-4.595-4.353-3.018-7.992
	C102.787,138.221,104.054,137.924,104.693,136.523z"/>
<path fill="#DCC9B9" d="M127.426,164.204c1.529,0.053,3.087,0.142,3.646,1.925c0.332,1.058-0.112,1.982-1.064,2.537
	c-1.467,0.855-2.905,0.42-4.25-0.33c-2.067-1.152-3.918-2.525-4.38-5.077C123.5,162.898,124.986,166.604,127.426,164.204z"/>
<path fill="#C0A697" d="M145.525,167.318c-0.388,0.234-0.775,0.469-1.162,0.704C144.75,167.788,145.138,167.553,145.525,167.318z"/>
<path fill="#D1C1B1" d="M295.3,83.251c-0.288,0.29-0.577,0.581-0.866,0.871C294.723,83.832,295.011,83.542,295.3,83.251z"/>
<path fill="#6F2C54" d="M196.448,224.088c-1.665,0.027-3.329,0.052-4.994,0.077c0.042-2.007,0.084-4.013,0.126-6.02
	C194.227,219.287,195.86,221.26,196.448,224.088z"/>
<path fill="#38162A" d="M199.472,225.04c-0.324,0.128-0.648,0.256-0.973,0.384c-0.028-0.4-0.056-0.8-0.083-1.2
	C199.482,223.57,199.286,224.551,199.472,225.04z"/>
<path fill="#C52C23" d="M215.422,241.198c-0.343,0.002-0.686,0.003-1.029,0.005l0.016,0.019c0.331-0.417,0.661-0.441,0.989,0.004
	L215.422,241.198z"/>
<path fill="#38162A" d="M214.908,242.324c-0.171-0.374-0.343-0.747-0.515-1.121c0.343-0.002,0.686-0.003,1.029-0.005
	C215.251,241.573,215.08,241.948,214.908,242.324z"/>
<path fill="#53213F" d="M229.347,266.51c0.331-0.094,0.662-0.186,0.993-0.278C230.141,266.798,229.811,266.893,229.347,266.51z"/>
<path fill="#53213F" d="M226.37,263.273c-1.149-0.247-2.009-0.754-1.913-2.123c0.885-0.057,1.672,0.118,2.194,0.923
	C226.558,262.472,226.464,262.872,226.37,263.273z"/>
<path fill="#6F2C54" d="M123.275,448.405c0.084,0.575,1.797,1.093,1.88,1.669c-1.464,0.144-4.684,0.024-5.998,0.545
	c-5.761,2.283-11.371,0.684-16.978-0.471c-1.817-0.374-0.077-1.024,0.146-1.538c4.119-0.08,8.237-0.16,12.356-0.239
	C117.546,448.382,120.411,448.394,123.275,448.405z"/>
<path fill="#6F2C54" d="M145.427,450.342c-0.457,1.569-1.68,1.839-3.081,1.836c-4.754-0.01-9.508-0.011-14.262-0.016
	c-1.581-0.002-2.902-0.476-3.628-2.018C115.333,444.494,138.438,450.181,145.427,450.342z"/>
<path fill="#6F2C54" d="M209.387,470.198c5.201,0.431,10.484-0.861,15.632,0.736c-5.165-0.019-10.331-0.038-15.497-0.058
	C209.459,470.654,209.414,470.428,209.387,470.198z"/>
<path fill="#6F2C54" d="M157.26,465.36c-0.276,0.276-0.551,0.552-0.827,0.828l-0.042,0.044c-3.293,0.099-6.849-0.54-9.804,0.509
	c-2.84,1.008-3.885,0.137-5.095-1.835c1.803,0.22,3.651,0.806,5.246-0.65c0.23,0.006,0.454-0.029,0.67-0.107
	c4.879,1.511,5.883,0.866,6.051-3.976c0.045-1.294-0.068-2.592-0.108-3.888c1.197,0.613,2.393,1.225,3.59,1.837
	c0.271,2.223,0.541,4.447,0.811,6.67C157.592,464.984,157.428,465.173,157.26,465.36z"/>
<path fill="#6F2C54" d="M166.401,454.867c-0.724,3.559-2.894,7.26,1.008,10.37c-1.667,0.893-3.278,1.916-5.013,2.647
	c-2.352,0.992-4.687,1.366-6.006-1.653l0.042-0.044c0.277-0.277,0.554-0.554,0.829-0.83c0.166-0.184,0.33-0.373,0.489-0.563
	c4.468,1.568,6.016-0.491,5.833-4.699c-0.056-1.295-0.11-2.59-0.165-3.884C164.429,455.799,164.711,453.769,166.401,454.867z"/>
<path fill="#6F2C54" d="M115.333,464.152l0.007-0.007c1.959,0.081,3.946,0.343,5.696-0.9c0.206,0.618,0.41,1.237,0.615,1.855
	C116.215,468.92,116.215,468.92,115.333,464.152z"/>
<path fill="#53213F" d="M61.988,461.808c0.251-1.159,0.5-2.32,0.998-4.643c0.74,4.943,1.94,3.865,3.231,1.038
	c0.171,1.618,0.289,2.738,0.407,3.858C65.078,461.976,63.532,461.89,61.988,461.808z"/>
<path fill="#6F2C54" d="M171.198,458.61c-0.245,1.472-1.502,1.506-2.638,1.652c-0.608-1.499,0.895-2.587,0.776-3.991
	C170.671,456.483,171.429,457.217,171.198,458.61z"/>
<path fill="#6F2C54" d="M156.712,453.457c0.022,0.09-0.506,0.477-0.688,0.421c-0.351-0.107-0.636-0.432-0.948-0.667
	c0.284-0.268,0.568-0.537,1.02-0.963C156.379,452.767,156.621,453.093,156.712,453.457z"/>
<path fill="#53213F" d="M68.139,462.002c0.176-1.911,0.351-3.822,0.526-5.734C69.59,458.28,70.242,460.267,68.139,462.002z"/>
<path fill="#6F2C54" d="M146.757,456.147c-0.454-0.631-0.909-1.263-1.365-1.895c1.004-0.007,2.008-0.013,3.012-0.02
	c-0.438,0.642-0.875,1.284-1.313,1.927C147.091,456.159,146.756,456.147,146.757,456.147z"/>
<path fill="#6F2C54" d="M169.341,456.265c-0.313-0.358-0.625-0.716-0.938-1.074C169.582,454.793,169.239,455.723,169.341,456.265z"
	/>
<path fill="#53213F" d="M85.787,462.703c0.556,0.205,1.115,0.409,1.673,0.612C86.571,464.014,85.902,464.111,85.787,462.703z"/>
<path fill="#8C5676" d="M49.373,211.306c1.508-0.125,3.003-0.164,4.36,0.678C52.349,211.312,50.054,216.493,49.373,211.306z"/>
<path fill="#38162A" d="M156.458,198.118c1.161-0.087,2.095,0.397,2.916,1.163C157.684,200.693,157.092,199.352,156.458,198.118z"/>
<path fill="#8C5676" d="M69.763,194.234c1.732,0.138,1.609,1.748,1.88,2.951c0.21,0.932-0.208,1.73-1.185,1.617
	c-1.603-0.186-1.841-1.562-2.014-2.759C68.453,195.016,68.871,194.162,69.763,194.234z"/>
<path fill="#6F2C54" d="M217.378,268.34c-5.143,1.961-10.494,0.85-15.716,0.796c-6.733-0.07-13.548,1.186-20.216-0.754
	C193.423,268.368,205.4,268.354,217.378,268.34z"/>
<path fill="#CB4B55" d="M221.405,268.417c-0.332,0.004-0.664,0.008-0.996,0.013C220.741,268.426,221.072,268.422,221.405,268.417z"
	/>
<path fill="#6F2C54" d="M147.358,326.231c-0.839-2.967,1.156-5.56,2.832-6.638c1.677-1.079,4.133,1.242,5.732,2.92
	c1.331,1.398,3.408,3.104,1.938,5.02c-1.317,1.716-3.633,1.128-5.303-0.36c-0.947-0.845-2.016-1.051-3.209-0.954
	C148.685,326.223,148.022,326.227,147.358,326.231z"/>
<path fill="#53213F" d="M128.602,325.026c0.392,1.126-0.871,1.109-1.556,1.425c-0.348-0.717-0.696-1.434-1.045-2.15
	C126.942,324.33,128.2,323.869,128.602,325.026z"/>
<path fill="#6F2C54" d="M112.237,319.376c0.712,0.533,1.587,1.11,2.52,1.731c-0.343-0.01-0.688-0.011-1.037-0.001
	c-2.69,0.078-5.045,2.215-5,5c0.03,1.827,0.257,3.551,0.679,5.329c0.53,2.232,2.646,3.564,4.821,3.671
	c3.879,0.192,7.962-0.085,12.038-0.228c0.044,0.016,0.088,0.034,0.132,0.05c1.021,0.369,2.1,0.275,3.075-0.122
	c3.438-0.025,6.831,0.156,10.05,0.921c7.82,1.857,15.282,4.609,23.172,6.305c15.671,3.369,30.41,5.622,45.861-0.104
	c2.611-0.968,4.182-3.327,3.492-6.151c-0.786-3.213-2.201-5.588-4.133-7.192c0.628-2.159,0.058-4.704-2.165-5.796
	c-1.085-0.533-2.189-1.054-3.3-1.569c0.241-1.477,0.002-3.172-0.906-5.137c-1.571-3.398-5.134-4.927-8.975-5.475
	c0.034-2.014-0.98-3.892-3.513-4.322c-1.772-0.301-3.652-0.937-5.55-1.587c0.884-2.538-0.756-5.86-3.45-6.413
	c-8.245-1.694-13.312,4.341-12.829,12.321c0.027,0.449,0.135,0.876,0.28,1.287c-2.096-0.045-4.192,0.014-6.28,0.213
	c-0.315,0.03-0.612,0.089-0.899,0.159c-2.451-2.295-5.077-4.208-7.577-5.476c-3.85-1.953-8.229,1.682-7.617,5.227
	c-4.539-2.426-9.294-4.382-14.078-5.732c-3.604-1.017-5.936,1.575-6.095,4.434c-0.497,0.101-0.951,0.259-1.364,0.459
	c-4.378-6.307-8.428-12.575-17.199-10.893c-2.072,0.397-3.789,2.747-3.671,4.821C103.085,311.543,107.336,315.71,112.237,319.376z"
	/>
<path fill="#6F2C54" d="M53.397,313.219c-0.715,0.368-1.429,0.736-2.144,1.104c-0.446-0.349-0.891-0.697-1.336-1.045
	C51.076,313.258,52.236,313.239,53.397,313.219z"/>
<path fill="#C0A697" d="M181.372,142.235c0.298-4.53,2.544-1.366,4.074-1.032C184.338,142.532,182.914,142.616,181.372,142.235z"/>
<path fill="#E1D1C2" d="M257.476,195.351c0.233-0.356,0.465-0.713,0.698-1.069C257.941,194.639,257.709,194.995,257.476,195.351z"/>
<path fill="#C52C23" d="M157.262,465.357c-0.275,0.276-0.552,0.553-0.829,0.83C156.708,465.911,156.984,465.634,157.262,465.357z"/>
</svg>
