<?xml version="1.0" encoding="utf-8"?>
<!-- Generator: Adobe Illustrator 17.0.0, SVG Export Plug-In . SVG Version: 6.00 Build 0)  -->
<!DOCTYPE svg PUBLIC "-//W3C//DTD SVG 1.1//EN" "http://www.w3.org/Graphics/SVG/1.1/DTD/svg11.dtd">
<svg version="1.1" id="Layer_1" xmlns="http://www.w3.org/2000/svg" xmlns:xlink="http://www.w3.org/1999/xlink" x="0px" y="0px"
	 width="504.429px" height="390.202px" viewBox="4.635 0 504.429 390.202" enable-background="new 4.635 0 504.429 390.202"
	 xml:space="preserve">
<g>
	<path fill="#B1B6BC" d="M504.813,208.44c-1.02,13.84-7.134,29.42-12.436,42.076c-4.778,11.406-11.52,21.658-19.274,31.382
		c-17.055,21.388-37.852,38.207-62.631,49.283c-43.737,19.551-90.209,27.93-137.826,29.766c-29.797,1.149-59.574-0.38-89.124-4.808
		c-29.248-4.383-57.861-11.18-84.544-24.337c-49.451-24.385-81.937-62.231-92.156-117.476c-0.24-1.299,0.34-3.28-2.089-3.22
		c0-1,0-2,0-3c2.224-4.37,0.771-9.019,0.764-13.496c-0.008-4.142,1.576-8.483-0.765-12.503c0-1.333,0-2.667,0-4
		c2.896-0.344,1.875-2.754,2.087-4.299c2.792-20.375,8.694-39.693,19.837-57.118c25.355-39.651,62.417-63.589,106.439-77.281
		c36.508-11.355,74.385-14.895,112.419-15.778c34.866-0.81,69.514,2.266,103.786,8.959c30.724,6,59.537,16.841,85.688,34.269
		c2.546,1.697,5.748,2.828,6.813,6.212c-1.529,2.07-1.529,2.07,1.577,3.044c-0.587-1.118-1.094-2.083-1.601-3.047
		c2.607,0.165,4.193,1.609,5.02,4.005c-1.016,0.314-2.028,0.758-1.175,2.008c0.416,0.609,1.298,1.299,1.94,1.272
		c1.407-0.059,0.879-1.493,1.192-2.341c2.533,1.507,5.237,2.843,6.084,6.045c-0.696,0.009-1.393,0.018-2.09,0.027
		c-0.327-0.342-0.653-0.684-0.98-1.026c-0.342-0.319-0.684-0.639-1.025-0.959l-0.278-0.229c0,0,0.255,0.253,0.255,0.252
		c0.318,0.343,0.636,0.687,0.954,1.03c0.344,0.325,0.688,0.65,1.032,0.974c1.087,2.923,3.088,4.924,6.033,5.97
		c0.334,0.335,0.669,0.669,1.004,1.004c0.333,0.334,0.666,0.667,0.999,1.001c0.333,0.333,0.667,0.667,1,1
		c0.334,0.333,0.668,0.666,1.002,0.999c0.33,0.336,0.659,0.672,0.989,1.007c0.335,0.332,0.669,0.665,1,1.001
		c-0.337-0.33-0.67-0.665-1.002-0.999c-0.336-0.329-0.672-0.659-1.007-0.988c-0.333-0.334-0.666-0.668-0.999-1.002
		c-0.333-0.333-0.667-0.667-1-1s-0.667-0.666-1.001-0.999c-0.335-0.335-0.67-0.669-1.005-1.003c0.018-0.702,0.035-1.403,0.053-2.105
		c1.926,0.028,2.836,1.595,3.984,2.723c13.128,12.904,22.806,28.156,29.773,45.073c4.227,10.266,8.41,25.517,10.87,38.299
		 M483.747,123.083l0.162,0.21l-0.201-0.171c-0.332-0.669-0.664-1.337-0.995-2.006c-0.407-2.019-1.126-3.851-2.997-4.991
		c-0.158-1.339-0.778-2.37-2.004-2.995c-0.134-1.355-0.769-2.38-1.993-3.014c-0.261-1.875-1.369-3.128-2.956-4.031
		c-1.206-3.156-3.222-5.564-6.216-7.073c2.011,2.416,2.048,6.614,6.15,7.13c0.086,2.035,0.269,3.995,3.049,3.951
		c0.043,1.419,0.322,2.679,2.009,2.996c0.04,1.416,0.266,2.71,1.996,3.003c0.227,2.129,0.45,4.262,3.005,4.989
		C483.086,121.748,483.417,122.416,483.747,123.083z M39.717,104.085c0.405-0.235,0.809-0.471,1.214-0.706
		c-0.172-0.167-0.343-0.333-0.515-0.5c-0.221,0.414-0.442,0.828-0.663,1.242l-0.227,0.193
		C39.526,104.315,39.717,104.085,39.717,104.085z M433.696,69.145c0.16,0.607,0.307,1.237,1.112,1.251
		c0.1,0.002,0.298-0.212,0.291-0.314c-0.059-0.82-0.74-0.863-1.328-1.013c-0.631-1.213-1.636-1.877-2.988-2.032
		c-0.65-1.159-1.648-1.814-2.945-2.039c-1.888-2.092-4.092-3.642-6.957-4.059c-0.9-0.721-1.714-1.598-2.712-2.139
		c-15.259-8.268-31.227-14.919-47.921-19.569c-29.611-8.247-60.032-11.684-90.606-12.941c-18.912-0.778-37.898-0.77-56.876,0.561
		c-26.908,1.887-53.535,4.983-79.677,11.975c-27.807,7.438-53.629,18.827-76.117,36.986c-5.195,4.195-11.361,7.687-14.217,14.312
		L52.516,90.3l0.199-0.216c1.576-0.267,2.63-1.333,3.724-2.372c23.483-22.291,51.594-36.224,82.502-44.586
		c33.383-9.031,67.608-12.38,102.101-12.999c16.294-0.292,32.585,0.134,48.885,0.77c13.324,0.52,26.574,1.651,39.643,3.835
		c14.808,2.474,29.696,4.538,44.223,8.93c9.227,2.79,18.252,5.945,27.3,9.19c6.705,2.405,12.278,7.336,19.521,8.4
		c1.778,2.301,4.072,3.695,7.001,3.974c0.496,1.457,1.646,1.897,3.04,1.959C431.093,68.732,432.275,69.124,433.696,69.145z
		 M33.754,112.133c-5.994,5.632-8.643,13.316-12.214,20.374c-6.148,12.15-8.58,25.227-10.415,38.742
		c-3.809,28.059,0.165,54.63,11.62,80.295c10.118,22.67,27.001,39.831,46.123,54.752c17.57,13.71,37.617,23.311,58.634,30.59
		c34.801,12.053,71.074,15.568,107.547,17.141c18.121,0.782,36.283,0.144,54.432-0.657c8.852-0.391,17.556-1.679,26.282-2.756
		c17.635-2.177,35.055-5.383,52.369-9.747c16.111-4.061,31.522-9.72,46.25-16.888c24.462-11.905,44.927-29.365,60.732-51.425
		c23.638-32.995,29.918-70.192,23.049-109.78c-0.798-4.6-1.218-9.694-4.653-14.717c-1.087,4.791-0.898,8.434,0.07,12.175
		c1.12,4.326,2.481,8.712,2.692,13.121c0.315,6.595-0.222,13.236-0.508,19.853c-0.362,8.359-0.233,16.769-3.344,24.799
		c-0.946,2.443-1.655,5.227-1.507,7.799c0.575,10-5.638,17.044-10.308,24.761c-0.842,1.392-2.236,2.666-4.154,2.216
		c-1.959-0.461-1.639-2.276-1.78-3.701c-0.345-3.481-2.09-5.625-5.491-3.844c-3.86,2.022-7.276,4.824-11.971,2.506
		c-0.246-0.122-0.911,0.372-1.251,0.71c-2.623,2.605-5.911,2.771-9.31,2.667c-2.408-0.074-4.582,0.349-6.146,2.552
		c-4.367,6.148-10.641,10.438-16.149,15.335c-8.772,7.798-18.613,14.215-29.698,18.904c-16.277,6.884-32.62,13.342-50.011,16.675
		c-22.225,4.259-44.682,7.317-67.255,8.241c-18.761,0.768-37.599,0.936-56.421-0.528c-16.753-1.304-33.501-2.66-49.997-5.747
		c-24.848-4.65-48.601-12.288-69.773-26.872c-14.701-10.127-26.404-22.893-34.93-38.319c-9.094-16.452-12.682-34.5-12.518-53.294
		c0.048-5.522-2.07-7.267-7.744-6.845c-1.958,0.146-3.816,1.185-5.888,0.392c-6.976-2.67-13.984-5.256-20.978-7.88
		c-1.633-0.613-2.806-1.589-3.362-3.387c-1.415-4.571-2.036-9.477-0.699-13.823c3.71-12.064,7.609-24.115,14.195-35.071
		c1.766-2.938,4.345-5.594,4.436-9.364c2.296-1.014,3.547-2.836,4.698-5.821C35.087,107.6,34.31,109.783,33.754,112.133z
		 M257.149,295.065c19.424,0.628,37.49,0.464,55.086-3.252c34.616-7.309,68.493-16.18,95.218-42.246
		c7.949-7.753,13.687-15.841,17.409-25.886c0.936-2.527,3.685-6.202,0.674-7.327c-2.765-1.032-4.259,3.48-5.209,6.186
		c-1.795,5.113-4.298,9.972-8.198,13.469c-12.226,10.963-24.36,22.165-40.42,27.628c-12.295,4.183-24.622,8.371-37.264,11.233
		c-15.238,3.45-30.852,4.718-46.36,6.646c-25.172,3.131-50.16,1.61-75.165-0.93c-12.404-1.26-24.639-3.789-36.847-6.399
		c-20.765-4.439-40.13-12.268-57.187-24.854c-6.272-4.628-11.947-10.39-16.077-17.553c-4.383-7.601-3.173-16.127-5.398-24.039
		c-0.719-2.556,1.71-4.397,4.886-3.969c4.316,0.582,8.582,0.088,12.913-0.363c7.95-0.828,16.025-0.993,23.844,0.929
		c3.223,0.792,6.298,2.344,9.658,1.604c4.627-1.019,9.297-0.489,13.932-0.827c17.535-1.279,35.055,2.389,52.604-0.058
		c12.845-1.791,25.816-0.726,38.722-0.926c19.9-0.308,39.675,3.788,59.664,1.932c10.737-0.997,21.377-0.708,32.205-3.417
		c13.226-3.309,27.328-4.514,41.097-3.251c7.259,0.666,14.243-0.678,21.375-0.495c4.57,0.117,7.118-2.845,6.29-7.103
		c-0.983-5.058-1.687-10.126-2.444-15.207c-0.4-2.685-1.633-5.667-3.441-7.646c-7.062-7.73-14.219-15.366-23.515-20.674
		c-18.235-10.413-37.486-17.267-58.318-20.935c-24.488-4.312-49.024-7.094-73.809-8.152c-20.531-0.876-40.736,2.858-61.095,4.417
		c-15.162,1.161-29.863,4.39-44.271,9.414c-11.699,4.079-23.183,8.281-32.861,16.329c-1.65,1.372-3.593,2.413-5.474,3.477
		c-0.95,0.537-2.224,1.489-3.108,0.198c-0.785-1.146,0.335-2.114,1.028-3.053c4.359-5.913,10.515-9.674,16.581-13.397
		c17.063-10.474,35.748-16.723,55.39-20.087c18.213-3.119,36.601-4.846,55.067-5.335c25.656-0.679,51.174,0.221,76.609,4.64
		c20.388,3.542,40.562,6.894,59.56,15.859c16.874,7.963,30.805,18.614,40.906,34.557c5.047,7.966,8.089,17.021,14.602,24.261
		c4.058,4.511,1.431,8.504-4.666,8.777c-1.732,0.078-4.016-0.846-4.993,1.203c-1.068,2.242,0.664,4.165,1.783,5.936
		c2.057,3.253,5.405,2.757,8.57,2.496c1.743-0.144,2.816-1.24,2.83-2.938c0.04-4.826,0.682-9.806-0.266-14.45
		c-2.935-14.386-10.096-26.612-20.613-36.87c-24.24-23.643-52.467-39.066-86.309-44.659c-29.639-4.898-59.256-8.278-89.297-6.803
		c-9.126,0.448-18.292,1.016-27.32,2.345c-21.961,3.233-43.496,8.417-63.696,17.822c-22.761,10.597-43.114,24.059-55.195,47.45
		c-7.762,15.028-7.894,30.846-4.203,46.168c5.588,23.195,22.08,38.332,42.202,50.062c24.234,14.128,51.467,18.365,78.203,23.924
		C221.242,294.712,239.875,296.267,257.149,295.065z M48.778,93.865c-2.148,0.812-3.858,2.01-4.645,4.965
		C46.878,97.674,48.275,96.194,48.778,93.865z M438.198,72.118c-0.202-0.172-0.404-0.344-0.607-0.515
		c-0.087,0.119-0.265,0.322-0.245,0.344c0.177,0.196,0.39,0.359,0.592,0.532C438.024,72.359,438.11,72.239,438.198,72.118z"/>
	<path fill="#FEFEFE" d="M504.829,386.107c0.008,3.425-0.673,4.097-4.097,4.095c-164-0.109-328-0.109-492,0
		c-3.423,0.002-4.105-0.669-4.097-4.095c0.135-58.333,0.097-116.667,0.097-175c2.429-0.059,1.849,1.922,2.089,3.22
		c10.22,55.245,42.705,93.091,92.156,117.476c26.683,13.157,55.296,19.954,84.544,24.337c29.551,4.428,59.328,5.957,89.124,4.808
		c47.617-1.836,94.089-10.216,137.826-29.766c24.779-11.076,45.575-27.895,62.631-49.283c7.754-9.724,14.496-19.976,19.274-31.382
		c10.429-15.076,15.668-39.569,16.688-53.409"/>
	<path fill="#FEFEFE" d="M492.529,135.808c-6.966-16.918-16.645-32.17-29.773-45.073c-1.148-1.129-2.058-2.695-3.984-2.724
		l0.006,0.079c-0.011-0.674-0.353-1.018-1.028-1.029l0.028,0.028c-0.008-0.674-0.332-1.035-1.024-1.028l0.024,0.024
		c0.01-0.693-0.331-1.035-1.024-1.024l0.024,0.024c0.012-0.694-0.325-1.04-1.023-1.024l0.084-0.005
		c-0.848-3.203-3.551-4.539-6.084-6.046l0.036,0.087c-0.52-0.676-1.129-1.176-2.06-1.037l0.067,0.012
		c-0.828-2.395-2.414-3.839-5.021-4.005l0.024,0.003c-1.066-3.384-4.268-4.515-6.814-6.212
		c-26.151-17.428-54.964-28.269-85.688-34.269c-34.272-6.693-68.92-9.769-103.786-8.959c-38.034,0.884-75.911,4.423-112.419,15.778
		C89.072,53.1,52.01,77.038,26.655,116.689C15.513,134.114,9.61,153.432,6.818,173.807c-0.212,1.545,0.809,3.955-2.087,4.299
		c0-57.966,0.03-115.932-0.081-173.898C4.644,1.009,4.99-0.003,8.624,0c164.071,0.123,328.141,0.123,492.212,0
		c3.633-0.003,3.981,1.008,3.975,4.208"/>
	<path fill="#FEFEFE" d="M4.732,182.107c2.341,4.02,0.757,8.361,0.764,12.504c0.007,4.477,1.46,9.126-0.764,13.496
		C4.732,199.44,4.732,190.774,4.732,182.107z"/>
	<path fill="#D6D8DC" d="M257.149,295.065c-17.274,1.202-35.907-0.352-54.115-4.138c-26.736-5.559-53.969-9.796-78.203-23.924
		c-20.122-11.731-36.614-26.868-42.202-50.062c-3.692-15.323-3.559-31.14,4.203-46.168c12.082-23.392,32.434-36.853,55.195-47.45
		c20.2-9.404,41.735-14.588,63.696-17.822c9.028-1.329,18.194-1.897,27.32-2.345c30.041-1.475,59.658,1.905,89.297,6.803
		c33.842,5.593,62.069,21.016,86.309,44.659c10.517,10.258,17.678,22.484,20.613,36.87c0.947,4.644,0.306,9.625,0.266,14.45
		c-0.014,1.699-1.087,2.794-2.83,2.938c-3.166,0.262-6.514,0.757-8.57-2.496c-1.119-1.771-2.851-3.694-1.783-5.936
		c0.977-2.049,3.261-1.126,4.993-1.203c6.097-0.273,8.724-4.266,4.666-8.777c-6.513-7.24-9.555-16.295-14.602-24.261
		c-10.1-15.944-24.031-26.595-40.906-34.557c-18.998-8.965-39.172-12.317-59.56-15.859c-25.436-4.418-50.953-5.319-76.609-4.64
		c-18.466,0.489-36.853,2.216-55.067,5.335c-19.642,3.363-38.327,9.612-55.39,20.087c-6.066,3.723-12.222,7.484-16.581,13.397
		c-0.692,0.939-1.812,1.908-1.028,3.053c0.884,1.291,2.158,0.34,3.108-0.198c1.881-1.064,3.824-2.105,5.474-3.477
		c9.678-8.048,21.162-12.25,32.861-16.329c14.408-5.024,29.109-8.253,44.271-9.414c20.359-1.559,40.564-5.293,61.095-4.417
		c24.786,1.058,49.322,3.84,73.809,8.152c20.832,3.668,40.083,10.522,58.318,20.935c9.296,5.309,16.453,12.944,23.515,20.674
		c1.808,1.979,3.041,4.961,3.441,7.646c0.757,5.081,1.461,10.149,2.444,15.207c0.827,4.258-1.72,7.22-6.29,7.103
		c-7.132-0.183-14.116,1.161-21.375,0.495c-13.769-1.263-27.871-0.058-41.097,3.251c-10.828,2.709-21.468,2.42-32.205,3.417
		c-19.989,1.856-39.764-2.239-59.664-1.932c-12.906,0.2-25.877-0.865-38.722,0.926c-17.55,2.447-35.069-1.221-52.604,0.058
		c-4.634,0.338-9.304-0.192-13.932,0.827c-3.36,0.74-6.436-0.812-9.658-1.604c-7.819-1.922-15.894-1.757-23.844-0.929
		c-4.331,0.451-8.597,0.945-12.913,0.363c-3.176-0.428-5.604,1.414-4.886,3.969c2.226,7.912,1.015,16.438,5.398,24.039
		c4.131,7.164,9.805,12.925,16.077,17.553c17.057,12.586,36.422,20.414,57.187,24.854c12.208,2.61,24.443,5.14,36.847,6.399
		c25.004,2.54,49.992,4.061,75.165,0.93c15.508-1.929,31.123-3.196,46.36-6.646c12.643-2.863,24.969-7.05,37.264-11.233
		c16.059-5.464,28.194-16.665,40.42-27.628c3.901-3.498,6.403-8.356,8.198-13.469c0.95-2.706,2.444-7.218,5.209-6.186
		c3.011,1.124,0.263,4.799-0.674,7.327c-3.722,10.045-9.46,18.133-17.409,25.886c-26.725,26.066-60.602,34.937-95.218,42.246
		C294.638,295.528,276.572,295.693,257.149,295.065z"/>
	<path fill="#D6D8DC" d="M33.707,112.088c-0.09,3.77-2.669,6.426-4.435,9.364c-6.587,10.955-10.485,23.007-14.195,35.071
		c-1.336,4.345-0.715,9.251,0.699,13.823c0.556,1.797,1.73,2.774,3.362,3.387c6.993,2.624,14.002,5.21,20.978,7.88
		c2.072,0.793,3.93-0.247,5.888-0.392c5.674-0.422,7.792,1.323,7.744,6.845c-0.164,18.795,3.424,36.842,12.518,53.294
		c8.526,15.425,20.229,28.192,34.93,38.319c21.172,14.584,44.925,22.221,69.773,26.872c16.496,3.087,33.243,4.443,49.997,5.747
		c18.822,1.465,37.66,1.296,56.421,0.528c22.573-0.924,45.03-3.982,67.255-8.241c17.392-3.332,33.734-9.791,50.011-16.675
		c11.085-4.688,20.926-11.105,29.698-18.904c5.508-4.897,11.783-9.187,16.149-15.335c1.564-2.203,3.738-2.626,6.146-2.552
		c3.399,0.105,6.688-0.061,9.31-2.667c0.34-0.338,1.005-0.831,1.251-0.71c4.695,2.318,8.111-0.484,11.971-2.506
		c3.401-1.781,5.146,0.363,5.491,3.844c0.141,1.425-0.179,3.24,1.78,3.701c1.917,0.451,3.311-0.824,4.154-2.216
		c4.67-7.717,10.883-14.761,10.308-24.761c-0.148-2.572,0.561-5.357,1.507-7.799c3.11-8.03,2.982-16.44,3.344-24.799
		c0.286-6.617,0.823-13.258,0.508-19.853c-0.211-4.41-1.572-8.796-2.692-13.121c-0.968-3.741-1.158-7.384-0.07-12.175
		c3.435,5.022,3.854,10.117,4.653,14.717c6.869,39.588,0.59,76.785-23.049,109.78c-15.804,22.06-36.27,39.52-60.732,51.425
		c-14.727,7.168-30.138,12.827-46.25,16.888c-17.313,4.364-34.734,7.57-52.369,9.747c-8.726,1.077-17.43,2.365-26.282,2.756
		c-18.148,0.802-36.311,1.439-54.432,0.657c-36.473-1.574-72.747-5.088-107.547-17.141c-21.016-7.279-41.063-16.88-58.634-30.59
		c-19.122-14.921-36.005-32.083-46.123-54.752c-11.455-25.665-15.429-52.236-11.62-80.295c1.835-13.515,4.267-26.592,10.415-38.742
		c3.571-7.057,6.22-14.742,12.214-20.374L33.707,112.088z"/>
	<path fill="#D6D8DC" d="M420.614,61.256c-7.241-1.068-12.814-5.999-19.518-8.404c-9.048-3.246-18.074-6.4-27.3-9.19
		c-14.527-4.392-29.416-6.456-44.223-8.93c-13.07-2.183-26.32-3.315-39.643-3.835c-16.3-0.636-32.591-1.062-48.885-0.77
		c-34.493,0.618-68.719,3.968-102.101,12.999c-30.908,8.361-59.019,22.295-82.502,44.586c-1.094,1.038-2.148,2.105-3.724,2.372
		l0.04,0.041c2.856-6.625,9.021-10.117,14.217-14.312c22.489-18.159,48.311-29.548,76.117-36.986
		c26.142-6.992,52.769-10.089,79.677-11.975c18.978-1.331,37.964-1.339,56.876-0.561c30.574,1.258,60.995,4.694,90.606,12.941
		c16.694,4.65,32.662,11.301,47.921,19.569c0.997,0.54,1.812,1.418,2.71,2.141C420.878,60.944,420.614,61.256,420.614,61.256z"/>
	<path fill="#D6D8DC" d="M472.696,106.143c-4.1-0.517-4.138-4.715-6.149-7.131c2.994,1.509,5.01,3.917,6.215,7.073L472.696,106.143z
		"/>
	<path fill="#D6D8DC" d="M48.778,93.865c-0.503,2.329-1.9,3.808-4.645,4.965C44.92,95.875,46.63,94.678,48.778,93.865z"/>
	<path fill="#D6D8DC" d="M452.75,84.082c0.697-0.009,1.393-0.018,2.09-0.027l-0.084,0.005c0.341,0.341,0.682,0.683,1.023,1.024
		l-0.024-0.024c0.341,0.341,0.683,0.683,1.024,1.024l-0.024-0.024c0.341,0.343,0.683,0.685,1.024,1.028l-0.028-0.028
		c0.343,0.343,0.685,0.686,1.028,1.029l-0.006-0.079c-0.018,0.702-0.035,1.403-0.053,2.105l0.021-0.021
		c-2.945-1.046-4.946-3.046-6.032-5.97C452.708,84.125,452.75,84.082,452.75,84.082z"/>
	<path fill="#D6D8DC" d="M33.754,112.133c0.556-2.35,1.334-4.533,4.652-5.866c-1.151,2.985-2.402,4.807-4.698,5.821
		C33.707,112.088,33.754,112.133,33.754,112.133z"/>
	<path fill="#D6D8DC" d="M427.615,65.23c-2.926-0.283-5.219-1.677-6.999-3.976c-0.001,0.002,0.263-0.31,0.265-0.312
		c2.867,0.415,5.071,1.965,6.959,4.057L427.615,65.23z"/>
	<path fill="#D6D8DC" d="M448.755,78.01c-0.312,0.848,0.216,2.282-1.192,2.341c-0.643,0.027-1.525-0.663-1.94-1.272
		c-0.853-1.25,0.158-1.694,1.175-2.008l-0.067-0.012c0.687,0.346,1.373,0.692,2.06,1.037L448.755,78.01z"/>
	<path fill="#D6D8DC" d="M441.777,73.067c0.507,0.965,1.013,1.929,1.601,3.047c-3.106-0.974-3.106-0.974-1.577-3.044L441.777,73.067
		z"/>
	<path fill="#D6D8DC" d="M475.746,110.092c-2.781,0.045-2.964-1.915-3.05-3.95c-0.001,0.001,0.066-0.057,0.066-0.057
		c1.587,0.903,2.696,2.156,2.956,4.031C475.719,110.116,475.746,110.092,475.746,110.092z"/>
	<path fill="#D6D8DC" d="M479.714,116.126c1.871,1.14,2.591,2.971,2.998,4.991l0.043-0.036c-2.555-0.727-2.778-2.859-3.005-4.989
		L479.714,116.126z"/>
	<path fill="#D6D8DC" d="M479.751,116.091c-1.73-0.293-1.956-1.586-1.996-3.003l-0.043,0.042c1.226,0.625,1.846,1.656,2.004,2.995
		C479.714,116.126,479.751,116.091,479.751,116.091z"/>
	<path fill="#D6D8DC" d="M477.755,113.088c-1.686-0.317-1.966-1.577-2.008-2.996c0,0-0.027,0.024-0.028,0.024
		c1.224,0.634,1.859,1.659,1.993,3.014L477.755,113.088z"/>
	<path fill="#D6D8DC" d="M430.786,67.035c1.35,0.157,2.355,0.822,2.986,2.034l-0.076,0.077c-1.42-0.022-2.602-0.414-3.036-1.963
		C430.661,67.182,430.786,67.035,430.786,67.035z"/>
	<path fill="#D6D8DC" d="M427.839,64.999c1.296,0.225,2.295,0.88,2.946,2.038c0.001-0.001-0.124,0.146-0.125,0.147
		c-1.395-0.061-2.546-0.501-3.043-1.956C427.615,65.23,427.839,64.999,427.839,64.999z"/>
	<path fill="#D6D8DC" d="M438.197,72.119c-0.087,0.121-0.173,0.24-0.259,0.36c-0.202-0.173-0.415-0.336-0.592-0.532
		c-0.02-0.022,0.159-0.225,0.245-0.344C437.794,71.774,437.996,71.946,438.197,72.119z"/>
	<path fill="#D6D8DC" d="M433.772,69.069c0.588,0.151,1.269,0.194,1.328,1.013c0.007,0.102-0.191,0.315-0.291,0.314
		c-0.805-0.014-0.952-0.644-1.113-1.25C433.695,69.147,433.772,69.069,433.772,69.069z"/>
	<path fill="#D6D8DC" d="M39.754,104.122c0.221-0.414,0.442-0.828,0.662-1.242c0.172,0.167,0.343,0.333,0.515,0.5
		c-0.405,0.235-0.809,0.471-1.214,0.706L39.754,104.122z"/>
	<path fill="#D6D8DC" d="M483.747,123.083c-0.33-0.668-0.661-1.335-0.991-2.003l-0.043,0.036c0.332,0.668,0.664,1.337,0.995,2.006
		L483.747,123.083z"/>
	<polygon fill="#D6D8DC" points="483.708,123.122 483.909,123.293 483.747,123.083 	"/>
	<polygon fill="#D6D8DC" points="39.717,104.085 39.526,104.315 39.754,104.122 	"/>
	<path fill="#D6D8DC" d="M464.737,96.103c-0.335-0.332-0.669-0.665-1.004-0.997l-0.002,0.002c0.333,0.334,0.665,0.669,0.998,1.003
		C464.729,96.112,464.737,96.103,464.737,96.103z"/>
	<path fill="#D6D8DC" d="M462.723,94.12c0.336,0.329,0.672,0.659,1.008,0.988l0.002-0.002c-0.33-0.336-0.659-0.672-0.989-1.007
		L462.723,94.12z"/>
	<path fill="#D6D8DC" d="M461.724,93.118c0.333,0.334,0.666,0.668,0.999,1.002l0.021-0.021c-0.334-0.333-0.668-0.666-1.002-0.999
		L461.724,93.118z"/>
	<path fill="#D6D8DC" d="M460.724,92.118c0.333,0.333,0.667,0.666,1,1l0.018-0.018c-0.333-0.333-0.667-0.667-1-1L460.724,92.118z"/>
	<path fill="#D6D8DC" d="M459.724,91.119c0.334,0.333,0.667,0.666,1.001,0.999l0.018-0.018c-0.333-0.334-0.666-0.667-0.999-1.001
		C459.743,91.099,459.724,91.119,459.724,91.119z"/>
	<path fill="#D6D8DC" d="M458.719,90.116c0.335,0.334,0.67,0.669,1.005,1.003c0,0,0.019-0.02,0.02-0.02
		c-0.334-0.335-0.669-0.669-1.003-1.004C458.74,90.095,458.719,90.116,458.719,90.116z"/>
	<polygon fill="#D6D8DC" points="52.716,90.083 52.517,90.3 52.757,90.124 	"/>
	<polygon fill="#D6D8DC" points="450.721,82.121 450.466,81.869 450.744,82.098 	"/>
	<path fill="#D6D8DC" d="M451.77,83.056c0.326,0.342,0.653,0.684,0.979,1.026c0,0-0.042,0.042-0.042,0.043
		c-0.344-0.324-0.688-0.649-1.032-0.975C451.677,83.15,451.77,83.056,451.77,83.056z"/>
	<path fill="#D6D8DC" d="M450.744,82.098c0.342,0.32,0.683,0.64,1.025,0.959c0.001-0.001-0.093,0.093-0.094,0.093
		c-0.319-0.343-0.637-0.686-0.954-1.029C450.721,82.121,450.744,82.098,450.744,82.098z"/>
	<path fill="#B1B6BC" d="M448.791,78.097c-0.687-0.346-1.373-0.692-2.06-1.037C447.661,76.922,448.271,77.421,448.791,78.097z"/>
	<path fill="#B1B6BC" d="M458.779,88.09c-0.343-0.343-0.685-0.686-1.028-1.029C458.425,87.072,458.768,87.415,458.779,88.09z"/>
	<path fill="#B1B6BC" d="M457.779,87.088c-0.341-0.343-0.683-0.685-1.024-1.028C457.447,86.053,457.77,86.414,457.779,87.088z"/>
	<path fill="#B1B6BC" d="M456.779,86.085c-0.341-0.341-0.683-0.683-1.024-1.024C456.448,85.05,456.789,85.392,456.779,86.085z"/>
	<path fill="#B1B6BC" d="M455.779,85.084c-0.341-0.341-0.682-0.683-1.023-1.024C455.454,84.045,455.79,84.391,455.779,85.084z"/>
</g>
</svg>
