<?xml version="1.0" encoding="utf-8"?>
<!-- Generator: Adobe Illustrator 17.0.0, SVG Export Plug-In . SVG Version: 6.00 Build 0)  -->
<!DOCTYPE svg PUBLIC "-//W3C//DTD SVG 1.1//EN" "http://www.w3.org/Graphics/SVG/1.1/DTD/svg11.dtd">
<svg version="1.1" xmlns="http://www.w3.org/2000/svg" xmlns:xlink="http://www.w3.org/1999/xlink" x="0px" y="0px"
	 width="1004.444px" height="648.182px" viewBox="0 0 1004.444 648.182" enable-background="new 0 0 1004.444 648.182"
	 xml:space="preserve">
<g id="Layer_7">
	<g>
		
			<line fill="none" stroke="#4F709E" stroke-width="27" stroke-miterlimit="10" x1="831.613" y1="323.27" x2="782.244" y2="310.632"/>
		
			<line fill="none" stroke="#4F709E" stroke-width="27" stroke-miterlimit="10" x1="837.303" y1="319.035" x2="826.003" y2="268.911"/>
		
			<line fill="none" stroke="#4F709E" stroke-width="27" stroke-miterlimit="10" x1="881.768" y1="286.489" x2="845.622" y2="320.682"/>
		
			<line fill="none" stroke="#4F709E" stroke-width="27" stroke-miterlimit="10" x1="894.736" y1="344.996" x2="849.924" y2="332.992"/>
		
			<line fill="none" stroke="#4F709E" stroke-width="27" stroke-miterlimit="10" x1="851.282" y1="382.286" x2="841.609" y2="340.27"/>
		
			<line fill="none" stroke="#4F709E" stroke-width="27" stroke-miterlimit="10" x1="796.508" y1="365.744" x2="830.166" y2="333.649"/>
	</g>
	
		<line fill="none" stroke="#4F709E" stroke-width="40" stroke-miterlimit="10" x1="834.167" y1="320.682" x2="820.63" y2="303.586"/>
	
		<line fill="none" stroke="#4F709E" stroke-width="40" stroke-miterlimit="10" x1="841.609" y1="320.682" x2="847.878" y2="295.338"/>
	
		<line fill="none" stroke="#4F709E" stroke-width="40" stroke-miterlimit="10" x1="847.878" y1="325.885" x2="876.258" y2="323.27"/>
	
		<line fill="none" stroke="#4F709E" stroke-width="40" stroke-miterlimit="10" x1="844.744" y1="335.134" x2="862.068" y2="353.718"/>
	
		<line fill="none" stroke="#4F709E" stroke-width="40" stroke-miterlimit="10" x1="836.348" y1="335.134" x2="826.003" y2="357.848"/>
	
		<line fill="none" stroke="#4F709E" stroke-width="40" stroke-miterlimit="10" x1="832.57" y1="328.892" x2="803.641" y2="329.473"/>
	<g>
		
			<line fill="none" stroke="#4F709E" stroke-width="20" stroke-miterlimit="10" x1="806.928" y1="275.621" x2="794.239" y2="256.636"/>
		
			<line fill="none" stroke="#4F709E" stroke-width="20" stroke-miterlimit="10" x1="837.303" y1="264.112" x2="837.303" y2="240.284"/>
		
			<line fill="none" stroke="#4F709E" stroke-width="20" stroke-miterlimit="10" x1="872.585" y1="275.621" x2="889.066" y2="258.708"/>
		
			<line fill="none" stroke="#4F709E" stroke-width="20" stroke-miterlimit="10" x1="894.736" y1="299.934" x2="911.707" y2="289.885"/>
		
			<line fill="none" stroke="#4F709E" stroke-width="20" stroke-miterlimit="10" x1="898.511" y1="324.924" x2="921.319" y2="323.963"/>
		
			<line fill="none" stroke="#4F709E" stroke-width="20" stroke-miterlimit="10" x1="890.538" y1="357.848" x2="911.571" y2="367.834"/>
		
			<line fill="none" stroke="#4F709E" stroke-width="20" stroke-miterlimit="10" x1="867.13" y1="379.776" x2="881.768" y2="397.738"/>
		
			<line fill="none" stroke="#4F709E" stroke-width="20" stroke-miterlimit="10" x1="834.167" y1="386.478" x2="834.152" y2="408.536"/>
		
			<line fill="none" stroke="#4F709E" stroke-width="20" stroke-miterlimit="10" x1="804.937" y1="375.219" x2="791.729" y2="390.574"/>
		
			<line fill="none" stroke="#4F709E" stroke-width="20" stroke-miterlimit="10" x1="784.513" y1="353.718" x2="762.789" y2="365.744"/>
		
			<line fill="none" stroke="#4F709E" stroke-width="20" stroke-miterlimit="10" x1="777.535" y1="323.27" x2="755.013" y2="324.443"/>
		
			<line fill="none" stroke="#4F709E" stroke-width="20" stroke-miterlimit="10" x1="785.835" y1="295.338" x2="759.273" y2="285.022"/>
	</g>
	
		<line fill="none" stroke="#294F7A" stroke-width="18" stroke-miterlimit="10" x1="837.303" y1="319.035" x2="826.003" y2="268.911"/>
	
		<line fill="none" stroke="#294F7A" stroke-width="18" stroke-miterlimit="10" x1="845.622" y1="320.682" x2="879.316" y2="287.347"/>
	
		<line fill="none" stroke="#294F7A" stroke-width="18" stroke-miterlimit="10" x1="893.115" y1="343.375" x2="845.394" y2="331.904"/>
	
		<line fill="none" stroke="#294F7A" stroke-width="18" stroke-miterlimit="10" x1="782.244" y1="310.632" x2="833.472" y2="324.911"/>
	
		<line fill="none" stroke="#294F7A" stroke-width="18" stroke-miterlimit="10" x1="796.508" y1="365.744" x2="833.166" y2="331.904"/>
	
		<line fill="none" stroke="#294F7A" stroke-width="18" stroke-miterlimit="10" x1="850.687" y1="379.776" x2="840.609" y2="335.919"/>
	
		<line fill="none" stroke="#143A61" stroke-width="18" stroke-miterlimit="10" x1="836.348" y1="323.27" x2="821.601" y2="305.784"/>
	
		<line fill="none" stroke="#143A61" stroke-width="18" stroke-miterlimit="10" x1="841.609" y1="323.27" x2="847.878" y2="299.934"/>
	
		<line fill="none" stroke="#143A61" stroke-width="18" stroke-miterlimit="10" x1="846.378" y1="325.885" x2="869.254" y2="323.963"/>
	
		<line fill="none" stroke="#143A61" stroke-width="18" stroke-miterlimit="10" x1="843.385" y1="333.649" x2="858.974" y2="350.682"/>
	
		<line fill="none" stroke="#143A61" stroke-width="18" stroke-miterlimit="10" x1="836.348" y1="333.649" x2="827.585" y2="353.718"/>
	
		<line fill="none" stroke="#143A61" stroke-width="18" stroke-miterlimit="10" x1="832.57" y1="328.892" x2="808.689" y2="330.055"/>
	<rect x="831.613" y="245.148" fill="#2D527F" width="11.38" height="18.965"/>
	<rect x="828.424" y="386.167" fill="#2D527F" width="11.457" height="18.964"/>
	<rect x="759.273" y="319.035" fill="#2D527F" width="18.965" height="9.857"/>
	<rect x="898.511" y="319.768" fill="#2D527F" width="18.964" height="10.286"/>
	
		<rect x="896.375" y="285.857" transform="matrix(-0.5 -0.866 0.866 -0.5 1095.9193 1223.3975)" fill="#2D527F" width="9.488" height="18.963"/>
	<polygon fill="#2D527F" points="787.16,301.579 792.282,294.064 767.911,282.534 762.789,290.048 	"/>
	<polygon fill="#2D527F" points="907.377,370.229 911.571,363.469 889.645,351.753 885.452,358.514 	"/>
	
		<rect x="770.979" y="349.775" transform="matrix(-0.5 -0.866 0.866 -0.5 851.9958 1210.4054)" fill="#2D527F" width="8.855" height="18.963"/>
	
		<rect x="794.566" y="372.805" transform="matrix(-0.7431 -0.6691 0.6691 -0.7431 1138.1251 1201.4623)" fill="#2D527F" width="10.196" height="18.962"/>
	<polygon fill="#2D527F" points="871.749,375.219 864.373,382.497 876.03,397.738 883.405,390.459 	"/>
	<polygon fill="#2D527F" points="802.099,277.637 808.689,272.639 798.319,256.636 791.729,261.634 	"/>
	
		<rect x="874.645" y="259.434" transform="matrix(0.7525 0.6586 -0.6586 0.7525 394.7382 -512.5485)" fill="#2D527F" width="9.316" height="18.965"/>
	<g>
		<g>
			<path fill="#4F709E" d="M838.161,261.194c-35.727,0-64.69,28.962-64.69,64.69s28.962,64.69,64.69,64.69
				c35.727,0,64.69-28.962,64.69-64.69S873.888,261.194,838.161,261.194z M838.161,381.201c-30.55,0-55.317-24.766-55.317-55.317
				s24.766-55.317,55.317-55.317c30.55,0,55.317,24.766,55.317,55.317S868.711,381.201,838.161,381.201z"/>
		</g>
	</g>
	<g>
		<g>
			<path fill="#4F709E" d="M840.401,302.01c-14.279,0-25.854,11.575-25.854,25.854c0,14.279,11.575,25.854,25.854,25.854
				s25.854-11.575,25.854-25.854C866.255,313.585,854.68,302.01,840.401,302.01z M840.401,349.972
				c-12.21,0-22.108-9.898-22.108-22.108s9.898-22.108,22.108-22.108c12.21,0,22.108,9.898,22.108,22.108
				C862.509,340.074,852.611,349.972,840.401,349.972z"/>
		</g>
	</g>
	<circle fill="#4F709E" cx="839.853" cy="327.587" r="11.429"/>
	<circle fill="#2D527F" cx="839.853" cy="327.587" r="4.317"/>
	<g>
		<g>
			<path fill="#2D527F" d="M840.239,305.784c-12.157,0-22.012,9.855-22.012,22.012s9.855,22.012,22.012,22.012
				c12.157,0,22.012-9.855,22.012-22.012C862.25,315.639,852.395,305.784,840.239,305.784z M840.239,346.618
				c-10.395,0-18.823-8.427-18.823-18.823c0-10.395,8.427-18.823,18.823-18.823s18.823,8.427,18.823,18.823
				C859.061,338.191,850.634,346.618,840.239,346.618z"/>
		</g>
	</g>
</g>
<g id="Layer_8_1_">
	<g>
		
			<line fill="none" stroke="#4F709E" stroke-width="27" stroke-miterlimit="10" x1="152.93" y1="326.975" x2="103.562" y2="314.338"/>
		<line fill="none" stroke="#4F709E" stroke-width="27" stroke-miterlimit="10" x1="158.62" y1="322.74" x2="147.32" y2="272.616"/>
		
			<line fill="none" stroke="#4F709E" stroke-width="27" stroke-miterlimit="10" x1="203.086" y1="290.194" x2="166.94" y2="324.388"/>
		
			<line fill="none" stroke="#4F709E" stroke-width="27" stroke-miterlimit="10" x1="216.053" y1="348.701" x2="171.242" y2="336.698"/>
		
			<line fill="none" stroke="#4F709E" stroke-width="27" stroke-miterlimit="10" x1="172.6" y1="385.991" x2="162.927" y2="343.975"/>
		
			<line fill="none" stroke="#4F709E" stroke-width="27" stroke-miterlimit="10" x1="117.826" y1="369.449" x2="151.483" y2="337.355"/>
	</g>
	
		<line fill="none" stroke="#4F709E" stroke-width="40" stroke-miterlimit="10" x1="155.485" y1="324.388" x2="141.947" y2="307.291"/>
	
		<line fill="none" stroke="#4F709E" stroke-width="40" stroke-miterlimit="10" x1="162.927" y1="324.388" x2="169.196" y2="299.044"/>
	
		<line fill="none" stroke="#4F709E" stroke-width="40" stroke-miterlimit="10" x1="169.196" y1="329.59" x2="197.575" y2="326.975"/>
	
		<line fill="none" stroke="#4F709E" stroke-width="40" stroke-miterlimit="10" x1="166.061" y1="338.839" x2="183.386" y2="357.423"/>
	
		<line fill="none" stroke="#4F709E" stroke-width="40" stroke-miterlimit="10" x1="157.666" y1="338.839" x2="147.32" y2="361.553"/>
	
		<line fill="none" stroke="#4F709E" stroke-width="40" stroke-miterlimit="10" x1="153.888" y1="332.597" x2="124.958" y2="333.178"/>
	<g>
		
			<line fill="none" stroke="#4F709E" stroke-width="20" stroke-miterlimit="10" x1="128.246" y1="279.326" x2="115.557" y2="260.341"/>
		<line fill="none" stroke="#4F709E" stroke-width="20" stroke-miterlimit="10" x1="158.62" y1="267.817" x2="158.62" y2="243.99"/>
		
			<line fill="none" stroke="#4F709E" stroke-width="20" stroke-miterlimit="10" x1="193.903" y1="279.326" x2="210.384" y2="262.413"/>
		
			<line fill="none" stroke="#4F709E" stroke-width="20" stroke-miterlimit="10" x1="216.053" y1="303.64" x2="233.024" y2="293.59"/>
		
			<line fill="none" stroke="#4F709E" stroke-width="20" stroke-miterlimit="10" x1="219.829" y1="328.629" x2="242.637" y2="327.669"/>
		
			<line fill="none" stroke="#4F709E" stroke-width="20" stroke-miterlimit="10" x1="211.856" y1="361.553" x2="232.888" y2="371.539"/>
		
			<line fill="none" stroke="#4F709E" stroke-width="20" stroke-miterlimit="10" x1="188.447" y1="383.481" x2="203.086" y2="401.443"/>
		
			<line fill="none" stroke="#4F709E" stroke-width="20" stroke-miterlimit="10" x1="155.485" y1="390.183" x2="155.47" y2="412.241"/>
		
			<line fill="none" stroke="#4F709E" stroke-width="20" stroke-miterlimit="10" x1="126.255" y1="378.924" x2="113.047" y2="394.28"/>
		
			<line fill="none" stroke="#4F709E" stroke-width="20" stroke-miterlimit="10" x1="105.831" y1="357.423" x2="84.107" y2="369.449"/>
		
			<line fill="none" stroke="#4F709E" stroke-width="20" stroke-miterlimit="10" x1="98.853" y1="326.975" x2="76.331" y2="328.148"/>
		
			<line fill="none" stroke="#4F709E" stroke-width="20" stroke-miterlimit="10" x1="107.153" y1="299.044" x2="80.591" y2="288.727"/>
	</g>
	<line fill="none" stroke="#294F7A" stroke-width="18" stroke-miterlimit="10" x1="158.62" y1="322.74" x2="147.32" y2="272.616"/>
	
		<line fill="none" stroke="#294F7A" stroke-width="18" stroke-miterlimit="10" x1="166.94" y1="324.388" x2="200.634" y2="291.053"/>
	
		<line fill="none" stroke="#294F7A" stroke-width="18" stroke-miterlimit="10" x1="214.433" y1="347.08" x2="166.712" y2="335.609"/>
	
		<line fill="none" stroke="#294F7A" stroke-width="18" stroke-miterlimit="10" x1="103.562" y1="314.338" x2="154.789" y2="328.616"/>
	
		<line fill="none" stroke="#294F7A" stroke-width="18" stroke-miterlimit="10" x1="117.826" y1="369.449" x2="154.484" y2="335.609"/>
	
		<line fill="none" stroke="#294F7A" stroke-width="18" stroke-miterlimit="10" x1="172.005" y1="383.481" x2="161.927" y2="339.624"/>
	
		<line fill="none" stroke="#143A61" stroke-width="18" stroke-miterlimit="10" x1="157.666" y1="326.975" x2="142.918" y2="309.489"/>
	
		<line fill="none" stroke="#143A61" stroke-width="18" stroke-miterlimit="10" x1="162.927" y1="326.975" x2="169.196" y2="303.64"/>
	
		<line fill="none" stroke="#143A61" stroke-width="18" stroke-miterlimit="10" x1="167.695" y1="329.59" x2="190.572" y2="327.669"/>
	
		<line fill="none" stroke="#143A61" stroke-width="18" stroke-miterlimit="10" x1="164.703" y1="337.355" x2="180.292" y2="354.387"/>
	
		<line fill="none" stroke="#143A61" stroke-width="18" stroke-miterlimit="10" x1="157.666" y1="337.355" x2="148.903" y2="357.423"/>
	
		<line fill="none" stroke="#143A61" stroke-width="18" stroke-miterlimit="10" x1="153.888" y1="332.597" x2="130.007" y2="333.76"/>
	<rect x="152.93" y="248.853" fill="#2D527F" width="11.38" height="18.965"/>
	<rect x="149.741" y="389.872" fill="#2D527F" width="11.457" height="18.964"/>
	<rect x="80.591" y="322.74" fill="#2D527F" width="18.965" height="9.857"/>
	<rect x="219.829" y="323.473" fill="#2D527F" width="18.964" height="10.286"/>
	
		<rect x="217.692" y="289.562" transform="matrix(-0.5 -0.866 0.866 -0.5 74.6796 641.2036)" fill="#2D527F" width="9.488" height="18.963"/>
	<polygon fill="#2D527F" points="108.478,305.284 113.599,297.769 89.228,286.239 84.107,293.754 	"/>
	<polygon fill="#2D527F" points="228.695,373.935 232.888,367.174 210.963,355.458 206.77,362.219 	"/>
	
		<rect x="92.297" y="353.48" transform="matrix(-0.5 -0.866 0.866 -0.5 -169.2438 628.2115)" fill="#2D527F" width="8.855" height="18.963"/>
	
		<rect x="115.884" y="376.51" transform="matrix(-0.7431 -0.6691 0.6691 -0.7431 -47.3924 753.7902)" fill="#2D527F" width="10.196" height="18.962"/>
	<polygon fill="#2D527F" points="193.066,378.924 185.69,386.202 197.348,401.443 204.723,394.165 	"/>
	<polygon fill="#2D527F" points="123.417,281.343 130.007,276.344 119.637,260.341 113.047,265.339 	"/>
	
		<rect x="195.963" y="263.139" transform="matrix(0.7525 0.6586 -0.6586 0.7525 229.202 -64.6535)" fill="#2D527F" width="9.316" height="18.965"/>
	<g>
		<g>
			<path fill="#4F709E" d="M159.478,264.9c-35.727,0-64.69,28.962-64.69,64.69s28.962,64.69,64.69,64.69s64.69-28.962,64.69-64.69
				S195.206,264.9,159.478,264.9z M159.478,384.906c-30.55,0-55.317-24.766-55.317-55.317s24.766-55.317,55.317-55.317
				c30.55,0,55.317,24.766,55.317,55.317S190.029,384.906,159.478,384.906z"/>
		</g>
	</g>
	<g>
		<g>
			<path fill="#4F709E" d="M161.719,305.716c-14.279,0-25.854,11.575-25.854,25.854c0,14.279,11.575,25.854,25.854,25.854
				s25.854-11.575,25.854-25.854C187.573,317.291,175.998,305.716,161.719,305.716z M161.719,353.677
				c-12.21,0-22.108-9.898-22.108-22.108c0-12.21,9.898-22.108,22.108-22.108s22.108,9.898,22.108,22.108
				C183.827,343.779,173.929,353.677,161.719,353.677z"/>
		</g>
	</g>
	<circle fill="#4F709E" cx="161.171" cy="331.292" r="11.429"/>
	<circle fill="#2D527F" cx="161.171" cy="331.292" r="4.317"/>
	<g>
		<g>
			<path fill="#2D527F" d="M161.556,309.489c-12.157,0-22.012,9.855-22.012,22.012s9.855,22.012,22.012,22.012
				c12.157,0,22.012-9.855,22.012-22.012C183.568,319.344,173.713,309.489,161.556,309.489z M161.556,350.323
				c-10.395,0-18.823-8.427-18.823-18.823s8.427-18.823,18.823-18.823c10.395,0,18.823,8.427,18.823,18.823
				S171.952,350.323,161.556,350.323z"/>
		</g>
	</g>
</g>
<g id="Layer_9_1_">
	<g>
		
			<line fill="none" stroke="#4F709E" stroke-width="27" stroke-miterlimit="10" x1="931.912" y1="324.645" x2="892.226" y2="314.486"/>
		
			<line fill="none" stroke="#4F709E" stroke-width="27" stroke-miterlimit="10" x1="936.486" y1="321.241" x2="927.402" y2="280.948"/>
		
			<line fill="none" stroke="#4F709E" stroke-width="27" stroke-miterlimit="10" x1="972.231" y1="295.078" x2="943.174" y2="322.565"/>
		
			<line fill="none" stroke="#4F709E" stroke-width="27" stroke-miterlimit="10" x1="982.654" y1="342.11" x2="946.632" y2="332.461"/>
		
			<line fill="none" stroke="#4F709E" stroke-width="27" stroke-miterlimit="10" x1="947.724" y1="372.086" x2="939.948" y2="338.311"/>
		
			<line fill="none" stroke="#4F709E" stroke-width="27" stroke-miterlimit="10" x1="903.693" y1="358.789" x2="930.749" y2="332.989"/>
	</g>
	
		<line fill="none" stroke="#4F709E" stroke-width="40" stroke-miterlimit="10" x1="933.965" y1="322.565" x2="923.083" y2="308.822"/>
	
		<line fill="none" stroke="#4F709E" stroke-width="40" stroke-miterlimit="10" x1="939.948" y1="322.565" x2="944.987" y2="302.192"/>
	
		<line fill="none" stroke="#4F709E" stroke-width="40" stroke-miterlimit="10" x1="944.987" y1="326.747" x2="967.801" y2="324.645"/>
	
		<line fill="none" stroke="#4F709E" stroke-width="40" stroke-miterlimit="10" x1="942.468" y1="334.182" x2="956.394" y2="349.122"/>
	
		<line fill="none" stroke="#4F709E" stroke-width="40" stroke-miterlimit="10" x1="935.719" y1="334.182" x2="927.402" y2="352.441"/>
	
		<line fill="none" stroke="#4F709E" stroke-width="40" stroke-miterlimit="10" x1="932.682" y1="329.165" x2="909.426" y2="329.632"/>
	<g>
		
			<line fill="none" stroke="#4F709E" stroke-width="20" stroke-miterlimit="10" x1="912.069" y1="286.342" x2="901.869" y2="271.081"/>
		
			<line fill="none" stroke="#4F709E" stroke-width="20" stroke-miterlimit="10" x1="936.486" y1="277.091" x2="936.486" y2="257.936"/>
		
			<line fill="none" stroke="#4F709E" stroke-width="20" stroke-miterlimit="10" x1="964.848" y1="286.342" x2="978.097" y2="272.746"/>
		
			<line fill="none" stroke="#4F709E" stroke-width="20" stroke-miterlimit="10" x1="982.654" y1="305.887" x2="996.297" y2="297.808"/>
		
			<line fill="none" stroke="#4F709E" stroke-width="20" stroke-miterlimit="10" x1="985.689" y1="325.975" x2="1004.024" y2="325.203"/>
		
			<line fill="none" stroke="#4F709E" stroke-width="20" stroke-miterlimit="10" x1="979.28" y1="352.441" x2="996.188" y2="360.469"/>
		
			<line fill="none" stroke="#4F709E" stroke-width="20" stroke-miterlimit="10" x1="960.463" y1="370.069" x2="972.231" y2="384.507"/>
		
			<line fill="none" stroke="#4F709E" stroke-width="20" stroke-miterlimit="10" x1="933.965" y1="375.456" x2="933.953" y2="393.188"/>
		
			<line fill="none" stroke="#4F709E" stroke-width="20" stroke-miterlimit="10" x1="910.468" y1="366.405" x2="899.851" y2="378.749"/>
		
			<line fill="none" stroke="#4F709E" stroke-width="20" stroke-miterlimit="10" x1="894.051" y1="349.122" x2="876.587" y2="358.789"/>
		
			<line fill="none" stroke="#4F709E" stroke-width="20" stroke-miterlimit="10" x1="888.441" y1="324.645" x2="870.336" y2="325.589"/>
		
			<line fill="none" stroke="#4F709E" stroke-width="20" stroke-miterlimit="10" x1="895.113" y1="302.192" x2="873.761" y2="293.899"/>
	</g>
	
		<line fill="none" stroke="#294F7A" stroke-width="18" stroke-miterlimit="10" x1="936.486" y1="321.241" x2="927.402" y2="280.948"/>
	
		<line fill="none" stroke="#294F7A" stroke-width="18" stroke-miterlimit="10" x1="943.174" y1="322.565" x2="970.259" y2="295.769"/>
	
		<line fill="none" stroke="#294F7A" stroke-width="18" stroke-miterlimit="10" x1="981.351" y1="340.807" x2="942.99" y2="331.586"/>
	
		<line fill="none" stroke="#294F7A" stroke-width="18" stroke-miterlimit="10" x1="892.226" y1="314.486" x2="933.406" y2="325.965"/>
	
		<line fill="none" stroke="#294F7A" stroke-width="18" stroke-miterlimit="10" x1="903.693" y1="358.789" x2="933.161" y2="331.586"/>
	
		<line fill="none" stroke="#294F7A" stroke-width="18" stroke-miterlimit="10" x1="947.246" y1="370.069" x2="939.144" y2="334.813"/>
	
		<line fill="none" stroke="#143A61" stroke-width="18" stroke-miterlimit="10" x1="935.719" y1="324.645" x2="923.864" y2="310.589"/>
	
		<line fill="none" stroke="#143A61" stroke-width="18" stroke-miterlimit="10" x1="939.948" y1="324.645" x2="944.987" y2="305.887"/>
	
		<line fill="none" stroke="#143A61" stroke-width="18" stroke-miterlimit="10" x1="943.781" y1="326.747" x2="962.171" y2="325.203"/>
	
		<line fill="none" stroke="#143A61" stroke-width="18" stroke-miterlimit="10" x1="941.375" y1="332.989" x2="953.907" y2="346.681"/>
	
		<line fill="none" stroke="#143A61" stroke-width="18" stroke-miterlimit="10" x1="935.719" y1="332.989" x2="928.675" y2="349.122"/>
	
		<line fill="none" stroke="#143A61" stroke-width="18" stroke-miterlimit="10" x1="932.682" y1="329.165" x2="913.484" y2="330.099"/>
	<rect x="931.912" y="261.846" fill="#2D527F" width="9.148" height="15.245"/>
	<rect x="929.349" y="375.206" fill="#2D527F" width="9.21" height="15.245"/>
	<rect x="873.761" y="321.241" fill="#2D527F" width="15.245" height="7.924"/>
	<rect x="985.689" y="321.831" fill="#2D527F" width="15.245" height="8.269"/>
	
		<rect x="983.972" y="294.57" transform="matrix(-0.5 -0.866 0.866 -0.5 1219.9849 1308.7333)" fill="#2D527F" width="7.627" height="15.244"/>
	<polygon fill="#2D527F" points="896.178,307.209 900.295,301.168 880.704,291.899 876.587,297.94 	"/>
	<polygon fill="#2D527F" points="992.816,362.394 996.188,356.96 978.562,347.542 975.191,352.977 	"/>
	
		<rect x="883.171" y="345.952" transform="matrix(-0.5 -0.866 0.866 -0.5 1023.9034 1298.2894)" fill="#2D527F" width="7.119" height="15.244"/>
	
		<rect x="902.132" y="364.465" transform="matrix(-0.7431 -0.6691 0.6691 -0.7431 1330.7087 1254.9896)" fill="#2D527F" width="8.196" height="15.243"/>
	<polygon fill="#2D527F" points="964.176,366.405 958.247,372.256 967.618,384.507 973.546,378.657 	"/>
	<polygon fill="#2D527F" points="908.187,287.963 913.484,283.945 905.148,271.081 899.851,275.098 	"/>
	
		<rect x="966.505" y="273.33" transform="matrix(0.7525 0.6586 -0.6586 0.7525 425.1746 -569.4659)" fill="#2D527F" width="7.489" height="15.245"/>
	<g>
		<g>
			<path fill="#4F709E" d="M937.176,274.745c-28.72,0-52.002,23.282-52.002,52.002s23.282,52.002,52.002,52.002
				c28.72,0,52.002-23.282,52.002-52.002S965.896,274.745,937.176,274.745z M937.176,371.214c-24.558,0-44.467-19.908-44.467-44.467
				s19.908-44.467,44.467-44.467c24.558,0,44.467,19.908,44.467,44.467S961.734,371.214,937.176,371.214z"/>
		</g>
	</g>
	<g>
		<g>
			<path fill="#4F709E" d="M938.977,307.556c-11.478,0-20.783,9.305-20.783,20.783c0,11.478,9.305,20.783,20.783,20.783
				c11.478,0,20.783-9.305,20.783-20.783C959.76,316.86,950.455,307.556,938.977,307.556z M938.977,346.11
				c-9.815,0-17.772-7.957-17.772-17.772c0-9.815,7.957-17.772,17.772-17.772c9.815,0,17.772,7.957,17.772,17.772
				S948.792,346.11,938.977,346.11z"/>
		</g>
	</g>
	<circle fill="#4F709E" cx="938.536" cy="328.115" r="9.188"/>
	<circle fill="#2D527F" cx="938.536" cy="328.115" r="3.47"/>
	<g>
		<g>
			<path fill="#2D527F" d="M938.846,310.589c-9.772,0-17.695,7.922-17.695,17.695s7.922,17.695,17.695,17.695
				c9.772,0,17.695-7.922,17.695-17.695C956.54,318.511,948.618,310.589,938.846,310.589z M938.846,343.414
				c-8.357,0-15.131-6.774-15.131-15.131c0-8.356,6.774-15.131,15.131-15.131c8.356,0,15.131,6.774,15.131,15.131
				S947.203,343.414,938.846,343.414z"/>
		</g>
	</g>
</g>
<g id="Layer_10_1_">
	<g>
		<line fill="none" stroke="#4F709E" stroke-width="27" stroke-miterlimit="10" x1="62.096" y1="328.039" x2="22.411" y2="317.88"/>
		<line fill="none" stroke="#4F709E" stroke-width="27" stroke-miterlimit="10" x1="66.67" y1="324.634" x2="57.586" y2="284.342"/>
		
			<line fill="none" stroke="#4F709E" stroke-width="27" stroke-miterlimit="10" x1="102.415" y1="298.472" x2="73.358" y2="325.959"/>
		
			<line fill="none" stroke="#4F709E" stroke-width="27" stroke-miterlimit="10" x1="112.839" y1="345.504" x2="76.816" y2="335.854"/>
		<line fill="none" stroke="#4F709E" stroke-width="27" stroke-miterlimit="10" x1="77.908" y1="375.48" x2="70.132" y2="341.705"/>
		
			<line fill="none" stroke="#4F709E" stroke-width="27" stroke-miterlimit="10" x1="33.877" y1="362.182" x2="60.933" y2="336.383"/>
	</g>
	<line fill="none" stroke="#4F709E" stroke-width="40" stroke-miterlimit="10" x1="64.149" y1="325.959" x2="53.267" y2="312.215"/>
	<line fill="none" stroke="#4F709E" stroke-width="40" stroke-miterlimit="10" x1="70.132" y1="325.959" x2="75.171" y2="305.586"/>
	<line fill="none" stroke="#4F709E" stroke-width="40" stroke-miterlimit="10" x1="75.171" y1="330.141" x2="97.985" y2="328.039"/>
	<line fill="none" stroke="#4F709E" stroke-width="40" stroke-miterlimit="10" x1="72.652" y1="337.576" x2="86.578" y2="352.515"/>
	<line fill="none" stroke="#4F709E" stroke-width="40" stroke-miterlimit="10" x1="65.903" y1="337.576" x2="57.586" y2="355.835"/>
	<line fill="none" stroke="#4F709E" stroke-width="40" stroke-miterlimit="10" x1="62.866" y1="332.558" x2="39.61" y2="333.025"/>
	<g>
		
			<line fill="none" stroke="#4F709E" stroke-width="20" stroke-miterlimit="10" x1="42.253" y1="289.736" x2="32.053" y2="274.474"/>
		<line fill="none" stroke="#4F709E" stroke-width="20" stroke-miterlimit="10" x1="66.67" y1="280.484" x2="66.67" y2="261.33"/>
		
			<line fill="none" stroke="#4F709E" stroke-width="20" stroke-miterlimit="10" x1="95.032" y1="289.736" x2="108.281" y2="276.14"/>
		
			<line fill="none" stroke="#4F709E" stroke-width="20" stroke-miterlimit="10" x1="112.839" y1="309.28" x2="126.481" y2="301.202"/>
		
			<line fill="none" stroke="#4F709E" stroke-width="20" stroke-miterlimit="10" x1="115.874" y1="329.368" x2="134.208" y2="328.596"/>
		
			<line fill="none" stroke="#4F709E" stroke-width="20" stroke-miterlimit="10" x1="109.465" y1="355.835" x2="126.372" y2="363.862"/>
		
			<line fill="none" stroke="#4F709E" stroke-width="20" stroke-miterlimit="10" x1="90.647" y1="373.462" x2="102.415" y2="387.901"/>
		<line fill="none" stroke="#4F709E" stroke-width="20" stroke-miterlimit="10" x1="64.149" y1="378.85" x2="64.138" y2="396.581"/>
		
			<line fill="none" stroke="#4F709E" stroke-width="20" stroke-miterlimit="10" x1="40.652" y1="369.799" x2="30.035" y2="382.143"/>
		<line fill="none" stroke="#4F709E" stroke-width="20" stroke-miterlimit="10" x1="24.235" y1="352.515" x2="6.771" y2="362.182"/>
		<line fill="none" stroke="#4F709E" stroke-width="20" stroke-miterlimit="10" x1="18.625" y1="328.039" x2="0.52" y2="328.982"/>
		<line fill="none" stroke="#4F709E" stroke-width="20" stroke-miterlimit="10" x1="25.297" y1="305.586" x2="3.945" y2="297.293"/>
	</g>
	<line fill="none" stroke="#294F7A" stroke-width="18" stroke-miterlimit="10" x1="66.67" y1="324.634" x2="57.586" y2="284.342"/>
	
		<line fill="none" stroke="#294F7A" stroke-width="18" stroke-miterlimit="10" x1="73.358" y1="325.959" x2="100.443" y2="299.162"/>
	
		<line fill="none" stroke="#294F7A" stroke-width="18" stroke-miterlimit="10" x1="111.536" y1="344.201" x2="73.175" y2="334.979"/>
	<line fill="none" stroke="#294F7A" stroke-width="18" stroke-miterlimit="10" x1="22.411" y1="317.88" x2="63.59" y2="329.358"/>
	<line fill="none" stroke="#294F7A" stroke-width="18" stroke-miterlimit="10" x1="33.877" y1="362.182" x2="63.345" y2="334.979"/>
	<line fill="none" stroke="#294F7A" stroke-width="18" stroke-miterlimit="10" x1="77.43" y1="373.462" x2="69.328" y2="338.207"/>
	<line fill="none" stroke="#143A61" stroke-width="18" stroke-miterlimit="10" x1="65.903" y1="328.039" x2="54.048" y2="313.983"/>
	<line fill="none" stroke="#143A61" stroke-width="18" stroke-miterlimit="10" x1="70.132" y1="328.039" x2="75.171" y2="309.28"/>
	<line fill="none" stroke="#143A61" stroke-width="18" stroke-miterlimit="10" x1="73.965" y1="330.141" x2="92.355" y2="328.596"/>
	<line fill="none" stroke="#143A61" stroke-width="18" stroke-miterlimit="10" x1="71.56" y1="336.383" x2="84.091" y2="350.075"/>
	<line fill="none" stroke="#143A61" stroke-width="18" stroke-miterlimit="10" x1="65.903" y1="336.383" x2="58.859" y2="352.515"/>
	<line fill="none" stroke="#143A61" stroke-width="18" stroke-miterlimit="10" x1="62.866" y1="332.558" x2="43.669" y2="333.493"/>
	<rect x="62.096" y="265.239" fill="#2D527F" width="9.148" height="15.245"/>
	<rect x="59.533" y="378.6" fill="#2D527F" width="9.21" height="15.245"/>
	<rect x="3.945" y="324.634" fill="#2D527F" width="15.245" height="7.924"/>
	<rect x="115.874" y="325.224" fill="#2D527F" width="15.245" height="8.269"/>
	
		<rect x="114.156" y="297.964" transform="matrix(-0.5 -0.866 0.866 -0.5 -87.6873 560.5465)" fill="#2D527F" width="7.627" height="15.244"/>
	<polygon fill="#2D527F" points="26.362,310.602 30.479,304.561 10.888,295.293 6.771,301.333 	"/>
	<polygon fill="#2D527F" points="123,365.788 126.372,360.354 108.746,350.935 105.376,356.37 	"/>
	
		<rect x="13.355" y="349.345" transform="matrix(-0.5 -0.866 0.866 -0.5 -283.7688 550.1027)" fill="#2D527F" width="7.119" height="15.244"/>
	
		<rect x="32.316" y="367.858" transform="matrix(-0.7431 -0.6691 0.6691 -0.7431 -187.7727 678.8799)" fill="#2D527F" width="8.196" height="15.243"/>
	<polygon fill="#2D527F" points="94.36,369.799 88.431,375.649 97.802,387.901 103.731,382.05 	"/>
	<polygon fill="#2D527F" points="38.372,291.356 43.669,287.339 35.333,274.474 30.035,278.492 	"/>
	
		<rect x="96.689" y="276.723" transform="matrix(0.7525 0.6586 -0.6586 0.7525 212.1268 4.2318)" fill="#2D527F" width="7.489" height="15.245"/>
	<g>
		<g>
			<path fill="#4F709E" d="M67.36,278.139c-28.72,0-52.002,23.282-52.002,52.002s23.282,52.002,52.002,52.002
				s52.002-23.282,52.002-52.002S96.08,278.139,67.36,278.139z M67.36,374.608c-24.558,0-44.467-19.908-44.467-44.467
				s19.908-44.467,44.467-44.467c24.558,0,44.467,19.908,44.467,44.467S91.918,374.608,67.36,374.608z"/>
		</g>
	</g>
	<g>
		<g>
			<path fill="#4F709E" d="M69.161,310.949c-11.478,0-20.783,9.305-20.783,20.783s9.305,20.783,20.783,20.783
				s20.783-9.305,20.783-20.783S80.639,310.949,69.161,310.949z M69.161,349.504c-9.815,0-17.772-7.957-17.772-17.772
				c0-9.815,7.957-17.772,17.772-17.772s17.772,7.957,17.772,17.772S78.976,349.504,69.161,349.504z"/>
		</g>
	</g>
	<circle fill="#4F709E" cx="68.72" cy="331.509" r="9.188"/>
	<circle fill="#2D527F" cx="68.72" cy="331.509" r="3.47"/>
	<g>
		<g>
			<path fill="#2D527F" d="M69.03,313.983c-9.772,0-17.695,7.922-17.695,17.695c0,9.772,7.922,17.695,17.695,17.695
				c9.772,0,17.695-7.922,17.695-17.695C86.724,321.904,78.803,313.983,69.03,313.983z M69.03,346.808
				c-8.356,0-15.131-6.774-15.131-15.131s6.774-15.131,15.131-15.131s15.131,6.774,15.131,15.131S77.387,346.808,69.03,346.808z"/>
		</g>
	</g>
</g>
<g id="Layer_5_3_">
	<g>
		
			<line fill="none" stroke="#4F709E" stroke-width="27" stroke-miterlimit="10" x1="736.112" y1="322.504" x2="696.426" y2="312.345"/>
		
			<line fill="none" stroke="#4F709E" stroke-width="27" stroke-miterlimit="10" x1="740.686" y1="319.1" x2="731.602" y2="278.807"/>
		
			<line fill="none" stroke="#4F709E" stroke-width="27" stroke-miterlimit="10" x1="776.43" y1="292.937" x2="747.374" y2="320.424"/>
		
			<line fill="none" stroke="#4F709E" stroke-width="27" stroke-miterlimit="10" x1="786.854" y1="339.969" x2="750.832" y2="330.32"/>
		
			<line fill="none" stroke="#4F709E" stroke-width="27" stroke-miterlimit="10" x1="751.924" y1="369.945" x2="744.148" y2="336.17"/>
		
			<line fill="none" stroke="#4F709E" stroke-width="27" stroke-miterlimit="10" x1="707.893" y1="356.647" x2="734.949" y2="330.848"/>
	</g>
	
		<line fill="none" stroke="#4F709E" stroke-width="40" stroke-miterlimit="10" x1="738.165" y1="320.424" x2="727.283" y2="306.681"/>
	
		<line fill="none" stroke="#4F709E" stroke-width="40" stroke-miterlimit="10" x1="744.148" y1="320.424" x2="749.187" y2="300.051"/>
	<line fill="none" stroke="#4F709E" stroke-width="40" stroke-miterlimit="10" x1="749.187" y1="324.606" x2="772" y2="322.504"/>
	
		<line fill="none" stroke="#4F709E" stroke-width="40" stroke-miterlimit="10" x1="746.667" y1="332.041" x2="760.594" y2="346.98"/>
	<line fill="none" stroke="#4F709E" stroke-width="40" stroke-miterlimit="10" x1="739.919" y1="332.041" x2="731.602" y2="350.3"/>
	
		<line fill="none" stroke="#4F709E" stroke-width="40" stroke-miterlimit="10" x1="736.882" y1="327.024" x2="713.626" y2="327.491"/>
	<g>
		
			<line fill="none" stroke="#4F709E" stroke-width="20" stroke-miterlimit="10" x1="716.269" y1="284.201" x2="706.069" y2="268.939"/>
		
			<line fill="none" stroke="#4F709E" stroke-width="20" stroke-miterlimit="10" x1="740.686" y1="274.949" x2="740.686" y2="255.795"/>
		
			<line fill="none" stroke="#4F709E" stroke-width="20" stroke-miterlimit="10" x1="769.048" y1="284.201" x2="782.297" y2="270.605"/>
		
			<line fill="none" stroke="#4F709E" stroke-width="20" stroke-miterlimit="10" x1="786.854" y1="303.746" x2="800.497" y2="295.667"/>
		
			<line fill="none" stroke="#4F709E" stroke-width="20" stroke-miterlimit="10" x1="789.889" y1="323.834" x2="808.224" y2="323.062"/>
		<line fill="none" stroke="#4F709E" stroke-width="20" stroke-miterlimit="10" x1="783.48" y1="350.3" x2="800.387" y2="358.327"/>
		
			<line fill="none" stroke="#4F709E" stroke-width="20" stroke-miterlimit="10" x1="764.663" y1="367.928" x2="776.43" y2="382.366"/>
		
			<line fill="none" stroke="#4F709E" stroke-width="20" stroke-miterlimit="10" x1="738.165" y1="373.315" x2="738.153" y2="391.046"/>
		
			<line fill="none" stroke="#4F709E" stroke-width="20" stroke-miterlimit="10" x1="714.668" y1="364.264" x2="704.051" y2="376.608"/>
		
			<line fill="none" stroke="#4F709E" stroke-width="20" stroke-miterlimit="10" x1="698.251" y1="346.98" x2="680.787" y2="356.647"/>
		
			<line fill="none" stroke="#4F709E" stroke-width="20" stroke-miterlimit="10" x1="692.641" y1="322.504" x2="674.536" y2="323.447"/>
		
			<line fill="none" stroke="#4F709E" stroke-width="20" stroke-miterlimit="10" x1="699.313" y1="300.051" x2="677.961" y2="291.758"/>
	</g>
	<line fill="none" stroke="#294F7A" stroke-width="18" stroke-miterlimit="10" x1="740.686" y1="319.1" x2="731.602" y2="278.807"/>
	
		<line fill="none" stroke="#294F7A" stroke-width="18" stroke-miterlimit="10" x1="747.374" y1="320.424" x2="774.459" y2="293.627"/>
	
		<line fill="none" stroke="#294F7A" stroke-width="18" stroke-miterlimit="10" x1="785.551" y1="338.666" x2="747.19" y2="329.444"/>
	
		<line fill="none" stroke="#294F7A" stroke-width="18" stroke-miterlimit="10" x1="696.426" y1="312.345" x2="737.606" y2="323.823"/>
	
		<line fill="none" stroke="#294F7A" stroke-width="18" stroke-miterlimit="10" x1="707.893" y1="356.647" x2="737.361" y2="329.444"/>
	
		<line fill="none" stroke="#294F7A" stroke-width="18" stroke-miterlimit="10" x1="751.445" y1="367.928" x2="743.344" y2="332.672"/>
	
		<line fill="none" stroke="#143A61" stroke-width="18" stroke-miterlimit="10" x1="739.919" y1="322.504" x2="728.064" y2="308.448"/>
	
		<line fill="none" stroke="#143A61" stroke-width="18" stroke-miterlimit="10" x1="744.148" y1="322.504" x2="749.187" y2="303.746"/>
	
		<line fill="none" stroke="#143A61" stroke-width="18" stroke-miterlimit="10" x1="747.981" y1="324.606" x2="766.371" y2="323.062"/>
	
		<line fill="none" stroke="#143A61" stroke-width="18" stroke-miterlimit="10" x1="745.575" y1="330.848" x2="758.107" y2="344.54"/>
	
		<line fill="none" stroke="#143A61" stroke-width="18" stroke-miterlimit="10" x1="739.919" y1="330.848" x2="732.875" y2="346.98"/>
	
		<line fill="none" stroke="#143A61" stroke-width="18" stroke-miterlimit="10" x1="736.882" y1="327.024" x2="717.684" y2="327.958"/>
	<rect x="736.112" y="259.704" fill="#2D527F" width="9.148" height="15.245"/>
	<rect x="733.549" y="373.065" fill="#2D527F" width="9.21" height="15.245"/>
	<rect x="677.961" y="319.1" fill="#2D527F" width="15.245" height="7.924"/>
	<rect x="789.889" y="319.689" fill="#2D527F" width="15.245" height="8.269"/>
	
		<rect x="788.172" y="292.429" transform="matrix(-0.5 -0.866 0.866 -0.5 928.137 1135.9548)" fill="#2D527F" width="7.627" height="15.244"/>
	<polygon fill="#2D527F" points="700.378,305.067 704.495,299.027 684.904,289.758 680.787,295.799 	"/>
	<polygon fill="#2D527F" points="797.016,360.253 800.387,354.819 782.762,345.401 779.391,350.835 	"/>
	
		<rect x="687.371" y="343.81" transform="matrix(-0.5 -0.866 0.866 -0.5 732.0555 1125.511)" fill="#2D527F" width="7.119" height="15.244"/>
	
		<rect x="706.331" y="362.324" transform="matrix(-0.7431 -0.6691 0.6691 -0.7431 990.8347 1120.2404)" fill="#2D527F" width="8.196" height="15.243"/>
	<polygon fill="#2D527F" points="768.376,364.264 762.447,370.114 771.818,382.366 777.746,376.515 	"/>
	<polygon fill="#2D527F" points="712.387,285.822 717.684,281.804 709.348,268.939 704.051,272.957 	"/>
	
		<rect x="770.704" y="271.189" transform="matrix(0.7525 0.6586 -0.6586 0.7525 375.3031 -441.0426)" fill="#2D527F" width="7.489" height="15.245"/>
	<g>
		<g>
			<path fill="#4F709E" d="M741.376,272.604c-28.72,0-52.002,23.282-52.002,52.002c0,28.72,23.282,52.002,52.002,52.002
				c28.72,0,52.002-23.282,52.002-52.002C793.377,295.886,770.096,272.604,741.376,272.604z M741.376,369.073
				c-24.558,0-44.467-19.908-44.467-44.467s19.908-44.467,44.467-44.467c24.558,0,44.467,19.908,44.467,44.467
				S765.934,369.073,741.376,369.073z"/>
		</g>
	</g>
	<g>
		<g>
			<path fill="#4F709E" d="M743.177,305.414c-11.478,0-20.783,9.305-20.783,20.783c0,11.478,9.305,20.783,20.783,20.783
				c11.478,0,20.783-9.305,20.783-20.783C763.96,314.719,754.655,305.414,743.177,305.414z M743.177,343.969
				c-9.815,0-17.772-7.957-17.772-17.772c0-9.815,7.957-17.772,17.772-17.772c9.815,0,17.772,7.957,17.772,17.772
				S752.992,343.969,743.177,343.969z"/>
		</g>
	</g>
	<circle fill="#4F709E" cx="742.736" cy="325.974" r="9.188"/>
	<circle fill="#2D527F" cx="742.736" cy="325.974" r="3.47"/>
	<g>
		<g>
			<path fill="#2D527F" d="M743.046,308.448c-9.772,0-17.695,7.922-17.695,17.695s7.922,17.695,17.695,17.695
				c9.772,0,17.695-7.922,17.695-17.695C760.74,316.37,752.818,308.448,743.046,308.448z M743.046,341.273
				c-8.357,0-15.131-6.774-15.131-15.131c0-8.356,6.774-15.131,15.131-15.131c8.356,0,15.131,6.774,15.131,15.131
				S751.402,341.273,743.046,341.273z"/>
		</g>
	</g>
</g>
<g id="Layer_6_3_">
	<g>
		
			<line fill="none" stroke="#4F709E" stroke-width="27" stroke-miterlimit="10" x1="240.973" y1="326.107" x2="201.287" y2="315.948"/>
		
			<line fill="none" stroke="#4F709E" stroke-width="27" stroke-miterlimit="10" x1="245.547" y1="322.703" x2="236.463" y2="282.41"/>
		
			<line fill="none" stroke="#4F709E" stroke-width="27" stroke-miterlimit="10" x1="281.291" y1="296.54" x2="252.235" y2="324.027"/>
		
			<line fill="none" stroke="#4F709E" stroke-width="27" stroke-miterlimit="10" x1="291.715" y1="343.572" x2="255.693" y2="333.923"/>
		
			<line fill="none" stroke="#4F709E" stroke-width="27" stroke-miterlimit="10" x1="256.785" y1="373.548" x2="249.009" y2="339.773"/>
		
			<line fill="none" stroke="#4F709E" stroke-width="27" stroke-miterlimit="10" x1="212.754" y1="360.25" x2="239.81" y2="334.451"/>
	</g>
	
		<line fill="none" stroke="#4F709E" stroke-width="40" stroke-miterlimit="10" x1="243.026" y1="324.027" x2="232.144" y2="310.284"/>
	
		<line fill="none" stroke="#4F709E" stroke-width="40" stroke-miterlimit="10" x1="249.009" y1="324.027" x2="254.048" y2="303.654"/>
	
		<line fill="none" stroke="#4F709E" stroke-width="40" stroke-miterlimit="10" x1="254.048" y1="328.209" x2="276.861" y2="326.107"/>
	
		<line fill="none" stroke="#4F709E" stroke-width="40" stroke-miterlimit="10" x1="251.528" y1="335.644" x2="265.455" y2="350.583"/>
	
		<line fill="none" stroke="#4F709E" stroke-width="40" stroke-miterlimit="10" x1="244.78" y1="335.644" x2="236.463" y2="353.903"/>
	
		<line fill="none" stroke="#4F709E" stroke-width="40" stroke-miterlimit="10" x1="241.743" y1="330.627" x2="218.487" y2="331.094"/>
	<g>
		
			<line fill="none" stroke="#4F709E" stroke-width="20" stroke-miterlimit="10" x1="221.13" y1="287.804" x2="210.929" y2="272.542"/>
		
			<line fill="none" stroke="#4F709E" stroke-width="20" stroke-miterlimit="10" x1="245.547" y1="278.552" x2="245.547" y2="259.398"/>
		
			<line fill="none" stroke="#4F709E" stroke-width="20" stroke-miterlimit="10" x1="273.909" y1="287.804" x2="287.158" y2="274.208"/>
		
			<line fill="none" stroke="#4F709E" stroke-width="20" stroke-miterlimit="10" x1="291.715" y1="307.349" x2="305.358" y2="299.27"/>
		
			<line fill="none" stroke="#4F709E" stroke-width="20" stroke-miterlimit="10" x1="294.75" y1="327.437" x2="313.085" y2="326.665"/>
		
			<line fill="none" stroke="#4F709E" stroke-width="20" stroke-miterlimit="10" x1="288.341" y1="353.903" x2="305.248" y2="361.93"/>
		
			<line fill="none" stroke="#4F709E" stroke-width="20" stroke-miterlimit="10" x1="269.524" y1="371.531" x2="281.291" y2="385.969"/>
		
			<line fill="none" stroke="#4F709E" stroke-width="20" stroke-miterlimit="10" x1="243.026" y1="376.918" x2="243.014" y2="394.649"/>
		
			<line fill="none" stroke="#4F709E" stroke-width="20" stroke-miterlimit="10" x1="219.529" y1="367.867" x2="208.912" y2="380.211"/>
		
			<line fill="none" stroke="#4F709E" stroke-width="20" stroke-miterlimit="10" x1="203.111" y1="350.583" x2="185.648" y2="360.25"/>
		
			<line fill="none" stroke="#4F709E" stroke-width="20" stroke-miterlimit="10" x1="197.502" y1="326.107" x2="179.397" y2="327.05"/>
		
			<line fill="none" stroke="#4F709E" stroke-width="20" stroke-miterlimit="10" x1="204.174" y1="303.654" x2="182.822" y2="295.361"/>
	</g>
	
		<line fill="none" stroke="#294F7A" stroke-width="18" stroke-miterlimit="10" x1="245.547" y1="322.703" x2="236.463" y2="282.41"/>
	<line fill="none" stroke="#294F7A" stroke-width="18" stroke-miterlimit="10" x1="252.235" y1="324.027" x2="279.32" y2="297.23"/>
	
		<line fill="none" stroke="#294F7A" stroke-width="18" stroke-miterlimit="10" x1="290.412" y1="342.269" x2="252.051" y2="333.047"/>
	
		<line fill="none" stroke="#294F7A" stroke-width="18" stroke-miterlimit="10" x1="201.287" y1="315.948" x2="242.467" y2="327.426"/>
	
		<line fill="none" stroke="#294F7A" stroke-width="18" stroke-miterlimit="10" x1="212.754" y1="360.25" x2="242.222" y2="333.047"/>
	
		<line fill="none" stroke="#294F7A" stroke-width="18" stroke-miterlimit="10" x1="256.306" y1="371.531" x2="248.205" y2="336.275"/>
	
		<line fill="none" stroke="#143A61" stroke-width="18" stroke-miterlimit="10" x1="244.78" y1="326.107" x2="232.925" y2="312.051"/>
	
		<line fill="none" stroke="#143A61" stroke-width="18" stroke-miterlimit="10" x1="249.009" y1="326.107" x2="254.048" y2="307.349"/>
	
		<line fill="none" stroke="#143A61" stroke-width="18" stroke-miterlimit="10" x1="252.842" y1="328.209" x2="271.232" y2="326.665"/>
	
		<line fill="none" stroke="#143A61" stroke-width="18" stroke-miterlimit="10" x1="250.436" y1="334.451" x2="262.968" y2="348.143"/>
	
		<line fill="none" stroke="#143A61" stroke-width="18" stroke-miterlimit="10" x1="244.78" y1="334.451" x2="237.735" y2="350.583"/>
	
		<line fill="none" stroke="#143A61" stroke-width="18" stroke-miterlimit="10" x1="241.743" y1="330.627" x2="222.545" y2="331.561"/>
	<rect x="240.973" y="263.307" fill="#2D527F" width="9.148" height="15.245"/>
	<rect x="238.409" y="376.668" fill="#2D527F" width="9.21" height="15.245"/>
	<rect x="182.822" y="322.703" fill="#2D527F" width="15.245" height="7.924"/>
	<rect x="294.75" y="323.292" fill="#2D527F" width="15.245" height="8.269"/>
	
		<rect x="293.033" y="296.032" transform="matrix(-0.5 -0.866 0.866 -0.5 182.3028 712.5594)" fill="#2D527F" width="7.627" height="15.244"/>
	<polygon fill="#2D527F" points="205.239,308.67 209.356,302.63 189.765,293.361 185.648,299.401 	"/>
	<polygon fill="#2D527F" points="301.877,363.856 305.248,358.422 287.623,349.003 284.252,354.438 	"/>
	
		<rect x="192.232" y="347.413" transform="matrix(-0.5 -0.866 0.866 -0.5 -13.7787 702.1155)" fill="#2D527F" width="7.119" height="15.244"/>
	
		<rect x="211.192" y="365.927" transform="matrix(-0.7431 -0.6691 0.6691 -0.7431 125.3272 795.2053)" fill="#2D527F" width="8.196" height="15.243"/>
	<polygon fill="#2D527F" points="273.237,367.867 267.307,373.717 276.679,385.969 282.607,380.118 	"/>
	<polygon fill="#2D527F" points="217.248,289.425 222.545,285.407 214.209,272.542 208.912,276.56 	"/>
	
		<rect x="275.565" y="274.791" transform="matrix(0.7525 0.6586 -0.6586 0.7525 255.1271 -114.0539)" fill="#2D527F" width="7.489" height="15.245"/>
	<g>
		<g>
			<path fill="#4F709E" d="M246.237,276.207c-28.72,0-52.002,23.282-52.002,52.002s23.282,52.002,52.002,52.002
				s52.002-23.282,52.002-52.002S274.957,276.207,246.237,276.207z M246.237,372.676c-24.558,0-44.467-19.908-44.467-44.467
				s19.908-44.467,44.467-44.467c24.558,0,44.467,19.908,44.467,44.467S270.795,372.676,246.237,372.676z"/>
		</g>
	</g>
	<g>
		<g>
			<path fill="#4F709E" d="M248.038,309.017c-11.478,0-20.783,9.305-20.783,20.783s9.305,20.783,20.783,20.783
				c11.478,0,20.783-9.305,20.783-20.783S259.516,309.017,248.038,309.017z M248.038,347.572c-9.815,0-17.772-7.957-17.772-17.772
				c0-9.815,7.957-17.772,17.772-17.772c9.815,0,17.772,7.957,17.772,17.772S257.853,347.572,248.038,347.572z"/>
		</g>
	</g>
	<circle fill="#4F709E" cx="247.597" cy="329.577" r="9.188"/>
	<circle fill="#2D527F" cx="247.597" cy="329.577" r="3.47"/>
	<g>
		<g>
			<path fill="#2D527F" d="M247.907,312.051c-9.772,0-17.695,7.922-17.695,17.695c0,9.772,7.922,17.695,17.695,17.695
				c9.772,0,17.695-7.922,17.695-17.695C265.601,319.973,257.679,312.051,247.907,312.051z M247.907,344.876
				c-8.356,0-15.131-6.774-15.131-15.131s6.774-15.131,15.131-15.131c8.357,0,15.131,6.774,15.131,15.131
				S256.263,344.876,247.907,344.876z"/>
		</g>
	</g>
</g>
<g id="Layer_1">
	<g>
		<rect x="257.499" y="261.563" fill="#350E27" width="470.666" height="68.665"/>
		<g id="Layer_9">
			<path fill="#45002F" d="M257.5,261.563c0-138.901,105.362-251.502,235.333-251.502s235.333,112.601,235.333,251.502"/>
			<path fill="#51203E" d="M261.754,257.379c0-134.388,103.142-243.331,230.373-243.331s230.372,108.943,230.372,243.331"/>
		</g>
		<g id="Layer_10">
			<path fill="#6C2A52" d="M293.463,206.403c0-99.968,93.836-181.008,201.935-181.008s187.73,77.024,197.73,179.857"/>
		</g>
		<g id="Layer_4">
			<path fill="#6C2A52" d="M320.165,215.198c0-91.495,76.653-165.666,171.209-165.666s171.209,74.171,171.209,165.666"/>
			<path fill="#45002F" d="M323.5,212.706c0-88.905,74.918-160.978,167.333-160.978S658.166,123.8,658.166,212.706"/>
		</g>
		<g id="Layer_2">
			<path fill="#6C2A52" d="M435.044,203.395h-88.679c0,0-15.272,0.75-14.533-12.75c0.739-13.5,23.155-7.75,19.953-8.5l96.807,18.25
				c0,0,14.78,3.008-0.985,3.008L435.044,203.395z"/>
			<path fill="#6C2A52" d="M435.612,193.034l-85.455-16.984c0,0-14.863-2.189-11.52-15.289c3.343-13.1,23.824-3.167,20.884-4.516
				l89.731,36.441c0,0,13.656,5.78-1.536,2.761L435.612,193.034z"/>
			<path fill="#6C2A52" d="M439.62,183.106l-79.113-32.1c0,0-13.907-4.833-8.172-17.075c5.735-12.242,23.571,1.2,20.996-0.654
				l79.503,51.953c0,0,12.055,8.137-2.01,2.43L439.62,183.106z"/>
			<path fill="#6C2A52" d="M445.961,173.954l-70.518-45.707c0,0-12.576-7.207-4.23-18.795c8.345-11.588,22.867,5.063,20.751,2.748
				l66.495,66.077c0,0,10.025,10.284-2.512,2.159L445.961,173.954z"/>
			<path fill="#6C2A52" d="M453.244,165.585l-59.398-56.028c0,0-10.794-9.051-0.144-19.35s21.339,8.449,19.758,5.828l51.115,75.717
				c0,0,7.637,11.736-2.922,1.776L453.244,165.585z"/>
			<path fill="#6C2A52" d="M462.025,159.119l-46.509-66.125c0,0-8.663-10.929,3.478-18.645c12.141-7.716,18.891,12.52,17.865,9.673
				l34.884,83.362c0,0,5.133,12.863-3.135,1.107L462.025,159.119z"/>
			<path fill="#6C2A52" d="M470.153,155.686l-29.534-75.555c0,0-5.83-12.722,7.799-17.323c13.629-4.602,15.394,16.725,15.071,13.706
				l14.149,89.553c0,0,1.941,13.758-3.31,0.326L470.153,155.686z"/>
			<path fill="#6C2A52" d="M479.955,153.058l-15.311-79.867c0,0-3.47-13.595,11.662-15.806s12.612,19.203,12.892,16.159
				l-3.57,91.076c0,0-0.791,13.952-3.513-0.247L479.955,153.058z"/>
			<path fill="#6C2A52" d="M490.728,152.148l0.082-81.456c0,0-0.86-14.029,14.873-13.335c15.733,0.694,9.011,21.278,9.888,18.338
				l-21.36,88.902c0,0-3.519,13.573-3.504-0.909L490.728,152.148z"/>
			<path fill="#6C2A52" d="M503.115,153.332l15.892-79.769c0,0,1.906-13.904,16.729-10.259c14.823,3.644,4.436,22.539,5.841,19.824
				l-37.566,83.054c0,0-5.98,12.631-3.155-1.55L503.115,153.332z"/>
			<path fill="#6C2A52" d="M511.906,156.61l34.828-75.111c0,0,5.23-13.292,18.774-6.251c13.544,7.041-1.152,23.295,0.874,20.939
				l-56.723,73.324c0,0-8.887,11.089-2.695-2.264L511.906,156.61z"/>
			<path fill="#6C2A52" d="M519.904,161.508l50.539-68.034c0,0,8.057-12.198,19.281-2.98s-6.511,22.73-4.04,20.754l-70.914,62.577
				c0,0-11.017,9.412-2.033-2.683L519.904,161.508z"/>
			<path fill="#6C2A52" d="M528.972,169.135l61.521-59.228c0,0,10.048-10.769,19.394-0.035c9.347,10.735-10.404,21.344-7.634,19.774
				l-80.489,50.813c0,0-12.45,7.59-1.513-2.94L528.972,169.135z"/>
			<path fill="#6C2A52" d="M535.391,176.878l74.21-46.674c0,0,12.334-8.748,19.749,4.413s-14.765,19.52-11.639,18.544
				l-91.872,33.686c0,0-14.158,4.934-0.965-3.364L535.391,176.878z"/>
			<path fill="#6C2A52" d="M541.431,187.526l82.606-32.32c0,0,13.936-6.309,18.478,7.328s-18.567,16.113-15.293,15.689
				l-97.249,17.212c0,0-14.933,2.409-0.247-3.337L541.431,187.526z"/>
			<path fill="#6C2A52" d="M544.188,196.691l86.861-16.291c0,0,14.812-3.589,16.735,10.654
				c1.922,14.244-21.161,12.353-17.878,12.548l-98.4-1.288c0,0-15.066-0.428,0.376-3.324L544.188,196.691z"/>
		</g>
		<g id="Layer_11">
			<circle fill="#6C2A52" cx="489.275" cy="204.653" r="32.564"/>
			<path fill="#6C2A52" d="M518.888,214.267c-4.36,0.093-5.669,4.692-4.07,7.62c-0.194-0.016-0.395-0.023-0.602-0.018
				c-3.5,0.075-5.033,3.056-4.675,5.743c-0.631-0.286-1.367-0.446-2.213-0.428c-3.262,0.07-4.816,2.663-4.723,5.191
				c-0.812-0.746-1.932-1.214-3.36-1.183c-2.589,0.055-4.102,1.702-4.57,3.642c-0.729-1.525-2.205-2.664-4.41-2.617
				c-2.044,0.044-3.416,1.079-4.134,2.467c-0.55-1.919-2.132-3.5-4.722-3.445c-1.436,0.031-2.54,0.553-3.32,1.341
				c0.142-2.64-1.523-5.405-4.934-5.332c-1.338,0.029-2.385,0.486-3.153,1.185c1.026-2.964-0.553-6.941-4.637-6.853
				c-0.631,0.013-1.196,0.124-1.7,0.308c2.358-2.863,1.029-8.462-3.806-8.359c-6.447,0.138-6.233,10.136,0.214,9.998
				c0.631-0.013,1.196-0.124,1.7-0.308c-2.358,2.863-1.03,8.462,3.806,8.359c1.338-0.029,2.385-0.486,3.153-1.185
				c-1.026,2.964,0.553,6.941,4.637,6.853c1.436-0.031,2.54-0.553,3.32-1.341c-0.142,2.64,1.523,5.405,4.934,5.332
				c2.044-0.044,3.416-1.079,4.134-2.467c0.55,1.919,2.132,3.5,4.722,3.445c2.589-0.055,4.102-1.702,4.57-3.642
				c0.729,1.525,2.205,2.664,4.41,2.617c3.262-0.07,4.816-2.663,4.723-5.19c0.812,0.746,1.932,1.214,3.36,1.183
				c3.5-0.075,5.033-3.056,4.675-5.743c0.631,0.286,1.367,0.446,2.213,0.428c4.36-0.093,5.669-4.692,4.07-7.62
				c0.194,0.016,0.395,0.023,0.602,0.018C525.55,224.127,525.335,214.129,518.888,214.267z"/>
		</g>
		<g id="Layer_3">
			<ellipse fill="#8E3A6C" cx="489.275" cy="204.7" rx="31.106" ry="30.107"/>
			<circle fill="#6C2A52" cx="489.275" cy="204.7" r="23.754"/>
			<circle fill="#8E3A6C" cx="488.832" cy="204.7" r="17.636"/>
			<circle fill="#6C2A52" cx="488.832" cy="204.653" r="8.75"/>
			<circle fill="#A35F89" cx="488.832" cy="204.653" r="8.141"/>
		</g>
		<g id="Layer_5">
			<path fill="#A35F89" d="M488.942,217.274l-0.599,17.32c0,0-0.012,3.634-8.809,2.537c-9.063-1.13-5.139-4.706-5.673-4.098
				l13.123-18.477c0,0,2.155-2.816,2.048,0.264L488.942,217.274z"/>
			<path fill="#6C2A52" d="M487.034,216.887l-4.899,13.931c0,0-0.952,2.947-6.557,0.259c-5.774-2.768-2.218-4.868-2.734-4.484
				l13.585-12.311c0,0,2.174-1.844,1.303,0.632L487.034,216.887z"/>
			<path fill="#A35F89" d="M485.395,215.806l-6.993,8.968c0,0-1.4,1.931-6.17-2.448c-4.914-4.511-1.228-4.723-1.776-4.63
				l14.826-4.182c0,0,2.351-0.57,1.107,1.024L485.395,215.806z"/>
			<path fill="#A35F89" d="M489.281,217.274l0.599,17.32c0,0,0.012,3.634,8.809,2.537c9.063-1.13,5.139-4.706,5.673-4.098
				l-13.123-18.477c0,0-2.155-2.816-2.048,0.264L489.281,217.274z"/>
			<path fill="#6C2A52" d="M490.271,217.751l4.047,20.079c0,0,0.935,4.191-6.012,4.636c-7.157,0.458-5.251-5.397-5.497-4.593
				L488.082,215c0,0,0.9-3.664,1.62-0.094L490.271,217.751z"/>
			<path fill="#6C2A52" d="M493,215.075l12.064,8.516c0,0,2.575,1.72-1.571,6.422c-4.271,4.844-5.307,0.831-5.08,1.435
				l-8.091-16.492c0,0-1.174-2.605,0.971-1.091L493,215.075z"/>
			<path fill="#A35F89" d="M492.619,215.34l8.717,8.306c0,0,1.785,1.801,4.66-3.253c2.962-5.206-0.312-4.973,0.193-4.945
				l-14.141-2.463c0,0-2.215-0.296-0.665,1.181L492.619,215.34z"/>
			<path fill="#A35F89" d="M487.268,214.311c0,0-9.362,14.385-11.464,14.405C475.804,228.716,479.206,225.999,487.268,214.311z"/>
			<path fill="#A35F89" d="M476.998,228.683c0,0,1.75,1.213,8.5-10.935C485.498,217.747,479.507,227.835,476.998,228.683"/>
			<path fill="#A35F89" d="M491.141,214.772c0,0,10.718,13.405,12.812,13.22C503.953,227.992,500.304,225.619,491.141,214.772z"/>
			<path fill="#A35F89" d="M502.761,228.075c0,0-1.624,1.377-9.524-10.056C493.237,218.019,500.184,227.475,502.761,228.075"/>
			<path fill="#A35F89" d="M494.585,221.173c0,0,4.956,7.285,6.635,7.694C501.22,228.867,500.009,230.275,494.585,221.173z"/>
			<path fill="#A35F89" d="M488.433,216.459c0,0-2.474,20.167-4.891,22.917C483.542,239.376,486.49,239.876,488.433,216.459z"/>
			<path fill="#A35F89" d="M488.929,216.459c0,0,2.474,20.167,4.891,22.917C493.821,239.376,490.871,239.876,488.929,216.459z"/>
			<path fill="#A35F89" d="M488.465,224.032c0,0-2.205,17.683-3.429,17.373C485.037,241.404,487.185,234.264,488.465,224.032z"/>
			<path fill="#A35F89" d="M491.604,240.967c0,0-1.795-7.237-2.57-17.52C489.035,223.447,490.367,241.217,491.604,240.967"/>
			<path fill="#A35F89" d="M488.736,223.444l-0.358,17.414C488.378,240.858,488.992,245.258,488.736,223.444z"/>
			<path fill="#6C2A52" d="M473.802,219.253c0,0,1.562,1.066,9.662-4.542C483.464,214.711,476.361,219.287,473.802,219.253"/>
			<path fill="#6C2A52" d="M483.059,215.517c0,0-4.896,3.838-6.56,3.911C476.498,219.428,477.702,220.39,483.059,215.517z"/>
			<path fill="#6C2A52" d="M483.699,215.851c0,0-4.428,4.369-6.073,4.632C477.627,220.483,478.933,221.301,483.699,215.851z"/>
			<path fill="#6C2A52" d="M504.166,217.603c0,0-1.415,1.254-10.156-3.292C494.009,214.311,501.632,217.958,504.166,217.603"/>
			<path fill="#6C2A52" d="M494.513,215.06c0,0,5.339,3.192,6.999,3.056C501.512,218.116,500.438,219.221,494.513,215.06z"/>
			<path fill="#6C2A52" d="M493.919,215.472c0,0,4.942,3.778,6.607,3.832C500.526,219.304,499.334,220.28,493.919,215.472z"/>
			<path fill="#6C2A52" d="M485.611,217.931c0,0-7.752,15.313-9.839,15.56C475.771,233.491,478.86,230.422,485.611,217.931z"/>
			<path fill="#6C2A52" d="M477.804,234.139c0,0,1.871,1.016,7.268-11.79C485.072,222.349,480.206,233.025,477.804,234.139"/>
			<path fill="#6C2A52" d="M484.873,225.641c0,0-3.123,8.239-4.66,9.028C480.212,234.669,481.718,235.756,484.873,225.641z"/>
			<path fill="#6C2A52" d="M492.304,217.931c0,0,7.752,15.313,9.839,15.56C502.142,233.491,499.054,230.422,492.304,217.931z"/>
			<path fill="#6C2A52" d="M500.11,234.139c0,0-1.871,1.016-7.268-11.79C492.841,222.349,497.707,233.025,500.11,234.139"/>
			<path fill="#6C2A52" d="M493.042,225.641c0,0,3.123,8.239,4.66,9.028C497.701,234.669,496.197,235.756,493.042,225.641z"/>
			<path fill="#A35F89" d="M484.464,221.017c0,0-4.223,7.733-5.854,8.304C478.61,229.321,479.952,230.604,484.464,221.017z"/>
		</g>
		<g id="Layer_6">
			<path fill="#6C2A52" d="M450.948,249.928l-119.023,0.916c0,0-2.039-8.502-7.023-6.371c-4.984,2.13-0.012-1.593-0.012-1.593
				l0.215-15.421c0,0,7.679,1.564,8.277-7.367l119.01,0.89c0,0-0.325,6.904,5.2,7.212l0.129,16.78
				C457.722,244.972,451.236,243.925,450.948,249.928z"/>
			<path fill="#A35F89" d="M448.511,247.163l-113.15,0.87c0,0-1.93-7.046-6.67-5.275c-4.74,1.771-0.01-1.321-0.01-1.321
				l0.219-12.784c0,0,7.299,1.289,7.875-6.115l113.136,0.626c0,0-0.316,5.723,4.936,5.974l0.107,13.91
				C454.955,243.049,448.789,242.187,448.511,247.163z"/>
			<path fill="#6C2A52" d="M446.981,243.962l-109.305,0.841c0,0-1.853-5.266-6.435-3.934s-0.008-0.988-0.008-0.988l0.233-9.561
				c0,0,7.048,0.952,7.618-4.587l109.29,0.278c0,0-0.315,4.281,4.759,4.459l0.08,10.403
				C453.212,240.874,447.259,240.24,446.981,243.962z"/>
			<path fill="#A35F89" d="M448.542,236.406c0-0.156-0.126-0.282-0.282-0.282H334.157c-0.156,0-0.282,0.126-0.282,0.282l0,0
				c0,0.156,0.126,0.282,0.282,0.282h114.102C448.414,236.688,448.542,236.562,448.542,236.406L448.542,236.406z"/>
			<path fill="#A35F89" d="M448.959,232.72c0-0.156-0.126-0.282-0.282-0.282H334.573c-0.156,0-0.282,0.126-0.282,0.282l0,0
				c0,0.156,0.126,0.282,0.282,0.282h114.102C448.831,233.003,448.959,232.876,448.959,232.72L448.959,232.72z"/>
			<path fill="#A35F89" d="M441.499,228.946c0-0.126-0.108-0.227-0.241-0.227h-97.392c-0.133,0-0.241,0.102-0.241,0.227l0,0
				c0,0.126,0.108,0.227,0.241,0.227h97.392C441.391,229.173,441.499,229.071,441.499,228.946L441.499,228.946z"/>
			<path fill="#A35F89" d="M439.705,239.97c0-0.126-0.108-0.227-0.241-0.227h-97.392c-0.133,0-0.241,0.102-0.241,0.227l0,0
				c0,0.126,0.108,0.227,0.241,0.227h97.392C439.598,240.197,439.705,240.095,439.705,239.97L439.705,239.97z"/>
			<path fill="#6C2A52" d="M528.08,249.735l119.023,0.916c0,0,2.039-8.502,7.023-6.371c4.984,2.13,0.012-1.593,0.012-1.593
				l-0.215-15.421c0,0-7.679,1.564-8.277-7.367l-119.01,0.89c0,0,0.325,6.904-5.2,7.212l-0.129,16.78
				C521.308,244.78,527.792,243.733,528.08,249.735z"/>
			<path fill="#A35F89" d="M530.517,246.971l113.15,0.87c0,0,1.931-7.046,6.67-5.275s0.01-1.321,0.01-1.321l-0.219-12.784
				c0,0-7.299,1.289-7.875-6.115l-113.136,0.626c0,0,0.316,5.723-4.936,5.974l-0.107,13.91
				C524.074,242.857,530.24,241.995,530.517,246.971z"/>
			<path fill="#6C2A52" d="M532.047,243.77l109.305,0.841c0,0,1.853-5.266,6.435-3.934c4.582,1.332,0.008-0.988,0.008-0.988
				l-0.233-9.561c0,0-7.048,0.952-7.618-4.587l-109.29,0.278c0,0,0.315,4.281-4.759,4.459l-0.08,10.403
				C525.817,240.682,531.77,240.048,532.047,243.77z"/>
			<path fill="#A35F89" d="M530.487,236.213c0-0.156,0.126-0.282,0.282-0.282h114.102c0.156,0,0.282,0.126,0.282,0.282l0,0
				c0,0.156-0.126,0.282-0.282,0.282H530.77C530.613,236.496,530.487,236.369,530.487,236.213L530.487,236.213z"/>
			<path fill="#A35F89" d="M530.071,232.528c0-0.156,0.126-0.282,0.282-0.282h114.102c0.156,0,0.282,0.126,0.282,0.282l0,0
				c0,0.156-0.126,0.282-0.282,0.282H530.353C530.197,232.81,530.071,232.684,530.071,232.528L530.071,232.528z"/>
			<path fill="#A35F89" d="M537.529,228.753c0-0.126,0.108-0.227,0.241-0.227h97.392c0.133,0,0.241,0.102,0.241,0.227l0,0
				c0,0.126-0.108,0.227-0.241,0.227H537.77C537.637,228.981,537.529,228.879,537.529,228.753L537.529,228.753z"/>
			<path fill="#A35F89" d="M539.323,239.778c0-0.126,0.108-0.227,0.241-0.227h97.392c0.133,0,0.241,0.102,0.241,0.227l0,0
				c0,0.126-0.108,0.227-0.241,0.227h-97.392C539.431,240.005,539.323,239.903,539.323,239.778L539.323,239.778z"/>
			<path fill="#6C2A52" d="M318.332,239.624c0,7.329-5.373,13.271-12,13.271h-16.5c-6.627,0-12-5.942-12-13.271v-13.647
				c0-7.329,5.373-13.271,12-13.271h16.5c6.627,0,12,5.942,12,13.271V239.624z"/>
			<path fill="#6C2A52" d="M704.123,238.694c0,7.329-5.373,13.271-12,13.271h-16.5c-6.627,0-12-5.942-12-13.271v-13.647
				c0-7.329,5.373-13.271,12-13.271h16.5c6.627,0,12,5.942,12,13.271V238.694z"/>
		</g>
		<g id="Layer_8">
			<path fill="#A35F89" d="M307.333,216.654l-17.25,0.368c0,0,1.75,8.689-6.75,6.935v15.419c0,0,6,0.768,5.75,8.018h16.75
				c0,0-1.75-5.986,5.5-6.174l1.25-17.263C312.583,223.958,306.333,225.059,307.333,216.654z"/>
			<path fill="#6C2A52" d="M306.302,218.121l-15.431,0.329c0,0,1.565,7.772-6.038,6.204v13.793c0,0,5.367,0.687,5.144,7.173h14.983
				c0,0-1.565-5.355,4.92-5.523l1.118-15.443C310.997,224.654,305.406,225.639,306.302,218.121z"/>
			<path fill="#A35F89" d="M674.457,216.838l17.25,0.368c0,0-1.75,8.689,6.75,6.935v15.419c0,0-6,0.768-5.75,8.018h-16.75
				c0,0,1.75-5.986-5.5-6.174l-1.25-17.263C669.207,224.141,675.457,225.243,674.457,216.838z"/>
			<path fill="#6C2A52" d="M675.489,218.304l15.431,0.329c0,0-1.565,7.772,6.038,6.204v13.793c0,0-5.367,0.687-5.144,7.173h-14.983
				c0,0,1.565-5.355-4.92-5.523l-1.118-15.443C670.792,224.838,676.383,225.823,675.489,218.304z"/>
			<path fill="#8E3A6C" d="M303.674,222.1l-10.965,0.234c0,0,1.112,5.523-4.291,4.409v9.801c0,0,3.814,0.488,3.655,5.097h10.647
				c0,0-1.112-3.805,3.496-3.924l0.795-10.974C307.011,226.742,303.038,227.442,303.674,222.1z"/>
			<path fill="#8E3A6C" d="M677.873,222.283l10.965,0.234c0,0-1.112,5.523,4.291,4.409v9.801c0,0-3.814,0.488-3.655,5.097h-10.647
				c0,0,1.112-3.805-3.496-3.924l-0.795-10.974C674.535,226.926,678.508,227.626,677.873,222.283z"/>
			<circle fill="#6C2A52" cx="683.832" cy="232.025" r="4.25"/>
			<path fill="#A35F89" d="M683.059,235.469c0,0-3.441-1.318-2.429-4.409c1.012-3.091,1.121,0,1.121,0
				S680.641,233.802,683.059,235.469z"/>
			<circle fill="#6C2A52" cx="297.713" cy="232.439" r="4.25"/>
			<path fill="#A35F89" d="M296.94,235.883c0,0-3.441-1.318-2.429-4.409c1.012-3.091,1.121,0,1.121,0
				S294.524,234.216,296.94,235.883z"/>
			<path fill="#6C2A52" d="M722.498,305.037c0,11.336-5.26,20.525-11.747,20.525H273.502c-6.487,0-11.747-9.191-11.747-20.525
				v-21.948c0-11.336,5.26-20.525,11.747-20.525h437.252c6.487,0,11.747,9.191,11.747,20.525L722.498,305.037L722.498,305.037z"/>
		</g>
		<path fill="#885573" d="M718.331,295.645c0,13.577-5.76,24.583-12.864,24.583h-299.26c-7.105,0-12.864-11.006-12.864-24.583
			v-4.167c0-13.577,5.76-24.583,12.864-24.583h299.261c7.105,0,12.864,11.006,12.864,24.583L718.331,295.645L718.331,295.645z"/>
		<g id="Layer_2_1_">
			<circle fill="#294F7A" cx="488.798" cy="31" r="31"/>
			<circle fill="#294F7A" cx="618.826" cy="80.567" r="31"/>
			<circle fill="#294F7A" cx="357.707" cy="85.036" r="31"/>
		</g>
		<g id="Layer_12">
			<g>
				<g>
					
						<rect x="466.355" y="12.346" transform="matrix(-0.9998 0.0175 -0.0175 -0.9998 977.3073 63.09)" fill="none" width="44.045" height="46.95"/>
					
						<text transform="matrix(0.9998 -0.0175 0.0175 0.9998 475.0538 51.8015)" fill="#DBD7E7" font-family="'Modern-Regular'" font-size="59.9752">2</text>
				</g>
				<g>
					
						<rect x="272.971" y="281.421" transform="matrix(-1 0.0015 -0.0015 -1 570.1045 587.699)" fill="none" width="23.721" height="25.284"/>
					
						<text transform="matrix(1 -0.0015 0.0015 1 272.9813 302.5585)" fill="#DBD7E7" font-family="'Modern-Regular'" font-size="25.5464">L E V E L</text>
				</g>
			</g>
			<g>
				<g>
					
						<rect x="593.66" y="58.083" transform="matrix(-0.6561 -0.7547 0.7547 -0.6561 958.0882 599.7538)" fill="none" width="44.078" height="46.983"/>
					
						<text transform="matrix(0.6561 0.7547 -0.7547 0.6561 594.9002 81.5874)" fill="#DBD7E7" font-family="'Modern-Regular'" font-size="60">3</text>
				</g>
			</g>
			<g>
				<g>
					
						<rect x="335.661" y="63.544" transform="matrix(-0.7547 0.6561 -0.6561 -0.7547 684.7532 -81.9629)" fill="none" width="44.078" height="46.983"/>
					
						<text transform="matrix(0.7547 -0.6561 0.6561 0.7547 357.7077 107.8269)" fill="#DBD7E7" font-family="'Modern-Regular'" font-size="60">1</text>
				</g>
			</g>
			<path fill="#45002F" d="M343.602,130.073c-0.363,0.544-1.287,0.566-2.065,0.048l-16.89-11.249
				c-0.777-0.518-1.114-1.379-0.752-1.924l0,0c0.363-0.544,1.287-0.566,2.065-0.048l16.89,11.249
				C343.627,128.668,343.965,129.529,343.602,130.073L343.602,130.073z"/>
			<path fill="#45002F" d="M636.775,126.224c0.393,0.523,1.317,0.493,2.064-0.068l16.229-12.183c0.747-0.561,1.034-1.44,0.642-1.963
				l0,0c-0.393-0.523-1.317-0.493-2.064,0.068l-16.229,12.183C636.671,124.822,636.382,125.701,636.775,126.224L636.775,126.224z"/>
			<path fill="#45002F" d="M431.308,59.633c-0.608,0.241-1.36-0.217-1.68-1.023l-6.947-17.516c-0.32-0.806-0.086-1.655,0.522-1.897
				l0,0c0.608-0.241,1.36,0.217,1.68,1.023l6.947,17.516C432.15,58.543,431.916,59.392,431.308,59.633L431.308,59.633z"/>
			<path fill="#45002F" d="M560.867,61.486c0.608,0.241,1.36-0.217,1.68-1.023l6.947-17.516c0.32-0.806,0.086-1.655-0.522-1.897l0,0
				c-0.608-0.241-1.36,0.217-1.68,1.023l-6.947,17.516C560.025,60.396,560.259,61.245,560.867,61.486L560.867,61.486z"/>
		</g>
	</g>
</g>
<g id="Layer_3_2_">
	<g>
		<g id="Layer_2_3_">
			<rect x="257.158" y="330.395" fill="#45002F" width="235.32" height="317.787"/>
			<polyline fill="none" stroke="#69274F" stroke-width="2" stroke-miterlimit="10" points="481.651,648.182 481.651,340.886 
				267.426,340.886 267.426,648.182 			"/>
		</g>
		<g id="Layer_3_1_">
			<path fill="#8E3A6C" d="M280.24,389.79c0,0,33.505-0.359,49.214-32.997h90.604c0,0,10.491,30.121,49.338,32.997v258.392H280.24
				V389.79z"/>
		</g>
		<g id="Layer_5_1_">
			<line fill="none" stroke="#6C2A52" stroke-miterlimit="10" x1="316.451" y1="406.663" x2="259.473" y2="330.395"/>
			<line fill="none" stroke="#6C2A52" stroke-miterlimit="10" x1="430.296" y1="409.334" x2="490.189" y2="330.395"/>
			<polyline fill="none" stroke="#69274F" stroke-width="2" stroke-miterlimit="10" points="459.417,647.844 459.417,371.684 
				290.382,371.684 290.382,647.844 			"/>
		</g>
		<g id="Layer_4_1_">
			<path fill="#6C2A52" d="M435.965,648.182V415.923c0-7.424-5.455-13.442-12.184-13.442h-98.513
				c-6.728,0-12.184,6.019-12.184,13.442v232.258"/>
			<path fill="#885573" d="M325.637,648.182c0-117.005,21.819-211.858,48.734-211.858c26.915,0,48.734,94.852,48.734,211.858"/>
		</g>
		<g id="Layer_6_1_">
			<path fill="#6C2A52" d="M376.161,648.182v-300.4c0-9.603-0.132-17.387-0.293-17.387h-2.376c-0.162,0-0.293,7.784-0.293,17.387
				v300.4"/>
			<path fill="#6C2A52" d="M458.864,608.156l-159.473,0.18c-5.098,0.006-9.23,0.142-9.23,0.305l0.003,2.376
				c0,0.162,4.132,0.289,9.23,0.283l159.473-0.18"/>
			<line fill="none" stroke="#69274F" stroke-miterlimit="10" x1="290.162" y1="591.833" x2="307.141" y2="609.727"/>
			<line fill="none" stroke="#69274F" stroke-miterlimit="10" x1="458.867" y1="591.833" x2="441.889" y2="609.727"/>
			<line fill="none" stroke="#69274F" stroke-miterlimit="10" x1="289.778" y1="627.623" x2="306.756" y2="609.727"/>
			<line fill="none" stroke="#69274F" stroke-miterlimit="10" x1="458.484" y1="627.623" x2="441.505" y2="609.727"/>
			<line fill="none" stroke="#69274F" stroke-miterlimit="10" x1="267.426" y1="380.733" x2="317.608" y2="407.744"/>
			<line fill="none" stroke="#69274F" stroke-miterlimit="10" x1="432.191" y1="407.744" x2="482.209" y2="380.822"/>
			<line fill="none" stroke="#69274F" stroke-miterlimit="10" x1="306.206" y1="340.886" x2="317.608" y2="407.744"/>
			<line fill="none" stroke="#69274F" stroke-miterlimit="10" x1="432.191" y1="407.744" x2="443.592" y2="340.886"/>
		</g>
	</g>
</g>
<g id="Layer_2_2_">
	<g>
		<g id="Layer_2_4_">
			<rect x="492.53" y="330.395" fill="#45002F" width="235.32" height="317.787"/>
			<polyline fill="none" stroke="#69274F" stroke-width="2" stroke-miterlimit="10" points="717.023,648.182 717.023,340.886 
				502.798,340.886 502.798,648.182 			"/>
		</g>
		<g id="Layer_3_3_">
			<path fill="#8E3A6C" d="M515.612,389.79c0,0,33.505-0.359,49.214-32.997h90.604c0,0,10.491,30.121,49.338,32.997v258.392H515.612
				V389.79z"/>
		</g>
		<g id="Layer_5_2_">
			<line fill="none" stroke="#6C2A52" stroke-miterlimit="10" x1="551.824" y1="406.663" x2="494.845" y2="330.395"/>
			<line fill="none" stroke="#6C2A52" stroke-miterlimit="10" x1="665.668" y1="409.334" x2="725.561" y2="330.395"/>
			<polyline fill="none" stroke="#69274F" stroke-width="2" stroke-miterlimit="10" points="694.789,647.844 694.789,371.684 
				525.754,371.684 525.754,647.844 			"/>
		</g>
		<g id="Layer_4_2_">
			<path fill="#6C2A52" d="M671.337,648.182V415.923c0-7.424-5.455-13.442-12.184-13.442H560.64
				c-6.728,0-12.183,6.019-12.183,13.442v232.258"/>
			<path fill="#885573" d="M561.009,648.182c0-117.005,21.819-211.858,48.734-211.858s48.734,94.852,48.734,211.858"/>
		</g>
		<g id="Layer_6_2_">
			<path fill="#6C2A52" d="M611.533,648.182v-300.4c0-9.603-0.132-17.387-0.293-17.387h-2.376c-0.162,0-0.293,7.784-0.293,17.387
				v300.4"/>
			<path fill="#6C2A52" d="M694.237,608.156l-159.473,0.18c-5.098,0.006-9.23,0.142-9.23,0.305l0.003,2.376
				c0,0.162,4.132,0.289,9.23,0.283l159.473-0.18"/>
			<line fill="none" stroke="#69274F" stroke-miterlimit="10" x1="525.535" y1="591.833" x2="542.513" y2="609.727"/>
			<line fill="none" stroke="#69274F" stroke-miterlimit="10" x1="694.24" y1="591.833" x2="677.261" y2="609.727"/>
			<line fill="none" stroke="#69274F" stroke-miterlimit="10" x1="525.15" y1="627.623" x2="542.128" y2="609.727"/>
			<line fill="none" stroke="#69274F" stroke-miterlimit="10" x1="693.856" y1="627.623" x2="676.877" y2="609.727"/>
			<line fill="none" stroke="#69274F" stroke-miterlimit="10" x1="502.798" y1="380.733" x2="552.98" y2="407.744"/>
			<line fill="none" stroke="#69274F" stroke-miterlimit="10" x1="667.563" y1="407.744" x2="717.581" y2="380.822"/>
			<line fill="none" stroke="#69274F" stroke-miterlimit="10" x1="541.578" y1="340.886" x2="552.98" y2="407.744"/>
			<line fill="none" stroke="#69274F" stroke-miterlimit="10" x1="667.563" y1="407.744" x2="678.965" y2="340.886"/>
		</g>
	</g>
</g>
<g id="Layer_4_3_">
	<g>
		<g>
			<path fill="#C5A661" d="M483.525,201.204c0,0,3.485-2.71-2.989-1.522c-2.734,0.502-4.991-4.641-0.099-4.92l1.832,0.071
				c0,0,2.187,0.111,2.339-2.898s1.35-103.962,1.35-103.962s-0.591-3.708-4.281-3.262c0,0-4.059,0.135-3.966-2.675
				c0,0,0.034-2.675,3.966-2.452c0,0,2.9,0.892,2.93-1.56s0-12.483,0-12.483l2.946-6.91l2.187,6.91v12.26
				c0,0-0.729,1.338,1.701,1.56c2.43,0.223,5.347,0.334,5.59,1.895s0.486,3.232-4.132,3.455c-3.213,0.155-2.664,1.448-3.151,3.454
				l0.963,101.54c0,0-0.546,4.235,2.309,4.458h3.524c0,0,2.856,0.307,2.856,2.341c0,1.56-1.489,2.759-3.19,2.759
				s-4.247-1.111-2.574,1.94c0.66,1.203-0.082-0.11-0.082-0.11L483.525,201.204"/>
			<ellipse fill="#C5A661" cx="488.636" cy="204.416" rx="6.198" ry="5.684"/>
			<path fill="#E2D1AE" d="M487.338,208.938c0,0-5.018-1.763-3.542-5.897s1.635,0,1.635,0S483.812,206.709,487.338,208.938z"/>
			<ellipse fill="#F1E8D6" cx="488.636" cy="204.416" rx="1.809" ry="1.659"/>
			<polygon fill="#E2D1AE" points="487.492,60.718 485.551,65.346 485.551,78.887 486.521,65.764 			"/>
			<path fill="#E2D1AE" d="M489.538,193.883c0,0-2.532-0.722-3.249,0.058l1.203-106.141L489.538,193.883z"/>
			<path fill="#E2D1AE" d="M480.806,83.666c0,0-3.852-0.456-1.324-2.921c0,0,1.191-0.113,0.232,0.913
				C478.755,82.683,480.806,83.666,480.806,83.666z"/>
			<path fill="#E2D1AE" d="M493.976,83.666c0,0,4.333-0.456,1.49-2.921c0,0-1.34-0.113-0.261,0.913S493.976,83.666,493.976,83.666z"
				/>
			<path fill="#E2D1AE" d="M480.709,198.691c0,0-3.852-0.456-1.324-2.921c0,0,1.191-0.113,0.232,0.913
				C478.659,197.709,480.709,198.691,480.709,198.691z"/>
			<path fill="#E2D1AE" d="M496.305,198.187c0,0,3.852-0.456,1.324-2.921c0,0-1.191-0.113-0.232,0.913
				C498.355,197.205,496.305,198.187,496.305,198.187z"/>
		</g>
		<polyline fill="#E2D1AE" points="487.078,61.705 489.026,65.183 487.492,60.718 		"/>
	</g>
</g>
</svg>
