<?xml version="1.0" encoding="utf-8"?>
<!-- Generator: Adobe Illustrator 17.0.0, SVG Export Plug-In . SVG Version: 6.00 Build 0)  -->
<!DOCTYPE svg PUBLIC "-//W3C//DTD SVG 1.1//EN" "http://www.w3.org/Graphics/SVG/1.1/DTD/svg11.dtd">
<svg version="1.1" id="Layer_1" xmlns="http://www.w3.org/2000/svg" xmlns:xlink="http://www.w3.org/1999/xlink" x="0px" y="0px"
	 width="504.429px" height="390.202px" viewBox="0 0 504.429 390.202" enable-background="new 0 0 504.429 390.202"
	 xml:space="preserve">
<g>
	<path fill="#B1B6BC" d="M503.399,174.107c-2.46-12.782-6.643-28.033-10.87-38.299c-6.967-16.917-16.645-32.169-29.773-45.073
		c-1.148-1.128-2.058-2.695-3.984-2.723c-0.018,0.692-0.035,1.384-0.052,2.076c-2.934-1.048-4.929-3.046-6.014-5.962
		c-0.344-0.324-0.688-0.649-1.032-0.974c-0.318-0.343-0.636-0.687-0.954-1.03c0,0.001-0.255-0.252-0.255-0.252l0.278,0.229
		c0.341,0.32,0.683,0.64,1.025,0.959c0.327,0.342,0.653,0.684,0.98,1.026c0.697-0.009,1.394-0.018,2.09-0.027
		c-0.847-3.202-3.551-4.538-6.084-6.045c-0.313,0.848,0.215,2.282-1.192,2.341c-0.642,0.027-1.524-0.663-1.94-1.272
		c-0.853-1.25,0.159-1.694,1.175-2.008c-0.824-2.388-2.404-3.829-4.996-4.002c0,0,0,0,0,0c-1.065-3.384-4.267-4.515-6.813-6.212
		C408.837,49.431,380.024,38.59,349.3,32.59c-34.272-6.693-68.92-9.769-103.786-8.959c-38.034,0.883-75.911,4.423-112.419,15.778
		C89.073,53.101,52.011,77.039,26.656,116.69c-11.143,17.425-17.045,36.743-19.837,57.118c-0.177,1.29,0.499,3.179-0.956,3.969
		c0.07,0.826-0.04,1.669-0.325,2.439c-0.011,0.234-0.041,0.466-0.081,0.696c0.151,0.835,0.114,1.708-0.109,2.524
		c1.382,3.638,0.142,7.484,0.149,11.174c0.006,3.611,0.92,7.332,0.117,10.931c0.248,0.775,0.322,1.612,0.223,2.425
		c0.047,0.433,0.054,0.871,0.004,1.303c0.274,0.717,0.402,1.495,0.366,2.269c0.673,0.645,0.448,1.88,0.615,2.787
		c10.219,55.245,42.705,93.091,92.156,117.476c26.683,13.157,55.296,19.954,84.544,24.337c29.55,4.428,59.327,5.957,89.124,4.808
		c47.617-1.836,94.089-10.215,137.826-29.766c24.779-11.076,45.576-27.895,62.631-49.283c7.754-9.724,14.496-19.976,19.274-31.382
		c5.302-12.656,11.416-28.236,12.436-42.076L503.399,174.107z M482.7,121.059c-2.472-0.736-2.719-2.814-2.942-4.904
		C481.578,117.286,482.294,119.079,482.7,121.059z M479.709,116.081c-1.659-0.303-1.905-1.548-1.95-2.923
		C478.938,113.777,479.544,114.782,479.709,116.081z M477.7,113.073c-1.617-0.332-1.905-1.553-1.952-2.938
		C476.933,110.762,477.555,111.76,477.7,113.073z M472.763,106.085c1.58,0.899,2.684,2.146,2.951,4.007
		c-2.748,0.028-2.932-1.923-3.017-3.95c-4.102-0.516-4.139-4.714-6.15-7.13C469.541,100.521,471.557,102.929,472.763,106.085z
		 M441.788,73.089c0.503,0.957,1.007,1.916,1.59,3.026C440.281,75.144,440.273,75.14,441.788,73.089z M437.591,71.603
		c0.203,0.171,0.405,0.343,0.607,0.515c-0.088,0.121-0.174,0.241-0.26,0.361c-0.202-0.173-0.415-0.336-0.592-0.532
		C437.326,71.925,437.504,71.722,437.591,71.603z M66.972,75.812c22.488-18.159,48.31-29.548,76.117-36.986
		c26.142-6.992,52.769-10.088,79.677-11.975c18.978-1.331,37.964-1.339,56.876-0.561c30.574,1.257,60.995,4.694,90.606,12.941
		c16.694,4.65,32.662,11.301,47.921,19.569c0.998,0.541,1.812,1.418,2.712,2.139c2.865,0.417,5.069,1.967,6.957,4.059
		c1.297,0.225,2.295,0.88,2.945,2.039c1.352,0.155,2.357,0.819,2.988,2.032c0.588,0.15,1.269,0.193,1.328,1.013
		c0.007,0.102-0.191,0.316-0.291,0.314c-0.805-0.014-0.952-0.644-1.112-1.251c-1.421-0.021-2.603-0.413-3.041-1.96
		c-1.394-0.062-2.544-0.502-3.04-1.959c-2.929-0.279-5.223-1.673-7.001-3.974c-7.243-1.064-12.816-5.995-19.521-8.4
		c-9.048-3.245-18.073-6.4-27.3-9.19c-14.527-4.392-29.415-6.456-44.223-8.93c-13.069-2.184-26.319-3.315-39.643-3.835
		c-16.3-0.636-32.591-1.062-48.885-0.77c-34.493,0.619-68.718,3.968-102.101,12.999c-30.908,8.362-59.019,22.295-82.502,44.586
		c-1.078,1.024-2.12,2.07-3.657,2.356C55.648,83.48,61.792,79.995,66.972,75.812z M426.008,190.463
		c-6.513-7.24-9.555-16.295-14.602-24.261c-10.101-15.943-24.032-26.594-40.906-34.557c-18.998-8.965-39.172-12.317-59.56-15.859
		c-25.435-4.419-50.953-5.319-76.609-4.64c-18.466,0.489-36.854,2.216-55.067,5.335c-19.642,3.364-38.327,9.613-55.39,20.087
		c-6.066,3.723-12.222,7.484-16.581,13.397c-0.693,0.939-1.813,1.907-1.028,3.053c0.884,1.291,2.158,0.339,3.108-0.198
		c1.881-1.064,3.824-2.105,5.474-3.477c9.678-8.048,21.162-12.25,32.861-16.329c14.408-5.024,29.109-8.253,44.271-9.414
		c20.359-1.559,40.564-5.293,61.095-4.417c24.785,1.058,49.321,3.84,73.809,8.152c20.832,3.668,40.083,10.522,58.318,20.935
		c9.296,5.308,16.453,12.944,23.515,20.674c1.808,1.979,3.041,4.961,3.441,7.646c0.757,5.081,1.461,10.149,2.444,15.207
		c0.828,4.258-1.72,7.22-6.29,7.103c-7.132-0.183-14.116,1.161-21.375,0.495c-13.769-1.263-27.871-0.058-41.097,3.251
		c-10.828,2.709-21.468,2.42-32.205,3.417c-19.989,1.856-39.764-2.24-59.664-1.932c-12.906,0.2-25.877-0.865-38.722,0.926
		c-17.549,2.447-35.069-1.221-52.604,0.058c-4.635,0.338-9.305-0.192-13.932,0.827c-3.36,0.74-6.435-0.812-9.658-1.604
		c-7.819-1.922-15.894-1.757-23.844-0.929c-4.331,0.451-8.597,0.945-12.913,0.363c-3.176-0.428-5.605,1.413-4.886,3.969
		c2.225,7.912,1.015,16.438,5.398,24.039c4.13,7.163,9.805,12.925,16.077,17.553c17.057,12.586,36.422,20.415,57.187,24.854
		c12.208,2.61,24.443,5.139,36.847,6.399c25.005,2.54,49.993,4.061,75.165,0.93c15.508-1.928,31.122-3.196,46.36-6.646
		c12.642-2.862,24.969-7.05,37.264-11.233c16.06-5.463,28.194-16.665,40.42-27.628c3.9-3.497,6.403-8.356,8.198-13.469
		c0.95-2.706,2.444-7.218,5.209-6.186c3.011,1.125,0.262,4.8-0.674,7.327c-3.722,10.045-9.46,18.133-17.409,25.886
		c-26.725,26.066-60.602,34.937-95.218,42.246c-17.596,3.716-35.662,3.88-55.086,3.252c-17.274,1.202-35.907-0.353-54.111-4.139
		c-26.736-5.559-53.969-9.796-78.203-23.924c-20.122-11.73-36.614-26.867-42.202-50.062c-3.691-15.322-3.559-31.14,4.203-46.168
		c12.081-23.391,32.434-36.853,55.195-47.45c20.2-9.405,41.735-14.589,63.696-17.822c9.028-1.329,18.194-1.897,27.32-2.345
		c30.041-1.475,59.658,1.905,89.297,6.803c33.842,5.593,62.069,21.016,86.309,44.659c10.517,10.258,17.678,22.484,20.613,36.87
		c0.948,4.644,0.306,9.624,0.266,14.45c-0.014,1.698-1.087,2.794-2.83,2.938c-3.165,0.261-6.513,0.757-8.57-2.496
		c-1.119-1.771-2.851-3.694-1.783-5.936c0.977-2.049,3.261-1.125,4.993-1.203C427.439,198.967,430.066,194.974,426.008,190.463z
		 M48.778,93.865c-0.503,2.329-1.9,3.809-4.645,4.965C44.92,95.875,46.63,94.677,48.778,93.865z M40.416,102.879
		c0.172,0.167,0.343,0.333,0.515,0.5c-0.378,0.219-0.756,0.44-1.134,0.659C40.003,103.652,40.21,103.266,40.416,102.879z
		 M38.408,106.267c-1.14,2.956-2.381,4.769-4.635,5.789C34.328,109.735,35.124,107.585,38.408,106.267z M475.114,272.554
		c-15.805,22.06-36.27,39.52-60.732,51.425c-14.728,7.168-30.139,12.827-46.25,16.888c-17.314,4.364-34.734,7.57-52.369,9.747
		c-8.726,1.077-17.43,2.365-26.282,2.756c-18.149,0.801-36.311,1.439-54.432,0.657c-36.473-1.573-72.746-5.088-107.547-17.141
		c-21.017-7.279-41.064-16.88-58.634-30.59c-19.122-14.921-36.005-32.082-46.123-54.752c-11.455-25.665-15.429-52.236-11.62-80.295
		c1.835-13.515,4.267-26.592,10.415-38.742c3.561-7.038,6.206-14.697,12.164-20.324c-0.132,3.719-2.679,6.356-4.43,9.269
		c-6.586,10.956-10.485,23.007-14.195,35.071c-1.337,4.346-0.716,9.252,0.699,13.823c0.556,1.798,1.729,2.774,3.362,3.387
		c6.994,2.624,14.002,5.21,20.978,7.88c2.072,0.793,3.93-0.246,5.888-0.392c5.674-0.422,7.792,1.323,7.744,6.845
		c-0.164,18.794,3.424,36.842,12.518,53.294c8.526,15.426,20.229,28.192,34.93,38.319c21.172,14.584,44.925,22.222,69.773,26.872
		c16.496,3.087,33.244,4.443,49.997,5.747c18.822,1.464,37.66,1.296,56.421,0.528c22.573-0.924,45.03-3.982,67.255-8.241
		c17.391-3.333,33.734-9.791,50.011-16.675c11.085-4.689,20.926-11.106,29.698-18.904c5.508-4.897,11.782-9.187,16.149-15.335
		c1.564-2.203,3.738-2.626,6.146-2.552c3.399,0.104,6.687-0.062,9.31-2.667c0.34-0.338,1.005-0.832,1.251-0.71
		c4.695,2.318,8.111-0.484,11.971-2.506c3.401-1.781,5.146,0.363,5.491,3.844c0.141,1.425-0.179,3.24,1.78,3.701
		c1.918,0.45,3.312-0.824,4.154-2.216c4.67-7.717,10.883-14.761,10.308-24.761c-0.148-2.572,0.561-5.356,1.507-7.799
		c3.111-8.03,2.982-16.44,3.344-24.799c0.286-6.617,0.823-13.258,0.508-19.853c-0.211-4.409-1.572-8.795-2.692-13.121
		c-0.968-3.741-1.157-7.384-0.07-12.175c3.435,5.023,3.855,10.117,4.653,14.717C505.032,202.362,498.752,239.559,475.114,272.554z"
		/>
	<path fill="#FEFEFE" d="M5.348,183.436c-0.136,0.496-0.342,0.969-0.616,1.4v19.067c0.397,0.481,0.691,1.039,0.882,1.636
		c0.802-3.598-0.112-7.318-0.118-10.928C5.49,190.92,6.73,187.074,5.348,183.436z"/>
	<path fill="#D6D8DC" d="M257.149,295.065c-17.274,1.202-35.907-0.352-54.115-4.138c-26.736-5.559-53.969-9.796-78.203-23.924
		c-20.122-11.731-36.614-26.868-42.202-50.062c-3.692-15.323-3.559-31.14,4.203-46.168c12.082-23.392,32.434-36.853,55.195-47.45
		c20.2-9.404,41.735-14.588,63.696-17.822c9.028-1.329,18.194-1.897,27.32-2.345c30.041-1.475,59.658,1.905,89.297,6.803
		c33.842,5.593,62.069,21.016,86.309,44.659c10.517,10.258,17.678,22.484,20.613,36.87c0.947,4.644,0.306,9.625,0.266,14.45
		c-0.014,1.699-1.087,2.794-2.83,2.938c-3.166,0.262-6.514,0.757-8.57-2.496c-1.119-1.771-2.851-3.694-1.783-5.936
		c0.977-2.049,3.261-1.126,4.993-1.203c6.097-0.273,8.724-4.266,4.666-8.777c-6.513-7.24-9.555-16.295-14.602-24.261
		c-10.1-15.944-24.031-26.595-40.906-34.557c-18.998-8.965-39.172-12.317-59.56-15.859c-25.436-4.418-50.953-5.319-76.609-4.64
		c-18.466,0.489-36.853,2.216-55.067,5.335c-19.642,3.363-38.327,9.612-55.39,20.087c-6.066,3.723-12.222,7.484-16.581,13.397
		c-0.692,0.939-1.812,1.908-1.028,3.053c0.884,1.291,2.158,0.34,3.108-0.198c1.881-1.064,3.824-2.105,5.474-3.477
		c9.678-8.048,21.162-12.25,32.861-16.329c14.408-5.024,29.109-8.253,44.271-9.414c20.359-1.559,40.564-5.293,61.095-4.417
		c24.786,1.058,49.322,3.84,73.809,8.152c20.832,3.668,40.083,10.522,58.318,20.935c9.296,5.309,16.453,12.944,23.515,20.674
		c1.808,1.979,3.041,4.961,3.441,7.646c0.757,5.081,1.461,10.149,2.444,15.207c0.827,4.258-1.72,7.22-6.29,7.103
		c-7.132-0.183-14.116,1.161-21.375,0.495c-13.769-1.263-27.871-0.058-41.097,3.251c-10.828,2.709-21.468,2.42-32.205,3.417
		c-19.989,1.856-39.764-2.239-59.664-1.932c-12.906,0.2-25.877-0.865-38.722,0.926c-17.55,2.447-35.069-1.221-52.604,0.058
		c-4.634,0.338-9.304-0.192-13.932,0.827c-3.36,0.74-6.436-0.812-9.658-1.604c-7.819-1.922-15.894-1.757-23.844-0.929
		c-4.331,0.451-8.597,0.945-12.913,0.363c-3.176-0.428-5.604,1.414-4.886,3.969c2.226,7.912,1.015,16.438,5.398,24.039
		c4.131,7.164,9.805,12.925,16.077,17.553c17.057,12.586,36.422,20.414,57.187,24.854c12.208,2.61,24.443,5.14,36.847,6.399
		c25.004,2.54,49.992,4.061,75.165,0.93c15.508-1.929,31.123-3.196,46.36-6.646c12.643-2.863,24.969-7.05,37.264-11.233
		c16.059-5.464,28.194-16.665,40.42-27.628c3.901-3.498,6.403-8.356,8.198-13.469c0.95-2.706,2.444-7.218,5.209-6.186
		c3.011,1.124,0.263,4.799-0.674,7.327c-3.722,10.045-9.46,18.133-17.409,25.886c-26.725,26.066-60.602,34.937-95.218,42.246
		C294.638,295.528,276.572,295.693,257.149,295.065z"/>
	<path fill="#D6D8DC" d="M33.707,112.088c-0.09,3.77-2.669,6.426-4.435,9.364c-6.587,10.955-10.485,23.007-14.195,35.071
		c-1.336,4.345-0.715,9.251,0.699,13.823c0.556,1.797,1.73,2.774,3.362,3.387c6.993,2.624,14.002,5.21,20.978,7.88
		c2.072,0.793,3.93-0.247,5.888-0.392c5.674-0.422,7.792,1.323,7.744,6.845c-0.164,18.795,3.424,36.842,12.518,53.294
		c8.526,15.425,20.229,28.192,34.93,38.319c21.172,14.584,44.925,22.221,69.773,26.872c16.496,3.087,33.243,4.443,49.997,5.747
		c18.822,1.465,37.66,1.296,56.421,0.528c22.573-0.924,45.03-3.982,67.255-8.241c17.392-3.332,33.734-9.791,50.011-16.675
		c11.085-4.688,20.926-11.105,29.698-18.904c5.508-4.897,11.783-9.187,16.149-15.335c1.564-2.203,3.738-2.626,6.146-2.552
		c3.399,0.105,6.688-0.061,9.31-2.667c0.34-0.338,1.005-0.831,1.251-0.71c4.695,2.318,8.111-0.484,11.971-2.506
		c3.401-1.781,5.146,0.363,5.491,3.844c0.141,1.425-0.179,3.24,1.78,3.701c1.917,0.451,3.311-0.824,4.154-2.216
		c4.67-7.717,10.883-14.761,10.308-24.761c-0.148-2.572,0.561-5.357,1.507-7.799c3.11-8.03,2.982-16.44,3.344-24.799
		c0.286-6.617,0.823-13.258,0.508-19.853c-0.211-4.41-1.572-8.796-2.692-13.121c-0.968-3.741-1.158-7.384-0.07-12.175
		c3.435,5.022,3.854,10.117,4.653,14.717c6.869,39.588,0.59,76.785-23.049,109.78c-15.804,22.06-36.27,39.52-60.732,51.425
		c-14.727,7.168-30.138,12.827-46.25,16.888c-17.313,4.364-34.734,7.57-52.369,9.747c-8.726,1.077-17.43,2.365-26.282,2.756
		c-18.148,0.802-36.311,1.439-54.432,0.657c-36.473-1.574-72.747-5.088-107.547-17.141c-21.016-7.279-41.063-16.88-58.634-30.59
		c-19.122-14.921-36.005-32.083-46.123-54.752c-11.455-25.665-15.429-52.236-11.62-80.295c1.835-13.515,4.267-26.592,10.415-38.742
		c3.571-7.057,6.22-14.742,12.214-20.374L33.707,112.088z"/>
	<path fill="#D6D8DC" d="M420.614,61.256c-7.241-1.068-12.814-5.999-19.518-8.404c-9.048-3.246-18.074-6.4-27.3-9.19
		c-14.527-4.392-29.416-6.456-44.223-8.93c-13.07-2.183-26.32-3.315-39.643-3.835c-16.3-0.636-32.591-1.062-48.885-0.77
		c-34.493,0.618-68.719,3.968-102.101,12.999c-30.908,8.361-59.019,22.295-82.502,44.586c-1.094,1.038-2.148,2.105-3.724,2.372
		l0.04,0.041c2.856-6.625,9.021-10.117,14.217-14.312c22.489-18.159,48.311-29.548,76.117-36.986
		c26.142-6.992,52.769-10.089,79.677-11.975c18.978-1.331,37.964-1.339,56.876-0.561c30.574,1.258,60.995,4.694,90.606,12.941
		c16.694,4.65,32.662,11.301,47.921,19.569c0.997,0.54,1.812,1.418,2.71,2.141C420.878,60.944,420.614,61.256,420.614,61.256z"/>
	<path fill="#D6D8DC" d="M472.696,106.143c-4.1-0.517-4.138-4.715-6.149-7.131c2.994,1.509,5.01,3.917,6.215,7.073L472.696,106.143z
		"/>
	<path fill="#D6D8DC" d="M48.778,93.865c-0.503,2.329-1.9,3.808-4.645,4.965C44.92,95.875,46.63,94.678,48.778,93.865z"/>
	<path fill="#D6D8DC" d="M452.75,84.082c0.697-0.009,1.393-0.018,2.09-0.027l-0.084,0.005c0.341,0.341,0.682,0.683,1.023,1.024
		l-0.024-0.024c0.341,0.341,0.683,0.683,1.024,1.024l-0.024-0.024c0.341,0.343,0.683,0.685,1.024,1.028l-0.028-0.028
		c0.343,0.343,0.685,0.686,1.028,1.029l-0.006-0.079c-0.018,0.702-0.035,1.403-0.053,2.105l0.021-0.021
		c-2.945-1.046-4.946-3.046-6.032-5.97C452.708,84.125,452.75,84.082,452.75,84.082z"/>
	<path fill="#D6D8DC" d="M33.754,112.133c0.556-2.35,1.334-4.533,4.652-5.866c-1.151,2.985-2.402,4.807-4.698,5.821
		C33.707,112.088,33.754,112.133,33.754,112.133z"/>
	<path fill="#D6D8DC" d="M427.615,65.23c-2.926-0.283-5.219-1.677-6.999-3.976c-0.001,0.002,0.263-0.31,0.265-0.312
		c2.867,0.415,5.071,1.965,6.959,4.057L427.615,65.23z"/>
	<path fill="#D6D8DC" d="M448.755,78.01c-0.312,0.848,0.216,2.282-1.192,2.341c-0.643,0.027-1.525-0.663-1.94-1.272
		c-0.853-1.25,0.158-1.694,1.175-2.008l-0.067-0.012c0.687,0.346,1.373,0.692,2.06,1.037L448.755,78.01z"/>
	<path fill="#D6D8DC" d="M441.777,73.067c0.507,0.965,1.013,1.929,1.601,3.047c-3.106-0.974-3.106-0.974-1.577-3.044L441.777,73.067
		z"/>
	<path fill="#D6D8DC" d="M475.746,110.092c-2.781,0.045-2.964-1.915-3.05-3.95c-0.001,0.001,0.066-0.057,0.066-0.057
		c1.587,0.903,2.696,2.156,2.956,4.031C475.719,110.116,475.746,110.092,475.746,110.092z"/>
	<path fill="#D6D8DC" d="M479.714,116.126c1.871,1.14,2.591,2.971,2.998,4.991l0.043-0.036c-2.555-0.727-2.778-2.859-3.005-4.989
		L479.714,116.126z"/>
	<path fill="#D6D8DC" d="M479.751,116.091c-1.73-0.293-1.956-1.586-1.996-3.003l-0.043,0.042c1.226,0.625,1.846,1.656,2.004,2.995
		C479.714,116.126,479.751,116.091,479.751,116.091z"/>
	<path fill="#D6D8DC" d="M477.755,113.088c-1.686-0.317-1.966-1.577-2.008-2.996c0,0-0.027,0.024-0.028,0.024
		c1.224,0.634,1.859,1.659,1.993,3.014L477.755,113.088z"/>
	<path fill="#D6D8DC" d="M430.786,67.035c1.35,0.157,2.355,0.822,2.986,2.034l-0.076,0.077c-1.42-0.022-2.602-0.414-3.036-1.963
		C430.661,67.182,430.786,67.035,430.786,67.035z"/>
	<path fill="#D6D8DC" d="M427.839,64.999c1.296,0.225,2.295,0.88,2.946,2.038c0.001-0.001-0.124,0.146-0.125,0.147
		c-1.395-0.061-2.546-0.501-3.043-1.956C427.615,65.23,427.839,64.999,427.839,64.999z"/>
	<path fill="#D6D8DC" d="M438.197,72.119c-0.087,0.121-0.173,0.24-0.259,0.36c-0.202-0.173-0.415-0.336-0.592-0.532
		c-0.02-0.022,0.159-0.225,0.245-0.344C437.794,71.774,437.996,71.946,438.197,72.119z"/>
	<path fill="#D6D8DC" d="M433.772,69.069c0.588,0.151,1.269,0.194,1.328,1.013c0.007,0.102-0.191,0.315-0.291,0.314
		c-0.805-0.014-0.952-0.644-1.113-1.25C433.695,69.147,433.772,69.069,433.772,69.069z"/>
	<path fill="#D6D8DC" d="M39.754,104.122c0.221-0.414,0.442-0.828,0.662-1.242c0.172,0.167,0.343,0.333,0.515,0.5
		c-0.405,0.235-0.809,0.471-1.214,0.706L39.754,104.122z"/>
	<path fill="#D6D8DC" d="M483.747,123.083c-0.33-0.668-0.661-1.335-0.991-2.003l-0.043,0.036c0.332,0.668,0.664,1.337,0.995,2.006
		L483.747,123.083z"/>
	<polygon fill="#D6D8DC" points="483.708,123.122 483.909,123.293 483.747,123.083 	"/>
	<polygon fill="#D6D8DC" points="39.717,104.085 39.526,104.315 39.754,104.122 	"/>
	<path fill="#D6D8DC" d="M464.737,96.103c-0.335-0.332-0.669-0.665-1.004-0.997l-0.002,0.002c0.333,0.334,0.665,0.669,0.998,1.003
		C464.729,96.112,464.737,96.103,464.737,96.103z"/>
	<path fill="#D6D8DC" d="M462.723,94.12c0.336,0.329,0.672,0.659,1.008,0.988l0.002-0.002c-0.33-0.336-0.659-0.672-0.989-1.007
		L462.723,94.12z"/>
	<path fill="#D6D8DC" d="M461.724,93.118c0.333,0.334,0.666,0.668,0.999,1.002l0.021-0.021c-0.334-0.333-0.668-0.666-1.002-0.999
		L461.724,93.118z"/>
	<path fill="#D6D8DC" d="M460.724,92.118c0.333,0.333,0.667,0.666,1,1l0.018-0.018c-0.333-0.333-0.667-0.667-1-1L460.724,92.118z"/>
	<path fill="#D6D8DC" d="M459.724,91.119c0.334,0.333,0.667,0.666,1.001,0.999l0.018-0.018c-0.333-0.334-0.666-0.667-0.999-1.001
		C459.743,91.099,459.724,91.119,459.724,91.119z"/>
	<path fill="#D6D8DC" d="M458.719,90.116c0.335,0.334,0.67,0.669,1.005,1.003c0,0,0.019-0.02,0.02-0.02
		c-0.334-0.335-0.669-0.669-1.003-1.004C458.74,90.095,458.719,90.116,458.719,90.116z"/>
	<polygon fill="#D6D8DC" points="52.716,90.083 52.517,90.3 52.757,90.124 	"/>
	<polygon fill="#D6D8DC" points="450.721,82.121 450.466,81.869 450.744,82.098 	"/>
	<path fill="#D6D8DC" d="M451.77,83.056c0.326,0.342,0.653,0.684,0.979,1.026c0,0-0.042,0.042-0.042,0.043
		c-0.344-0.324-0.688-0.649-1.032-0.975C451.677,83.15,451.77,83.056,451.77,83.056z"/>
	<path fill="#D6D8DC" d="M450.744,82.098c0.342,0.32,0.683,0.64,1.025,0.959c0.001-0.001-0.093,0.093-0.094,0.093
		c-0.319-0.343-0.637-0.686-0.954-1.029C450.721,82.121,450.744,82.098,450.744,82.098z"/>
	<path fill="#B1B6BC" d="M448.791,78.097c-0.687-0.346-1.373-0.692-2.06-1.037C447.661,76.922,448.271,77.421,448.791,78.097z"/>
	<path fill="#B1B6BC" d="M458.779,88.09c-0.343-0.343-0.685-0.686-1.028-1.029C458.425,87.072,458.768,87.415,458.779,88.09z"/>
	<path fill="#B1B6BC" d="M457.779,87.088c-0.341-0.343-0.683-0.685-1.024-1.028C457.447,86.053,457.77,86.414,457.779,87.088z"/>
	<path fill="#B1B6BC" d="M456.779,86.085c-0.341-0.341-0.683-0.683-1.024-1.024C456.448,85.05,456.789,85.392,456.779,86.085z"/>
	<path fill="#B1B6BC" d="M455.779,85.084c-0.341-0.341-0.682-0.683-1.023-1.024C455.454,84.045,455.79,84.391,455.779,85.084z"/>
</g>
</svg>
