<?xml version="1.0" encoding="utf-8"?>
<!-- Generator: Adobe Illustrator 17.0.0, SVG Export Plug-In . SVG Version: 6.00 Build 0)  -->
<!DOCTYPE svg PUBLIC "-//W3C//DTD SVG 1.1//EN" "http://www.w3.org/Graphics/SVG/1.1/DTD/svg11.dtd">
<svg version="1.1" id="Layer_1" xmlns="http://www.w3.org/2000/svg" xmlns:xlink="http://www.w3.org/1999/xlink" x="0px" y="0px"
	 width="324.299px" height="522.591px" viewBox="0 0 324.299 522.591" enable-background="new 0 0 324.299 522.591"
	 xml:space="preserve">
<g id="Layer_1_1_">
	<g id="Layer_19">
		<path fill="#4F1B3C" d="M253.368,0c0,0,46.681,4.947,46.681,72.473c0,0-25.934-11.675-41.842,28.926s0,0,0,0l-17.158,0.435
			l-8.75-89.334l4.743-9.231L253.368,0"/>
		<path fill="#3A102C" d="M243.969,3.75c0,0,27.08-11.434,46.58,26.658c0,0-23.29-35.658-46.58-19.158L243.969,3.75"/>
		<path fill="#3A102C" d="M256.725,45.02l-3.124-27.544c0,0,34.407,4.024,40.199,31.524C293.799,49,271.401,31.041,256.725,45.02z"
			/>
		<path fill="#957889" d="M258.799,19.833c0,0,21.25,3.5,33.167,25.25c0,0-17.5-23.667-32.761-23.378L258.799,19.833z"/>
		<path fill="#230018" d="M254.741,27.535l1.983,17.486c0,0,8.342-7.602,20.208-4.436c0,0-10.848-5.24-16.866-1.912L254.741,27.535z
			"/>
		<path fill="#4F1B3C" d="M300.049,72.473c0,0,22.25,13.693,24.25,67.36l-7.942,292.848L242.382,516.5l-20.283-4.333
			l-11.724-252.053l9.049-132.517L227.248,99l38.589-26.527l22.17-18.965l9.792,18.965"/>
		<path fill="#230018" d="M317.072,254.444c0,0,7.304-121.887,5.945-130.457l-1.737,127.161l-2.52,2.53"/>
		<path fill="#230018" d="M265.299,266.424c0,0-0.513-89.273,4.199-97.502c0,0-4.978,93.312,25.272,86.938L265.299,266.424z"/>
	</g>
	<g id="Layer_18">
		<path fill="#3A102C" d="M227.033,13h6.743c0,0,8.422,46.5,5.339,55.5l14.252-0.5v33l-20.627,2.333L223.981,13"/>
		<path fill="#3A102C" d="M306.411,253.5l-46.344,22.224c0,0-2.3-115.918,13.633-151.738c0,0-11.488,110.558-5.522,137.267
			l29.604-6.004l3.977-0.807L306.411,253.5z"/>
		<path fill="#3A102C" d="M309.032,433.636l2.174-116.886l-1.661-51.417l-54.389,29.078
			C255.156,294.411,301.772,295.377,309.032,433.636"/>
		<path fill="#3A102C" d="M248.049,350.523c0,0,28.717,122.171,59.51,84.204l-1.51,5.273l-58.218,65L248.049,350.523"/>
	</g>
	<g id="Layer_17">
		<path fill="#230018" d="M20.48,109.858c0,0,0.562-68.432-20.181-74.691c-5-1.509,54.343-4.238,54.343-4.238l8.657,71.904
			L20.48,109.858"/>
		<path fill="#4F1B3C" d="M0,33.658c0,0,4.799-5.325,18.799-10.491L253.368,0c0,0-18.569,6-21.069,12.5
			C232.299,12.5,8.201,41.316,0,33.658z"/>
	</g>
	<g id="Layer_14">
		<path fill="#230018" d="M37.361,96.059c0,0,5.502-4.307-6.815-25.559l204.753-9.333l1.743,31.126L37.361,96.059z"/>
		<polyline fill="#4F1B3C" points="39.267,92.647 183.378,92.051 47.331,90.39 49.254,86.833 		"/>
		<polyline fill="#3A102C" points="219.195,270.639 198.651,301.401 199.945,305.51 222.098,298.531 		"/>
	</g>
	<g id="Layer_11">
		<path fill="#3A102C" d="M216.754,279.907L9.087,252.44c0,0-20.333-144.94,27.5-152.94c0,0,6.333-7,0-7c0,0,12.667-0.5,12.667-9.5
			v9c0,0-7,2.5,2.5,2l160.059-2c0,0,17.441,1.5,4.941-4l10-0.5l7.5,0.5c0,0,3.815,9.5,7.815,11s-31.878,19.5-23.315,178.724"/>
		<polyline fill="#230018" points="218.799,275.724 9.132,250.44 5.397,199.75 21.549,230.5 63.549,242.61 55.549,246.75 
			218.799,275.724 		"/>
	</g>
	<g id="Layer_12">
		<path fill="#4F1B3C" d="M36.632,102.833c0,0-25.667,24.667-20,64.667l178.333,12.667c0,0,0.003-71.333,19.335-77.333
			L36.632,102.833L36.632,102.833z"/>
	</g>
	<g id="Layer_13">
		<path fill="#3A102C" d="M29.957,158.5c0,0-2.667-32,13.333-44.667l156-2.667c0,0-14.667,19.333-14,57.333L29.957,158.5z"/>
		
			<ellipse transform="matrix(0.9999 0.0141 -0.0141 0.9999 2.4721 -2.6108)" fill="#28001D" cx="186.393" cy="174.01" rx="3" ry="2.833"/>
		<path fill="#624457" d="M184.621,171.729c0,0-0.931,3.758,1.717,5.129"/>
		
			<ellipse transform="matrix(0.9999 0.0141 -0.0141 0.9999 2.3929 -1.3544)" fill="#28001D" cx="97.249" cy="169.027" rx="3" ry="2.833"/>
		<path fill="#624457" d="M97.194,171.87c0,0-4.732-0.941-1.717-5.129C95.478,166.741,94.547,170.499,97.194,171.87z"/>
		
			<ellipse transform="matrix(0.9999 0.0141 -0.0141 0.9999 1.5288 -2.8203)" fill="#28001D" cx="200.774" cy="107.01" rx="3" ry="2.833"/>
		<path fill="#624457" d="M200.722,109.858c0,0-4.732-0.942-1.717-5.129C199.005,104.729,198.074,108.487,200.722,109.858z"/>
		
			<ellipse transform="matrix(0.9999 0.0141 -0.0141 0.9999 1.5251 -1.6028)" fill="#28001D" cx="114.433" cy="107.359" rx="3" ry="2.833"/>
		<path fill="#624457" d="M114.381,110.204c0,0-4.732-0.941-1.717-5.129C112.665,105.075,111.734,108.833,114.381,110.204z"/>
		
			<ellipse transform="matrix(0.9999 0.0141 -0.0141 0.9999 2.2926 -0.3231)" fill="#28001D" cx="24.063" cy="162.424" rx="3" ry="2.833"/>
		<path fill="#624457" d="M24.009,165.264c0,0-4.732-0.941-1.717-5.129C22.292,160.135,21.361,163.893,24.009,165.264z"/>
		
			<ellipse transform="matrix(0.9999 0.0141 -0.0141 0.9999 1.5179 -0.5734)" fill="#28001D" cx="41.425" cy="107.362" rx="3" ry="2.833"/>
		<path fill="#624457" d="M41.373,110.204c0,0-4.732-0.941-1.717-5.129C39.656,105.075,38.725,108.833,41.373,110.204z"/>
		<path fill="#230018" d="M131.538,175.661L16.632,167.5c0,0-6.095-29.535,14.161-57.642c0,0-25.244,22.753-20.494,59.448
			l-0.595,2.565L131.538,175.661z"/>
		<path fill="#957889" d="M194.966,180.167c0,0,2.233-68.972,13.616-75.163c11.384-6.191,1.654,2.833,1.654,2.833
			S201.966,116.5,194.966,180.167z"/>
		<path fill="#957889" d="M43.29,113.833c0,0-10.872,8.167-12.744,27.667c0,0,5.841-25.021,14.336-25.167
			c8.495-0.145,6.58-2.64,6.58-2.64L43.29,113.833z"/>
		<path fill="#4F1B3C" d="M41.877,92.165c0,0-3.942-12.627-6.328-16.915s8.864-3,8.864-3L218.799,65L44.413,78.582L49.255,83v9
			L41.877,92.165"/>
	</g>
	<g id="Layer_8">
		<path fill="#4F1B3C" d="M3.834,262.222c0,0,1.378-9.255,12.345-11.782l195.352,25.372l7.267-0.088c0,0-10.936,10.874-8.283,16.971
			l-1.94,4.835L5.732,267.159l-4.333,0.057L3.834,262.222z"/>
	</g>
	<g id="Layer_10">
		<path fill="#3A102C" d="M4.768,259.758c0,0,8.697-2.008,10.406-2.008l59.5,4.75l-61.103-9.31L47.799,257l-32.5-4.56l36.917,4.394
			l112.937,12.955L9.133,250.44h6.166C15.299,250.44,5.404,253.349,4.768,259.758"/>
	</g>
	<g id="Layer_9">
		<path fill="#28001D" d="M216.132,293.124c0,0-202.167-26.722-212.667-34.055l6.834,188.505l200.667,72.358L216.132,293.124z"/>
	</g>
	<g id="Layer_6">
		<polyline fill="#4F1B3C" points="204.836,513.613 13.695,444.799 7.029,268.966 7.029,265.387 210.236,296.995 210.236,512.132 
			204.836,513.613 		"/>
	</g>
	<g id="Layer_5">
		<polygon fill="#230018" points="207.966,501.833 209.632,516.5 198.632,508.167 20.632,444.833 9.632,446.167 14.966,434.167 
			9.299,272.833 3.299,262.5 14.632,268.5 200.299,298.167 213.966,294.5 209.632,304.32 		"/>
	</g>
	<g id="Layer_4">
		<polygon fill="#3A102C" points="206.299,508.167 16.966,441.515 10.966,270.167 206.299,301.5 		"/>
	</g>
	<g id="Layer_2">
		<polyline fill="#4F1B3C" points="186.299,476.5 182.092,475.125 33.299,426.5 33.299,294.5 186.299,321.5 		"/>
		<polygon fill="none" stroke="#230018" stroke-width="7" stroke-miterlimit="10" points="186.299,476.5 33.299,428.382 
			33.299,294.5 186.299,320.147 		"/>
	</g>
	<g id="Layer_3">
		<path fill="#957889" d="M152.966,462.5l-116.333-37v-88.333c0,0,2.249,9.511,2.333,85.333
			C38.966,422.5,113.966,445.167,152.966,462.5z"/>
		<ellipse fill="#3A102C" cx="168.799" cy="404.661" rx="3.833" ry="3.856"/>
		<ellipse fill="#3A102C" cx="48.132" cy="372.139" rx="3.167" ry="3"/>
		<ellipse fill="#3A102C" cx="91.882" cy="353.139" rx="2.917" ry="3"/>
		<ellipse fill="#3A102C" cx="117.299" cy="358.972" rx="3" ry="2.833"/>
		<path fill="#957889" d="M117.299,361.805c0,0-4.745-0.874-1.789-5.104C115.51,356.702,114.632,360.472,117.299,361.805z"/>
		<path fill="#957889" d="M91.882,356.139c0,0-4.769-1.731-1.426-5.615C90.456,350.523,89.632,353.972,91.882,356.139z"/>
		<path fill="#957889" d="M45.814,370.109c0,0-2.515,4.697,3.152,5.03C48.966,375.139,45.162,374.245,45.814,370.109z"/>
		<path fill="#957889" d="M170.466,408.517c0,0-6.872,0.765-5.019-5.723C165.446,402.794,165.299,408.062,170.466,408.517z"/>
		<polygon fill="#957889" points="91.882,304.32 187.299,319.167 186.299,392.5 185.299,321.167 		"/>
		<polygon fill="#4F1B3C" points="89.216,441.515 36.632,424.682 36.632,423.849 		"/>
		<ellipse fill="#28001D" cx="116.507" cy="294.972" rx="3" ry="2.833"/>
		<path fill="#624457" d="M116.507,297.805c0,0-4.745-0.874-1.789-5.104C114.718,292.702,113.841,296.472,116.507,297.805z"/>
		<ellipse fill="#28001D" cx="91.882" cy="290.722" rx="3" ry="2.833"/>
		<ellipse fill="#28001D" cx="105.016" cy="325.008" rx="10.604" ry="9.97"/>
		<path fill="#624457" d="M91.882,293.555c0,0-4.745-0.874-1.789-5.104C90.093,288.452,89.216,292.222,91.882,293.555z"/>
		<ellipse fill="#724B63" cx="105.016" cy="325.008" rx="9.75" ry="9.167"/>
		<ellipse fill="#3A102C" cx="105.264" cy="324.833" rx="7.835" ry="6.992"/>
		<path fill="#28001D" d="M104.11,331.826c0,0-9.17-0.656-6.022-10.018l2.682,1.012C100.769,322.82,96.109,327.457,104.11,331.826z"
			/>
	</g>
	<g id="Layer_7">
		<path fill="#4F1B3C" d="M220.727,296.67l-0.671,219.606l0.671,2.56c0,0-9.671,4.773-12.337-2.56c-2.667-7.333,0-218.766,0-218.766
			L220.727,296.67z"/>
		<ellipse fill="#230018" cx="212.966" cy="296.667" rx="7.667" ry="2.167"/>
		<path fill="#4F1B3C" d="M1.632,264.462l7.667,177.053l-2.27,5.318c0,0,6.341,2.469,9.604,1.333l-2.936-183.705H1.632V264.462z"/>
		<ellipse fill="#230018" cx="7.664" cy="264.462" rx="6.032" ry="1.962"/>
		<path fill="#724B63" d="M216.292,298.616c0,0-1.344,0.293-3.327,0.217v213.333l3.327-203l3.007-0.166l-3.167-1.333l3.167-0.5
			L216.132,306v-4.833l4.5-4.5C220.632,296.667,218.452,298.566,216.292,298.616z"/>
		<path fill="#724B63" d="M9.356,266.412c0,0-3.241-0.169-5.223-0.245l4.782,82.243l0.442-71.448l3.277-4.795L9.134,274l3.667-5.333
			L7.664,271.5l-3.24,1.125l9.272-8.163C13.696,264.462,11.516,266.362,9.356,266.412z"/>
		<path fill="#957889" d="M214.301,298.25c0,0-12.5-0.719-6.5-2.583c7.652-2.377,3.683,0.284,1.75,0.5
			C206.051,296.557,208.801,297.083,214.301,298.25z"/>
		<path fill="#957889" d="M7.664,265.938c0,0-9.811-0.514-3.78-2.276c1.821-0.532,3.683,0.284,1.75,0.5
			C2.134,264.551,2.164,264.771,7.664,265.938z"/>
		<polygon fill="#957889" points="38.61,92.165 237.042,92.293 37.361,96.059 		"/>
	</g>
	<g id="Layer_15">
		<path fill="#4F1B3C" d="M32.29,70.167c0,0,5.647-3.333,7.866-9.333l194.553-12.667l0,0l0.59,12.667L32.29,70.167z"/>
		<path fill="#230018" d="M32.29,70.167c0,0,4.903-2.333,6.123-11l114.242-5.658L45.966,61.838L32.29,70.167z"/>
		<path fill="#3A102C" d="M38.413,59.167c0,0-3.947-22.667-11.364-22.667l200.583-18.667c0,0,5.479-0.666,7.077,30.333
			C234.709,48.167,41.526,61.833,38.413,59.167z"/>
		<path fill="#4F1B3C" d="M45.528,55.512c0,0,1.079-15.21-6.113-14.791l182.884-17.554c0,0,9.635,12.282,2.018,18.822L45.528,55.512
			z"/>
		<path fill="#230018" d="M173.335,35.333c-0.087-1.009-0.976-1.756-1.984-1.669L82.35,41.36c-1.009,0.087-1.756,0.976-1.669,1.984
			l0,0c0.087,1.009,0.976,1.756,1.984,1.669l89.001-7.696C172.675,37.231,173.422,36.342,173.335,35.333L173.335,35.333z"/>
		<path fill="#957889" d="M81.078,42.046c0,0-0.785,2.32,1.221,2.975l43.083-3.583l-42.417,2.833
			C82.966,44.27,80.411,43.796,81.078,42.046z"/>
		<path fill="#230018" d="M235.299,61.167c0,0,4.333-46.667-5-48.667L28.632,33.658l1.914,4.604l197.086-20.429
			C227.632,17.833,232.969,37.43,235.299,61.167z"/>
		<path fill="#230018" d="M220.049,293.375c0,0,33.319,3.978,30.75-7.18l64.667-31.695c0,0,3.583,0.856,5.75-4.06l-0.5,10.727
			c0,0-3.264,2.084-6.056,0.108l-60.527,29.447l-0.708,7.528c0,0-11.952,4.134-23.625,2.25l-2,33.674l5,0.803l-6.667,2.189
			L220.727,467.5L220.049,293.375z"/>
		<path fill="#230018" d="M220.727,472.833l3.572,32.667l2.333-5.667l2,8.333l7.333,4c0,0,6.667,2.667,7.667-4
			c1-6.667,2.417-53.917,2.417-53.917l1.917,48.583l59.593-68.106l0.513-13.226c0,0,5.935,15.667,7.602-5.667l0.625,20
			c0,0-1.147,5.234-7,4.333l-61,68c0,0,2.239,17.33-12.667,14l-15.576-5.89L220.727,472.833z"/>
	</g>
	<g id="Layer_16">
		<polyline fill="#230018" points="251.445,297.959 247.831,392.5 253.368,297.353 250.297,296.67 		"/>
		<path fill="#230018" d="M306.411,264.632c0,0,4.727-2.545,4.977,8.205l-1.25,59.25l2.917-70.833L306.411,264.632z"/>
		<path fill="#3A102C" d="M261.299,133.5c0,0,8-35.277,26-39.388c0,0,13.69-5.278,24.095,17.055c0,0,3.239,10.027,3.322,16.43
			l-10.917-20.572C303.799,107.025,286.299,77.5,261.299,133.5z"/>
		<path fill="#3A102C" d="M253.368,99c0,0,20.77-27.43,46.681-26.527C300.049,72.473,271.437,57,253.368,99z"/>
		<path fill="#3A102C" d="M239.116,68.5c0,0,3.683-8.667,9.933-10.333h25.285c0,0-21.788,0.394-20.965,9.833
			C253.889,73.977,239.116,68.5,239.116,68.5z"/>
		<polygon fill="#3A102C" points="308.072,258.124 311.394,180.167 311.394,254.5 		"/>
		<polygon fill="#230018" points="251.121,292.295 252.974,210 255.089,284.092 		"/>
		<path fill="#957889" d="M293.799,65c0,0-29-9.275-32.5,3.362S259.799,60,293.799,65z"/>
		<path fill="#957889" d="M309.689,266.424c0,0-0.022,29.151,0.044,58.09l2.409-62.013l-58.009,28.221l-1.028,11.15"/>
		<path fill="#957889" d="M238.298,300.946c0,0,8.501,0.669,8.501,20.861h-8.501l8.501,1.526l-8.501,0.833l8.501,1l1.032,179.833
			l3.378-205.547C249.049,298.833,241.548,302.057,238.298,300.946z"/>
		<path fill="#957889" d="M309.733,424c0,0,6.066-3,6.566-51.75c0,0,0.761,52.664-3.244,54.457
			C309.049,428.5,309.733,424,309.733,424z"/>
		<path fill="#957889" d="M249.371,176.858c0,0-3.543-72.298,12.745-90.525s24.183-15.886,35.683-13.86
			c0,0,10.368,5.193,11.934,14.36c0,0-18.387-16.638-26.596-8.251C283.137,78.582,260.357,70.039,249.371,176.858z"/>
		<path fill="#3A102C" d="M249.799,58.167c0,0-8.03-53.499-5.244-54.708C247.34,2.25,234.549,7,232.299,12.5
			c0,0,9.694,46.539,6.817,56C236.24,77.961,249.799,58.167,249.799,58.167z"/>
		<path fill="#230018" d="M248.977,58.167l-7.928,10.266c0,0,7.784-10.21,11.497-9.872
			C256.259,58.899,248.977,58.167,248.977,58.167"/>
		<path fill="#230018" d="M241.675,67.67c0,0,10.284-0.159,10.986,14.568s0-15,0-15L241.675,67.67"/>
		<path fill="#230018" d="M220.049,293.375c0,0-14.98-178.543,16.993-201.082l15.932-0.128L253.368,99
			C253.368,99,224.299,119.25,220.049,293.375z"/>
		<path fill="#230018" d="M222.792,177.443c0,0,10.302,6.75,28.501,0c0,0-13.202,9.75-28.501,7.75L222.792,177.443L222.792,177.443z
			"/>
		<path fill="#230018" d="M221.048,185.464c0,0,10.302,6.75,28.501,0c0,0-13.202,9.75-28.501,7.75V185.464z"/>
		<path fill="#230018" d="M222.644,356.583c0,0,7.435,6.75,20.569,0c0,0-9.528,9.75-20.569,7.75V356.583z"/>
		<path fill="#230018" d="M221.385,364.603c0,0,7.435,6.75,20.569,0c0,0-9.528,9.75-20.569,7.75V364.603z"/>
		<path fill="#230018" d="M221.385,476.5c0,0,7.435,6.75,20.569,0c0,0-9.528,9.75-20.569,7.75V476.5z"/>
		<path fill="#230018" d="M220.458,262.414c0,0,10.302,6.75,28.501,0c0,0-13.202,9.75-28.501,7.75L220.458,262.414L220.458,262.414z
			"/>
		<path fill="#230018" d="M321.725,208.25c0,0-3.441,6.75-9.521,0c0,0,4.41,9.75,9.521,7.75V208.25z"/>
		<path fill="#230018" d="M321.725,201.98c0,0-3.441,6.75-9.521,0c0,0,4.41,9.75,9.521,7.75V201.98z"/>
		<path fill="#230018" d="M321.117,243.127c0,0-3.441,6.75-9.521,0c0,0,4.41,9.75,9.521,7.75V243.127z"/>
		<path fill="#230018" d="M310.566,313.831c0,0,3.131,6.75,8.662,0c0,0-4.012,9.75-8.662,7.75V313.831z"/>
		<path fill="#230018" d="M310.566,320.831c0,0,3.131,6.75,8.662,0c0,0-4.012,9.75-8.662,7.75V320.831z"/>
		<path fill="#230018" d="M312.634,262.414c0,0,3.131,6.75,8.662,0c0,0-4.012,9.75-8.662,7.75V262.414z"/>
	</g>
	<g id="Layer_20">
		
			<ellipse transform="matrix(0.9999 0.0141 -0.0141 0.9999 0.49 -3.0501)" fill="#28001D" cx="216.551" cy="33.222" rx="3" ry="2.833"/>
		<path fill="#624457" d="M216.503,36.071c0,0-4.732-0.941-1.717-5.129C214.787,30.942,213.856,34.7,216.503,36.071z"/>
		
			<ellipse transform="matrix(0.9999 0.0141 -0.0141 0.9999 0.6704 -0.7237)" fill="#28001D" cx="51.656" cy="47.182" rx="3" ry="2.833"/>
		<path fill="#624457" d="M51.607,50.024c0,0-4.732-0.942-1.717-5.129C49.89,44.896,48.959,48.653,51.607,50.024z"/>
		
			<ellipse transform="matrix(0.9999 0.0141 -0.0141 0.9999 1.1834 -3.4422)" fill="#28001D" cx="244.704" cy="82.204" rx="4.353" ry="4.111"/>
		<path fill="#624457" d="M244.634,86.332c0,0-6.866-1.366-2.491-7.442C242.143,78.89,240.792,84.343,244.634,86.332z"/>
		
			<ellipse transform="matrix(0.9999 0.0141 -0.0141 0.9999 1.5776 -4.0842)" fill="#28001D" cx="290.431" cy="109.838" rx="4.353" ry="4.111"/>
		<path fill="#624457" d="M290.359,113.969c0,0-6.866-1.366-2.491-7.442C287.868,106.526,286.518,111.979,290.359,113.969z"/>
		
			<ellipse transform="matrix(0.9999 0.0141 -0.0141 0.9999 5.8678 -0.6233)" fill="#28001D" cx="47.138" cy="415.825" rx="4.353" ry="4.111"/>
		<path fill="#624457" d="M47.054,419.944c0,0-6.866-1.366-2.491-7.442C44.563,412.502,43.212,417.955,47.054,419.944z"/>
		
			<ellipse transform="matrix(0.9999 0.0141 -0.0141 0.9999 6.5384 -2.4085)" fill="#28001D" cx="174.073" cy="462.486" rx="4.353" ry="4.111"/>
		<path fill="#624457" d="M173.987,466.611c0,0-6.866-1.366-2.491-7.442C171.496,459.169,170.145,464.622,173.987,466.611z"/>
		
			<ellipse transform="matrix(0.9999 0.0141 -0.0141 0.9999 5.6457 -1.4151)" fill="#28001D" cx="103.179" cy="399.68" rx="4.353" ry="4.111"/>
		<path fill="#624457" d="M103.096,403.801c0,0-6.866-1.366-2.491-7.442C100.605,396.358,99.254,401.811,103.096,403.801z"/>
	</g>
</g>
</svg>
