<svg xmlns="http://www.w3.org/2000/svg" width="210.1" height="30.292" viewBox="-89.904 89.904 210.1 30.292"><path fill="#C5A661" d="M107.856 111.924s-3.759-4.834-2.111 4.146c.696 3.792-6.437 6.923-6.824.137l.098-2.541s.154-3.034-4.02-3.244c-4.174-.211-144.204-1.873-144.204-1.873s-5.143.82-4.525 5.938c0 0 .187 5.63-3.71 5.501 0 0-3.71-.047-3.401-5.501 0 0 1.237-4.023-2.164-4.064-3.401-.042-17.315 0-17.315 0l-9.584-4.086 9.585-3.034h17.005s1.856 1.011 2.164-2.359c.309-3.371.463-7.417 2.629-7.754s4.483-.674 4.792 5.731c.215 4.457 2.008 3.695 4.791 4.371l140.844-1.336s5.874.757 6.184-3.203v-4.888s.426-3.961 3.247-3.961c2.164 0 3.827 2.065 3.827 4.425 0 2.359-1.541 5.891 2.691 3.57 1.669-.915-.153.114-.153.114l.154 13.911"/><ellipse fill="#C5A661" cx="112.312" cy="104.835" rx="7.884" ry="8.597"/><path fill="#E2D1AE" d="M118.584 106.635s-2.445 6.96-8.18 4.913c-5.734-2.047 0-2.268 0-2.268s5.088 2.246 8.18-2.645z"/><ellipse fill="#F1E8D6" cx="112.312" cy="104.835" rx="2.301" ry="2.509"/><path fill="#E2D1AE" d="M-87.009 106.422l6.419 2.692h18.783l-18.203-1.345zm184.711-2.838s-1.001 3.512.08 4.507l-147.226-1.669 147.146-2.838zm-152.88 12.112s-.633 5.343-4.052 1.837c0 0-.157-1.652 1.266-.322 1.422 1.33 2.786-1.515 2.786-1.515zm0-18.268s-.633-6.01-4.052-2.067c0 0-.157 1.859 1.266.362s2.786 1.705 2.786 1.705zm159.549 18.402s-.632 5.343-4.052 1.837c0 0-.157-1.652 1.266-.322 1.424 1.329 2.786-1.515 2.786-1.515zm-.699-21.633s-.633-5.343-4.052-1.836c0 0-.157 1.652 1.266.322 1.424-1.329 2.786 1.514 2.786 1.514z"/><path fill="#E2D1AE" d="M-85.64 106.996l4.824-2.702-6.193 2.128"/></svg>