<svg xmlns="http://www.w3.org/2000/svg" width="369.372" height="152.875" viewBox="121.463 320.666 369.372 152.875"><g fill="#213551"><path d="M291.523 354.437l1.552.099-1.552-.099zm-6.032-.385l4.118.263-4.118-.263zm8.206.524l.628.04-.628-.04zm-4.088-.261l1.914.122-1.914-.122zm3.466.221l.622.04-.622-.04zm1.44.092c.421.027.46.029 0 0zm10.087 89.941c15.245-.745 25.529-1.749 25.529-1.749 40.409-2.973 54.695-15.751 57.128-17.275s4.29-4.921 13.974-8.424c9.685-3.502 18.326 3.503 18.326 3.503l13.8 6.425 5.975-5.437 3.674-7.449 1.67-9.366-7.347-17.664s-6.345-8.33-20.371-3.818-29.7-2.083-29.7-2.083c-35.155-22.321-108.34-27.588-114.808-28.014l-.232-.015.217.014-.45-.029c-48.72-3.111-93.094 19.366-93.094 19.366s-21.081 16.314-28.256 18.396c-7.175 2.083-23.225 16.894-23.225 16.894l8.61 10.852s-20.703-11.5-7.274 3.032 20.705 16.314 20.705 16.314c12.698 3.853 21.718 2.196 21.718 2.196l55.812 2.58c25.092 3.196 54.44 2.811 75.403 1.854m-18.128-90.699l1.233.079-1.233-.079z"/><path d="M272.707 353.235l-.271-.017.015.001.256.016zm21.619 1.381l.19.012-.19-.012zm-18.982-1.212l.706.045-.706-.045zm-2.28-.146l.303.019-.303-.019zm.303.02l1.978.126-1.978-.126zm-.66-.043l.357.023-.357-.023zm3.886.249l2.442.156-2.442-.156zm4.861.31l1.195.076-1.195-.076zm-2.419-.154l2.419.154-2.419-.154zm3.614.23l1.608.103-1.608-.103zm-6.598-.421l.543.035a87.603 87.603 0 0 0-.543-.035z"/></g><path fill="#4F709E" d="M230.628 446.52c.583-2.104-.083-4.599-1.99-5.8 1.196-2.5.356-6.028-2.51-7.074-.645-1.669-2.13-2.979-4.461-2.979-1.529 0-2.69.566-3.494 1.423-1.243.056-2.062.627-2.062.627s-12 5.667-19.667 2.667c-7.667-3-5.667 1.667-5.667 1.667 5.615 9.358 18.514 18.925 23.402 22.347.162 2.361 1.767 4.603 4.82 4.603.514 0 .983-.07 1.415-.187.805.913 1.998 1.52 3.585 1.52 2.503 0 4.03-1.508 4.59-3.351 4.379-.191 5.601-5.099 3.685-7.96 1.6-2.353 1.05-6.133-1.646-7.503zm75.064 6.491c2.413-1.916 2.406-6.115-.011-8.025.675-2.851-.883-6.319-4.681-6.319-1.021 0-1.866.265-2.562.688a5.247 5.247 0 0 0-2.137.248c-1.886-.474-3.377-.225-3.377-.225-6.711 1.377-20.426 0-20.426 0 28.188 9.713-11.03 1.554-11.03 1.554s-9.805-9.713 14.707 16.318c5.764 6.121 10.301 9.718 13.88 11.655.54 1.879 2.075 3.43 4.613 3.43.243 0 .474-.019.699-.046.706.443 1.583.711 2.633.711 3.073 0 4.677-2.271 4.821-4.649 2.847-1.056 3.665-4.57 2.475-7.06 2.796-1.748 2.92-6.263.396-8.28zm81.628-80.607c2.381-2.823 1.164-8.404-3.654-8.404-2.624 0-4.18 1.656-4.668 3.619-.488-1.964-2.041-3.619-4.665-3.619-1.002 0-1.848.242-2.538.65-.644-1.672-2.128-2.983-4.462-2.983-.294 0-.569.027-.836.067.031-2.522-1.577-5.067-4.831-5.067-2.512 0-4.041 1.519-4.596 3.372-.363-2.14-1.93-4.038-4.738-4.038-1.283 0-2.307.4-3.079 1.034-.556-1.85-2.078-3.368-4.588-3.368-1.07 0-1.958.279-2.673.738-.782-1.211-2.108-2.072-3.994-2.072-.924 0-1.711.21-2.37.562l-.19-.06c-.319-2.194-1.908-4.169-4.773-4.169-1.483 0-2.62.532-3.421 1.346-.561-1.84-2.079-3.346-4.579-3.346-1.655 0-2.874.667-3.679 1.647-.572-1.219-1.622-2.196-3.154-2.526a4.284 4.284 0 0 0-.716-.517c-.264-2.083-1.664-3.993-4.21-4.243.914-2.913-.606-6.695-4.573-6.695-.147 0-.288.011-.428.021.817-2.613-.32-5.922-3.43-6.573.198-2.536-1.272-5.219-4.418-5.427-.805-1.005-2.043-1.687-3.724-1.687-.906 0-1.681.203-2.332.542-3.748.276-8.901 2.686-15.406 10.354 0 0-15.983 22.082-24.484 23.591 0 0 93.176 5.58 124.461 23.896 0 0 1.36-4.749 10.542-4.07 0 .001 4.458-.144.206-2.575zM175.111 427.05s-.333-4.667-4-4 0-1.333 0-1.333-3.667-38.667-12-30c0 0 18.196-13.333 31.432 6 0 0 2.568 7.186 1.568 9.426 0 0-8.333 12.574-17 19.907zm312.834-74.019c-.704-.435-1.573-.697-2.612-.697-.51 0-.976.069-1.405.184-3.362-.261-8.817 2.843-8.817 2.843l-59 28.398c16.333.342 15.667 20.529 15.667 20.529-2.245 20.736-11.277 16.764-12.218 16.337l33.885 15.885c14.466 7.702 22.695 11.004 27.146 11.872a5.237 5.237 0 0 0 1.743.285c.242 0 .472-.018.696-.045.833-.035 1.396-.236 1.75-.556 3.576-1.998 3.139-8.368-1.318-9.287a5.055 5.055 0 0 0-2.127-.445c-.341 0-.659.034-.964.086a31.208 31.208 0 0 0-.155-.232c2.519-2.782 1.339-8.521-3.547-8.521-.688 0-1.298.119-1.839.323a3.459 3.459 0 0 0-.051-.078c2.209-2.868.953-8.245-3.777-8.245-.468 0-.898.058-1.297.156a70.312 70.312 0 0 0-.173-.283c2.542-2.775 1.368-8.54-3.53-8.54-.47 0-.902.059-1.304.157l-.08-.147c1.902-2.819.735-7.666-3.502-7.988l-.004-.05c0-.092.008-.183.01-.275 1.928-.698 2.94-2.517 3.037-4.398 4.199-.356 5.353-5.173 3.45-7.979 3.796-.175 5.214-3.912 4.267-6.764.35.072.725.111 1.125.111 4.437 0 5.806-4.724 4.137-7.676.066.002.129.01.197.01 3.56 0 5.145-3.045 4.774-5.775 3.743-.757 4.666-5.349 2.772-8.002.349.072.722.11 1.121.11 3.579 0 5.166-3.077 4.771-5.816.324-2.189-.62-4.594-2.828-5.487zm-71.771 66.34l-.063-.029.063.029zM410.667 442c-.028 0-.052.007-.08.007-.014-.047-.04-.089-.056-.135 1.988-2.172 1.699-6.168-.867-7.807 3.304-1.094 4.025-5.422 2.154-7.925.091-1.114-.144-2.258-.699-3.211-.287-2.231-1.879-4.262-4.785-4.262-1.537 0-2.702.572-3.505 1.438-.781-.675-1.832-1.104-3.162-1.104-1.121 0-2.045.303-2.775.803a5.51 5.51 0 0 0-1.225-.136c-.738 0-1.387.136-1.956.368-.69-.401-.982-.745-.982-.745-2.767 5-26.284 16-26.284 16 4.496 6 31.471 15.667 31.471 15.667 9.239 2.415 12.868 2.025 14.082.879 5.077-1.28 4.636-9.837-1.331-9.837zm-270.223-35.284s13.34 11.566 17.667-2.093c0 0 1 21.52-17.667 2.093zm-2.834-5.355l-2.755 4.097c-.001 0 3.058 2.413 2.755-4.097zm-1.367 22.387s.618-8.159-4.257-14.017-18.625-5.733 0 8.767l4.257 5.25zm0 0s-8.132-5.5-11.257-9.5c0 0-13.112 1.125 11.257 9.5zm25.493 10s8.625-1.625 10.625-8.25c0 0 2.625 3.125 1.75 4.75 0 0-4 4.375-12.375 3.5zm29.606-20.625s-10.481 13.5-13.856 13.5v3.058s11.962-4.808 13.856-16.558zm33.796-4.63c2.776-1.939 2.703-6.733-.243-8.497 2.882-1.73 3.024-6.37.418-8.38 3.103-1.957 2.906-7.354-.589-8.876 3.71-2.02 3.182-8.69-1.611-9.349 1.167-2.95-.312-7.058-4.447-7.058-6.176 0-6.433 9.165-.78 9.942-.944 2.386-.155 5.527 2.368 6.642-3.028 1.658-3.203 6.417-.55 8.458-2.961 1.85-2.941 6.82.062 8.625-2.94 1.767-3.011 6.555-.237 8.493-1.829 1.272-2.409 3.78-1.765 5.854-4.462 1.753-3.831 9.653 1.903 9.653 3.963 0 5.487-3.776 4.578-6.688 3.566-1.411 3.866-6.751.893-8.819z"/><path fill="#213551" d="M223.485 391.497c2.8-1.963 2.68-6.839-.357-8.553 2.51-2.621 1.567-8.073-2.821-8.563 1.414-2.963-.019-7.382-4.307-7.382-6.229 0-6.44 9.328-.635 9.964-1.089 2.296-.48 5.457 1.849 6.764-2.024 2.113-1.815 6.066.649 7.779-2.651 1.852-2.705 6.307-.137 8.241-4.072.687-4.95 5.814-2.63 8.415-2.926 1.437-3.38 5.68-1.351 7.981-5.158 1.21-4.742 9.855 1.255 9.855 4.861 0 6.056-5.68 3.589-8.478 3.801-.892 4.564-5.813 2.309-8.345 3.221-1.573 3.44-6.53.683-8.589 4.486-.732 5.121-6.837 1.904-9.089z"/><path fill="#4F709E" d="M251 415c-4.474 0-5.841 4.812-4.107 7.76-4.242 1.907-3.54 9.574 2.107 9.574 4.474 0 5.841-4.812 4.107-7.76 4.242-1.908 3.539-9.574-2.107-9.574zm-14-11c-4.903 0-6.074 5.777-3.522 8.548-4.876 1.441-4.371 9.785 1.522 9.785 4.903 0 6.074-5.777 3.522-8.548 4.875-1.441 4.37-9.785-1.522-9.785zm12.487-24.377c1.093-2.942-.4-6.956-4.487-6.956-5.471 0-6.298 7.194-2.487 9.377-1.093 2.942.4 6.956 4.487 6.956 5.471 0 6.298-7.194 2.487-9.377zm-38.265 9.927c1.552-2.961.148-7.55-4.222-7.55-.021 0-.04.003-.06.003 1.571-2.331 1.054-6.044-1.573-7.443.621-2.834-.943-6.227-4.7-6.227-5.526 0-6.312 7.339-2.367 9.44-.621 2.834.943 6.227 4.7 6.227.016 0 .03-.004.047-.004-1.459 2.169-1.102 5.534 1.065 7.119-1.554 2.961-.149 7.552 4.221 7.552 5.27 0 6.231-6.675 2.889-9.117zm-1.555 20.117c-4.802 0-6.026 5.544-3.675 8.376-5.762.675-5.539 9.958.675 9.958 4.802 0 6.026-5.544 3.675-8.376 5.762-.676 5.539-9.958-.675-9.958zM256 396.333c-6.449 0-6.449 10 0 10s6.449-10 0-10zM268.333 376c-.108 0-.209.01-.314.015 3.154-2.496 2.193-8.896-2.886-9.009 1.129-2.946-.357-7.007-4.467-7.007-6.403 0-6.445 9.853-.134 9.993-1.128 2.948.358 7.008 4.468 7.008.108 0 .209-.01.313-.015-3.183 2.52-2.178 9.015 3.021 9.015 6.448 0 6.448-10-.001-10zm4 16c-6.449 0-6.449 10 0 10s6.449-10 0-10zm4.034 27.996c1.545-1.906 1.507-4.995-.133-6.829 2.494-2.79 1.306-8.5-3.568-8.5s-6.061 5.71-3.568 8.5c-1.848 2.068-1.669 5.734.529 7.497-1.64 2.021-1.482 5.371.457 7.146-5.166 1.204-4.752 9.857 1.249 9.857 5.07 0 6.152-6.18 3.249-8.822 4.075-.958 4.676-6.542 1.785-8.849zm27.028-4.315c2.717-2.715 1.588-8.681-3.395-8.681-5.178 0-6.194 6.442-3.058 8.984-1.403 1.4-1.786 3.663-1.139 5.531a5.704 5.704 0 0 0 .096 3.909C291.651 427.327 292.351 435 298 435c4.149 0 5.624-4.138 4.434-7.09 2.426-1.087 3.232-4.052 2.43-6.399.694-2.007.204-4.474-1.469-5.83zm-7.05-33.347c.684-2.854-.874-6.334-4.678-6.334-6.445 0-6.448 9.987-.011 9.999-.684 2.854.874 6.334 4.678 6.334 6.444 0 6.448-9.987.011-9.999zm18.762-8.807c3.475-2.373 2.553-9.194-2.774-9.194-5.924 0-6.402 8.434-1.441 9.806-3.475 2.373-2.553 9.194 2.774 9.194 5.925 0 6.402-8.434 1.441-9.806zm.226 12.14c-6.449 0-6.449 10 0 10s6.449-10 0-10zm6.814 28.833c3.428-2.398 2.493-9.167-2.814-9.167s-6.242 6.769-2.814 9.167c-2.278 1.593-2.617 5.108-1.04 7.293-2.977 2.612-1.917 8.874 3.188 8.874 4.668 0 5.955-5.239 3.864-8.132 2.3-2.031 2.173-6.247-.384-8.035zm18.186-9.167c-4.369 0-5.774 4.588-4.223 7.548-2.258 1.65-2.547 5.234-.871 7.384-2.354 1.305-2.982 4.493-1.871 6.799-1.391.879-2.132 2.435-2.195 4.038-3.01 2.598-1.959 8.897 3.161 8.897 3.125 0 4.731-2.349 4.827-4.77 1.739-1.501 2.114-4.233 1.14-6.276 2.487-1.559 2.863-5.321 1.132-7.549 2.406-1.334 3.002-4.642 1.79-6.956 3.341-2.441 2.379-9.115-2.89-9.115zM340 384.667c-6.449 0-6.449 10 0 10s6.449-10 0-10zm16.512.462c1.972-2.722.961-7.518-3.065-8.071 1.167-2.95-.312-7.058-4.447-7.058-6.176 0-6.433 9.165-.78 9.942-.929 2.349-.175 5.425 2.256 6.584-2.099 2.892-.815 8.141 3.857 8.141 5.614 0 6.339-7.575 2.179-9.538zm9.13 27.153c3.631-2.288 2.753-9.282-2.642-9.282-5.227 0-6.216 6.57-2.969 9.059-2.499 1.576-2.866 5.374-1.085 7.592-1.448 1.445-1.809 3.809-1.072 5.709a5.925 5.925 0 0 0-.541-.026c-6.449 0-6.449 10 0 10 4.119 0 5.603-4.079 4.459-7.026.175.016.355.026.541.026 4.768 0 6.007-5.464 3.723-8.314 2.054-2.046 1.915-5.943-.414-7.738zm16.396.614c2.57-1.689 2.812-5.766.708-7.892 2.397-2.417 1.764-7.382-1.898-8.457 2.985-2.609 1.927-8.88-3.181-8.88-5.895 0-6.398 8.352-1.514 9.787-2.123 1.855-2.19 5.552-.221 7.54-2.202 2.211-1.864 6.561 1.016 8.11-3.539 2.339-2.636 9.23 2.719 9.23 5.524-.001 6.311-7.334 2.371-9.438zm18.947-6.942c1.652-2.523.887-6.606-2.29-7.681 1.327-2.961-.126-7.273-4.361-7.273-5.825 0-6.387 8.157-1.689 9.735-.938 2.1-.486 4.873 1.371 6.31-1.916 2.926-.59 7.955 3.984 7.955 5.219 0 6.212-6.547 2.985-9.046zm18.326-2.339c1.593-2.435.947-6.321-1.958-7.556 2.773-2.694 1.657-8.726-3.352-8.726-5.684 0-6.355 7.765-2.019 9.608-2.092 2.032-1.967 5.961.369 7.77-1.917 2.925-.592 7.956 3.984 7.956 5.221 0 6.213-6.558 2.976-9.052z"/><path fill="#213551" d="M208.751 390.254c2.122-2.727 1.098-7.746-3.105-8.216 1.384-2.921.003-7.246-4.144-7.363.004-2.503-1.608-5.008-4.836-5.008-6.39 0-6.444 9.814-.17 9.992-.003 2.329 1.395 4.659 4.191 4.971-1.093 2.304-.46 5.472 1.885 6.772-2.232 2.862-.981 8.266 3.76 8.266 5.504-.001 6.307-7.278 2.419-9.414zm-.418 18.079c-4.995 0-6.118 5.996-3.375 8.701a5.73 5.73 0 0 0-.625-.035c-6.449 0-6.449 10 0 10 4.995 0 6.118-5.996 3.375-8.701.201.022.409.035.625.035 6.449 0 6.449-10 0-10zm37.447-28.941c1.167-2.95-.312-7.058-4.447-7.058-6.176 0-6.433 9.165-.78 9.942-1.167 2.95.312 7.058 4.447 7.058 6.176-.001 6.433-9.166.78-9.942zm-10.447 22.275c-6.449 0-6.449 10 0 10s6.449-10 0-10zm-2.666 10.666c-6.449 0-6.449 10 0 10 6.448 0 6.448-10 0-10zM254 397c-6.449 0-6.449 10 0 10s6.449-10 0-10zm-5.667 17.333c-4.903 0-6.074 5.777-3.522 8.548-4.876 1.441-4.371 9.785 1.522 9.785 4.903 0 6.074-5.777 3.522-8.548 4.876-1.44 4.371-9.785-1.522-9.785zm21.334-21.666c-6.449 0-6.449 10 0 10 6.448 0 6.448-10 0-10zm-6.664-25.625c.709-2.862-.847-6.375-4.67-6.375-6.216 0-6.438 9.289-.67 9.958-.709 2.862.847 6.375 4.67 6.375 6.217 0 6.438-9.289.67-9.958zm2.664 9.958c-6.449 0-6.449 10 0 10 6.448 0 6.448-10 0-10zm6.977 51.948c3.501-1.453 3.781-6.733.828-8.788 2.557-1.787 2.694-5.996.391-8.027 2.092-2.893.806-8.133-3.863-8.133-5.1 0-6.162 6.25-3.196 8.867-1.58 2.186-1.23 5.708 1.048 7.301-2.634 1.844-2.68 6.257-.156 8.206-4.388 1.806-3.733 9.626 1.971 9.626 5.222 0 6.214-6.558 2.977-9.052zm22.023-45.281c-.23 0-.45.016-.664.041.708-2.862-.848-6.374-4.67-6.374-6.449 0-6.449 10 0 10 .23 0 .45-.016.664-.041-.708 2.862.848 6.374 4.67 6.374 6.448 0 6.448-10 0-10zm6.392 31.683c2.72-2.713 1.592-8.684-3.392-8.684-5.177 0-6.194 6.441-3.059 8.983-1.406 1.403-1.775 3.672-1.123 5.54-1.915 1.367-2.443 4.108-1.587 6.234-4.247 1.906-3.546 9.577 2.102 9.577 4.151 0 5.626-4.142 4.432-7.095 2.441-1.095 3.25-4.091 2.421-6.445 2.56-1.841 2.635-6.14.206-8.11zm11.129-42.802c2.552-2.771 1.381-8.548-3.522-8.548-5.892 0-6.397 8.344-1.522 9.785-2.552 2.771-1.381 8.548 3.522 8.548 5.893 0 6.398-8.344 1.522-9.785zm.812 14.119c-6.449 0-6.449 10 0 10s6.449-10 0-10zm6.311 36.282c3.552-1.474 3.788-6.89.695-8.877 2.789-2.688 1.677-8.739-3.34-8.739-5.379 0-6.267 6.953-2.673 9.261-2.106 2.029-1.985 5.971.358 7.783-4.376 1.815-3.718 9.622 1.982 9.622 5.223.001 6.214-6.556 2.978-9.05zM337.333 386c-6.449 0-6.449 10 0 10s6.449-10 0-10zm18.45 1.763a4.34 4.34 0 0 0-1.553-1.274c2.915-2.637 1.846-8.822-3.23-8.822-.029 0-.055.004-.083.004.897-2.909-.627-6.671-4.583-6.671-6.449 0-6.449 10 0 10 .029 0 .055-.004.083-.004-.701 2.274.084 5.06 2.346 6.172-2.458 2.223-2.079 6.972 1.142 8.41.802 1.038 2.047 1.755 3.762 1.755 5.642 0 6.348-7.656 2.116-9.57zm-16.139 26.185c3.629-2.289 2.75-9.281-2.644-9.281-5.223 0-6.214 6.558-2.977 9.052-1.952 1.231-2.587 3.82-1.929 5.952-2.458 1.483-2.901 5.082-1.353 7.352-4.437 1.771-3.798 9.644 1.926 9.644 4.61 0 5.922-5.11 3.941-8.024 2.498-1.006 3.377-3.951 2.639-6.326 2.863-1.74 2.999-6.365.397-8.369zm21.4 5.951c2.33-1.534 2.744-5.034 1.228-7.259 3.674-2.263 2.807-9.307-2.606-9.307-4.612 0-5.924 5.113-3.939 8.027-3.044 1.875-2.961 7.021.233 8.734-1.802 1.181-2.454 3.536-1.967 5.573-6.442.007-6.44 10 .007 10 3.804 0 5.362-3.48 4.678-6.334 5.51-.011 6.297-7.327 2.366-9.434zm17.226-15.15c3.972-1.259 4.282-7.152.909-9.113 1.625-2.957.233-7.636-4.179-7.636-5.459 0-6.295 7.164-2.512 9.364-1.499 2.728-.424 6.914 3.216 7.546-3.168 1.017-3.974 4.99-2.446 7.542-3.512 2.354-2.6 9.214 2.743 9.214 4.492 0 5.851-4.849 4.086-7.794 3.28-2.212 2.677-8.368-1.817-9.123zm19.376 2.638c2.033-2.421 1.438-6.848-1.81-8.065 1.641-2.956.251-7.655-4.169-7.655-5.762 0-6.371 7.978-1.836 9.678-1.246 2.245-.74 5.491 1.511 6.924-2.374 2.825-1.156 8.397 3.659 8.397 5.392.001 6.271-6.989 2.645-9.279zm17.165-2.851c3.466-1.61 3.579-7.085.318-8.926 2.629-2.746 1.478-8.61-3.462-8.61-5.482 0-6.301 7.223-2.462 9.39-2.338 2.442-1.678 7.339 1.969 8.396-4.18 1.949-3.461 9.547 2.161 9.547 5.908 0 6.398-8.393 1.476-9.797z"/><path fill="#4F709E" d="M293 394.333c-6.449 0-6.449 10 0 10s6.449-10 0-10zM291 413c-6.449 0-6.449 10 0 10s6.449-10 0-10zm-9-50.333c-6.449 0-6.449 10 0 10s6.449-10 0-10zm-48.667-5c-6.449 0-6.449 10 0 10s6.449-10 0-10zm4 30.666c-6.449 0-6.449 10 0 10s6.449-10 0-10zm2.334 42c-6.449 0-6.449 10 0 10 6.448 0 6.448-10 0-10zM184 429.667c-6.449 0-6.449 10 0 10s6.449-10 0-10zM204 400c-6.449 0-6.449 10 0 10s6.449-10 0-10zm-13.333-25c-6.449 0-6.449 10 0 10 6.448 0 6.448-10 0-10zm138-5.667c-6.449 0-6.449 10 0 10 6.448 0 6.448-10 0-10zm4 21.667c-6.449 0-6.449 10 0 10 6.448 0 6.448-10 0-10zM332 409.667c-6.449 0-6.449 10 0 10s6.449-10 0-10zM312 431c-6.449 0-6.449 10 0 10s6.449-10 0-10zm38-4.667c-6.449 0-6.449 10 0 10s6.449-10 0-10zM352.667 400c-6.449 0-6.449 10 0 10 6.448 0 6.448-10 0-10zm15.666-16.333c-6.449 0-6.449 10 0 10s6.449-10 0-10zM407 388c-6.449 0-6.449 10 0 10s6.449-10 0-10zm-16.333 19.667c-6.449 0-6.449 10 0 10 6.448 0 6.448-10 0-10zM265 410.333c-6.449 0-6.449 10 0 10s6.449-10 0-10zM254.333 363c-6.449 0-6.449 10 0 10s6.449-10 0-10z"/><path fill="#213551" d="M201.667 401.333c-6.449 0-6.449 10 0 10 6.448 0 6.448-10 0-10zm-13.334-25.666c-6.449 0-6.449 10 0 10s6.449-10 0-10zm-6.333 55c-6.449 0-6.449 10 0 10s6.449-10 0-10zM235 389c-6.449 0-6.449 10 0 10s6.449-10 0-10zm-4.667-31c-6.449 0-6.449 10 0 10s6.449-10 0-10zM237 430.333c-6.449 0-6.449 10 0 10s6.449-10 0-10zm25.333-18.666c-6.449 0-6.449 10 0 10s6.449-10 0-10zM252 364c-6.449 0-6.449 10 0 10s6.449-10 0-10zm27-.333c-6.449 0-6.449 10 0 10s6.449-10 0-10zm11.333 29.666c-6.449 0-6.449 10 0 10s6.449-10 0-10zM288 413c-6.449 0-6.449 10 0 10s6.449-10 0-10zm38.667-42c-6.449 0-6.449 10 0 10 6.448 0 6.448-10 0-10zm2.666 20c-6.449 0-6.449 10 0 10s6.449-10 0-10zm0 17.333c-6.449 0-6.449 10 0 10s6.449-10 0-10zM310 431.667c-6.449 0-6.449 10 0 10s6.449-10 0-10zm37-5c-6.449 0-6.449 10 0 10s6.449-10 0-10zm4-26c-6.449 0-6.449 10 0 10s6.449-10 0-10zm15.333-16c-6.449 0-6.449 10 0 10s6.449-10 0-10zM389 408.333c-6.449 0-6.449 10 0 10s6.449-10 0-10zm15.333-19c-6.449 0-6.449 10 0 10s6.449-10 0-10z"/><circle fill="#7D9DC3" cx="149.5" cy="404.833" r="4.833"/><circle fill="#265C9C" cx="149.295" cy="405.705" r="3.705"/><circle fill="#132E4E" cx="149.417" cy="405.917" r="1.583"/><circle fill="#A8BED7" cx="150.208" cy="405.125" r=".792"/><path fill="#1C4575" d="M172.5 421.402s-.209-25.951-4.487-29.069-1.013-.667-1.013-.667 7.329 1.667 7.29 29l-1.79.736zm1.79 1.265s3.462.805 1.437 2.832c0 0 14.816-15.215 14.816-21.498 0-.001-12.9 21.268-16.253 18.666z"/><path fill="#1C4575" d="M172.434 418.328s5.576.887 5.838 4.441l-2.545 2.729s-1.838-4.411-3.227-4.096l-.066-3.074z"/><path fill="none" stroke="#ACBFD8" stroke-width=".25" stroke-miterlimit="10" d="M164.583 433.417s7.367-3.5 7.85-5.833l.65 2.098c0-.001-5.75 3.901-8.5 3.735zm13.688-6.367v1.45s11.988-7.324 11.567-13.495c0 0-3.764 9.179-11.567 12.045z"/><path fill="#213551" d="M432.227 404.211c1.357-2.066 1.096-5.184-.793-6.838 1.595-2.926.246-7.522-4.052-7.617.407-1.483.192-3.158-.636-4.439-.626-1.712-2.123-3.068-4.496-3.068-4.578 0-5.902 5.036-3.981 7.96.622 1.663 2.068 2.983 4.349 3.033-.517 1.886-.031 4.081 1.449 5.379-.851 1.557-.86 3.583-.042 5.158-.928 1.406-1.096 3.301-.517 4.892-1.202 1.09-1.712 2.784-1.553 4.398-3.45 2.386-2.521 9.179 2.796 9.179 3.475 0 5.074-2.904 4.804-5.582 1.898-1.322 2.467-3.977 1.695-6.095 1.707-1.553 2.033-4.335.977-6.36z"/><path fill="#ACBFD8" d="M126.5 418.583s-3.582-1.137-3.985-2.333c-.404-1.196 4.235 1.833 3.985 2.333z"/><path fill="none" stroke="#A8BED7" stroke-width=".25" stroke-miterlimit="10" d="M174.752 418.998s1.911-25.564-.462-30.082c0 .001 5.463 12.421.462 30.082z"/><path fill="none" stroke="#A8BED7" stroke-width=".25" stroke-miterlimit="10" d="M175.353 418.998s8.147-15.704 5.147-24.65-.906 21.408-5.147 24.65z"/><path fill="none" stroke="#A8BED7" stroke-width=".25" stroke-miterlimit="10" d="M176.861 419.417s12.889-25.198 3.806-29c0 0 14.304 1.149-3.806 29z"/><path fill="none" stroke="#A8BED7" stroke-width=".25" stroke-miterlimit="10" d="M176.861 420.214S189.42 403.352 188.914 397c-.001 0 1.813 8.826-12.053 23.214z"/><path fill="#244676" d="M254.753 354.183s18.41-7.517 20.743-14.183c2.333-6.667 14.844 5.05 22.34 9.859 7.497 4.808 17.665 7.808 17.665 7.808l42.558 10.667 22.427 7.333-3.914 3.384L254 357.667l-1.889-2.512 2.642-.972zm-64.21 82.734s7.879-.964 8.954 3c.837 3.083 9.17 14.667 9.17 14.667l12.583 9.333s5.106 1.746 3.206 1.399-10.842 6.877-33.913-28.399zm77.582 11.75l-9.288-10s11.394 3.962 12.689 4.184c1.295.222 6.802 1.283 7.474 1.055s-.612-1.695-6.503-4.529c-5.329-2.563 18.336 1.247 19.503.163s-4.006 2.336-2.836 5.815-15.994 3.978-15.994 3.978S294.884 474.064 298 473c0 0-6.584 6.333-29.875-24.333zm111.416-20.196l-13.097 6.819s25.845 25.019 43.31 17.448c17.466-7.571-25.168 9.037-30.213-24.267zm-217.628 5.542s7.971-.037 11.865-4.572l.498 2.321c-.001.001-5.542 4.267-12.363 2.251zm14.675-6.074s10.82-2.351 14.725-13.856c0 0-2.519 11.375-13.653 15.91l-1.072-2.054zm-19.881-16.689s-1.747 3.437-4.747 3.692c0 0 5.222.222 5.986-5.156.765-5.379-1.239 1.464-1.239 1.464z"/></svg>