<svg xmlns="http://www.w3.org/2000/svg" width="369.372" height="152.875" viewBox="121.463 320.666 369.372 152.875"><path fill="none" stroke="#213551" stroke-width="6" stroke-miterlimit="10" d="M195.186 403.938c2.359.228 4.937-.847 7.262-1.251 4.322-.751 8.628-1.184 12.999-1.498 12.714-.913 25.79-.451 38.399 1.424 4.319.642 8.631 1.553 12.964 2.081 7.443.908 15.139-1.709 22.625-2.057 13.384-.622 28.486-1.645 41.299 2.939 4.656 1.666 8.646 4.7 13.579 4.058 14.315-1.863 27.873-3.511 42.223-.948 4.768.852 9.194-.941 14.034-1.682 6.547-1.002 13.541-1.113 20.172-.734 3.365.192 5.714.189 9.119-.758 2.404-.669 5.253-1.462 7.659-.575"/><path fill="#213551" d="M209.241 399.279l.462-1.688c.216-.646.467-1.506.803-2.324.335-.804.715-1.703 1.196-2.619.454-.939 1.013-1.888 1.604-2.88a63.926 63.926 0 0 1 1.952-3.004 103.84 103.84 0 0 1 2.207-3.036 180.482 180.482 0 0 1 2.344-3.014c1.581-1.992 3.174-3.939 4.6-5.793l2.031-2.722c.627-.874 1.292-1.697 1.891-2.447.572-.768 1.217-1.392 1.738-1.966.269-.282.506-.556.749-.788l.707-.601 1.327-1.125-1.076 1.36-.559.708c-.189.269-.366.583-.569.904-.391.655-.874 1.349-1.276 2.199-.427.831-.89 1.712-1.342 2.711l-1.471 3.101c-1.058 2.151-2.247 4.393-3.389 6.627a168.94 168.94 0 0 0-1.661 3.329 98.982 98.982 0 0 0-1.481 3.225 58.66 58.66 0 0 0-1.196 3.016c-.335.957-.65 1.859-.857 2.686-.243.827-.387 1.575-.519 2.23-.12.644-.136 1.096-.207 1.511l-.119 1.719-7.889-1.319zm17.947.539l.215-1.375c.039-.36.225-1.17.409-1.942.172-.842.467-1.581.775-2.407.278-.845.741-1.648 1.146-2.539.477-.84.952-1.738 1.532-2.585l.872-1.29.954-1.254c.627-.85 1.353-1.629 2.037-2.431.726-.766 1.428-1.543 2.177-2.247.724-.726 1.477-1.395 2.199-2.04a58.931 58.931 0 0 1 4.111-3.292c.623-.449 1.186-.863 1.709-1.201.519-.342.958-.652 1.342-.879l1.185-.732-.968.997c-.312.31-.663.719-1.075 1.17-.416.447-.857.982-1.339 1.556a57.087 57.087 0 0 0-3.079 4.067c-.519.77-1.056 1.559-1.549 2.391-.521.812-.976 1.679-1.451 2.522-.426.87-.893 1.713-1.244 2.582l-.543 1.273-.45 1.254c-.302.817-.486 1.622-.695 2.363-.122.751-.334 1.448-.36 2.082-.065.634-.141 1.227-.092 1.607.021.44-.018.679.047 1.202l.129 1.385-7.994-.237zm21.006 2.205l.069-.372.083-.447c.039-.194.049-.314.155-.739.176-.709.43-1.702.781-2.373.32-.787.776-1.538 1.265-2.358.523-.767 1.095-1.577 1.748-2.342a31.795 31.795 0 0 1 2.103-2.28 41.618 41.618 0 0 1 2.356-2.182c.813-.713 1.656-1.4 2.505-2.065a90.218 90.218 0 0 1 2.549-1.934l2.522-1.825 2.38-1.564c.761-.493 1.463-.976 2.142-1.393l4.67-2.545-3.867 3.503c-.552.554-1.127 1.196-1.748 1.853l-1.944 2.081-1.932 2.267a86.657 86.657 0 0 0-1.952 2.395 53.726 53.726 0 0 0-1.825 2.433 36.012 36.012 0 0 0-1.591 2.4 25.672 25.672 0 0 0-1.256 2.267c-.364.721-.618 1.397-.85 2.006-.169.605-.346 1.148-.387 1.588-.123.519-.013.637-.047.818-.017.019.006.313.013.472l.025.454.021.378-7.988-.496zm20.436.75l1.044-1.638c.347-.528.676-1.124 1.332-1.949.604-.785 1.281-1.698 2.033-2.607l2.47-2.669 2.902-2.747c1.051-.89 2.131-1.808 3.243-2.713 1.155-.855 2.283-1.765 3.482-2.584 1.208-.809 2.372-1.656 3.611-2.374l1.85-1.125 1.789-.929 1.731-.899 1.736-.79c1.129-.507 2.186-.997 3.165-1.394l6.501-2.753-5.913 3.856c-.899.566-1.822 1.216-2.805 1.886l-1.504 1.035-1.544 1.189-1.597 1.23-1.47 1.307c-1.032.871-1.991 1.874-2.978 2.824-.979.961-1.88 2.004-2.803 2.978l-2.524 3.017-2.158 2.927-1.725 2.698c-.454.82-.807 1.547-1.156 2.185-.346.572-.625 1.349-.861 1.904l-.738 1.795-7.113-3.66zm26.921-2.85l1.248-1.124 1.433-1.289.881-.793c.329-.28.712-.577 1.09-.883l2.466-1.964c.867-.711 1.81-1.307 2.767-2.003.961-.676 1.941-1.388 2.976-2.034l3.104-2.004c2.1-1.284 4.19-2.575 6.157-3.742l5.352-3.231c1.57-.942 2.834-1.784 3.743-2.349l1.418-.901-1.204 1.17c-.772.736-1.851 1.83-3.198 3.073l-4.593 4.263c-1.692 1.547-3.455 3.218-5.222 4.877l-2.559 2.525c-.857.819-1.632 1.676-2.395 2.489-.743.82-1.536 1.588-2.146 2.354l-1.767 2.123c-.272.331-.533.626-.78.944l-.701.956-1.14 1.554-.993 1.354-5.937-5.365zm23.332 1.425l1.031-1.2.549-.636.798-.834c.57-.594 1.216-1.27 1.896-1.851 1.36-1.264 2.993-2.561 4.714-3.904 1.712-1.339 3.547-2.699 5.242-4.127l.645-.534.081-.067.01-.008.063-.063.021-.017.042-.034.169-.134.337-.268 1.339-1.065 2.605-2.071 2.443-1.931 2.289-1.64 4.698-3.359-3.833 4.262-1.843 2.052-1.963 2.408-2.094 2.582-1.077 1.328-.271.334-.136.167-.034.042-.017.021c-.014.015.094-.096.044-.044l-.008.011-.068.088-.545.702c-1.451 1.896-2.975 3.648-4.337 5.3-1.357 1.643-2.581 3.157-3.485 4.474-.502.665-.824 1.229-1.128 1.722l-.428.686-.393.728-.747 1.394-6.609-4.514zm21.032 7.885l.122-.423.147-.508.093-.322c.036-.121.055-.211.134-.422.133-.372.285-.781.46-1.22l.278-.678c.1-.217.21-.394.32-.602.225-.402.458-.835.72-1.27l.889-1.279c.645-.848 1.362-1.731 2.174-2.554.396-.43.814-.845 1.255-1.244.434-.411.877-.826 1.344-1.212 1.843-1.594 3.878-3.09 5.914-4.507 2.032-1.419 4.078-2.756 5.87-4.081a94.103 94.103 0 0 0 2.546-2.039c.812-.673 1.602-1.3 2.331-1.873.753-.555 1.425-1.074 2.075-1.476.619-.433 1.217-.734 1.695-.987.464-.276.903-.363 1.161-.481l.412-.151-.375.233c-.234.171-.619.328-1.015.69-.409.34-.906.732-1.414 1.271-.531.501-1.076 1.138-1.678 1.809-.586.697-1.216 1.451-1.873 2.272-.671.83-1.37 1.696-2.143 2.589-1.579 1.763-3.323 3.497-4.985 5.258-1.664 1.756-3.253 3.531-4.562 5.247-.34.423-.639.852-.929 1.27-.302.413-.572.824-.811 1.228-.517.796-.901 1.567-1.232 2.261l-.419.994-.267.88c-.037.132-.093.275-.113.384l-.03.277a5.406 5.406 0 0 1-.081.461c-.018.039-.025.202-.034.314l-.026.334-.04.527-.034.439-7.879-1.409zm25.387-2.917l.147-.406.177-.487.117-.319.218-.515c.157-.361.336-.757.538-1.179.2-.371.413-.703.645-1.092.225-.392.489-.758.768-1.142.277-.387.566-.795.89-1.173 1.264-1.579 2.83-3.183 4.549-4.763 1.718-1.581 3.592-3.142 5.442-4.671l2.72-2.273 2.617-2.277a48.4 48.4 0 0 1 2.538-2.082 67.656 67.656 0 0 1 2.331-1.79 268.065 268.065 0 0 1 3.516-2.575l1.337-.968-1.107 1.224c-.708.776-1.712 1.893-2.898 3.237a65.108 65.108 0 0 0-1.869 2.185 45.68 45.68 0 0 0-2.003 2.501l-2.089 2.771-2.236 2.846c-1.494 1.879-2.956 3.737-4.211 5.504-1.257 1.763-2.301 3.436-3.004 4.85-.195.353-.333.689-.469 1.006-.141.317-.274.615-.351.886-.085.267-.19.538-.245.741a4.46 4.46 0 0 1-.121.615 27.96 27.96 0 0 1-.046.313l-.072.513-.06.427-7.769-1.907zm16.408-.22l.141-.356c.062-.154.295-.762.562-1.347a24.54 24.54 0 0 1 .949-1.748c.382-.628.821-1.312 1.32-2.019 1.982-2.837 4.876-6.176 8.057-9.208 3.175-3.027 6.664-5.729 9.599-7.238.73-.38 1.424-.68 2.048-.913a12.55 12.55 0 0 1 1.658-.468c.474-.072.837-.124 1.092-.115l.383-.01-.37.098c-.242.048-.582.184-1.003.355-.415.195-.902.455-1.43.8-.525.353-1.094.78-1.681 1.29-2.359 2.027-4.981 5.292-7.226 8.765-2.249 3.471-4.144 7.157-5.211 9.894a28.975 28.975 0 0 0-.655 1.839c-.164.536-.275.982-.348 1.331l-.092.7-.054.379-7.739-2.029zm21.476-.805l.209-1.187c.064-.335.149-.704.26-1.092.114-.386.241-.59.381-.918a5.64 5.64 0 0 1 .479-.885c.18-.28.362-.604.574-.858.411-.561.876-1.08 1.369-1.596a26.22 26.22 0 0 1 1.574-1.445c1.097-.924 2.274-1.779 3.42-2.599l1.667-1.203c.547-.416 1.002-.74 1.452-1.177.423-.397.868-.888 1.284-1.326a28.64 28.64 0 0 1 1.228-1.246c.786-.76 1.563-1.303 2.151-1.558.296-.125.533-.202.702-.222l.25-.041-.219.125c-.143.072-.331.223-.543.424-.424.413-.9 1.1-1.339 2.02-.225.455-.446.964-.678 1.515-.238.557-.463 1.13-.787 1.795-.295.628-.734 1.31-1.11 1.898l-1.191 1.786c-.787 1.165-1.536 2.305-2.126 3.358a19.143 19.143 0 0 0-.751 1.491c-.189.461-.344.881-.428 1.236-.067.186-.058.332-.086.478a.868.868 0 0 0-.014.364c.02.076-.013.238.038.212a.186.186 0 0 0 .088-.102c.008-.005.004-.065.012-.024l.035.189.055.299.046.249-8.002.04zm-187.993-2.202l-.176 1.163-.037.167-.004.275c-.008.192-.016.404.01.643.017.469.107 1.033.261 1.669.29 1.273.946 2.842 1.845 4.509.916 1.664 2.076 3.427 3.349 5.149 2.539 3.454 5.432 6.792 7.484 9.387 2.085 2.58 3.253 4.452 3.253 4.452s-1.554-1.552-4.137-3.568c-2.562-2.047-6.106-4.617-9.526-7.544-1.711-1.46-3.379-3.034-4.863-4.683-1.471-1.663-2.769-3.408-3.67-5.187-.454-.882-.826-1.753-1.08-2.585a10.369 10.369 0 0 1-.327-1.187l-.125-.543-.082-.586-.105-.968a220.57 220.57 0 0 0-.036-.473l-.03-.393 7.996.303z"/><path fill="#213551" d="M234.588 399.5l.683 1.426.784 1.637.482 1.007.554 1.014 1.257 2.288c.43.816 1.014 1.695 1.549 2.598 1.08 1.812 2.34 3.741 3.567 5.673 1.237 1.957 2.499 3.878 3.613 5.76.555.938 1.126 1.811 1.601 2.695l1.348 2.468.593 1.093.474 1.024.765 1.656.661 1.434-.958-1.261-1.094-1.438-.669-.879-.808-.93-1.814-2.078c-.635-.738-1.382-1.468-2.11-2.247-1.452-1.554-3.102-3.16-4.712-4.782-1.631-1.637-3.274-3.243-4.786-4.847-.757-.808-1.502-1.522-2.189-2.324l-1.95-2.227-.863-.998-.689-.879-1.119-1.429-.975-1.245 6.805-4.209zm19.589.23l.151.38.182.456c.069.173.164.422.219.521.138.275.233.599.559 1.115.263.491.651 1.04 1.085 1.647.886 1.211 2.13 2.606 3.586 4.092 1.452 1.49 3.109 3.074 4.73 4.773a43.06 43.06 0 0 1 2.353 2.659l.544.707.289.382.229.344.902 1.352c1.17 1.79 2.32 3.401 3.206 4.885l2.975 4.876-3.937-4.077c-1.159-1.225-2.652-2.567-4.178-4.05l-1.174-1.122-.298-.285-.271-.224-.601-.499a39.352 39.352 0 0 0-2.627-1.896c-1.833-1.224-3.768-2.393-5.6-3.587-1.833-1.19-3.566-2.416-5.013-3.671-.719-.636-1.383-1.237-1.938-1.856-.552-.55-1.08-1.257-1.49-1.805-.232-.306-.327-.457-.441-.622l-.277-.406-.231-.338 7.066-3.751zm18.49-.346l.407.097.488.117c.123.021.563.15.992.297.427.145.911.324 1.386.533l1.118.642c.414.225.767.496 1.151.776.38.282.8.57 1.159.901.372.326.772.658 1.155 1.014l1.138 1.12c.743.785 1.51 1.612 2.236 2.501a49.617 49.617 0 0 1 2.163 2.769 65.359 65.359 0 0 1 2.043 2.949c1.308 2.009 2.512 4.07 3.485 6.118.505 1.038.863 2.02 1.247 2.942l1.059 2.611c.677 1.596 1.272 2.912 1.678 3.848l.646 1.467-.939-1.288c-.594-.823-1.467-1.996-2.481-3.426l-1.59-2.321c-.571-.819-1.145-1.717-1.784-2.521-1.281-1.655-2.82-3.329-4.425-4.908a61.235 61.235 0 0 0-2.453-2.282 45.381 45.381 0 0 0-2.469-2.045c-.808-.642-1.617-1.198-2.374-1.714l-1.113-.699c-.36-.21-.709-.385-1.038-.567-.331-.196-.643-.306-.935-.438-.293-.127-.571-.262-.808-.312l-.664-.204c-.102.014-.154.029-.208.018-.053-.006-.038-.038-.312-.034l-.501-.01-.417-.008.96-7.943zm27.05-.838l.987 1.138c.32.38.683.762 1.146 1.346l1.532 1.955c.553.713 1.04 1.462 1.613 2.264.574.796 1.102 1.648 1.683 2.521 1.142 1.748 2.3 3.609 3.47 5.442a116.682 116.682 0 0 0 3.537 5.263l3.342 4.513 1.287 1.859c.394.54.674 1.066.928 1.473l.776 1.292-1.048-1.081c-.339-.337-.715-.769-1.22-1.206l-1.647-1.494-4.278-3.637a119.784 119.784 0 0 1-4.778-4.453c-1.579-1.543-3.129-3.093-4.589-4.489-.733-.689-1.427-1.386-2.109-1.978-.675-.593-1.316-1.207-1.894-1.672l-1.557-1.257c-.457-.372-.988-.728-1.358-1.005l-1.219-.884 5.396-5.91zm29.787 4.709l-.037 1.494c.022.356-.01.73.037 1.293.048.568.11 1.218.238 1.944.113.724.279 1.521.491 2.372.204.851.465 1.757.754 2.699.583 1.885 1.323 3.912 2.093 5.96.768 2.049 1.563 4.123 2.225 6.116l.244.741c.102.292.149.497.224.746l.403 1.394.739 2.553c.227.792.374 1.552.535 2.204l.394 1.696.34 1.469-.665-1.356-.759-1.547c-.302-.593-.6-1.268-.999-1.987l-1.298-2.32-.709-1.267c-.118-.203-.25-.463-.359-.627l-.389-.641c-1.051-1.72-2.266-3.519-3.486-5.352-1.22-1.832-2.444-3.702-3.526-5.553a50.734 50.734 0 0 1-1.504-2.745c-.46-.897-.87-1.779-1.215-2.624a28.261 28.261 0 0 1-.876-2.377c-.243-.734-.408-1.514-.557-2.096l-.308-1.492 7.97-.697zm14.178 1.022l1.278.57c.218.102.397.166.706.325l.968.5 1.081.577 1.04.678c.734.455 1.463 1.013 2.218 1.61.778.57 1.485 1.282 2.264 1.953.715.736 1.494 1.445 2.18 2.257l1.053 1.198.995 1.252c.662.831 1.261 1.708 1.85 2.559.564.873 1.123 1.719 1.599 2.58.506.838.926 1.691 1.336 2.483a50.08 50.08 0 0 1 1.041 2.287c.274.731.561 1.374.744 1.979.187.602.375 1.11.481 1.548l.338 1.362-.656-1.231c-.204-.39-.511-.837-.828-1.358-.313-.523-.745-1.072-1.168-1.685a49.57 49.57 0 0 0-1.506-1.887c-.568-.642-1.146-1.325-1.808-1.979-.631-.677-1.34-1.322-2.043-1.98-.729-.635-1.458-1.284-2.232-1.873l-1.151-.881-1.179-.81c-.764-.552-1.584-.981-2.33-1.448-.79-.388-1.512-.834-2.245-1.121-.72-.321-1.394-.613-2.031-.808l-.896-.309-.733-.168-.627-.155c-.182-.05-.484-.09-.685-.129l-1.378-.241 2.324-7.655zm30.104 2.932l.02.349.025.419c.005.111.009.116.011.132a.359.359 0 0 1-.001.065c-.063.019.049.432.144.824l.24.69c.096.249.223.52.341.802.519 1.137 1.308 2.514 2.261 3.978.951 1.468 2.067 3.024 3.209 4.605l1.709 2.407 1.577 2.331c1.014 1.5 1.988 2.858 2.878 3.989.459.546.873 1.066 1.271 1.491.405.416.745.807 1.057 1.088l.992.89-1.196-.613c-.384-.198-.812-.49-1.331-.802-.51-.321-1.053-.725-1.662-1.155-1.182-.892-2.52-1.999-3.904-3.21l-2.117-1.851-2.194-1.831c-3.011-2.463-6.077-5.053-8.203-7.628-.263-.333-.519-.642-.756-.962l-.659-.954c-.395-.676-.729-1.19-1.02-1.987l-.19-.504-.13-.376a85.613 85.613 0 0 0-.131-.4l-.109-.333 7.868-1.454zm19.685 1.439l.025.441c.016.236.039.866.079.965.023.122.003.218.039.414l.197.742a14.4 14.4 0 0 0 .76 1.899c.677 1.428 1.73 3.126 3.021 4.915 1.286 1.794 2.814 3.673 4.363 5.607.764.956 1.578 1.988 2.278 2.972l2.085 2.867c.677.919 1.337 1.803 1.982 2.621.633.835 1.278 1.57 1.858 2.276.615.662 1.153 1.313 1.685 1.822.533.509.976.992 1.387 1.329l1.288 1.086-1.489-.807c-.482-.253-1.012-.635-1.656-1.038-.645-.404-1.307-.935-2.071-1.48-.722-.582-1.536-1.198-2.337-1.898a102.671 102.671 0 0 1-2.523-2.211l-2.631-2.394c-.889-.824-1.766-1.557-2.714-2.345-3.768-3.09-7.686-6.354-10.233-9.717a21.867 21.867 0 0 1-1.654-2.477l-.609-1.182c-.187-.408-.348-.888-.485-1.276a12.24 12.24 0 0 1-.297-.946l-.137-.512-.114-.427 7.903-1.246zm17.16-3.891l.552.956.599 1.015c.215.371.486.808.808 1.298 1.24 1.944 3.119 4.548 4.948 7.263.905 1.368 1.801 2.745 2.561 4.099.386.669.73 1.339 1.051 1.967.299.649.604 1.236.822 1.819.235.57.442 1.091.585 1.571.153.474.296.877.368 1.228l.26 1.076-.575-.939c-.169-.301-.429-.639-.71-1.029-.27-.395-.618-.813-.998-1.261-.361-.458-.821-.911-1.271-1.401-.477-.475-.974-.973-1.518-1.463-1.071-.992-2.291-1.981-3.519-2.96-2.478-1.944-5.069-3.844-7.009-5.441a32.9 32.9 0 0 1-1.343-1.133l-1.014-.898-.82-.74 6.223-5.027zm-216.464-9.822c-3.873-8.16-9.789-15.014-13.465-23.251-1.179.551-1.809.869-1.809.869s-21.081 16.314-28.256 18.396c-7.175 2.083-23.225 16.894-23.225 16.894l8.61 10.852s-20.703-11.5-7.274 3.032c13.429 14.532 20.705 16.314 20.705 16.314 12.698 3.853 21.718 2.196 21.718 2.196l14.563.673c.187-.105.362-.212.539-.319-1.079-.044-1.971-.371-2.67-.89-2.346-.728-3.425-3.066-3.23-5.275-.219-2.599 1.322-5.376 4.623-5.481a5.106 5.106 0 0 1 1.856-.343c2.634 0 4.191 1.669 4.673 3.643.047.057.102.108.146.168.081-.08.152-.172.237-.247.061-.45.173-.864.332-1.24 2.415-11.382 7.213-24.853 1.927-35.991zm243.164-7.802s-5.197-6.82-16.579-4.774c.407.027.815.075 1.223.132.466-.14.979-.221 1.544-.221 4.114 0 5.599 4.068 4.464 7.015.069-.002.132-.015.203-.015 4.669 0 5.955 5.241 3.863 8.134 1.802 1.59 2.119 4.52.942 6.576.678 1.819.368 4.047-.946 5.484 1.923 2.652 1.003 7.279-2.764 8.032.35 2.558-1.011 5.39-4.118 5.736l8.196 3.816 5.975-5.437 3.674-7.449 1.67-9.366-7.347-17.663z"/><path fill="#4F709E" d="M175.111 427.05s-.333-4.667-4-4 0-1.333 0-1.333-3.667-38.667-12-30c0 0 18.196-13.333 31.432 6 0 0 2.568 7.186 1.568 9.426 0 0-8.333 12.574-17 19.907zm312.834-74.019c-.704-.435-1.573-.697-2.612-.697-.51 0-.976.069-1.405.184-3.362-.261-8.817 2.843-8.817 2.843l-56.055 26.98c.966-.036 1.938.018 2.908.153a5.336 5.336 0 0 1 1.555-.224c4.113 0 5.598 4.067 4.464 7.013.069-.003.132-.013.202-.013 4.672 0 5.957 5.248 3.858 8.14 1.806 1.592 2.124 4.524.94 6.581.666 1.812.354 4.02-.953 5.454 1.939 2.645 1.029 7.285-2.734 8.049.348 2.567-1.035 5.412-4.163 5.742l28.312 13.272c14.466 7.702 22.695 11.004 27.146 11.872a5.237 5.237 0 0 0 1.743.285c.242 0 .472-.018.696-.045.833-.035 1.396-.236 1.75-.556 3.576-1.998 3.139-8.368-1.318-9.287a5.055 5.055 0 0 0-2.127-.445c-.341 0-.659.034-.964.086a31.208 31.208 0 0 0-.155-.232c2.519-2.782 1.339-8.521-3.547-8.521-.688 0-1.298.119-1.839.323a3.459 3.459 0 0 0-.051-.078c2.209-2.868.953-8.245-3.777-8.245-.468 0-.898.058-1.297.156a70.312 70.312 0 0 0-.173-.283c2.542-2.775 1.368-8.54-3.53-8.54-.47 0-.902.059-1.304.157l-.08-.147c1.902-2.819.735-7.666-3.502-7.988l-.004-.05c0-.092.008-.183.01-.275 1.928-.698 2.94-2.517 3.037-4.398 4.199-.356 5.353-5.173 3.45-7.979 3.796-.175 5.214-3.912 4.267-6.764.35.072.725.111 1.125.111 4.437 0 5.806-4.724 4.137-7.676.066.002.129.01.197.01 3.56 0 5.145-3.045 4.774-5.775 3.743-.757 4.666-5.349 2.772-8.002.349.072.722.11 1.121.11 3.579 0 5.166-3.077 4.771-5.816.324-2.187-.62-4.592-2.828-5.485zm-347.501 53.685s13.34 11.566 17.667-2.093c0 0 1 21.52-17.667 2.093zm-2.834-5.355l-2.755 4.097c-.001 0 3.058 2.413 2.755-4.097zm-1.367 22.387s.618-8.159-4.257-14.017-18.625-5.733 0 8.767l4.257 5.25zm0 0s-8.132-5.5-11.257-9.5c0 0-13.112 1.125 11.257 9.5zm25.493 10s8.625-1.625 10.625-8.25c0 0 2.625 3.125 1.75 4.75 0 0-4 4.375-12.375 3.5zm29.606-20.625s-10.481 13.5-13.856 13.5v3.058s11.962-4.808 13.856-16.558zm-10.968 21.298c-.133-1.598.397-3.262 1.593-4.331-4.126 1.786-3.673 8.928 1.365 9.519-2.16-.82-3.148-3.064-2.958-5.188zm7.542-50.212a498.405 498.405 0 0 1-1.968-3.07c.249 1.227.905 2.354 1.968 3.07z"/><path fill="#213551" d="M188.333 385.667c.173 0 .339-.011.503-.025-1.595-2.494-3.222-4.964-4.736-7.504-1.535 2.961-.127 7.529 4.233 7.529zm-4.723 54.04c-2.363-.728-3.441-3.09-3.233-5.311-.103-1.306.232-2.654 1.017-3.684-5.828.614-5.632 9.955.606 9.955.898 0 1.655-.21 2.3-.546a4.349 4.349 0 0 1-.69-.414z"/><circle fill="#7D9DC3" cx="149.5" cy="404.833" r="4.833"/><circle fill="#265C9C" cx="149.295" cy="405.705" r="3.705"/><circle fill="#132E4E" cx="149.417" cy="405.917" r="1.583"/><circle fill="#A8BED7" cx="150.208" cy="405.125" r=".792"/><path fill="#1C4575" d="M172.5 421.402s-.209-25.951-4.487-29.069-1.013-.667-1.013-.667 7.329 1.667 7.29 29l-1.79.736zm1.79 1.265s3.462.805 1.437 2.832c0 0 14.816-15.215 14.816-21.498 0-.001-12.9 21.268-16.253 18.666z"/><path fill="#1C4575" d="M172.434 418.328s5.576.887 5.838 4.441l-2.545 2.729s-1.838-4.411-3.227-4.096l-.066-3.074z"/><path fill="none" stroke="#ACBFD8" stroke-width=".25" stroke-miterlimit="10" d="M164.583 433.417s7.367-3.5 7.85-5.833l.65 2.098c0-.001-5.75 3.901-8.5 3.735zm13.688-6.367v1.45s11.988-7.324 11.567-13.495c0 0-3.764 9.179-11.567 12.045z"/><path fill="#ACBFD8" d="M126.5 418.583s-3.582-1.137-3.985-2.333c-.404-1.196 4.235 1.833 3.985 2.333z"/><path fill="none" stroke="#A8BED7" stroke-width=".25" stroke-miterlimit="10" d="M174.752 418.998s1.911-25.564-.462-30.082c0 .001 5.463 12.421.462 30.082z"/><path fill="none" stroke="#A8BED7" stroke-width=".25" stroke-miterlimit="10" d="M175.353 418.998s8.147-15.704 5.147-24.65-.906 21.408-5.147 24.65z"/><path fill="none" stroke="#A8BED7" stroke-width=".25" stroke-miterlimit="10" d="M176.861 419.417s12.889-25.198 3.806-29c0 0 14.304 1.149-3.806 29z"/><path fill="none" stroke="#A8BED7" stroke-width=".25" stroke-miterlimit="10" d="M176.861 420.214S189.42 403.352 188.914 397c-.001 0 1.813 8.826-12.053 23.214z"/><path fill="#244676" d="M161.913 434.013s7.971-.037 11.865-4.572l.498 2.321c-.001.001-5.542 4.267-12.363 2.251zm14.675-6.074s10.82-2.351 14.725-13.856c0 0-2.519 11.375-13.653 15.91l-1.072-2.054zm-19.881-16.689s-1.747 3.437-4.747 3.692c0 0 5.222.222 5.986-5.156.765-5.379-1.239 1.464-1.239 1.464z"/></svg>