<svg xmlns="http://www.w3.org/2000/svg" width="500" height="200" viewBox="0 0 825.69157 272.20066"><path d="M596.349 271.675c-.687-.23-2.676-.728-4.42-1.108-2.135-.465-3.17-1.525-3.17-3.25 0-2.482.617-2.553 20.67-2.378 34.142.296 65.051-5.1 83.983-14.665 8.787-4.44 11.85-6.774 22.112-16.852 2.516-2.471 6.273-5.651 8.347-7.066 2.075-1.415 7.419-8.231 11.875-15.147 4.457-6.915 8.751-12.353 9.543-12.083 1.973.673 11.975-22.202 16.108-36.836 3.718-13.166 6.39-17.893 4.946-8.75-1.62 10.257-11.583 38.407-17.999 50.857-8.697 16.877-17.626 28.247-29.923 38.1-13.71 10.986-41.806 25.43-38.24 19.659.557-.9.036-1.134-1.488-.67-5.862 1.788-31.598 5.816-37.875 5.928-3.833.069-8.375.575-10.094 1.126-5.357 1.715 5.166 1.44 21.226-.557 7.893-.981 14.58-1.554 14.86-1.274 1.13 1.13-6.822 3.138-17.09 4.314-9.94 1.14-50.428 1.634-53.371.652zm115.784-29.073c1.555-1.983 1.511-2.027-.471-.472-1.204.944-2.188 1.928-2.188 2.188 0 1.028 1.027.366 2.66-1.716zm6.795-5.625l3.671-4.062-4.062 3.67c-2.235 2.02-4.063 3.848-4.063 4.063 0 .966 1.031.116 4.454-3.671zm-531.954 30.805c-28.196-2.398-45.543-6.255-60.868-13.533-24.838-11.795-43.283-31.441-57.208-60.935-3.026-6.407-5.873-13.159-6.327-15.004-.52-2.11-1.45-3.115-2.508-2.709-3.32 1.274-11.386-19.92-20.501-53.869-3.986-14.846-5.697-19.313-8.334-21.758-1.825-1.692-4.39-5.5-5.7-8.46-1.31-2.961-4.4-8.03-6.868-11.263-2.468-3.233-5.217-7.624-6.109-9.758-.891-2.134-2.853-4.993-4.359-6.354-1.506-1.36-4.136-5.23-5.844-8.599-2.442-4.815-2.835-6.717-1.84-8.9.695-1.526 1.675-5.513 2.177-8.86 1.578-10.524 7.723-14.214 31.162-18.708 22.479-3.943 54.513-8.083 83.127-12.302l12.813-2.156C161.12-.657 223.605-1.6 252.599 2.762c41.615 6.26 76.145 18.56 91.667 32.653 13.493 12.25 17.279 20.891 10.965 25.028-1.974 1.294-2.783 2.766-2.375 4.325.54 2.062 1.2 1.754 5.18-2.418 5.175-5.424 15.957-9.39 30.813-11.337 11.508-1.508 40.625-1.554 40.625-.065 0 .637-.984 1.415-2.187 1.73-1.377.36-.94.625 1.176.717 3.947.17 5.781 2.244 2.589 2.926-1.212.26.816.893 4.505 1.407 3.69.515 7.018.627 7.396.249.378-.378-.549-.687-2.06-.687-1.511 0-3.071-.844-3.467-1.875-.396-1.032-1.784-1.875-3.086-1.875-1.301 0-2.366-.563-2.366-1.25 0-1.741 4.184-1.567 6 .25.825.825 1.5 1.019 1.5.43 0-.587.984-.222 2.188.81 2.723 2.34 6.984 3.953 5.928 2.245-1.38-2.232 2.68-1.292 7.012 1.624 2.336 1.572 5.372 4.638 6.747 6.812 1.71 2.704 3.19 3.748 4.688 3.306 3.065-.905 2.777 1.79-.938 8.778-1.719 3.232-3.133 7.675-3.142 9.873-.022 5.047-1.223 9.622-2.527 9.622-.551 0-2.204-1.945-3.672-4.32-2.541-4.112-2.577-4.595-.747-9.986 2.97-8.746 1.43-10.762-11.572-15.156-10.304-3.482-11.89-3.663-32.09-3.663-22.888 0-30.628 1.209-41.35 6.46-7.193 3.52-10.525 8.143-10.525 14.596 0 5.795-2.067 6.963-3.128 1.767-2.05-10.039-5.81-20.753-7.512-21.406-2.22-.852-2.37 1.12-.497 6.494 1.515 4.346.796 8.757-.748 4.589-3.67-9.915-7.34-16.013-12.501-20.783-20.071-18.548-43.561-28.226-83.114-34.247-10.26-1.562-21.99-1.952-53.75-1.788-41.613.215-59.8 1.546-57.584 4.216.844 1.017-1.393 2.185-7.804 4.072a51422.11 51422.11 0 0 1-17.867 5.256l-8.88 2.61-.774 8.288c-.911 9.763-1.927 11.277-8.8 13.114-10.66 2.85-18.215 7.338-20.764 12.333-1.33 2.607-4.13 6.18-6.223 7.94-4.206 3.54-6.304 7.957-6.304 13.27 0 1.922-1.547 5.683-3.437 8.357-3.033 4.289-3.413 5.892-3.227 13.612.24 9.874 2.887 25.38 7.445 43.586 2.967 11.852 3.223 17.408.469 10.164-.726-1.91-1.597-3.195-1.936-2.856-.339.339.48 3.089 1.822 6.11 1.34 3.023 2.477 4.76 2.526 3.86.121-2.25 2.588-.55 2.588 1.783 0 1.167-.581 1.516-1.54.924-.846-.524-.284.644 1.25 2.594 1.535 1.95 2.823 4.455 2.864 5.566.04 1.11 1.417 4.55 3.06 7.644 1.642 3.093 3.572 6.914 4.29 8.49 2.697 5.925 11.827 18.243 19.724 26.615 23.016 24.398 54.229 34.854 104.135 34.884 28.314.017 42.823-2.508 61.588-10.722 12.121-5.305 21.802-11.443 29.693-18.823 3.344-3.129 6.807-5.439 7.696-5.134 1.664.57-2.104 4.6-15.325 16.386-12.005 10.703-35.76 20.284-57.435 23.164-11.318 1.505-34.742 2.541-42.5 1.882zm247.813-207.57c-.86-.347-2.266-.347-3.125 0-.86.346-.157.63 1.562.63s2.422-.284 1.563-.63zm-52.046-1.577c10.078-1.905 35.623-3.97 38.362-3.1 2.469.783 2.453.866-.475 2.488-2.846 1.577-2.652 1.67 3.221 1.552 3.438-.07 4.941-.375 3.342-.68-1.874-.357-2.667-1.181-2.232-2.317 1.037-2.7-3.254-3.224-20.491-2.5-24.563 1.032-27.453 1.385-29.693 3.624-2.547 2.548-1.331 2.69 7.966.933zm174.792 202.549c-19.995-9.774-40.505-27.209-51.496-43.777-2.922-4.405-5.313-8.483-5.313-9.063 0-2.224 2.017-.747 5.625 4.119 2.063 2.781 5.016 6.437 6.563 8.124 1.546 1.686 2.812 3.585 2.812 4.22 0 .635.844.83 1.875.435 1.324-.509 1.875.106 1.875 2.093 0 3.706 15.338 18.588 24.777 24.04 3.904 2.254 12.02 6.267 18.036 8.918 6.015 2.65 10.937 5.028 10.937 5.283 0 1.756-7.286-.284-15.691-4.392zm113.816 3.606c.425-.688 2.179-1.25 3.898-1.25 1.765 0 2.788.544 2.352 1.25-.425.687-2.179 1.25-3.897 1.25-1.766 0-2.79-.544-2.353-1.25zm-364.88-46.176c1.31-2.247 3.535-5.012 4.946-6.143 1.412-1.131 2.941-3.04 3.399-4.244.912-2.399 3.41-3.002 3.41-.824 0 1.729-7.734 10.815-11.377 13.366l-2.757 1.931zm187.702-19.762c-1.76-3.266-4.96-9.213-7.108-13.216-5.56-10.357-14.1-30.69-13.564-32.296.42-1.258 25.975 48.443 25.975 50.516 0 2.6-2.45.288-5.303-5.004zm-173.931.274c1.14-1.74 2.323-2.914 2.63-2.608.865.866-2.083 5.772-3.469 5.772-.679 0-.302-1.424.839-3.164zm424.234-3.608c0-.286 2.257-6.821 5.016-14.522 5.233-14.608 10.442-33.861 11.91-44.019.85-5.882 3.074-8.317 3.074-3.365 0 4.387-5.105 27.56-8.324 37.788-3.674 11.67-9.295 24.64-10.679 24.64-.548 0-.997-.235-.997-.522zm-404.75-13.478c-2.07-2.07-1.878-4.684.407-5.56 1.39-.534 1.548-1.165.582-2.329-.956-1.152-.807-2.115.533-3.455 1.023-1.022 1.524-2.194 1.115-2.603-.41-.41.196-1.106 1.346-1.547 1.409-.54 1.836-1.607 1.31-3.266-.525-1.653.593-4.482 3.4-8.6 2.3-3.374 4.604-6.137 5.12-6.138 1.167-.002 1.269-1.412-.983 13.651-1.548 10.35-2.58 13.67-5.313 17.095-3.639 4.56-5.153 5.115-7.517 2.752zm123.289.206c-1.148-.67-3.051-3.743-4.23-6.831-1.919-5.024-1.984-7.025-.616-19.057 1.116-9.817 1.161-14.393.168-16.962-2.485-6.425-1-19.606 2.208-19.606.622 0 1.527 6.609 2.01 14.687 1.019 17.02 4.484 26.93 9.89 28.287 7.28 1.827 6.205 14.803-1.558 18.817-4.37 2.26-5.041 2.317-7.872.665zm8.925-16.255c-1.011-.64-2.683-1.164-3.714-1.164-1.033 0-.472.739 1.25 1.646 3.41 1.797 5.44 1.4 2.464-.482zm-8.714-8.003c0-.303-.562-.899-1.25-1.323-.687-.425-1.25-.177-1.25.55 0 .729.563 1.325 1.25 1.325.688 0 1.25-.249 1.25-.552zm-118.126-4.448c1.145-5.644 5.383-15.033 5.52-12.232.139 2.805-3.532 13.753-5.148 15.357-.845.838-.967-.19-.372-3.125zm9.573-16.25c0-1.72.284-2.422.63-1.563.348.86.348 2.266 0 3.125-.346.86-.63.156-.63-1.562zm-3.848-.73c.06-1.456.356-1.752.755-.755.361.902.317 1.98-.099 2.396-.415.415-.71-.323-.656-1.64zm1.389-7.718c.469-5.667 2.738-6.205 3.267-.775.262 2.69-.248 4.144-1.637 4.677-1.672.642-1.951-.027-1.63-3.902zm2.36-9.782c.06-1.456.357-1.752.756-.755.361.902.317 1.98-.099 2.396-.415.415-.71-.323-.656-1.64zm2.402-3.498c0-1.719.563-3.473 1.25-3.897.706-.437 1.25.587 1.25 2.352 0 1.719-.562 3.473-1.25 3.898-.706.436-1.25-.588-1.25-2.353zm-7.401-2.752c.06-1.456.356-1.752.755-.755.361.902.317 1.98-.099 2.396-.415.415-.71-.323-.656-1.64zm421.295-5.208c-2.058-2.759-2.573-2.991-2.604-1.176-.061 3.486-2.54 1.136-2.54-2.409 0-1.765-.544-2.789-1.25-2.352-.687.424-1.25 1.864-1.25 3.198 0 2.816-2.792 3.212-4.883.693-.79-.954-3.113-6.322-5.16-11.931-7.186-19.69-13.202-27.992-24.332-33.58-5.215-2.62-10.955-8.26-9.69-9.523.402-.403 2.647-.732 4.988-.732 3.869 0 4.077-.18 2.291-1.965-1.08-1.08-1.964-2.475-1.964-3.1 0-2.945-21.203-10.516-52.225-18.65-2.943-.77-5.052-1.886-4.686-2.476 1.642-2.658-32.61-4.686-56.839-3.365-28.852 1.573-85.325 11.564-90.922 16.086-.85.687-2.427.911-3.505.498-3.678-1.412-25.436 11.597-32.99 19.723-1.826 1.965-3.87 3.009-5.115 2.613-1.141-.362-3.57.517-5.397 1.954-3.102 2.44-3.321 2.462-3.321.323 0-1.26-1.125-2.993-2.5-3.851-3.93-2.454-2.983-5.71 3.605-12.403 18.817-19.116 50.637-30.881 103.27-38.182 16.76-2.325 25.669-2.774 55-2.77 47.05.006 64.95 2.414 153.264 20.61 29.708 6.12 35.99 7.89 40.457 11.405 3.42 2.69 3.475 2.94 2.747 12.376-.955 12.386-4.17 20.688-11.204 28.937-3.102 3.636-8.649 11.065-12.327 16.508-3.678 5.442-7.53 10.32-8.562 10.838-14.89 7.48-18.47 7.913-22.356 2.703zm-8.739-43.146c-1.234-1.225-1.378-1.082-.7.7.47 1.233 1.169 1.926 1.554 1.542.384-.385 0-1.394-.854-2.242zM512.212 34.745c5.287-2.35 9.436-4.448 9.22-4.664-.87-.87-20.106 7.546-26.3 11.509-9.46 6.051-9.77 7.762-.387 2.135 4.32-2.59 12.18-6.631 17.467-8.98zm91.923-26.96c-.415-.416-1.493-.46-2.395-.1-.998.4-.701.696.755.756 1.318.054 2.056-.241 1.64-.657zm-245.911 99.652c0-1.375.563-2.848 1.25-3.272.688-.425 1.25.352 1.25 1.727s-.562 2.848-1.25 3.273c-.687.424-1.25-.353-1.25-1.728zm-7.21-8.897c0-2.407.257-3.391.572-2.188.314 1.203.314 3.172 0 4.375-.315 1.203-.572.219-.572-2.187zm-1.441-14.48c.06-1.456.356-1.752.755-.755.361.902.317 1.98-.099 2.396-.415.415-.71-.323-.656-1.64z" fill="#a0a0a0"/><path d="M596.06 271.115c-5.077-.828-8.736-2.575-5.391-2.575 1.276 0 1.294-.383.086-1.838-1.333-1.606 1.437-1.813 22.035-1.65 24.92.199 41.965-1.672 60.32-6.618 10.454-2.817 21.364-7.23 21.364-8.642 0-.517 1.56-1.252 3.468-1.634 1.907-.381 5.536-2.701 8.063-5.156 2.527-2.454 4.799-4.462 5.048-4.462 1.95 0 21.53-21.1 25.846-27.85 2.98-4.661 5.669-8.224 5.976-7.916.862.862-7.94 14.2-15.518 23.514-3.747 4.606-10.99 11.575-16.098 15.486-5.107 3.912-9.285 7.33-9.285 7.596 0 1.816 9.286-5.01 17.537-12.893 17.868-17.072 32.927-42.975 41.563-71.497 4.757-15.711 6.659-19.393 3.893-7.538-4.567 19.575-15.09 45.272-24.68 60.262-6.094 9.527-13.275 17.219-24.253 25.977-10.376 8.278-34.005 20.72-35.317 18.597-.585-.946-6.298-.366-18.853 1.915-9.908 1.8-19.703 3.01-21.765 2.692-3.982-.616-13.125 1.62-13.125 3.209 0 1.267.592 1.237 19.826-1 9.186-1.07 16.946-1.699 17.246-1.4.724.724-5.268 1.77-18.947 3.31-12.411 1.396-40.76 1.46-49.04.11zm-428.355-5.77c-56.15-7.645-90.555-39.275-108.83-100.052-2.461-8.183-4.74-15.441-5.065-16.128-1.372-2.908 1.025 9.397 3.264 16.752 5.767 18.943-2.245 4.026-8.987-16.731-2.013-6.2-5.725-19.096-8.248-28.66-3.72-14.1-5.232-17.962-7.996-20.425-1.874-1.67-4.542-5.673-5.928-8.895-1.386-3.222-4.302-8.093-6.48-10.825-2.178-2.731-5.052-7.1-6.387-9.706-1.335-2.607-3.51-5.822-4.833-7.145-1.323-1.323-3.85-5.255-5.615-8.74-2.955-5.83-3.058-6.55-1.293-9.07 1.054-1.505 1.917-4.818 1.917-7.363 0-9.257 9.077-15.016 29.375-18.638 4.125-.736 9.548-1.87 12.052-2.52 36.572-5.02 36.142-4.608 75.321-10.444 1.445-.4 11.346-1.898 22.002-3.328 26.33-3.532 84.277-3.878 106.875-.638 54.693 7.841 92.777 23.817 105.825 44.392 4.373 6.895 4.443 9.224.377 12.423-2.53 1.99-3.002 3.173-2.332 5.843l.84 3.348 2.297-3.628c5.282-8.342 22.362-13.45 49.243-14.724 10.869-.516 18.684-.354 20.625.429 2.726 1.098 2.247 1.297-3.75 1.56-3.781.165-11.72.14-17.642-.057-6.926-.229-11.818.207-13.714 1.221-1.621.868-5.35 1.487-8.286 1.376-3.934-.149-6.026.486-7.952 2.412-1.438 1.438-2.406 2.822-2.151 3.077.254.254 4.942-.342 10.416-1.325 5.475-.983 16.704-2.044 24.954-2.358 13.866-.527 14.126-.498 3.436.39-6.36.527-11.94 1.333-12.396 1.79-.458.457 4.746.835 11.564.84 6.818.005 17.732.81 24.253 1.79 6.521.979 12.047 1.589 12.28 1.355.234-.233-4.258-1.582-9.981-2.997-9.873-2.442-10.043-2.54-3.325-1.914 8.347.779 16.377-.443 15.22-2.316-2.335-3.777 10.017 5.244 12.67 9.255 2.155 3.255 3.76 4.508 5.109 3.99 1.774-.681 1.768-.277-.059 4.1-1.114 2.669-2.56 5.388-3.211 6.041-.652.653-1.193 3.184-1.202 5.625-.021 5.544-1.189 10.063-2.6 10.063-.591 0-2.015-1.435-3.164-3.188-1.845-2.816-1.9-3.976-.466-9.948 2.158-9 .681-11.093-10.628-15.059-21.49-7.537-61.335-6.237-76.22 2.486-6.729 3.943-9.405 8.045-9.405 14.415 0 8.069-1.904 5.86-4.411-5.115-2.384-10.438-5.364-15.9-7.839-14.371-.97.6-1.032 1.847-.202 4.03 2.606 6.855.96 6.928-1.856.082-2.222-5.404-5.008-9.127-10.76-14.375-18.929-17.274-36.947-25.329-72.432-32.378-16.174-3.213-18.615-3.358-58.75-3.475-49.186-.144-64.793 1.124-63.253 5.138.4 1.04.186 1.555-.476 1.145-.66-.408-2.482.07-4.048 1.063-1.566.992-4.817 2.205-7.223 2.696-2.406.49-8.635 2.226-13.842 3.857l-9.466 2.966.061 5.953c.109 10.466-.963 12.37-8.314 14.763-13.37 4.355-19.778 8.236-21.754 13.175-1.011 2.527-3.979 6.315-6.595 8.417-4.124 3.314-4.838 4.663-5.363 10.125-.386 4.02-1.804 8.032-3.916 11.08-2.494 3.598-3.31 6.303-3.306 10.96.006 7.846 2.9 25.754 6.892 42.647 3.291 13.929 3.695 16.662 1.736 11.761-.749-1.872-1.654-2.58-2.376-1.858-1.35 1.35 5.548 16.758 7.501 16.758.683 0 1.242 1.038 1.242 2.307 0 2.323 2.385 8.15 5.705 13.943.985 1.718 3.044 5.569 4.574 8.556 4.276 8.346 18.249 25.053 26.596 31.801 23.283 18.822 49.479 25.893 95.934 25.893 34.09 0 45.579-2.281 68.614-13.621 7.461-3.673 12.624-7.299 24.81-17.422 7.35-6.106 6.126-2.808-1.545 4.165a2162.08 2162.08 0 0 0-10.938 10.008c-9.527 8.808-33.374 17.957-55.16 21.164-16.026 2.359-44.325 2.364-61.609.01zM124.787 20.212c-.86-.347-2.266-.347-3.125 0-.86.346-.157.63 1.562.63s2.422-.284 1.563-.63zm6.25-1.25c-.86-.347-2.266-.347-3.125 0-.86.346-.157.63 1.562.63s2.422-.284 1.563-.63zm9.062-1.672c2.5-1.075 2.5-1.075 0-1.075-1.375 0-3.625.484-5 1.075-2.5 1.074-2.5 1.074 0 1.074 1.375 0 3.625-.484 5-1.074zm23.75-6.25l3.75-.955h-3.75c-2.062 0-5.437.43-7.5.955l-3.75.954h3.75c2.063 0 5.438-.43 7.5-.954zm401.52 253.087c-5.889-2.161-19.852-9.547-19.228-10.17.253-.254 6.31 2.317 13.46 5.714 12.758 6.06 15.127 7.892 5.768 4.456zm107.855.663c1.031-.667 2.438-1.212 3.125-1.212.688 0 .406.545-.625 1.212-1.031.666-2.437 1.211-3.125 1.211-.687 0-.406-.545.625-1.211zM524.64 237.767c-5.637-5.237-12.687-12.971-15.667-17.187-5.368-7.596-8.75-13.29-7.892-13.29 1.004 0 13.393 16.269 13.393 17.588 0 .786.844 1.105 1.875.71 1.178-.452 1.875.012 1.875 1.249 0 1.083 4.033 6.128 8.961 11.21 4.929 5.084 8.679 9.243 8.333 9.243-.345 0-5.24-4.285-10.878-9.523zm-217.584-18.602c.016-.688 2.536-4.048 5.599-7.466 3.063-3.419 5.547-5.669 5.521-5-.026.668-2.546 4.028-5.6 7.466-3.052 3.437-5.537 5.687-5.52 5zm184.516-25.938c-6.218-11.44-17.464-35.989-16.794-36.659.236-.235 5.856 10.237 12.489 23.272 6.633 13.035 11.576 23.7 10.985 23.7-.592 0-3.598-4.641-6.68-10.313zm-172.098 7.34c0-.259.984-1.243 2.188-2.187 1.982-1.555 2.026-1.51.471.472-1.632 2.082-2.659 2.744-2.659 1.716zm426.3-6.566c-.027-.778 1.425-5.278 3.228-10 4.737-12.41 10.351-32.222 11.997-42.336.783-4.813 1.93-9.313 2.547-10 2.578-2.87-5.57 33.985-10.422 47.146-3.866 10.484-7.268 17.515-7.35 15.19zM339.46 181.014c-1.416-2.646-.588-5.494 1.264-4.35.593.367 1.407.133 1.809-.518.403-.65.16-1.537-.539-1.969-2.18-1.348-1.392-3.137 1.383-3.137 2.142 0 2.371-.34 1.19-1.764-1.088-1.31-1.099-1.99-.045-2.641.781-.483 1.145-1.927.81-3.21-.644-2.46 5.981-13.635 8.084-13.635.663 0 .935.437.604.972-.33.535-1.25 5.715-2.044 11.51-1.53 11.178-2.527 13.955-6.626 18.455-3.155 3.464-4.163 3.513-5.89.287zm124.567 1.05c-4.299-2.406-6.139-8.52-5.741-19.081.366-9.73.26-20.924-.299-31.318-.318-5.926 1.132-12.243 2.6-11.335.573.354 1.314 7.27 1.648 15.368.456 11.082 1.182 15.806 2.933 19.096 1.28 2.404 2.35 4.794 2.379 5.312.029.518 2.02 1.925 4.427 3.125 3.628 1.81 4.44 2.955 4.753 6.698.622 7.44-7.398 15.103-12.7 12.135zm7.948-16.275c-4.937-3.998-6.786-2.544-2.305 1.813 3.026 2.942 4.304 3.562 4.631 2.25.25-.997-.798-2.825-2.326-4.063zm-8.621-8.87c-1.605-1.604-3.232-.364-2.044 1.558.46.744 1.41 1 2.11.567.853-.528.832-1.227-.066-2.125zm-117.44-3.38c0-1.03.758-3.843 1.685-6.25.927-2.406 1.685-3.53 1.685-2.5 0 1.032-.758 3.844-1.685 6.25-.927 2.407-1.685 3.532-1.685 2.5zm8.222-23.255c-.502-.501-.895-2.083-.874-3.515.035-2.405.138-2.433 1.339-.37 1.398 2.403 1.04 5.39-.466 3.885zm2.838-14.722c0-1.031.563-2.223 1.25-2.647.688-.425 1.25.07 1.25 1.102 0 1.031-.562 2.223-1.25 2.648-.687.424-1.25-.072-1.25-1.103zm413.894-9.21c-2.058-2.759-2.573-2.991-2.604-1.176-.023 1.304-.615 1.906-1.399 1.421-.747-.462-1.087-1.88-.754-3.153.333-1.272-.18-2.965-1.141-3.762-1.43-1.186-1.746-.756-1.746 2.38 0 2.107-.648 4.23-1.44 4.72-2.045 1.264-4.314-2.352-7.444-11.863-6.292-19.124-13.032-28.71-24.51-34.858-6.475-3.47-11.912-8.763-9.43-9.181.522-.088 2.252-.294 3.845-.458 3.241-.335 6.9-3.132 4.096-3.132-.897 0-2.71-1.37-4.027-3.045-2.943-3.742-15.926-8.79-39.175-15.232-13.955-3.866-16.716-4.977-13.75-5.533 5.107-.956-20.28-3.777-38.9-4.322-16.38-.48-43.318 1.903-65.21 5.768-29.707 5.244-38.5 6.993-41.555 8.267-1.719.717-3.547 1.055-4.062.751-.516-.304-.938.006-.938.688 0 .682-1.588 1.195-3.53 1.14-5.204-.148-20.861 8.586-29.153 16.262-4.102 3.798-7.848 6.325-8.646 5.831-.775-.478-3.02.321-4.99 1.777-3.82 2.825-5.545 3.402-4.34 1.452.406-.657-.685-2.128-2.426-3.268-4.182-2.74-4.007-4.103 1.321-10.328 9.44-11.029 27.68-21.502 49.264-28.286C569.73 3.022 641.499-.334 705.099 10.476c43.515 7.396 108.236 21.182 114.538 24.397 5.992 3.056 6.869 7.119 4.348 20.143-2.193 11.333-3.946 15.03-10.962 23.114-2.88 3.32-8.2 10.621-11.822 16.227-5.493 8.5-7.377 10.445-11.344 11.713-2.617.837-5.292 2.016-5.945 2.62-.654.605-3.279 1.1-5.834 1.1-3.613 0-5.216-.765-7.21-3.438zm9.856.938c0-.688-.877-1.25-1.949-1.25s-1.6.562-1.176 1.25c.425.687 1.302 1.25 1.949 1.25s1.176-.563 1.176-1.25zm-4.167-21.875c0-1.032-.75-1.875-1.666-1.875-2.107 0-2.181 2.084-.104 2.922.859.346 1.609.675 1.666.729.057.054.104-.745.104-1.776zm1.042-4.375c.425-.688.21-1.25-.477-1.25-.688 0-1.598.562-2.023 1.25-.425.687-.21 1.25.477 1.25.688 0 1.598-.563 2.023-1.25zm-15.177-11.98c1.532-.589 1.635-1.318.527-3.75-.757-1.662-1.868-3.02-2.47-3.02-.6 0-.453 1.196.33 2.658 1.11 2.074 1.051 2.895-.268 3.731-1.952 1.237-.903 1.449 1.881.38zM489.93 47.2c4.337-3.412 25.297-13.66 36.803-17.993 5.024-1.893 8.918-3.658 8.653-3.923-.501-.5-17.366 5.048-27.162 8.937-6.17 2.45-21.702 12.015-23.05 14.197-1.38 2.232 1.213 1.568 4.756-1.218zM609.37 7.754c.286-.255-2.071-.464-5.239-.464-3.168 0-6.134.605-6.592 1.346-.578.935 1.022 1.077 5.24.465 3.338-.485 6.304-1.091 6.59-1.347zm-250.44 99.17c.469-1.234 1.168-1.927 1.553-1.543.384.385 0 1.394-.854 2.242-1.234 1.225-1.378 1.082-.7-.7zm80.11-50.719c-1.875-.738-1.993-1.153-.625-2.211 1.23-.951 2.275-.682 3.872.996 2.296 2.414 1.016 2.893-3.247 1.215zm-5.816-3.876c0-.666.844-.887 1.875-.492 1.031.396 1.875.941 1.875 1.211 0 .27-.844.492-1.875.492-1.031 0-1.875-.545-1.875-1.211z" fill="#5f5f5f"/><path d="M600.416 271.075c-4.638-.473-8.81-1.237-9.27-1.698-.462-.46-.042-.846.932-.857 1.457-.015 1.439-.23-.104-1.215-1.23-.784 5.655-1.145 20-1.047 16.804.114 20.92.441 17.755 1.412-2.642.81-3.89 1.867-3.477 2.942.716 1.866-10.16 2.06-25.836.463zm42.496-.863c.859-.347 2.265-.347 3.125 0 .859.346.156.63-1.563.63-1.719 0-2.422-.284-1.562-.63zm10.078-1.276c.902-.361 1.98-.317 2.396.098.415.416-.323.711-1.641.657-1.456-.06-1.752-.356-.755-.755zm-470.18-2.953c-1.26-.788-3.51-1.104-5-.703-3.428.923-23.726-2.38-35.211-5.728-41.442-12.081-69.773-45.555-85.06-100.502-3.427-12.32-5.565-17.05-5.565-12.314 0 1.345 1.385 7.48 3.077 13.63 1.693 6.153 2.873 11.39 2.624 11.64-1.311 1.31-10.836-27.287-18.223-54.716-2.955-10.975-4.726-15.263-7.486-18.125-1.988-2.063-4.464-5.787-5.502-8.275-1.038-2.488-3.842-7.086-6.231-10.216-2.39-3.13-5.29-7.563-6.444-9.85-1.155-2.288-3.362-5.566-4.904-7.284-1.543-1.72-4.093-5.48-5.668-8.358-2.408-4.4-2.643-5.79-1.479-8.75.762-1.934 1.763-5.767 2.225-8.517.462-2.75 1.319-5.93 1.904-7.066 1.805-3.504 11.458-7.279 26.926-10.53 38.726-9.363 64.01-14.112 84.682-13.03.963 0 9.54-1.24 19.062-2.756 15.39-2.45 22.17-2.762 61.062-2.805 39.95-.044 45.144.197 59.8 2.77 41.903 7.36 72.107 18.5 86.887 32.05 12.36 11.33 15.72 19.718 9.523 23.778-1.74 1.14-2.882 2.53-2.538 3.088.345.558-.762.749-2.46.424-2.051-.392-3.105-.017-3.14 1.118-.028.94-1.013-.039-2.187-2.174-1.174-2.136-5.939-7.24-10.588-11.342-18.997-16.763-39.882-25.248-77.987-31.683-14.252-2.406-19.662-2.652-50.04-2.27-18.734.235-33.096.045-31.916-.422 1.862-.737 1.815-.861-.354-.934-4.11-.139-24.643 2.488-29.725 3.803-2.599.672-4.394 1.758-3.989 2.414.405.655-.14 1.192-1.212 1.192s-1.949.562-1.949 1.25c0 .687-.78 1.25-1.735 1.25-2.392 0-22.42 5.863-28.02 8.203-3.445 1.44-4.143 2.182-2.819 3 1.411.873 1.53 2.526.605 8.335l-1.156 7.246-7.5 2.62c-11.186 3.907-18.095 7.855-19.302 11.03-1.252 3.292-7.346 10.816-8.76 10.816-.532 0-.681-1.49-.333-3.311.391-2.05.151-3.014-.63-2.53-.694.428-1.587 2.903-1.983 5.498-2.347 15.373-3.513 19.711-6.012 22.372-2.546 2.71-2.667 3.716-1.97 16.367.418 7.605 2.296 20.357 4.31 29.264 2.993 13.242 3.286 15.962 1.82 16.887-1.453.916-1.234 2.264 1.291 7.965 1.672 3.775 3.975 7.635 5.117 8.578 1.142.944 2.077 2.71 2.077 3.926 0 6.72 14.722 30.606 26.684 43.297 22.085 23.429 44.824 32.72 87.365 35.696 15.756 1.102 25.325 1.114 38.75.048 20.43-1.623 30.038-4.187 46.576-12.427 12.48-6.219 17.453-9.574 25.313-17.079 2.921-2.79 5.312-4.513 5.312-3.83 0 2.272-22.313 20.399-29.65 24.085-11.248 5.653-23.646 9.715-36.6 11.991-15.179 2.668-48.476 3.89-51.664 1.896zM61.578 157.055c-.4-.997-.695-.7-.755.755-.054 1.318.24 2.056.656 1.641.416-.415.46-1.494.099-2.396zM350.953 49.52c-.897-.897-1.479-.971-1.479-.188 0 1.669 1.478 3.147 2.313 2.313.355-.356-.02-1.312-.834-2.125zM128.85 20.31c10.327-2.064 15.97-4.158 11.405-4.232-3.772-.062-25.036 5.123-26.405 6.438-.806.774-.141.95 1.875.497 1.719-.387 7.625-1.603 13.125-2.703zm69.063-5.132c-1.204-.315-3.172-.315-4.375 0-1.204.314-.22.572 2.187.572 2.406 0 3.39-.258 2.188-.572zm-30.938-4.323c2.079-.696.163-.901-5.723-.613-4.866.238-9.929 1.085-11.25 1.882-1.904 1.148-.717 1.276 5.723.613 4.469-.46 9.531-1.307 11.25-1.882zm471.25 255.185c-3.013-.966-2.986-1.006.776-1.126 13.56-.433 45.94-8.29 53.508-12.984 4.34-2.693 9.677-4.743 8.847-3.4-1.844 2.983 3.403.848 10.169-4.139 16.616-12.244 33.724-36.245 43.638-61.218 1.854-4.67 3.573-8.289 3.82-8.042.726.726-6.457 18.626-11.473 28.595-9.592 19.06-19.991 31.516-35.535 42.563-10.354 7.357-28.83 16.64-29.855 14.997-.486-.779-7.922.091-20.145 2.358-10.656 1.976-19.656 3.548-20 3.494-.344-.054-2.031-.548-3.75-1.098zm-76.25-3.75c-1.031-.667-1.312-1.212-.625-1.212.688 0 2.094.545 3.125 1.212 1.031.666 1.313 1.211.625 1.211-.687 0-2.094-.545-3.125-1.211zm146.25-19.774c0-1.51 2.372-3.272 3.238-2.405.315.315-.285 1.284-1.333 2.153-1.188.986-1.905 1.081-1.905.252zm5-3.767c0-.573 2.39-2.912 5.313-5.199l5.312-4.158-4.941 5.199c-5.208 5.479-5.684 5.827-5.684 4.158zm-195.853-8.647c-8.598-10.13-15.016-19.062-13.695-19.062.33 0 3.266 3.632 6.526 8.073 3.26 4.44 6.4 7.782 6.975 7.426.576-.356 1.047.036 1.047.871s1.435 3.4 3.189 5.699c5.095 6.68 2.613 4.834-4.042-3.007zm-24.519-35.625c-6.013-10.83-12.138-23.174-12.078-24.34.028-.535.933.715 2.012 2.778 1.08 2.062 4.572 8.53 7.763 14.375 6.08 11.138 7.913 15 7.117 15-.262 0-2.429-3.516-4.814-7.813zm256.02-8.437c1.916-6.24 6.731-18.09 6.79-16.712.071 1.625-6.059 18.27-7.074 19.212-.371.343-.243-.782.285-2.5zm-408.565-4.584c-1.522-1.522-.861-4.166 1.042-4.166a1.88 1.88 0 0 0 1.875-1.875c0-1.032-.562-1.875-1.25-1.875-.687 0-1.25-.629-1.25-1.396 0-.78 1.102-1.108 2.5-.742 2.679.7 3.422-.895 1.09-2.337-.96-.593-.743-1.246.68-2.041 1.377-.771 1.82-2.019 1.299-3.66-.514-1.62.375-4.252 2.539-7.523 1.831-2.767 3.496-4.839 3.7-4.604.203.235-.364 5.702-1.262 12.149-1.372 9.851-2.181 12.294-5.073 15.312-3.575 3.731-4.488 4.16-5.89 2.758zm122.415-1.097c-3.826-3.826-4.897-10.815-3.485-22.75.947-8.01.935-13.488-.043-19.201-1.509-8.815-.218-20.878 1.59-14.868.518 1.718.997 8.209 1.065 14.423.096 8.65.711 12.447 2.625 16.202 1.375 2.696 2.5 5.515 2.5 6.263 0 .747 1.929 2.057 4.286 2.91 7.111 2.57 7.24 11.078.255 16.736-3.323 2.692-6.29 2.788-8.793.285zm9.757-15.187c-2.66-1.944-6.755-2.157-6.755-.352 0 .705 1.33 1.787 2.955 2.405 1.625.618 3.411 2.15 3.97 3.406.898 2.022 1.075 1.933 1.539-.771.334-1.952-.283-3.645-1.71-4.688zm-8.226-7.466c-.608-3.136-3.529-3.567-3.529-.52 0 1.535.807 2.604 1.967 2.604 1.164 0 1.801-.851 1.562-2.084zm295.32 13.854c.06-1.456.356-1.752.755-.755.361.902.317 1.98-.099 2.396-.415.415-.71-.323-.656-1.64zm-281.169-6.458c-1.364-3.188-1.333-3.261.425-1.011 1.042 1.334 1.895 2.881 1.895 3.437 0 1.9-.848 1.013-2.32-2.426zm277.419.208c.06-1.456.356-1.752.755-.755.361.902.317 1.98-.099 2.396-.415.415-.71-.323-.656-1.64zm1.25-5c.06-1.456.356-1.752.755-.755.361.902.317 1.98-.099 2.396-.415.415-.71-.323-.656-1.64zm5-23.75c.06-1.456.356-1.752.755-.755.361.902.317 1.98-.099 2.396-.415.415-.71-.323-.656-1.64zm8.651-31.145c-1.487-2.407-3.135-4.375-3.66-4.375-.527 0-1.515-1.249-2.195-2.774-1.118-2.504-1.32-2.26-2.081 2.5-.464 2.9-1.385 5.274-2.047 5.274-1.55 0-4.102-5.09-6.897-13.75-5.372-16.65-13.315-27.453-24.37-33.146-3.094-1.594-6.576-4.037-7.74-5.43-2.055-2.462-1.985-2.543 2.49-2.916 3.35-.279 4.727-1.03 5.054-2.753.33-1.744-.08-2.167-1.552-1.602-1.281.492-2.002.1-2.002-1.086 0-1.02-1.828-2.984-4.062-4.364-3.824-2.363-26.961-10.127-42.188-14.157-3.781-1-5.61-1.87-4.062-1.933 1.546-.062 2.812-.586 2.812-1.163 0-1.694-22.785-4.155-44.375-4.794-23.616-.698-44.779 1.37-80 7.814-24.265 4.44-33.241 6.586-34.408 8.224-.362.508-1.397.466-2.301-.092-1.086-.671 1.68-2.201 8.158-4.511 17.968-6.409 14.923-7.875-3.565-1.716-13.27 4.42-28.376 11.996-34.68 17.394-4.788 4.099-4.422 6.46.507 3.275 1.74-1.125 4.71-2.931 6.602-4.015l3.437-1.97-3.125 2.283c-1.719 1.255-5.545 4.49-8.503 7.19-2.958 2.699-6.745 4.967-8.416 5.04-1.67.073-3.654.75-4.408 1.504-1.655 1.655-7.423-3.136-7.423-6.165 0-1.06 3.984-5.616 8.853-10.124 24.018-22.237 76.82-36.355 141.98-37.961 41.855-1.032 68.187 1.52 119.792 11.611 51.941 10.157 77.715 15.944 82.5 18.524 4.546 2.452 5.037 3.205 5.406 8.305.487 6.72-1.784 19.147-4.437 24.277-1.052 2.035-4.747 7.104-8.211 11.266-3.464 4.16-8.756 11.4-11.76 16.085-4.138 6.454-6.588 8.963-10.105 10.345-2.554 1.003-5.62 2.372-6.814 3.042-1.193.67-3.82 1.219-5.835 1.219-2.84 0-4.274-.985-6.369-4.375zm11.25 1.875c0-.688-1.125-1.25-2.5-1.25s-2.5.562-2.5 1.25c0 .687 1.125 1.25 2.5 1.25s2.5-.563 2.5-1.25zm-6.062-16.875c0-.654-.605-1.39-1.344-1.636-.74-.246-1.344.49-1.344 1.636 0 1.145.605 1.881 1.344 1.635.739-.246 1.344-.982 1.344-1.635zm1.737-5.313c-.195-1.203.25-2.945.988-3.87 1.057-1.324.746-1.59-1.46-1.25-1.541.238-2.732.932-2.646 1.543.086.61-.526 1.532-1.36 2.047-2.037 1.259-.372 3.718 2.516 3.718 1.507 0 2.192-.765 1.962-2.188zm-15.152-14.821c2.621-1.006 2.497-3.323-.37-6.862l-2.346-2.898.138 5.26c.076 2.892.242 5.259.37 5.259.126 0 1.12-.342 2.208-.76zM596.636 14.034c-.416-.415-1.494-.46-2.396-.098-.997.399-.701.695.755.755 1.318.054 2.056-.241 1.64-.657zm12.213-5.494c1.803-.775.516-1.1-4.614-1.163-3.912-.048-7.461.475-7.886 1.163-.95 1.536 8.924 1.536 12.5 0zm-152.25 82.587c-1.875-3.176-1.96-4.416-.642-9.346 2.446-9.147.805-11.757-9.608-15.268-4.812-1.623-9.312-3.238-10-3.589-1.476-.754 7.696.438 11.094 1.441 1.502.444 2.041.202 1.501-.672-.464-.75-2.643-1.885-4.844-2.521-3.237-.936-3.45-1.179-1.115-1.27 1.588-.062 2.55-.658 2.138-1.324-1.33-2.152 9.493-.298 12.115 2.075 1.37 1.24 3.316 3.85 4.324 5.797 1.14 2.207 2.506 3.283 3.622 2.855 2.653-1.018 2.168 1.725-1.302 7.36-2.224 3.61-3.09 6.823-3.119 11.562-.044 7.455-1.056 8.16-4.163 2.9zm1.625-22.587c0-.688-.562-1.25-1.25-1.25-.687 0-1.25.562-1.25 1.25 0 .687.563 1.25 1.25 1.25.688 0 1.25-.563 1.25-1.25zM355.53 78.4l-2.07-9.235 3.184-4.212c2.912-3.85 8.72-7.222 16.448-9.546l2.993-.9-2.68 2.877c-3.08 3.304-3.51 5.491-.884 4.483 5.767-2.213 17.921-3.107 31.328-2.306l15 .896-15 .92c-31.564 1.938-44.087 8.29-45.89 23.273-.206 1.708-1.246-.968-2.43-6.25zm72.382-16.938c.859-.347 2.265-.347 3.125 0 .859.346.156.63-1.563.63-1.719 0-2.422-.284-1.562-.63zm-16.875-5.068c1.89-.286 4.984-.286 6.875 0 1.89.287.343.52-3.438.52s-5.328-.233-3.437-.52zm27.812-1.604c.425-.688 1.02-1.25 1.324-1.25.303 0 .551.562.551 1.25 0 .687-.596 1.25-1.324 1.25-.728 0-.976-.563-.551-1.25zm-55.625-1.26c-1.423-.912-.92-1.207 2.085-1.221 2.178-.01 4.991-.343 6.25-.739 1.828-.574 1.911-.478.415.474-3.336 2.123-6.83 2.717-8.75 1.486zm22.237-2.167c4.323-.245 11.073-.243 15 .005 3.926.247.388.447-7.862.445-8.25-.002-11.462-.205-7.138-.45z" fill="#010101"/></svg>