<svg xmlns="http://www.w3.org/2000/svg" width="504.429" height="390.202" viewBox="0 0 504.429 390.202"><path fill="#B1B6BC" d="M503.399 174.107c-2.46-12.782-6.643-28.033-10.87-38.299-6.967-16.917-16.645-32.169-29.773-45.073-1.148-1.128-2.058-2.695-3.984-2.723l-.052 2.076c-2.934-1.048-4.929-3.046-6.014-5.962l-1.032-.974-.954-1.03-.255-.252.278.229 1.025.959.98 1.026 2.09-.027c-.847-3.202-3.551-4.538-6.084-6.045-.313.848.215 2.282-1.192 2.341-.642.027-1.524-.663-1.94-1.272-.853-1.25.159-1.694 1.175-2.008-.824-2.388-2.404-3.829-4.996-4.002-1.065-3.384-4.267-4.515-6.813-6.212C408.837 49.431 380.024 38.59 349.3 32.59c-34.272-6.693-68.92-9.769-103.786-8.959-38.034.883-75.911 4.423-112.419 15.778-44.022 13.692-81.084 37.63-106.439 77.281-11.143 17.425-17.045 36.743-19.837 57.118-.177 1.29.499 3.179-.956 3.969.07.826-.04 1.669-.325 2.439a5.597 5.597 0 0 1-.081.696 5.752 5.752 0 0 1-.109 2.524c1.382 3.638.142 7.484.149 11.174.006 3.611.92 7.332.117 10.931a5.73 5.73 0 0 1 .223 2.425c.047.433.054.871.004 1.303.274.717.402 1.495.366 2.269.673.645.448 1.88.615 2.787 10.219 55.245 42.705 93.091 92.156 117.476 26.683 13.157 55.296 19.954 84.544 24.337 29.55 4.428 59.327 5.957 89.124 4.808 47.617-1.836 94.089-10.215 137.826-29.766 24.779-11.076 45.576-27.895 62.631-49.283 7.754-9.724 14.496-19.976 19.274-31.382 5.302-12.656 11.416-28.236 12.436-42.076l-1.414-34.332zM482.7 121.059c-2.472-.736-2.719-2.814-2.942-4.904 1.82 1.131 2.536 2.924 2.942 4.904zm-2.991-4.978c-1.659-.303-1.905-1.548-1.95-2.923 1.179.619 1.785 1.624 1.95 2.923zm-2.009-3.008c-1.617-.332-1.905-1.553-1.952-2.938 1.185.627 1.807 1.625 1.952 2.938zm-4.937-6.988c1.58.899 2.684 2.146 2.951 4.007-2.748.028-2.932-1.923-3.017-3.95-4.102-.516-4.139-4.714-6.15-7.13 2.994 1.509 5.01 3.917 6.216 7.073zm-30.975-32.996l1.59 3.026c-3.097-.971-3.105-.975-1.59-3.026zm-4.197-1.486l.607.515-.26.361c-.202-.173-.415-.336-.592-.532-.02-.022.158-.225.245-.344zM66.972 75.812c22.488-18.159 48.31-29.548 76.117-36.986 26.142-6.992 52.769-10.088 79.677-11.975 18.978-1.331 37.964-1.339 56.876-.561 30.574 1.257 60.995 4.694 90.606 12.941 16.694 4.65 32.662 11.301 47.921 19.569.998.541 1.812 1.418 2.712 2.139 2.865.417 5.069 1.967 6.957 4.059 1.297.225 2.295.88 2.945 2.039 1.352.155 2.357.819 2.988 2.032.588.15 1.269.193 1.328 1.013.007.102-.191.316-.291.314-.805-.014-.952-.644-1.112-1.251-1.421-.021-2.603-.413-3.041-1.96-1.394-.062-2.544-.502-3.04-1.959-2.929-.279-5.223-1.673-7.001-3.974-7.243-1.064-12.816-5.995-19.521-8.4-9.048-3.245-18.073-6.4-27.3-9.19-14.527-4.392-29.415-6.456-44.223-8.93-13.069-2.184-26.319-3.315-39.643-3.835-16.3-.636-32.591-1.062-48.885-.77-34.493.619-68.718 3.968-102.101 12.999-30.908 8.362-59.019 22.295-82.502 44.586-1.078 1.024-2.12 2.07-3.657 2.356 2.866-6.588 9.01-10.073 14.19-14.256zm359.036 114.651c-6.513-7.24-9.555-16.295-14.602-24.261-10.101-15.943-24.032-26.594-40.906-34.557-18.998-8.965-39.172-12.317-59.56-15.859-25.435-4.419-50.953-5.319-76.609-4.64-18.466.489-36.854 2.216-55.067 5.335-19.642 3.364-38.327 9.613-55.39 20.087-6.066 3.723-12.222 7.484-16.581 13.397-.693.939-1.813 1.907-1.028 3.053.884 1.291 2.158.339 3.108-.198 1.881-1.064 3.824-2.105 5.474-3.477 9.678-8.048 21.162-12.25 32.861-16.329 14.408-5.024 29.109-8.253 44.271-9.414 20.359-1.559 40.564-5.293 61.095-4.417 24.785 1.058 49.321 3.84 73.809 8.152 20.832 3.668 40.083 10.522 58.318 20.935 9.296 5.308 16.453 12.944 23.515 20.674 1.808 1.979 3.041 4.961 3.441 7.646.757 5.081 1.461 10.149 2.444 15.207.828 4.258-1.72 7.22-6.29 7.103-7.132-.183-14.116 1.161-21.375.495-13.769-1.263-27.871-.058-41.097 3.251-10.828 2.709-21.468 2.42-32.205 3.417-19.989 1.856-39.764-2.24-59.664-1.932-12.906.2-25.877-.865-38.722.926-17.549 2.447-35.069-1.221-52.604.058-4.635.338-9.305-.192-13.932.827-3.36.74-6.435-.812-9.658-1.604-7.819-1.922-15.894-1.757-23.844-.929-4.331.451-8.597.945-12.913.363-3.176-.428-5.605 1.413-4.886 3.969 2.225 7.912 1.015 16.438 5.398 24.039 4.13 7.163 9.805 12.925 16.077 17.553 17.057 12.586 36.422 20.415 57.187 24.854 12.208 2.61 24.443 5.139 36.847 6.399 25.005 2.54 49.993 4.061 75.165.93 15.508-1.928 31.122-3.196 46.36-6.646 12.642-2.862 24.969-7.05 37.264-11.233 16.06-5.463 28.194-16.665 40.42-27.628 3.9-3.497 6.403-8.356 8.198-13.469.95-2.706 2.444-7.218 5.209-6.186 3.011 1.125.262 4.8-.674 7.327-3.722 10.045-9.46 18.133-17.409 25.886-26.725 26.066-60.602 34.937-95.218 42.246-17.596 3.716-35.662 3.88-55.086 3.252-17.274 1.202-35.907-.353-54.111-4.139-26.736-5.559-53.969-9.796-78.203-23.924-20.122-11.73-36.614-26.867-42.202-50.062-3.691-15.322-3.559-31.14 4.203-46.168 12.081-23.391 32.434-36.853 55.195-47.45 20.2-9.405 41.735-14.589 63.696-17.822 9.028-1.329 18.194-1.897 27.32-2.345 30.041-1.475 59.658 1.905 89.297 6.803 33.842 5.593 62.069 21.016 86.309 44.659 10.517 10.258 17.678 22.484 20.613 36.87.948 4.644.306 9.624.266 14.45-.014 1.698-1.087 2.794-2.83 2.938-3.165.261-6.513.757-8.57-2.496-1.119-1.771-2.851-3.694-1.783-5.936.977-2.049 3.261-1.125 4.993-1.203 6.097-.273 8.724-4.266 4.666-8.777zM48.778 93.865c-.503 2.329-1.9 3.809-4.645 4.965.787-2.955 2.497-4.153 4.645-4.965zm-8.362 9.014l.515.5-1.134.659.619-1.159zm-2.008 3.388c-1.14 2.956-2.381 4.769-4.635 5.789.555-2.321 1.351-4.471 4.635-5.789zm436.706 166.287c-15.805 22.06-36.27 39.52-60.732 51.425a238.805 238.805 0 0 1-46.25 16.888c-17.314 4.364-34.734 7.57-52.369 9.747-8.726 1.077-17.43 2.365-26.282 2.756-18.149.801-36.311 1.439-54.432.657-36.473-1.573-72.746-5.088-107.547-17.141-21.017-7.279-41.064-16.88-58.634-30.59-19.122-14.921-36.005-32.082-46.123-54.752-11.455-25.665-15.429-52.236-11.62-80.295 1.835-13.515 4.267-26.592 10.415-38.742 3.561-7.038 6.206-14.697 12.164-20.324-.132 3.719-2.679 6.356-4.43 9.269-6.586 10.956-10.485 23.007-14.195 35.071-1.337 4.346-.716 9.252.699 13.823.556 1.798 1.729 2.774 3.362 3.387 6.994 2.624 14.002 5.21 20.978 7.88 2.072.793 3.93-.246 5.888-.392 5.674-.422 7.792 1.323 7.744 6.845-.164 18.794 3.424 36.842 12.518 53.294 8.526 15.426 20.229 28.192 34.93 38.319 21.172 14.584 44.925 22.222 69.773 26.872 16.496 3.087 33.244 4.443 49.997 5.747 18.822 1.464 37.66 1.296 56.421.528 22.573-.924 45.03-3.982 67.255-8.241 17.391-3.333 33.734-9.791 50.011-16.675 11.085-4.689 20.926-11.106 29.698-18.904 5.508-4.897 11.782-9.187 16.149-15.335 1.564-2.203 3.738-2.626 6.146-2.552 3.399.104 6.687-.062 9.31-2.667.34-.338 1.005-.832 1.251-.71 4.695 2.318 8.111-.484 11.971-2.506 3.401-1.781 5.146.363 5.491 3.844.141 1.425-.179 3.24 1.78 3.701 1.918.45 3.312-.824 4.154-2.216 4.67-7.717 10.883-14.761 10.308-24.761-.148-2.572.561-5.356 1.507-7.799 3.111-8.03 2.982-16.44 3.344-24.799.286-6.617.823-13.258.508-19.853-.211-4.409-1.572-8.795-2.692-13.121-.968-3.741-1.157-7.384-.07-12.175 3.435 5.023 3.855 10.117 4.653 14.717 6.869 39.588.589 76.785-23.049 109.78z"/><path fill="#FEFEFE" d="M5.348 183.436a5.142 5.142 0 0 1-.616 1.4v19.067c.397.481.691 1.039.882 1.636.802-3.598-.112-7.318-.118-10.928-.006-3.691 1.234-7.537-.148-11.175z"/><path fill="#D6D8DC" d="M257.149 295.065c-17.274 1.202-35.907-.352-54.115-4.138-26.736-5.559-53.969-9.796-78.203-23.924-20.122-11.731-36.614-26.868-42.202-50.062-3.692-15.323-3.559-31.14 4.203-46.168 12.082-23.392 32.434-36.853 55.195-47.45 20.2-9.404 41.735-14.588 63.696-17.822 9.028-1.329 18.194-1.897 27.32-2.345 30.041-1.475 59.658 1.905 89.297 6.803 33.842 5.593 62.069 21.016 86.309 44.659 10.517 10.258 17.678 22.484 20.613 36.87.947 4.644.306 9.625.266 14.45-.014 1.699-1.087 2.794-2.83 2.938-3.166.262-6.514.757-8.57-2.496-1.119-1.771-2.851-3.694-1.783-5.936.977-2.049 3.261-1.126 4.993-1.203 6.097-.273 8.724-4.266 4.666-8.777-6.513-7.24-9.555-16.295-14.602-24.261-10.1-15.944-24.031-26.595-40.906-34.557-18.998-8.965-39.172-12.317-59.56-15.859-25.436-4.418-50.953-5.319-76.609-4.64-18.466.489-36.853 2.216-55.067 5.335-19.642 3.363-38.327 9.612-55.39 20.087-6.066 3.723-12.222 7.484-16.581 13.397-.692.939-1.812 1.908-1.028 3.053.884 1.291 2.158.34 3.108-.198 1.881-1.064 3.824-2.105 5.474-3.477 9.678-8.048 21.162-12.25 32.861-16.329 14.408-5.024 29.109-8.253 44.271-9.414 20.359-1.559 40.564-5.293 61.095-4.417 24.786 1.058 49.322 3.84 73.809 8.152 20.832 3.668 40.083 10.522 58.318 20.935 9.296 5.309 16.453 12.944 23.515 20.674 1.808 1.979 3.041 4.961 3.441 7.646.757 5.081 1.461 10.149 2.444 15.207.827 4.258-1.72 7.22-6.29 7.103-7.132-.183-14.116 1.161-21.375.495-13.769-1.263-27.871-.058-41.097 3.251-10.828 2.709-21.468 2.42-32.205 3.417-19.989 1.856-39.764-2.239-59.664-1.932-12.906.2-25.877-.865-38.722.926-17.55 2.447-35.069-1.221-52.604.058-4.634.338-9.304-.192-13.932.827-3.36.74-6.436-.812-9.658-1.604-7.819-1.922-15.894-1.757-23.844-.929-4.331.451-8.597.945-12.913.363-3.176-.428-5.604 1.414-4.886 3.969 2.226 7.912 1.015 16.438 5.398 24.039 4.131 7.164 9.805 12.925 16.077 17.553 17.057 12.586 36.422 20.414 57.187 24.854 12.208 2.61 24.443 5.14 36.847 6.399 25.004 2.54 49.992 4.061 75.165.93 15.508-1.929 31.123-3.196 46.36-6.646 12.643-2.863 24.969-7.05 37.264-11.233 16.059-5.464 28.194-16.665 40.42-27.628 3.901-3.498 6.403-8.356 8.198-13.469.95-2.706 2.444-7.218 5.209-6.186 3.011 1.124.263 4.799-.674 7.327-3.722 10.045-9.46 18.133-17.409 25.886-26.725 26.066-60.602 34.937-95.218 42.246-17.593 3.714-35.659 3.879-55.082 3.251z"/><path fill="#D6D8DC" d="M33.707 112.088c-.09 3.77-2.669 6.426-4.435 9.364-6.587 10.955-10.485 23.007-14.195 35.071-1.336 4.345-.715 9.251.699 13.823.556 1.797 1.73 2.774 3.362 3.387 6.993 2.624 14.002 5.21 20.978 7.88 2.072.793 3.93-.247 5.888-.392 5.674-.422 7.792 1.323 7.744 6.845-.164 18.795 3.424 36.842 12.518 53.294 8.526 15.425 20.229 28.192 34.93 38.319 21.172 14.584 44.925 22.221 69.773 26.872 16.496 3.087 33.243 4.443 49.997 5.747 18.822 1.465 37.66 1.296 56.421.528 22.573-.924 45.03-3.982 67.255-8.241 17.392-3.332 33.734-9.791 50.011-16.675 11.085-4.688 20.926-11.105 29.698-18.904 5.508-4.897 11.783-9.187 16.149-15.335 1.564-2.203 3.738-2.626 6.146-2.552 3.399.105 6.688-.061 9.31-2.667.34-.338 1.005-.831 1.251-.71 4.695 2.318 8.111-.484 11.971-2.506 3.401-1.781 5.146.363 5.491 3.844.141 1.425-.179 3.24 1.78 3.701 1.917.451 3.311-.824 4.154-2.216 4.67-7.717 10.883-14.761 10.308-24.761-.148-2.572.561-5.357 1.507-7.799 3.11-8.03 2.982-16.44 3.344-24.799.286-6.617.823-13.258.508-19.853-.211-4.41-1.572-8.796-2.692-13.121-.968-3.741-1.158-7.384-.07-12.175 3.435 5.022 3.854 10.117 4.653 14.717 6.869 39.588.59 76.785-23.049 109.78-15.804 22.06-36.27 39.52-60.732 51.425a238.757 238.757 0 0 1-46.25 16.888c-17.313 4.364-34.734 7.57-52.369 9.747-8.726 1.077-17.43 2.365-26.282 2.756-18.148.802-36.311 1.439-54.432.657-36.473-1.574-72.747-5.088-107.547-17.141-21.016-7.279-41.063-16.88-58.634-30.59-19.122-14.921-36.005-32.083-46.123-54.752-11.455-25.665-15.429-52.236-11.62-80.295 1.835-13.515 4.267-26.592 10.415-38.742 3.571-7.057 6.22-14.742 12.214-20.374l-.045-.045zm386.907-50.832c-7.241-1.068-12.814-5.999-19.518-8.404-9.048-3.246-18.074-6.4-27.3-9.19-14.527-4.392-29.416-6.456-44.223-8.93-13.07-2.183-26.32-3.315-39.643-3.835-16.3-.636-32.591-1.062-48.885-.77-34.493.618-68.719 3.968-102.101 12.999-30.908 8.361-59.019 22.295-82.502 44.586-1.094 1.038-2.148 2.105-3.724 2.372l.04.041c2.856-6.625 9.021-10.117 14.217-14.312 22.489-18.159 48.311-29.548 76.117-36.986 26.142-6.992 52.769-10.089 79.677-11.975 18.978-1.331 37.964-1.339 56.876-.561 30.574 1.258 60.995 4.694 90.606 12.941 16.694 4.65 32.662 11.301 47.921 19.569.997.54 1.812 1.418 2.71 2.141a32.57 32.57 0 0 0-.268.314zm52.082 44.887c-4.1-.517-4.138-4.715-6.149-7.131 2.994 1.509 5.01 3.917 6.215 7.073l-.066.058zM48.778 93.865c-.503 2.329-1.9 3.808-4.645 4.965.787-2.955 2.497-4.152 4.645-4.965zm403.972-9.783l2.09-.027-.084.005 1.023 1.024-.024-.024 1.024 1.024-.024-.024 1.024 1.028-.028-.028 1.028 1.029-.006-.079-.053 2.105.021-.021c-2.945-1.046-4.946-3.046-6.032-5.97l.041-.042z"/><path fill="#D6D8DC" d="M33.754 112.133c.556-2.35 1.334-4.533 4.652-5.866-1.151 2.985-2.402 4.807-4.698 5.821l.046.045zM427.615 65.23c-2.926-.283-5.219-1.677-6.999-3.976l.265-.312c2.867.415 5.071 1.965 6.959 4.057l-.225.231zm21.14 12.78c-.312.848.216 2.282-1.192 2.341-.643.027-1.525-.663-1.94-1.272-.853-1.25.158-1.694 1.175-2.008l-.067-.012 2.06 1.037-.036-.086zm-6.978-4.943l1.601 3.047c-3.106-.974-3.106-.974-1.577-3.044l-.024-.003zm33.969 37.025c-2.781.045-2.964-1.915-3.05-3.95l.066-.057c1.587.903 2.696 2.156 2.956 4.031l.028-.024zm3.968 6.034c1.871 1.14 2.591 2.971 2.998 4.991l.043-.036c-2.555-.727-2.778-2.859-3.005-4.989l-.036.034z"/><path fill="#D6D8DC" d="M479.751 116.091c-1.73-.293-1.956-1.586-1.996-3.003l-.043.042c1.226.625 1.846 1.656 2.004 2.995l.035-.034z"/><path fill="#D6D8DC" d="M477.755 113.088c-1.686-.317-1.966-1.577-2.008-2.996l-.028.024c1.224.634 1.859 1.659 1.993 3.014l.043-.042zm-46.969-46.053c1.35.157 2.355.822 2.986 2.034l-.076.077c-1.42-.022-2.602-.414-3.036-1.963l.126-.148z"/><path fill="#D6D8DC" d="M427.839 64.999c1.296.225 2.295.88 2.946 2.038l-.125.147c-1.395-.061-2.546-.501-3.043-1.956l.222-.229zm10.358 7.12l-.259.36c-.202-.173-.415-.336-.592-.532-.02-.022.159-.225.245-.344.203.171.405.343.606.516zm-4.425-3.05c.588.151 1.269.194 1.328 1.013.007.102-.191.315-.291.314-.805-.014-.952-.644-1.113-1.25l.076-.077zM39.754 104.122l.662-1.242.515.5-1.214.706.037.036zm443.993 18.961l-.991-2.003-.043.036.995 2.006.039-.039zm-.039.039l.201.171-.162-.21z"/><path fill="#D6D8DC" d="M39.717 104.085l-.191.23.228-.193zm425.02-7.982l-1.004-.997-.002.002.998 1.003.008-.008z"/><path fill="#D6D8DC" d="M462.723 94.12l1.008.988.002-.002-.989-1.007-.021.021zm-.999-1.002l.999 1.002.021-.021-1.002-.999-.018.018zm-1-1l1 1 .018-.018-1-1-.018.018z"/><path fill="#D6D8DC" d="M459.724 91.119l1.001.999.018-.018-.999-1.001-.02.02z"/><path fill="#D6D8DC" d="M458.719 90.116l1.005 1.003.02-.02-1.003-1.004a.447.447 0 0 0-.022.021zm-406.003-.033l-.199.217.24-.176zm398.005-7.962l-.255-.252.278.229zm1.049.935l.979 1.026-.042.043-1.032-.975c.002 0 .095-.094.095-.094z"/><path fill="#D6D8DC" d="M450.744 82.098l1.025.959-.094.093-.954-1.029.023-.023z"/><path fill="#B1B6BC" d="M448.791 78.097l-2.06-1.037c.93-.138 1.54.361 2.06 1.037zm9.988 9.993l-1.028-1.029c.674.011 1.017.354 1.028 1.029z"/><path fill="#B1B6BC" d="M457.779 87.088l-1.024-1.028c.692-.007 1.015.354 1.024 1.028z"/><path fill="#B1B6BC" d="M456.779 86.085l-1.024-1.024c.693-.011 1.034.331 1.024 1.024z"/><path fill="#B1B6BC" d="M455.779 85.084l-1.023-1.024c.698-.015 1.034.331 1.023 1.024z"/></svg>