<svg xmlns="http://www.w3.org/2000/svg" width="845.929" height="648.182" viewBox="0 0 845.929 648.182"><path d="M831.613 323.27l-49.369-12.638m55.059 8.403l-11.3-50.124m55.765 17.578l-36.146 34.193m49.114 24.314l-44.812-12.004m1.358 49.294l-9.673-42.016m-45.101 25.474l33.658-32.095" fill="none" stroke="#4F709E" stroke-width="27" stroke-miterlimit="10"/><path fill="none" stroke="#4F709E" stroke-width="40" stroke-miterlimit="10" d="M834.167 320.682l-13.537-17.096m20.979 17.096l6.269-25.344m0 30.547l28.38-2.615m-31.514 11.864l17.324 18.584m-25.72-18.584l-10.345 22.714m6.567-28.956l-28.929.581"/><path d="M806.928 275.621l-12.689-18.985m43.064 7.476v-23.828m35.282 35.337l16.481-16.913m5.67 41.226l16.971-10.049m-13.196 35.039l22.808-.961m-30.781 33.885l21.033 9.986m-44.441 11.942l14.638 17.962m-47.601-11.26l-.015 22.058m-29.215-33.317l-13.208 15.355m-7.216-36.856l-21.724 12.026m14.746-42.474l-22.522 1.173m30.822-29.105l-26.562-10.316" fill="none" stroke="#4F709E" stroke-width="20" stroke-miterlimit="10"/><path fill="none" stroke="#294F7A" stroke-width="18" stroke-miterlimit="10" d="M837.303 319.035l-11.3-50.124m19.619 51.771l33.694-33.335m13.799 56.028l-47.721-11.471m-63.15-21.272l51.228 14.279m-36.964 40.833l36.658-33.84m17.521 47.872l-10.078-43.857"/><path fill="none" stroke="#143A61" stroke-width="18" stroke-miterlimit="10" d="M836.348 323.27l-14.747-17.486m20.008 17.486l6.269-23.336m-1.5 25.951l22.876-1.922m-25.869 9.686l15.589 17.033m-22.626-17.033l-8.763 20.069m4.985-24.826l-23.881 1.163"/><path fill="#2D527F" d="M831.613 245.148h11.38v18.965h-11.38zm-3.189 141.019h11.457v18.964h-11.457zm-69.151-67.132h18.965v9.857h-18.965zm139.238.733h18.964v10.286h-18.964zm8.447-33.278l4.744 8.216-16.422 9.481-4.744-8.216zM787.16 301.579l5.122-7.515-24.371-11.53-5.122 7.514zm120.217 68.65l4.194-6.76-21.926-11.716-4.193 6.761zm-125.973-19.547l4.427 7.668-16.422 9.482-4.427-7.669zm20.816 21.151l7.574 6.82-12.686 14.089-7.574-6.82zm69.529 3.386l-7.376 7.278 11.657 15.241 7.375-7.279zm-69.65-97.582l6.59-4.998-10.37-16.003-6.59 4.998zm74.464 1.482l-7.01-6.136 12.49-14.271 7.01 6.135z"/><path fill="#4F709E" d="M838.161 261.194c-35.727 0-64.69 28.962-64.69 64.69s28.962 64.69 64.69 64.69c35.727 0 64.69-28.962 64.69-64.69s-28.963-64.69-64.69-64.69zm0 120.007c-30.55 0-55.317-24.766-55.317-55.317s24.766-55.317 55.317-55.317c30.55 0 55.317 24.766 55.317 55.317s-24.767 55.317-55.317 55.317z"/><path fill="#4F709E" d="M840.401 302.01c-14.279 0-25.854 11.575-25.854 25.854s11.575 25.854 25.854 25.854 25.854-11.575 25.854-25.854-11.575-25.854-25.854-25.854zm0 47.962c-12.21 0-22.108-9.898-22.108-22.108s9.898-22.108 22.108-22.108 22.108 9.898 22.108 22.108-9.898 22.108-22.108 22.108z"/><circle fill="#4F709E" cx="839.853" cy="327.587" r="11.429"/><circle fill="#2D527F" cx="839.853" cy="327.587" r="4.317"/><path fill="#2D527F" d="M840.239 305.784c-12.157 0-22.012 9.855-22.012 22.012s9.855 22.012 22.012 22.012 22.012-9.855 22.012-22.012c-.001-12.157-9.856-22.012-22.012-22.012zm0 40.834c-10.395 0-18.823-8.427-18.823-18.823 0-10.395 8.427-18.823 18.823-18.823s18.823 8.427 18.823 18.823c-.001 10.396-8.428 18.823-18.823 18.823z"/><path d="M152.93 326.975l-49.368-12.637m55.058 8.402l-11.3-50.124m55.766 17.578l-36.146 34.194m49.113 24.313l-44.811-12.003m1.358 49.293l-9.673-42.016m-45.101 25.474l33.657-32.094" fill="none" stroke="#4F709E" stroke-width="27" stroke-miterlimit="10"/><path fill="none" stroke="#4F709E" stroke-width="40" stroke-miterlimit="10" d="M155.485 324.388l-13.538-17.097m20.98 17.097l6.269-25.344m0 30.546l28.379-2.615m-31.514 11.864l17.325 18.584m-25.72-18.584l-10.346 22.714m6.568-28.956l-28.93.581"/><path d="M128.246 279.326l-12.689-18.985m43.063 7.476V243.99m35.283 35.336l16.481-16.913m5.669 41.227l16.971-10.05m-13.195 35.039l22.808-.96m-30.781 33.884l21.032 9.986m-44.441 11.942l14.639 17.962m-47.601-11.26l-.015 22.058m-29.215-33.317l-13.208 15.356m-7.216-36.857l-21.724 12.026m14.746-42.474l-22.522 1.173m30.822-29.104l-26.562-10.317" fill="none" stroke="#4F709E" stroke-width="20" stroke-miterlimit="10"/><path fill="none" stroke="#294F7A" stroke-width="18" stroke-miterlimit="10" d="M158.62 322.74l-11.3-50.124m19.62 51.772l33.694-33.335m13.799 56.027l-47.721-11.471m-63.15-21.271l51.227 14.278m-36.963 40.833l36.658-33.84m17.521 47.872l-10.078-43.857"/><path fill="none" stroke="#143A61" stroke-width="18" stroke-miterlimit="10" d="M157.666 326.975l-14.748-17.486m20.009 17.486l6.269-23.335m-1.501 25.95l22.877-1.921m-25.869 9.686l15.589 17.032m-22.626-17.032l-8.763 20.068m4.985-24.826l-23.881 1.163"/><path fill="#2D527F" d="M152.93 248.853h11.38v18.965h-11.38zm-3.189 141.019h11.457v18.964h-11.457zm-69.15-67.132h18.965v9.857H80.591zm139.238.733h18.964v10.286h-18.964zm8.446-33.277l4.744 8.217-16.422 9.481-4.744-8.217zm-119.797 15.088l5.121-7.515-24.371-11.53-5.121 7.515zm120.217 68.651l4.193-6.761-21.925-11.716-4.193 6.761zm-125.974-19.548l4.428 7.668-16.422 9.481-4.428-7.668zm20.816 21.15l7.575 6.82-12.686 14.089-7.574-6.82zm69.529 3.387l-7.376 7.278 11.658 15.241 7.375-7.278zm-69.649-97.581l6.59-4.999-10.37-16.003-6.59 4.998zm74.465 1.481l-7.01-6.136 12.49-14.27 7.01 6.135z"/><path fill="#4F709E" d="M159.478 264.9c-35.727 0-64.69 28.962-64.69 64.69s28.962 64.69 64.69 64.69 64.69-28.962 64.69-64.69-28.962-64.69-64.69-64.69zm0 120.006c-30.55 0-55.317-24.766-55.317-55.317s24.766-55.317 55.317-55.317c30.55 0 55.317 24.766 55.317 55.317s-24.766 55.317-55.317 55.317z"/><path fill="#4F709E" d="M161.719 305.716c-14.279 0-25.854 11.575-25.854 25.854s11.575 25.854 25.854 25.854 25.854-11.575 25.854-25.854-11.575-25.854-25.854-25.854zm0 47.961c-12.21 0-22.108-9.898-22.108-22.108s9.898-22.108 22.108-22.108 22.108 9.898 22.108 22.108-9.898 22.108-22.108 22.108z"/><circle fill="#4F709E" cx="161.171" cy="331.292" r="11.429"/><circle fill="#2D527F" cx="161.171" cy="331.292" r="4.317"/><path fill="#2D527F" d="M161.556 309.489c-12.157 0-22.012 9.855-22.012 22.012s9.855 22.012 22.012 22.012 22.012-9.855 22.012-22.012-9.855-22.012-22.012-22.012zm0 40.834c-10.395 0-18.823-8.427-18.823-18.823s8.427-18.823 18.823-18.823c10.395 0 18.823 8.427 18.823 18.823s-8.427 18.823-18.823 18.823z"/><path d="M736.112 322.504l-39.686-10.159m44.26 6.755l-9.084-40.293m44.828 14.13l-29.056 27.487m39.48 19.545l-36.022-9.649m1.092 39.625l-7.776-33.775m-36.255 20.477l27.056-25.799" fill="none" stroke="#4F709E" stroke-width="27" stroke-miterlimit="10"/><path fill="none" stroke="#4F709E" stroke-width="40" stroke-miterlimit="10" d="M738.165 320.424l-10.882-13.743m16.865 13.743l5.039-20.373m0 24.555L772 322.504m-25.333 9.537l13.927 14.939m-20.675-14.939l-8.317 18.259m5.28-23.276l-23.256.467"/><path d="M716.269 284.201l-10.2-15.262m34.617 6.01v-19.154m28.362 28.406l13.249-13.596m4.557 33.141l13.643-8.079m-10.608 28.167l18.335-.772M783.48 350.3l16.907 8.027m-35.724 9.601l11.767 14.438m-38.265-9.051l-.012 17.731m-23.485-26.782l-10.617 12.344m-5.8-29.628l-17.464 9.667m11.854-34.143l-18.105.943m24.777-23.396l-21.352-8.293" fill="none" stroke="#4F709E" stroke-width="20" stroke-miterlimit="10"/><path fill="none" stroke="#294F7A" stroke-width="18" stroke-miterlimit="10" d="M740.686 319.1l-9.084-40.293m15.772 41.617l27.085-26.797m11.092 45.039l-38.361-9.222m-50.764-17.099l41.18 11.478m-29.713 32.824l29.468-27.203m14.084 38.484l-8.101-35.256"/><path fill="none" stroke="#143A61" stroke-width="18" stroke-miterlimit="10" d="M739.919 322.504l-11.855-14.056m16.084 14.056l5.039-18.758m-1.206 20.86l18.39-1.544m-20.796 7.786l12.532 13.692m-18.188-13.692l-7.044 16.132m4.007-19.956l-19.198.934"/><path fill="#2D527F" d="M736.112 259.704h9.148v15.245h-9.148zm-2.563 113.361h9.21v15.245h-9.21zM677.961 319.1h15.245v7.924h-15.245zm111.928.589h15.245v8.269h-15.245zm6.791-26.751l3.813 6.605-13.202 7.622-3.813-6.605zm-96.302 12.129l4.117-6.04-19.591-9.269-4.117 6.041zm96.638 55.186l3.371-5.434-17.625-9.418-3.371 5.434zM695.75 344.54l3.56 6.164-13.202 7.622-3.56-6.165zm16.734 17.002l6.09 5.484-10.196 11.325-6.09-5.484zm55.892 2.722l-5.929 5.85 9.371 12.252 5.928-5.851zm-55.989-78.442l5.297-4.018-8.336-12.865-5.297 4.018zm59.858 1.191l-5.636-4.932 10.04-11.472 5.636 4.932z"/><path fill="#4F709E" d="M741.376 272.604c-28.72 0-52.002 23.282-52.002 52.002s23.282 52.002 52.002 52.002c28.72 0 52.002-23.282 52.002-52.002-.001-28.72-23.282-52.002-52.002-52.002zm0 96.469c-24.558 0-44.467-19.908-44.467-44.467s19.908-44.467 44.467-44.467c24.558 0 44.467 19.908 44.467 44.467s-19.909 44.467-44.467 44.467z"/><path fill="#4F709E" d="M743.177 305.414c-11.478 0-20.783 9.305-20.783 20.783s9.305 20.783 20.783 20.783 20.783-9.305 20.783-20.783-9.305-20.783-20.783-20.783zm0 38.555c-9.815 0-17.772-7.957-17.772-17.772s7.957-17.772 17.772-17.772 17.772 7.957 17.772 17.772-7.957 17.772-17.772 17.772z"/><circle fill="#4F709E" cx="742.736" cy="325.974" r="9.188"/><circle fill="#2D527F" cx="742.736" cy="325.974" r="3.47"/><path fill="#2D527F" d="M743.046 308.448c-9.772 0-17.695 7.922-17.695 17.695s7.922 17.695 17.695 17.695c9.772 0 17.695-7.922 17.695-17.695-.001-9.773-7.923-17.695-17.695-17.695zm0 32.825c-8.357 0-15.131-6.774-15.131-15.131 0-8.356 6.774-15.131 15.131-15.131 8.356 0 15.131 6.774 15.131 15.131s-6.775 15.131-15.131 15.131z"/><path d="M240.973 326.107l-39.686-10.159m44.26 6.755l-9.084-40.293m44.828 14.13l-29.056 27.487m39.48 19.545l-36.022-9.649m1.092 39.625l-7.776-33.775m-36.255 20.477l27.056-25.799" fill="none" stroke="#4F709E" stroke-width="27" stroke-miterlimit="10"/><path fill="none" stroke="#4F709E" stroke-width="40" stroke-miterlimit="10" d="M243.026 324.027l-10.882-13.743m16.865 13.743l5.039-20.373m0 24.555l22.813-2.102m-25.333 9.537l13.927 14.939m-20.675-14.939l-8.317 18.259m5.28-23.276l-23.256.467"/><path d="M221.13 287.804l-10.201-15.262m34.618 6.01v-19.154m28.362 28.406l13.249-13.596m4.557 33.141l13.643-8.079m-10.608 28.167l18.335-.772m-24.744 27.238l16.907 8.027m-35.724 9.601l11.767 14.438m-38.265-9.051l-.012 17.731m-23.485-26.782l-10.617 12.344m-5.801-29.628l-17.463 9.667m11.854-34.143l-18.105.943m24.777-23.396l-21.352-8.293" fill="none" stroke="#4F709E" stroke-width="20" stroke-miterlimit="10"/><path fill="none" stroke="#294F7A" stroke-width="18" stroke-miterlimit="10" d="M245.547 322.703l-9.084-40.293m15.772 41.617l27.085-26.797m11.092 45.039l-38.361-9.222m-50.764-17.099l41.18 11.478m-29.713 32.824l29.468-27.203m14.084 38.484l-8.101-35.256"/><path fill="none" stroke="#143A61" stroke-width="18" stroke-miterlimit="10" d="M244.78 326.107l-11.855-14.056m16.084 14.056l5.039-18.758m-1.206 20.86l18.39-1.544m-20.796 7.786l12.532 13.692m-18.188-13.692l-7.045 16.132m4.008-19.956l-19.198.934"/><path fill="#2D527F" d="M240.973 263.307h9.148v15.245h-9.148zm-2.564 113.361h9.21v15.245h-9.21zm-55.587-53.965h15.245v7.924h-15.245zm111.928.589h15.245v8.269H294.75zm6.789-26.752l3.813 6.606-13.201 7.622-3.814-6.605zm-96.3 12.13l4.117-6.04-19.591-9.269-4.117 6.04zm96.638 55.186l3.371-5.434-17.625-9.419-3.371 5.435zM200.61 348.141l3.56 6.165-13.201 7.622-3.56-6.165zm16.735 17.003l6.09 5.484-10.197 11.325-6.09-5.484zm55.892 2.723l-5.93 5.85 9.372 12.252 5.928-5.851zm-55.989-78.442l5.297-4.018-8.336-12.865-5.297 4.018zm59.86 1.191l-5.635-4.932 10.04-11.472 5.636 4.932z"/><path fill="#4F709E" d="M246.237 276.207c-28.72 0-52.002 23.282-52.002 52.002s23.282 52.002 52.002 52.002 52.002-23.282 52.002-52.002-23.282-52.002-52.002-52.002zm0 96.469c-24.558 0-44.467-19.908-44.467-44.467s19.908-44.467 44.467-44.467c24.558 0 44.467 19.908 44.467 44.467s-19.909 44.467-44.467 44.467z"/><path fill="#4F709E" d="M248.038 309.017c-11.478 0-20.783 9.305-20.783 20.783s9.305 20.783 20.783 20.783 20.783-9.305 20.783-20.783-9.305-20.783-20.783-20.783zm0 38.555c-9.815 0-17.772-7.957-17.772-17.772s7.957-17.772 17.772-17.772 17.772 7.957 17.772 17.772-7.957 17.772-17.772 17.772z"/><circle fill="#4F709E" cx="247.597" cy="329.577" r="9.188"/><circle fill="#2D527F" cx="247.597" cy="329.577" r="3.47"/><path fill="#2D527F" d="M247.907 312.051c-9.772 0-17.695 7.922-17.695 17.695 0 9.772 7.922 17.695 17.695 17.695 9.772 0 17.695-7.922 17.695-17.695-.001-9.773-7.923-17.695-17.695-17.695zm0 32.825c-8.356 0-15.131-6.774-15.131-15.131s6.774-15.131 15.131-15.131 15.131 6.774 15.131 15.131-6.775 15.131-15.131 15.131z"/><path fill="#350E27" d="M257.499 261.563h470.666v68.665H257.499z"/><path fill="#45002F" d="M257.5 261.563c0-138.901 105.362-251.502 235.333-251.502s235.333 112.601 235.333 251.502"/><path fill="#51203E" d="M261.754 257.379c0-134.388 103.142-243.331 230.373-243.331s230.372 108.943 230.372 243.331"/><path fill="#6C2A52" d="M293.463 206.403c0-99.968 93.836-181.008 201.935-181.008s187.73 77.024 197.73 179.857"/><path fill="#6C2A52" d="M320.165 215.198c0-91.495 76.653-165.666 171.209-165.666s171.209 74.171 171.209 165.666"/><path fill="#45002F" d="M323.5 212.706c0-88.905 74.918-160.978 167.333-160.978S658.166 123.8 658.166 212.706"/><path d="M435.044 203.395h-88.679s-15.272.75-14.533-12.75 23.155-7.75 19.953-8.5l96.807 18.25s14.78 3.008-.985 3.008l-12.563-.008zm.568-10.361l-85.455-16.984s-14.863-2.189-11.52-15.289 23.824-3.167 20.884-4.516l89.731 36.441s13.656 5.78-1.536 2.761l-12.104-2.413zm4.008-9.928l-79.113-32.1s-13.907-4.833-8.172-17.075c5.735-12.242 23.571 1.2 20.996-.654l79.503 51.953s12.055 8.137-2.01 2.43l-11.204-4.554zm6.341-9.152l-70.518-45.707s-12.576-7.207-4.23-18.795c8.345-11.588 22.867 5.063 20.751 2.748l66.495 66.077s10.025 10.284-2.512 2.159l-9.986-6.482zm7.283-8.369l-59.398-56.028s-10.794-9.051-.144-19.35 21.339 8.449 19.758 5.828l51.115 75.717s7.637 11.736-2.922 1.776l-8.409-7.943zm8.781-6.466l-46.509-66.125s-8.663-10.929 3.478-18.645 18.891 12.52 17.865 9.673l34.884 83.362s5.133 12.863-3.135 1.107l-6.583-9.372zm8.128-3.433l-29.534-75.555s-5.83-12.722 7.799-17.323c13.629-4.602 15.394 16.725 15.071 13.706l14.149 89.553s1.941 13.758-3.31.326l-4.175-10.707zm9.802-2.628l-15.311-79.867s-3.47-13.595 11.662-15.806 12.612 19.203 12.892 16.159l-3.57 91.076s-.791 13.952-3.513-.247l-2.16-11.315zm10.773-.91l.082-81.456s-.86-14.029 14.873-13.335 9.011 21.278 9.888 18.338l-21.36 88.902s-3.519 13.573-3.504-.909l.021-11.54zm12.387 1.184l15.892-79.769s1.906-13.904 16.729-10.259c14.823 3.644 4.436 22.539 5.841 19.824l-37.566 83.054s-5.98 12.631-3.155-1.55l2.259-11.3zm8.791 3.278l34.828-75.111s5.23-13.292 18.774-6.251-1.152 23.295.874 20.939l-56.723 73.324s-8.887 11.089-2.695-2.264l4.942-10.637zm7.998 4.898l50.539-68.034s8.057-12.198 19.281-2.98-6.511 22.73-4.04 20.754l-70.914 62.577s-11.017 9.412-2.033-2.683l7.167-9.634zm9.068 7.627l61.521-59.228s10.048-10.769 19.394-.035c9.347 10.735-10.404 21.344-7.634 19.774l-80.489 50.813s-12.45 7.59-1.513-2.94l8.721-8.384zm6.419 7.743l74.21-46.674s12.334-8.748 19.749 4.413-14.765 19.52-11.639 18.544l-91.872 33.686s-14.158 4.934-.965-3.364l10.517-6.605zm6.04 10.648l82.606-32.32s13.936-6.309 18.478 7.328-18.567 16.113-15.293 15.689l-97.249 17.212s-14.933 2.409-.247-3.337l11.705-4.572zm2.757 9.165l86.861-16.291s14.812-3.589 16.735 10.654c1.922 14.244-21.161 12.353-17.878 12.548l-98.4-1.288s-15.066-.428.376-3.324l12.306-2.299z" fill="#6C2A52"/><g fill="#6C2A52"><circle cx="489.275" cy="204.653" r="32.564"/><path d="M518.888 214.267c-4.36.093-5.669 4.692-4.07 7.62a5.658 5.658 0 0 0-.602-.018c-3.5.075-5.033 3.056-4.675 5.743-.631-.286-1.367-.446-2.213-.428-3.262.07-4.816 2.663-4.723 5.191-.812-.746-1.932-1.214-3.36-1.183-2.589.055-4.102 1.702-4.57 3.642-.729-1.525-2.205-2.664-4.41-2.617-2.044.044-3.416 1.079-4.134 2.467-.55-1.919-2.132-3.5-4.722-3.445-1.436.031-2.54.553-3.32 1.341.142-2.64-1.523-5.405-4.934-5.332-1.338.029-2.385.486-3.153 1.185 1.026-2.964-.553-6.941-4.637-6.853a5.239 5.239 0 0 0-1.7.308c2.358-2.863 1.029-8.462-3.806-8.359-6.447.138-6.233 10.136.214 9.998a5.239 5.239 0 0 0 1.7-.308c-2.358 2.863-1.03 8.462 3.806 8.359 1.338-.029 2.385-.486 3.153-1.185-1.026 2.964.553 6.941 4.637 6.853 1.436-.031 2.54-.553 3.32-1.341-.142 2.64 1.523 5.405 4.934 5.332 2.044-.044 3.416-1.079 4.134-2.467.55 1.919 2.132 3.5 4.722 3.445 2.589-.055 4.102-1.702 4.57-3.642.729 1.525 2.205 2.664 4.41 2.617 3.262-.07 4.816-2.663 4.723-5.19.812.746 1.932 1.214 3.36 1.183 3.5-.075 5.033-3.056 4.675-5.743.631.286 1.367.446 2.213.428 4.36-.093 5.669-4.692 4.07-7.62.194.016.395.023.602.018 6.448-.139 6.233-10.137-.214-9.999z"/></g><ellipse fill="#8E3A6C" cx="489.275" cy="204.7" rx="31.106" ry="30.107"/><circle fill="#6C2A52" cx="489.275" cy="204.7" r="23.754"/><circle fill="#8E3A6C" cx="488.832" cy="204.7" r="17.636"/><circle fill="#6C2A52" cx="488.832" cy="204.653" r="8.75"/><circle fill="#A35F89" cx="488.832" cy="204.653" r="8.141"/><path fill="#A35F89" d="M488.942 217.274l-.599 17.32s-.012 3.634-8.809 2.537c-9.063-1.13-5.139-4.706-5.673-4.098l13.123-18.477s2.155-2.816 2.048.264l-.09 2.454z"/><path fill="#6C2A52" d="M487.034 216.887l-4.899 13.931s-.952 2.947-6.557.259c-5.774-2.768-2.218-4.868-2.734-4.484l13.585-12.311s2.174-1.844 1.303.632l-.698 1.973z"/><path fill="#A35F89" d="M485.395 215.806l-6.993 8.968s-1.4 1.931-6.17-2.448c-4.914-4.511-1.228-4.723-1.776-4.63l14.826-4.182s2.351-.57 1.107 1.024l-.994 1.268zm3.886 1.468l.599 17.32s.012 3.634 8.809 2.537c9.063-1.13 5.139-4.706 5.673-4.098l-13.123-18.477s-2.155-2.816-2.048.264l.09 2.454z"/><path fill="#6C2A52" d="M490.271 217.751l4.047 20.079s.935 4.191-6.012 4.636c-7.157.458-5.251-5.397-5.497-4.593L488.082 215s.9-3.664 1.62-.094l.569 2.845zm2.729-2.676l12.064 8.516s2.575 1.72-1.571 6.422c-4.271 4.844-5.307.831-5.08 1.435l-8.091-16.492s-1.174-2.605.971-1.091l1.707 1.21z"/><path fill="#A35F89" d="M492.619 215.34l8.717 8.306s1.785 1.801 4.66-3.253c2.962-5.206-.312-4.973.193-4.945l-14.141-2.463s-2.215-.296-.665 1.181l1.236 1.174zm-5.351-1.029s-9.362 14.385-11.464 14.405c0 0 3.402-2.717 11.464-14.405z"/><path fill="#A35F89" d="M476.998 228.683s1.75 1.213 8.5-10.935c0-.001-5.991 10.087-8.5 10.935m14.143-13.911s10.718 13.405 12.812 13.22c0 0-3.649-2.373-12.812-13.22z"/><path fill="#A35F89" d="M502.761 228.075s-1.624 1.377-9.524-10.056c0 0 6.947 9.456 9.524 10.056m-8.176-6.902s4.956 7.285 6.635 7.694c0 0-1.211 1.408-6.635-7.694zm-6.152-4.714s-2.474 20.167-4.891 22.917c0 0 2.948.5 4.891-22.917zm.496 0s2.474 20.167 4.891 22.917c.001 0-2.949.5-4.891-22.917zm-.464 7.573s-2.205 17.683-3.429 17.373c.001-.001 2.149-7.141 3.429-17.373zm3.139 16.935s-1.795-7.237-2.57-17.52c.001 0 1.333 17.77 2.57 17.52m-2.868-17.523l-.358 17.414s.614 4.4.358-17.414z"/><path fill="#6C2A52" d="M473.802 219.253s1.562 1.066 9.662-4.542c0 0-7.103 4.576-9.662 4.542m9.257-3.736s-4.896 3.838-6.56 3.911c-.001 0 1.203.962 6.56-3.911zm.64.334s-4.428 4.369-6.073 4.632c.001 0 1.307.818 6.073-4.632zm20.467 1.752s-1.415 1.254-10.156-3.292c-.001 0 7.622 3.647 10.156 3.292m-9.653-2.543s5.339 3.192 6.999 3.056c0 0-1.074 1.105-6.999-3.056zm-.594.412s4.942 3.778 6.607 3.832c0 0-1.192.976-6.607-3.832zm-8.308 2.459s-7.752 15.313-9.839 15.56c-.001 0 3.088-3.069 9.839-15.56zm-7.807 16.208s1.871 1.016 7.268-11.79c0 0-4.866 10.676-7.268 11.79m7.069-8.498s-3.123 8.239-4.66 9.028c-.001 0 1.505 1.087 4.66-9.028zm7.431-7.71s7.752 15.313 9.839 15.56c-.001 0-3.089-3.069-9.839-15.56zm7.806 16.208s-1.871 1.016-7.268-11.79c-.001 0 4.865 10.676 7.268 11.79m-7.068-8.498s3.123 8.239 4.66 9.028c-.001 0-1.505 1.087-4.66-9.028z"/><path fill="#A35F89" d="M484.464 221.017s-4.223 7.733-5.854 8.304c0 0 1.342 1.283 5.854-8.304z"/><path fill="#6C2A52" d="M450.948 249.928l-119.023.916s-2.039-8.502-7.023-6.371c-4.984 2.13-.012-1.593-.012-1.593l.215-15.421s7.679 1.564 8.277-7.367l119.01.89s-.325 6.904 5.2 7.212l.129 16.78c.001-.002-6.485-1.049-6.773 4.954z"/><path fill="#A35F89" d="M448.511 247.163l-113.15.87s-1.93-7.046-6.67-5.275-.01-1.321-.01-1.321l.219-12.784s7.299 1.289 7.875-6.115l113.136.626s-.316 5.723 4.936 5.974l.107 13.91c.001.001-6.165-.861-6.443 4.115z"/><path fill="#6C2A52" d="M446.981 243.962l-109.305.841s-1.853-5.266-6.435-3.934-.008-.988-.008-.988l.233-9.561s7.048.952 7.618-4.587l109.29.278s-.315 4.281 4.759 4.459l.08 10.403c-.001.001-5.954-.633-6.232 3.089z"/><path fill="#A35F89" d="M448.542 236.406a.282.282 0 0 0-.282-.282H334.157a.282.282 0 1 0 0 .564h114.102a.283.283 0 0 0 .283-.282zm.417-3.686a.282.282 0 0 0-.282-.282H334.573a.282.282 0 1 0 0 .564h114.102a.283.283 0 0 0 .284-.282zm-7.46-3.774c0-.126-.108-.227-.241-.227h-97.392c-.133 0-.241.102-.241.227 0 .126.108.227.241.227h97.392c.133 0 .241-.102.241-.227zm-1.794 11.024c0-.126-.108-.227-.241-.227h-97.392c-.133 0-.241.102-.241.227 0 .126.108.227.241.227h97.392a.234.234 0 0 0 .241-.227z"/><path fill="#6C2A52" d="M528.08 249.735l119.023.916s2.039-8.502 7.023-6.371c4.984 2.13.012-1.593.012-1.593l-.215-15.421s-7.679 1.564-8.277-7.367l-119.01.89s.325 6.904-5.2 7.212l-.129 16.78c.001-.001 6.485-1.048 6.773 4.954z"/><path fill="#A35F89" d="M530.517 246.971l113.15.87s1.931-7.046 6.67-5.275.01-1.321.01-1.321l-.219-12.784s-7.299 1.289-7.875-6.115l-113.136.626s.316 5.723-4.936 5.974l-.107 13.91c0 .001 6.166-.861 6.443 4.115z"/><path fill="#6C2A52" d="M532.047 243.77l109.305.841s1.853-5.266 6.435-3.934.008-.988.008-.988l-.233-9.561s-7.048.952-7.618-4.587l-109.29.278s.315 4.281-4.759 4.459l-.08 10.403c.002.001 5.955-.633 6.232 3.089z"/><path fill="#A35F89" d="M530.487 236.213c0-.156.126-.282.282-.282h114.102a.282.282 0 1 1 0 .564H530.77a.281.281 0 0 1-.283-.282zm-.416-3.685c0-.156.126-.282.282-.282h114.102a.282.282 0 1 1 0 .564H530.353a.282.282 0 0 1-.282-.282zm7.458-3.775c0-.126.108-.227.241-.227h97.392c.133 0 .241.102.241.227 0 .126-.108.227-.241.227H537.77a.233.233 0 0 1-.241-.227zm1.794 11.025c0-.126.108-.227.241-.227h97.392c.133 0 .241.102.241.227 0 .126-.108.227-.241.227h-97.392c-.133 0-.241-.102-.241-.227z"/><path fill="#6C2A52" d="M318.332 239.624c0 7.329-5.373 13.271-12 13.271h-16.5c-6.627 0-12-5.942-12-13.271v-13.647c0-7.329 5.373-13.271 12-13.271h16.5c6.627 0 12 5.942 12 13.271v13.647zm385.791-.93c0 7.329-5.373 13.271-12 13.271h-16.5c-6.627 0-12-5.942-12-13.271v-13.647c0-7.329 5.373-13.271 12-13.271h16.5c6.627 0 12 5.942 12 13.271v13.647z"/><path fill="#A35F89" d="M307.333 216.654l-17.25.368s1.75 8.689-6.75 6.935v15.419s6 .768 5.75 8.018h16.75s-1.75-5.986 5.5-6.174l1.25-17.263c0 .001-6.25 1.102-5.25-7.303z"/><path fill="#6C2A52" d="M306.302 218.121l-15.431.329s1.565 7.772-6.038 6.204v13.793s5.367.687 5.144 7.173h14.983s-1.565-5.355 4.92-5.523l1.118-15.443c-.001 0-5.592.985-4.696-6.533z"/><path fill="#A35F89" d="M674.457 216.838l17.25.368s-1.75 8.689 6.75 6.935v15.419s-6 .768-5.75 8.018h-16.75s1.75-5.986-5.5-6.174l-1.25-17.263s6.25 1.102 5.25-7.303z"/><path fill="#6C2A52" d="M675.489 218.304l15.431.329s-1.565 7.772 6.038 6.204v13.793s-5.367.687-5.144 7.173h-14.983s1.565-5.355-4.92-5.523l-1.118-15.443c-.001.001 5.59.986 4.696-6.533z"/><path fill="#8E3A6C" d="M303.674 222.1l-10.965.234s1.112 5.523-4.291 4.409v9.801s3.814.488 3.655 5.097h10.647s-1.112-3.805 3.496-3.924l.795-10.974c0-.001-3.973.699-3.337-4.643zm374.199.183l10.965.234s-1.112 5.523 4.291 4.409v9.801s-3.814.488-3.655 5.097h-10.647s1.112-3.805-3.496-3.924l-.795-10.974c-.001 0 3.972.7 3.337-4.643z"/><circle fill="#6C2A52" cx="683.832" cy="232.025" r="4.25"/><path fill="#A35F89" d="M683.059 235.469s-3.441-1.318-2.429-4.409c1.012-3.091 1.121 0 1.121 0s-1.11 2.742 1.308 4.409z"/><circle fill="#6C2A52" cx="297.713" cy="232.439" r="4.25"/><path fill="#A35F89" d="M296.94 235.883s-3.441-1.318-2.429-4.409c1.012-3.091 1.121 0 1.121 0s-1.108 2.742 1.308 4.409z"/><path fill="#6C2A52" d="M722.498 305.037c0 11.336-5.26 20.525-11.747 20.525H273.502c-6.487 0-11.747-9.191-11.747-20.525v-21.948c0-11.336 5.26-20.525 11.747-20.525h437.252c6.487 0 11.747 9.191 11.747 20.525l-.003 21.948z"/><path fill="#885573" d="M718.331 295.645c0 13.577-5.76 24.583-12.864 24.583h-299.26c-7.105 0-12.864-11.006-12.864-24.583v-4.167c0-13.577 5.76-24.583 12.864-24.583h299.261c7.105 0 12.864 11.006 12.864 24.583l-.001 4.167z"/><g fill="#294F7A"><circle cx="488.798" cy="31" r="31"/><circle cx="618.826" cy="80.567" r="31"/><circle cx="357.707" cy="85.036" r="31"/></g><path fill="none" d="M465.952 12.74l44.03-.77.821 46.934-44.03.77z"/><text transform="rotate(-1.003 3197.454 -27117.939)" fill="#DBD7E7" font-family="'Modern-Regular'" font-size="59.967">2</text><path fill="none" d="M272.952 281.44l23.721-.036.038 25.284-23.72.035z"/><text transform="translate(272.981 302.558)" fill="#DBD7E7" font-family="'Modern-Regular'" font-size="25.546">L E V E L</text><path fill="none" d="M618.969 49.527l28.921 33.268-35.46 30.828-28.922-33.268z"/><text transform="rotate(48.997 207.915 693.518)" fill="#DBD7E7" font-family="'Modern-Regular'" font-size="60">3</text><path fill="none" d="M325.651 83.766l33.268-28.922 30.828 35.46-33.268 28.922z"/><text transform="rotate(-41.001 323.03 -424.43)" fill="#DBD7E7" font-family="'Modern-Regular'" font-size="60">1</text><path fill="#45002F" d="M343.602 130.073c-.363.544-1.287.566-2.065.048l-16.89-11.249c-.777-.518-1.114-1.379-.752-1.924.363-.544 1.287-.566 2.065-.048l16.89 11.249c.777.519 1.115 1.38.752 1.924zm293.173-3.849c.393.523 1.317.493 2.064-.068l16.229-12.183c.747-.561 1.034-1.44.642-1.963-.393-.523-1.317-.493-2.064.068l-16.229 12.183c-.746.561-1.035 1.44-.642 1.963zM431.308 59.633c-.608.241-1.36-.217-1.68-1.023l-6.947-17.516c-.32-.806-.086-1.655.522-1.897.608-.241 1.36.217 1.68 1.023l6.947 17.516c.32.807.086 1.656-.522 1.897zm129.559 1.853c.608.241 1.36-.217 1.68-1.023l6.947-17.516c.32-.806.086-1.655-.522-1.897-.608-.241-1.36.217-1.68 1.023l-6.947 17.516c-.32.807-.086 1.656.522 1.897zM257.158 330.395h235.32v317.787h-235.32z"/><path fill="none" stroke="#69274F" stroke-width="2" stroke-miterlimit="10" d="M481.651 648.182V340.886H267.426v307.296"/><path fill="#8E3A6C" d="M280.24 389.79s33.505-.359 49.214-32.997h90.604s10.491 30.121 49.338 32.997v258.392H280.24V389.79z"/><g fill="none" stroke-miterlimit="10"><path stroke="#6C2A52" d="M316.451 406.663l-56.978-76.268m170.823 78.939l59.893-78.939"/><path stroke="#69274F" stroke-width="2" d="M459.417 647.844v-276.16H290.382v276.16"/></g><path fill="#6C2A52" d="M435.965 648.182V415.923c0-7.424-5.455-13.442-12.184-13.442h-98.513c-6.728 0-12.184 6.019-12.184 13.442v232.258"/><path fill="#885573" d="M325.637 648.182c0-117.005 21.819-211.858 48.734-211.858s48.734 94.852 48.734 211.858"/><path fill="#6C2A52" d="M376.161 648.182v-300.4c0-9.603-.132-17.387-.293-17.387h-2.376c-.162 0-.293 7.784-.293 17.387v300.4"/><path fill="#6C2A52" d="M458.864 608.156l-159.473.18c-5.098.006-9.23.142-9.23.305l.003 2.376c0 .162 4.132.289 9.23.283l159.473-.18"/><path fill="none" stroke="#69274F" stroke-miterlimit="10" d="M290.162 591.833l16.979 17.894m151.726-17.894l-16.978 17.894m-152.111 17.896l16.978-17.896m151.728 17.896l-16.979-17.896M267.426 380.733l50.182 27.011m114.583 0l50.018-26.922m-176.003-39.936l11.402 66.858m114.583 0l11.401-66.858"/><path fill="#45002F" d="M492.53 330.395h235.32v317.787H492.53z"/><path fill="none" stroke="#69274F" stroke-width="2" stroke-miterlimit="10" d="M717.023 648.182V340.886H502.798v307.296"/><path fill="#8E3A6C" d="M515.612 389.79s33.505-.359 49.214-32.997h90.604s10.491 30.121 49.338 32.997v258.392H515.612V389.79z"/><g fill="none" stroke-miterlimit="10"><path stroke="#6C2A52" d="M551.824 406.663l-56.979-76.268m170.823 78.939l59.893-78.939"/><path stroke="#69274F" stroke-width="2" d="M694.789 647.844v-276.16H525.754v276.16"/></g><path fill="#6C2A52" d="M671.337 648.182V415.923c0-7.424-5.455-13.442-12.184-13.442H560.64c-6.728 0-12.183 6.019-12.183 13.442v232.258"/><path fill="#885573" d="M561.009 648.182c0-117.005 21.819-211.858 48.734-211.858s48.734 94.852 48.734 211.858"/><path fill="#6C2A52" d="M611.533 648.182v-300.4c0-9.603-.132-17.387-.293-17.387h-2.376c-.162 0-.293 7.784-.293 17.387v300.4"/><path fill="#6C2A52" d="M694.237 608.156l-159.473.18c-5.098.006-9.23.142-9.23.305l.003 2.376c0 .162 4.132.289 9.23.283l159.473-.18"/><path fill="none" stroke="#69274F" stroke-miterlimit="10" d="M525.535 591.833l16.978 17.894m151.727-17.894l-16.979 17.894M525.15 627.623l16.978-17.896m151.728 17.896l-16.979-17.896M502.798 380.733l50.182 27.011m114.583 0l50.018-26.922m-176.003-39.936l11.402 66.858m114.583 0l11.402-66.858"/><path fill="#C5A661" d="M481.607 197.76s4.834-3.759-4.146-2.111c-3.792.696-6.923-6.437-.137-6.824l2.541.098s3.034.154 3.244-4.02c.211-4.174 1.873-144.204 1.873-144.204s-.82-5.143-5.938-4.525c0 0-5.63.187-5.501-3.71 0 0 .047-3.71 5.501-3.401 0 0 4.023 1.237 4.064-2.164.042-3.401 0-17.315 0-17.315L487.194 0l3.034 9.585V26.59s-1.011 1.856 2.359 2.164c3.371.309 7.417.463 7.754 2.629s.674 4.483-5.731 4.792c-4.457.215-3.695 2.008-4.371 4.791l1.336 140.844s-.757 5.874 3.203 6.184h4.888s3.961.426 3.961 3.247c0 2.164-2.065 3.827-4.425 3.827-2.359 0-5.891-1.541-3.57 2.691.915 1.669-.114-.153-.114-.153l-13.911.154"/><ellipse fill="#C5A661" cx="488.696" cy="202.216" rx="8.597" ry="7.884"/><path fill="#E2D1AE" d="M486.896 208.488s-6.96-2.445-4.913-8.18c2.047-5.734 2.268 0 2.268 0s-2.246 5.088 2.645 8.18z"/><ellipse fill="#F1E8D6" cx="488.696" cy="202.216" rx="2.509" ry="2.301"/><path fill="#E2D1AE" d="M487.109 2.895l-2.692 6.419v18.783l1.345-18.203zm2.838 184.711s-3.512-1.001-4.507.08l1.669-147.226 2.838 147.146zm-12.112-152.88s-5.343-.633-1.837-4.052c0 0 1.652-.157.322 1.266-1.33 1.422 1.515 2.786 1.515 2.786zm18.268 0s6.01-.633 2.067-4.052c0 0-1.859-.157-.362 1.266s-1.705 2.786-1.705 2.786zm-18.402 159.549s-5.343-.632-1.837-4.052c0 0 1.652-.157.322 1.266-1.329 1.424 1.515 2.786 1.515 2.786zm21.633-.699s5.343-.633 1.836-4.052c0 0-1.652-.157-.322 1.266 1.329 1.424-1.514 2.786-1.514 2.786z"/><path fill="#E2D1AE" d="M486.535 4.264l2.702 4.824-2.128-6.193"/></svg>