<?xml version="1.0" encoding="utf-8"?>
<!-- Generator: Adobe Illustrator 17.0.0, SVG Export Plug-In . SVG Version: 6.00 Build 0)  -->
<!DOCTYPE svg PUBLIC "-//W3C//DTD SVG 1.1//EN" "http://www.w3.org/Graphics/SVG/1.1/DTD/svg11.dtd">
<svg version="1.1" id="Layer_6" xmlns="http://www.w3.org/2000/svg" xmlns:xlink="http://www.w3.org/1999/xlink" x="0px" y="0px"
	 width="369.372px" height="152.875px" viewBox="121.463 320.666 369.372 152.875"
	 enable-background="new 121.463 320.666 369.372 152.875" xml:space="preserve">
<g>
	<path fill="#213551" d="M291.523,354.437c0.58,0.037,1.102,0.07,1.552,0.099C292.646,354.509,292.128,354.476,291.523,354.437z"/>
	<path fill="#213551" d="M285.491,354.052c1.453,0.093,2.856,0.182,4.118,0.263C288.455,354.241,287.096,354.154,285.491,354.052z"
		/>
	<path fill="#213551" d="M293.697,354.576c0.246,0.016,0.456,0.029,0.628,0.04C294.157,354.605,293.955,354.592,293.697,354.576z"/>
	<path fill="#213551" d="M289.609,354.315c0.719,0.046,1.356,0.087,1.914,0.122C290.938,354.4,290.295,354.359,289.609,354.315z"/>
	<path fill="#213551" d="M293.075,354.536c0.229,0.015,0.44,0.028,0.622,0.04C293.51,354.564,293.301,354.551,293.075,354.536z"/>
	<path fill="#213551" d="M294.515,354.628C294.936,354.655,294.975,354.657,294.515,354.628L294.515,354.628z"/>
	<path fill="#213551" d="M304.602,444.569c15.245-0.745,25.529-1.749,25.529-1.749c40.409-2.973,54.695-15.751,57.128-17.275
		s4.29-4.921,13.974-8.424c9.685-3.502,18.326,3.503,18.326,3.503l13.8,6.425l5.975-5.437l3.674-7.449l1.67-9.366l-7.347-17.664
		c0,0-6.345-8.33-20.371-3.818s-29.7-2.083-29.7-2.083c-35.155-22.321-108.34-27.588-114.808-28.014
		c-0.079-0.005-0.153-0.01-0.232-0.015c0.061,0.004,0.133,0.008,0.217,0.014c-0.291-0.019-0.45-0.029-0.45-0.029
		c-48.72-3.111-93.094,19.366-93.094,19.366s-21.081,16.314-28.256,18.396c-7.175,2.083-23.225,16.894-23.225,16.894l8.61,10.852
		c0,0-20.703-11.5-7.274,3.032s20.705,16.314,20.705,16.314c12.698,3.853,21.718,2.196,21.718,2.196l55.812,2.58
		c25.092,3.196,54.44,2.811,75.403,1.854"/>
	<path fill="#213551" d="M284.258,353.973c0.423,0.027,0.839,0.054,1.233,0.079C285.083,354.026,284.671,353.999,284.258,353.973z"
		/>
	<path fill="#213551" d="M272.707,353.235c-0.101-0.006-0.191-0.012-0.271-0.017c0.006,0,0.009,0.001,0.015,0.001
		C272.538,353.225,272.62,353.23,272.707,353.235z"/>
	<path fill="#213551" d="M294.326,354.616c0.071,0.005,0.133,0.009,0.19,0.012C294.458,354.624,294.397,354.621,294.326,354.616z"/>
	<path fill="#213551" d="M275.344,353.404c0.236,0.015,0.475,0.03,0.706,0.045C275.807,353.433,275.571,353.418,275.344,353.404z"/>
	<path fill="#213551" d="M273.064,353.258c0.101,0.006,0.203,0.013,0.303,0.019C273.26,353.271,273.159,353.264,273.064,353.258z"/>
	<path fill="#213551" d="M273.367,353.278c0.535,0.034,1.205,0.077,1.978,0.126C274.704,353.363,274.045,353.321,273.367,353.278z"
		/>
	<path fill="#213551" d="M272.707,353.235c0.108,0.007,0.227,0.014,0.357,0.023C272.944,353.251,272.827,353.243,272.707,353.235z"
		/>
	<path fill="#213551" d="M276.593,353.484c0.852,0.054,1.659,0.106,2.442,0.156C278.174,353.585,277.352,353.532,276.593,353.484z"
		/>
	<path fill="#213551" d="M281.454,353.794c0.408,0.026,0.809,0.052,1.195,0.076C282.249,353.845,281.85,353.819,281.454,353.794z"/>
	<path fill="#213551" d="M279.035,353.64c0.781,0.05,1.592,0.102,2.419,0.154C280.685,353.745,279.882,353.694,279.035,353.64z"/>
	<path fill="#213551" d="M282.649,353.87c0.536,0.034,1.073,0.068,1.608,0.103C283.744,353.94,283.207,353.906,282.649,353.87z"/>
	<path fill="#213551" d="M276.051,353.449c0.177,0.011,0.358,0.023,0.543,0.035C276.417,353.472,276.23,353.46,276.051,353.449z"/>
</g>
<path fill="#4F709E" d="M230.628,446.52c0.583-2.104-0.083-4.599-1.99-5.8c1.196-2.5,0.356-6.028-2.51-7.074
	c-0.645-1.669-2.13-2.979-4.461-2.979c-1.529,0-2.69,0.566-3.494,1.423c-1.243,0.056-2.062,0.627-2.062,0.627
	s-12,5.667-19.667,2.667c-7.667-3-5.667,1.667-5.667,1.667c5.615,9.358,18.514,18.925,23.402,22.347
	c0.162,2.361,1.767,4.603,4.82,4.603c0.514,0,0.983-0.07,1.415-0.187c0.805,0.913,1.998,1.52,3.585,1.52
	c2.503,0,4.03-1.508,4.59-3.351c4.379-0.191,5.601-5.099,3.685-7.96C233.874,451.67,233.324,447.89,230.628,446.52z"/>
<path fill="#4F709E" d="M305.692,453.011c2.413-1.916,2.406-6.115-0.011-8.025c0.675-2.851-0.883-6.319-4.681-6.319
	c-1.021,0-1.866,0.265-2.562,0.688c-0.144-0.011-0.287-0.021-0.438-0.021c-0.628,0-1.193,0.097-1.699,0.269
	c-1.886-0.474-3.377-0.225-3.377-0.225c-6.711,1.377-20.426,0-20.426,0c28.188,9.713-11.03,1.554-11.03,1.554
	s-9.805-9.713,14.707,16.318c5.764,6.121,10.301,9.718,13.88,11.655c0.54,1.879,2.075,3.43,4.613,3.43
	c0.243,0,0.474-0.019,0.699-0.046C296.073,472.732,296.95,473,298,473c3.073,0,4.677-2.271,4.821-4.649
	c2.847-1.056,3.665-4.57,2.475-7.06C308.092,459.543,308.216,455.028,305.692,453.011z"/>
<path fill="#4F709E" d="M387.32,372.404c2.381-2.823,1.164-8.404-3.654-8.404c-2.624,0-4.18,1.656-4.668,3.619
	c-0.488-1.964-2.041-3.619-4.665-3.619c-1.002,0-1.848,0.242-2.538,0.65c-0.644-1.672-2.128-2.983-4.462-2.983
	c-0.294,0-0.569,0.027-0.836,0.067c0.031-2.522-1.577-5.067-4.831-5.067c-2.512,0-4.041,1.519-4.596,3.372
	c-0.363-2.14-1.93-4.038-4.738-4.038c-1.283,0-2.307,0.4-3.079,1.034c-0.556-1.85-2.078-3.368-4.588-3.368
	c-1.07,0-1.958,0.279-2.673,0.738c-0.782-1.211-2.108-2.072-3.994-2.072c-0.924,0-1.711,0.21-2.37,0.562
	c-0.063-0.02-0.127-0.04-0.19-0.06c-0.319-2.194-1.908-4.169-4.773-4.169c-1.483,0-2.62,0.532-3.421,1.346
	c-0.561-1.84-2.079-3.346-4.579-3.346c-1.655,0-2.874,0.667-3.679,1.647c-0.572-1.219-1.622-2.196-3.154-2.526
	c-0.22-0.191-0.453-0.37-0.716-0.517c-0.264-2.083-1.664-3.993-4.21-4.243c0.914-2.913-0.606-6.695-4.573-6.695
	c-0.147,0-0.288,0.011-0.428,0.021c0.817-2.613-0.32-5.922-3.43-6.573c0.198-2.536-1.272-5.219-4.418-5.427
	c-0.805-1.005-2.043-1.687-3.724-1.687c-0.906,0-1.681,0.203-2.332,0.542c-3.748,0.276-8.901,2.686-15.406,10.354
	c0,0-15.983,22.082-24.484,23.591c0,0,93.176,5.58,124.461,23.896c0,0,1.36-4.749,10.542-4.07
	C387.114,374.98,391.572,374.835,387.32,372.404z"/>
<path fill="#4F709E" d="M175.111,427.05c0,0-0.333-4.667-4-4s0-1.333,0-1.333s-3.667-38.667-12-30c0,0,18.196-13.333,31.432,6
	c0,0,2.568,7.186,1.568,9.426C192.111,407.143,183.778,419.717,175.111,427.05z"/>
<g>
	<path fill="#4F709E" d="M487.945,353.031c-0.704-0.435-1.573-0.697-2.612-0.697c-0.51,0-0.976,0.069-1.405,0.184
		c-3.362-0.261-8.817,2.843-8.817,2.843l-59,28.398c16.333,0.342,15.667,20.529,15.667,20.529
		c-2.245,20.736-11.277,16.764-12.218,16.337l33.885,15.885c14.466,7.702,22.695,11.004,27.146,11.872
		c0.517,0.181,1.096,0.285,1.743,0.285c0.242,0,0.472-0.018,0.696-0.045c0.833-0.035,1.396-0.236,1.75-0.556
		c3.576-1.998,3.139-8.368-1.318-9.287c-0.608-0.278-1.313-0.445-2.127-0.445c-0.341,0-0.659,0.034-0.964,0.086
		c-0.051-0.077-0.103-0.155-0.155-0.232c2.519-2.782,1.339-8.521-3.547-8.521c-0.688,0-1.298,0.119-1.839,0.323
		c-0.016-0.025-0.034-0.053-0.051-0.078c2.209-2.868,0.953-8.245-3.777-8.245c-0.468,0-0.898,0.058-1.297,0.156
		c-0.056-0.092-0.117-0.192-0.173-0.283c2.542-2.775,1.368-8.54-3.53-8.54c-0.47,0-0.902,0.059-1.304,0.157
		c-0.026-0.048-0.055-0.1-0.08-0.147c1.902-2.819,0.735-7.666-3.502-7.988c-0.003-0.032-0.004-0.05-0.004-0.05
		c0-0.092,0.008-0.183,0.01-0.275c1.928-0.698,2.94-2.517,3.037-4.398c4.199-0.356,5.353-5.173,3.45-7.979
		c3.796-0.175,5.214-3.912,4.267-6.764c0.35,0.072,0.725,0.111,1.125,0.111c4.437,0,5.806-4.724,4.137-7.676
		c0.066,0.002,0.129,0.01,0.197,0.01c3.56,0,5.145-3.045,4.774-5.775c3.743-0.757,4.666-5.349,2.772-8.002
		c0.349,0.072,0.722,0.11,1.121,0.11c3.579,0,5.166-3.077,4.771-5.816C491.097,356.329,490.153,353.924,487.945,353.031z"/>
	<path fill="#4F709E" d="M416.174,419.371l-0.063-0.029C416.111,419.343,416.136,419.354,416.174,419.371z"/>
</g>
<path fill="#4F709E" d="M410.667,442c-0.028,0-0.052,0.007-0.08,0.007c-0.014-0.047-0.04-0.089-0.056-0.135
	c1.988-2.172,1.699-6.168-0.867-7.807c3.304-1.094,4.025-5.422,2.154-7.925c0.091-1.114-0.144-2.258-0.699-3.211
	c-0.287-2.231-1.879-4.262-4.785-4.262c-1.537,0-2.702,0.572-3.505,1.438c-0.781-0.675-1.832-1.104-3.162-1.104
	c-1.121,0-2.045,0.303-2.775,0.803c-0.379-0.086-0.786-0.136-1.225-0.136c-0.738,0-1.387,0.136-1.956,0.368
	c-0.69-0.401-0.982-0.745-0.982-0.745c-2.767,5-26.284,16-26.284,16c4.496,6,31.471,15.667,31.471,15.667
	c9.239,2.415,12.868,2.025,14.082,0.879C417.075,450.557,416.634,442,410.667,442z"/>
<path fill="#4F709E" d="M140.444,406.716c0,0,13.34,11.566,17.667-2.093C158.111,404.623,159.111,426.143,140.444,406.716z"/>
<path fill="#4F709E" d="M137.61,401.361l-2.755,4.097C134.854,405.458,137.913,407.871,137.61,401.361z"/>
<path fill="#4F709E" d="M136.243,423.748c0,0,0.618-8.159-4.257-14.017s-18.625-5.733,0,8.767L136.243,423.748z"/>
<path fill="#4F709E" d="M136.243,423.748c0,0-8.132-5.5-11.257-9.5C124.986,414.248,111.874,415.373,136.243,423.748z"/>
<path fill="#4F709E" d="M161.736,433.748c0,0,8.625-1.625,10.625-8.25c0,0,2.625,3.125,1.75,4.75
	C174.111,430.248,170.111,434.623,161.736,433.748z"/>
<path fill="#4F709E" d="M191.342,413.123c0,0-10.481,13.5-13.856,13.5v3.058C177.486,429.681,189.448,424.873,191.342,413.123z"/>
<path fill="#4F709E" d="M225.138,408.493c2.776-1.939,2.703-6.733-0.243-8.497c2.882-1.73,3.024-6.37,0.418-8.38
	c3.103-1.957,2.906-7.354-0.589-8.876c3.71-2.02,3.182-8.69-1.611-9.349c1.167-2.95-0.312-7.058-4.447-7.058
	c-6.176,0-6.433,9.165-0.78,9.942c-0.944,2.386-0.155,5.527,2.368,6.642c-3.028,1.658-3.203,6.417-0.55,8.458
	c-2.961,1.85-2.941,6.82,0.062,8.625c-2.94,1.767-3.011,6.555-0.237,8.493c-1.829,1.272-2.409,3.78-1.765,5.854
	c-4.462,1.753-3.831,9.653,1.903,9.653c3.963,0,5.487-3.776,4.578-6.688C227.811,415.901,228.111,410.561,225.138,408.493z"/>
<path fill="#213551" d="M223.485,391.497c2.8-1.963,2.68-6.839-0.357-8.553c2.51-2.621,1.567-8.073-2.821-8.563
	c1.414-2.963-0.019-7.382-4.307-7.382c-6.229,0-6.44,9.328-0.635,9.964c-1.089,2.296-0.48,5.457,1.849,6.764
	c-2.024,2.113-1.815,6.066,0.649,7.779c-2.651,1.852-2.705,6.307-0.137,8.241c-4.072,0.687-4.95,5.814-2.63,8.415
	c-2.926,1.437-3.38,5.68-1.351,7.981c-5.158,1.21-4.742,9.855,1.255,9.855c4.861,0,6.056-5.68,3.589-8.478
	c3.801-0.892,4.564-5.813,2.309-8.345c3.221-1.573,3.44-6.53,0.683-8.589C226.067,399.854,226.702,393.749,223.485,391.497z"/>
<path fill="#4F709E" d="M251,415c-4.474,0-5.841,4.812-4.107,7.76c-4.242,1.907-3.54,9.574,2.107,9.574
	c4.474,0,5.841-4.812,4.107-7.76C257.349,422.666,256.646,415,251,415z"/>
<path fill="#4F709E" d="M237,404c-4.903,0-6.074,5.777-3.522,8.548c-4.876,1.441-4.371,9.785,1.522,9.785
	c4.903,0,6.074-5.777,3.522-8.548C243.397,412.344,242.892,404,237,404z"/>
<path fill="#4F709E" d="M249.487,379.623c1.093-2.942-0.4-6.956-4.487-6.956c-5.471,0-6.298,7.194-2.487,9.377
	c-1.093,2.942,0.4,6.956,4.487,6.956C252.471,389,253.298,381.806,249.487,379.623z"/>
<path fill="#4F709E" d="M211.222,389.55c1.552-2.961,0.148-7.55-4.222-7.55c-0.021,0-0.04,0.003-0.06,0.003
	c1.571-2.331,1.054-6.044-1.573-7.443c0.621-2.834-0.943-6.227-4.7-6.227c-5.526,0-6.312,7.339-2.367,9.44
	c-0.621,2.834,0.943,6.227,4.7,6.227c0.016,0,0.03-0.004,0.047-0.004c-1.459,2.169-1.102,5.534,1.065,7.119
	c-1.554,2.961-0.149,7.552,4.221,7.552C213.603,398.667,214.564,391.992,211.222,389.55z"/>
<path fill="#4F709E" d="M209.667,409.667c-4.802,0-6.026,5.544-3.675,8.376c-5.762,0.675-5.539,9.958,0.675,9.958
	c4.802,0,6.026-5.544,3.675-8.376C216.104,418.949,215.881,409.667,209.667,409.667z"/>
<path fill="#4F709E" d="M256,396.333c-6.449,0-6.449,10,0,10S262.449,396.333,256,396.333z"/>
<path fill="#4F709E" d="M268.333,376c-0.108,0-0.209,0.01-0.314,0.015c3.154-2.496,2.193-8.896-2.886-9.009
	c1.129-2.946-0.357-7.007-4.467-7.007c-6.403,0-6.445,9.853-0.134,9.993C259.404,372.94,260.89,377,265,377
	c0.108,0,0.209-0.01,0.313-0.015c-3.183,2.52-2.178,9.015,3.021,9.015C274.782,386,274.782,376,268.333,376z"/>
<path fill="#4F709E" d="M272.333,392c-6.449,0-6.449,10,0,10S278.782,392,272.333,392z"/>
<path fill="#4F709E" d="M276.367,419.996c1.545-1.906,1.507-4.995-0.133-6.829c2.494-2.79,1.306-8.5-3.568-8.5
	s-6.061,5.71-3.568,8.5c-1.848,2.068-1.669,5.734,0.529,7.497c-1.64,2.021-1.482,5.371,0.457,7.146
	c-5.166,1.204-4.752,9.857,1.249,9.857c5.07,0,6.152-6.18,3.249-8.822C278.657,427.887,279.258,422.303,276.367,419.996z"/>
<path fill="#4F709E" d="M303.395,415.681c2.717-2.715,1.588-8.681-3.395-8.681c-5.178,0-6.194,6.442-3.058,8.984
	c-1.403,1.4-1.786,3.663-1.139,5.531c-0.426,1.254-0.399,2.683,0.096,3.909C291.651,427.327,292.351,435,298,435
	c4.149,0,5.624-4.138,4.434-7.09c2.426-1.087,3.232-4.052,2.43-6.399C305.558,419.504,305.068,417.037,303.395,415.681z"/>
<path fill="#4F709E" d="M296.345,382.334c0.684-2.854-0.874-6.334-4.678-6.334c-6.445,0-6.448,9.987-0.011,9.999
	c-0.684,2.854,0.874,6.334,4.678,6.334C302.778,392.333,302.782,382.346,296.345,382.334z"/>
<path fill="#4F709E" d="M315.107,373.527c3.475-2.373,2.553-9.194-2.774-9.194c-5.924,0-6.402,8.434-1.441,9.806
	c-3.475,2.373-2.553,9.194,2.774,9.194C319.591,383.333,320.068,374.899,315.107,373.527z"/>
<path fill="#4F709E" d="M315.333,385.667c-6.449,0-6.449,10,0,10S321.782,385.667,315.333,385.667z"/>
<path fill="#4F709E" d="M322.147,414.5c3.428-2.398,2.493-9.167-2.814-9.167s-6.242,6.769-2.814,9.167
	c-2.278,1.593-2.617,5.108-1.04,7.293c-2.977,2.612-1.917,8.874,3.188,8.874c4.668,0,5.955-5.239,3.864-8.132
	C324.831,420.504,324.704,416.288,322.147,414.5z"/>
<path fill="#4F709E" d="M340.333,405.333c-4.369,0-5.774,4.588-4.223,7.548c-2.258,1.65-2.547,5.234-0.871,7.384
	c-2.354,1.305-2.982,4.493-1.871,6.799c-1.391,0.879-2.132,2.435-2.195,4.038c-3.01,2.598-1.959,8.897,3.161,8.897
	c3.125,0,4.731-2.349,4.827-4.77c1.739-1.501,2.114-4.233,1.14-6.276c2.487-1.559,2.863-5.321,1.132-7.549
	c2.406-1.334,3.002-4.642,1.79-6.956C346.564,412.007,345.602,405.333,340.333,405.333z"/>
<path fill="#4F709E" d="M340,384.667c-6.449,0-6.449,10,0,10S346.449,384.667,340,384.667z"/>
<path fill="#4F709E" d="M356.512,385.129c1.972-2.722,0.961-7.518-3.065-8.071c1.167-2.95-0.312-7.058-4.447-7.058
	c-6.176,0-6.433,9.165-0.78,9.942c-0.929,2.349-0.175,5.425,2.256,6.584c-2.099,2.892-0.815,8.141,3.857,8.141
	C359.947,394.667,360.672,387.092,356.512,385.129z"/>
<path fill="#4F709E" d="M365.642,412.282c3.631-2.288,2.753-9.282-2.642-9.282c-5.227,0-6.216,6.57-2.969,9.059
	c-2.499,1.576-2.866,5.374-1.085,7.592c-1.448,1.445-1.809,3.809-1.072,5.709c-0.175-0.016-0.355-0.026-0.541-0.026
	c-6.449,0-6.449,10,0,10c4.119,0,5.603-4.079,4.459-7.026c0.175,0.016,0.355,0.026,0.541,0.026c4.768,0,6.007-5.464,3.723-8.314
	C368.11,417.974,367.971,414.077,365.642,412.282z"/>
<path fill="#4F709E" d="M382.038,412.896c2.57-1.689,2.812-5.766,0.708-7.892c2.397-2.417,1.764-7.382-1.898-8.457
	c2.985-2.609,1.927-8.88-3.181-8.88c-5.895,0-6.398,8.352-1.514,9.787c-2.123,1.855-2.19,5.552-0.221,7.54
	c-2.202,2.211-1.864,6.561,1.016,8.11c-3.539,2.339-2.636,9.23,2.719,9.23C385.191,422.333,385.978,415,382.038,412.896z"/>
<path fill="#4F709E" d="M400.985,405.954c1.652-2.523,0.887-6.606-2.29-7.681c1.327-2.961-0.126-7.273-4.361-7.273
	c-5.825,0-6.387,8.157-1.689,9.735c-0.938,2.1-0.486,4.873,1.371,6.31C392.1,409.971,393.426,415,398,415
	C403.219,415,404.212,408.453,400.985,405.954z"/>
<path fill="#4F709E" d="M419.311,403.615c1.593-2.435,0.947-6.321-1.958-7.556c2.773-2.694,1.657-8.726-3.352-8.726
	c-5.684,0-6.355,7.765-2.019,9.608c-2.092,2.032-1.967,5.961,0.369,7.77c-1.917,2.925-0.592,7.956,3.984,7.956
	C421.556,412.667,422.548,406.109,419.311,403.615z"/>
<path fill="#213551" d="M208.751,390.254c2.122-2.727,1.098-7.746-3.105-8.216c1.384-2.921,0.003-7.246-4.144-7.363
	c0.004-2.503-1.608-5.008-4.836-5.008c-6.39,0-6.444,9.814-0.17,9.992c-0.003,2.329,1.395,4.659,4.191,4.971
	c-1.093,2.304-0.46,5.472,1.885,6.772c-2.232,2.862-0.981,8.266,3.76,8.266C211.836,399.667,212.639,392.39,208.751,390.254z"/>
<path fill="#213551" d="M208.333,408.333c-4.995,0-6.118,5.996-3.375,8.701c-0.201-0.022-0.409-0.035-0.625-0.035
	c-6.449,0-6.449,10,0,10c4.995,0,6.118-5.996,3.375-8.701c0.201,0.022,0.409,0.035,0.625,0.035
	C214.782,418.333,214.782,408.333,208.333,408.333z"/>
<path fill="#213551" d="M245.78,379.392c1.167-2.95-0.312-7.058-4.447-7.058c-6.176,0-6.433,9.165-0.78,9.942
	c-1.167,2.95,0.312,7.058,4.447,7.058C251.176,389.333,251.433,380.168,245.78,379.392z"/>
<path fill="#213551" d="M235.333,401.667c-6.449,0-6.449,10,0,10S241.782,401.667,235.333,401.667z"/>
<path fill="#213551" d="M232.667,412.333c-6.449,0-6.449,10,0,10C239.115,422.333,239.115,412.333,232.667,412.333z"/>
<path fill="#213551" d="M254,397c-6.449,0-6.449,10,0,10S260.449,397,254,397z"/>
<path fill="#213551" d="M248.333,414.333c-4.903,0-6.074,5.777-3.522,8.548c-4.876,1.441-4.371,9.785,1.522,9.785
	c4.903,0,6.074-5.777,3.522-8.548C254.731,422.678,254.226,414.333,248.333,414.333z"/>
<path fill="#213551" d="M269.667,392.667c-6.449,0-6.449,10,0,10C276.115,402.667,276.115,392.667,269.667,392.667z"/>
<path fill="#213551" d="M263.003,367.042c0.709-2.862-0.847-6.375-4.67-6.375c-6.216,0-6.438,9.289-0.67,9.958
	c-0.709,2.862,0.847,6.375,4.67,6.375C268.55,377,268.771,367.711,263.003,367.042z"/>
<path fill="#213551" d="M265.667,377c-6.449,0-6.449,10,0,10C272.115,387,272.115,377,265.667,377z"/>
<path fill="#213551" d="M272.644,428.948c3.501-1.453,3.781-6.733,0.828-8.788c2.557-1.787,2.694-5.996,0.391-8.027
	C275.955,409.24,274.669,404,270,404c-5.1,0-6.162,6.25-3.196,8.867c-1.58,2.186-1.23,5.708,1.048,7.301
	c-2.634,1.844-2.68,6.257-0.156,8.206c-4.388,1.806-3.733,9.626,1.971,9.626C274.889,438,275.881,431.442,272.644,428.948z"/>
<path fill="#213551" d="M294.667,383.667c-0.23,0-0.45,0.016-0.664,0.041c0.708-2.862-0.848-6.374-4.67-6.374
	c-6.449,0-6.449,10,0,10c0.23,0,0.45-0.016,0.664-0.041c-0.708,2.862,0.848,6.374,4.67,6.374
	C301.115,393.667,301.115,383.667,294.667,383.667z"/>
<path fill="#213551" d="M301.059,415.35c2.72-2.713,1.592-8.684-3.392-8.684c-5.177,0-6.194,6.441-3.059,8.983
	c-1.406,1.403-1.775,3.672-1.123,5.54c-1.915,1.367-2.443,4.108-1.587,6.234C287.651,429.329,288.352,437,294,437
	c4.151,0,5.626-4.142,4.432-7.095c2.441-1.095,3.25-4.091,2.421-6.445C303.413,421.619,303.488,417.32,301.059,415.35z"/>
<path fill="#213551" d="M312.188,372.548c2.552-2.771,1.381-8.548-3.522-8.548c-5.892,0-6.397,8.344-1.522,9.785
	c-2.552,2.771-1.381,8.548,3.522,8.548C316.559,382.333,317.064,373.989,312.188,372.548z"/>
<path fill="#213551" d="M313,386.667c-6.449,0-6.449,10,0,10S319.449,386.667,313,386.667z"/>
<path fill="#213551" d="M319.311,422.949c3.552-1.474,3.788-6.89,0.695-8.877c2.789-2.688,1.677-8.739-3.34-8.739
	c-5.379,0-6.267,6.953-2.673,9.261c-2.106,2.029-1.985,5.971,0.358,7.783c-4.376,1.815-3.718,9.622,1.982,9.622
	C321.556,432,322.547,425.443,319.311,422.949z"/>
<path fill="#213551" d="M337.333,386c-6.449,0-6.449,10,0,10S343.782,386,337.333,386z"/>
<path fill="#213551" d="M355.783,387.763c-0.402-0.525-0.919-0.965-1.553-1.274c2.915-2.637,1.846-8.822-3.23-8.822
	c-0.029,0-0.055,0.004-0.083,0.004c0.897-2.909-0.627-6.671-4.583-6.671c-6.449,0-6.449,10,0,10c0.029,0,0.055-0.004,0.083-0.004
	c-0.701,2.274,0.084,5.06,2.346,6.172c-2.458,2.223-2.079,6.972,1.142,8.41c0.802,1.038,2.047,1.755,3.762,1.755
	C359.309,397.333,360.015,389.677,355.783,387.763z"/>
<path fill="#213551" d="M339.644,413.948c3.629-2.289,2.75-9.281-2.644-9.281c-5.223,0-6.214,6.558-2.977,9.052
	c-1.952,1.231-2.587,3.82-1.929,5.952c-2.458,1.483-2.901,5.082-1.353,7.352c-4.437,1.771-3.798,9.644,1.926,9.644
	c4.61,0,5.922-5.11,3.941-8.024c2.498-1.006,3.377-3.951,2.639-6.326C342.11,420.577,342.246,415.952,339.644,413.948z"/>
<path fill="#213551" d="M361.044,419.899c2.33-1.534,2.744-5.034,1.228-7.259c3.674-2.263,2.807-9.307-2.606-9.307
	c-4.612,0-5.924,5.113-3.939,8.027c-3.044,1.875-2.961,7.021,0.233,8.734c-1.802,1.181-2.454,3.536-1.967,5.573
	c-6.442,0.007-6.44,10,0.007,10c3.804,0,5.362-3.48,4.678-6.334C364.188,429.322,364.975,422.006,361.044,419.899z"/>
<path fill="#213551" d="M378.27,404.749c3.972-1.259,4.282-7.152,0.909-9.113c1.625-2.957,0.233-7.636-4.179-7.636
	c-5.459,0-6.295,7.164-2.512,9.364c-1.499,2.728-0.424,6.914,3.216,7.546c-3.168,1.017-3.974,4.99-2.446,7.542
	c-3.512,2.354-2.6,9.214,2.743,9.214c4.492,0,5.851-4.849,4.086-7.794C383.367,411.66,382.764,405.504,378.27,404.749z"/>
<path fill="#213551" d="M397.646,407.387c2.033-2.421,1.438-6.848-1.81-8.065c1.641-2.956,0.251-7.655-4.169-7.655
	c-5.762,0-6.371,7.978-1.836,9.678c-1.246,2.245-0.74,5.491,1.511,6.924c-2.374,2.825-1.156,8.397,3.659,8.397
	C400.393,416.667,401.272,409.677,397.646,407.387z"/>
<path fill="#213551" d="M414.811,404.536c3.466-1.61,3.579-7.085,0.318-8.926c2.629-2.746,1.478-8.61-3.462-8.61
	c-5.482,0-6.301,7.223-2.462,9.39c-2.338,2.442-1.678,7.339,1.969,8.396c-4.18,1.949-3.461,9.547,2.161,9.547
	C419.243,414.333,419.733,405.94,414.811,404.536z"/>
<path fill="#4F709E" d="M293,394.333c-6.449,0-6.449,10,0,10S299.449,394.333,293,394.333z"/>
<path fill="#4F709E" d="M291,413c-6.449,0-6.449,10,0,10S297.449,413,291,413z"/>
<path fill="#4F709E" d="M282,362.667c-6.449,0-6.449,10,0,10S288.449,362.667,282,362.667z"/>
<path fill="#4F709E" d="M233.333,357.667c-6.449,0-6.449,10,0,10S239.782,357.667,233.333,357.667z"/>
<path fill="#4F709E" d="M237.333,388.333c-6.449,0-6.449,10,0,10S243.782,388.333,237.333,388.333z"/>
<path fill="#4F709E" d="M239.667,430.333c-6.449,0-6.449,10,0,10C246.115,440.333,246.115,430.333,239.667,430.333z"/>
<path fill="#4F709E" d="M184,429.667c-6.449,0-6.449,10,0,10S190.449,429.667,184,429.667z"/>
<path fill="#4F709E" d="M204,400c-6.449,0-6.449,10,0,10S210.449,400,204,400z"/>
<path fill="#4F709E" d="M190.667,375c-6.449,0-6.449,10,0,10C197.115,385,197.115,375,190.667,375z"/>
<path fill="#4F709E" d="M328.667,369.333c-6.449,0-6.449,10,0,10C335.115,379.333,335.115,369.333,328.667,369.333z"/>
<path fill="#4F709E" d="M332.667,391c-6.449,0-6.449,10,0,10C339.115,401,339.115,391,332.667,391z"/>
<path fill="#4F709E" d="M332,409.667c-6.449,0-6.449,10,0,10S338.449,409.667,332,409.667z"/>
<path fill="#4F709E" d="M312,431c-6.449,0-6.449,10,0,10S318.449,431,312,431z"/>
<path fill="#4F709E" d="M350,426.333c-6.449,0-6.449,10,0,10S356.449,426.333,350,426.333z"/>
<path fill="#4F709E" d="M352.667,400c-6.449,0-6.449,10,0,10C359.115,410,359.115,400,352.667,400z"/>
<path fill="#4F709E" d="M368.333,383.667c-6.449,0-6.449,10,0,10S374.782,383.667,368.333,383.667z"/>
<path fill="#4F709E" d="M407,388c-6.449,0-6.449,10,0,10S413.449,388,407,388z"/>
<path fill="#4F709E" d="M390.667,407.667c-6.449,0-6.449,10,0,10C397.115,417.667,397.115,407.667,390.667,407.667z"/>
<path fill="#4F709E" d="M265,410.333c-6.449,0-6.449,10,0,10S271.449,410.333,265,410.333z"/>
<path fill="#4F709E" d="M254.333,363c-6.449,0-6.449,10,0,10C260.782,373,260.782,363,254.333,363z"/>
<path fill="#213551" d="M201.667,401.333c-6.449,0-6.449,10,0,10C208.115,411.333,208.115,401.333,201.667,401.333z"/>
<path fill="#213551" d="M188.333,375.667c-6.449,0-6.449,10,0,10S194.782,375.667,188.333,375.667z"/>
<path fill="#213551" d="M182,430.667c-6.449,0-6.449,10,0,10S188.449,430.667,182,430.667z"/>
<path fill="#213551" d="M235,389c-6.449,0-6.449,10,0,10S241.449,389,235,389z"/>
<path fill="#213551" d="M230.333,358c-6.449,0-6.449,10,0,10S236.782,358,230.333,358z"/>
<path fill="#213551" d="M237,430.333c-6.449,0-6.449,10,0,10S243.449,430.333,237,430.333z"/>
<path fill="#213551" d="M262.333,411.667c-6.449,0-6.449,10,0,10S268.782,411.667,262.333,411.667z"/>
<path fill="#213551" d="M252,364c-6.449,0-6.449,10,0,10S258.449,364,252,364z"/>
<path fill="#213551" d="M279,363.667c-6.449,0-6.449,10,0,10S285.449,363.667,279,363.667z"/>
<path fill="#213551" d="M290.333,393.333c-6.449,0-6.449,10,0,10S296.782,393.333,290.333,393.333z"/>
<path fill="#213551" d="M288,413c-6.449,0-6.449,10,0,10S294.449,413,288,413z"/>
<path fill="#213551" d="M326.667,371c-6.449,0-6.449,10,0,10C333.115,381,333.115,371,326.667,371z"/>
<path fill="#213551" d="M329.333,391c-6.449,0-6.449,10,0,10S335.782,391,329.333,391z"/>
<path fill="#213551" d="M329.333,408.333c-6.449,0-6.449,10,0,10S335.782,408.333,329.333,408.333z"/>
<path fill="#213551" d="M310,431.667c-6.449,0-6.449,10,0,10S316.449,431.667,310,431.667z"/>
<path fill="#213551" d="M347,426.667c-6.449,0-6.449,10,0,10S353.449,426.667,347,426.667z"/>
<path fill="#213551" d="M351,400.667c-6.449,0-6.449,10,0,10S357.449,400.667,351,400.667z"/>
<path fill="#213551" d="M366.333,384.667c-6.449,0-6.449,10,0,10S372.782,384.667,366.333,384.667z"/>
<path fill="#213551" d="M389,408.333c-6.449,0-6.449,10,0,10S395.449,408.333,389,408.333z"/>
<path fill="#213551" d="M404.333,389.333c-6.449,0-6.449,10,0,10S410.782,389.333,404.333,389.333z"/>
<circle fill="#7D9DC3" cx="149.5" cy="404.833" r="4.833"/>
<circle fill="#265C9C" cx="149.295" cy="405.705" r="3.705"/>
<circle fill="#132E4E" cx="149.417" cy="405.917" r="1.583"/>
<circle fill="#A8BED7" cx="150.208" cy="405.125" r="0.792"/>
<path fill="#1C4575" d="M172.5,421.402c0,0-0.209-25.951-4.487-29.069S167,391.666,167,391.666s7.329,1.667,7.29,29L172.5,421.402z"
	/>
<path fill="#1C4575" d="M174.29,422.667c0,0,3.462,0.805,1.437,2.832c0,0,14.816-15.215,14.816-21.498
	C190.543,404,177.643,425.269,174.29,422.667z"/>
<path fill="#1C4575" d="M172.434,418.328c0,0,5.576,0.887,5.838,4.441l-2.545,2.729c0,0-1.838-4.411-3.227-4.096L172.434,418.328z"
	/>
<path fill="none" stroke="#ACBFD8" stroke-width="0.25" stroke-miterlimit="10" d="M164.583,433.417c0,0,7.367-3.5,7.85-5.833
	l0.65,2.098C173.083,429.681,167.333,433.583,164.583,433.417z"/>
<path fill="none" stroke="#ACBFD8" stroke-width="0.25" stroke-miterlimit="10" d="M178.271,427.05v1.45
	c0,0,11.988-7.324,11.567-13.495C189.838,415.005,186.074,424.184,178.271,427.05z"/>
<path fill="#213551" d="M432.227,404.211c1.357-2.066,1.096-5.184-0.793-6.838c1.595-2.926,0.246-7.522-4.052-7.617
	c0.407-1.483,0.192-3.158-0.636-4.439c-0.626-1.712-2.123-3.068-4.496-3.068c-4.578,0-5.902,5.036-3.981,7.96
	c0.622,1.663,2.068,2.983,4.349,3.033c-0.517,1.886-0.031,4.081,1.449,5.379c-0.851,1.557-0.86,3.583-0.042,5.158
	c-0.928,1.406-1.096,3.301-0.517,4.892c-1.202,1.09-1.712,2.784-1.553,4.398c-3.45,2.386-2.521,9.179,2.796,9.179
	c3.475,0,5.074-2.904,4.804-5.582c1.898-1.322,2.467-3.977,1.695-6.095C432.957,409.018,433.283,406.236,432.227,404.211z"/>
<path fill="#ACBFD8" d="M126.5,418.583c0,0-3.582-1.137-3.985-2.333C122.111,415.054,126.75,418.083,126.5,418.583z"/>
<path fill="none" stroke="#A8BED7" stroke-width="0.25" stroke-miterlimit="10" d="M174.752,418.998c0,0,1.911-25.564-0.462-30.082
	C174.29,388.917,179.753,401.337,174.752,418.998z"/>
<path fill="none" stroke="#A8BED7" stroke-width="0.25" stroke-miterlimit="10" d="M175.353,418.998c0,0,8.147-15.704,5.147-24.65
	S179.594,415.756,175.353,418.998z"/>
<path fill="none" stroke="#A8BED7" stroke-width="0.25" stroke-miterlimit="10" d="M176.861,419.417c0,0,12.889-25.198,3.806-29
	C180.667,390.417,194.971,391.566,176.861,419.417z"/>
<path fill="none" stroke="#A8BED7" stroke-width="0.25" stroke-miterlimit="10" d="M176.861,420.214
	c0,0,12.559-16.862,12.053-23.214C188.913,397,190.727,405.826,176.861,420.214z"/>
<path fill="#244676" d="M254.753,354.183c0,0,18.41-7.517,20.743-14.183c2.333-6.667,14.844,5.05,22.34,9.859
	c7.497,4.808,17.665,7.808,17.665,7.808l42.558,10.667l22.427,7.333l-3.914,3.384L254,357.667l-1.889-2.512L254.753,354.183z"/>
<path fill="#244676" d="M190.543,436.917c0,0,7.879-0.964,8.954,3c0.837,3.083,9.17,14.667,9.17,14.667l12.583,9.333
	c0,0,5.106,1.746,3.206,1.399C222.556,464.969,213.614,472.193,190.543,436.917z"/>
<path fill="#244676" d="M268.125,448.667l-9.288-10c0,0,11.394,3.962,12.689,4.184c1.295,0.222,6.802,1.283,7.474,1.055
	s-0.612-1.695-6.503-4.529c-5.329-2.563,18.336,1.247,19.503,0.163s-4.006,2.336-2.836,5.815s-15.994,3.978-15.994,3.978
	S294.884,474.064,298,473C298,473,291.416,479.333,268.125,448.667z"/>
<path fill="#244676" d="M379.541,428.471l-13.097,6.819c0,0,25.845,25.019,43.31,17.448
	C427.22,445.167,384.586,461.775,379.541,428.471z"/>
<path fill="#244676" d="M161.913,434.013c0,0,7.971-0.037,11.865-4.572l0.498,2.321
	C174.275,431.763,168.734,436.029,161.913,434.013z"/>
<path fill="#244676" d="M176.588,427.939c0,0,10.82-2.351,14.725-13.856c0,0-2.519,11.375-13.653,15.91L176.588,427.939z"/>
<path fill="#244676" d="M156.707,411.25c0,0-1.747,3.437-4.747,3.692c0,0,5.222,0.222,5.986-5.156
	C158.711,404.407,156.707,411.25,156.707,411.25z"/>
</svg>
