<?xml version="1.0" encoding="UTF-8" standalone="no"?>
<!-- Created with Inkscape (http://www.inkscape.org/) -->

<svg
   xmlns:dc="http://purl.org/dc/elements/1.1/"
   xmlns:cc="http://creativecommons.org/ns#"
   xmlns:rdf="http://www.w3.org/1999/02/22-rdf-syntax-ns#"
   xmlns:svg="http://www.w3.org/2000/svg"
   xmlns="http://www.w3.org/2000/svg"
   xmlns:sodipodi="http://sodipodi.sourceforge.net/DTD/sodipodi-0.dtd"
   xmlns:inkscape="http://www.inkscape.org/namespaces/inkscape"
   id="svg3355"
   version="1.1"
   inkscape:version="0.91 r13725"
   width="500"
   height="200"
   viewBox="0 0 825.69157 272.20066"
   sodipodi:docname="detailed glasses.svg">
  <metadata
     id="metadata3361">
    <rdf:RDF>
      <cc:Work
         rdf:about="">
        <dc:format>image/svg+xml</dc:format>
        <dc:type
           rdf:resource="http://purl.org/dc/dcmitype/StillImage" />
        <dc:title />
      </cc:Work>
    </rdf:RDF>
  </metadata>
  <defs
     id="defs3359" />
  <sodipodi:namedview
     pagecolor="#ffffff"
     bordercolor="#666666"
     borderopacity="1"
     objecttolerance="10"
     gridtolerance="10"
     guidetolerance="10"
     inkscape:pageopacity="0"
     inkscape:pageshadow="2"
     inkscape:window-width="1084"
     inkscape:window-height="743"
     id="namedview3357"
     showgrid="false"
     inkscape:zoom="0.40190477"
     inkscape:cx="402.36451"
     inkscape:cy="389.12619"
     inkscape:window-x="-3"
     inkscape:window-y="0"
     inkscape:window-maximized="0"
     inkscape:current-layer="svg3355"
     units="in"
     width="9in" />
  <g
     id="g3376"
     transform="translate(-217.56351,-197.29499)">
    <path
       style="fill:#a0a0a0"
       d="m 813.91255,468.97015 c -0.6875,-0.22934 -2.67634,-0.72789 -4.41964,-1.1079 -2.13556,-0.46551 -3.16965,-1.52571 -3.16965,-3.24969 0,-2.48242 0.61659,-2.5534 20.66965,-2.37905 34.14158,0.29683 65.05083,-5.10047 83.98219,-14.66477 8.78747,-4.43952 11.85075,-6.77405 22.11264,-16.8521 2.51615,-2.47108 6.27231,-5.65073 8.34702,-7.06592 2.07472,-1.41517 7.41847,-8.2312 11.875,-15.1467 4.45654,-6.91551 8.75098,-12.3527 9.54322,-12.08266 1.97211,0.67223 11.97437,-22.20259 16.10731,-36.83686 3.7181,-13.16534 6.39031,-17.89284 4.94592,-8.75 -1.62053,10.25784 -11.58253,38.40727 -17.99827,50.85736 -8.69724,16.87748 -17.62673,28.24718 -29.92299,38.10019 -13.71069,10.98639 -41.80674,25.43022 -38.23964,19.65854 0.55619,-0.89993 0.0355,-1.13395 -1.48872,-0.66915 -5.86254,1.78766 -31.59821,5.81543 -37.87515,5.92766 -3.83289,0.0685 -8.37514,0.57496 -10.09389,1.1254 -5.35725,1.71569 5.16622,1.43979 21.22565,-0.5565 7.89286,-0.98113 14.58025,-1.55428 14.86086,-1.27365 1.13001,1.13 -6.82262,3.13747 -17.08962,4.3139 -9.94056,1.13903 -50.4291,1.63356 -53.37189,0.6519 z M 929.697,439.897 c 1.55484,-1.98258 1.51062,-2.02679 -0.47195,-0.47195 -1.20313,0.94356 -2.1875,1.92794 -2.1875,2.1875 0,1.0288 1.02649,0.36664 2.65945,-1.71555 z m 6.79419,-5.625 3.67136,-4.0625 -4.0625,3.67136 c -2.23438,2.01925 -4.0625,3.84738 -4.0625,4.0625 0,0.9657 1.03141,0.1155 4.45364,-3.67136 z m -531.95364,30.80452 c -28.19583,-2.39771 -45.54331,-6.25437 -60.86813,-13.53208 -24.8381,-11.79557 -43.28288,-31.44194 -57.20816,-60.93498 -3.02531,-6.40748 -5.87236,-13.15938 -6.32676,-15.00425 -0.51995,-2.11092 -1.4497,-3.11501 -2.50827,-2.70881 -3.32,1.27401 -11.38608,-19.92086 -20.50074,-53.86893 -3.9861,-14.84645 -5.69714,-19.3137 -8.33403,-21.75876 -1.82496,-1.6922 -4.3897,-5.49921 -5.6994,-8.46001 -1.3097,-2.9608 -4.40066,-8.02883 -6.8688,-11.26225 -2.46813,-3.23344 -5.21692,-7.62469 -6.10842,-9.75834 -0.8915,-2.13365 -2.85314,-4.99295 -4.3592,-6.35399 -1.50606,-1.36105 -4.13579,-5.23047 -5.84381,-8.59873 -2.44209,-4.81582 -2.83537,-6.71704 -1.84092,-8.8996 0.69553,-1.52653 1.67528,-5.51405 2.1772,-8.86118 1.57817,-10.5239 7.72377,-14.21327 31.1628,-18.70789 22.47822,-3.9432 54.5129,-8.08304 83.12664,-12.30192 l 12.8125,-2.15553 c 31.33481,-5.27163 93.81806,-6.214 122.8125,-1.85223 41.61519,6.26037 76.14446,18.56 91.66664,32.65246 13.49284,12.25004 17.27887,20.89167 10.96536,25.02845 -1.97425,1.29359 -2.78259,2.76567 -2.37485,4.3249 0.53934,2.0624 1.19986,1.75411 5.1805,-2.41796 5.17463,-5.42348 15.9565,-9.39047 30.81235,-11.33681 11.50819,-1.50775 40.625,-1.55452 40.625,-0.0652 0,0.63708 -0.98438,1.41558 -2.1875,1.72998 -1.37629,0.35967 -0.9401,0.62544 1.17623,0.71667 3.94676,0.17013 5.78141,2.24417 2.58907,2.9269 -1.21154,0.25911 0.81599,0.89226 4.50563,1.40701 3.68962,0.51475 7.01774,0.62657 7.39582,0.2485 0.37809,-0.37805 -0.54899,-0.68739 -2.06015,-0.68739 -1.51116,0 -3.07134,-0.84375 -3.46706,-1.875 -0.39574,-1.03125 -1.78433,-1.875 -3.08578,-1.875 -1.30144,0 -2.36626,-0.5625 -2.36626,-1.25 0,-1.74074 4.18358,-1.56643 6,0.25 0.825,0.825 1.5,1.01907 1.5,0.43126 0,-0.5878 0.98437,-0.2233 2.1875,0.81 2.72391,2.33944 6.98414,3.95224 5.92865,2.24443 -1.37953,-2.23214 2.68034,-1.2921 7.0115,1.62345 2.33604,1.57252 5.37235,4.63791 6.74735,6.81197 1.71046,2.70446 3.19085,3.74875 4.6875,3.30663 3.06554,-0.90559 2.77762,1.79005 -0.9375,8.77723 -1.71875,3.23252 -3.13267,7.67568 -3.14206,9.87367 -0.0215,5.04715 -1.22285,9.62136 -2.52678,9.62136 -0.55125,0 -2.2038,-1.94414 -3.67235,-4.3203 -2.54112,-4.11161 -2.5772,-4.5939 -0.7469,-9.98495 2.9693,-8.74584 1.42956,-10.76248 -11.57217,-15.15644 -10.30423,-3.48234 -11.88954,-3.66331 -32.08974,-3.66331 -22.88784,0 -30.62762,1.20908 -41.35031,6.45958 -7.19224,3.52171 -10.52469,8.14359 -10.52469,14.59697 0,5.79493 -2.06736,6.96245 -3.12854,1.76681 -2.05037,-10.03883 -5.81,-20.75328 -7.51126,-21.40612 -2.21936,-0.85165 -2.37039,1.12112 -0.49718,6.49462 1.51488,4.34558 0.79598,8.75685 -0.74771,4.58809 -3.67122,-9.91419 -7.33957,-16.01243 -12.50169,-20.78267 -20.07112,-18.54749 -43.56062,-28.22628 -83.11362,-34.24673 -10.26089,-1.56182 -21.9901,-1.95203 -53.75,-1.78811 -41.61265,0.21477 -59.79996,1.54623 -57.58454,4.21565 0.84473,1.01784 -1.39299,2.18579 -7.80304,4.07271 -4.94308,1.4551 -12.98338,3.82004 -17.86735,5.25541 l -8.87992,2.60979 -0.77399,8.28843 c -0.9117,9.76321 -1.92721,11.27668 -8.79927,13.11402 -10.66053,2.85024 -18.21633,7.33798 -20.76464,12.33308 -1.32969,2.60642 -4.12996,6.17978 -6.22281,7.9408 -4.20612,3.53921 -6.30444,7.95576 -6.30444,13.26956 0,1.92181 -1.54688,5.68206 -3.4375,8.35612 -3.03271,4.28942 -3.4126,5.89232 -3.22606,13.61194 0.23861,9.87477 2.887,25.38081 7.44442,43.58631 2.96689,11.85183 3.22334,17.40779 0.46914,10.16369 -0.72598,-1.90945 -1.59721,-3.19445 -1.9361,-2.85556 -0.33889,0.33887 0.48088,3.08876 1.82168,6.11085 1.34081,3.0221 2.47756,4.75839 2.52612,3.85844 0.12137,-2.249 2.5883,-0.54884 2.5883,1.78381 0,1.16675 -0.58151,1.51561 -1.53949,0.92355 -0.84671,-0.5233 -0.28421,0.64436 1.25,2.5948 1.53423,1.95044 2.82269,4.45477 2.86328,5.56519 0.0406,1.11041 1.41736,4.55017 3.05952,7.64392 1.64216,3.09375 3.57274,6.91418 4.29018,8.48983 2.69793,5.92531 11.82708,18.24395 19.72418,26.61528 23.01589,24.39807 54.22929,34.85437 104.13512,34.88464 28.31456,0.0171 42.82335,-2.50875 61.58866,-10.72232 12.12089,-5.30532 21.80199,-11.44255 29.69273,-18.82342 3.34421,-3.12812 6.80723,-5.43831 7.69559,-5.13376 1.66421,0.57051 -2.10407,4.59991 -15.32447,16.38639 -12.00542,10.70329 -35.76066,20.28405 -57.4353,23.16434 -11.31835,1.50406 -34.74182,2.54078 -42.5,1.88105 z m 247.8125,-207.56987 c -0.85938,-0.34676 -2.26563,-0.34676 -3.125,0 -0.85938,0.34676 -0.15625,0.63049 1.5625,0.63049 1.71875,0 2.42187,-0.28373 1.5625,-0.63049 z m -52.04561,-1.57668 c 10.07829,-1.90496 35.62325,-3.96946 38.36163,-3.10033 2.46936,0.78374 2.45365,0.86601 -0.47487,2.48841 -2.84604,1.57669 -2.6518,1.67026 3.22135,1.55193 3.4375,-0.0693 4.94137,-0.37534 3.34194,-0.68017 -1.87368,-0.3571 -2.66746,-1.18126 -2.23163,-2.31704 1.03624,-2.7004 -3.25414,-3.22369 -20.49176,-2.49942 -24.56286,1.03208 -27.45294,1.38482 -29.69223,3.62411 -2.54748,2.54748 -1.33161,2.68983 7.96557,0.93252 z m 174.79198,202.5489 c -19.99488,-9.77339 -40.50476,-27.20891 -51.49637,-43.77722 -2.92188,-4.40433 -5.3125,-8.48245 -5.3125,-9.0625 0,-2.22425 2.01685,-0.74759 5.625,4.11841 2.0625,2.78152 5.01562,6.43728 6.5625,8.12394 1.54687,1.68665 2.8125,3.58591 2.8125,4.22059 0,0.63467 0.84375,0.83017 1.875,0.43445 1.32434,-0.5082 1.875,0.10662 1.875,2.09333 0,3.70643 15.33819,18.58784 24.7773,24.03943 3.90374,2.25461 12.01957,6.26809 18.0352,8.91884 6.01562,2.65075 10.9375,5.02807 10.9375,5.28295 0,1.75567 -7.28588,-0.28378 -15.69113,-4.39222 z m 113.81613,3.60563 c 0.4249,-0.6875 2.17879,-1.25 3.89754,-1.25 1.76503,0 2.7888,0.54399 2.35246,1.25 -0.4249,0.6875 -2.17879,1.25 -3.89754,1.25 -1.76503,0 -2.7888,-0.54399 -2.35246,-1.25 z M 524.03309,415.90905 c 1.3087,-2.24738 3.53436,-5.01165 4.94591,-6.14285 1.41155,-1.13119 2.94077,-3.04108 3.39827,-4.2442 0.91219,-2.39886 3.41028,-3.00225 3.41028,-0.8237 0,1.72831 -7.73402,10.81421 -11.37745,13.36616 l -2.75649,1.93072 z M 711.7342,396.147 c -1.76037,-3.26563 -4.95875,-9.2127 -7.1075,-13.21573 -5.55985,-10.3577 -14.09954,-30.69061 -13.56427,-32.29638 0.41917,-1.25753 25.97512,48.44321 25.97512,50.51593 0,2.60062 -2.45041,0.28861 -5.30335,-5.00382 z m -173.93114,0.27349 c 1.14023,-1.7402 2.32377,-2.91338 2.63009,-2.60705 0.86563,0.86562 -2.08252,5.77106 -3.4684,5.77106 -0.67915,0 -0.30192,-1.4238 0.83831,-3.16401 z m 424.23449,-3.6071 c 0,-0.28662 2.25699,-6.82163 5.01554,-14.52225 5.23314,-14.60863 10.44241,-33.86153 11.9103,-44.01914 0.85002,-5.88217 3.07416,-8.317 3.07416,-3.36537 0,4.38766 -5.10477,27.56063 -8.32435,37.78821 -3.67394,11.67088 -9.29428,24.63966 -10.6782,24.63966 -0.5486,0 -0.99745,-0.2345 -0.99745,-0.52111 z m -404.75,-13.47889 c -2.06946,-2.06946 -1.87818,-4.68334 0.4069,-5.56021 1.39047,-0.53358 1.54806,-1.16414 0.58186,-2.32834 -0.95564,-1.15146 -0.80689,-2.11476 0.53356,-3.45521 1.02225,-1.02224 1.52365,-2.19359 1.11424,-2.603 -0.40941,-0.40942 0.19664,-1.1055 1.34678,-1.54685 1.40853,-0.5405 1.83593,-1.60659 1.30931,-3.26584 -0.52469,-1.65314 0.59373,-4.4817 3.40025,-8.59956 2.30015,-3.37489 4.60397,-6.13724 5.1196,-6.13858 1.16785,-0.002 1.26929,-1.41168 -0.98295,13.65118 -1.54767,10.35078 -2.57889,13.66912 -5.3125,17.09512 -3.63885,4.56053 -5.15345,5.11489 -7.51705,2.75129 z m 123.28881,0.20657 c -1.1474,-0.66957 -3.05092,-3.74354 -4.23006,-6.83107 -1.91876,-5.02421 -1.9834,-7.02529 -0.61563,-19.05709 1.11602,-9.81712 1.16122,-14.39261 0.16757,-16.96229 -2.4844,-6.42491 -0.99963,-19.60612 2.2085,-19.60612 0.62209,0 1.52664,6.60937 2.01012,14.6875 1.01865,17.02002 4.48329,26.92974 9.88959,28.28662 7.27988,1.82714 6.2053,14.80312 -1.55835,18.81785 -4.37006,2.25985 -5.041,2.31649 -7.87174,0.6646 z m 8.92499,-16.2554 c -1.01134,-0.63958 -2.68255,-1.16321 -3.7138,-1.16361 -1.03345,-3.9e-4 -0.47242,0.73845 1.25,1.64617 3.40974,1.79693 5.43956,1.39937 2.4638,-0.48256 z m -8.7138,-8.0024 c 0,-0.30317 -0.5625,-0.89887 -1.25,-1.32377 -0.6875,-0.4249 -1.25,-0.17685 -1.25,0.55123 0,0.72807 0.5625,1.32377 1.25,1.32377 0.6875,0 1.25,-0.24805 1.25,-0.55123 z M 562.66182,350.8345 c 1.14494,-5.64305 5.38278,-15.03254 5.5204,-12.23119 0.1378,2.80475 -3.53273,13.75228 -5.14867,15.35619 -0.84519,0.83889 -0.96744,-0.1889 -0.37173,-3.125 z m 9.57309,-16.25 c 0,-1.71875 0.28373,-2.42188 0.63049,-1.5625 0.34676,0.85937 0.34676,2.26562 0,3.125 -0.34676,0.85937 -0.63049,0.15625 -0.63049,-1.5625 z m -3.84867,-0.72916 c 0.06,-1.45619 0.35617,-1.75238 0.7552,-0.75522 0.36108,0.90234 0.31668,1.98047 -0.0986,2.39584 -0.41536,0.41536 -0.7108,-0.32292 -0.65652,-1.64062 z m 1.38899,-7.71885 c 0.4693,-5.66679 2.73868,-6.20444 3.26712,-0.77405 0.26169,2.6892 -0.24749,4.14365 -1.63734,4.67698 -1.67133,0.64135 -1.95072,-0.0277 -1.62978,-3.90293 z m 2.36101,-9.78115 c 0.06,-1.45619 0.35617,-1.75238 0.7552,-0.75522 0.36108,0.90234 0.31668,1.98047 -0.0986,2.39584 -0.41536,0.41536 -0.7108,-0.32292 -0.65652,-1.64062 z m 2.40131,-3.4983 c 0,-1.71875 0.5625,-3.47264 1.25,-3.89754 0.70601,-0.43634 1.25,0.58742 1.25,2.35246 0,1.71875 -0.5625,3.47264 -1.25,3.89754 -0.70601,0.43634 -1.25,-0.58743 -1.25,-2.35246 z m -7.40131,-2.7517 c 0.06,-1.45619 0.35617,-1.75238 0.7552,-0.75522 0.36108,0.90234 0.31668,1.98047 -0.0986,2.39584 -0.41536,0.41536 -0.7108,-0.32292 -0.65652,-1.64062 z M 988.43141,304.897 c -2.0583,-2.7588 -2.57247,-2.99104 -2.60426,-1.17623 -0.0611,3.48667 -2.5396,1.13577 -2.5396,-2.40881 0,-1.76504 -0.54399,-2.7888 -1.25,-2.35246 -0.6875,0.4249 -1.25,1.86435 -1.25,3.19877 0,2.81563 -2.79202,3.21168 -4.88266,0.69262 -0.79133,-0.9535 -3.11346,-6.32239 -5.16031,-11.93089 -7.18608,-19.69031 -13.20167,-27.99248 -24.33203,-33.58086 -5.21549,-2.61861 -10.95459,-8.25839 -9.69035,-9.52263 0.40261,-0.4026 2.6472,-0.73201 4.98797,-0.73201 3.86904,0 4.07738,-0.17858 2.29167,-1.96429 -1.08037,-1.08035 -1.96429,-2.47517 -1.96429,-3.09959 0,-2.94519 -21.20283,-10.51692 -52.22521,-18.65012 -2.94263,-0.77146 -5.05148,-1.88606 -4.68633,-2.47688 1.64258,-2.65773 -32.60952,-4.68533 -56.83846,-3.36462 -28.8516,1.57269 -85.32504,11.56383 -90.92159,16.08561 -0.85061,0.68727 -2.42795,0.91137 -3.5052,0.49799 -3.67794,-1.41136 -25.43628,11.59713 -32.98951,19.72318 -1.82676,1.96529 -3.86988,3.00897 -5.1161,2.61343 -1.14113,-0.36217 -3.56941,0.51718 -5.39619,1.95412 -3.10252,2.44045 -3.32141,2.46169 -3.32141,0.32258 0,-1.25952 -1.125,-2.99262 -2.5,-3.85132 -3.92951,-2.45403 -2.9833,-5.70976 3.6045,-12.40229 18.8171,-19.11625 50.6376,-30.88131 103.2705,-38.18242 16.76072,-2.325 25.66874,-2.77359 55,-2.76963 47.04942,0.006 64.9492,2.41328 153.264,20.60888 29.70805,6.1208 35.98935,7.89165 40.45705,11.40596 3.4197,2.68991 3.4751,2.93955 2.7474,12.37634 -0.9551,12.38513 -4.1701,20.68782 -11.2048,28.93616 -3.1015,3.63655 -8.6484,11.06516 -12.3264,16.50801 -3.678,5.44286 -7.5311,10.31998 -8.5623,10.83804 -14.8904,7.48045 -18.46913,7.91319 -22.35609,2.70336 z m -8.73875,-43.14584 c -1.23452,-1.22532 -1.3781,-1.08175 -0.69975,0.69975 0.46942,1.23278 1.16837,1.92653 1.55323,1.54166 0.38486,-0.38486 8e-4,-1.39348 -0.85348,-2.24141 z M 729.77528,232.03954 c 5.287,-2.3492 9.43637,-4.4476 9.22084,-4.66313 -0.87097,-0.87099 -20.10641,7.54569 -26.30081,11.50819 -9.46035,6.05172 -9.76996,7.76204 -0.38657,2.13552 4.3196,-2.59013 12.17954,-6.6314 17.46654,-8.98058 z m 91.92373,-26.96025 c -0.41536,-0.41537 -1.4935,-0.45977 -2.39583,-0.0986 -0.99717,0.39903 -0.70098,0.69523 0.75521,0.7552 1.3177,0.0542 2.05598,-0.24116 1.64062,-0.65652 z m -245.91146,99.65275 c 0,-1.375 0.5625,-2.84764 1.25,-3.27254 0.6875,-0.4249 1.25,0.35246 1.25,1.72746 0,1.375 -0.5625,2.84764 -1.25,3.27254 -0.6875,0.4249 -1.25,-0.35246 -1.25,-1.72746 z m -7.21,-8.89754 c 0,-2.40625 0.25725,-3.39063 0.57166,-2.1875 0.3144,1.20312 0.3144,3.17187 0,4.375 -0.31441,1.20312 -0.57166,0.21875 -0.57166,-2.1875 z m -1.44131,-14.47916 c 0.06,-1.45619 0.35617,-1.75238 0.7552,-0.75522 0.36108,0.90234 0.31668,1.98047 -0.0986,2.39584 -0.41536,0.41536 -0.7108,-0.32292 -0.65652,-1.64062 z"
       id="path3371"
       inkscape:connector-curvature="0"
       sodipodi:nodetypes="sssssssscssssscssscssssssscssscssscsssssssssccsssssssscssscscsssssssssscssssssssssssssssscssssssssscsssssssssssssssccsssscsscssssccsssssssssssssssssssssscssscssscssssssssssssssssscssssssssssssscssssssssssssssscscccsssscscccssssscscccsssssssssssssssssscssssssssssscsssssssssscccccssssssssscsccc" />
    <path
       style="fill:#5f5f5f"
       d="m 813.62326,468.40959 c -5.07711,-0.82741 -8.7359,-2.57509 -5.39098,-2.57509 1.27587,0 1.29391,-0.38252 0.0866,-1.83719 -1.33308,-1.60625 1.43661,-1.81364 22.03444,-1.64988 24.92088,0.19812 41.96494,-1.67199 60.32009,-6.61845 10.45368,-2.81713 21.36408,-7.23058 21.36408,-8.64215 0,-0.5169 1.5606,-1.25195 3.468,-1.63343 1.9074,-0.38147 5.53577,-2.70179 8.06304,-5.15625 2.52728,-2.45446 4.79901,-4.46265 5.04829,-4.46265 1.94921,0 21.53045,-21.09982 25.84535,-27.84975 2.97962,-4.6611 5.66887,-8.22336 5.97611,-7.91612 0.86229,0.86227 -7.93909,14.19948 -15.51762,23.51471 -3.74695,4.60561 -10.99102,11.57421 -16.0979,15.48577 -5.1069,3.91157 -9.28527,7.32967 -9.28527,7.59577 0,1.81661 9.2861,-5.01063 17.53654,-12.89304 17.86884,-17.0718 32.92731,-42.97496 41.5635,-71.49636 4.75745,-15.71169 6.65851,-19.393 3.89313,-7.53884 -4.56665,19.57545 -15.09033,45.27195 -24.67989,60.26285 -6.09384,9.52621 -13.27546,17.2181 -24.25318,25.97645 -10.37591,8.27819 -34.00477,20.72062 -35.31711,18.59721 -0.58471,-0.94607 -6.29747,-0.3659 -18.85345,1.91473 -9.90799,1.79965 -19.70204,3.01096 -21.76454,2.69178 -3.98156,-0.61615 -13.125,1.61952 -13.125,3.20919 0,1.26725 0.59153,1.2374 19.82609,-1.00061 9.18559,-1.06879 16.9462,-1.69813 17.24579,-1.39854 0.72376,0.72378 -5.26759,1.77009 -18.94688,3.30881 -12.41099,1.39608 -40.76042,1.46029 -49.03928,0.11113 z m -428.35449,-5.77003 c -56.15032,-7.64447 -90.5555,-39.27415 -108.83061,-100.05112 -2.46067,-8.18342 -4.73956,-15.44144 -5.06417,-16.12894 -1.37277,-2.90736 1.02422,9.39759 3.26341,16.75274 5.767,18.94312 -2.24533,4.02541 -8.9866,-16.73168 -2.01329,-6.19908 -5.72494,-19.09581 -8.24811,-28.6594 -3.72002,-14.09992 -5.23217,-17.96265 -7.9959,-20.42515 -1.87457,-1.67025 -4.54232,-5.67289 -5.92832,-8.89476 -1.38601,-3.22186 -4.30192,-8.09305 -6.47978,-10.82485 -2.17788,-2.73179 -5.05217,-7.09961 -6.38732,-9.70626 -1.33515,-2.60665 -3.51,-5.82182 -4.833,-7.14481 -1.323,-1.323 -3.84978,-5.25573 -5.61511,-8.73942 -2.95492,-5.83127 -3.05752,-6.55116 -1.29269,-9.07081 1.05434,-1.50527 1.91698,-4.81855 1.91698,-7.36283 0,-9.25703 9.07696,-15.01627 29.375,-18.63814 4.125,-0.73606 9.54845,-1.87036 12.05211,-2.52067 36.57161,-5.01891 36.14198,-4.60783 75.32101,-10.44321 1.44479,-0.4008 11.34563,-1.89841 22.00188,-3.32801 26.3306,-3.53242 84.27681,-3.87865 106.875,-0.6386 54.69317,7.84174 92.77656,23.8173 105.8249,44.3924 4.3727,6.89501 4.44346,9.22429 0.37741,12.42265 -2.53064,1.9906 -3.00264,3.1731 -2.33244,5.84342 l 0.84025,3.3478 2.29675,-3.62747 c 5.28197,-8.34228 22.36208,-13.44967 49.24313,-14.72493 10.86895,-0.51564 18.68411,-0.35302 20.625,0.42915 2.72586,1.09853 2.24691,1.29776 -3.75,1.55993 -3.78125,0.16531 -11.72005,0.14006 -17.64178,-0.0561 -6.92605,-0.22945 -11.81826,0.20606 -13.71443,1.22086 -1.62122,0.86765 -5.34992,1.48669 -8.286,1.37563 -3.934,-0.1488 -6.02597,0.48571 -7.95223,2.41197 -1.43764,1.43764 -2.4056,2.82219 -2.15101,3.07678 0.25457,0.25459 4.94207,-0.34138 10.41666,-1.32435 5.47459,-0.98299 16.70379,-2.04404 24.95379,-2.35791 13.86597,-0.52753 14.12571,-0.49813 3.4355,0.38885 -6.36048,0.52773 -11.9386,1.33362 -12.39584,1.79086 -0.45722,0.45724 4.7468,0.83531 11.5645,0.84017 6.81771,0.005 17.73138,0.80996 24.25258,1.78909 6.52121,0.97914 12.04765,1.58935 12.28098,1.35602 0.23334,-0.23333 -4.25845,-1.58234 -9.98173,-2.9978 -9.8731,-2.44179 -10.04338,-2.53977 -3.32505,-1.91323 8.34667,0.77839 16.3766,-0.44359 15.21935,-2.31605 -2.3343,-3.77697 10.0172,5.2438 12.6712,9.25426 2.15399,3.25488 3.75857,4.50823 5.10847,3.99023 1.7742,-0.68083 1.76843,-0.27699 -0.0586,4.09921 -1.1147,2.66994 -2.55989,5.38881 -3.21153,6.04194 -0.65164,0.65312 -1.19247,3.18437 -1.20186,5.625 -0.0214,5.54372 -1.18888,10.0625 -2.59991,10.0625 -0.59147,0 -2.01522,-1.43434 -3.16388,-3.18743 -1.84494,-2.81572 -1.89936,-3.9758 -0.4667,-9.94781 2.15894,-8.99946 0.6816,-11.0929 -10.62745,-15.0593 -21.48914,-7.53685 -61.33556,-6.23699 -76.22101,2.48646 -6.7276,3.94264 -9.40399,8.0449 -9.40399,14.4141 0,8.06924 -1.90444,5.86105 -4.41127,-5.11485 -2.38398,-10.43797 -5.36348,-15.90047 -7.83853,-14.37081 -0.96966,0.59929 -1.03236,1.8474 -0.20244,4.03026 2.6064,6.85534 0.9593,6.92787 -1.85563,0.0817 -2.22197,-5.404 -5.0085,-9.12686 -10.75955,-14.375 -18.92961,-17.2742 -36.94768,-25.32844 -72.43261,-32.37799 -16.17364,-3.2131 -18.61541,-3.35753 -58.75,-3.47494 -49.18641,-0.14389 -64.7933,1.12381 -63.25298,5.13785 0.39944,1.04089 0.18591,1.55481 -0.47603,1.14571 -0.6602,-0.40803 -2.48189,0.07 -4.04818,1.06238 -1.5663,0.99234 -4.81656,2.20556 -7.22281,2.69606 -2.40625,0.4905 -8.63499,2.22629 -13.84163,3.85731 l -9.46663,2.9655 0.0616,5.95289 c 0.10838,10.46676 -0.9632,12.3696 -8.31436,14.76376 -13.36914,4.35414 -19.7778,8.23539 -21.75421,13.17495 -1.01099,2.52669 -3.97885,6.31432 -6.59528,8.41692 -4.12349,3.31373 -4.83777,4.66233 -5.36266,10.125 -0.38632,4.02058 -1.80408,8.03153 -3.91621,11.07935 -2.4937,3.59841 -3.30943,6.303 -3.30564,10.9601 0.006,7.84595 2.90044,25.75413 6.89199,42.64707 3.29123,13.92909 3.69457,16.66224 1.73565,11.76134 -0.74827,-1.87203 -1.65335,-2.57991 -2.37543,-1.85784 -1.34949,1.34949 5.54745,16.75724 7.501,16.75724 0.68296,0 1.24176,1.03857 1.24176,2.30795 0,2.32258 2.38455,8.15018 5.70483,13.94205 0.9853,1.71875 3.04371,5.5691 4.57424,8.55635 4.27625,8.34625 18.24877,25.05352 26.59593,31.80139 23.28316,18.82214 49.47887,25.89226 95.93422,25.89226 34.09052,0 45.57861,-2.28056 68.61423,-13.62096 7.46063,-3.67285 12.62343,-7.2982 24.80977,-17.42158 7.35011,-6.10583 6.12593,-2.80756 -1.54569,4.16455 -3.60938,3.28027 -8.53125,7.7842 -10.9375,10.00876 -9.52656,8.80727 -33.3741,17.95699 -55.16043,21.16374 -16.02553,2.35881 -44.3243,2.36367 -61.60835,0.01 z M 342.35005,217.50665 c -0.85938,-0.34676 -2.26563,-0.34676 -3.125,0 -0.85938,0.34676 -0.15625,0.63049 1.5625,0.63049 1.71875,0 2.42187,-0.28373 1.5625,-0.63049 z m 6.25,-1.25 c -0.85938,-0.34676 -2.26563,-0.34676 -3.125,0 -0.85938,0.34676 -0.15625,0.63049 1.5625,0.63049 1.71875,0 2.42187,-0.28373 1.5625,-0.63049 z m 9.0625,-1.67215 c 2.5,-1.07429 2.5,-1.07429 0,-1.07429 -1.375,0 -3.625,0.48343 -5,1.07429 -2.5,1.07429 -2.5,1.07429 0,1.07429 1.375,0 3.625,-0.48343 5,-1.07429 z m 23.75,-6.25 3.75,-0.95421 -3.75,0 c -2.0625,0 -5.4375,0.4294 -7.5,0.95421 l -3.75,0.95421 3.75,0 c 2.0625,0 5.4375,-0.4294 7.5,-0.95421 z m 401.52039,253.08778 c -5.88938,-2.16178 -19.85234,-9.54749 -19.22878,-10.17107 0.25368,-0.25366 6.31058,2.31779 13.4598,5.71434 12.75808,6.06128 15.1279,7.89205 5.76898,4.45673 z m 107.85461,0.66222 c 1.03125,-0.66645 2.4375,-1.21171 3.125,-1.21171 0.6875,0 0.40625,0.54526 -0.625,1.21171 -1.03125,0.66645 -2.4375,1.21171 -3.125,1.21171 -0.6875,0 -0.40625,-0.54526 0.625,-1.21171 z M 742.2035,435.06226 c -5.63738,-5.23722 -12.68739,-12.9716 -15.66671,-17.1875 -5.36797,-7.59596 -8.74956,-13.29026 -7.89253,-13.29026 1.00419,0 13.39329,16.26929 13.39329,17.58799 0,0.78621 0.84375,1.10571 1.875,0.70997 1.17763,-0.4519 1.875,0.0129 1.875,1.24949 0,1.08295 4.03256,6.1278 8.96125,11.21077 4.92869,5.08298 8.67847,9.24178 8.33286,9.24178 -0.34561,0 -5.24079,-4.28501 -10.87816,-9.52224 z M 524.61927,416.4595 c 0.0166,-0.6875 2.53636,-4.0471 5.59929,-7.46578 3.06295,-3.41867 5.54738,-5.66867 5.52096,-5 -0.0264,0.66868 -2.5461,4.02828 -5.59928,7.46578 -3.0532,3.4375 -5.53764,5.6875 -5.52097,5 z M 709.13529,390.522 c -6.21766,-11.44033 -17.4633,-35.9886 -16.79338,-36.65854 0.23579,-0.23577 5.85559,10.23625 12.48845,23.27118 6.63285,13.03492 11.57596,23.69986 10.98469,23.69986 -0.59127,0 -3.59716,-4.64063 -6.67976,-10.3125 z m -172.09774,7.34055 c 0,-0.25956 0.98437,-1.24394 2.1875,-2.1875 1.98257,-1.55484 2.02679,-1.51063 0.47195,0.47195 -1.63296,2.08219 -2.65945,2.74435 -2.65945,1.71555 z m 426.30005,-6.56673 c -0.0275,-0.77752 1.42489,-5.27752 3.22757,-10 4.73723,-12.41001 10.3518,-32.22221 11.99768,-42.33632 0.78314,-4.8125 1.92909,-9.3125 2.54656,-10 2.57781,-2.87016 -5.56917,33.985 -10.42185,47.14618 -3.8658,10.48461 -7.26765,17.51521 -7.34996,15.19015 z M 557.02372,378.30866 c -1.41577,-2.64539 -0.58808,-5.4937 1.26383,-4.34916 0.59249,0.36617 1.40655,0.13297 1.80901,-0.51824 0.40248,-0.65121 0.16009,-1.53733 -0.53862,-1.96916 -2.18069,-1.34774 -1.39195,-3.1376 1.38266,-3.1376 2.14215,0 2.37117,-0.33965 1.18931,-1.76371 -1.08699,-1.30974 -1.09835,-1.98955 -0.0441,-2.64108 0.78077,-0.48255 1.14517,-1.92674 0.80977,-3.20931 -0.64365,-2.46118 5.98092,-13.6359 8.08355,-13.6359 0.66329,0 0.93543,0.43776 0.60477,0.9728 -0.33068,0.53504 -1.25047,5.71456 -2.04398,11.51006 -1.53039,11.17726 -2.52759,13.95446 -6.62645,18.45464 -3.15536,3.4643 -4.16286,3.51334 -5.88972,0.28666 z m 124.56634,1.05026 c -4.29851,-2.40557 -6.13815,-8.52026 -5.74076,-19.08143 0.36613,-9.73031 0.25951,-20.92391 -0.2983,-31.31799 -0.31799,-5.92521 1.13121,-12.24215 2.60025,-11.33424 0.57221,0.35365 1.3133,7.26919 1.64684,15.36787 0.45638,11.08138 1.18213,15.80633 2.93306,19.09561 1.27964,2.40392 2.35019,4.7946 2.379,5.31261 0.0289,0.51802 2.02115,1.92427 4.4274,3.125 3.62756,1.81018 4.43951,2.95438 4.75262,6.69735 0.62237,7.43985 -7.39731,15.10281 -12.70011,12.13522 z m 7.94885,-16.27467 c -4.93779,-3.99837 -6.78667,-2.54434 -2.30501,1.81275 3.02596,2.94185 4.30344,3.56245 4.631,2.24975 0.24879,-0.99701 -0.7979,-2.82514 -2.32599,-4.0625 z m -8.62161,-8.87 c -1.60436,-1.60436 -3.23131,-0.36438 -2.04355,1.55747 0.4601,0.74445 1.40919,0.99964 2.10909,0.56708 0.85375,-0.52765 0.83218,-1.22683 -0.0655,-2.12455 z M 563.47775,350.8345 c 0,-1.03125 0.75816,-3.84375 1.6848,-6.25 0.92664,-2.40625 1.6848,-3.53125 1.6848,-2.5 0,1.03125 -0.75816,3.84375 -1.6848,6.25 -0.92664,2.40625 -1.6848,3.53125 -1.6848,2.5 z m 8.22126,-23.25521 c -0.50131,-0.5013 -0.89436,-2.08333 -0.87345,-3.51563 0.0351,-2.40448 0.13773,-2.43282 1.33846,-0.36956 1.39827,2.40264 1.0406,5.39081 -0.46501,3.88519 z m 2.83854,-14.72225 c 0,-1.03125 0.5625,-2.22264 1.25,-2.64754 0.6875,-0.4249 1.25,0.0713 1.25,1.10246 0,1.03125 -0.5625,2.22264 -1.25,2.64754 -0.6875,0.4249 -1.25,-0.0713 -1.25,-1.10246 z M 988.43141,303.647 c -2.0583,-2.7588 -2.57247,-2.99104 -2.60426,-1.17623 -0.0229,1.30425 -0.61471,1.90583 -1.3985,1.42143 -0.74739,-0.46191 -1.08671,-1.88069 -0.75404,-3.15281 0.33267,-1.27214 -0.18082,-2.96503 -1.1411,-3.76199 -1.43,-1.18679 -1.74596,-0.75603 -1.74596,2.38027 0,2.1061 -0.64784,4.22967 -1.43962,4.71903 -2.04579,1.26436 -4.31487,-2.35146 -7.4441,-11.86238 -6.2922,-19.1243 -13.03192,-28.70976 -24.50975,-34.85863 -6.47585,-3.46923 -11.913,-8.76285 -9.42962,-9.18072 0.52145,-0.0877 2.25122,-0.29398 3.84392,-0.45832 3.24119,-0.33444 6.90036,-3.13215 4.09657,-3.13215 -0.89793,0 -2.71036,-1.37016 -4.02764,-3.0448 -2.94306,-3.74149 -15.92555,-8.78909 -39.17515,-15.23129 -13.95488,-3.86675 -16.71545,-4.97762 -13.75,-5.5331 5.10751,-0.95674 -20.27997,-3.77781 -38.89936,-4.32254 -16.37961,-0.47918 -43.31838,1.90369 -65.211,5.76827 -29.70663,5.24392 -38.49931,6.99317 -41.55425,8.26695 -1.71875,0.71663 -3.54688,1.05457 -4.0625,0.75097 -0.51563,-0.3036 -0.9375,0.006 -0.9375,0.68816 0,0.68209 -1.58834,1.19502 -3.52964,1.13982 -5.20441,-0.14798 -20.86184,8.58611 -29.15292,16.26218 -4.10212,3.79784 -7.84878,6.32453 -8.64685,5.8313 -0.77454,-0.4787 -3.0195,0.32089 -4.98881,1.77687 -3.82061,2.8247 -5.54568,3.4018 -4.34072,1.45212 0.40623,-0.6573 -0.68557,-2.12824 -2.42622,-3.26876 -4.18142,-2.73976 -4.00708,-4.10219 1.32152,-10.32746 9.44053,-11.02914 27.68003,-21.50204 49.26364,-28.28663 51.50582,-16.1903 123.27529,-19.54519 186.875,-8.73552 43.5149,7.39597 108.23585,21.18151 114.53775,24.3965 5.9918,3.05681 6.8688,7.11911 4.3486,20.14312 -2.193,11.33294 -3.9464,15.03014 -10.962,23.11461 -2.88,3.31883 -8.2003,10.62082 -11.8228,16.22665 -5.4924,8.49949 -7.3766,10.44508 -11.3439,11.7135 -2.6167,0.8366 -5.292,2.01563 -5.9451,2.62008 -0.6532,0.60445 -3.27814,1.099 -5.83329,1.099 -3.61301,0 -5.21586,-0.76414 -7.2104,-3.4375 z m 9.85614,0.9375 c 0,-0.6875 -0.87695,-1.25 -1.94878,-1.25 -1.07182,0 -1.60112,0.5625 -1.17622,1.25 0.4249,0.6875 1.30185,1.25 1.94878,1.25 0.64692,0 1.17622,-0.5625 1.17622,-1.25 z m -4.16666,-21.875 c 0,-1.03125 -0.75,-1.875 -1.66668,-1.875 -2.10652,0 -2.18082,2.0842 -0.10412,2.92215 0.85937,0.34676 1.60937,0.67489 1.66666,0.72916 0.0572,0.0542 0.10412,-0.74506 0.10412,-1.77631 z m 1.04166,-4.375 c 0.4249,-0.6875 0.21004,-1.25 -0.47746,-1.25 -0.6875,0 -1.59764,0.5625 -2.02254,1.25 -0.4249,0.6875 -0.21004,1.25 0.47746,1.25 0.6875,0 1.59764,-0.5625 2.02254,-1.25 z m -15.17691,-11.98008 c 1.53226,-0.58798 1.63475,-1.31785 0.52659,-3.75 -0.75678,-1.66096 -1.86797,-3.01992 -2.46931,-3.01992 -0.60133,0 -0.45296,1.19654 0.32971,2.65896 1.10996,2.07399 1.05088,2.89479 -0.26852,3.73086 -1.95114,1.23638 -0.90215,1.44829 1.88153,0.3801 z M 707.49305,244.4945 c 4.33729,-3.4117 25.29785,-13.65906 36.80366,-17.99285 5.0238,-1.89226 8.9174,-3.65726 8.65245,-3.92221 -0.50065,-0.50064 -17.36516,5.04805 -27.16161,8.9366 -6.17017,2.44916 -21.70155,12.01527 -23.0499,14.19693 -1.37957,2.23222 1.21311,1.56789 4.7554,-1.21847 z m 119.44034,-39.44516 c 0.28645,-0.25567 -2.07098,-0.46484 -5.23874,-0.46484 -3.16775,0 -6.13407,0.60597 -6.59181,1.34661 -0.57809,0.93536 1.02176,1.07733 5.23874,0.46483 3.33903,-0.48496 6.30534,-1.09094 6.59181,-1.3466 z m -250.44048,99.16875 c 0.46942,-1.23278 1.16837,-1.92653 1.55323,-1.54167 0.38486,0.38487 8e-4,1.39349 -0.85348,2.24142 -1.23452,1.22532 -1.3781,1.08175 -0.69975,-0.69975 z m 80.11095,-50.71782 c -1.87565,-0.7381 -1.99287,-1.1529 -0.625,-2.21143 1.22884,-0.95095 2.27464,-0.68179 3.87119,0.99636 2.29636,2.41372 1.01686,2.89266 -3.24619,1.21507 z m -5.81631,-3.87654 c 0,-0.66592 0.84375,-0.88699 1.875,-0.49127 1.03125,0.39574 1.875,0.94058 1.875,1.21078 0,0.27018 -0.84375,0.49126 -1.875,0.49126 -1.03125,0 -1.875,-0.54485 -1.875,-1.21077 z"
       id="path3369"
       inkscape:connector-curvature="0"
       sodipodi:nodetypes="cssssssssssssssssssssssssscccssssssssssssssccssssscsssssssscsssccscssssssscssssssssssssscscsscsssssscssssssssssssssccsssssssssssssscsscssscsssssssssssssssscscscscssssssscsssscccscsssccscssccsssssscssssssscssccssssssssssssssscsssscsscsssssssssssssssssssssssssssssssscsscccssssssssssssssssscssscssssssssscsss" />
    <path
       style="fill:#010101"
       d="m 817.97954,468.36986 c -4.63815,-0.47283 -8.81003,-1.23672 -9.27083,-1.69753 -0.46081,-0.46081 -0.041,-0.84644 0.933,-0.85697 1.45719,-0.0158 1.43874,-0.231 -0.10412,-1.2153 -1.22961,-0.78442 5.65459,-1.14495 20,-1.0474 16.80405,0.11425 20.91981,0.44175 17.75454,1.41274 -2.64143,0.81029 -3.88941,1.86616 -3.47674,2.94155 0.71606,1.86603 -10.16076,2.0609 -25.83581,0.46291 z m 42.49551,-0.86321 c 0.85937,-0.34676 2.26562,-0.34676 3.125,0 0.85937,0.34676 0.15625,0.63049 -1.5625,0.63049 -1.71875,0 -2.42188,-0.28373 -1.5625,-0.63049 z m 10.07812,-1.27604 c 0.90234,-0.36108 1.98048,-0.31668 2.39584,0.0986 0.41536,0.41536 -0.32292,0.7108 -1.64062,0.65652 -1.45619,-0.06 -1.75238,-0.35617 -0.75522,-0.7552 z m -470.18002,-2.95292 c -1.25918,-0.78731 -3.50918,-1.1033 -5,-0.70222 -3.42805,0.92229 -23.72537,-2.37965 -35.2106,-5.728 -41.44241,-12.08193 -69.77294,-45.55595 -85.0598,-100.50265 -3.42757,-12.32001 -5.5652,-17.04989 -5.5652,-12.31403 0,1.34546 1.38476,7.47945 3.07725,13.63109 1.69249,6.15163 2.87308,11.38896 2.62355,11.63848 -1.31133,1.31134 -10.83571,-27.28686 -18.22265,-54.71586 -2.95544,-10.97407 -4.72661,-15.2622 -7.48639,-18.125 -1.98829,-2.0625 -4.46422,-5.78604 -5.50209,-8.27451 -1.03786,-2.48849 -3.84188,-7.08554 -6.23117,-10.21565 -2.38928,-3.13013 -5.28909,-7.56285 -6.44403,-9.85049 -1.15492,-2.28764 -3.36168,-5.5656 -4.90391,-7.28435 -1.54221,-1.71875 -4.09249,-5.47943 -5.66726,-8.35706 -2.40806,-4.40032 -2.64319,-5.79133 -1.47905,-8.75 0.76131,-1.93487 1.76234,-5.76794 2.2245,-8.51794 0.46217,-2.75 1.31924,-5.92958 1.9046,-7.06574 1.80507,-3.5036 11.45771,-7.27856 26.92595,-10.53024 38.72523,-9.36248 64.01021,-14.11119 84.68137,-13.02902 0.96288,0 9.541,-1.24046 19.0625,-2.75659 15.38928,-2.45046 22.17047,-2.76196 61.06183,-2.80487 39.94989,-0.0441 45.14404,0.19656 59.79922,2.77033 41.90367,7.35925 72.10753,18.50008 86.88755,32.04888 12.36082,11.33111 15.71993,19.71828 9.52339,23.7784 -1.74065,1.14052 -2.88267,2.53021 -2.53782,3.0882 0.34485,0.55798 -0.76223,0.74894 -2.46016,0.42436 -2.05132,-0.39213 -3.10475,-0.017 -3.13958,1.11807 -0.0289,0.93952 -1.01319,-0.0389 -2.1875,-2.17437 -1.1743,-2.13542 -5.93911,-7.23935 -10.58846,-11.34203 -18.99628,-16.76275 -39.88157,-25.24752 -77.98649,-31.68244 -14.25204,-2.4068 -19.66189,-2.65229 -50.04047,-2.27074 -18.7335,0.23529 -33.09538,0.0455 -31.91529,-0.42184 1.86144,-0.73712 1.81451,-0.86082 -0.35439,-0.93398 -4.11044,-0.13867 -24.6434,2.48821 -29.72521,3.80288 -2.59888,0.67233 -4.3938,1.75867 -3.98874,2.41408 0.40507,0.65541 -0.14045,1.19166 -1.21228,1.19166 -1.07182,0 -1.94877,0.5625 -1.94877,1.25 0,0.6875 -0.78083,1.25 -1.73516,1.25 -2.39203,0 -22.42044,5.86364 -28.02014,8.20334 -3.44501,1.43942 -4.14296,2.18248 -2.81871,3.00091 1.41101,0.87206 1.5309,2.52479 0.60453,8.33385 l -1.15552,7.24607 -7.5,2.61978 c -11.18642,3.90746 -18.09542,7.85553 -19.3024,11.03011 -1.25168,3.29214 -7.34558,10.81594 -8.76038,10.81594 -0.53104,0 -0.68073,-1.48985 -0.33265,-3.31077 0.39172,-2.04914 0.15178,-3.01344 -0.62966,-2.53048 -0.69441,0.42916 -1.58666,2.90339 -1.98277,5.49828 -2.34677,15.37315 -3.51277,19.71186 -6.01252,22.37272 -2.54588,2.70998 -2.66697,3.71574 -1.97035,16.36633 0.41882,7.60549 2.29709,20.35722 4.31045,29.26393 2.99342,13.24219 3.28659,15.96265 1.81997,16.88778 -1.45243,0.91616 -1.23389,2.264 1.29141,7.96499 1.67181,3.77422 3.97438,7.63422 5.11679,8.57777 1.14241,0.94356 2.07711,2.71026 2.07711,3.926 0,6.71909 14.72191,30.6062 26.68444,43.29698 22.0845,23.42895 44.82335,32.71968 87.36417,35.69566 15.75665,1.10226 25.32574,1.11409 38.75,0.0479 20.4302,-1.62265 30.03804,-4.18611 46.57639,-12.42703 12.47973,-6.21855 17.45269,-9.57379 25.3125,-17.07824 2.92187,-2.78977 5.3125,-4.51355 5.3125,-3.83063 0,2.27268 -22.31353,20.39896 -29.64911,24.08533 -11.24907,5.653 -23.64691,9.71486 -36.60089,11.9914 -15.17884,2.66755 -48.47575,3.88903 -51.6644,1.8953 z M 279.14144,354.35012 c -0.39903,-0.99716 -0.69523,-0.70097 -0.7552,0.75522 -0.0542,1.3177 0.24115,2.05598 0.65652,1.64062 0.41536,-0.41536 0.45976,-1.4935 0.0986,-2.39584 z M 568.51671,246.81366 c -0.89695,-0.89695 -1.47916,-0.97075 -1.47916,-0.1875 0,1.66848 1.47826,3.14674 2.3125,2.3125 0.35521,-0.3552 -0.0198,-1.31145 -0.83334,-2.125 z M 346.41255,217.60524 c 10.32679,-2.06423 15.97026,-4.15873 11.40474,-4.23273 -3.77188,-0.0611 -25.03622,5.12373 -26.40474,6.43824 -0.8065,0.77466 -0.14124,0.951 1.875,0.49702 1.71875,-0.387 7.625,-1.60315 13.125,-2.70253 z m 69.0625,-5.1324 c -1.20313,-0.3144 -3.17188,-0.3144 -4.375,0 -1.20313,0.31441 -0.21875,0.57166 2.1875,0.57166 2.40625,0 3.39062,-0.25725 2.1875,-0.57166 z m -30.9375,-4.32314 c 2.07877,-0.69591 0.16284,-0.90111 -5.72281,-0.61294 -4.86629,0.23826 -9.92879,1.08525 -11.25,1.8822 -1.90404,1.1485 -0.71729,1.2756 5.72281,0.61294 4.46875,-0.45983 9.53125,-1.30681 11.25,-1.8822 z m 471.25,255.1848 c -3.01354,-0.9651 -2.98587,-1.00525 0.77559,-1.1254 13.56058,-0.43318 45.94104,-8.29059 53.50802,-12.98421 4.3407,-2.69243 9.67753,-4.74329 8.84725,-3.39988 -1.84346,2.98279 3.403,0.84763 10.16913,-4.13855 16.6156,-12.24457 33.72393,-36.2453 43.63799,-61.21831 1.85405,-4.67024 3.57326,-8.28909 3.82047,-8.04186 0.72536,0.72536 -6.45726,18.62552 -11.4739,28.59465 -9.59168,19.06069 -19.99069,31.51649 -35.53455,42.56276 -10.35355,7.35777 -28.83029,16.63962 -29.85462,14.99758 -0.48599,-0.77908 -7.92258,0.0911 -20.14538,2.35747 -10.65625,1.97584 -19.65625,3.54835 -20,3.49449 -0.34375,-0.0539 -2.03125,-0.5483 -3.75,-1.09874 z m -76.25,-3.75 c -1.03125,-0.66645 -1.3125,-1.21171 -0.625,-1.21171 0.6875,0 2.09375,0.54526 3.125,1.21171 1.03125,0.66645 1.3125,1.21171 0.625,1.21171 -0.6875,0 -2.09375,-0.54526 -3.125,-1.21171 z m 146.25,-19.77317 c 0,-1.51069 2.3715,-3.27199 3.23837,-2.40513 0.31463,0.31463 -0.2853,1.28357 -1.33316,2.15322 -1.18798,0.98594 -1.90521,1.08078 -1.90521,0.25191 z m 5,-3.76763 c 0,-0.57242 2.39062,-2.91187 5.3125,-5.19875 l 5.3125,-4.15796 -4.94119,5.19875 c -5.2075,5.47896 -5.68381,5.82741 -5.68381,4.15796 z M 734.93418,427.397 c -8.59813,-10.12978 -15.01568,-19.0625 -13.69511,-19.0625 0.32949,0 3.26658,3.63296 6.52687,8.07325 3.26029,4.4403 6.3989,7.7821 6.9747,7.42624 0.5758,-0.35587 1.04691,0.0362 1.04691,0.87125 0,0.83506 1.43488,3.3995 3.18861,5.69877 5.09539,6.6804 2.61339,4.83393 -4.04198,-3.00701 z M 710.4155,391.772 c -6.01268,-10.83044 -12.13784,-23.17386 -12.0779,-24.33935 0.0275,-0.53524 0.93291,0.71435 2.01198,2.77685 1.07906,2.0625 4.57216,8.53125 7.76245,14.375 6.081,11.13876 7.91325,15 7.11782,15 -0.26242,0 -2.42889,-3.51563 -4.81435,-7.8125 z m 256.0209,-8.4375 c 1.9155,-6.23914 6.73049,-18.08955 6.79005,-16.71133 0.0702,1.62494 -6.05996,18.27056 -7.07507,19.21133 -0.37093,0.34375 -0.24267,-0.78125 0.28502,-2.5 z m -408.56551,-4.58334 c -1.52242,-1.52241 -0.86135,-4.16666 1.04166,-4.16666 1.03125,0 1.875,-0.84375 1.875,-1.875 0,-1.03125 -0.5625,-1.875 -1.25,-1.875 -0.6875,0 -1.25,-0.6281 -1.25,-1.39579 0,-0.78037 1.10226,-1.10754 2.5,-0.74202 2.67852,0.70045 3.42232,-0.89463 1.08947,-2.3364 -0.95945,-0.59298 -0.74207,-1.24583 0.6798,-2.04154 1.37784,-0.77109 1.82085,-2.01878 1.29974,-3.66064 -0.51391,-1.61921 0.37451,-4.25139 2.53885,-7.52192 1.83118,-2.76709 3.49608,-4.83884 3.69978,-4.60389 0.2037,0.23496 -0.36413,5.70175 -1.26184,12.14841 -1.3718,9.85126 -2.1811,12.29416 -5.07286,15.3125 -3.57475,3.73124 -4.48845,4.1591 -5.8896,2.75795 z m 122.4144,-1.0975 c -3.82576,-3.82576 -4.89642,-10.81438 -3.48522,-22.7496 0.94715,-8.01049 0.93497,-13.48797 -0.0427,-19.20112 -1.50843,-8.8146 -0.21787,-20.87824 1.59062,-14.86844 0.51721,1.71875 0.99646,8.20919 1.06498,14.4232 0.0954,8.65005 0.71057,12.44754 2.6246,16.2018 1.375,2.69699 2.5,5.51542 2.5,6.26319 0,0.74777 1.92889,2.05709 4.28642,2.90957 7.11061,2.57124 7.24011,11.07861 0.25478,16.73694 -3.3234,2.69206 -6.2899,2.78802 -8.79346,0.28446 z m 9.75706,-15.18662 c -2.65896,-1.94429 -6.7548,-2.15748 -6.7548,-0.3516 0,0.70451 1.32954,1.78642 2.95452,2.40425 1.62498,0.61781 3.41145,2.15076 3.96993,3.40656 0.89891,2.0213 1.0755,1.93276 1.53919,-0.77171 0.33465,-1.95181 -0.28243,-3.64449 -1.70884,-4.6875 z m -8.22565,-7.46645 c -0.60819,-3.13597 -3.52915,-3.56656 -3.52915,-0.52025 0,1.53541 0.80711,2.60416 1.96665,2.60416 1.16405,0 1.80172,-0.85046 1.5625,-2.08391 z m 295.31954,13.85475 c 0.06,-1.45619 0.35617,-1.75238 0.7552,-0.75522 0.36109,0.90234 0.31668,1.98048 -0.0986,2.39584 -0.41536,0.41536 -0.7108,-0.32292 -0.65652,-1.64062 z M 695.96788,362.397 c -1.364,-3.18755 -1.33314,-3.26108 0.42436,-1.01109 1.04242,1.33453 1.89531,2.8814 1.89531,3.4375 0,1.89989 -0.84791,1.01295 -2.31967,-2.42641 z m 277.41836,0.20834 c 0.06,-1.45619 0.35617,-1.75238 0.7552,-0.75522 0.36109,0.90234 0.31668,1.98048 -0.0986,2.39584 -0.41536,0.41536 -0.7108,-0.32292 -0.65652,-1.64062 z m 1.25,-5 c 0.06,-1.45619 0.35617,-1.75238 0.7552,-0.75522 0.36109,0.90234 0.31668,1.98048 -0.0986,2.39584 -0.41536,0.41536 -0.7108,-0.32292 -0.65652,-1.64062 z m 5,-23.75 c 0.06,-1.45619 0.35617,-1.75238 0.7552,-0.75522 0.36109,0.90234 0.31668,1.98047 -0.0986,2.39584 -0.41536,0.41536 -0.7108,-0.32292 -0.65652,-1.64062 z m 8.65131,-31.14584 c -1.48715,-2.40625 -3.13456,-4.375 -3.66094,-4.375 -0.52636,0 -1.51391,-1.24804 -2.19456,-2.77342 -1.11714,-2.5036 -1.31958,-2.26039 -2.08079,2.5 -0.46379,2.90038 -1.38466,5.27342 -2.04638,5.27342 -1.54967,0 -4.10247,-5.08935 -6.89696,-13.75 -5.37227,-16.64969 -13.315,-27.45248 -24.37037,-33.1458 -3.09375,-1.59324 -6.57647,-4.03646 -7.73939,-5.42939 -2.05542,-2.46199 -1.986,-2.54331 2.4896,-2.91621 3.3493,-0.27906 4.72654,-1.02945 5.05368,-2.75349 0.33087,-1.74381 -0.0791,-2.16695 -1.55211,-1.60172 -1.28125,0.49166 -2.00178,0.10075 -2.00178,-1.08599 0,-1.01979 -1.82812,-2.98374 -4.0625,-4.36436 -3.82399,-2.36283 -26.96089,-10.12663 -42.1875,-14.15639 -3.78125,-1.00073 -5.60937,-1.8706 -4.0625,-1.93307 1.54688,-0.0625 2.8125,-0.5859 2.8125,-1.16321 0,-1.69393 -22.78472,-4.15521 -44.375,-4.79352 -23.61577,-0.69819 -44.77892,1.36887 -80,7.8138 -24.26512,4.44015 -33.2415,6.58549 -34.40799,8.22345 -0.3619,0.50816 -1.39751,0.46689 -2.30137,-0.0917 -1.08603,-0.6712 1.68077,-2.2012 8.15799,-4.51125 17.9684,-6.40831 14.92298,-7.87425 -3.565,-1.71605 -13.26964,4.42001 -28.3761,11.99685 -34.68038,17.39437 -4.78767,4.09907 -4.42166,6.45987 0.50774,3.27489 1.74021,-1.12437 4.71089,-2.93095 6.60151,-4.01459 l 3.4375,-1.97026 -3.125,2.28276 c -1.71875,1.25552 -5.54524,4.49108 -8.50331,7.19013 -2.95806,2.69905 -6.74495,4.96719 -8.4153,5.0403 -1.67035,0.0731 -3.65394,0.74989 -4.40796,1.50391 -1.65512,1.65511 -7.42343,-3.13565 -7.42343,-6.16537 0,-1.05991 3.98403,-5.61572 8.85339,-10.124 24.01802,-22.237 76.81982,-36.35463 141.97862,-37.96082 41.85565,-1.03177 68.18822,1.5206 119.79299,11.61129 51.94135,10.15651 77.71485,15.9435 82.49995,18.52386 4.5465,2.45174 5.0369,3.20492 5.4065,8.30487 0.487,6.71915 -1.7845,19.14662 -4.4373,24.27663 -1.0523,2.03499 -4.7474,7.10467 -8.2112,11.26597 -3.4638,4.1613 -8.7558,11.39997 -11.76,16.08593 -4.1376,6.45379 -6.5882,8.9623 -10.105,10.34404 -2.5537,1.00325 -5.6197,2.3724 -6.8135,3.04256 -1.19379,0.67016 -3.81979,1.21847 -5.83554,1.21847 -2.84022,0 -4.27351,-0.98457 -6.36891,-4.375 z m 11.25,1.875 c 0,-0.6875 -1.125,-1.25 -2.5,-1.25 -1.375,0 -2.5,0.5625 -2.5,1.25 0,0.6875 1.125,1.25 2.5,1.25 1.375,0 2.5,-0.5625 2.5,-1.25 z m -6.0625,-16.875 c 0,-0.65313 -0.60469,-1.38906 -1.34375,-1.63541 -0.73906,-0.24637 -1.34375,0.48957 -1.34375,1.63541 0,1.14584 0.60469,1.88177 1.34375,1.63541 0.73906,-0.24635 1.34375,-0.98229 1.34375,-1.63541 z m 1.73743,-5.3125 c -0.19463,-1.20313 0.25011,-2.94465 0.98829,-3.87005 1.05639,-1.32431 0.74552,-1.59045 -1.46004,-1.25 -1.54122,0.2379 -2.73188,0.93216 -2.64593,1.5428 0.086,0.61062 -0.52634,1.53211 -1.36064,2.04774 -2.0363,1.25851 -0.37181,3.71701 2.51655,3.71701 1.50684,0 2.19203,-0.76405 1.96177,-2.1875 z m -15.15217,-14.82124 c 2.62169,-1.00604 2.49702,-3.3224 -0.36934,-6.8622 l -2.34656,-2.89789 0.1379,5.25942 c 0.0759,2.89267 0.24205,5.25941 0.36934,5.25941 0.12729,0 1.12119,-0.34143 2.20866,-0.75874 z m -165.8613,-56.24647 c -0.41536,-0.41537 -1.4935,-0.45977 -2.39584,-0.0986 -0.99716,0.39903 -0.70097,0.69523 0.75522,0.7552 1.3177,0.0542 2.05598,-0.24116 1.64062,-0.65652 z m 12.21354,-5.49479 c 1.80276,-0.77468 0.51603,-1.09879 -4.61372,-1.16214 -3.91255,-0.0484 -7.46138,0.47464 -7.88628,1.16214 -0.9496,1.53649 8.9244,1.53649 12.5,0 z m -152.24921,82.58794 c -1.87624,-3.1762 -1.96154,-4.41616 -0.64301,-9.346 2.44663,-9.14771 0.80472,-11.75698 -9.60778,-15.26825 -4.8125,-1.62286 -9.3125,-3.23794 -10,-3.58905 -1.47624,-0.75395 7.69599,0.43737 11.09404,1.44092 1.50165,0.44349 2.04106,0.20204 1.50096,-0.67185 -0.46369,-0.75027 -2.64351,-1.8848 -4.84404,-2.52118 -3.23728,-0.9362 -3.45005,-1.17858 -1.11468,-1.26979 1.58745,-0.062 2.54921,-0.65811 2.13725,-1.32468 -1.32953,-2.15121 9.49337,-0.29711 12.11503,2.07547 1.37081,1.24056 3.31656,3.84936 4.3239,5.79733 1.14134,2.2071 2.50625,3.28285 3.62203,2.85469 2.65395,-1.01842 2.16871,1.72461 -1.30188,7.35945 -2.22369,3.61035 -3.09042,6.82391 -3.1186,11.5625 -0.0442,7.45485 -1.05637,8.15993 -4.16322,2.90044 z m 1.62421,-22.58794 c 0,-0.6875 -0.5625,-1.25 -1.25,-1.25 -0.6875,0 -1.25,0.5625 -1.25,1.25 0,0.6875 0.5625,1.25 1.25,1.25 0.6875,0 1.25,-0.5625 1.25,-1.25 z m -102.69419,9.86077 -2.06919,-9.23577 3.1836,-4.21105 c 2.91133,-3.85089 8.71987,-7.22231 16.44784,-9.54678 l 2.99307,-0.90026 -2.68057,2.87725 c -3.07876,3.30467 -3.50966,5.49146 -0.8835,4.48371 5.76671,-2.21288 17.9209,-3.10787 31.32794,-2.30685 l 15,0.89619 -15,0.92088 c -31.56368,1.93775 -44.08701,8.28876 -45.8906,23.27268 -0.20553,1.70742 -1.24533,-0.96853 -2.42859,-6.25 z m 72.38169,-16.93862 c 0.85937,-0.34676 2.26562,-0.34676 3.125,0 0.85937,0.34676 0.15625,0.63049 -1.5625,0.63049 -1.71875,0 -2.42188,-0.28373 -1.5625,-0.63049 z m -16.875,-5.06746 c 1.89062,-0.28642 4.98437,-0.28642 6.875,0 1.89062,0.2864 0.34375,0.52073 -3.4375,0.52073 -3.78125,0 -5.32813,-0.23433 -3.4375,-0.52073 z m 27.8125,-1.60469 c 0.4249,-0.6875 1.0206,-1.25 1.32378,-1.25 0.30317,0 0.55122,0.5625 0.55122,1.25 0,0.6875 -0.5957,1.25 -1.32378,1.25 -0.72807,0 -0.97612,-0.5625 -0.55122,-1.25 z m -55.625,-1.2594 c -1.42301,-0.91249 -0.92034,-1.20694 2.08526,-1.22146 2.17815,-0.01 4.99065,-0.34287 6.25,-0.73853 1.82728,-0.57409 1.91105,-0.47839 0.41474,0.4738 -3.33654,2.12324 -6.83094,2.71678 -8.75,1.48619 z m 22.23649,-2.16736 c 4.32381,-0.24479 11.07381,-0.24278 15,0.005 3.92617,0.24726 0.38851,0.44753 -7.86149,0.44507 -8.25,-0.002 -11.46234,-0.20477 -7.13851,-0.44956 z"
       id="path3367"
       inkscape:connector-curvature="0"
       sodipodi:nodetypes="csccsssccssssccccccssssscssssssssssccssssssscsssscssssssssscsssscssssssssssssssssccccsccsssssssssssssssssssssssscsssscsssssssssssscssssscsssscsssssccssssssssssscssscssssssssccsscssssssscscccsssscsccccsccccsccccsssssssscsssscsssscssssscssssssssssssssssccsssssscscsssscsssssccsscccccscssssscssssssssscssssssscsscssscssssssscsscsssssscsssccccc" />
  </g>
</svg>
