<svg xmlns="http://www.w3.org/2000/svg" width="113.013" height="343.672" viewBox="0 0 113.013 343.672"><path opacity=".2" fill="#FFF" d="M89.007 256.914s-65.615-.682-70.058.62l-3.692 9.049-4.5 9.954-3.786 11.2-3.589 7.999-2.375 8.692v3.032l-.643 3.753.105 2.872.61 4.068 1.928 4.865 1.223 3.557 4.152 2.862 2.625 2.323 10.236 4.325v1l4.639 1.875 3.062.75 5.938 1.312 5.173 1 4.402.438 2.488.156 3.344.219h3.594l10.625-.375 4.562-.406 8.938-1.344 7.188-1.906 9.812-3.5 5.125-2.594 5.781-4.625 3.094-3.5 2.25-4.594 1.031-4.469-.469-5.188-.656-4.031-1-3-1.969-5.938-1.281-3.406-3.5-8.844-2.812-6.375-3.875-8.375-3.781-7.812-3.406-5.26-.344-.33-.189-.049z"/><path fill="#D1C9C1" d="M67.814 213.765c1.109.814 2.443 1.114 3.682 1.635 1.644.69 2.867 1.902 3.506 3.576.301.788.688 1.379 1.427 1.804 1.021.587 1.454 1.402.948 2.626-.469 1.136-.145 2.068.946 2.773 1.418.917 1.392 2.021.012 3.046-1.377 1.023-1.395 2.611-.043 3.752 1.266 1.068 1.275 1.985-.153 2.698-1.009.504-1.227 1.284-1.254 2.21-.017.574-.11 1.071-.504 1.493-2.107-.758-4.335-.831-6.515-.891-4.628-.129-9.263-.037-13.895-.025-.368.001-.736.088-1.103.135l-1.339-.045-.055-.411c1.198-.073 1.507-1.454 2.561-1.74.833.16 1.148-.833 1.996-.815 3.719.081 7.44-.092 11.16.202 1.522.12 3.061.02 4.592.02-1.795-.112-3.537-.648-5.32-.683-2.834-.056-5.67.031-8.505 0-1.41-.016-2.831.208-4.232-.125.206-.496.666-.293 1.024-.379.462-.112.184-.288.026-.447-2.347-1.763-4.589-.835-6.824.268-.147.064-.293.181-.441.186-3.83.113-7.644.366-11.437.968-.801.127-.984.419-.965 1.086-.25.304-.649.242-.963.391.047.712.586.631 1.013.555 3.141-.56 6.313-.792 9.488-1.031.599-.045 1.346.025 1.81-.586 1.507-.182 3.015-.369 4.508.098-1.14.103-2.312-.035-3.695.466l2.178.374c.23.717.639.91 1.277.437.576-.015.357.498.51.765-.436-.077-.837-.081-.985.46l-.389.034c-.112-.051-.227-.154-.336-.147-4.455.288-8.928.404-13.325 1.267-1.594.313-3.299.323-4.934 1.536 3.918-.422 7.546-.771 11.162-1.218 2.362-.292 4.754-.042 7.101-.486l3.163-.248c.083.011.166.03.249.031 4.726.022 9.452-.014 14.176.087 2.46.053 4.916.313 7.382.188.821-.139 1.467.215 2.028.754.8.77.811 1.549-.093 2.213-1.471 1.08-1.605 2.636-.367 3.953.622.661.961 1.48.788 2.411-.219 1.179.666 2.474-.38 3.572-.068.072-.024.396.059.444 1.578.905.851 2.869 1.864 4.023l-3.309-.966c.743-.006 1.76-.201 1.761-.849.002-.958-.767-1.616-1.912-1.655-1.706-.059-3.408-.219-5.111-.336l-.015-.447 4.524.358c-1.528-.975-3.208-.663-4.795-.767-1.972-.13-3.968-.38-5.941.084l-7.342.034-.095-.061.101.056a.823.823 0 0 1 .026.178c-.64.604-1.417.334-2.151.338-.402-.559-.991-.504-1.571-.479-.301-.504-.81-.285-1.234-.347-.889-.131-.398-.427-.093-.707.27-.069.652.293.793-.277.262-1.064.874-2.065.531-3.227.277-.648-.256-1.258-.085-1.904.21-.795-.33-1.443-.851-1.621-.759-.26-.635-.695-.631-1.201l1.251-.239c.238.703.853.465 1.28.415 3.033-.355 6.076-.205 9.114-.229 2.476-.02 4.958.093 7.749-.438-3.25-.053-6.148-.382-9.067-.305-1.624.043-3.252-.045-4.878-.074l.009-.633c.213-.141.625.059.692-.573-1.113.343-2.197.504-3.161-.233-.934-.099-1.746-.828-2.757-.536-.411-.444-.642-.271-.777.228l-3.84.935c-.078.031-.154.086-.233.09-3.735.178-7.456.498-11.156 1.044a5.16 5.16 0 0 0-2.453 1.061c.398.148.771.231 1.122.176 3.209-.503 6.442-.661 9.681-.83.767-.04 1.679.099 2.404-.434.954.46 1.962.426 2.889.057.497-.198.879-.349 1.349-.067-.143.04-.252.105-.196.283-.866.498-.565 1.148-.367 1.904.243.928.88 2.017-.468 2.74-.337.181-.226.607-.152.925.133.566.332 1.117.466 1.683.193.815.089 1.511-.891 1.716-.322.068-.66.073-.991.087-2.75.112-5.502.202-8.251.34-.775.039-1.572.079-2.283.477-.295.183-.624.178-.957.205-2.096.169-4.157.569-6.215.982-.384.077-.93.067-.566.736.085.701 1.636.337 1.088 1.498.165.014.331.041.496.041 2.273.004 4.513.773 6.813.27.453-.099.914.065 1.178.528-.431.372-.949.191-1.425.198-1.957.028-3.915.024-5.873.031l-.738.006c-1.169-.466-2.337-.619-3.536-.076-.258.117-.573.08-.763-.217.333-.178.593-.427.757-.771.861-.354.861-.354.501-.731l.031-.501.096-.12-.116.097c-.218-.083-.628-.252-.218-.429.897-.387.75-1.09.752-1.787.006-2.755.006-5.51-.267-8.257-.081-.812.218-1.444.845-1.98 1.294-1.107 1.206-2.688-.173-3.785-1.184-.942-1.326-1.633-.334-2.792 1.625-1.899 1.453-2.536-.192-4.602-.591-.743-.656-1.464.143-2.178 1.934-1.727 2.109-2.956-.007-4.778-.792-.683-.68-1.823.208-2.648.819-.76 2.152-.797 2.822-1.499.589-.617.538-1.839 1.263-2.633 1.435-1.573 3.308-2.348 5.214-3.093l.205-.243.052-.06c.326.649.916.642 1.506.579 1.846-.197 3.69-.41 5.792-.645l-1.842-.188c.118-.035.235-.099.354-.102 6.937-.209 13.874-.51 20.805.174.328.025.841.407 1.032-.264zm-15.831 13.079c-1.42.03-2.882-.216-4.176.638-2.197.202-4.392.425-6.591.596-.901.07-1.732.244-2.43.877 6.117.041 12.078-1.568 18.411-1.363-.458-.318-.83-.197-.961-.536-.209-.521-.741-.505-1.136-.564-1.056-.157-2.105-.005-3.117.352zm3.751-7.035c-.612-.075-1.22-.165-1.749-.519.021-.215.07-.463.341-.407 2.189.45 4.397-.003 6.59.153.241-.18.483-.165.723.001.395-.129.999.602 1.207-.294l.389.005c.736.835 1.749.942 2.364.248 1.571-.109 3.111.503 4.709.206-.183-.297-.478-.336-.762-.367-4.385-.474-8.757-1.181-13.186-.965-1.514.074-2.43-.68-3.159-1.825-.772-1.213-1.755-1.864-3.279-1.375.664.73 1.26 1.624.906 2.532-.33.847-1.389.527-2.154.612-3.666.409-7.366.554-10.976 1.447 4.738-.836 9.564-.148 14.305-.911l.253.779.053.109-.096.075.019-.024-1.001.518c-.527.058-1.073.048-1.576.191-.568.161-1.368-.354-1.693.546-3.897.041-7.655.947-11.43 1.758.874.526 1.587-.178 2.385-.229 3.863-.249 7.695-.787 11.536-1.241.791-.093 1.49.01 2 .692-1.315.165-2.615.378-3.927 1.135 1.657.246 3.135-.082 4.573.304-.091 1.213-1.038 1.307-1.906 1.352-1.329.068-2.65.124-3.98.262-3.448.356-6.898.678-10.307 1.316-.994.186-2.091.215-2.996 1.096.866.13 1.56.065 2.266-.062 2.384-.429 4.794-.653 7.205-.866 2.237-.198 4.471-.428 6.705-.643 1.952-.084 3.916.028 5.847-.38.64.43 1.309.046 1.951.026 4.94-.156 9.868.212 14.802.264.669.007 1.364.123 2.015-.262-1.621-.336-3.243-.646-4.871-.681-4.807-.105-9.617-.161-14.425.04l-.907-.115-.107-.571c.677-.178.846-.985 1.515-1.211.23-.078.721-.17.54-.662-.132-.357-.443-.485-.792-.479-.943.019-1.885.06-2.828.092l-.348-.921c2.044.069 4.02-.139 5.947.427.313.092.576-.045.831-.183.464-.252.955-.273 1.461-.216.231.026.47.265.688.015.06-.068.068-.262.015-.336-.21-.291-.508-.148-.795-.137-1.473.057-2.946.085-4.419.124.098-.113.295-.31.28-.327-.205-.249-.487-.144-.752-.116zm-4.3 9.887c.123.544.478.472.861.324l.666.155c-.301 1.429-1.691 1.392-2.542 1.409-3.342.067-6.647.461-9.947.865-1.698.208-3.477.081-5.087.861-.254.123-.69.18-.61.508.111.456.534.202.839.168 2.728-.298 5.453-.646 8.186-.883 2.736-.237 5.481-.364 8.222-.539l3.272-.18c.834-.009 1.669-.003 2.503-.029 5.729-.186 11.446.228 17.17.331.341.006.901.214.98-.208.095-.508-.491-.57-.881-.672-1.669-.436-3.397-.313-5.083-.36-4.848-.133-9.701-.05-14.552-.047-.281 0-.594-.088-.811.196l-.363-.115.011-.78 1.914-1.758c-2.142-.21-6.774.181-7.106.582l2.358.172zm9.304-1.491c.073.05.136.128.199.13 5.248.107 10.473.562 15.701.994.19.016.469-.023.569-.147.186-.232-.017-.49-.177-.663-.333-.36-.784-.419-1.261-.428a24.18 24.18 0 0 1-2.614-.179c-4.145-.528-8.283-.331-12.417.293zm-3.992 21.374c.398.225-.713 1.112.314 1.021 1.137-.101 1.496-.915 1.108-2.065-.099-.293-.408-.473-.066-.837.175-.186-.016-.484-.272-.598-.34-.151-.563.018-.69.328-.274.665-.365 1.367-.394 2.151zm-1.844-21.244c-.617-.016-1.197-.171-1.787-.234-.581-.062-1.091.196-1.607.415 1.144.053 2.279.19 3.394-.181zm20.282-1.991c.823.519 1.507.612 2.387.357-.771-.625-1.511-.273-2.387-.357zm-39.707-3.716c.071.03.156.098.208.078.05-.019.065-.129.096-.199-.07-.03-.156-.098-.207-.079-.051.02-.067.129-.097.2zm12.207-.158l.003-.061.116.039-.119.022z"/><path fill="#F3F0E9" d="M85.065 256.055l4.421.733c1.727 1.39 2.775 2.959 3.61 4.571 3.204 6.186 6.225 12.402 8.913 18.666 2.947 6.869 6.164 13.707 8.262 20.686.569 1.894 1.261 3.789 1.505 5.7.368 2.882 1.302 5.73 1.233 8.641-.122 5.111-2.719 9.756-7.386 14.088-4.877 4.527-11.599 7.905-19.851 10.289-5.485 1.585-11.356 2.587-17.438 3.171-5.46.524-10.975.757-16.481.545-6.827-.263-13.597-.84-20.056-2.224-9.568-2.05-17.5-5.346-23.513-10.075-.376-.295-.906-.586-.75-1.022.235-.069.221-.134-.012-.194l.011.009c-.003-.279.008-.562-.682-.58l.013.007-.334-.192a.513.513 0 0 1-.003-.166c-.224-.455-6.058-14.67-6.058-12.241.65.006 2.063 12.202 6.391 11.44 1.752-.308 2.852 2.348 4.522 3.403 1.589 1.004 3.081 1.968 5.542 2.566 3.241.787 5.617 2.541 8.977 3.375.065.016.065.116.095.176-1.038.348-1.885-.339-3.171-.213 2.228.954 4.46 1.554 6.85 1.981 1.133.891 3.017.994 4.614 1.36 5.257 1.204 10.791 1.776 16.413 2.01 1.592.066 3.37.156 4.801-.512 3.199-.009 6.398-.009 9.597-.035.533-.004 1.28.19 1.495-.328 1.065-.057 2.17-.056 3.209-.819h-3.185c.148-.466.801-.34 1.327-.368 1.567-.084 3.156.272 4.645.135a63.886 63.886 0 0 0 17.195-4.03c1.424-.548 2.647-1.293 4.154-1.737 4.379-1.29 6.879-3.518 9.288-5.789 1.403-1.323 2.715-2.682 4.021-4.04 1.211-1.259 1.896-2.591 2.678-3.918.643-1.091.539-2.245.754-3.374.519-2.724.78-5.416.381-8.173-.372-2.57-.908-5.119-2.045-7.586-1.499-3.253-1.913-6.615-3.633-9.854-1.207-2.274-1.689-4.686-2.813-7-.9-1.852-1.64-3.73-2.486-5.591-.979-2.153-2.082-4.29-2.968-6.455-.572-1.397-1.205-2.792-1.825-4.176-.562-1.256-1.511-2.488-2.172-3.748-1.261-2.406-1.879-4.913-3.877-7.204-.746-.855-1.678-1.162-3.148-.948-.893.13-4.81-.013-5.698.008-.102-.499 4.033-.515 4.053-.978l.615.01z"/><path fill="#F3F0E9" d="M20.27 256.765c.254.226.674.253 1.019.165 1.601-.412 3.162-.296 4.723.058.084.531-1.466.094-1.151.532.311.431 1.292.142 1.968.204 3.661.332 11.914-.75 15.591-.7.599.008-3.128.83-3.116 1.303.014.554-.897.323-1.421.343-3.796.146-7.571-.202-11.363-.18-1.519.009-3.003-.091-4.397-.441-.697-.175-1.1-.092-1.531.265-1.116.924-1.993 1.898-2.315 3.014-.843 2.923-1.663 5.855-3.092 8.704-1.399 2.79-2.853 5.566-3.895 8.411-1.06 2.897-2.783 5.692-3.566 8.646-1.188 4.485-3.497 8.856-4.741 13.347-.673 2.432-1.382 4.872-1.428 7.324-.049 2.663-.544 5.316-.413 7.98.015.299.174.673-.673.729-.504-1.75-.357-3.492-.105-5.255.175-1.228.507-2.5-.228-3.727-.55-3.215.67-6.326 1.724-9.445 1.538-4.552 3.015-9.111 4.714-13.643 1.156-3.083 2.454-6.152 3.745-9.219 1.172-2.785 2.137-5.61 3.285-8.403 1.301-3.165 2.542-6.353 5.345-9.243.314-.326.462-.747 1.321-.769z"/><path fill="#201915" d="M67.814 213.765c-.192.671-.704.289-1.033.256-6.931-.683-13.868-.382-20.805-.174-.119.004-.236.067-.354.102-1.233.023-2.463.228-3.699.05 1.459-1.265 3.252-1.982 4.887-2.959.487-.291 1.365-.525 1.241-1.018-.16-.64-1.018-.276-1.54-.239-1.024.073-1.701-.044-1.342-1.313 2.438-.729 4.942-1.11 7.466-1.33 1.192-.104 2.401-.018 3.596-.15-.66-.516-1.321-.538-1.975-.175-.051.028-.06.281-.013.311.526.336 1.12.153 1.688.191 2.374.162 4.733.432 7.051.988.016.307-.106.678.363.772l.336.657h-4.373c1.405 1.537 3.66 1.212 5.03 2.584-.22.246-.491-.204-.753.294 1.341.314 2.539.986 3.942.929l.287.224zm-6.149-1.72l-.198.081c.062.032.124.087.187.089.065.002.131-.047.197-.073a5.36 5.36 0 0 0-.186-.097zm.788.325c.075.042.141.105.21.108.068.003.138-.055.208-.087-.066-.037-.131-.101-.199-.105-.069-.004-.141.051-.219.084z"/><path fill="#908671" d="M76.501 239.653c-2.466.125-4.922-.135-7.382-.188-4.724-.101-9.451-.065-14.176-.087-.083 0-.166-.02-.249-.031l.176-.751c.368-.047.735-.135 1.103-.135 4.632-.012 9.266-.104 13.895.025 2.18.061 4.407.133 6.515.891.038.092.078.184.118.276zm-31.332-31.182c-.359 1.269.318 1.386 1.342 1.313.522-.037 1.38-.401 1.54.239.124.494-.754.727-1.241 1.018-1.634.977-3.427 1.693-4.886 2.959-.447-.026-.89.558-1.341.01.385-.439.725-.932 1.165-1.308 1.404-1.202 2.746-2.443 3.421-4.231zm22.358 5.071c-1.404.057-2.601-.615-3.942-.929.262-.497.533-.048.753-.294-1.37-1.372-3.624-1.047-5.03-2.584h4.373c1.066 1.488 2.711 2.389 3.846 3.807z"/><path fill="#F3F0E9" d="M40.582 214.01c.451.548.894-.036 1.341-.01 1.235.179 2.466-.026 3.699-.05l1.842.188c-2.102.235-3.946.448-5.792.645-.59.063-1.18.07-1.506-.579l.416-.194zm-10.739 41.483c.36.377.36.377-.501.731.012-.351.004-.714.501-.731z"/><path fill="#908671" d="M63.345 209.079c-.469-.094-.347-.465-.363-.772.507.076.49.398.363.772z"/><path fill="#F3F0E9" d="M40.114 214.264l-.205.243.205-.243z"/><path fill="#908671" d="M59.948 266.586c-.021-1.571.272-3.165-.356-4.69.214 1.549 1.934 9.466.401 9.424-.069.527-.414-3.996-.755-4.592-.252-.44-.293-.95-.205-1.455.311-1.784-.256-3.579-.025-5.33.194-1.472-.648-2.359-1.264-3.423-.034-.199-.003-.506-.116-.575-.317-.193-.245.168-.331.313-.226.381-.638.599-.895.219-.466-.687-1.202-.497-1.791-.659-.522-.143-.916-.285-1.199-.743-.529-.858-.866-.467-1.151.192l-.048.483.011-.029c-.526 1.127-.398 2.336-.464 3.525-.097 1.745-.292 3.486-.057 5.236.083.619.097 1.249-.143 1.852-.145.363-.237.957-.014 1.067 1.114.551.017.839-.108 1.209-.104.307-.377 2.162-.684 1.972-.424-.263.01-2.126.055-2.345.161-.778.3-1.59.251-2.377-.178-2.813-.185-5.614.31-8.396.066-.371-.179-.631-.152-.961l.482-1.97c-.751.124-1.314.232-1.456.988l-.277.735c-.805-.207-1.573-.192-2.374.126-.507.202-1.135.311-1.658.206-.651-.13-1.012.092-1.348.553l-2.166-.118c-.331-.538-.662-.893-.995-.002l-.506.031a1.052 1.052 0 0 0-1.178-.528c-2.3.502-4.54-.266-6.813-.27-.165 0-.331-.027-.496-.041.548-1.161-1.003-.797-1.088-1.498 2.274-.277 4.532-.656 6.833-.751 3.833-.158 7.66-.442 11.49-.672.588-.029 1.223.943 1.765-.082.043-.207.042-.399-.183-.51-.393-.387-.854-.254-1.308-.173-1.752-.132-3.499-.018-5.247.097-.187-.179-.361-.182-.518.038l-5.093.132c.71-.398 1.507-.439 2.283-.477 2.749-.138 5.5-.228 8.251-.34.331-.014.669-.019.991-.087.979-.205 1.084-.901.891-1.716-.134-.566-.333-1.117-.466-1.683-.074-.317-.185-.744.152-.925 1.348-.724.711-1.812.468-2.74-.198-.756-.499-1.405.367-1.904.379-.068.703.043.979.305-.005.507-.129.941.631 1.201.52.178 1.061.826.851 1.621-.171.647.363 1.257.085 1.905-.354-.079-.556-.664-.953-.423-.375.228-.437.771-.319 1.132.311.956.057 1.867-.051 2.795-.305.279-.795.576.093.707.424.063.933-.157 1.234.347-.728.179-1.453.312-2.194.046-.301-.108-.486.094-.552.347-.047.183.122.317.303.306 1.337-.086 2.691.128 4.014-.219.734-.004 1.511.266 2.151-.338 1.266.166 2.53.441 3.8.475 3.244.088 6.492.068 9.738.091 1.704.117 3.406.277 5.111.336 1.145.039 1.914.697 1.912 1.655-.001.648-1.018.842-1.761.849l-.458-.012c-.989-.403-1.793.392-2.696.426-3.23.121-6.463.18-9.695.245-1.318.027-2.636-.745-3.955-.002-.54.346-.589.826-.442 1.407.757 2.993.485 6.057.6 9.095m-1.817-11.435c.045.234.182.379.398.397.368.03.619-.178.731-.504.015-.044-.291-.276-.458-.289a.66.66 0 0 0-.671.396zm3.01-36.747c-.241-.167-.482-.182-.723-.001-.052-.523-.447-.511-.826-.537a87.608 87.608 0 0 0-8.087-.148c-4.741.764-9.567.076-14.305.911 3.611-.892 7.31-1.038 10.976-1.447.766-.085 1.824.235 2.154-.612.354-.909-.242-1.803-.906-2.532 1.523-.489 2.507.162 3.279 1.375.728 1.145 1.645 1.899 3.159 1.825 4.43-.217 8.801.491 13.186.965.284.031.579.069.762.367-1.597.297-3.138-.316-4.709-.206-.768-.271-1.57-.226-2.364-.248l-.389-.005c-.427-.001-.911-.24-1.207.293zm-8.388-1.279c-.263-.25-.552-.323-.915 0h.915zm2.475 17.241c1.401.332 2.822.109 4.232.125 2.835.032 5.671-.055 8.505 0 1.783.035 3.525.571 5.32.683-1.531 0-3.071.1-4.592-.02-3.719-.294-7.441-.121-11.16-.202-.848-.018-1.164.975-1.996.815-.963-.723-2.063-.021-3.069-.294-1.493-.467-3.001-.28-4.508-.098-2.494.199-4.986.408-7.481.592-1.614.119-3.188.649-4.83.47.314-.148.712-.087.963-.391 5.232-1.109 10.58-1.019 15.869-1.535.739.423 1.458.556 2.119-.145h.628zm-1.108-3.403c.217-.284.53-.196.811-.196 4.851-.003 9.705-.086 14.552.047 1.686.046 3.414-.077 5.083.36.39.102.976.164.881.672-.078.422-.639.214-.98.208-5.723-.103-11.44-.517-17.17-.331-.834.027-1.669.02-2.503.029-.094-.374-.862-.173-.674-.789zm-2.597.969c-2.741.175-5.487.302-8.222.539-2.734.237-5.458.585-8.186.883-.304.033-.728.287-.839-.168-.08-.328.356-.385.61-.508 1.609-.78 3.389-.653 5.087-.861 3.3-.405 6.606-.798 9.947-.865.851-.017 2.24.02 2.542-1.409.643-.34.767.607 1.306.525l-.011.78c-.837.172-1.804.074-2.234 1.084zm-1.932-7.148c-2.235.216-4.47.446-6.707.644-2.411.213-4.821.437-7.205.866-.707.127-1.4.192-2.266.062.905-.881 2.002-.91 2.996-1.096 3.408-.638 6.859-.959 10.307-1.316 1.33-.138 2.651-.194 3.98-.262.869-.044 1.815-.138 1.906-1.351.28-.012.712-.005.655.306-.135.738.424.329.639.467l.107.571c-1.561.006-2.95.702-4.412 1.109zm1.441 14.178c-2.347.444-4.739.193-7.101.486-3.616.448-7.244.796-11.162 1.218 1.635-1.213 3.34-1.223 4.934-1.536 4.397-.864 8.87-.979 13.325-1.267.108-.007.224.095.335.146l-.331.953z"/><path fill="#F3F0E9" d="M47.978 242.648c-.725.533-1.637.394-2.404.434-3.239.169-6.472.327-9.681.83-.351.055-.724-.027-1.122-.176a5.16 5.16 0 0 1 2.453-1.061c3.7-.546 7.421-.866 11.156-1.044.079-.004.155-.059.233-.09l5.96-.172c.515-.015 1.063.072 1.414-.455.963.736 2.048.575 3.161.233-.067.632-.479.432-.692.573l-11.368.534c-1.95.265-3.958-.035-5.873.583 2.117.154 4.209-.185 6.313-.254.15.023.3.044.45.065zm-8.895 10.145l5.093-.131c.2.355.369.295.518-.038 1.747-.115 3.495-.229 5.247-.097.052.306-.133.528-.273.766-3.83.231-7.657.514-11.49.672-2.301.095-4.558.474-6.833.751-.363-.669.182-.659.566-.736 2.058-.413 4.119-.813 6.215-.982.333-.027.662-.022.957-.205z"/><path fill="#908671" d="M55.41 224.423c4.808-.201 9.617-.144 14.425-.04 1.628.035 3.25.345 4.871.681-.652.385-1.347.269-2.015.262-4.934-.052-9.862-.419-14.802-.264-.642.02-1.311.404-1.951-.026-.244-.146-.599-.197-.528-.613zm5.328 3.782c4.134-.625 8.271-.821 12.416-.293a24.18 24.18 0 0 0 2.614.179c.476.009.928.068 1.261.428.16.173.363.431.177.663-.1.124-.379.163-.569.147-5.227-.432-10.453-.887-15.701-.994-.062-.001-.124-.08-.198-.13z"/><path fill="#F3F0E9" d="M55.727 234.999l-.628-.001c-.717-.108-1.444-.356-2.119.146-5.289.517-10.637.426-15.869 1.535-.02-.667.163-.959.964-1.086 3.793-.602 7.607-.854 11.437-.968.149-.004.294-.121.441-.186l6.824-.268c.158.16.436.336-.026.447-.358.088-.818-.115-1.024.381zm-3.27-13.474c-.511-.682-1.21-.786-2-.692-3.841.453-7.673.992-11.536 1.241-.798.051-1.511.755-2.385.229 3.774-.811 7.533-1.717 11.43-1.758 1.085-.038 2.178.044 3.244-.244l3.258-.149c.57.244 1.16.114 1.744.097 1.473-.038 2.947-.067 4.42-.124.287-.011.585-.154.795.137.054.074.045.268-.015.336-.219.249-.457.011-.688-.015-.507-.057-.998-.036-1.461.216-.255.139-.518.275-.831.183-1.927-.566-3.903-.358-5.947-.427l.348.921-.376.049zm5.99 20.83c1.626.029 3.254.116 4.878.074 2.919-.076 5.817.252 9.067.305-2.791.531-5.273.418-7.749.438-3.039.024-6.081-.126-9.114.229-.427.05-1.042.288-1.28-.415l1.205-.11c.965-.362 1.948-.622 2.993-.521zm-2.211-15.3c.131.34.503.219.961.536-6.334-.205-12.295 1.404-18.411 1.363.698-.633 1.529-.807 2.43-.877 2.199-.171 4.394-.394 6.59-.595l4.213-.223 2.458-.119c.038.07.1.099.184.088.209.087.409.109.58-.08.332-.03.664-.062.995-.093z"/><path fill="#201915" d="M52.457 221.525l.374-.048c.943-.032 1.885-.073 2.828-.092.349-.007.661.121.792.479.181.492-.31.585-.54.662-.669.227-.838 1.033-1.515 1.211-.215-.138-.774.271-.639-.467.057-.311-.375-.318-.655-.306-1.438-.386-2.915-.058-4.573-.304 1.313-.757 2.612-.97 3.928-1.135z"/><path fill="#F3F0E9" d="M71.828 253.218c-3.246-.023-6.493-.003-9.738-.091-1.27-.034-2.533-.31-3.8-.475a.967.967 0 0 0-.026-.178l-.005.005 7.342-.033 6.212.326.015.446z"/><path fill="#908671" d="M58.447 242.355c-1.046-.101-2.029.159-2.994.521-1.052-.448-2.169-.028-3.239-.238-.469-.282-.852-.13-1.349.067-.927.369-1.935.403-2.889-.057l-.45-.063c-.147-.109-.293-.22-.439-.33l11.368-.534-.008.634z"/><path fill="#201915" d="M52.967 236.106c1.006.273 2.106-.429 3.069.294-1.053.286-1.363 1.667-2.561 1.74l-.239.008c-.152-.267.066-.781-.509-.765-.385-.263-.748-.592-1.277-.437l-2.178-.374c1.383-.501 2.554-.363 3.695-.466zm1.3-5.405c-.539.081-.663-.866-1.306-.525l-.666-.155c-.163-.436-.456-.528-.861-.325l-2.36-.171c.332-.401 4.964-.792 7.106-.582l-1.913 1.758zm2.51 3.471l-6.824.268c2.235-1.103 4.477-2.031 6.824-.268z"/><path fill="#F3F0E9" d="M52.004 218.351a87.615 87.615 0 0 1 8.087.148c.379.025.774.014.826.537-2.194-.156-4.401.297-6.59-.153-.271-.056-.32.191-.341.407l-1.728-.16-.254-.779zm-15.856 18.72c1.642.179 3.216-.351 4.83-.47 2.495-.184 4.987-.393 7.481-.592-.464.611-1.211.541-1.81.586-3.175.239-6.348.471-9.488 1.031-.427.075-.967.157-1.013-.555z"/><path fill="#201915" d="M55.987 240.916c-.351.527-.899.44-1.414.455l-5.96.172 3.84-.935c.283.007.612.168.777-.228 1.011-.292 1.823.437 2.757.536z"/><path fill="#908671" d="M71.813 252.771l-6.212-.326c1.973-.464 3.969-.214 5.941-.084 1.587.105 3.267-.208 4.795.767l-4.524-.357zm-15.067-3.192c.03-.784.121-1.486.393-2.151.127-.31.351-.479.69-.328.256.114.447.412.272.598-.342.363-.033.544.066.837.388 1.15.029 1.964-1.108 2.065-1.027.091.084-.796-.313-1.021zm.764-.813c-.236.002-.245.186-.251.333-.008.195-.016.453.206.513.274.073.325-.164.312-.374-.01-.193-.022-.408-.267-.472z"/><path fill="#201915" d="M55.41 224.423c-.071.416.284.467.527.615-1.931.408-3.895.296-5.847.38 1.462-.407 2.851-1.103 4.413-1.11l.907.115zm-2.169 27.034c.108-.928.363-1.839.051-2.795-.117-.361-.055-.904.319-1.132.397-.241.599.343.953.423.343 1.163-.269 2.163-.531 3.227-.14.57-.522.208-.792.277zm-.984-32.327l1.728.16c.529.354 1.137.445 1.749.519-.325.475-.885.079-1.267.343l-3.258.149.025-.493 1.001-.518.19.218.061-.181-.269-.013.096-.075-.056-.109zm-.726 20.465l.332-.953.389-.034c.437.24.859.117 1.279-.056l1.339.045-.176.751-3.163.247z"/><path fill="#F3F0E9" d="M56.139 252.99c-1.323.347-2.676.133-4.014.219-.181.012-.35-.123-.303-.306.065-.253.251-.455.552-.347.741.267 1.466.134 2.194-.046.581-.025 1.17-.079 1.571.48z"/><path fill="#201915" d="M56.236 227.055l-.994.094-.518-.057-.247.048-2.458.119-.037-.416c1.012-.357 2.062-.509 3.118-.352.396.059.927.043 1.136.564zm-4.214 5.51c.43-1.009 1.397-.912 2.234-1.084l.363.115c-.188.616.58.414.675.789l-3.272.18z"/><path fill="#908671" d="M51.983 226.844l.037.416-4.213.223c1.294-.855 2.756-.61 4.176-.639zm-.75-7.036l-.025.493c-1.066.288-2.16.206-3.244.244.325-.9 1.125-.385 1.693-.546.503-.143 1.049-.133 1.576-.191zm3.669 8.527c-1.116.372-2.251.234-3.394.181.516-.219 1.027-.477 1.607-.415.591.062 1.171.217 1.787.234z"/><path fill="#F3F0E9" d="M63.236 218.748c.794.022 1.595-.023 2.364.248-.615.694-1.628.588-2.364-.248z"/><path fill="#201915" d="M52.215 242.638c1.07.21 2.186-.21 3.239.238l-1.205.11-1.251.239c-.277-.262-.6-.372-.979-.305-.056-.177.053-.242.196-.282z"/><path fill="#908671" d="M75.184 226.344c.877.084 1.616-.268 2.387.357-.88.255-1.564.162-2.387-.357zM51.45 236.946c.528-.155.892.174 1.277.437-.638.474-1.047.28-1.277-.437zm3.017-16.794c.382-.264.943.132 1.267-.343.265-.028.547-.132.757.114.014.017-.182.214-.28.327-.584.015-1.175.145-1.744-.098zm-.937 18.399c-.42.173-.842.296-1.279.056.148-.54.549-.536.985-.459l.239-.008.055.411zm-.299 1.829c-.165.396-.494.235-.777.228.134-.5.365-.673.777-.228z"/><path fill="#F3F0E9" d="M61.64 219.037c.296-.532.78-.294 1.207-.293-.208.895-.812.164-1.207.293z"/><path fill="#908671" d="M51.434 229.696c.405-.204.697-.111.861.325-.383.147-.738.219-.861-.325z"/><path fill="#F3F0E9" d="M35.477 222.627c.031-.07.046-.179.097-.199s.136.049.207.079c-.031.07-.046.18-.096.199-.052.019-.138-.049-.208-.079z"/><path fill="#201915" d="M47.684 222.47l.119-.022-.115-.039z"/><path fill="#F3F0E9" d="M29.853 254.969l.116-.097-.096.12-.02-.023zm28.411-2.495l-.101-.056.095.061.006-.005z"/><path fill="#D1C9C1" d="M60.285 256.714c1.32-.743 2.637.029 3.955.002 3.232-.065 6.465-.124 9.695-.245.903-.034 1.707-.829 2.696-.426-.015.611-.831.81-.754 1.467-4.193.096-8.374.538-12.573.481.158-.788.799-.467 1.221-.469 2.272-.013 4.54-.034 6.789-.458-1.99.032-3.975-.194-5.972.097-1.702.248-3.391-.073-5.057-.449z"/><path fill="#908671" d="M61.667 212.045l.185.097c-.066.027-.132.076-.197.073-.063-.002-.125-.057-.187-.089l.199-.081zm.786.325c.079-.033.15-.088.218-.084s.133.068.199.105c-.069.031-.14.09-.208.087-.068-.003-.134-.066-.209-.108z"/><path fill="#FDD236" d="M66.979 283.68l.139.736c-.085.361-.253.726-.242 1.084.094 2.983-.425 5.932-.461 8.904-.028 2.28-.495 4.544-.226 6.832-.232 4.677-.35 9.363-.736 14.026-.264 3.183.562 6.587-1.589 9.47-.11.148-.072.406-.103.613l-.405.009c-.72-1.199-1.445-2.396-1.839-3.755l-.033-3.275c.61-6.368.795-12.76 1.068-19.147.168-3.924.322-7.85.505-11.773.092-1.977-.109-5.55 1.826-6.655.234-.134 1.213-.27 1.404-.502.436.157-.047 2.118.059 2.4-.149.564-.044.974.633 1.033zm-26.072 40.761c-.786-1.496-.918-3.107-.828-4.755.308-5.68.166-11.367.261-17.05.078-4.68.14-9.36.197-14.041.02-1.61.173-3.166 1.29-4.463.135-.157.088-.472.125-.713.512-.551.932 0 1.389.114.037.371-.034.801.129 1.105.789 1.471.748 3.055.726 4.639-.146 10.686-.297 21.372-.447 32.058-.02 1.421-.37 2.726-1.348 3.809-.723.243-.833-.816-1.494-.703zm28.881-32.788l-.111 10.023c-.639 2.429-.388 4.876-.148 7.323-.042 4.006-.084 8.011-.124 12.017-.414.72-.998 1.398-1.19 2.173-.152.614-1.117.427-.9 1.178-.624-.057-.615-.597-.751-1.009-.471-1.424-.298-2.898-.293-4.354.023-5.93.428-11.855.228-17.788.224-.179.229-.432.225-.684-.078-5.385.651-10.728.844-16.099a.644.644 0 0 0 .107-.224l.128-.289.123-1.07c.443-.451.65.108.96.225.477.881.519 1.892.84 2.818-.212 1.922-.302 3.843.062 5.76zm-10.022 27.204c1.026-.193.996-.987.973-1.752a46.905 46.905 0 0 0-2.253-13.041c-.139-.433-.285-.889-.29-1.336-.066-5.887-.114-11.775-.145-17.663-.003-.593-.11-1.329.816-1.43-.06.37-.214.787.058 1.092 1.922 2.157 1.628 4.856 1.703 7.399.215 7.312.285 14.628.415 21.942.004.25.034.5.051.75a.237.237 0 0 0 .008.24l.01 3.264c-.144 1.008-.139 2.019-.069 3.032.077 1.446-.057 4.868-1.14 6.019-1.727-.079-1.607-2.079-1.59-3.858.002-.208-.006-.416-.009-.623.518.029.758-.264 1.037-.683.715-1.071.325-2.233.425-3.352z"/><path fill="#908671" d="M59.019 281.009c-.311-.184-.776.036-1.072-.502.886.07 1.125-1.099 2.065-.898.426-.674.841-.605 1.249.018 1.238.107 2.474.275 3.626-.429.482-.295.873-.022 1.17.367.293.383.244.684-.267.82-.018-.234.236-.648-.255-.603-.627.057-1.307.045-1.956.632.86-.026 1.546.202 2.23-.05-.341.792-2.021 1.168-2.702.528-.436-.41-.513-.773-1.064.009-.356.506-1.404.018-2.135.137-.194-.204-.402-.194-.621-.042a21.9 21.9 0 0 1-.268.013zm2.717-.771c-.215-.146-.419-.202-.641.022.219.133.423.202.641-.022z"/><path fill="#D1C9C1" d="M40.907 324.441c.661-.112.771.946 1.494.703l.027 2.885-.001.614c-.087.636.131 1.231.238 1.843.146.841.044 1.388-1.093 1.255-.497-.058-.61-.098-.666-.565-.112-.928.558-1.917-.309-2.856-.117-.127.281-1.414.31-2.187l.019-.019c.292.073.562.375.987.042-.549-.468-1.27-.838-1.006-1.715z"/><path fill="#908671" d="M63.082 270.834c-.758-.223-1.38.342-2.113.384-.354.02-.259.663-.237 1.052l.006.034c-.166.028-.166.141-.138.269l-.21 1.222c-.144.143-.109.248.069.322l.074.243c-.262.262-.516.1-.77-.016l.039-.475c.209-.182.227-.378.04-.587a.2.2 0 0 0-.089-.185c-.071-.269.297-.952-.502-.531l-.723.039-.266.162c-.143.051-.366.214-.421.025-.205-.706.518-1.641 1.23-1.649.799-.008.799-.008.909-.795 1.04.211.597-1.455 1.613-1.274.021.164-.124.519.22.373.319-.136.56-.457.872-.728.377.712.293 1.432.397 2.115z"/><path fill="#D1C9C1" d="M59.762 274.344c.254.116.508.279.77.016.869.451.691 1.231.606 1.971-.074.645-.49 1.352.379 1.795-.068.502.272.842.489 1.231-.27.031-.575-.037-.745.27-.408-.623-.823-.692-1.249-.018-.743-1.723-.098-3.513-.25-5.265zm3.774 54.063c.883-1.242 2.325-.617 3.455-1.035l.86-.054c-.166-.391-.802-.507-.486-1.043.271-.46.721-.228 1.102-.263.211.432-.026.939.368 1.384.53.6-.389.621-.528.978-.172.086-.185.184-.023.296-.004.075.001.15.014.225-.005.08-.005.16.001.241l-.007.475-1.25.342c.074-1.99-1.111-1.928-2.515-1.569-.312.079-.66.019-.991.023z"/><path fill="#908671" d="M43.665 280.136c1.798.17 3.583-.055 5.372-.173l.808.152c.079-.001.156.004.234.018-.007.19.188.566-.006.539-.78-.108-1.358.58-2.115.455-.23-.209-.48-.184-.737-.062l.014-.051c-1.251-.771-2.527-.402-3.802-.082-.082-.182-.133-.388-.252-.54-.162-.206-.354-.434-.066-.603.282-.168.276.36.55.347zm-1.237 48.507l.001-.614.745.094c.435.084.864.087 1.282-.084.67.035 1.354.247 1.989-.16.947.197 1.802-.416 2.739-.313l.836.309c.063.427-.407.476-.542.762-.426-.028-.86-.012-1.275-.094-.511-.102-.77.04-.777.573-.151.065-.396.225-.438.182-1.361-1.366-3.015-.632-4.56-.655z"/><path fill="#D1C9C1" d="M50.021 327.875l-.837-.309c.062-.192.101-.539.189-.551.737-.108 1.351-.312 1.767-1.034.142-.246.54-.042.565.34.022.333.038.659.267.928l.671.797c-.362.054-.956-.407-.917.347.237.525 1.195-.168 1.217.719l-1.981.034c.411-.961.099-1.386-.941-1.271zm8.741 1.267c-.589-.72.199-.749.511-1.017 1.106-.058 2.199.018 3.275.291l-.263.217c-.531.536-1.175.005-1.783.191-.65.198-.875.373-.551 1.007.131.257.26.537.289.817.032.309.429.837-.214.879-.381.025-.963-.021-1.013-.68-.044-.573.128-1.18-.251-1.705z"/><path fill="#908671" d="M68.888 283.074c-.31-.117-.518-.676-.96-.225-.051-.804.317-1.855-1.103-1.854-.067 0-.185-.174-.191-.273-.012-.191.126-.263.317-.272.45-.021.899-.059 1.349-.091l.289-.003c.542.007.977.25 1.644.666-1.427.257-1.053 1.322-1.345 2.052z"/><path fill="#F3F0E9" d="M43.34 283.534c-.457-.115-.877-.666-1.389-.115-.594-.833-.197-1.68-.036-2.524.577-.056 1.123-.016 1.518.491l-.093 2.148z"/><path fill="#D1C9C1" d="M67.316 324.367c-.217-.752.748-.565.9-1.178.192-.775.776-1.453 1.19-2.173.413 1.141-.286 2.109-.539 3.133-.128.518-.312 1.029-.401 1.562-.213-.107-.601-.011-.467-.492.158-.57-.187-.797-.696-.86l.013.008z"/><path fill="#908671" d="M49.382 278.623c.289-1.128.566-2.26.872-3.384.19-.697-.436-.867-.893-1.301 1.12.037 1.252-.559 1.103-1.347.321.542.424 1.149.512 1.759-.174-.007-.379.026-.354.228.191 1.55-.215 4.455-.667 5.906-.271-.027-.444-1.637-.573-1.861z"/><path fill="#D1C9C1" d="M68.587 280.356l-.289.003c-.846-.636-.396-1.622-.611-2.428-.12-.447.476-.274.77-.303.441-.043.846-.022.869.59.032.813-.098 1.562-.739 2.138zm-25.154 1.03c-.395-.507-.941-.548-1.518-.491-.277-.342-.75-.684.003-1.023l.246.194.083-.128-.327-.069c.085-.509-.24-1.252.746-1.234 1.076.02.95.812.999 1.5-.274.013-.268-.515-.552-.348-.288.169-.096.397.066.603.12.152.171.358.252.54l.002.456zm3.994 47.731c.007-.534.266-.675.777-.573.415.083.849.066 1.275.094.211.02.444.057.46.312.054.91.477.285.771.195-.054.279-.112.557-.161.836-.098.561-.452.784-.969.626-.628-.193-.062-.596-.099-.899-.019-.152.039-.314.081-.592l-2.135.001zm2.528-50.084c.452-1.45.858-2.906.667-4.456-.025-.202.18-.235.354-.228l-.01-.009c.17.754.28 1.481.076 2.278-.21.817-.202 1.689-.289 2.538.064.826-.526 1.289-.798 1.328-.022-.145.022-1.306 0-1.451z"/><path fill="#FDD236" d="M67.302 324.359c.509.063.854.29.696.86-.134.481.254.386.467.492l.002.301c-.381.034-.831-.198-1.102.262-.316.536.32.652.486 1.043l-.86.054.311-3.012z"/><path fill="#F3F0E9" d="M50.71 329.145c-.295.089-.717.715-.771-.195-.015-.255-.248-.292-.46-.312.135-.287.605-.335.542-.762 1.04-.115 1.352.31.942 1.27l-.253-.001z"/><path fill="#908671" d="M47.984 269.829c.139.079.322.126.408.244.234.322.677.682.49 1.05-.206.405-.717.111-1.097.088l.199-1.382z"/><path fill="#201915" d="M50.022 279.468c.272-.038.796.513.732-.312.21-.173.405-.03.604.027l.034.07.095.386-.249.294c-.483-.081-.976-.246-1.392.182l-.807-.152.983-.495z"/><path fill="#F3F0E9" d="M67.042 329.952l1.25-.342c-.2.906-.588 1.124-1.25.342zm-7.132-48.914c-.213.076-.423.107-.621-.042"/><path fill="#D1C9C1" d="M40.907 326.132l-.1-.125.119.105-.019.02zm6.784-59.117l.261.296-.261-.296zm20.113 16.905z"/><path fill="#F3F0E9" d="M68.299 329.135a1.761 1.761 0 0 1-.001-.241c.188.08.189.16.001.241zm-.015-.465c-.162-.112-.149-.21.023-.296l-.023.296zm-7.182-13.613a.237.237 0 0 1-.008-.24c.026.055.06.109.075.167.005.018-.043.049-.067.073z"/><path fill="#FDD236" d="M55.061 292.475c-.271.039-.829-.777-.759.287.059.893.014 1.793.015 2.69l-.07 1.112c-.05.279-.087.561-.153.838-.359 1.521.743 2.692.968 4.073-.008 3.597-.064 7.196-.008 10.792.049 3.162-.251 6.341.398 9.482.116.563.087 1.169-.288 1.682-.348 0-.647-.101-.844-.411.214-.366.121-.747.055-1.126l-.017-.563c.043-.074.035-.143-.023-.206l.002-1.336c.112-.247.121-.488-.049-.716v-17.429c-.613 2.882-.496 5.801-.69 8.699l-.084 2.166c-.206 2.405-.33 4.798-.155 7.225.096 1.33-.149 2.777-.902 3.995-.638 1.031-.601 3.233-1.317 2.252-.559-.766-1.434-3.84-1.441-4.792-.027-3.808.34-7.597.481-11.396.234-6.307.341-12.62.609-18.926.092-2.161-.014-4.354.552-6.48a1.15 1.15 0 0 0 .134-.196l1.293-1.293c.239-.304.13-.676.197-1.013l.008-.016c.493-.113.641.337.925.566l.354.734.409 1.004.13.732a.273.273 0 0 0 .037.24l.045 1.538c-.035.747-.302 1.513.192 2.214l.011 2.302.009.476-.024.8z"/><path fill="#D1C9C1" d="M54.247 296.565l.07-1.113c.808.418.646 1.287.858 1.955 1.333 4.204 2.796 8.375 3.648 12.715.51 2.597.94 5.211.786 7.881-.016.28.102.568.157.853-.101 1.119.29 2.281-.424 3.351-.279.419-.519.712-1.037.683-.257-.329.459-.485.147-.824.485-1.036.256-2.157.382-3.236.061-.191.191-.389.173-.573-.216-2.198-.453-4.393-.693-6.661-.488.395-.277.843-.305 1.23-.13 1.796.406 3.541.428 5.326-.459 1.028-.061 2.114-.215 3.163-.487.509-.011 1.223-.455 1.934 0-3.989-.022-7.805.01-11.62.015-1.755-.15-3.465-.792-5.111-.192-1.845-.932-3.532-1.506-5.267-.354-1.576-1.172-3.031-1.232-4.686zm-1.991-41.299c.284-.659.621-1.051 1.151-.192.283.458.677.6 1.199.743.59.161 1.326-.028 1.791.659.258.38.669.161.895-.219.086-.145.014-.506.331-.313.113.069.082.376.116.575-.412.535-.372 1.971-1.673.664-.315-.317-1.379-.038-2.099-.146-.323-.049-.67-.764-1.03.065-.132.304-.617.2-.682-.268-.051-.365-.027-.741-.036-1.112l-.011.028c.193-.145.275-.299.048-.484zm-1.28 19.083c-.088-.61-.19-1.217-.512-1.759l-.001-.005c-.034-.267.087-.587-.255-.75v.002l.016-.503c.195-.044.528-.089.39-.334-.736-1.31.282-1.527 1.317-2.009-.602 1.282-1.214 2.483.556 3.068-.373.108-.861.141-.472.736-.581.385-.082 1.108-.486 1.549l-.563-.004.01.009zm4.53 6.043c-.015.825-1.355 1.037-.773 2.157-.63-.313.114-.884-.508-1.056-.443.17-.174.637-.324.94-.284-.229-.433-.678-.925-.565a3311086482068346.5 3311086482068346.5 0 0 1 .214-1.75l.72.006 1.596.268zm-10.919-23.251c.336-.461.697-.683 1.348-.553.523.105 1.151-.005 1.658-.206.801-.319 1.57-.334 2.374-.126.021.29.038.765-.288.698-1.723-.355-3.375.823-5.092.187zm12.988 43.577v-12.979l.093-.001v12.979l-.093.001zm-4.03-28.404c.344-.008.662.067.896.339.334.389.92.654.719 1.322-.068.225-.147.572-.437.52-.582-.104-1.092-.37-1.236-1.034l.058-1.147z"/><path fill="#908671" d="M50.966 274.34l.563.004-.171 4.838c-.199-.057-.395 1.129-.604 1.302.087-.848.079-3.05.289-3.867.204-.796.093-1.523-.077-2.277zm4.54 6.052l-1.598-.268c.232-.501.673-.534 1.145-.531 1.092.008 4.308.02 5.405.163-.734.628-3.774.243-4.544.565l-.408.071z"/><path fill="#D1C9C1" d="M59.828 266.56c-.582-1.529-.027-3.118-.241-4.667.628 1.525.335 3.12.356 4.69l-.115-.023zm-9.584-11.039c.142-.756.705-.864 1.451-.988l-.482 1.97c-.849.19-.646-.655-.969-.982z"/><path fill="#908671" d="M53.545 272.314l-.059 1.147c-.524-.147-.882-.662-1.472-.666-.389-.596.099-.629.472-.736.367.028.754-.026 1.059.255zm-.357 7.804a.519.519 0 0 0-.223.043c-.493-.174-1.683.005-2.176-.169-.032-.129.634-.611.602-.739.71.058 1.826-.727 1.797.865z"/><path fill="#D1C9C1" d="M41.426 257.021c.333-.892.664-.537.995.002-.333.348-.664.355-.995-.002z"/><path fill="#908671" d="M50.224 271.334l-.016.503c-.595-.149-.638-.653-.81-1.193.527.04.511.562.826.69z"/><path fill="#D1C9C1" d="M58.261 272.767l.266-.162a.734.734 0 0 0 .473.455l.042.061c-.134.199-.29.443-.547.364-.352-.109-.198-.462-.234-.718zm.989-.201c.799-.42.432.263.502.531l-.71.023-.042-.06c-.038-.225.56-.131.25-.494z"/><path fill="#908671" d="M50.208 271.836c.342.163.221.482.255.75-.261-.191-.308-.454-.255-.75z"/><path fill="#D1C9C1" d="M59.841 273.282c.188.209.169.405-.04.587l.04-.587zm-10.173-19.99c.14-.238.325-.46.273-.766.454-.081.916-.214 1.308.173-.41.339-.229.466.183.51-.541 1.026-1.176.054-1.764.083zm8.962 2.492a.66.66 0 0 1 .671-.396c.167.012.473.244.458.289-.112.326-.363.534-.731.504-.216-.018-.353-.163-.398-.397z"/><path fill="#F3F0E9" d="M51.432 253.209c-.412-.044-.593-.171-.183-.51.225.111.226.303.183.51z"/><path fill="#D1C9C1" d="M44.694 252.623c-.149.334-.318.394-.518.038.157-.22.331-.217.518-.038z"/><path fill="#F3F0E9" d="M52.256 255.266c.227.185.145.339-.048.483l.048-.483z"/><path fill="#D1C9C1" d="M53.252 217.758h-.915c.363-.323.652-.249.915 0zm-.272 17.386c.675-.502 1.401-.254 2.119-.146-.661.702-1.38.57-2.119.146zm-5.892 7.112l.439.33c-2.104.068-4.196.407-6.312.253 1.915-.619 3.923-.318 5.873-.583zm7.636-15.164l.518.057c-.171.188-.371.167-.58.08a.24.24 0 0 0 .062-.137z"/><path fill="#908671" d="M54.724 227.092a.238.238 0 0 1-.063.137c-.085.011-.146-.019-.184-.088l.247-.049z"/><path fill="#D1C9C1" d="M57.51 248.766c.245.065.257.279.268.472.012.209-.039.447-.312.374-.223-.06-.214-.317-.206-.513.005-.148.014-.331.25-.333zm-5.295-29.452l.269.013-.061.181-.19-.218-.018.024zm10.828 107.052c.05-.354-.093-.768.313-1.012l.405-.008c-.048.475-.133.924-.718 1.02z"/><path fill="#908671" d="M53.23 327.379l.492-.028c.518.023 1.051.164 1.526-.178l.426.047.336.12c1.155-.161 2.459.454 3.43-.661.043.308-.039.737.463.694 1.046-.091 2.128.28 3.142-.236l.434.06c-.251.452.092 1.358-.931 1.219-1.076-.273-2.17-.349-3.275-.291-.987.01-2.01-.279-2.924.36-.092.064-.275.127-.34.082-1.394-.976-2.868.144-4.282-.174-.039-.754.555-.293.917-.347l-.671-.797.993.148c.102.201.19.205.264-.018z"/><path fill="#D1C9C1" d="M63.48 327.196l-.434-.06-.018-.288c.222.023.441.051.452.348z"/><path fill="#F3F0E9" d="M59.25 272.566c.311.363-.287.269-.249.494a.736.736 0 0 1-.474-.455l.723-.039z"/><path fill="#D1C9C1" d="M60.389 273.796l.069.322c-.178-.075-.213-.179-.069-.322z"/><path fill="#F3F0E9" d="M60.738 272.305l-.138.269c-.029-.128-.028-.242.138-.269z"/><path fill="#D1C9C1" d="M50.62 281.882c-.426-.507.21-1.343-.541-1.75a1.318 1.318 0 0 0-.234-.018c.416-.428.91-.264 1.392-.182l-.006 2.442c-.213-.151-.238-.537-.611-.492z"/><path fill="#FEFEFE" d="M47.957 281.127c-.274.321-.525.364-.737-.061.258-.124.507-.149.737.061z"/><path fill="#D1C9C1" d="M43.174 328.123c.406-.353.838-.311 1.282-.083-.418.17-.847.166-1.282.083z"/><path fill="#908671" d="M41.92 279.87l.327.069-.083.128-.246-.194.002-.003zm13.245 43.561c.228.628.803.599 1.313.694-1.573.703-2.348.198-2.69-1.751l.14.043a.36.36 0 0 0 .066.189l.327.414c.197.31.496.411.844.411zm-3.934-41.056l.246 1.815a1.288 1.288 0 0 1-.134.197c-.697-.703-.352-1.707-.723-2.504.373-.046.398.34.611.492z"/><path fill="#D1C9C1" d="M53.6 310.343c.157.73.251 1.457-.084 2.167l.084-2.167zm.654-27.176c.657.123.44.602.41 1.004l-.41-1.004zm.067 39.852l-.327-.414c.328-.13.188-.512.383-.713.066.381.159.761-.056 1.127zm-1.551-40.122c-.028-.356-.136-.728.197-1.013-.067.337.042.709-.197 1.013zm1.568 36.891l-.049-.717c.17.229.162.47.049.717z"/><path fill="#F3F0E9" d="M55.077 291.197c.186.155.188.314.009.476l-.009-.476zm-.284-6.294c.034.053.074.103.097.161.006.016-.039.052-.06.079a.274.274 0 0 1-.037-.24z"/><path fill="#D1C9C1" d="M54.359 321.33c-.073-.062-.08-.131-.023-.206.058.063.066.132.023.206z"/><path fill="#FDD236" d="M58.437 318.154l.397.677c-.125 1.079.103 2.2-.382 3.236-.289-.185-.107-.514-.23-.75.153-1.049-.244-2.135.215-3.163zm-11.151-37.67c.222.244.411.452.672.643 1.498 1.096 1.65 6.663 1.607 8.445-.109 4.47-.174 8.941-.262 13.412-.107 5.514-.211 11.027-.336 16.54a34.589 34.589 0 0 1-.218 3.25c-.186 1.588-.707 4.851-2.304 5.6-.007-.18-.412-.203-.592-.277-1.207-1.448-.814-5.14-.672-6.85.226-2.709.25-5.421.306-8.134.14-6.761.289-13.522.423-20.283.017-.834.033-1.678-.064-2.503-.245-2.086.236-8.046 1.44-9.843z"/><path fill="#D1C9C1" d="M55.249 327.173c-.476.341-1.008.2-1.526.178.432-.712.888-1.23 1.526-.178zm-1.321-4.757l-.14-.043c-.426-.308-.271-.682-.2-1.133.522.358.374.781.34 1.176zm2.083 4.924l-.336-.12.336.12zm-2.781.039c-.074.223-.163.218-.264.017l.264-.017z"/><path fill="#B98F35" d="M42.401 325.143s-2.563-33.169-.766-38.463c.001.001-2.357 38.602.766 38.463zm4.044-1.019l.117-35.048.526 34.323zm6.469-40.076s-1.055 1.661-1.042 13.146l-.285 21.316 1.327-34.462z"/><path fill="#E2E8F1" d="M27.064 331.018s-34.963-1.181-12.651-47.201l7.394-23.368s-27.079 71.352 5.257 70.569zm67.719-52.786l-4.518 1.78c39 39.979 1.719 52.254 7.662 49.453 18.236-8.511 9.774-38.93-3.144-51.233z"/><path fill="#6C2A52" d="M55.06-.449c-.119 1.851.251 3.758-.373 5.552-.162.464.006.857.187 1.264 1.93 4.351 1.613 8.751.087 13.132-.274.787-.496 1.531-.451 2.396.043.837.209 1.704.102 2.506-.741 5.563 1.672 10.648 1.348 16.136-.042.707.102 1.571-.153 2.095-1.415 2.908-.786 6.058-.758 9.141.006.646.075 1.331-.056 1.932-.691 3.158-.144 6.247.212 9.351.007.064.032.13.025.19-.633 6.058.301 12.198-.414 18.199-.242 2.03 1.096 3.654.264 5.535 1.893 2.282.985 5.296 1.116 8.002.073 1.495-.678 2.908-.543 4.53.089 1.07.352 1.811 1.019 2.393 5.074 4.431 5.289 13.265.314 17.801-1.378 1.256-1.33 5.493-.351 7.243.911 1.63 1.913 2.192 3.355 2.349 1.28.138 2.025 1.294 2.108 3.16.148 3.349.416 6.689.579 10.037.064 1.308.458 2.051 1.467 2.181.774.1 1.542.301 2.316.37 1.555.138 2.363 1.214 2.562 3.253.399 4.097.851 8.185 1.256 12.28.152 1.535.238 3.082.348 4.624.086 1.203.435 2.171 1.127 3.031 3.193 3.969-12.794 20.737-9.923 25.18 5.17 8.001 28.974 3.48 32.076 13.228 1.024 3.218 1.998 6.455 2.851 9.755.24.929.751 1.473 1.224 2.113 1.965 2.658 1.798 5.736-.437 7.925-2.912 2.851-6.359 3.854-9.795 4.737-12.158 3.122-24.462 3.423-36.79 3.168a194.49 194.49 0 0 1-4.185-.132c-8.286-.354-16.538-1.27-24.737-2.992-3.903-.82-7.74-2.013-11.365-4.196-1.043-.629-1.941-1.445-2.518-2.819-.62-1.479-.643-3.099.267-4.119 1.932-2.169 2.438-5.21 3.216-8.094 2.719-10.078 30.789-9.816 35.929-18.071 3.577-5.744-16.728-20.534-12.337-25.193 1.092-1.159 1.577-2.532 1.735-4.44.468-5.646 1.145-11.262 1.75-16.888.174-1.615 1.035-2.12 2.119-2.487 1.115-.378 2.517.33 3.321-.973.723-1.173.321-2.877.458-4.337.209-2.238.188-4.515.414-6.749.288-2.845.892-3.702 3.007-3.695 1.764.005 2.316-1.826 2.94-3.17.708-1.526-.262-4.608-1.444-5.494-4.07-3.051-5.093-8.148-4.183-12.411.557-2.607 1.611-4.756 3.44-5.983 1.226-.823 1.655-1.905 1.547-3.675-.153-2.508-.157-5.032-.227-7.549-.125-4.469.403-8.911.509-13.369.1-4.209.398-8.342-.15-12.533-.128-.975-.033-2.144.265-3.047.993-3.018.832-6.144.764-9.291-.04-1.869-.077-3.747.28-5.592.149-.771.044-1.537-.216-2.265a15.788 15.788 0 0 1-.463-9.084c.805-3.257.694-6.486.681-9.764-.011-2.753.01-5.421-.867-8.123-.973-2.997-.952-6.302.024-9.449.459-1.479.013-2.933-.095-4.391-.109-1.474-.296-2.939-.449-4.407 1.553-.007 3.112-.007 4.671-.007zm-2.993 115.255c.058-3.511-1.296-6.505-1.211-9.856.031-1.219-.654-.732-1.135-.378-3.085 2.272-3.425 8.388-.667 11.749.698.851 1.426 1.301 2.37.797.953-.509.503-1.644.643-2.312zm6.425-3.876c-.105-2.668-.936-4.762-2.586-6.223-.804-.712-2.18.17-2.125 1.405.136 3.02.357 6.033.573 9.045.056.783.234 1.539.931 1.774.599.202 1.015-.204 1.423-.707 1.173-1.446 1.684-3.267 1.784-5.294zm-4.736-92.883c1.181-2.875 1.421-5.829.745-8.88-.084-.378-.031-1.042-.553-.9-.368.101-.55.558-.533 1.037.101 2.915.225 5.829.341 8.743zm.342 15.801c-.544 2.869.373 5.169-.079 7.847l-.495-6.34c-.184 2.518-.189 5.022-.18 7.526.002.444-.009 1.022.389 1.137.558.161.552-.562.672-1.003.796-2.912.561-5.777-.307-9.167z"/><path fill="#51203E" d="M48.282 231.382s-32.249-.469-37.499-7.969c0 0 3.459-.531 3.979-8.25.521-7.719 10.271-7.75 10.271-7.75s13.957-3.591 18.801-4.5c4.125-.774-9.051 7.235-16.301 9.25s-7 7-7.25 9.5 7.498 5.438 27.999 9.719z"/><path fill="#A77F97" d="M90.753 217.758s-37.976 12.281-66.171 1.213c0 0 9.967 14.999 67.059 2.121.001-.001 4.812-1.761-.888-3.334zm-37.228-25.595s-.71 19.5-21.18 20.5c0 0 31.924 3.75 43.361-2.25-.001 0-19.412 2-22.181-18.25z"/><path fill="#51203E" d="M47.59 142.394s-3.598 5.816-7.25 5.507c0 0 .717 20.292-3.819 19.782l4.536.511s2.167-16.081 4.857-17.647c0 0-.122-3.518 1.676-8.153z"/><path fill="#A77F97" d="M70.01 169.106s-27.724 3.443-32.476 0c0 0 13.453 2.193 32.476 0zm-20.043-24.461s3.661.775 11.041-.248l-.079 1.108s-5.726 1.731-10.962-.86z"/><path fill="#A77F97" d="M52.225 145.326s2.645 25.444-3.163 25.223l7.108-.204s-3.393-2.689-1.904-25.019h-2.041zm-5.39-14.635s5-2 13.875 0c0 0-7.875 1.25-13.875 0z"/><path fill="#A77F97" d="M57.545 131.001s1.764-.14 1.251 13.662c0 0 2.663-12.046.513-13.802l-1.764.14zm-3.773-11.838s9.035-2.833 3.773-14.5c0 0 7.05 10.5-3.773 14.5zm-.757-20.5s3.994-4.695.908-11c-3.085-6.305 2.926 7.571-.908 11z"/><path fill="#A77F97" d="M53.745 87.284s.827-5.354-.248-10.521c-1.075-5.167.552-12.833.552-12.833s.041-7.833-.459-9.833c0 0 .081 7.833-.459 9.167-.541 1.333-1.449 13.167-.541 13.333.908.167.537 10.688.537 10.688"/><path fill="#51203E" d="M45.718 142.473c-.072-.11-1.372-6.368 1.116-9.685 1.698-2.264 5.986.811 7.215.125s.949 4.127-4.199 1.575c-5.146-2.552-1.65 11.763-4.132 7.985zm12.774 53.235s4.603-16.397 11.836-22.75c0 0-1.19-7.822-9.412 6.834 0 0-3.4 9.119-2.424 15.916zm-7.665-2.001s-4.362-10.572-9.687-14.238c0 0 .177-5.31 6.816 3.815-.001 0 2.985 5.813 2.871 10.423z"/><path fill="#A77F97" d="M43.815 167.262s3.026.822 9.247.315l-.118.923c0 .001-4.872 1.177-9.129-1.238z"/><path fill="#A77F97" d="M45.958 168.83s2.332.581 7.093.092l-.076.709c0 .001-3.715.981-7.017-.801zm26.978 38.98s-3.026.822-9.247.315l.118.923c-.001 0 4.871 1.177 9.129-1.238z"/><path fill="#A77F97" d="M70.792 209.378s-2.332.581-7.093.092l.076.709c0 .001 3.715.981 7.017-.801zm-4-4.206s-3.026.822-9.247.315l.118.923s4.872 1.176 9.129-1.238z"/><path fill="#A77F97" d="M64.649 206.74s-2.332.581-7.093.092l.076.709s3.715.981 7.017-.801zm.122-2.888s-3.026.822-9.247.315l.118.923c0 .001 4.872 1.177 9.129-1.238z"/><path fill="#A77F97" d="M62.628 205.42s-2.332.581-7.093.092l.076.709c0 .001 3.715.981 7.017-.801zm.311-3.748s-3.026.822-9.247.315l.118.923c0 .001 4.872 1.177 9.129-1.238z"/><path fill="#A77F97" d="M60.796 203.24s-2.332.581-7.093.092l.076.709c0 .001 3.715.981 7.017-.801zm1.078-3.444s-3.026.822-9.247.315l.118.923c-.001.001 4.871 1.177 9.129-1.238z"/><path fill="#A77F97" d="M59.73 201.364s-2.332.581-7.093.092l.076.709c0 .001 3.715.981 7.017-.801zm2.144-35.978s-3.026.822-9.247.315l.118.923c-.001.001 4.871 1.177 9.129-1.238z"/><path fill="#A77F97" d="M59.73 166.954s-2.332.581-7.093.092l.076.709c0 .001 3.715.981 7.017-.801zm0-3.309s-2.332.581-7.093.092l.076.709c0 .001 3.715.981 7.017-.801zm-9.808-.652s1.016.253 3.09.04l-.033.309s-1.619.427-3.057-.349z"/><path fill="#A77F97" d="M49.987 162.527s1.016.253 3.09.04l-.033.309c-.001 0-1.619.427-3.057-.349zm.246-.735s1.001.39 3.119-.234l-.065.605s-1.679.996-3.054-.371z"/><path fill="#A77F97" d="M50.345 160.877s1.001.39 3.119-.234l-.065.606c.001-.001-1.678.995-3.054-.372zm5.545-23.35s1.016.253 3.09.04l-.033.309c-.001 0-1.619.427-3.057-.349z"/><path fill="#A77F97" d="M55.954 137.061s1.016.253 3.09.04l-.033.309s-1.618.427-3.057-.349zm-5.721 9.49s1.001.39 3.119-.234l-.065.606c0-.001-1.679.995-3.054-.372zM81.4 217.758s3.026.822 9.247.315l-.118.923s-4.872 1.177-9.129-1.238z"/></svg>