<svg xmlns="http://www.w3.org/2000/svg" width="324.299" height="522.591" viewBox="0 0 324.299 522.591"><path fill="#4F1B3C" d="M253.368 0s46.681 4.947 46.681 72.473c0 0-25.934-11.675-41.842 28.926l-17.158.435-8.75-89.334 4.743-9.231L253.368 0"/><path fill="#3A102C" d="M243.969 3.75s27.08-11.434 46.58 26.658c0 0-23.29-35.658-46.58-19.158v-7.5"/><path fill="#3A102C" d="M256.725 45.02l-3.124-27.544S288.008 21.5 293.8 49c-.001 0-22.399-17.959-37.075-3.98z"/><path fill="#957889" d="M258.799 19.833s21.25 3.5 33.167 25.25c0 0-17.5-23.667-32.761-23.378l-.406-1.872z"/><path fill="#230018" d="M254.741 27.535l1.983 17.486s8.342-7.602 20.208-4.436c0 0-10.848-5.24-16.866-1.912l-5.325-11.138z"/><path fill="#4F1B3C" d="M300.049 72.473s22.25 13.693 24.25 67.36l-7.942 292.848-73.975 83.819-20.283-4.333-11.724-252.053 9.049-132.517L227.248 99l38.589-26.527 22.17-18.965 9.792 18.965"/><path fill="#230018" d="M317.072 254.444s7.304-121.887 5.945-130.457l-1.737 127.161-2.52 2.53m-53.461 12.746s-.513-89.273 4.199-97.502c0 0-4.978 93.312 25.272 86.938l-29.471 10.564z"/><path d="M227.033 13h6.743s8.422 46.5 5.339 55.5l14.252-.5v33l-20.627 2.333L223.981 13m82.43 240.5l-46.344 22.224s-2.3-115.918 13.633-151.738c0 0-11.488 110.558-5.522 137.267l29.604-6.004 3.977-.807 4.652-.942zm2.621 180.136l2.174-116.886-1.661-51.417-54.389 29.078s46.616.966 53.876 139.225m-60.983-83.113s28.717 122.171 59.51 84.204l-1.51 5.273-58.218 65 .218-154.477" fill="#3A102C"/><path fill="#230018" d="M20.48 109.858S21.042 41.426.299 35.167c-5-1.509 54.343-4.238 54.343-4.238l8.657 71.904-42.819 7.025"/><path fill="#4F1B3C" d="M0 33.658s4.799-5.325 18.799-10.491L253.368 0s-18.569 6-21.069 12.5c0 0-224.098 28.816-232.299 21.158z"/><path fill="#230018" d="M37.361 96.059s5.502-4.307-6.815-25.559l204.753-9.333 1.743 31.126-199.681 3.766z"/><path fill="#4F1B3C" d="M39.267 92.647l144.111-.596L47.331 90.39l1.923-3.557"/><path fill="#3A102C" d="M219.195 270.639l-20.544 30.762 1.294 4.109 22.153-6.979"/><path fill="#3A102C" d="M216.754 279.907L9.087 252.44S-11.246 107.5 36.587 99.5c0 0 6.333-7 0-7 0 0 12.667-.5 12.667-9.5v9s-7 2.5 2.5 2l160.059-2s17.441 1.5 4.941-4l10-.5 7.5.5s3.815 9.5 7.815 11-31.878 19.5-23.315 178.724"/><path fill="#230018" d="M218.799 275.724L9.132 250.44l-3.735-50.69 16.152 30.75 42 12.11-8 4.14 163.25 28.974"/><path fill="#4F1B3C" d="M36.632 102.833s-25.667 24.667-20 64.667l178.333 12.667s.003-71.333 19.335-77.333l-177.668-.001z"/><path fill="#3A102C" d="M29.957 158.5s-2.667-32 13.333-44.667l156-2.667s-14.667 19.333-14 57.333L29.957 158.5z"/><ellipse transform="rotate(.81 186.397 174.004)" fill="#28001D" cx="186.393" cy="174.01" rx="3" ry="2.833"/><path fill="#624457" d="M184.621 171.729s-.931 3.758 1.717 5.129"/><ellipse transform="rotate(.81 97.255 169.02)" fill="#28001D" cx="97.249" cy="169.027" rx="3" ry="2.833"/><path fill="#624457" d="M97.194 171.87s-4.732-.941-1.717-5.129c.001 0-.93 3.758 1.717 5.129z"/><ellipse transform="rotate(.81 200.78 107.002)" fill="#28001D" cx="200.774" cy="107.01" rx="3" ry="2.833"/><path fill="#624457" d="M200.722 109.858s-4.732-.942-1.717-5.129c0 0-.931 3.758 1.717 5.129z"/><ellipse transform="rotate(.81 114.435 107.352)" fill="#28001D" cx="114.433" cy="107.359" rx="3" ry="2.833"/><path fill="#624457" d="M114.381 110.204s-4.732-.941-1.717-5.129c.001 0-.93 3.758 1.717 5.129z"/><ellipse transform="rotate(.81 24.067 162.425)" fill="#28001D" cx="24.063" cy="162.424" rx="3" ry="2.833"/><path fill="#624457" d="M24.009 165.264s-4.732-.941-1.717-5.129c0 0-.931 3.758 1.717 5.129z"/><ellipse transform="rotate(.81 41.428 107.359)" fill="#28001D" cx="41.425" cy="107.362" rx="3" ry="2.833"/><path fill="#624457" d="M41.373 110.204s-4.732-.941-1.717-5.129c0 0-.931 3.758 1.717 5.129z"/><path fill="#230018" d="M131.538 175.661L16.632 167.5s-6.095-29.535 14.161-57.642c0 0-25.244 22.753-20.494 59.448l-.595 2.565 121.834 3.79z"/><path fill="#957889" d="M194.966 180.167s2.233-68.972 13.616-75.163c11.384-6.191 1.654 2.833 1.654 2.833s-8.27 8.663-15.27 72.33zM43.29 113.833S32.418 122 30.546 141.5c0 0 5.841-25.021 14.336-25.167 8.495-.145 6.58-2.64 6.58-2.64l-8.172.14z"/><path fill="#4F1B3C" d="M41.877 92.165s-3.942-12.627-6.328-16.915 8.864-3 8.864-3L218.799 65 44.413 78.582 49.255 83v9l-7.378.165M3.834 262.222s1.378-9.255 12.345-11.782l195.352 25.372 7.267-.088s-10.936 10.874-8.283 16.971l-1.94 4.835L5.732 267.159l-4.333.057 2.435-4.994z"/><path fill="#3A102C" d="M4.768 259.758s8.697-2.008 10.406-2.008l59.5 4.75-61.103-9.31L47.799 257l-32.5-4.56 36.917 4.394 112.937 12.955L9.133 250.44h6.166s-9.895 2.909-10.531 9.318"/><path fill="#28001D" d="M216.132 293.124S13.965 266.402 3.465 259.069l6.834 188.505 200.667 72.358 5.166-226.808z"/><path fill="#4F1B3C" d="M204.836 513.613L13.695 444.799 7.029 268.966v-3.579l203.207 31.608v215.137l-5.4 1.481"/><path fill="#230018" d="M207.966 501.833l1.666 14.667-11-8.333-178-63.334-11 1.334 5.334-12-5.667-161.334-6-10.333 11.333 6 185.667 29.667 13.667-3.667-4.334 9.82z"/><path fill="#3A102C" d="M206.299 508.167L16.966 441.515l-6-171.348L206.299 301.5z"/><path fill="#4F1B3C" d="M186.299 476.5l-4.207-1.375L33.299 426.5v-132l153 27"/><path fill="none" stroke="#230018" stroke-width="7" stroke-miterlimit="10" d="M186.299 476.5l-153-48.118V294.5l153 25.647z"/><path fill="#957889" d="M152.966 462.5l-116.333-37v-88.333s2.249 9.511 2.333 85.333c0 0 75 22.667 114 40z"/><ellipse fill="#3A102C" cx="168.799" cy="404.661" rx="3.833" ry="3.856"/><ellipse fill="#3A102C" cx="48.132" cy="372.139" rx="3.167" ry="3"/><ellipse fill="#3A102C" cx="91.882" cy="353.139" rx="2.917" ry="3"/><ellipse fill="#3A102C" cx="117.299" cy="358.972" rx="3" ry="2.833"/><path fill="#957889" d="M117.299 361.805s-4.745-.874-1.789-5.104c0 .001-.878 3.771 1.789 5.104zm-25.417-5.666s-4.769-1.731-1.426-5.615c0-.001-.824 3.448 1.426 5.615zm-46.068 13.97s-2.515 4.697 3.152 5.03c0 0-3.804-.894-3.152-5.03zm124.652 38.408s-6.872.765-5.019-5.723c-.001 0-.148 5.268 5.019 5.723zM91.882 304.32l95.417 14.847-1 73.333-1-71.333z"/><path fill="#4F1B3C" d="M89.216 441.515l-52.584-16.833v-.833z"/><ellipse fill="#28001D" cx="116.507" cy="294.972" rx="3" ry="2.833"/><path fill="#624457" d="M116.507 297.805s-4.745-.874-1.789-5.104c0 .001-.877 3.771 1.789 5.104z"/><ellipse fill="#28001D" cx="91.882" cy="290.722" rx="3" ry="2.833"/><ellipse fill="#28001D" cx="105.016" cy="325.008" rx="10.604" ry="9.97"/><path fill="#624457" d="M91.882 293.555s-4.745-.874-1.789-5.104c0 .001-.877 3.771 1.789 5.104z"/><ellipse fill="#724B63" cx="105.016" cy="325.008" rx="9.75" ry="9.167"/><ellipse fill="#3A102C" cx="105.264" cy="324.833" rx="7.835" ry="6.992"/><path fill="#28001D" d="M104.11 331.826s-9.17-.656-6.022-10.018l2.682 1.012c-.001 0-4.661 4.637 3.34 9.006z"/><path fill="#4F1B3C" d="M220.727 296.67l-.671 219.606.671 2.56s-9.671 4.773-12.337-2.56c-2.667-7.333 0-218.766 0-218.766l12.337-.84z"/><ellipse fill="#230018" cx="212.966" cy="296.667" rx="7.667" ry="2.167"/><path fill="#4F1B3C" d="M1.632 264.462l7.667 177.053-2.27 5.318s6.341 2.469 9.604 1.333l-2.936-183.705H1.632v.001z"/><ellipse fill="#230018" cx="7.664" cy="264.462" rx="6.032" ry="1.962"/><path fill="#724B63" d="M216.292 298.616s-1.344.293-3.327.217v213.333l3.327-203 3.007-.166-3.167-1.333 3.167-.5-3.167-1.167v-4.833l4.5-4.5s-2.18 1.899-4.34 1.949zM9.356 266.412s-3.241-.169-5.223-.245l4.782 82.243.442-71.448 3.277-4.795-3.5 1.833 3.667-5.333-5.137 2.833-3.24 1.125 9.272-8.163s-2.18 1.9-4.34 1.95z"/><path fill="#957889" d="M214.301 298.25s-12.5-.719-6.5-2.583c7.652-2.377 3.683.284 1.75.5-3.5.39-.75.916 4.75 2.083zM7.664 265.938s-9.811-.514-3.78-2.276c1.821-.532 3.683.284 1.75.5-3.5.389-3.47.609 2.03 1.776zM38.61 92.165l198.432.128-199.681 3.766z"/><path fill="#4F1B3C" d="M32.29 70.167s5.647-3.333 7.866-9.333l194.553-12.667.59 12.667L32.29 70.167z"/><path fill="#230018" d="M32.29 70.167s4.903-2.333 6.123-11l114.242-5.658-106.689 8.329-13.676 8.329z"/><path fill="#3A102C" d="M38.413 59.167S34.466 36.5 27.049 36.5l200.583-18.667s5.479-.666 7.077 30.333c0 .001-193.183 13.667-196.296 11.001z"/><path fill="#4F1B3C" d="M45.528 55.512s1.079-15.21-6.113-14.791l182.884-17.554s9.635 12.282 2.018 18.822L45.528 55.512z"/><path fill="#230018" d="M173.335 35.333a1.834 1.834 0 0 0-1.984-1.669L82.35 41.36a1.834 1.834 0 0 0 .315 3.653l89.001-7.696a1.832 1.832 0 0 0 1.669-1.984z"/><path fill="#957889" d="M81.078 42.046s-.785 2.32 1.221 2.975l43.083-3.583-42.417 2.833c.001-.001-2.554-.475-1.887-2.225z"/><path fill="#230018" d="M235.299 61.167s4.333-46.667-5-48.667L28.632 33.658l1.914 4.604 197.086-20.429s5.337 19.597 7.667 43.334zm-15.25 232.208s33.319 3.978 30.75-7.18l64.667-31.695s3.583.856 5.75-4.06l-.5 10.727s-3.264 2.084-6.056.108l-60.527 29.447-.708 7.528s-11.952 4.134-23.625 2.25l-2 33.674 5 .803-6.667 2.189-5.406 130.334-.678-174.125zm.678 179.458l3.572 32.667 2.333-5.667 2 8.333 7.333 4s6.667 2.667 7.667-4 2.417-53.917 2.417-53.917l1.917 48.583 59.593-68.106.513-13.226s5.935 15.667 7.602-5.667l.625 20s-1.147 5.234-7 4.333l-61 68s2.239 17.33-12.667 14l-15.576-5.89.671-43.443z"/><path fill="#230018" d="M251.445 297.959l-3.614 94.541 5.537-95.147-3.071-.683m56.114-32.038s4.727-2.545 4.977 8.205l-1.25 59.25 2.917-70.833-6.644 3.378z"/><path fill="#3A102C" d="M261.299 133.5s8-35.277 26-39.388c0 0 13.69-5.278 24.095 17.055 0 0 3.239 10.027 3.322 16.43l-10.917-20.572s-17.5-29.525-42.5 26.475zM253.368 99s20.77-27.43 46.681-26.527c0 0-28.612-15.473-46.681 26.527zm-14.252-30.5s3.683-8.667 9.933-10.333h25.285s-21.788.394-20.965 9.833c.52 5.977-14.253.5-14.253.5zm68.956 189.624l3.322-77.957V254.5z"/><path fill="#230018" d="M251.121 292.295L252.974 210l2.115 74.092z"/><path fill="#957889" d="M293.799 65s-29-9.275-32.5 3.362-1.5-8.362 32.5-3.362zm15.89 201.424s-.022 29.151.044 58.09l2.409-62.013-58.009 28.221-1.028 11.15m-14.807-.926s8.501.669 8.501 20.861h-8.501l8.501 1.526-8.501.833 8.501 1 1.032 179.833 3.378-205.547c-2.16-.619-9.661 2.605-12.911 1.494zM309.733 424s6.066-3 6.566-51.75c0 0 .761 52.664-3.244 54.457-4.006 1.793-3.322-2.707-3.322-2.707zm-60.362-247.142s-3.543-72.298 12.745-90.525 24.183-15.886 35.683-13.86c0 0 10.368 5.193 11.934 14.36 0 0-18.387-16.638-26.596-8.251 0 0-22.78-8.543-33.766 98.276z"/><path fill="#3A102C" d="M249.799 58.167s-8.03-53.499-5.244-54.708C247.34 2.25 234.549 7 232.299 12.5c0 0 9.694 46.539 6.817 56-2.876 9.461 10.683-10.333 10.683-10.333z"/><path fill="#230018" d="M248.977 58.167l-7.928 10.266s7.784-10.21 11.497-9.872c3.713.338-3.569-.394-3.569-.394"/><path fill="#230018" d="M241.675 67.67s10.284-.159 10.986 14.568 0-15 0-15l-10.986.432m-21.626 225.705s-14.98-178.543 16.993-201.082l15.932-.128.394 6.835s-29.069 20.25-33.319 194.375z"/><path fill="#230018" d="M222.792 177.443s10.302 6.75 28.501 0c0 0-13.202 9.75-28.501 7.75v-7.75z"/><path fill="#230018" d="M221.048 185.464s10.302 6.75 28.501 0c0 0-13.202 9.75-28.501 7.75v-7.75zm1.596 171.119s7.435 6.75 20.569 0c0 0-9.528 9.75-20.569 7.75v-7.75z"/><path fill="#230018" d="M221.385 364.603s7.435 6.75 20.569 0c0 0-9.528 9.75-20.569 7.75v-7.75zm0 111.897s7.435 6.75 20.569 0c0 0-9.528 9.75-20.569 7.75v-7.75zm-.927-214.086s10.302 6.75 28.501 0c0 0-13.202 9.75-28.501 7.75v-7.75zm101.267-54.164s-3.441 6.75-9.521 0c0 0 4.41 9.75 9.521 7.75v-7.75z"/><path fill="#230018" d="M321.725 201.98s-3.441 6.75-9.521 0c0 0 4.41 9.75 9.521 7.75v-7.75zm-.608 41.147s-3.441 6.75-9.521 0c0 0 4.41 9.75 9.521 7.75v-7.75zm-10.551 70.704s3.131 6.75 8.662 0c0 0-4.012 9.75-8.662 7.75v-7.75z"/><path fill="#230018" d="M310.566 320.831s3.131 6.75 8.662 0c0 0-4.012 9.75-8.662 7.75v-7.75zm2.068-58.417s3.131 6.75 8.662 0c0 0-4.012 9.75-8.662 7.75v-7.75z"/><ellipse transform="rotate(.81 216.555 33.216)" fill="#28001D" cx="216.551" cy="33.222" rx="3" ry="2.833"/><path fill="#624457" d="M216.503 36.071s-4.732-.941-1.717-5.129c.001 0-.93 3.758 1.717 5.129z"/><ellipse transform="rotate(.81 51.66 47.18)" fill="#28001D" cx="51.656" cy="47.182" rx="3" ry="2.833"/><path fill="#624457" d="M51.607 50.024s-4.732-.942-1.717-5.129c0 .001-.931 3.758 1.717 5.129z"/><ellipse transform="rotate(.81 244.71 82.194)" fill="#28001D" cx="244.704" cy="82.204" rx="4.353" ry="4.111"/><path fill="#624457" d="M244.634 86.332s-6.866-1.366-2.491-7.442c0 0-1.351 5.453 2.491 7.442z"/><ellipse transform="rotate(.81 290.438 109.827)" fill="#28001D" cx="290.431" cy="109.838" rx="4.353" ry="4.111"/><path fill="#624457" d="M290.359 113.969s-6.866-1.366-2.491-7.442c0-.001-1.35 5.452 2.491 7.442z"/><ellipse transform="rotate(.81 47.155 415.822)" fill="#28001D" cx="47.138" cy="415.825" rx="4.353" ry="4.111"/><path fill="#624457" d="M47.054 419.944s-6.866-1.366-2.491-7.442c0 0-1.351 5.453 2.491 7.442z"/><ellipse transform="rotate(.81 174.096 462.482)" fill="#28001D" cx="174.073" cy="462.486" rx="4.353" ry="4.111"/><path fill="#624457" d="M173.987 466.611s-6.866-1.366-2.491-7.442c0 0-1.351 5.453 2.491 7.442z"/><ellipse transform="rotate(.81 103.196 399.672)" fill="#28001D" cx="103.179" cy="399.68" rx="4.353" ry="4.111"/><path fill="#624457" d="M103.096 403.801s-6.866-1.366-2.491-7.442c0-.001-1.351 5.452 2.491 7.442z"/></svg>